<svg width="968" height="776" viewBox="0 0 968 776" fill="none" xmlns="http://www.w3.org/2000/svg">
<path d="M323.212 136.989L150.489 136.989C113.216 136.989 83 106.773 83 69.5004C83 32.2266 113.217 2.01053 150.491 2.01178L381.358 2.01954H555.358L810.506 2.00409C847.781 2.00183 878 32.2187 878 69.4939C878 106.766 847.787 136.981 810.515 136.984L622.15 136.998C615.207 136.999 609.578 142.627 609.578 149.57C609.578 156.514 615.207 162.142 622.15 162.143L754.793 162.149C791.911 162.151 822 192.241 822 229.359C822 266.475 791.91 296.562 754.794 296.559L622.081 296.547C615.176 296.546 609.578 302.144 609.578 309.048C609.578 315.953 615.176 321.55 622.08 321.55L811.008 321.543C848.006 321.541 878 351.534 878 388.533C878 425.529 848.009 455.521 811.013 455.523L612.854 455.53H609.89L609.746 455.53C561.702 455.608 522.779 494.579 522.779 542.641V547.518C522.779 598.321 563.964 639.505 614.767 639.505H882.513C919.785 639.505 950 669.72 950 706.992C950 744.263 919.786 774.478 882.515 774.479L542.485 774.487H302H69.4868C32.2149 774.487 2 744.272 2 707C2 669.728 32.214 639.514 69.4854 639.513L346.528 639.507C397.331 639.506 438.515 598.322 438.515 547.519C438.515 496.715 397.33 455.53 346.526 455.53H196L149.991 455.53C112.993 455.53 83 425.537 83 388.539C83 351.542 112.991 321.549 149.989 321.548L323.283 321.541C330.187 321.54 335.784 315.943 335.784 309.039C335.784 302.134 330.186 296.536 323.281 296.537L210.201 296.548C173.088 296.552 143 266.467 143 229.354C143 192.238 173.086 162.149 210.202 162.145L323.214 162.133C330.156 162.133 335.784 156.504 335.784 149.561C335.784 142.618 330.156 136.989 323.212 136.989Z" fill="#242424" fill-opacity="0.7"/>
<path d="M721 455.53H609.89V455.53C561.78 455.53 522.779 494.531 522.779 542.64V547.518C522.779 598.321 563.964 639.505 614.767 639.505H882.513C919.785 639.505 950 669.72 950 706.992V706.992C950 744.263 919.786 774.478 882.515 774.479L542.485 774.487H302H69.4868C32.2149 774.487 2 744.272 2 707V707C2 669.728 32.214 639.514 69.4854 639.513L346.528 639.507C397.331 639.506 438.515 598.322 438.515 547.519V547.519C438.515 496.715 397.33 455.53 346.526 455.53H196L149.991 455.53C112.993 455.53 83 425.537 83 388.539V388.539C83 351.542 112.991 321.549 149.989 321.548L323.283 321.541C330.187 321.541 335.784 315.943 335.784 309.039V309.039C335.784 302.134 330.186 296.536 323.281 296.537L210.201 296.548C173.088 296.552 143 266.467 143 229.354V229.354V229.354C143 192.238 173.086 162.149 210.202 162.145L323.214 162.133C330.156 162.133 335.784 156.504 335.784 149.561V149.561C335.784 142.618 330.156 136.989 323.212 136.989L150.489 136.989C113.216 136.989 83 106.773 83 69.5004V69.5004C83 32.2266 113.217 2.01053 150.491 2.01178L381.358 2.01954H555.358L810.506 2.00409C847.781 2.00183 878 32.2187 878 69.494V69.494C878 106.766 847.787 136.981 810.515 136.984L622.15 136.998C615.207 136.999 609.578 142.627 609.578 149.57V149.57C609.578 156.514 615.207 162.142 622.15 162.143L754.793 162.149C791.911 162.151 822 192.241 822 229.359V229.359V229.359C822 266.475 791.91 296.562 754.794 296.559L622.081 296.547C615.176 296.546 609.578 302.144 609.578 309.048V309.048C609.578 315.953 615.176 321.55 622.08 321.55L811.008 321.543C848.006 321.541 878 351.534 878 388.533V388.533C878 425.529 848.009 455.521 811.012 455.523L609.578 455.53" stroke="white" stroke-width="3"/>
<path d="M964.496 60.8886L964.487 60.8861L964.477 60.8839L953.621 58.4956C953.197 58.3827 952.688 58.116 952.249 57.7573C951.804 57.3932 951.49 56.9825 951.379 56.6153L947.809 43.5247L947.81 43.5247L947.806 43.5135C946.759 39.9975 941.695 40.2598 941.008 43.852L937.279 56.6127L937.272 56.6372L937.267 56.6623C937.078 57.6853 936.276 58.4846 935.252 58.6692L935.245 58.6705L935.237 58.672L924.787 60.8816C921.035 61.5651 920.927 66.8975 924.652 67.7294L924.652 67.7296L924.666 67.7322L935.238 69.7864C935.72 69.8953 936.246 70.1605 936.678 70.5273C937.115 70.898 937.414 71.3362 937.508 71.7665L937.511 71.7774L937.513 71.7882L941.009 84.892C941.808 88.4873 946.904 88.5656 947.811 84.9918C947.811 84.9908 947.812 84.9897 947.812 84.9887L951.381 71.5686L951.381 71.5686L951.383 71.5627C951.61 70.6658 952.547 69.9701 953.589 69.7896L953.589 69.7897L953.598 69.7878L964.212 67.7332C967.914 67.0872 968.133 61.8416 964.496 60.8886Z" fill="white" stroke="black"/>
</svg>
