<svg width="1610" height="608" viewBox="0 0 1610 608" fill="none" xmlns="http://www.w3.org/2000/svg">
<path d="M1544 2H66C30.6538 2 2 30.6538 2 66C2 101.346 30.6538 130 66 130H152C174.091 130 192 147.909 192 170C192 192.091 209.909 210 232 210H306C323.121 210 337 223.879 337 241C337 258.121 350.879 272 368 272H658.398C713.627 272 758.398 316.772 758.398 372C758.398 427.228 713.627 472 658.398 472H417C379.997 472 350 501.997 350 539C350 576.003 379.997 606 417 606H1183C1220 606 1250 576.003 1250 539C1250 501.997 1220 472 1183 472H954C898.772 472 854 427.228 854 372C854 316.772 898.772 272 954 272H1232C1249.12 272 1263 258.121 1263 241C1263 223.879 1276.88 210 1294 210H1383C1405.09 210 1423 192.091 1423 170C1423 147.909 1440.91 130 1463 130H1544C1579.35 130 1608 101.346 1608 66C1608 30.6538 1579.35 2 1544 2Z" fill="#242424" fill-opacity="0.7" stroke="white" stroke-width="3"/>
<path d="M141.682 52.778H159.31V80H154.942V56.444H146.05V80H141.682V52.778ZM175.636 80.468C174.154 80.468 172.815 80.221 171.619 79.727C170.449 79.233 169.448 78.531 168.616 77.621C167.81 76.711 167.186 75.606 166.744 74.306C166.302 73.006 166.081 71.55 166.081 69.938C166.081 68.326 166.302 66.87 166.744 65.57C167.186 64.27 167.81 63.165 168.616 62.255C169.448 61.345 170.449 60.643 171.619 60.149C172.815 59.655 174.154 59.408 175.636 59.408C177.118 59.408 178.444 59.655 179.614 60.149C180.81 60.643 181.811 61.345 182.617 62.255C183.449 63.165 184.086 64.27 184.528 65.57C184.97 66.87 185.191 68.326 185.191 69.938C185.191 71.55 184.97 73.006 184.528 74.306C184.086 75.606 183.449 76.711 182.617 77.621C181.811 78.531 180.81 79.233 179.614 79.727C178.444 80.221 177.118 80.468 175.636 80.468ZM175.636 77.114C177.196 77.114 178.431 76.646 179.341 75.71C180.277 74.748 180.745 73.331 180.745 71.459V68.417C180.745 66.545 180.277 65.141 179.341 64.205C178.431 63.243 177.196 62.762 175.636 62.762C174.076 62.762 172.828 63.243 171.892 64.205C170.982 65.141 170.527 66.545 170.527 68.417V71.459C170.527 73.331 170.982 74.748 171.892 75.71C172.828 76.646 174.076 77.114 175.636 77.114ZM189.739 76.568H192.04C192.794 75.372 193.392 73.929 193.834 72.239C194.276 70.523 194.497 68.495 194.497 66.155V59.876H208.225V76.568H211.462V85.46H207.64V80H193.561V85.46H189.739V76.568ZM204.052 76.568V63.308H198.475V66.311C198.475 68.599 198.293 70.575 197.929 72.239C197.591 73.877 197.084 75.32 196.408 76.568H204.052ZM217.53 59.876H234.301V80H230.05V63.308H221.782V80H217.53V59.876ZM242.592 59.876H246.804V68.534L246.414 73.994H246.609L255.501 59.876H259.518V80H255.306V71.342L255.696 65.882H255.501L246.609 80H242.592V59.876ZM276.936 80.468C275.428 80.468 274.076 80.221 272.88 79.727C271.71 79.233 270.709 78.531 269.877 77.621C269.071 76.711 268.447 75.606 268.005 74.306C267.589 73.006 267.381 71.55 267.381 69.938C267.381 68.326 267.589 66.87 268.005 65.57C268.447 64.27 269.071 63.165 269.877 62.255C270.709 61.345 271.71 60.643 272.88 60.149C274.076 59.655 275.415 59.408 276.897 59.408C278.977 59.408 280.641 59.85 281.889 60.734C283.163 61.618 284.112 62.762 284.736 64.166L281.421 65.96C281.057 65.024 280.498 64.283 279.744 63.737C279.016 63.191 278.067 62.918 276.897 62.918C275.285 62.918 274.037 63.412 273.153 64.4C272.269 65.362 271.827 66.649 271.827 68.261V71.615C271.827 73.201 272.269 74.488 273.153 75.476C274.037 76.464 275.311 76.958 276.975 76.958C278.223 76.958 279.237 76.672 280.017 76.1C280.823 75.528 281.46 74.748 281.928 73.76L285.048 75.671C284.398 77.075 283.41 78.232 282.084 79.142C280.758 80.026 279.042 80.468 276.936 80.468ZM291.351 59.876H295.212V66.506H298.059C300.113 66.506 301.764 67.091 303.012 68.261C304.286 69.431 304.923 71.095 304.923 73.253C304.923 75.411 304.286 77.075 303.012 78.245C301.764 79.415 300.113 80 298.059 80H291.351V59.876ZM297.786 76.802C298.774 76.802 299.541 76.581 300.087 76.139C300.659 75.671 300.945 74.943 300.945 73.955V72.551C300.945 71.563 300.659 70.848 300.087 70.406C299.541 69.938 298.774 69.704 297.786 69.704H295.212V76.802H297.786ZM307.458 59.876H311.319V80H307.458V59.876ZM318.48 59.876H329.283C331.025 59.876 332.377 60.344 333.339 61.28C334.301 62.19 334.782 63.412 334.782 64.946C334.782 67.442 333.417 68.898 330.687 69.314V69.509C332.351 69.639 333.573 70.12 334.353 70.952C335.133 71.758 335.523 72.824 335.523 74.15C335.523 74.956 335.38 75.71 335.094 76.412C334.834 77.114 334.444 77.738 333.924 78.284C333.404 78.804 332.754 79.22 331.974 79.532C331.22 79.844 330.362 80 329.4 80H318.48V59.876ZM328.503 76.802C329.335 76.802 329.985 76.607 330.453 76.217C330.921 75.801 331.155 75.216 331.155 74.462V73.526C331.155 72.772 330.921 72.187 330.453 71.771C330.011 71.355 329.413 71.147 328.659 71.147H322.731V76.802H328.503ZM328.113 68.3C328.815 68.3 329.374 68.105 329.79 67.715C330.206 67.325 330.414 66.792 330.414 66.116V65.258C330.414 64.582 330.206 64.049 329.79 63.659C329.374 63.269 328.815 63.074 328.113 63.074H322.731V68.3H328.113ZM359.102 80C357.88 80 356.957 79.688 356.333 79.064C355.735 78.44 355.371 77.621 355.241 76.607H355.046C354.656 77.829 353.941 78.778 352.901 79.454C351.887 80.13 350.587 80.468 349.001 80.468C346.947 80.468 345.309 79.935 344.087 78.869C342.865 77.777 342.254 76.282 342.254 74.384C342.254 72.434 342.969 70.952 344.399 69.938C345.855 68.898 348.078 68.378 351.068 68.378H354.929V66.818C354.929 64.088 353.486 62.723 350.6 62.723C349.3 62.723 348.247 62.983 347.441 63.503C346.635 63.997 345.959 64.66 345.413 65.492L342.878 63.425C343.45 62.333 344.412 61.397 345.764 60.617C347.116 59.811 348.858 59.408 350.99 59.408C353.538 59.408 355.54 60.019 356.996 61.241C358.452 62.463 359.18 64.231 359.18 66.545V76.646H361.715V80H359.102ZM350.21 77.348C351.588 77.348 352.719 77.036 353.603 76.412C354.487 75.788 354.929 74.982 354.929 73.994V71.069H351.146C348.078 71.069 346.544 71.992 346.544 73.838V74.618C346.544 75.528 346.869 76.217 347.519 76.685C348.169 77.127 349.066 77.348 350.21 77.348ZM368.291 59.876H372.503V68.534L372.113 73.994H372.308L381.2 59.876H385.217V80H381.005V71.342L381.395 65.882H381.2L372.308 80H368.291V59.876ZM376.754 57.224C375.246 57.224 374.024 56.899 373.088 56.249C372.152 55.573 371.385 54.572 370.787 53.246L369.812 51.062L373.361 49.814L374.765 53.948C374.999 54.052 375.311 54.13 375.701 54.182C376.091 54.208 376.442 54.221 376.754 54.221C377.066 54.221 377.417 54.208 377.807 54.182C378.197 54.13 378.509 54.052 378.743 53.948L380.147 49.814L383.696 51.062L382.721 53.246C382.123 54.572 381.356 55.573 380.42 56.249C379.484 56.899 378.262 57.224 376.754 57.224ZM399.749 63.308H392.69V59.876H411.098V63.308H404V80H399.749V63.308ZM427.463 80.468C425.929 80.468 424.551 80.221 423.329 79.727C422.107 79.233 421.08 78.531 420.248 77.621C419.416 76.711 418.779 75.619 418.337 74.345C417.895 73.045 417.674 71.589 417.674 69.977C417.674 68.365 417.895 66.909 418.337 65.609C418.805 64.309 419.442 63.204 420.248 62.294C421.08 61.358 422.081 60.643 423.251 60.149C424.421 59.655 425.721 59.408 427.151 59.408C428.555 59.408 429.829 59.655 430.973 60.149C432.117 60.617 433.092 61.293 433.898 62.177C434.704 63.061 435.315 64.114 435.731 65.336C436.173 66.558 436.394 67.91 436.394 69.392V70.991H421.964V71.654C421.964 73.24 422.458 74.54 423.446 75.554C424.434 76.542 425.799 77.036 427.541 77.036C428.841 77.036 429.946 76.763 430.856 76.217C431.792 75.645 432.546 74.891 433.118 73.955L435.77 76.295C435.094 77.465 434.054 78.453 432.65 79.259C431.272 80.065 429.543 80.468 427.463 80.468ZM427.151 62.645C426.397 62.645 425.695 62.775 425.045 63.035C424.421 63.295 423.875 63.672 423.407 64.166C422.965 64.634 422.614 65.193 422.354 65.843C422.094 66.493 421.964 67.208 421.964 67.988V68.261H432.065V67.871C432.065 66.285 431.61 65.024 430.7 64.088C429.816 63.126 428.633 62.645 427.151 62.645ZM452.914 80.468C451.406 80.468 450.054 80.221 448.858 79.727C447.688 79.233 446.687 78.531 445.855 77.621C445.049 76.711 444.425 75.606 443.983 74.306C443.567 73.006 443.359 71.55 443.359 69.938C443.359 68.326 443.567 66.87 443.983 65.57C444.425 64.27 445.049 63.165 445.855 62.255C446.687 61.345 447.688 60.643 448.858 60.149C450.054 59.655 451.393 59.408 452.875 59.408C454.955 59.408 456.619 59.85 457.867 60.734C459.141 61.618 460.09 62.762 460.714 64.166L457.399 65.96C457.035 65.024 456.476 64.283 455.722 63.737C454.994 63.191 454.045 62.918 452.875 62.918C451.263 62.918 450.015 63.412 449.131 64.4C448.247 65.362 447.805 66.649 447.805 68.261V71.615C447.805 73.201 448.247 74.488 449.131 75.476C450.015 76.464 451.289 76.958 452.953 76.958C454.201 76.958 455.215 76.672 455.995 76.1C456.801 75.528 457.438 74.748 457.906 73.76L461.026 75.671C460.376 77.075 459.388 78.232 458.062 79.142C456.736 80.026 455.02 80.468 452.914 80.468ZM469.513 59.876H473.764V66.506H479.497C481.577 66.506 483.241 67.091 484.489 68.261C485.737 69.431 486.361 71.095 486.361 73.253C486.361 75.411 485.737 77.075 484.489 78.245C483.241 79.415 481.577 80 479.497 80H469.513V59.876ZM478.756 76.685C479.744 76.685 480.524 76.451 481.096 75.983C481.694 75.515 481.993 74.826 481.993 73.916V72.59C481.993 71.68 481.694 70.991 481.096 70.523C480.524 70.055 479.744 69.821 478.756 69.821H473.764V76.685H478.756ZM519.169 59.876H523.42V67.988H531.766V59.876H536.017V80H531.766V71.42H523.42V80H519.169V59.876ZM560.22 80C558.998 80 558.075 79.688 557.451 79.064C556.853 78.44 556.489 77.621 556.359 76.607H556.164C555.774 77.829 555.059 78.778 554.019 79.454C553.005 80.13 551.705 80.468 550.119 80.468C548.065 80.468 546.427 79.935 545.205 78.869C543.983 77.777 543.372 76.282 543.372 74.384C543.372 72.434 544.087 70.952 545.517 69.938C546.973 68.898 549.196 68.378 552.186 68.378H556.047V66.818C556.047 64.088 554.604 62.723 551.718 62.723C550.418 62.723 549.365 62.983 548.559 63.503C547.753 63.997 547.077 64.66 546.531 65.492L543.996 63.425C544.568 62.333 545.53 61.397 546.882 60.617C548.234 59.811 549.976 59.408 552.108 59.408C554.656 59.408 556.658 60.019 558.114 61.241C559.57 62.463 560.298 64.231 560.298 66.545V76.646H562.833V80H560.22ZM551.328 77.348C552.706 77.348 553.837 77.036 554.721 76.412C555.605 75.788 556.047 74.982 556.047 73.994V71.069H552.264C549.196 71.069 547.662 71.992 547.662 73.838V74.618C547.662 75.528 547.987 76.217 548.637 76.685C549.287 77.127 550.184 77.348 551.328 77.348ZM594.588 59.876H598.839V67.988H607.185V59.876H611.436V80H607.185V71.42H598.839V80H594.588V59.876ZM635.64 80C634.418 80 633.495 79.688 632.871 79.064C632.273 78.44 631.909 77.621 631.779 76.607H631.584C631.194 77.829 630.479 78.778 629.439 79.454C628.425 80.13 627.125 80.468 625.539 80.468C623.485 80.468 621.847 79.935 620.625 78.869C619.403 77.777 618.792 76.282 618.792 74.384C618.792 72.434 619.507 70.952 620.937 69.938C622.393 68.898 624.616 68.378 627.606 68.378H631.467V66.818C631.467 64.088 630.024 62.723 627.138 62.723C625.838 62.723 624.785 62.983 623.979 63.503C623.173 63.997 622.497 64.66 621.951 65.492L619.416 63.425C619.988 62.333 620.95 61.397 622.302 60.617C623.654 59.811 625.396 59.408 627.528 59.408C630.076 59.408 632.078 60.019 633.534 61.241C634.99 62.463 635.718 64.231 635.718 66.545V76.646H638.253V80H635.64ZM626.748 77.348C628.126 77.348 629.257 77.036 630.141 76.412C631.025 75.788 631.467 74.982 631.467 73.994V71.069H627.684C624.616 71.069 623.082 71.992 623.082 73.838V74.618C623.082 75.528 623.407 76.217 624.057 76.685C624.707 77.127 625.604 77.348 626.748 77.348ZM654.033 80.468C652.525 80.468 651.173 80.221 649.977 79.727C648.807 79.233 647.806 78.531 646.974 77.621C646.168 76.711 645.544 75.606 645.102 74.306C644.686 73.006 644.478 71.55 644.478 69.938C644.478 68.326 644.686 66.87 645.102 65.57C645.544 64.27 646.168 63.165 646.974 62.255C647.806 61.345 648.807 60.643 649.977 60.149C651.173 59.655 652.512 59.408 653.994 59.408C656.074 59.408 657.738 59.85 658.986 60.734C660.26 61.618 661.209 62.762 661.833 64.166L658.518 65.96C658.154 65.024 657.595 64.283 656.841 63.737C656.113 63.191 655.164 62.918 653.994 62.918C652.382 62.918 651.134 63.412 650.25 64.4C649.366 65.362 648.924 66.649 648.924 68.261V71.615C648.924 73.201 649.366 74.488 650.25 75.476C651.134 76.464 652.408 76.958 654.072 76.958C655.32 76.958 656.334 76.672 657.114 76.1C657.92 75.528 658.557 74.748 659.025 73.76L662.145 75.671C661.495 77.075 660.507 78.232 659.181 79.142C657.855 80.026 656.139 80.468 654.033 80.468ZM695.576 59.876H706.379C708.121 59.876 709.473 60.344 710.435 61.28C711.397 62.19 711.878 63.412 711.878 64.946C711.878 67.442 710.513 68.898 707.783 69.314V69.509C709.447 69.639 710.669 70.12 711.449 70.952C712.229 71.758 712.619 72.824 712.619 74.15C712.619 74.956 712.476 75.71 712.19 76.412C711.93 77.114 711.54 77.738 711.02 78.284C710.5 78.804 709.85 79.22 709.07 79.532C708.316 79.844 707.458 80 706.496 80H695.576V59.876ZM705.599 76.802C706.431 76.802 707.081 76.607 707.549 76.217C708.017 75.801 708.251 75.216 708.251 74.462V73.526C708.251 72.772 708.017 72.187 707.549 71.771C707.107 71.355 706.509 71.147 705.755 71.147H699.827V76.802H705.599ZM705.209 68.3C705.911 68.3 706.47 68.105 706.886 67.715C707.302 67.325 707.51 66.792 707.51 66.116V65.258C707.51 64.582 707.302 64.049 706.886 63.659C706.47 63.269 705.911 63.074 705.209 63.074H699.827V68.3H705.209ZM754.592 80.468C753.084 80.468 751.732 80.221 750.536 79.727C749.366 79.233 748.365 78.531 747.533 77.621C746.727 76.711 746.103 75.606 745.661 74.306C745.245 73.006 745.037 71.55 745.037 69.938C745.037 68.326 745.245 66.87 745.661 65.57C746.103 64.27 746.727 63.165 747.533 62.255C748.365 61.345 749.366 60.643 750.536 60.149C751.732 59.655 753.071 59.408 754.553 59.408C756.633 59.408 758.297 59.85 759.545 60.734C760.819 61.618 761.768 62.762 762.392 64.166L759.077 65.96C758.713 65.024 758.154 64.283 757.4 63.737C756.672 63.191 755.723 62.918 754.553 62.918C752.941 62.918 751.693 63.412 750.809 64.4C749.925 65.362 749.483 66.649 749.483 68.261V71.615C749.483 73.201 749.925 74.488 750.809 75.476C751.693 76.464 752.967 76.958 754.631 76.958C755.879 76.958 756.893 76.672 757.673 76.1C758.479 75.528 759.116 74.748 759.584 73.76L762.704 75.671C762.054 77.075 761.066 78.232 759.74 79.142C758.414 80.026 756.698 80.468 754.592 80.468ZM778.99 80.468C777.508 80.468 776.169 80.221 774.973 79.727C773.803 79.233 772.802 78.531 771.97 77.621C771.164 76.711 770.54 75.606 770.098 74.306C769.656 73.006 769.435 71.55 769.435 69.938C769.435 68.326 769.656 66.87 770.098 65.57C770.54 64.27 771.164 63.165 771.97 62.255C772.802 61.345 773.803 60.643 774.973 60.149C776.169 59.655 777.508 59.408 778.99 59.408C780.472 59.408 781.798 59.655 782.968 60.149C784.164 60.643 785.165 61.345 785.971 62.255C786.803 63.165 787.44 64.27 787.882 65.57C788.324 66.87 788.545 68.326 788.545 69.938C788.545 71.55 788.324 73.006 787.882 74.306C787.44 75.606 786.803 76.711 785.971 77.621C785.165 78.531 784.164 79.233 782.968 79.727C781.798 80.221 780.472 80.468 778.99 80.468ZM778.99 77.114C780.55 77.114 781.785 76.646 782.695 75.71C783.631 74.748 784.099 73.331 784.099 71.459V68.417C784.099 66.545 783.631 65.141 782.695 64.205C781.785 63.243 780.55 62.762 778.99 62.762C777.43 62.762 776.182 63.243 775.246 64.205C774.336 65.141 773.881 66.545 773.881 68.417V71.459C773.881 73.331 774.336 74.748 775.246 75.71C776.182 76.646 777.43 77.114 778.99 77.114ZM811.072 80H795.238V59.876H799.489V76.568H807.406V59.876H811.657V76.568H814.894V85.46H811.072V80ZM830.011 80.468C828.503 80.468 827.151 80.221 825.955 79.727C824.785 79.233 823.784 78.531 822.952 77.621C822.146 76.711 821.522 75.606 821.08 74.306C820.664 73.006 820.456 71.55 820.456 69.938C820.456 68.326 820.664 66.87 821.08 65.57C821.522 64.27 822.146 63.165 822.952 62.255C823.784 61.345 824.785 60.643 825.955 60.149C827.151 59.655 828.49 59.408 829.972 59.408C832.052 59.408 833.716 59.85 834.964 60.734C836.238 61.618 837.187 62.762 837.811 64.166L834.496 65.96C834.132 65.024 833.573 64.283 832.819 63.737C832.091 63.191 831.142 62.918 829.972 62.918C828.36 62.918 827.112 63.412 826.228 64.4C825.344 65.362 824.902 66.649 824.902 68.261V71.615C824.902 73.201 825.344 74.488 826.228 75.476C827.112 76.464 828.386 76.958 830.05 76.958C831.298 76.958 832.312 76.672 833.092 76.1C833.898 75.528 834.535 74.748 835.003 73.76L838.123 75.671C837.473 77.075 836.485 78.232 835.159 79.142C833.833 80.026 832.117 80.468 830.011 80.468ZM854.839 80.468C853.305 80.468 851.927 80.221 850.705 79.727C849.483 79.233 848.456 78.531 847.624 77.621C846.792 76.711 846.155 75.619 845.713 74.345C845.271 73.045 845.05 71.589 845.05 69.977C845.05 68.365 845.271 66.909 845.713 65.609C846.181 64.309 846.818 63.204 847.624 62.294C848.456 61.358 849.457 60.643 850.627 60.149C851.797 59.655 853.097 59.408 854.527 59.408C855.931 59.408 857.205 59.655 858.349 60.149C859.493 60.617 860.468 61.293 861.274 62.177C862.08 63.061 862.691 64.114 863.107 65.336C863.549 66.558 863.77 67.91 863.77 69.392V70.991H849.34V71.654C849.34 73.24 849.834 74.54 850.822 75.554C851.81 76.542 853.175 77.036 854.917 77.036C856.217 77.036 857.322 76.763 858.232 76.217C859.168 75.645 859.922 74.891 860.494 73.955L863.146 76.295C862.47 77.465 861.43 78.453 860.026 79.259C858.648 80.065 856.919 80.468 854.839 80.468ZM854.527 62.645C853.773 62.645 853.071 62.775 852.421 63.035C851.797 63.295 851.251 63.672 850.783 64.166C850.341 64.634 849.99 65.193 849.73 65.843C849.47 66.493 849.34 67.208 849.34 67.988V68.261H859.441V67.871C859.441 66.285 858.986 65.024 858.076 64.088C857.192 63.126 856.009 62.645 854.527 62.645ZM877.404 63.308H870.345V59.876H888.753V63.308H881.655V80H877.404V63.308ZM895.251 76.568H897.552L898.995 73.916C899.307 73.318 899.671 72.889 900.087 72.629C900.503 72.343 901.01 72.174 901.608 72.122V71.966C899.944 71.836 898.592 71.303 897.552 70.367C896.512 69.431 895.992 68.053 895.992 66.233C895.992 65.271 896.148 64.4 896.46 63.62C896.772 62.84 897.214 62.177 897.786 61.631C898.384 61.059 899.086 60.63 899.892 60.344C900.724 60.032 901.647 59.876 902.661 59.876H912.645V80H908.394V72.512H904.611L901.998 77.27C901.478 78.258 900.906 78.96 900.282 79.376C899.658 79.792 898.852 80 897.864 80H895.251V76.568ZM908.394 63.191H903.441C902.453 63.191 901.686 63.425 901.14 63.893C900.62 64.335 900.36 64.959 900.36 65.765V66.779C900.36 67.585 900.62 68.222 901.14 68.69C901.686 69.132 902.453 69.353 903.441 69.353H908.394V63.191ZM919.884 80L927.372 69.782L920.196 59.876H925.149L927.801 63.698L929.907 66.74H930.141L932.208 63.698L934.86 59.876H939.462L932.247 69.626L939.813 80H934.821L931.818 75.671L929.751 72.707H929.517L927.489 75.671L924.525 80H919.884ZM952.785 74.072H958.83L953.994 85.655H950.679L952.785 74.072ZM1008.95 71.108H1008.76C1008.08 71.94 1007.28 72.577 1006.34 73.019C1005.43 73.435 1004.27 73.643 1002.87 73.643C998.475 73.643 996.278 71.42 996.278 66.974V59.876H1000.53V66.701C1000.53 67.871 1000.83 68.729 1001.43 69.275C1002.05 69.795 1003.09 70.055 1004.55 70.055C1005.87 70.055 1006.94 69.86 1007.74 69.47C1008.55 69.054 1008.95 68.456 1008.95 67.676V59.876H1013.2V80H1008.95V71.108ZM1028.24 63.308H1021.18V59.876H1039.59V63.308H1032.49V80H1028.24V63.308ZM1055.53 80.468C1054.05 80.468 1052.71 80.221 1051.51 79.727C1050.34 79.233 1049.34 78.531 1048.51 77.621C1047.7 76.711 1047.08 75.606 1046.64 74.306C1046.19 73.006 1045.97 71.55 1045.97 69.938C1045.97 68.326 1046.19 66.87 1046.64 65.57C1047.08 64.27 1047.7 63.165 1048.51 62.255C1049.34 61.345 1050.34 60.643 1051.51 60.149C1052.71 59.655 1054.05 59.408 1055.53 59.408C1057.01 59.408 1058.34 59.655 1059.51 60.149C1060.7 60.643 1061.7 61.345 1062.51 62.255C1063.34 63.165 1063.98 64.27 1064.42 65.57C1064.86 66.87 1065.08 68.326 1065.08 69.938C1065.08 71.55 1064.86 73.006 1064.42 74.306C1063.98 75.606 1063.34 76.711 1062.51 77.621C1061.7 78.531 1060.7 79.233 1059.51 79.727C1058.34 80.221 1057.01 80.468 1055.53 80.468ZM1055.53 77.114C1057.09 77.114 1058.32 76.646 1059.23 75.71C1060.17 74.748 1060.64 73.331 1060.64 71.459V68.417C1060.64 66.545 1060.17 65.141 1059.23 64.205C1058.32 63.243 1057.09 62.762 1055.53 62.762C1053.97 62.762 1052.72 63.243 1051.78 64.205C1050.87 65.141 1050.42 66.545 1050.42 68.417V71.459C1050.42 73.331 1050.87 74.748 1051.78 75.71C1052.72 76.646 1053.97 77.114 1055.53 77.114ZM1080.71 80.468C1079.28 80.468 1077.98 80.221 1076.81 79.727C1075.66 79.233 1074.67 78.492 1073.84 77.504C1073.04 76.516 1072.41 75.281 1071.97 73.799C1071.53 72.291 1071.31 70.536 1071.31 68.534C1071.31 65.492 1071.52 62.905 1071.93 60.773C1072.35 58.615 1073.01 56.86 1073.92 55.508C1074.83 54.13 1075.99 53.103 1077.39 52.427C1078.82 51.751 1080.54 51.348 1082.54 51.218L1088.66 50.867V54.845L1082.62 55.196C1081.4 55.274 1080.37 55.482 1079.54 55.82C1078.73 56.132 1078.07 56.639 1077.55 57.341C1077.03 58.043 1076.62 58.953 1076.34 60.071C1076.08 61.163 1075.9 62.528 1075.79 64.166H1076.03C1076.52 62.866 1077.24 61.865 1078.17 61.163C1079.11 60.461 1080.32 60.11 1081.8 60.11C1083.02 60.11 1084.14 60.331 1085.15 60.773C1086.19 61.215 1087.08 61.865 1087.8 62.723C1088.53 63.555 1089.09 64.595 1089.48 65.843C1089.9 67.091 1090.11 68.508 1090.11 70.094C1090.11 71.654 1089.88 73.084 1089.44 74.384C1089 75.658 1088.36 76.75 1087.53 77.66C1086.73 78.544 1085.74 79.233 1084.57 79.727C1083.42 80.221 1082.14 80.468 1080.71 80.468ZM1080.67 77.114C1082.15 77.114 1083.35 76.646 1084.26 75.71C1085.19 74.748 1085.66 73.409 1085.66 71.693V68.963C1085.66 67.143 1085.22 65.778 1084.33 64.868C1083.45 63.932 1082.23 63.464 1080.67 63.464C1079.08 63.464 1077.86 63.919 1077 64.829C1076.17 65.713 1075.75 66.896 1075.75 68.378V71.615C1075.75 73.409 1076.2 74.774 1077.08 75.71C1077.99 76.646 1079.19 77.114 1080.67 77.114ZM1095.82 59.876H1099.68V66.506H1102.53C1104.59 66.506 1106.24 67.091 1107.48 68.261C1108.76 69.431 1109.4 71.095 1109.4 73.253C1109.4 75.411 1108.76 77.075 1107.48 78.245C1106.24 79.415 1104.59 80 1102.53 80H1095.82V59.876ZM1102.26 76.802C1103.25 76.802 1104.01 76.581 1104.56 76.139C1105.13 75.671 1105.42 74.943 1105.42 73.955V72.551C1105.42 71.563 1105.13 70.848 1104.56 70.406C1104.01 69.938 1103.25 69.704 1102.26 69.704H1099.68V76.802H1102.26ZM1111.93 59.876H1115.79V80H1111.93V59.876ZM1147.66 59.876H1151.91V67.988H1160.26V59.876H1164.51V80H1160.26V71.42H1151.91V80H1147.66V59.876ZM1181.66 80.468C1180.12 80.468 1178.74 80.221 1177.52 79.727C1176.3 79.233 1175.27 78.531 1174.44 77.621C1173.61 76.711 1172.97 75.619 1172.53 74.345C1172.09 73.045 1171.87 71.589 1171.87 69.977C1171.87 68.365 1172.09 66.909 1172.53 65.609C1173 64.309 1173.63 63.204 1174.44 62.294C1175.27 61.358 1176.27 60.643 1177.44 60.149C1178.61 59.655 1179.91 59.408 1181.34 59.408C1182.75 59.408 1184.02 59.655 1185.17 60.149C1186.31 60.617 1187.28 61.293 1188.09 62.177C1188.9 63.061 1189.51 64.114 1189.92 65.336C1190.37 66.558 1190.59 67.91 1190.59 69.392V70.991H1176.16V71.654C1176.16 73.24 1176.65 74.54 1177.64 75.554C1178.63 76.542 1179.99 77.036 1181.73 77.036C1183.03 77.036 1184.14 76.763 1185.05 76.217C1185.98 75.645 1186.74 74.891 1187.31 73.955L1189.96 76.295C1189.29 77.465 1188.25 78.453 1186.84 79.259C1185.46 80.065 1183.74 80.468 1181.66 80.468ZM1181.34 62.645C1180.59 62.645 1179.89 62.775 1179.24 63.035C1178.61 63.295 1178.07 63.672 1177.6 64.166C1177.16 64.634 1176.81 65.193 1176.55 65.843C1176.29 66.493 1176.16 67.208 1176.16 67.988V68.261H1186.26V67.871C1186.26 66.285 1185.8 65.024 1184.89 64.088C1184.01 63.126 1182.83 62.645 1181.34 62.645ZM1223.12 59.876H1239.89V80H1235.64V63.308H1227.37V80H1223.12V59.876ZM1248.03 59.876H1252.28V63.308H1252.51C1253.11 62.086 1253.9 61.137 1254.89 60.461C1255.88 59.759 1257.11 59.408 1258.6 59.408C1260.96 59.408 1262.85 60.292 1264.25 62.06C1265.65 63.828 1266.36 66.454 1266.36 69.938C1266.36 73.422 1265.65 76.048 1264.25 77.816C1262.85 79.584 1260.96 80.468 1258.6 80.468C1257.11 80.468 1255.88 80.13 1254.89 79.454C1253.9 78.752 1253.11 77.79 1252.51 76.568H1252.28V87.8H1248.03V59.876ZM1256.84 76.997C1258.45 76.997 1259.69 76.503 1260.55 75.515C1261.43 74.527 1261.87 73.214 1261.87 71.576V68.3C1261.87 66.662 1261.43 65.349 1260.55 64.361C1259.69 63.373 1258.45 62.879 1256.84 62.879C1256.22 62.879 1255.63 62.957 1255.09 63.113C1254.54 63.269 1254.06 63.503 1253.64 63.815C1253.23 64.127 1252.89 64.517 1252.63 64.985C1252.39 65.427 1252.28 65.96 1252.28 66.584V73.292C1252.28 73.916 1252.39 74.462 1252.63 74.93C1252.89 75.372 1253.23 75.749 1253.64 76.061C1254.06 76.373 1254.54 76.607 1255.09 76.763C1255.63 76.919 1256.22 76.997 1256.84 76.997ZM1281.79 80.468C1280.3 80.468 1278.96 80.221 1277.77 79.727C1276.6 79.233 1275.6 78.531 1274.77 77.621C1273.96 76.711 1273.34 75.606 1272.89 74.306C1272.45 73.006 1272.23 71.55 1272.23 69.938C1272.23 68.326 1272.45 66.87 1272.89 65.57C1273.34 64.27 1273.96 63.165 1274.77 62.255C1275.6 61.345 1276.6 60.643 1277.77 60.149C1278.96 59.655 1280.3 59.408 1281.79 59.408C1283.27 59.408 1284.59 59.655 1285.76 60.149C1286.96 60.643 1287.96 61.345 1288.77 62.255C1289.6 63.165 1290.24 64.27 1290.68 65.57C1291.12 66.87 1291.34 68.326 1291.34 69.938C1291.34 71.55 1291.12 73.006 1290.68 74.306C1290.24 75.606 1289.6 76.711 1288.77 77.621C1287.96 78.531 1286.96 79.233 1285.76 79.727C1284.59 80.221 1283.27 80.468 1281.79 80.468ZM1281.79 77.114C1283.35 77.114 1284.58 76.646 1285.49 75.71C1286.43 74.748 1286.89 73.331 1286.89 71.459V68.417C1286.89 66.545 1286.43 65.141 1285.49 64.205C1284.58 63.243 1283.35 62.762 1281.79 62.762C1280.23 62.762 1278.98 63.243 1278.04 64.205C1277.13 65.141 1276.68 66.545 1276.68 68.417V71.459C1276.68 73.331 1277.13 74.748 1278.04 75.71C1278.98 76.646 1280.23 77.114 1281.79 77.114ZM1298.54 59.876H1315.31V80H1311.06V63.308H1302.79V80H1298.54V59.876ZM1337.95 59.876H1342.24L1332.49 83.9C1331.97 85.2 1331.29 86.175 1330.43 86.825C1329.6 87.475 1328.39 87.8 1326.8 87.8H1323.41V84.368H1328.17L1330 79.727L1321.89 59.876H1326.33L1329.53 68.3L1332.03 75.203H1332.26L1334.76 68.3L1337.95 59.876ZM1357.95 80.468C1356.44 80.468 1355.09 80.221 1353.89 79.727C1352.72 79.233 1351.72 78.531 1350.89 77.621C1350.08 76.711 1349.46 75.606 1349.01 74.306C1348.6 73.006 1348.39 71.55 1348.39 69.938C1348.39 68.326 1348.6 66.87 1349.01 65.57C1349.46 64.27 1350.08 63.165 1350.89 62.255C1351.72 61.345 1352.72 60.643 1353.89 60.149C1355.09 59.655 1356.42 59.408 1357.91 59.408C1359.99 59.408 1361.65 59.85 1362.9 60.734C1364.17 61.618 1365.12 62.762 1365.75 64.166L1362.43 65.96C1362.07 65.024 1361.51 64.283 1360.75 63.737C1360.03 63.191 1359.08 62.918 1357.91 62.918C1356.29 62.918 1355.05 63.412 1354.16 64.4C1353.28 65.362 1352.84 66.649 1352.84 68.261V71.615C1352.84 73.201 1353.28 74.488 1354.16 75.476C1355.05 76.464 1356.32 76.958 1357.98 76.958C1359.23 76.958 1360.25 76.672 1361.03 76.1C1361.83 75.528 1362.47 74.748 1362.94 73.76L1366.06 75.671C1365.41 77.075 1364.42 78.232 1363.09 79.142C1361.77 80.026 1360.05 80.468 1357.95 80.468ZM1380.2 63.308H1373.14V59.876H1391.55V63.308H1384.45V80H1380.2V63.308ZM1399.02 59.876H1403.23V68.534L1402.84 73.994H1403.04L1411.93 59.876H1415.95V80H1411.74V71.342L1412.13 65.882H1411.93L1403.04 80H1399.02V59.876ZM1430.48 63.308H1423.42V59.876H1441.83V63.308H1434.73V80H1430.48V63.308ZM1449.96 59.876H1454.21V66.506H1459.95C1462.03 66.506 1463.69 67.091 1464.94 68.261C1466.19 69.431 1466.81 71.095 1466.81 73.253C1466.81 75.411 1466.19 77.075 1464.94 78.245C1463.69 79.415 1462.03 80 1459.95 80H1449.96V59.876ZM1459.21 76.685C1460.19 76.685 1460.97 76.451 1461.55 75.983C1462.14 75.515 1462.44 74.826 1462.44 73.916V72.59C1462.44 71.68 1462.14 70.991 1461.55 70.523C1460.97 70.055 1460.19 69.821 1459.21 69.821H1454.21V76.685H1459.21ZM369.637 126.876H380.44C382.182 126.876 383.534 127.344 384.496 128.28C385.458 129.19 385.939 130.412 385.939 131.946C385.939 134.442 384.574 135.898 381.844 136.314V136.509C383.508 136.639 384.73 137.12 385.51 137.952C386.29 138.758 386.68 139.824 386.68 141.15C386.68 141.956 386.537 142.71 386.251 143.412C385.991 144.114 385.601 144.738 385.081 145.284C384.561 145.804 383.911 146.22 383.131 146.532C382.377 146.844 381.519 147 380.557 147H369.637V126.876ZM379.66 143.802C380.492 143.802 381.142 143.607 381.61 143.217C382.078 142.801 382.312 142.216 382.312 141.462V140.526C382.312 139.772 382.078 139.187 381.61 138.771C381.168 138.355 380.57 138.147 379.816 138.147H373.888V143.802H379.66ZM379.27 135.3C379.972 135.3 380.531 135.105 380.947 134.715C381.363 134.325 381.571 133.792 381.571 133.116V132.258C381.571 131.582 381.363 131.049 380.947 130.659C380.531 130.269 379.972 130.074 379.27 130.074H373.888V135.3H379.27ZM394.659 126.876H398.91V134.988H402.537L407.373 126.876H411.936L407.451 134.208C407.009 134.962 406.58 135.495 406.164 135.807C405.748 136.119 405.267 136.34 404.721 136.47V136.665C405.345 136.795 405.865 137.029 406.281 137.367C406.697 137.679 407.126 138.225 407.568 139.005L410.103 143.568H412.287V147H409.791C408.933 147 408.192 146.805 407.568 146.415C406.97 145.999 406.411 145.336 405.891 144.426L402.537 138.42H398.91V147H394.659V126.876ZM433.8 126.876H438.09L428.34 150.9C427.82 152.2 427.131 153.175 426.273 153.825C425.441 154.475 424.232 154.8 422.646 154.8H419.253V151.368H424.011L425.844 146.727L417.732 126.876H422.178L425.376 135.3L427.872 142.203H428.106L430.602 135.3L433.8 126.876ZM453.792 147.468C452.284 147.468 450.932 147.221 449.736 146.727C448.566 146.233 447.565 145.531 446.733 144.621C445.927 143.711 445.303 142.606 444.861 141.306C444.445 140.006 444.237 138.55 444.237 136.938C444.237 135.326 444.445 133.87 444.861 132.57C445.303 131.27 445.927 130.165 446.733 129.255C447.565 128.345 448.566 127.643 449.736 127.149C450.932 126.655 452.271 126.408 453.753 126.408C455.833 126.408 457.497 126.85 458.745 127.734C460.019 128.618 460.968 129.762 461.592 131.166L458.277 132.96C457.913 132.024 457.354 131.283 456.6 130.737C455.872 130.191 454.923 129.918 453.753 129.918C452.141 129.918 450.893 130.412 450.009 131.4C449.125 132.362 448.683 133.649 448.683 135.261V138.615C448.683 140.201 449.125 141.488 450.009 142.476C450.893 143.464 452.167 143.958 453.831 143.958C455.079 143.958 456.093 143.672 456.873 143.1C457.679 142.528 458.316 141.748 458.784 140.76L461.904 142.671C461.254 144.075 460.266 145.232 458.94 146.142C457.614 147.026 455.898 147.468 453.792 147.468ZM478.191 147.468C476.709 147.468 475.37 147.221 474.174 146.727C473.004 146.233 472.003 145.531 471.171 144.621C470.365 143.711 469.741 142.606 469.299 141.306C468.857 140.006 468.636 138.55 468.636 136.938C468.636 135.326 468.857 133.87 469.299 132.57C469.741 131.27 470.365 130.165 471.171 129.255C472.003 128.345 473.004 127.643 474.174 127.149C475.37 126.655 476.709 126.408 478.191 126.408C479.673 126.408 480.999 126.655 482.169 127.149C483.365 127.643 484.366 128.345 485.172 129.255C486.004 130.165 486.641 131.27 487.083 132.57C487.525 133.87 487.746 135.326 487.746 136.938C487.746 138.55 487.525 140.006 487.083 141.306C486.641 142.606 486.004 143.711 485.172 144.621C484.366 145.531 483.365 146.233 482.169 146.727C480.999 147.221 479.673 147.468 478.191 147.468ZM478.191 144.114C479.751 144.114 480.986 143.646 481.896 142.71C482.832 141.748 483.3 140.331 483.3 138.459V135.417C483.3 133.545 482.832 132.141 481.896 131.205C480.986 130.243 479.751 129.762 478.191 129.762C476.631 129.762 475.383 130.243 474.447 131.205C473.537 132.141 473.082 133.545 473.082 135.417V138.459C473.082 140.331 473.537 141.748 474.447 142.71C475.383 143.646 476.631 144.114 478.191 144.114ZM495.335 126.876H506.138C507.88 126.876 509.232 127.344 510.194 128.28C511.156 129.19 511.637 130.412 511.637 131.946C511.637 134.442 510.272 135.898 507.542 136.314V136.509C509.206 136.639 510.428 137.12 511.208 137.952C511.988 138.758 512.378 139.824 512.378 141.15C512.378 141.956 512.235 142.71 511.949 143.412C511.689 144.114 511.299 144.738 510.779 145.284C510.259 145.804 509.609 146.22 508.829 146.532C508.075 146.844 507.217 147 506.255 147H495.335V126.876ZM505.358 143.802C506.19 143.802 506.84 143.607 507.308 143.217C507.776 142.801 508.01 142.216 508.01 141.462V140.526C508.01 139.772 507.776 139.187 507.308 138.771C506.866 138.355 506.268 138.147 505.514 138.147H499.586V143.802H505.358ZM504.968 135.3C505.67 135.3 506.229 135.105 506.645 134.715C507.061 134.325 507.269 133.792 507.269 133.116V132.258C507.269 131.582 507.061 131.049 506.645 130.659C506.229 130.269 505.67 130.074 504.968 130.074H499.586V135.3H504.968ZM518.486 126.876H522.347V133.506H525.194C527.248 133.506 528.899 134.091 530.147 135.261C531.421 136.431 532.058 138.095 532.058 140.253C532.058 142.411 531.421 144.075 530.147 145.245C528.899 146.415 527.248 147 525.194 147H518.486V126.876ZM524.921 143.802C525.909 143.802 526.676 143.581 527.222 143.139C527.794 142.671 528.08 141.943 528.08 140.955V139.551C528.08 138.563 527.794 137.848 527.222 137.406C526.676 136.938 525.909 136.704 524.921 136.704H522.347V143.802H524.921ZM534.593 126.876H538.454V147H534.593V126.876ZM554.039 147.468C552.505 147.468 551.127 147.221 549.905 146.727C548.683 146.233 547.656 145.531 546.824 144.621C545.992 143.711 545.355 142.619 544.913 141.345C544.471 140.045 544.25 138.589 544.25 136.977C544.25 135.365 544.471 133.909 544.913 132.609C545.381 131.309 546.018 130.204 546.824 129.294C547.656 128.358 548.657 127.643 549.827 127.149C550.997 126.655 552.297 126.408 553.727 126.408C555.131 126.408 556.405 126.655 557.549 127.149C558.693 127.617 559.668 128.293 560.474 129.177C561.28 130.061 561.891 131.114 562.307 132.336C562.749 133.558 562.97 134.91 562.97 136.392V137.991H548.54V138.654C548.54 140.24 549.034 141.54 550.022 142.554C551.01 143.542 552.375 144.036 554.117 144.036C555.417 144.036 556.522 143.763 557.432 143.217C558.368 142.645 559.122 141.891 559.694 140.955L562.346 143.295C561.67 144.465 560.63 145.453 559.226 146.259C557.848 147.065 556.119 147.468 554.039 147.468ZM553.727 129.645C552.973 129.645 552.271 129.775 551.621 130.035C550.997 130.295 550.451 130.672 549.983 131.166C549.541 131.634 549.19 132.193 548.93 132.843C548.67 133.493 548.54 134.208 548.54 134.988V135.261H558.641V134.871C558.641 133.285 558.186 132.024 557.276 131.088C556.392 130.126 555.209 129.645 553.727 129.645ZM595.466 126.876H599.717V134.988H608.063V126.876H612.314V147H608.063V138.42H599.717V147H595.466V126.876ZM629.029 147.468C627.547 147.468 626.208 147.221 625.012 146.727C623.842 146.233 622.841 145.531 622.009 144.621C621.203 143.711 620.579 142.606 620.137 141.306C619.695 140.006 619.474 138.55 619.474 136.938C619.474 135.326 619.695 133.87 620.137 132.57C620.579 131.27 621.203 130.165 622.009 129.255C622.841 128.345 623.842 127.643 625.012 127.149C626.208 126.655 627.547 126.408 629.029 126.408C630.511 126.408 631.837 126.655 633.007 127.149C634.203 127.643 635.204 128.345 636.01 129.255C636.842 130.165 637.479 131.27 637.921 132.57C638.363 133.87 638.584 135.326 638.584 136.938C638.584 138.55 638.363 140.006 637.921 141.306C637.479 142.606 636.842 143.711 636.01 144.621C635.204 145.531 634.203 146.233 633.007 146.727C631.837 147.221 630.511 147.468 629.029 147.468ZM629.029 144.114C630.589 144.114 631.824 143.646 632.734 142.71C633.67 141.748 634.138 140.331 634.138 138.459V135.417C634.138 133.545 633.67 132.141 632.734 131.205C631.824 130.243 630.589 129.762 629.029 129.762C627.469 129.762 626.221 130.243 625.285 131.205C624.375 132.141 623.92 133.545 623.92 135.417V138.459C623.92 140.331 624.375 141.748 625.285 142.71C626.221 143.646 627.469 144.114 629.029 144.114ZM646.174 126.876H656.977C658.719 126.876 660.071 127.344 661.033 128.28C661.995 129.19 662.476 130.412 662.476 131.946C662.476 134.442 661.111 135.898 658.381 136.314V136.509C660.045 136.639 661.267 137.12 662.047 137.952C662.827 138.758 663.217 139.824 663.217 141.15C663.217 141.956 663.074 142.71 662.788 143.412C662.528 144.114 662.138 144.738 661.618 145.284C661.098 145.804 660.448 146.22 659.668 146.532C658.914 146.844 658.056 147 657.094 147H646.174V126.876ZM656.197 143.802C657.029 143.802 657.679 143.607 658.147 143.217C658.615 142.801 658.849 142.216 658.849 141.462V140.526C658.849 139.772 658.615 139.187 658.147 138.771C657.705 138.355 657.107 138.147 656.353 138.147H650.425V143.802H656.197ZM655.807 135.3C656.509 135.3 657.068 135.105 657.484 134.715C657.9 134.325 658.108 133.792 658.108 133.116V132.258C658.108 131.582 657.9 131.049 657.484 130.659C657.068 130.269 656.509 130.074 655.807 130.074H650.425V135.3H655.807ZM669.325 126.876H672.952V143.724H677.476V126.876H681.103V143.724H685.627V126.876H689.254V147H669.325V126.876ZM704.878 147.468C703.344 147.468 701.966 147.221 700.744 146.727C699.522 146.233 698.495 145.531 697.663 144.621C696.831 143.711 696.194 142.619 695.752 141.345C695.31 140.045 695.089 138.589 695.089 136.977C695.089 135.365 695.31 133.909 695.752 132.609C696.22 131.309 696.857 130.204 697.663 129.294C698.495 128.358 699.496 127.643 700.666 127.149C701.836 126.655 703.136 126.408 704.566 126.408C705.97 126.408 707.244 126.655 708.388 127.149C709.532 127.617 710.507 128.293 711.313 129.177C712.119 130.061 712.73 131.114 713.146 132.336C713.588 133.558 713.809 134.91 713.809 136.392V137.991H699.379V138.654C699.379 140.24 699.873 141.54 700.861 142.554C701.849 143.542 703.214 144.036 704.956 144.036C706.256 144.036 707.361 143.763 708.271 143.217C709.207 142.645 709.961 141.891 710.533 140.955L713.185 143.295C712.509 144.465 711.469 145.453 710.065 146.259C708.687 147.065 706.958 147.468 704.878 147.468ZM704.566 129.645C703.812 129.645 703.11 129.775 702.46 130.035C701.836 130.295 701.29 130.672 700.822 131.166C700.38 131.634 700.029 132.193 699.769 132.843C699.509 133.493 699.379 134.208 699.379 134.988V135.261H709.48V134.871C709.48 133.285 709.025 132.024 708.115 131.088C707.231 130.126 706.048 129.645 704.566 129.645ZM730.329 147.468C728.821 147.468 727.469 147.221 726.273 146.727C725.103 146.233 724.102 145.531 723.27 144.621C722.464 143.711 721.84 142.606 721.398 141.306C720.982 140.006 720.774 138.55 720.774 136.938C720.774 135.326 720.982 133.87 721.398 132.57C721.84 131.27 722.464 130.165 723.27 129.255C724.102 128.345 725.103 127.643 726.273 127.149C727.469 126.655 728.808 126.408 730.29 126.408C732.37 126.408 734.034 126.85 735.282 127.734C736.556 128.618 737.505 129.762 738.129 131.166L734.814 132.96C734.45 132.024 733.891 131.283 733.137 130.737C732.409 130.191 731.46 129.918 730.29 129.918C728.678 129.918 727.43 130.412 726.546 131.4C725.662 132.362 725.22 133.649 725.22 135.261V138.615C725.22 140.201 725.662 141.488 726.546 142.476C727.43 143.464 728.704 143.958 730.368 143.958C731.616 143.958 732.63 143.672 733.41 143.1C734.216 142.528 734.853 141.748 735.321 140.76L738.441 142.671C737.791 144.075 736.803 145.232 735.477 146.142C734.151 147.026 732.435 147.468 730.329 147.468ZM752.583 130.308H745.524V126.876H763.932V130.308H756.834V147H752.583V130.308ZM771.873 126.876H782.676C784.418 126.876 785.77 127.344 786.732 128.28C787.694 129.19 788.175 130.412 788.175 131.946C788.175 134.442 786.81 135.898 784.08 136.314V136.509C785.744 136.639 786.966 137.12 787.746 137.952C788.526 138.758 788.916 139.824 788.916 141.15C788.916 141.956 788.773 142.71 788.487 143.412C788.227 144.114 787.837 144.738 787.317 145.284C786.797 145.804 786.147 146.22 785.367 146.532C784.613 146.844 783.755 147 782.793 147H771.873V126.876ZM781.896 143.802C782.728 143.802 783.378 143.607 783.846 143.217C784.314 142.801 784.548 142.216 784.548 141.462V140.526C784.548 139.772 784.314 139.187 783.846 138.771C783.404 138.355 782.806 138.147 782.052 138.147H776.124V143.802H781.896ZM781.506 135.3C782.208 135.3 782.767 135.105 783.183 134.715C783.599 134.325 783.807 133.792 783.807 133.116V132.258C783.807 131.582 783.599 131.049 783.183 130.659C782.767 130.269 782.208 130.074 781.506 130.074H776.124V135.3H781.506ZM812.496 147C811.274 147 810.351 146.688 809.727 146.064C809.129 145.44 808.765 144.621 808.635 143.607H808.44C808.05 144.829 807.335 145.778 806.295 146.454C805.281 147.13 803.981 147.468 802.395 147.468C800.341 147.468 798.703 146.935 797.481 145.869C796.259 144.777 795.648 143.282 795.648 141.384C795.648 139.434 796.363 137.952 797.793 136.938C799.249 135.898 801.472 135.378 804.462 135.378H808.323V133.818C808.323 131.088 806.88 129.723 803.994 129.723C802.694 129.723 801.641 129.983 800.835 130.503C800.029 130.997 799.353 131.66 798.807 132.492L796.272 130.425C796.844 129.333 797.806 128.397 799.158 127.617C800.51 126.811 802.252 126.408 804.384 126.408C806.932 126.408 808.934 127.019 810.39 128.241C811.846 129.463 812.574 131.231 812.574 133.545V143.646H815.109V147H812.496ZM803.604 144.348C804.982 144.348 806.113 144.036 806.997 143.412C807.881 142.788 808.323 141.982 808.323 140.994V138.069H804.54C801.472 138.069 799.938 138.992 799.938 140.838V141.618C799.938 142.528 800.263 143.217 800.913 143.685C801.563 144.127 802.46 144.348 803.604 144.348ZM827.963 141.072H834.008L829.172 152.655H825.857L827.963 141.072ZM872.003 126.876H876.254V134.988H884.6V126.876H888.851V147H884.6V138.42H876.254V147H872.003V126.876ZM905.996 147.468C904.462 147.468 903.084 147.221 901.862 146.727C900.64 146.233 899.613 145.531 898.781 144.621C897.949 143.711 897.312 142.619 896.87 141.345C896.428 140.045 896.207 138.589 896.207 136.977C896.207 135.365 896.428 133.909 896.87 132.609C897.338 131.309 897.975 130.204 898.781 129.294C899.613 128.358 900.614 127.643 901.784 127.149C902.954 126.655 904.254 126.408 905.684 126.408C907.088 126.408 908.362 126.655 909.506 127.149C910.65 127.617 911.625 128.293 912.431 129.177C913.237 130.061 913.848 131.114 914.264 132.336C914.706 133.558 914.927 134.91 914.927 136.392V137.991H900.497V138.654C900.497 140.24 900.991 141.54 901.979 142.554C902.967 143.542 904.332 144.036 906.074 144.036C907.374 144.036 908.479 143.763 909.389 143.217C910.325 142.645 911.079 141.891 911.651 140.955L914.303 143.295C913.627 144.465 912.587 145.453 911.183 146.259C909.805 147.065 908.076 147.468 905.996 147.468ZM905.684 129.645C904.93 129.645 904.228 129.775 903.578 130.035C902.954 130.295 902.408 130.672 901.94 131.166C901.498 131.634 901.147 132.193 900.887 132.843C900.627 133.493 900.497 134.208 900.497 134.988V135.261H910.598V134.871C910.598 133.285 910.143 132.024 909.233 131.088C908.349 130.126 907.166 129.645 905.684 129.645ZM930.16 147.468C927.976 147.468 926.156 147.13 924.7 146.454C923.244 145.778 922.087 144.842 921.229 143.646L923.959 141.228C924.635 142.164 925.454 142.879 926.416 143.373C927.404 143.841 928.639 144.075 930.121 144.075C931.681 144.075 932.838 143.815 933.592 143.295C934.346 142.775 934.723 142.099 934.723 141.267V140.877C934.723 140.045 934.463 139.408 933.943 138.966C933.423 138.524 932.63 138.303 931.564 138.303H926.455V135.183H931.135C932.227 135.183 933.02 134.975 933.514 134.559C934.034 134.117 934.294 133.506 934.294 132.726V132.336C934.294 131.582 933.969 130.971 933.319 130.503C932.669 130.035 931.59 129.801 930.082 129.801C928.678 129.801 927.521 130.035 926.611 130.503C925.701 130.945 924.908 131.595 924.232 132.453L921.619 130.347C922.581 129.099 923.738 128.137 925.09 127.461C926.468 126.759 928.249 126.408 930.433 126.408C933.137 126.408 935.191 126.915 936.595 127.929C937.999 128.917 938.701 130.23 938.701 131.868C938.701 133.064 938.35 134.039 937.648 134.793C936.972 135.547 936.023 136.067 934.801 136.353V136.509C936.127 136.717 937.167 137.237 937.921 138.069C938.701 138.875 939.091 139.941 939.091 141.267C939.091 143.139 938.311 144.647 936.751 145.791C935.191 146.909 932.994 147.468 930.16 147.468ZM956.275 147.468C954.741 147.468 953.363 147.221 952.141 146.727C950.919 146.233 949.892 145.531 949.06 144.621C948.228 143.711 947.591 142.619 947.149 141.345C946.707 140.045 946.486 138.589 946.486 136.977C946.486 135.365 946.707 133.909 947.149 132.609C947.617 131.309 948.254 130.204 949.06 129.294C949.892 128.358 950.893 127.643 952.063 127.149C953.233 126.655 954.533 126.408 955.963 126.408C957.367 126.408 958.641 126.655 959.785 127.149C960.929 127.617 961.904 128.293 962.71 129.177C963.516 130.061 964.127 131.114 964.543 132.336C964.985 133.558 965.206 134.91 965.206 136.392V137.991H950.776V138.654C950.776 140.24 951.27 141.54 952.258 142.554C953.246 143.542 954.611 144.036 956.353 144.036C957.653 144.036 958.758 143.763 959.668 143.217C960.604 142.645 961.358 141.891 961.93 140.955L964.582 143.295C963.906 144.465 962.866 145.453 961.462 146.259C960.084 147.065 958.355 147.468 956.275 147.468ZM955.963 129.645C955.209 129.645 954.507 129.775 953.857 130.035C953.233 130.295 952.687 130.672 952.219 131.166C951.777 131.634 951.426 132.193 951.166 132.843C950.906 133.493 950.776 134.208 950.776 134.988V135.261H960.877V134.871C960.877 133.285 960.422 132.024 959.512 131.088C958.628 130.126 957.445 129.645 955.963 129.645ZM971.743 126.876H976.696L981.064 136.353H981.337L985.705 126.876H990.229V147H986.524V135.651L986.68 132.102H986.407L980.986 143.841L975.565 132.102H975.292L975.448 135.651V147H971.743V126.876ZM997.702 126.876H1001.95V134.988H1010.3V126.876H1014.55V147H1010.3V138.42H1001.95V147H997.702V126.876ZM1021.28 126.876H1025.14V133.506H1027.99C1030.04 133.506 1031.69 134.091 1032.94 135.261C1034.22 136.431 1034.85 138.095 1034.85 140.253C1034.85 142.411 1034.22 144.075 1032.94 145.245C1031.69 146.415 1030.04 147 1027.99 147H1021.28V126.876ZM1027.72 143.802C1028.7 143.802 1029.47 143.581 1030.02 143.139C1030.59 142.671 1030.88 141.943 1030.88 140.955V139.551C1030.88 138.563 1030.59 137.848 1030.02 137.406C1029.47 136.938 1028.7 136.704 1027.72 136.704H1025.14V143.802H1027.72ZM1037.39 126.876H1041.25V147H1037.39V126.876ZM1056.83 147.468C1055.3 147.468 1053.92 147.221 1052.7 146.727C1051.48 146.233 1050.45 145.531 1049.62 144.621C1048.79 143.711 1048.15 142.619 1047.71 141.345C1047.27 140.045 1047.05 138.589 1047.05 136.977C1047.05 135.365 1047.27 133.909 1047.71 132.609C1048.18 131.309 1048.81 130.204 1049.62 129.294C1050.45 128.358 1051.45 127.643 1052.62 127.149C1053.79 126.655 1055.09 126.408 1056.52 126.408C1057.93 126.408 1059.2 126.655 1060.34 127.149C1061.49 127.617 1062.46 128.293 1063.27 129.177C1064.08 130.061 1064.69 131.114 1065.1 132.336C1065.54 133.558 1065.77 134.91 1065.77 136.392V137.991H1051.34V138.654C1051.34 140.24 1051.83 141.54 1052.82 142.554C1053.81 143.542 1055.17 144.036 1056.91 144.036C1058.21 144.036 1059.32 143.763 1060.23 143.217C1061.16 142.645 1061.92 141.891 1062.49 140.955L1065.14 143.295C1064.47 144.465 1063.43 145.453 1062.02 146.259C1060.64 147.065 1058.91 147.468 1056.83 147.468ZM1056.52 129.645C1055.77 129.645 1055.07 129.775 1054.42 130.035C1053.79 130.295 1053.25 130.672 1052.78 131.166C1052.34 131.634 1051.99 132.193 1051.73 132.843C1051.47 133.493 1051.34 134.208 1051.34 134.988V135.261H1061.44V134.871C1061.44 133.285 1060.98 132.024 1060.07 131.088C1059.19 130.126 1058 129.645 1056.52 129.645ZM1114.17 147C1112.95 147 1112.03 146.688 1111.4 146.064C1110.81 145.44 1110.44 144.621 1110.31 143.607H1110.12C1109.73 144.829 1109.01 145.778 1107.97 146.454C1106.96 147.13 1105.66 147.468 1104.07 147.468C1102.02 147.468 1100.38 146.935 1099.16 145.869C1097.94 144.777 1097.32 143.282 1097.32 141.384C1097.32 139.434 1098.04 137.952 1099.47 136.938C1100.93 135.898 1103.15 135.378 1106.14 135.378H1110V133.818C1110 131.088 1108.56 129.723 1105.67 129.723C1104.37 129.723 1103.32 129.983 1102.51 130.503C1101.71 130.997 1101.03 131.66 1100.48 132.492L1097.95 130.425C1098.52 129.333 1099.48 128.397 1100.83 127.617C1102.19 126.811 1103.93 126.408 1106.06 126.408C1108.61 126.408 1110.61 127.019 1112.07 128.241C1113.52 129.463 1114.25 131.231 1114.25 133.545V143.646H1116.79V147H1114.17ZM1105.28 144.348C1106.66 144.348 1107.79 144.036 1108.67 143.412C1109.56 142.788 1110 141.982 1110 140.994V138.069H1106.22C1103.15 138.069 1101.61 138.992 1101.61 140.838V141.618C1101.61 142.528 1101.94 143.217 1102.59 143.685C1103.24 144.127 1104.14 144.348 1105.28 144.348ZM1123.71 126.876H1127.96V134.988H1131.59L1136.43 126.876H1140.99L1136.5 134.208C1136.06 134.962 1135.63 135.495 1135.22 135.807C1134.8 136.119 1134.32 136.34 1133.77 136.47V136.665C1134.4 136.795 1134.92 137.029 1135.33 137.367C1135.75 137.679 1136.18 138.225 1136.62 139.005L1139.16 143.568H1141.34V147H1138.84C1137.99 147 1137.25 146.805 1136.62 146.415C1136.02 145.999 1135.46 145.336 1134.94 144.426L1131.59 138.42H1127.96V147H1123.71V126.876ZM1163.91 147H1148.07V126.876H1152.32V143.568H1160.24V126.876H1164.49V143.568H1167.73V152.46H1163.91V147ZM1173.64 126.876H1177.85V135.534L1177.46 140.994H1177.66L1186.55 126.876H1190.57V147H1186.36V138.342L1186.75 132.882H1186.55L1177.66 147H1173.64V126.876ZM1198.78 126.876H1202.99V135.534L1202.6 140.994H1202.8L1211.69 126.876H1215.71V147H1211.49V138.342L1211.88 132.882H1211.69L1202.8 147H1198.78V126.876ZM444.588 193.876H448.8V202.534L448.41 207.994H448.605L457.497 193.876H461.514V214H457.302V205.342L457.692 199.882H457.497L448.605 214H444.588V193.876ZM504.071 214.468C502.563 214.468 501.211 214.221 500.015 213.727C498.845 213.233 497.844 212.531 497.012 211.621C496.206 210.711 495.582 209.606 495.14 208.306C494.724 207.006 494.516 205.55 494.516 203.938C494.516 202.326 494.724 200.87 495.14 199.57C495.582 198.27 496.206 197.165 497.012 196.255C497.844 195.345 498.845 194.643 500.015 194.149C501.211 193.655 502.55 193.408 504.032 193.408C506.112 193.408 507.776 193.85 509.024 194.734C510.298 195.618 511.247 196.762 511.871 198.166L508.556 199.96C508.192 199.024 507.633 198.283 506.879 197.737C506.151 197.191 505.202 196.918 504.032 196.918C502.42 196.918 501.172 197.412 500.288 198.4C499.404 199.362 498.962 200.649 498.962 202.261V205.615C498.962 207.201 499.404 208.488 500.288 209.476C501.172 210.464 502.446 210.958 504.11 210.958C505.358 210.958 506.372 210.672 507.152 210.1C507.958 209.528 508.595 208.748 509.063 207.76L512.183 209.671C511.533 211.075 510.545 212.232 509.219 213.142C507.893 214.026 506.177 214.468 504.071 214.468ZM528.47 214.468C526.988 214.468 525.649 214.221 524.453 213.727C523.283 213.233 522.282 212.531 521.45 211.621C520.644 210.711 520.02 209.606 519.578 208.306C519.136 207.006 518.915 205.55 518.915 203.938C518.915 202.326 519.136 200.87 519.578 199.57C520.02 198.27 520.644 197.165 521.45 196.255C522.282 195.345 523.283 194.643 524.453 194.149C525.649 193.655 526.988 193.408 528.47 193.408C529.952 193.408 531.278 193.655 532.448 194.149C533.644 194.643 534.645 195.345 535.451 196.255C536.283 197.165 536.92 198.27 537.362 199.57C537.804 200.87 538.025 202.326 538.025 203.938C538.025 205.55 537.804 207.006 537.362 208.306C536.92 209.606 536.283 210.711 535.451 211.621C534.645 212.531 533.644 213.233 532.448 213.727C531.278 214.221 529.952 214.468 528.47 214.468ZM528.47 211.114C530.03 211.114 531.265 210.646 532.175 209.71C533.111 208.748 533.579 207.331 533.579 205.459V202.417C533.579 200.545 533.111 199.141 532.175 198.205C531.265 197.243 530.03 196.762 528.47 196.762C526.91 196.762 525.662 197.243 524.726 198.205C523.816 199.141 523.361 200.545 523.361 202.417V205.459C523.361 207.331 523.816 208.748 524.726 209.71C525.662 210.646 526.91 211.114 528.47 211.114ZM553.649 214.468C552.219 214.468 550.919 214.221 549.749 213.727C548.605 213.233 547.617 212.492 546.785 211.504C545.979 210.516 545.355 209.281 544.913 207.799C544.471 206.291 544.25 204.536 544.25 202.534C544.25 199.492 544.458 196.905 544.874 194.773C545.29 192.615 545.953 190.86 546.863 189.508C547.773 188.13 548.93 187.103 550.334 186.427C551.764 185.751 553.48 185.348 555.482 185.218L561.605 184.867V188.845L555.56 189.196C554.338 189.274 553.311 189.482 552.479 189.82C551.673 190.132 551.01 190.639 550.49 191.341C549.97 192.043 549.567 192.953 549.281 194.071C549.021 195.163 548.839 196.528 548.735 198.166H548.969C549.463 196.866 550.178 195.865 551.114 195.163C552.05 194.461 553.259 194.11 554.741 194.11C555.963 194.11 557.081 194.331 558.095 194.773C559.135 195.215 560.019 195.865 560.747 196.723C561.475 197.555 562.034 198.595 562.424 199.843C562.84 201.091 563.048 202.508 563.048 204.094C563.048 205.654 562.827 207.084 562.385 208.384C561.943 209.658 561.306 210.75 560.474 211.66C559.668 212.544 558.68 213.233 557.51 213.727C556.366 214.221 555.079 214.468 553.649 214.468ZM553.61 211.114C555.092 211.114 556.288 210.646 557.198 209.71C558.134 208.748 558.602 207.409 558.602 205.693V202.963C558.602 201.143 558.16 199.778 557.276 198.868C556.392 197.932 555.17 197.464 553.61 197.464C552.024 197.464 550.802 197.919 549.944 198.829C549.112 199.713 548.696 200.896 548.696 202.378V205.615C548.696 207.409 549.138 208.774 550.022 209.71C550.932 210.646 552.128 211.114 553.61 211.114ZM568.766 193.876H572.627V200.506H575.474C577.528 200.506 579.179 201.091 580.427 202.261C581.701 203.431 582.338 205.095 582.338 207.253C582.338 209.411 581.701 211.075 580.427 212.245C579.179 213.415 577.528 214 575.474 214H568.766V193.876ZM575.201 210.802C576.189 210.802 576.956 210.581 577.502 210.139C578.074 209.671 578.36 208.943 578.36 207.955V206.551C578.36 205.563 578.074 204.848 577.502 204.406C576.956 203.938 576.189 203.704 575.201 203.704H572.627V210.802H575.201ZM584.873 193.876H588.734V214H584.873V193.876ZM601.744 197.308H594.685V193.876H613.093V197.308H605.995V214H601.744V197.308ZM620.566 193.876H624.778V202.534L624.388 207.994H624.583L633.475 193.876H637.492V214H633.28V205.342L633.67 199.882H633.475L624.583 214H620.566V193.876ZM644.731 210.568H647.032L648.475 207.916C648.787 207.318 649.151 206.889 649.567 206.629C649.983 206.343 650.49 206.174 651.088 206.122V205.966C649.424 205.836 648.072 205.303 647.032 204.367C645.992 203.431 645.472 202.053 645.472 200.233C645.472 199.271 645.628 198.4 645.94 197.62C646.252 196.84 646.694 196.177 647.266 195.631C647.864 195.059 648.566 194.63 649.372 194.344C650.204 194.032 651.127 193.876 652.141 193.876H662.125V214H657.874V206.512H654.091L651.478 211.27C650.958 212.258 650.386 212.96 649.762 213.376C649.138 213.792 648.332 214 647.344 214H644.731V210.568ZM657.874 197.191H652.921C651.933 197.191 651.166 197.425 650.62 197.893C650.1 198.335 649.84 198.959 649.84 199.765V200.779C649.84 201.585 650.1 202.222 650.62 202.69C651.166 203.132 651.933 203.353 652.921 203.353H657.874V197.191ZM696.454 193.876H707.257C708.999 193.876 710.351 194.344 711.313 195.28C712.275 196.19 712.756 197.412 712.756 198.946C712.756 201.442 711.391 202.898 708.661 203.314V203.509C710.325 203.639 711.547 204.12 712.327 204.952C713.107 205.758 713.497 206.824 713.497 208.15C713.497 208.956 713.354 209.71 713.068 210.412C712.808 211.114 712.418 211.738 711.898 212.284C711.378 212.804 710.728 213.22 709.948 213.532C709.194 213.844 708.336 214 707.374 214H696.454V193.876ZM706.477 210.802C707.309 210.802 707.959 210.607 708.427 210.217C708.895 209.801 709.129 209.216 709.129 208.462V207.526C709.129 206.772 708.895 206.187 708.427 205.771C707.985 205.355 707.387 205.147 706.633 205.147H700.705V210.802H706.477ZM706.087 202.3C706.789 202.3 707.348 202.105 707.764 201.715C708.18 201.325 708.388 200.792 708.388 200.116V199.258C708.388 198.582 708.18 198.049 707.764 197.659C707.348 197.269 706.789 197.074 706.087 197.074H700.705V202.3H706.087ZM754.728 214.468C753.246 214.468 751.907 214.221 750.711 213.727C749.541 213.233 748.54 212.531 747.708 211.621C746.902 210.711 746.278 209.606 745.836 208.306C745.394 207.006 745.173 205.55 745.173 203.938C745.173 202.326 745.394 200.87 745.836 199.57C746.278 198.27 746.902 197.165 747.708 196.255C748.54 195.345 749.541 194.643 750.711 194.149C751.907 193.655 753.246 193.408 754.728 193.408C756.21 193.408 757.536 193.655 758.706 194.149C759.902 194.643 760.903 195.345 761.709 196.255C762.541 197.165 763.178 198.27 763.62 199.57C764.062 200.87 764.283 202.326 764.283 203.938C764.283 205.55 764.062 207.006 763.62 208.306C763.178 209.606 762.541 210.711 761.709 211.621C760.903 212.531 759.902 213.233 758.706 213.727C757.536 214.221 756.21 214.468 754.728 214.468ZM754.728 211.114C756.288 211.114 757.523 210.646 758.433 209.71C759.369 208.748 759.837 207.331 759.837 205.459V202.417C759.837 200.545 759.369 199.141 758.433 198.205C757.523 197.243 756.288 196.762 754.728 196.762C753.168 196.762 751.92 197.243 750.984 198.205C750.074 199.141 749.619 200.545 749.619 202.417V205.459C749.619 207.331 750.074 208.748 750.984 209.71C751.92 210.646 753.168 211.114 754.728 211.114ZM777.723 197.308H770.664V193.876H789.072V197.308H781.974V214H777.723V197.308ZM796.896 193.876H801.147V201.988H804.774L809.61 193.876H814.173L809.688 201.208C809.246 201.962 808.817 202.495 808.401 202.807C807.985 203.119 807.504 203.34 806.958 203.47V203.665C807.582 203.795 808.102 204.029 808.518 204.367C808.934 204.679 809.363 205.225 809.805 206.005L812.34 210.568H814.524V214H812.028C811.17 214 810.429 213.805 809.805 213.415C809.207 212.999 808.648 212.336 808.128 211.426L804.774 205.42H801.147V214H796.896V193.876ZM821.528 193.876H825.779V197.308H826.013C826.611 196.086 827.404 195.137 828.392 194.461C829.38 193.759 830.615 193.408 832.097 193.408C834.463 193.408 836.348 194.292 837.752 196.06C839.156 197.828 839.858 200.454 839.858 203.938C839.858 207.422 839.156 210.048 837.752 211.816C836.348 213.584 834.463 214.468 832.097 214.468C830.615 214.468 829.38 214.13 828.392 213.454C827.404 212.752 826.611 211.79 826.013 210.568H825.779V221.8H821.528V193.876ZM830.342 210.997C831.954 210.997 833.189 210.503 834.047 209.515C834.931 208.527 835.373 207.214 835.373 205.576V202.3C835.373 200.662 834.931 199.349 834.047 198.361C833.189 197.373 831.954 196.879 830.342 196.879C829.718 196.879 829.133 196.957 828.587 197.113C828.041 197.269 827.56 197.503 827.144 197.815C826.728 198.127 826.39 198.517 826.13 198.985C825.896 199.427 825.779 199.96 825.779 200.584V207.292C825.779 207.916 825.896 208.462 826.13 208.93C826.39 209.372 826.728 209.749 827.144 210.061C827.56 210.373 828.041 210.607 828.587 210.763C829.133 210.919 829.718 210.997 830.342 210.997ZM845.303 193.876H849.164V200.506H852.011C854.065 200.506 855.716 201.091 856.964 202.261C858.238 203.431 858.875 205.095 858.875 207.253C858.875 209.411 858.238 211.075 856.964 212.245C855.716 213.415 854.065 214 852.011 214H845.303V193.876ZM851.738 210.802C852.726 210.802 853.493 210.581 854.039 210.139C854.611 209.671 854.897 208.943 854.897 207.955V206.551C854.897 205.563 854.611 204.848 854.039 204.406C853.493 203.938 852.726 203.704 851.738 203.704H849.164V210.802H851.738ZM861.41 193.876H865.271V214H861.41V193.876ZM878.282 197.308H871.223V193.876H889.631V197.308H882.533V214H878.282V197.308ZM905.567 214.468C904.085 214.468 902.746 214.221 901.55 213.727C900.38 213.233 899.379 212.531 898.547 211.621C897.741 210.711 897.117 209.606 896.675 208.306C896.233 207.006 896.012 205.55 896.012 203.938C896.012 202.326 896.233 200.87 896.675 199.57C897.117 198.27 897.741 197.165 898.547 196.255C899.379 195.345 900.38 194.643 901.55 194.149C902.746 193.655 904.085 193.408 905.567 193.408C907.049 193.408 908.375 193.655 909.545 194.149C910.741 194.643 911.742 195.345 912.548 196.255C913.38 197.165 914.017 198.27 914.459 199.57C914.901 200.87 915.122 202.326 915.122 203.938C915.122 205.55 914.901 207.006 914.459 208.306C914.017 209.606 913.38 210.711 912.548 211.621C911.742 212.531 910.741 213.233 909.545 213.727C908.375 214.221 907.049 214.468 905.567 214.468ZM905.567 211.114C907.127 211.114 908.362 210.646 909.272 209.71C910.208 208.748 910.676 207.331 910.676 205.459V202.417C910.676 200.545 910.208 199.141 909.272 198.205C908.362 197.243 907.127 196.762 905.567 196.762C904.007 196.762 902.759 197.243 901.823 198.205C900.913 199.141 900.458 200.545 900.458 202.417V205.459C900.458 207.331 900.913 208.748 901.823 209.71C902.759 210.646 904.007 211.114 905.567 211.114ZM921.463 193.876H926.416L930.784 203.353H931.057L935.425 193.876H939.949V214H936.244V202.651L936.4 199.102H936.127L930.706 210.841L925.285 199.102H925.012L925.168 202.651V214H921.463V193.876ZM972.874 193.876H977.125V201.988H980.752L985.588 193.876H990.151L985.666 201.208C985.224 201.962 984.795 202.495 984.379 202.807C983.963 203.119 983.482 203.34 982.936 203.47V203.665C983.56 203.795 984.08 204.029 984.496 204.367C984.912 204.679 985.341 205.225 985.783 206.005L988.318 210.568H990.502V214H988.006C987.148 214 986.407 213.805 985.783 213.415C985.185 212.999 984.626 212.336 984.106 211.426L980.752 205.42H977.125V214H972.874V193.876ZM1006.13 214.468C1004.64 214.468 1003.3 214.221 1002.11 213.727C1000.94 213.233 999.938 212.531 999.106 211.621C998.3 210.711 997.676 209.606 997.234 208.306C996.792 207.006 996.571 205.55 996.571 203.938C996.571 202.326 996.792 200.87 997.234 199.57C997.676 198.27 998.3 197.165 999.106 196.255C999.938 195.345 1000.94 194.643 1002.11 194.149C1003.3 193.655 1004.64 193.408 1006.13 193.408C1007.61 193.408 1008.93 193.655 1010.1 194.149C1011.3 194.643 1012.3 195.345 1013.11 196.255C1013.94 197.165 1014.58 198.27 1015.02 199.57C1015.46 200.87 1015.68 202.326 1015.68 203.938C1015.68 205.55 1015.46 207.006 1015.02 208.306C1014.58 209.606 1013.94 210.711 1013.11 211.621C1012.3 212.531 1011.3 213.233 1010.1 213.727C1008.93 214.221 1007.61 214.468 1006.13 214.468ZM1006.13 211.114C1007.69 211.114 1008.92 210.646 1009.83 209.71C1010.77 208.748 1011.23 207.331 1011.23 205.459V202.417C1011.23 200.545 1010.77 199.141 1009.83 198.205C1008.92 197.243 1007.69 196.762 1006.13 196.762C1004.57 196.762 1003.32 197.243 1002.38 198.205C1001.47 199.141 1001.02 200.545 1001.02 202.417V205.459C1001.02 207.331 1001.47 208.748 1002.38 209.71C1003.32 210.646 1004.57 211.114 1006.13 211.114ZM1032.01 214.468C1030.5 214.468 1029.15 214.221 1027.95 213.727C1026.78 213.233 1025.78 212.531 1024.95 211.621C1024.14 210.711 1023.52 209.606 1023.08 208.306C1022.66 207.006 1022.45 205.55 1022.45 203.938C1022.45 202.326 1022.66 200.87 1023.08 199.57C1023.52 198.27 1024.14 197.165 1024.95 196.255C1025.78 195.345 1026.78 194.643 1027.95 194.149C1029.15 193.655 1030.49 193.408 1031.97 193.408C1034.05 193.408 1035.71 193.85 1036.96 194.734C1038.23 195.618 1039.18 196.762 1039.81 198.166L1036.49 199.96C1036.13 199.024 1035.57 198.283 1034.81 197.737C1034.09 197.191 1033.14 196.918 1031.97 196.918C1030.36 196.918 1029.11 197.412 1028.22 198.4C1027.34 199.362 1026.9 200.649 1026.9 202.261V205.615C1026.9 207.201 1027.34 208.488 1028.22 209.476C1029.11 210.464 1030.38 210.958 1032.05 210.958C1033.29 210.958 1034.31 210.672 1035.09 210.1C1035.89 209.528 1036.53 208.748 1037 207.76L1040.12 209.671C1039.47 211.075 1038.48 212.232 1037.15 213.142C1035.83 214.026 1034.11 214.468 1032.01 214.468ZM1047.16 193.876H1052.12L1056.48 203.353H1056.76L1061.12 193.876H1065.65V214H1061.94V202.651L1062.1 199.102H1061.83L1056.41 210.841L1050.98 199.102H1050.71L1050.87 202.651V214H1047.16V193.876ZM1081.55 214.468C1080.06 214.468 1078.72 214.221 1077.53 213.727C1076.36 213.233 1075.36 212.531 1074.53 211.621C1073.72 210.711 1073.1 209.606 1072.65 208.306C1072.21 207.006 1071.99 205.55 1071.99 203.938C1071.99 202.326 1072.21 200.87 1072.65 199.57C1073.1 198.27 1073.72 197.165 1074.53 196.255C1075.36 195.345 1076.36 194.643 1077.53 194.149C1078.72 193.655 1080.06 193.408 1081.55 193.408C1083.03 193.408 1084.35 193.655 1085.52 194.149C1086.72 194.643 1087.72 195.345 1088.53 196.255C1089.36 197.165 1090 198.27 1090.44 199.57C1090.88 200.87 1091.1 202.326 1091.1 203.938C1091.1 205.55 1090.88 207.006 1090.44 208.306C1090 209.606 1089.36 210.711 1088.53 211.621C1087.72 212.531 1086.72 213.233 1085.52 213.727C1084.35 214.221 1083.03 214.468 1081.55 214.468ZM1081.55 211.114C1083.11 211.114 1084.34 210.646 1085.25 209.71C1086.19 208.748 1086.65 207.331 1086.65 205.459V202.417C1086.65 200.545 1086.19 199.141 1085.25 198.205C1084.34 197.243 1083.11 196.762 1081.55 196.762C1079.99 196.762 1078.74 197.243 1077.8 198.205C1076.89 199.141 1076.44 200.545 1076.44 202.417V205.459C1076.44 207.331 1076.89 208.748 1077.8 209.71C1078.74 210.646 1079.99 211.114 1081.55 211.114ZM1107.43 214.468C1105.92 214.468 1104.57 214.221 1103.37 213.727C1102.2 213.233 1101.2 212.531 1100.37 211.621C1099.56 210.711 1098.94 209.606 1098.49 208.306C1098.08 207.006 1097.87 205.55 1097.87 203.938C1097.87 202.326 1098.08 200.87 1098.49 199.57C1098.94 198.27 1099.56 197.165 1100.37 196.255C1101.2 195.345 1102.2 194.643 1103.37 194.149C1104.57 193.655 1105.9 193.408 1107.39 193.408C1109.47 193.408 1111.13 193.85 1112.38 194.734C1113.65 195.618 1114.6 196.762 1115.23 198.166L1111.91 199.96C1111.55 199.024 1110.99 198.283 1110.23 197.737C1109.51 197.191 1108.56 196.918 1107.39 196.918C1105.77 196.918 1104.53 197.412 1103.64 198.4C1102.76 199.362 1102.32 200.649 1102.32 202.261V205.615C1102.32 207.201 1102.76 208.488 1103.64 209.476C1104.53 210.464 1105.8 210.958 1107.46 210.958C1108.71 210.958 1109.73 210.672 1110.51 210.1C1111.31 209.528 1111.95 208.748 1112.42 207.76L1115.54 209.671C1114.89 211.075 1113.9 212.232 1112.57 213.142C1111.25 214.026 1109.53 214.468 1107.43 214.468ZM1132.25 214.468C1130.72 214.468 1129.34 214.221 1128.12 213.727C1126.9 213.233 1125.87 212.531 1125.04 211.621C1124.21 210.711 1123.57 209.619 1123.13 208.345C1122.69 207.045 1122.46 205.589 1122.46 203.977C1122.46 202.365 1122.69 200.909 1123.13 199.609C1123.6 198.309 1124.23 197.204 1125.04 196.294C1125.87 195.358 1126.87 194.643 1128.04 194.149C1129.21 193.655 1130.51 193.408 1131.94 193.408C1133.35 193.408 1134.62 193.655 1135.76 194.149C1136.91 194.617 1137.88 195.293 1138.69 196.177C1139.49 197.061 1140.11 198.114 1140.52 199.336C1140.96 200.558 1141.18 201.91 1141.18 203.392V204.991H1126.75V205.654C1126.75 207.24 1127.25 208.54 1128.24 209.554C1129.22 210.542 1130.59 211.036 1132.33 211.036C1133.63 211.036 1134.74 210.763 1135.65 210.217C1136.58 209.645 1137.34 208.891 1137.91 207.955L1140.56 210.295C1139.88 211.465 1138.84 212.453 1137.44 213.259C1136.06 214.065 1134.33 214.468 1132.25 214.468ZM1131.94 196.645C1131.19 196.645 1130.49 196.775 1129.84 197.035C1129.21 197.295 1128.67 197.672 1128.2 198.166C1127.76 198.634 1127.4 199.193 1127.14 199.843C1126.88 200.493 1126.75 201.208 1126.75 201.988V202.261H1136.86V201.871C1136.86 200.285 1136.4 199.024 1135.49 198.088C1134.61 197.126 1133.42 196.645 1131.94 196.645ZM1156.96 214.39C1155.72 214.39 1154.83 214.13 1154.31 213.61C1153.82 213.09 1153.57 212.453 1153.57 211.699V210.685C1153.57 209.931 1153.82 209.294 1154.31 208.774C1154.83 208.254 1155.72 207.994 1156.96 207.994C1158.21 207.994 1159.08 208.254 1159.58 208.774C1160.1 209.294 1160.36 209.931 1160.36 210.685V211.699C1160.36 212.453 1160.1 213.09 1159.58 213.61C1159.08 214.13 1158.21 214.39 1156.96 214.39Z" fill="white"/>
</svg>
