<svg width="1398" height="345" viewBox="0 0 1398 345" fill="none" xmlns="http://www.w3.org/2000/svg">
<path d="M1243.59 1.5H148.237C129.745 1.5 114.754 16.4905 114.754 34.9822C114.754 51.8171 101.107 65.4645 84.2722 65.4645H59.6272C27.5244 65.4645 1.5 91.4889 1.5 123.592V141.148C1.5 170.976 25.6806 195.157 55.5089 195.157H66.8698C88.7668 195.157 106.518 212.908 106.518 234.805C106.518 258.359 125.612 277.453 149.166 277.453H228.402C245.812 277.453 259.926 291.566 259.926 308.976C259.926 328.043 275.383 343.5 294.45 343.5H1102.52C1121.59 343.5 1137.04 328.043 1137.04 308.976C1137.04 291.566 1151.16 277.453 1168.57 277.453H1242.66C1266.21 277.453 1285.3 258.359 1285.3 234.805C1285.3 212.908 1303.06 195.157 1324.95 195.157H1339.4C1370.94 195.157 1396.5 169.593 1396.5 138.059V126.68C1396.5 92.8718 1369.09 65.4645 1335.28 65.4645H1307.55C1290.72 65.4645 1277.07 51.8171 1277.07 34.9822C1277.07 16.4905 1262.08 1.5 1243.59 1.5Z" fill="#242424" fill-opacity="0.7" stroke="white" stroke-width="3"/>
<path d="M250.221 55.778H259.62C262.09 55.778 264.001 56.415 265.353 57.689C266.731 58.963 267.42 60.705 267.42 62.915C267.42 64.501 267.03 65.762 266.25 66.698C265.47 67.634 264.417 68.297 263.091 68.687V68.882C264.677 69.246 265.951 69.948 266.913 70.988C267.875 72.002 268.356 73.445 268.356 75.317C268.356 76.435 268.174 77.462 267.81 78.398C267.446 79.334 266.926 80.153 266.25 80.855C265.574 81.531 264.755 82.064 263.793 82.454C262.857 82.818 261.817 83 260.673 83H250.221V55.778ZM259.347 79.646C260.803 79.646 261.921 79.347 262.701 78.749C263.481 78.151 263.871 77.189 263.871 75.863V74.459C263.871 73.133 263.481 72.171 262.701 71.573C261.921 70.975 260.803 70.676 259.347 70.676H254.511V79.646H259.347ZM258.723 67.478C260.101 67.478 261.141 67.218 261.843 66.698C262.571 66.152 262.935 65.255 262.935 64.007V62.603C262.935 61.355 262.571 60.471 261.843 59.951C261.141 59.405 260.101 59.132 258.723 59.132H254.511V67.478H258.723ZM309.003 83.468C307.573 83.468 306.273 83.221 305.103 82.727C303.959 82.233 302.971 81.492 302.139 80.504C301.333 79.516 300.709 78.281 300.267 76.799C299.825 75.291 299.604 73.536 299.604 71.534C299.604 68.492 299.812 65.905 300.228 63.773C300.644 61.615 301.307 59.86 302.217 58.508C303.127 57.13 304.284 56.103 305.688 55.427C307.118 54.751 308.834 54.348 310.836 54.218L316.959 53.867V57.845L310.914 58.196C309.692 58.274 308.665 58.482 307.833 58.82C307.027 59.132 306.364 59.639 305.844 60.341C305.324 61.043 304.921 61.953 304.635 63.071C304.375 64.163 304.193 65.528 304.089 67.166H304.323C304.817 65.866 305.532 64.865 306.468 64.163C307.404 63.461 308.613 63.11 310.095 63.11C311.317 63.11 312.435 63.331 313.449 63.773C314.489 64.215 315.373 64.865 316.101 65.723C316.829 66.555 317.388 67.595 317.778 68.843C318.194 70.091 318.402 71.508 318.402 73.094C318.402 74.654 318.181 76.084 317.739 77.384C317.297 78.658 316.66 79.75 315.828 80.66C315.022 81.544 314.034 82.233 312.864 82.727C311.72 83.221 310.433 83.468 309.003 83.468ZM308.964 80.114C310.446 80.114 311.642 79.646 312.552 78.71C313.488 77.748 313.956 76.409 313.956 74.693V71.963C313.956 70.143 313.514 68.778 312.63 67.868C311.746 66.932 310.524 66.464 308.964 66.464C307.378 66.464 306.156 66.919 305.298 67.829C304.466 68.713 304.05 69.896 304.05 71.378V74.615C304.05 76.409 304.492 77.774 305.376 78.71C306.286 79.646 307.482 80.114 308.964 80.114ZM334.533 83.468C332.999 83.468 331.621 83.221 330.399 82.727C329.177 82.233 328.15 81.531 327.318 80.621C326.486 79.711 325.849 78.619 325.407 77.345C324.965 76.045 324.744 74.589 324.744 72.977C324.744 71.365 324.965 69.909 325.407 68.609C325.875 67.309 326.512 66.204 327.318 65.294C328.15 64.358 329.151 63.643 330.321 63.149C331.491 62.655 332.791 62.408 334.221 62.408C335.625 62.408 336.899 62.655 338.043 63.149C339.187 63.617 340.162 64.293 340.968 65.177C341.774 66.061 342.385 67.114 342.801 68.336C343.243 69.558 343.464 70.91 343.464 72.392V73.991H329.034V74.654C329.034 76.24 329.528 77.54 330.516 78.554C331.504 79.542 332.869 80.036 334.611 80.036C335.911 80.036 337.016 79.763 337.926 79.217C338.862 78.645 339.616 77.891 340.188 76.955L342.84 79.295C342.164 80.465 341.124 81.453 339.72 82.259C338.342 83.065 336.613 83.468 334.533 83.468ZM334.221 65.645C333.467 65.645 332.765 65.775 332.115 66.035C331.491 66.295 330.945 66.672 330.477 67.166C330.035 67.634 329.684 68.193 329.424 68.843C329.164 69.493 329.034 70.208 329.034 70.988V71.261H339.135V70.871C339.135 69.285 338.68 68.024 337.77 67.088C336.886 66.126 335.703 65.645 334.221 65.645ZM358.697 83.468C356.513 83.468 354.693 83.13 353.237 82.454C351.781 81.778 350.624 80.842 349.766 79.646L352.496 77.228C353.172 78.164 353.991 78.879 354.953 79.373C355.941 79.841 357.176 80.075 358.658 80.075C360.218 80.075 361.375 79.815 362.129 79.295C362.883 78.775 363.26 78.099 363.26 77.267V76.877C363.26 76.045 363 75.408 362.48 74.966C361.96 74.524 361.167 74.303 360.101 74.303H354.992V71.183H359.672C360.764 71.183 361.557 70.975 362.051 70.559C362.571 70.117 362.831 69.506 362.831 68.726V68.336C362.831 67.582 362.506 66.971 361.856 66.503C361.206 66.035 360.127 65.801 358.619 65.801C357.215 65.801 356.058 66.035 355.148 66.503C354.238 66.945 353.445 67.595 352.769 68.453L350.156 66.347C351.118 65.099 352.275 64.137 353.627 63.461C355.005 62.759 356.786 62.408 358.97 62.408C361.674 62.408 363.728 62.915 365.132 63.929C366.536 64.917 367.238 66.23 367.238 67.868C367.238 69.064 366.887 70.039 366.185 70.793C365.509 71.547 364.56 72.067 363.338 72.353V72.509C364.664 72.717 365.704 73.237 366.458 74.069C367.238 74.875 367.628 75.941 367.628 77.267C367.628 79.139 366.848 80.647 365.288 81.791C363.728 82.909 361.531 83.468 358.697 83.468ZM375.14 62.876H380.093L384.461 72.353H384.734L389.102 62.876H393.626V83H389.921V71.651L390.077 68.102H389.804L384.383 79.841L378.962 68.102H378.689L378.845 71.651V83H375.14V62.876ZM400.085 79.568H402.386L403.829 76.916C404.141 76.318 404.505 75.889 404.921 75.629C405.337 75.343 405.844 75.174 406.442 75.122V74.966C404.778 74.836 403.426 74.303 402.386 73.367C401.346 72.431 400.826 71.053 400.826 69.233C400.826 68.271 400.982 67.4 401.294 66.62C401.606 65.84 402.048 65.177 402.62 64.631C403.218 64.059 403.92 63.63 404.726 63.344C405.558 63.032 406.481 62.876 407.495 62.876H417.479V83H413.228V75.512H409.445L406.832 80.27C406.312 81.258 405.74 81.96 405.116 82.376C404.492 82.792 403.686 83 402.698 83H400.085V79.568ZM413.228 66.191H408.275C407.287 66.191 406.52 66.425 405.974 66.893C405.454 67.335 405.194 67.959 405.194 68.765V69.779C405.194 70.585 405.454 71.222 405.974 71.69C406.52 72.132 407.287 72.353 408.275 72.353H413.228V66.191ZM432.518 66.308H425.459V62.876H443.867V66.308H436.769V83H432.518V66.308ZM460.231 83.468C458.697 83.468 457.319 83.221 456.097 82.727C454.875 82.233 453.848 81.531 453.016 80.621C452.184 79.711 451.547 78.619 451.105 77.345C450.663 76.045 450.442 74.589 450.442 72.977C450.442 71.365 450.663 69.909 451.105 68.609C451.573 67.309 452.21 66.204 453.016 65.294C453.848 64.358 454.849 63.643 456.019 63.149C457.189 62.655 458.489 62.408 459.919 62.408C461.323 62.408 462.597 62.655 463.741 63.149C464.885 63.617 465.86 64.293 466.666 65.177C467.472 66.061 468.083 67.114 468.499 68.336C468.941 69.558 469.162 70.91 469.162 72.392V73.991H454.732V74.654C454.732 76.24 455.226 77.54 456.214 78.554C457.202 79.542 458.567 80.036 460.309 80.036C461.609 80.036 462.714 79.763 463.624 79.217C464.56 78.645 465.314 77.891 465.886 76.955L468.538 79.295C467.862 80.465 466.822 81.453 465.418 82.259C464.04 83.065 462.311 83.468 460.231 83.468ZM459.919 65.645C459.165 65.645 458.463 65.775 457.813 66.035C457.189 66.295 456.643 66.672 456.175 67.166C455.733 67.634 455.382 68.193 455.122 68.843C454.862 69.493 454.732 70.208 454.732 70.988V71.261H464.833V70.871C464.833 69.285 464.378 68.024 463.468 67.088C462.584 66.126 461.401 65.645 459.919 65.645ZM483.148 74.303H480.262L477.961 83H474.139L476.089 75.629C476.323 74.771 476.635 74.108 477.025 73.64C477.441 73.172 478 72.873 478.702 72.743V72.548C477.532 72.21 476.739 71.3 476.323 69.818L474.412 62.876H478.117L480.379 71.105H483.148V62.876H486.736V71.105H489.505L491.767 62.876H495.472L493.561 69.818C493.145 71.3 492.352 72.21 491.182 72.548V72.743C491.884 72.873 492.43 73.172 492.82 73.64C493.236 74.108 493.561 74.771 493.795 75.629L495.745 83H491.923L489.622 74.303H486.736V83H483.148V74.303ZM501.658 62.876H505.909V70.988H514.255V62.876H518.506V83H514.255V74.42H505.909V83H501.658V62.876ZM535.222 83.468C533.74 83.468 532.401 83.221 531.205 82.727C530.035 82.233 529.034 81.531 528.202 80.621C527.396 79.711 526.772 78.606 526.33 77.306C525.888 76.006 525.667 74.55 525.667 72.938C525.667 71.326 525.888 69.87 526.33 68.57C526.772 67.27 527.396 66.165 528.202 65.255C529.034 64.345 530.035 63.643 531.205 63.149C532.401 62.655 533.74 62.408 535.222 62.408C536.704 62.408 538.03 62.655 539.2 63.149C540.396 63.643 541.397 64.345 542.203 65.255C543.035 66.165 543.672 67.27 544.114 68.57C544.556 69.87 544.777 71.326 544.777 72.938C544.777 74.55 544.556 76.006 544.114 77.306C543.672 78.606 543.035 79.711 542.203 80.621C541.397 81.531 540.396 82.233 539.2 82.727C538.03 83.221 536.704 83.468 535.222 83.468ZM535.222 80.114C536.782 80.114 538.017 79.646 538.927 78.71C539.863 77.748 540.331 76.331 540.331 74.459V71.417C540.331 69.545 539.863 68.141 538.927 67.205C538.017 66.243 536.782 65.762 535.222 65.762C533.662 65.762 532.414 66.243 531.478 67.205C530.568 68.141 530.113 69.545 530.113 71.417V74.459C530.113 76.331 530.568 77.748 531.478 78.71C532.414 79.646 533.662 80.114 535.222 80.114ZM551.118 62.876H556.071L560.439 72.353H560.712L565.08 62.876H569.604V83H565.899V71.651L566.055 68.102H565.782L560.361 79.841L554.94 68.102H554.667L554.823 71.651V83H551.118V62.876ZM608.496 66.308H601.437V62.876H619.845V66.308H612.747V83H608.496V66.308ZM636.21 83.468C634.676 83.468 633.298 83.221 632.076 82.727C630.854 82.233 629.827 81.531 628.995 80.621C628.163 79.711 627.526 78.619 627.084 77.345C626.642 76.045 626.421 74.589 626.421 72.977C626.421 71.365 626.642 69.909 627.084 68.609C627.552 67.309 628.189 66.204 628.995 65.294C629.827 64.358 630.828 63.643 631.998 63.149C633.168 62.655 634.468 62.408 635.898 62.408C637.302 62.408 638.576 62.655 639.72 63.149C640.864 63.617 641.839 64.293 642.645 65.177C643.451 66.061 644.062 67.114 644.478 68.336C644.92 69.558 645.141 70.91 645.141 72.392V73.991H630.711V74.654C630.711 76.24 631.205 77.54 632.193 78.554C633.181 79.542 634.546 80.036 636.288 80.036C637.588 80.036 638.693 79.763 639.603 79.217C640.539 78.645 641.293 77.891 641.865 76.955L644.517 79.295C643.841 80.465 642.801 81.453 641.397 82.259C640.019 83.065 638.29 83.468 636.21 83.468ZM635.898 65.645C635.144 65.645 634.442 65.775 633.792 66.035C633.168 66.295 632.622 66.672 632.154 67.166C631.712 67.634 631.361 68.193 631.101 68.843C630.841 69.493 630.711 70.208 630.711 70.988V71.261H640.812V70.871C640.812 69.285 640.357 68.024 639.447 67.088C638.563 66.126 637.38 65.645 635.898 65.645ZM650.975 83L658.463 72.782L651.287 62.876H656.24L658.892 66.698L660.998 69.74H661.232L663.299 66.698L665.951 62.876H670.553L663.338 72.626L670.904 83H665.912L662.909 78.671L660.842 75.707H660.608L658.58 78.671L655.616 83H650.975ZM677.636 62.876H681.887V70.988H690.233V62.876H694.484V83H690.233V74.42H681.887V83H677.636V62.876ZM711.2 83.468C709.718 83.468 708.379 83.221 707.183 82.727C706.013 82.233 705.012 81.531 704.18 80.621C703.374 79.711 702.75 78.606 702.308 77.306C701.866 76.006 701.645 74.55 701.645 72.938C701.645 71.326 701.866 69.87 702.308 68.57C702.75 67.27 703.374 66.165 704.18 65.255C705.012 64.345 706.013 63.643 707.183 63.149C708.379 62.655 709.718 62.408 711.2 62.408C712.682 62.408 714.008 62.655 715.178 63.149C716.374 63.643 717.375 64.345 718.181 65.255C719.013 66.165 719.65 67.27 720.092 68.57C720.534 69.87 720.755 71.326 720.755 72.938C720.755 74.55 720.534 76.006 720.092 77.306C719.65 78.606 719.013 79.711 718.181 80.621C717.375 81.531 716.374 82.233 715.178 82.727C714.008 83.221 712.682 83.468 711.2 83.468ZM711.2 80.114C712.76 80.114 713.995 79.646 714.905 78.71C715.841 77.748 716.309 76.331 716.309 74.459V71.417C716.309 69.545 715.841 68.141 714.905 67.205C713.995 66.243 712.76 65.762 711.2 65.762C709.64 65.762 708.392 66.243 707.456 67.205C706.546 68.141 706.091 69.545 706.091 71.417V74.459C706.091 76.331 706.546 77.748 707.456 78.71C708.392 79.646 709.64 80.114 711.2 80.114ZM725.576 79.568H728.189C728.527 79.126 728.826 78.619 729.086 78.047C729.372 77.449 729.593 76.734 729.749 75.902C729.931 75.07 730.061 74.108 730.139 73.016C730.243 71.924 730.295 70.65 730.295 69.194V62.876H744.53V83H740.279V66.308H734.273V69.272C734.273 72.678 734.026 75.343 733.532 77.267C733.038 79.191 732.362 80.595 731.504 81.479C730.906 82.103 730.217 82.519 729.437 82.727C728.657 82.909 727.838 83 726.98 83H725.576V79.568ZM761.48 83.468C759.998 83.468 758.659 83.221 757.463 82.727C756.293 82.233 755.292 81.531 754.46 80.621C753.654 79.711 753.03 78.606 752.588 77.306C752.146 76.006 751.925 74.55 751.925 72.938C751.925 71.326 752.146 69.87 752.588 68.57C753.03 67.27 753.654 66.165 754.46 65.255C755.292 64.345 756.293 63.643 757.463 63.149C758.659 62.655 759.998 62.408 761.48 62.408C762.962 62.408 764.288 62.655 765.458 63.149C766.654 63.643 767.655 64.345 768.461 65.255C769.293 66.165 769.93 67.27 770.372 68.57C770.814 69.87 771.035 71.326 771.035 72.938C771.035 74.55 770.814 76.006 770.372 77.306C769.93 78.606 769.293 79.711 768.461 80.621C767.655 81.531 766.654 82.233 765.458 82.727C764.288 83.221 762.962 83.468 761.48 83.468ZM761.48 80.114C763.04 80.114 764.275 79.646 765.185 78.71C766.121 77.748 766.589 76.331 766.589 74.459V71.417C766.589 69.545 766.121 68.141 765.185 67.205C764.275 66.243 763.04 65.762 761.48 65.762C759.92 65.762 758.672 66.243 757.736 67.205C756.826 68.141 756.371 69.545 756.371 71.417V74.459C756.371 76.331 756.826 77.748 757.736 78.71C758.672 79.646 759.92 80.114 761.48 80.114ZM779.95 62.876H794.731V66.308H784.201V83H779.95V62.876ZM803.296 62.876H807.508V71.534L807.118 76.994H807.313L816.205 62.876H820.222V83H816.01V74.342L816.4 68.882H816.205L807.313 83H803.296V62.876ZM840.604 74.108H840.409C839.733 74.94 838.927 75.577 837.991 76.019C837.081 76.435 835.924 76.643 834.52 76.643C830.126 76.643 827.929 74.42 827.929 69.974V62.876H832.18V69.701C832.18 70.871 832.479 71.729 833.077 72.275C833.701 72.795 834.741 73.055 836.197 73.055C837.523 73.055 838.589 72.86 839.395 72.47C840.201 72.054 840.604 71.456 840.604 70.676V62.876H844.855V83H840.604V74.108ZM853.615 62.876H857.866V70.988H866.212V62.876H870.463V83H866.212V74.42H857.866V83H853.615V62.876ZM887.178 83.468C885.696 83.468 884.357 83.221 883.161 82.727C881.991 82.233 880.99 81.531 880.158 80.621C879.352 79.711 878.728 78.606 878.286 77.306C877.844 76.006 877.623 74.55 877.623 72.938C877.623 71.326 877.844 69.87 878.286 68.57C878.728 67.27 879.352 66.165 880.158 65.255C880.99 64.345 881.991 63.643 883.161 63.149C884.357 62.655 885.696 62.408 887.178 62.408C888.66 62.408 889.986 62.655 891.156 63.149C892.352 63.643 893.353 64.345 894.159 65.255C894.991 66.165 895.628 67.27 896.07 68.57C896.512 69.87 896.733 71.326 896.733 72.938C896.733 74.55 896.512 76.006 896.07 77.306C895.628 78.606 894.991 79.711 894.159 80.621C893.353 81.531 892.352 82.233 891.156 82.727C889.986 83.221 888.66 83.468 887.178 83.468ZM887.178 80.114C888.738 80.114 889.973 79.646 890.883 78.71C891.819 77.748 892.287 76.331 892.287 74.459V71.417C892.287 69.545 891.819 68.141 890.883 67.205C889.973 66.243 888.738 65.762 887.178 65.762C885.618 65.762 884.37 66.243 883.434 67.205C882.524 68.141 882.069 69.545 882.069 71.417V74.459C882.069 76.331 882.524 77.748 883.434 78.71C884.37 79.646 885.618 80.114 887.178 80.114ZM903.075 62.876H908.028L912.396 72.353H912.669L917.037 62.876H921.561V83H917.856V71.651L918.012 68.102H917.739L912.318 79.841L906.897 68.102H906.624L906.78 71.651V83H903.075V62.876ZM954.486 62.876H958.737V70.988H962.364L967.2 62.876H971.763L967.278 70.208C966.836 70.962 966.407 71.495 965.991 71.807C965.575 72.119 965.094 72.34 964.548 72.47V72.665C965.172 72.795 965.692 73.029 966.108 73.367C966.524 73.679 966.953 74.225 967.395 75.005L969.93 79.568H972.114V83H969.618C968.76 83 968.019 82.805 967.395 82.415C966.797 81.999 966.238 81.336 965.718 80.426L962.364 74.42H958.737V83H954.486V62.876ZM987.737 83.468C986.255 83.468 984.916 83.221 983.72 82.727C982.55 82.233 981.549 81.531 980.717 80.621C979.911 79.711 979.287 78.606 978.845 77.306C978.403 76.006 978.182 74.55 978.182 72.938C978.182 71.326 978.403 69.87 978.845 68.57C979.287 67.27 979.911 66.165 980.717 65.255C981.549 64.345 982.55 63.643 983.72 63.149C984.916 62.655 986.255 62.408 987.737 62.408C989.219 62.408 990.545 62.655 991.715 63.149C992.911 63.643 993.912 64.345 994.718 65.255C995.55 66.165 996.187 67.27 996.629 68.57C997.071 69.87 997.292 71.326 997.292 72.938C997.292 74.55 997.071 76.006 996.629 77.306C996.187 78.606 995.55 79.711 994.718 80.621C993.912 81.531 992.911 82.233 991.715 82.727C990.545 83.221 989.219 83.468 987.737 83.468ZM987.737 80.114C989.297 80.114 990.532 79.646 991.442 78.71C992.378 77.748 992.846 76.331 992.846 74.459V71.417C992.846 69.545 992.378 68.141 991.442 67.205C990.532 66.243 989.297 65.762 987.737 65.762C986.177 65.762 984.929 66.243 983.993 67.205C983.083 68.141 982.628 69.545 982.628 71.417V74.459C982.628 76.331 983.083 77.748 983.993 78.71C984.929 79.646 986.177 80.114 987.737 80.114ZM1003.63 62.876H1008.59L1012.96 72.353H1013.23L1017.6 62.876H1022.12V83H1018.42V71.651L1018.57 68.102H1018.3L1012.88 79.841L1007.46 68.102H1007.18L1007.34 71.651V83H1003.63V62.876ZM1034 80.153C1035.48 80.153 1036.22 79.204 1036.22 77.306V68.57C1036.22 66.672 1035.48 65.723 1034 65.723C1033.17 65.723 1032.53 66.087 1032.09 66.815C1031.67 67.543 1031.47 68.921 1031.47 70.949V74.927C1031.47 76.955 1031.67 78.333 1032.09 79.061C1032.53 79.789 1033.17 80.153 1034 80.153ZM1036.18 80.738H1035.99C1035.57 81.752 1035.07 82.467 1034.47 82.883C1033.9 83.273 1033.23 83.468 1032.48 83.468C1031.7 83.468 1031.01 83.299 1030.41 82.961C1029.84 82.623 1029.35 82.051 1028.93 81.245C1028.54 80.413 1028.24 79.321 1028.03 77.969C1027.83 76.617 1027.72 74.94 1027.72 72.938C1027.72 70.936 1027.83 69.259 1028.03 67.907C1028.24 66.555 1028.54 65.476 1028.93 64.67C1029.35 63.838 1029.84 63.253 1030.41 62.915C1031.01 62.577 1031.7 62.408 1032.48 62.408C1033.23 62.408 1033.9 62.616 1034.47 63.032C1035.07 63.422 1035.57 64.124 1035.99 65.138H1036.18V55.31H1039.85V65.138H1040.05C1040.46 64.124 1040.96 63.422 1041.53 63.032C1042.13 62.616 1042.8 62.408 1043.56 62.408C1044.34 62.408 1045.01 62.577 1045.58 62.915C1046.18 63.253 1046.68 63.838 1047.07 64.67C1047.48 65.476 1047.79 66.555 1048 67.907C1048.21 69.259 1048.31 70.936 1048.31 72.938C1048.31 74.94 1048.21 76.617 1048 77.969C1047.79 79.321 1047.48 80.413 1047.07 81.245C1046.68 82.051 1046.18 82.623 1045.58 82.961C1045.01 83.299 1044.34 83.468 1043.56 83.468C1042.8 83.468 1042.13 83.273 1041.53 82.883C1040.96 82.467 1040.46 81.752 1040.05 80.738H1039.85V90.8H1036.18V80.738ZM1042.03 80.153C1042.87 80.153 1043.49 79.789 1043.91 79.061C1044.35 78.333 1044.57 76.955 1044.57 74.927V70.949C1044.57 68.921 1044.35 67.543 1043.91 66.815C1043.49 66.087 1042.87 65.723 1042.03 65.723C1040.55 65.723 1039.81 66.672 1039.81 68.57V77.306C1039.81 79.204 1040.55 80.153 1042.03 80.153ZM1063.16 83.468C1061.67 83.468 1060.34 83.221 1059.14 82.727C1057.97 82.233 1056.97 81.531 1056.14 80.621C1055.33 79.711 1054.71 78.606 1054.26 77.306C1053.82 76.006 1053.6 74.55 1053.6 72.938C1053.6 71.326 1053.82 69.87 1054.26 68.57C1054.71 67.27 1055.33 66.165 1056.14 65.255C1056.97 64.345 1057.97 63.643 1059.14 63.149C1060.34 62.655 1061.67 62.408 1063.16 62.408C1064.64 62.408 1065.96 62.655 1067.13 63.149C1068.33 63.643 1069.33 64.345 1070.14 65.255C1070.97 66.165 1071.61 67.27 1072.05 68.57C1072.49 69.87 1072.71 71.326 1072.71 72.938C1072.71 74.55 1072.49 76.006 1072.05 77.306C1071.61 78.606 1070.97 79.711 1070.14 80.621C1069.33 81.531 1068.33 82.233 1067.13 82.727C1065.96 83.221 1064.64 83.468 1063.16 83.468ZM1063.16 80.114C1064.72 80.114 1065.95 79.646 1066.86 78.71C1067.8 77.748 1068.27 76.331 1068.27 74.459V71.417C1068.27 69.545 1067.8 68.141 1066.86 67.205C1065.95 66.243 1064.72 65.762 1063.16 65.762C1061.6 65.762 1060.35 66.243 1059.41 67.205C1058.5 68.141 1058.05 69.545 1058.05 71.417V74.459C1058.05 76.331 1058.5 77.748 1059.41 78.71C1060.35 79.646 1061.6 80.114 1063.16 80.114ZM1079.68 62.876H1083.93V66.308H1084.16C1084.76 65.086 1085.55 64.137 1086.54 63.461C1087.53 62.759 1088.76 62.408 1090.25 62.408C1092.61 62.408 1094.5 63.292 1095.9 65.06C1097.31 66.828 1098.01 69.454 1098.01 72.938C1098.01 76.422 1097.31 79.048 1095.9 80.816C1094.5 82.584 1092.61 83.468 1090.25 83.468C1088.76 83.468 1087.53 83.13 1086.54 82.454C1085.55 81.752 1084.76 80.79 1084.16 79.568H1083.93V90.8H1079.68V62.876ZM1088.49 79.997C1090.1 79.997 1091.34 79.503 1092.2 78.515C1093.08 77.527 1093.52 76.214 1093.52 74.576V71.3C1093.52 69.662 1093.08 68.349 1092.2 67.361C1091.34 66.373 1090.1 65.879 1088.49 65.879C1087.87 65.879 1087.28 65.957 1086.74 66.113C1086.19 66.269 1085.71 66.503 1085.29 66.815C1084.88 67.127 1084.54 67.517 1084.28 67.985C1084.05 68.427 1083.93 68.96 1083.93 69.584V76.292C1083.93 76.916 1084.05 77.462 1084.28 77.93C1084.54 78.372 1084.88 78.749 1085.29 79.061C1085.71 79.373 1086.19 79.607 1086.74 79.763C1087.28 79.919 1087.87 79.997 1088.49 79.997ZM1111.29 66.308H1104.23V62.876H1122.64V66.308H1115.54V83H1111.29V66.308ZM1139 83.468C1137.47 83.468 1136.09 83.221 1134.87 82.727C1133.65 82.233 1132.62 81.531 1131.79 80.621C1130.96 79.711 1130.32 78.619 1129.88 77.345C1129.44 76.045 1129.22 74.589 1129.22 72.977C1129.22 71.365 1129.44 69.909 1129.88 68.609C1130.35 67.309 1130.98 66.204 1131.79 65.294C1132.62 64.358 1133.62 63.643 1134.79 63.149C1135.96 62.655 1137.26 62.408 1138.69 62.408C1140.1 62.408 1141.37 62.655 1142.51 63.149C1143.66 63.617 1144.63 64.293 1145.44 65.177C1146.25 66.061 1146.86 67.114 1147.27 68.336C1147.71 69.558 1147.94 70.91 1147.94 72.392V73.991H1133.51V74.654C1133.51 76.24 1134 77.54 1134.99 78.554C1135.98 79.542 1137.34 80.036 1139.08 80.036C1140.38 80.036 1141.49 79.763 1142.4 79.217C1143.33 78.645 1144.09 77.891 1144.66 76.955L1147.31 79.295C1146.64 80.465 1145.6 81.453 1144.19 82.259C1142.81 83.065 1141.08 83.468 1139 83.468ZM1138.69 65.645C1137.94 65.645 1137.24 65.775 1136.59 66.035C1135.96 66.295 1135.42 66.672 1134.95 67.166C1134.51 67.634 1134.16 68.193 1133.9 68.843C1133.64 69.493 1133.51 70.208 1133.51 70.988V71.261H1143.61V70.871C1143.61 69.285 1143.15 68.024 1142.24 67.088C1141.36 66.126 1140.17 65.645 1138.69 65.645ZM111.173 129.876H116.126L120.494 139.353H120.767L125.135 129.876H129.659V150H125.954V138.651L126.11 135.102H125.837L120.416 146.841L114.995 135.102H114.722L114.878 138.651V150H111.173V129.876ZM137.092 129.876H141.304V138.534L140.914 143.994H141.109L150.001 129.876H154.018V150H149.806V141.342L150.196 135.882H150.001L141.109 150H137.092V129.876ZM171.436 150.468C169.928 150.468 168.576 150.221 167.38 149.727C166.21 149.233 165.209 148.531 164.377 147.621C163.571 146.711 162.947 145.606 162.505 144.306C162.089 143.006 161.881 141.55 161.881 139.938C161.881 138.326 162.089 136.87 162.505 135.57C162.947 134.27 163.571 133.165 164.377 132.255C165.209 131.345 166.21 130.643 167.38 130.149C168.576 129.655 169.915 129.408 171.397 129.408C173.477 129.408 175.141 129.85 176.389 130.734C177.663 131.618 178.612 132.762 179.236 134.166L175.921 135.96C175.557 135.024 174.998 134.283 174.244 133.737C173.516 133.191 172.567 132.918 171.397 132.918C169.785 132.918 168.537 133.412 167.653 134.4C166.769 135.362 166.327 136.649 166.327 138.261V141.615C166.327 143.201 166.769 144.488 167.653 145.476C168.537 146.464 169.811 146.958 171.475 146.958C172.723 146.958 173.737 146.672 174.517 146.1C175.323 145.528 175.96 144.748 176.428 143.76L179.548 145.671C178.898 147.075 177.91 148.232 176.584 149.142C175.258 150.026 173.542 150.468 171.436 150.468ZM193.69 133.308H186.631V129.876H205.039V133.308H197.941V150H193.69V133.308ZM212.512 129.876H216.724V138.534L216.334 143.994H216.529L225.421 129.876H229.438V150H225.226V141.342L225.616 135.882H225.421L216.529 150H212.512V129.876ZM249.819 141.108H249.624C248.948 141.94 248.142 142.577 247.206 143.019C246.296 143.435 245.139 143.643 243.735 143.643C239.341 143.643 237.144 141.42 237.144 136.974V129.876H241.395V136.701C241.395 137.871 241.694 138.729 242.292 139.275C242.916 139.795 243.956 140.055 245.412 140.055C246.738 140.055 247.804 139.86 248.61 139.47C249.416 139.054 249.819 138.456 249.819 137.676V129.876H254.07V150H249.819V141.108ZM271.683 150.468C270.149 150.468 268.771 150.221 267.549 149.727C266.327 149.233 265.3 148.531 264.468 147.621C263.636 146.711 262.999 145.619 262.557 144.345C262.115 143.045 261.894 141.589 261.894 139.977C261.894 138.365 262.115 136.909 262.557 135.609C263.025 134.309 263.662 133.204 264.468 132.294C265.3 131.358 266.301 130.643 267.471 130.149C268.641 129.655 269.941 129.408 271.371 129.408C272.775 129.408 274.049 129.655 275.193 130.149C276.337 130.617 277.312 131.293 278.118 132.177C278.924 133.061 279.535 134.114 279.951 135.336C280.393 136.558 280.614 137.91 280.614 139.392V140.991H266.184V141.654C266.184 143.24 266.678 144.54 267.666 145.554C268.654 146.542 270.019 147.036 271.761 147.036C273.061 147.036 274.166 146.763 275.076 146.217C276.012 145.645 276.766 144.891 277.338 143.955L279.99 146.295C279.314 147.465 278.274 148.453 276.87 149.259C275.492 150.065 273.763 150.468 271.683 150.468ZM271.371 132.645C270.617 132.645 269.915 132.775 269.265 133.035C268.641 133.295 268.095 133.672 267.627 134.166C267.185 134.634 266.834 135.193 266.574 135.843C266.314 136.493 266.184 137.208 266.184 137.988V138.261H276.285V137.871C276.285 136.285 275.83 135.024 274.92 134.088C274.036 133.126 272.853 132.645 271.371 132.645ZM297.135 150.468C295.627 150.468 294.275 150.221 293.079 149.727C291.909 149.233 290.908 148.531 290.076 147.621C289.27 146.711 288.646 145.606 288.204 144.306C287.788 143.006 287.58 141.55 287.58 139.938C287.58 138.326 287.788 136.87 288.204 135.57C288.646 134.27 289.27 133.165 290.076 132.255C290.908 131.345 291.909 130.643 293.079 130.149C294.275 129.655 295.614 129.408 297.096 129.408C299.176 129.408 300.84 129.85 302.088 130.734C303.362 131.618 304.311 132.762 304.935 134.166L301.62 135.96C301.256 135.024 300.697 134.283 299.943 133.737C299.215 133.191 298.266 132.918 297.096 132.918C295.484 132.918 294.236 133.412 293.352 134.4C292.468 135.362 292.026 136.649 292.026 138.261V141.615C292.026 143.201 292.468 144.488 293.352 145.476C294.236 146.464 295.51 146.958 297.174 146.958C298.422 146.958 299.436 146.672 300.216 146.1C301.022 145.528 301.659 144.748 302.127 143.76L305.247 145.671C304.597 147.075 303.609 148.232 302.283 149.142C300.957 150.026 299.241 150.468 297.135 150.468ZM313.422 129.876H317.673V137.988H321.3L326.136 129.876H330.699L326.214 137.208C325.772 137.962 325.343 138.495 324.927 138.807C324.511 139.119 324.03 139.34 323.484 139.47V139.665C324.108 139.795 324.628 140.029 325.044 140.367C325.46 140.679 325.889 141.225 326.331 142.005L328.866 146.568H331.05V150H328.554C327.696 150 326.955 149.805 326.331 149.415C325.733 148.999 325.174 148.336 324.654 147.426L321.3 141.42H317.673V150H313.422V129.876ZM346.673 150.468C345.191 150.468 343.852 150.221 342.656 149.727C341.486 149.233 340.485 148.531 339.653 147.621C338.847 146.711 338.223 145.606 337.781 144.306C337.339 143.006 337.118 141.55 337.118 139.938C337.118 138.326 337.339 136.87 337.781 135.57C338.223 134.27 338.847 133.165 339.653 132.255C340.485 131.345 341.486 130.643 342.656 130.149C343.852 129.655 345.191 129.408 346.673 129.408C348.155 129.408 349.481 129.655 350.651 130.149C351.847 130.643 352.848 131.345 353.654 132.255C354.486 133.165 355.123 134.27 355.565 135.57C356.007 136.87 356.228 138.326 356.228 139.938C356.228 141.55 356.007 143.006 355.565 144.306C355.123 145.606 354.486 146.711 353.654 147.621C352.848 148.531 351.847 149.233 350.651 149.727C349.481 150.221 348.155 150.468 346.673 150.468ZM346.673 147.114C348.233 147.114 349.468 146.646 350.378 145.71C351.314 144.748 351.782 143.331 351.782 141.459V138.417C351.782 136.545 351.314 135.141 350.378 134.205C349.468 133.243 348.233 132.762 346.673 132.762C345.113 132.762 343.865 133.243 342.929 134.205C342.019 135.141 341.564 136.545 341.564 138.417V141.459C341.564 143.331 342.019 144.748 342.929 145.71C343.865 146.646 345.113 147.114 346.673 147.114ZM365.144 129.876H379.925V133.308H369.395V150H365.144V129.876ZM396.953 150.468C395.471 150.468 394.132 150.221 392.936 149.727C391.766 149.233 390.765 148.531 389.933 147.621C389.127 146.711 388.503 145.606 388.061 144.306C387.619 143.006 387.398 141.55 387.398 139.938C387.398 138.326 387.619 136.87 388.061 135.57C388.503 134.27 389.127 133.165 389.933 132.255C390.765 131.345 391.766 130.643 392.936 130.149C394.132 129.655 395.471 129.408 396.953 129.408C398.435 129.408 399.761 129.655 400.931 130.149C402.127 130.643 403.128 131.345 403.934 132.255C404.766 133.165 405.403 134.27 405.845 135.57C406.287 136.87 406.508 138.326 406.508 139.938C406.508 141.55 406.287 143.006 405.845 144.306C405.403 145.606 404.766 146.711 403.934 147.621C403.128 148.531 402.127 149.233 400.931 149.727C399.761 150.221 398.435 150.468 396.953 150.468ZM396.953 147.114C398.513 147.114 399.748 146.646 400.658 145.71C401.594 144.748 402.062 143.331 402.062 141.459V138.417C402.062 136.545 401.594 135.141 400.658 134.205C399.748 133.243 398.513 132.762 396.953 132.762C395.393 132.762 394.145 133.243 393.209 134.205C392.299 135.141 391.844 136.545 391.844 138.417V141.459C391.844 143.331 392.299 144.748 393.209 145.71C394.145 146.646 395.393 147.114 396.953 147.114ZM447.271 150.468C445.841 150.468 444.541 150.221 443.371 149.727C442.227 149.233 441.239 148.492 440.407 147.504C439.601 146.516 438.977 145.281 438.535 143.799C438.093 142.291 437.872 140.536 437.872 138.534C437.872 135.492 438.08 132.905 438.496 130.773C438.912 128.615 439.575 126.86 440.485 125.508C441.395 124.13 442.552 123.103 443.956 122.427C445.386 121.751 447.102 121.348 449.104 121.218L455.227 120.867V124.845L449.182 125.196C447.96 125.274 446.933 125.482 446.101 125.82C445.295 126.132 444.632 126.639 444.112 127.341C443.592 128.043 443.189 128.953 442.903 130.071C442.643 131.163 442.461 132.528 442.357 134.166H442.591C443.085 132.866 443.8 131.865 444.736 131.163C445.672 130.461 446.881 130.11 448.363 130.11C449.585 130.11 450.703 130.331 451.717 130.773C452.757 131.215 453.641 131.865 454.369 132.723C455.097 133.555 455.656 134.595 456.046 135.843C456.462 137.091 456.67 138.508 456.67 140.094C456.67 141.654 456.449 143.084 456.007 144.384C455.565 145.658 454.928 146.75 454.096 147.66C453.29 148.544 452.302 149.233 451.132 149.727C449.988 150.221 448.701 150.468 447.271 150.468ZM447.232 147.114C448.714 147.114 449.91 146.646 450.82 145.71C451.756 144.748 452.224 143.409 452.224 141.693V138.963C452.224 137.143 451.782 135.778 450.898 134.868C450.014 133.932 448.792 133.464 447.232 133.464C445.646 133.464 444.424 133.919 443.566 134.829C442.734 135.713 442.318 136.896 442.318 138.378V141.615C442.318 143.409 442.76 144.774 443.644 145.71C444.554 146.646 445.75 147.114 447.232 147.114ZM478.261 129.876H482.551L472.801 153.9C472.281 155.2 471.592 156.175 470.734 156.825C469.902 157.475 468.693 157.8 467.107 157.8H463.714V154.368H468.472L470.305 149.727L462.193 129.876H466.639L469.837 138.3L472.333 145.203H472.567L475.063 138.3L478.261 129.876ZM486.475 146.568H488.776C489.53 145.372 490.128 143.929 490.57 142.239C491.012 140.523 491.233 138.495 491.233 136.155V129.876H504.961V146.568H508.198V155.46H504.376V150H490.297V155.46H486.475V146.568ZM500.788 146.568V133.308H495.211V136.311C495.211 138.599 495.029 140.575 494.665 142.239C494.327 143.877 493.82 145.32 493.144 146.568H500.788ZM528.541 129.876H532.831L523.081 153.9C522.561 155.2 521.872 156.175 521.014 156.825C520.182 157.475 518.973 157.8 517.387 157.8H513.994V154.368H518.752L520.585 149.727L512.473 129.876H516.919L520.117 138.3L522.613 145.203H522.847L525.343 138.3L528.541 129.876ZM556.099 150H537.73V129.876H541.357V146.724H545.647V129.876H549.274V146.724H553.564V129.876H557.191V146.685H559.492V155.46H556.099V150ZM573.36 150.468C571.826 150.468 570.448 150.221 569.226 149.727C568.004 149.233 566.977 148.531 566.145 147.621C565.313 146.711 564.676 145.619 564.234 144.345C563.792 143.045 563.571 141.589 563.571 139.977C563.571 138.365 563.792 136.909 564.234 135.609C564.702 134.309 565.339 133.204 566.145 132.294C566.977 131.358 567.978 130.643 569.148 130.149C570.318 129.655 571.618 129.408 573.048 129.408C574.452 129.408 575.726 129.655 576.87 130.149C578.014 130.617 578.989 131.293 579.795 132.177C580.601 133.061 581.212 134.114 581.628 135.336C582.07 136.558 582.291 137.91 582.291 139.392V140.991H567.861V141.654C567.861 143.24 568.355 144.54 569.343 145.554C570.331 146.542 571.696 147.036 573.438 147.036C574.738 147.036 575.843 146.763 576.753 146.217C577.689 145.645 578.443 144.891 579.015 143.955L581.667 146.295C580.991 147.465 579.951 148.453 578.547 149.259C577.169 150.065 575.44 150.468 573.36 150.468ZM573.048 132.645C572.294 132.645 571.592 132.775 570.942 133.035C570.318 133.295 569.772 133.672 569.304 134.166C568.862 134.634 568.511 135.193 568.251 135.843C567.991 136.493 567.861 137.208 567.861 137.988V138.261H577.962V137.871C577.962 136.285 577.507 135.024 576.597 134.088C575.713 133.126 574.53 132.645 573.048 132.645ZM591.402 129.876H606.183V133.308H595.653V150H591.402V129.876ZM623.211 150.468C621.729 150.468 620.39 150.221 619.194 149.727C618.024 149.233 617.023 148.531 616.191 147.621C615.385 146.711 614.761 145.606 614.319 144.306C613.877 143.006 613.656 141.55 613.656 139.938C613.656 138.326 613.877 136.87 614.319 135.57C614.761 134.27 615.385 133.165 616.191 132.255C617.023 131.345 618.024 130.643 619.194 130.149C620.39 129.655 621.729 129.408 623.211 129.408C624.693 129.408 626.019 129.655 627.189 130.149C628.385 130.643 629.386 131.345 630.192 132.255C631.024 133.165 631.661 134.27 632.103 135.57C632.545 136.87 632.766 138.326 632.766 139.938C632.766 141.55 632.545 143.006 632.103 144.306C631.661 145.606 631.024 146.711 630.192 147.621C629.386 148.531 628.385 149.233 627.189 149.727C626.019 150.221 624.693 150.468 623.211 150.468ZM623.211 147.114C624.771 147.114 626.006 146.646 626.916 145.71C627.852 144.748 628.32 143.331 628.32 141.459V138.417C628.32 136.545 627.852 135.141 626.916 134.205C626.006 133.243 624.771 132.762 623.211 132.762C621.651 132.762 620.403 133.243 619.467 134.205C618.557 135.141 618.102 136.545 618.102 138.417V141.459C618.102 143.331 618.557 144.748 619.467 145.71C620.403 146.646 621.651 147.114 623.211 147.114ZM665.495 129.876H676.298C678.04 129.876 679.392 130.344 680.354 131.28C681.316 132.19 681.797 133.412 681.797 134.946C681.797 137.442 680.432 138.898 677.702 139.314V139.509C679.366 139.639 680.588 140.12 681.368 140.952C682.148 141.758 682.538 142.824 682.538 144.15C682.538 144.956 682.395 145.71 682.109 146.412C681.849 147.114 681.459 147.738 680.939 148.284C680.419 148.804 679.769 149.22 678.989 149.532C678.235 149.844 677.377 150 676.415 150H665.495V129.876ZM675.518 146.802C676.35 146.802 677 146.607 677.468 146.217C677.936 145.801 678.17 145.216 678.17 144.462V143.526C678.17 142.772 677.936 142.187 677.468 141.771C677.026 141.355 676.428 141.147 675.674 141.147H669.746V146.802H675.518ZM675.128 138.3C675.83 138.3 676.389 138.105 676.805 137.715C677.221 137.325 677.429 136.792 677.429 136.116V135.258C677.429 134.582 677.221 134.049 676.805 133.659C676.389 133.269 675.83 133.074 675.128 133.074H669.746V138.3H675.128ZM688.646 129.876H692.507V136.506H695.354C697.408 136.506 699.059 137.091 700.307 138.261C701.581 139.431 702.218 141.095 702.218 143.253C702.218 145.411 701.581 147.075 700.307 148.245C699.059 149.415 697.408 150 695.354 150H688.646V129.876ZM695.081 146.802C696.069 146.802 696.836 146.581 697.382 146.139C697.954 145.671 698.24 144.943 698.24 143.955V142.551C698.24 141.563 697.954 140.848 697.382 140.406C696.836 139.938 696.069 139.704 695.081 139.704H692.507V146.802H695.081ZM704.753 129.876H708.614V150H704.753V129.876ZM749.651 150.468C748.143 150.468 746.791 150.221 745.595 149.727C744.425 149.233 743.424 148.531 742.592 147.621C741.786 146.711 741.162 145.606 740.72 144.306C740.304 143.006 740.096 141.55 740.096 139.938C740.096 138.326 740.304 136.87 740.72 135.57C741.162 134.27 741.786 133.165 742.592 132.255C743.424 131.345 744.425 130.643 745.595 130.149C746.791 129.655 748.13 129.408 749.612 129.408C751.692 129.408 753.356 129.85 754.604 130.734C755.878 131.618 756.827 132.762 757.451 134.166L754.136 135.96C753.772 135.024 753.213 134.283 752.459 133.737C751.731 133.191 750.782 132.918 749.612 132.918C748 132.918 746.752 133.412 745.868 134.4C744.984 135.362 744.542 136.649 744.542 138.261V141.615C744.542 143.201 744.984 144.488 745.868 145.476C746.752 146.464 748.026 146.958 749.69 146.958C750.938 146.958 751.952 146.672 752.732 146.1C753.538 145.528 754.175 144.748 754.643 143.76L757.763 145.671C757.113 147.075 756.125 148.232 754.799 149.142C753.473 150.026 751.757 150.468 749.651 150.468ZM764.806 129.876H769.759L774.127 139.353H774.4L778.768 129.876H783.292V150H779.587V138.651L779.743 135.102H779.47L774.049 146.841L768.628 135.102H768.355L768.511 138.651V150H764.806V129.876ZM799.189 150.468C797.707 150.468 796.368 150.221 795.172 149.727C794.002 149.233 793.001 148.531 792.169 147.621C791.363 146.711 790.739 145.606 790.297 144.306C789.855 143.006 789.634 141.55 789.634 139.938C789.634 138.326 789.855 136.87 790.297 135.57C790.739 134.27 791.363 133.165 792.169 132.255C793.001 131.345 794.002 130.643 795.172 130.149C796.368 129.655 797.707 129.408 799.189 129.408C800.671 129.408 801.997 129.655 803.167 130.149C804.363 130.643 805.364 131.345 806.17 132.255C807.002 133.165 807.639 134.27 808.081 135.57C808.523 136.87 808.744 138.326 808.744 139.938C808.744 141.55 808.523 143.006 808.081 144.306C807.639 145.606 807.002 146.711 806.17 147.621C805.364 148.531 804.363 149.233 803.167 149.727C801.997 150.221 800.671 150.468 799.189 150.468ZM799.189 147.114C800.749 147.114 801.984 146.646 802.894 145.71C803.83 144.748 804.298 143.331 804.298 141.459V138.417C804.298 136.545 803.83 135.141 802.894 134.205C801.984 133.243 800.749 132.762 799.189 132.762C797.629 132.762 796.381 133.243 795.445 134.205C794.535 135.141 794.08 136.545 794.08 138.417V141.459C794.08 143.331 794.535 144.748 795.445 145.71C796.381 146.646 797.629 147.114 799.189 147.114ZM822.535 141.303H819.649L817.348 150H813.526L815.476 142.629C815.71 141.771 816.022 141.108 816.412 140.64C816.828 140.172 817.387 139.873 818.089 139.743V139.548C816.919 139.21 816.126 138.3 815.71 136.818L813.799 129.876H817.504L819.766 138.105H822.535V129.876H826.123V138.105H828.892L831.154 129.876H834.859L832.948 136.818C832.532 138.3 831.739 139.21 830.569 139.548V139.743C831.271 139.873 831.817 140.172 832.207 140.64C832.623 141.108 832.948 141.771 833.182 142.629L835.132 150H831.31L829.009 141.303H826.123V150H822.535V141.303ZM849.898 150.468C848.364 150.468 846.986 150.221 845.764 149.727C844.542 149.233 843.515 148.531 842.683 147.621C841.851 146.711 841.214 145.619 840.772 144.345C840.33 143.045 840.109 141.589 840.109 139.977C840.109 138.365 840.33 136.909 840.772 135.609C841.24 134.309 841.877 133.204 842.683 132.294C843.515 131.358 844.516 130.643 845.686 130.149C846.856 129.655 848.156 129.408 849.586 129.408C850.99 129.408 852.264 129.655 853.408 130.149C854.552 130.617 855.527 131.293 856.333 132.177C857.139 133.061 857.75 134.114 858.166 135.336C858.608 136.558 858.829 137.91 858.829 139.392V140.991H844.399V141.654C844.399 143.24 844.893 144.54 845.881 145.554C846.869 146.542 848.234 147.036 849.976 147.036C851.276 147.036 852.381 146.763 853.291 146.217C854.227 145.645 854.981 144.891 855.553 143.955L858.205 146.295C857.529 147.465 856.489 148.453 855.085 149.259C853.707 150.065 851.978 150.468 849.898 150.468ZM849.586 132.645C848.832 132.645 848.13 132.775 847.48 133.035C846.856 133.295 846.31 133.672 845.842 134.166C845.4 134.634 845.049 135.193 844.789 135.843C844.529 136.493 844.399 137.208 844.399 137.988V138.261H854.5V137.871C854.5 136.285 854.045 135.024 853.135 134.088C852.251 133.126 851.068 132.645 849.586 132.645ZM872.464 133.308H865.405V129.876H883.813V133.308H876.715V150H872.464V133.308ZM900.177 150.468C898.643 150.468 897.265 150.221 896.043 149.727C894.821 149.233 893.794 148.531 892.962 147.621C892.13 146.711 891.493 145.619 891.051 144.345C890.609 143.045 890.388 141.589 890.388 139.977C890.388 138.365 890.609 136.909 891.051 135.609C891.519 134.309 892.156 133.204 892.962 132.294C893.794 131.358 894.795 130.643 895.965 130.149C897.135 129.655 898.435 129.408 899.865 129.408C901.269 129.408 902.543 129.655 903.687 130.149C904.831 130.617 905.806 131.293 906.612 132.177C907.418 133.061 908.029 134.114 908.445 135.336C908.887 136.558 909.108 137.91 909.108 139.392V140.991H894.678V141.654C894.678 143.24 895.172 144.54 896.16 145.554C897.148 146.542 898.513 147.036 900.255 147.036C901.555 147.036 902.66 146.763 903.57 146.217C904.506 145.645 905.26 144.891 905.832 143.955L908.484 146.295C907.808 147.465 906.768 148.453 905.364 149.259C903.986 150.065 902.257 150.468 900.177 150.468ZM899.865 132.645C899.111 132.645 898.409 132.775 897.759 133.035C897.135 133.295 896.589 133.672 896.121 134.166C895.679 134.634 895.328 135.193 895.068 135.843C894.808 136.493 894.678 137.208 894.678 137.988V138.261H904.779V137.871C904.779 136.285 904.324 135.024 903.414 134.088C902.53 133.126 901.347 132.645 899.865 132.645ZM950.028 150.468C948.546 150.468 947.207 150.221 946.011 149.727C944.841 149.233 943.84 148.531 943.008 147.621C942.202 146.711 941.578 145.606 941.136 144.306C940.694 143.006 940.473 141.55 940.473 139.938C940.473 138.326 940.694 136.87 941.136 135.57C941.578 134.27 942.202 133.165 943.008 132.255C943.84 131.345 944.841 130.643 946.011 130.149C947.207 129.655 948.546 129.408 950.028 129.408C951.51 129.408 952.836 129.655 954.006 130.149C955.202 130.643 956.203 131.345 957.009 132.255C957.841 133.165 958.478 134.27 958.92 135.57C959.362 136.87 959.583 138.326 959.583 139.938C959.583 141.55 959.362 143.006 958.92 144.306C958.478 145.606 957.841 146.711 957.009 147.621C956.203 148.531 955.202 149.233 954.006 149.727C952.836 150.221 951.51 150.468 950.028 150.468ZM950.028 147.114C951.588 147.114 952.823 146.646 953.733 145.71C954.669 144.748 955.137 143.331 955.137 141.459V138.417C955.137 136.545 954.669 135.141 953.733 134.205C952.823 133.243 951.588 132.762 950.028 132.762C948.468 132.762 947.22 133.243 946.284 134.205C945.374 135.141 944.919 136.545 944.919 138.417V141.459C944.919 143.331 945.374 144.748 946.284 145.71C947.22 146.646 948.468 147.114 950.028 147.114ZM983.475 150H965.106V129.876H968.733V146.724H973.023V129.876H976.65V146.724H980.94V129.876H984.567V146.685H986.868V155.46H983.475V150ZM1006.2 129.876H1010.49L1000.74 153.9C1000.22 155.2 999.527 156.175 998.669 156.825C997.837 157.475 996.628 157.8 995.042 157.8H991.649V154.368H996.407L998.24 149.727L990.128 129.876H994.574L997.772 138.3L1000.27 145.203H1000.5L1003 138.3L1006.2 129.876ZM1023.3 133.308H1016.24V129.876H1034.65V133.308H1027.55V150H1023.3V133.308ZM1042.12 129.876H1046.34V138.534L1045.95 143.994H1046.14L1055.03 129.876H1059.05V150H1054.84V141.342L1055.23 135.882H1055.03L1046.14 150H1042.12V129.876ZM1073.58 133.308H1066.52V129.876H1084.93V133.308H1077.83V150H1073.58V133.308ZM1093.07 129.876H1097.32V136.506H1103.05C1105.13 136.506 1106.79 137.091 1108.04 138.261C1109.29 139.431 1109.91 141.095 1109.91 143.253C1109.91 145.411 1109.29 147.075 1108.04 148.245C1106.79 149.415 1105.13 150 1103.05 150H1093.07V129.876ZM1102.31 146.685C1103.3 146.685 1104.08 146.451 1104.65 145.983C1105.25 145.515 1105.55 144.826 1105.55 143.916V142.59C1105.55 141.68 1105.25 140.991 1104.65 140.523C1104.08 140.055 1103.3 139.821 1102.31 139.821H1097.32V146.685H1102.31ZM1142.76 129.876H1159.53V150H1155.28V133.308H1147.01V150H1142.76V129.876ZM1176.29 150.468C1174.8 150.468 1173.46 150.221 1172.27 149.727C1171.1 149.233 1170.1 148.531 1169.27 147.621C1168.46 146.711 1167.84 145.606 1167.39 144.306C1166.95 143.006 1166.73 141.55 1166.73 139.938C1166.73 138.326 1166.95 136.87 1167.39 135.57C1167.84 134.27 1168.46 133.165 1169.27 132.255C1170.1 131.345 1171.1 130.643 1172.27 130.149C1173.46 129.655 1174.8 129.408 1176.29 129.408C1177.77 129.408 1179.09 129.655 1180.26 130.149C1181.46 130.643 1182.46 131.345 1183.27 132.255C1184.1 133.165 1184.74 134.27 1185.18 135.57C1185.62 136.87 1185.84 138.326 1185.84 139.938C1185.84 141.55 1185.62 143.006 1185.18 144.306C1184.74 145.606 1184.1 146.711 1183.27 147.621C1182.46 148.531 1181.46 149.233 1180.26 149.727C1179.09 150.221 1177.77 150.468 1176.29 150.468ZM1176.29 147.114C1177.85 147.114 1179.08 146.646 1179.99 145.71C1180.93 144.748 1181.39 143.331 1181.39 141.459V138.417C1181.39 136.545 1180.93 135.141 1179.99 134.205C1179.08 133.243 1177.85 132.762 1176.29 132.762C1174.73 132.762 1173.48 133.243 1172.54 134.205C1171.63 135.141 1171.18 136.545 1171.18 138.417V141.459C1171.18 143.331 1171.63 144.748 1172.54 145.71C1173.48 146.646 1174.73 147.114 1176.29 147.114ZM1190.66 146.568H1193.27C1193.61 146.126 1193.91 145.619 1194.17 145.047C1194.46 144.449 1194.68 143.734 1194.83 142.902C1195.02 142.07 1195.15 141.108 1195.22 140.016C1195.33 138.924 1195.38 137.65 1195.38 136.194V129.876H1209.62V150H1205.36V133.308H1199.36V136.272C1199.36 139.678 1199.11 142.343 1198.62 144.267C1198.12 146.191 1197.45 147.595 1196.59 148.479C1195.99 149.103 1195.3 149.519 1194.52 149.727C1193.74 149.909 1192.92 150 1192.07 150H1190.66V146.568ZM1218.14 129.876H1222.39V137.988H1230.74V129.876H1234.99V150H1230.74V141.42H1222.39V150H1218.14V129.876ZM1257.59 129.876H1261.88L1252.13 153.9C1251.61 155.2 1250.92 156.175 1250.07 156.825C1249.23 157.475 1248.03 157.8 1246.44 157.8H1243.05V154.368H1247.8L1249.64 149.727L1241.53 129.876H1245.97L1249.17 138.3L1251.67 145.203H1251.9L1254.4 138.3L1257.59 129.876ZM1280.39 150.468C1279.35 150.468 1278.43 150.312 1277.62 150C1276.84 149.714 1276.17 149.22 1275.6 148.518C1275.05 147.79 1274.62 146.841 1274.31 145.671C1274.02 144.501 1273.84 143.032 1273.76 141.264H1270.57V150H1266.86V129.876H1270.57V138.144H1273.8C1273.88 136.48 1274.08 135.089 1274.39 133.971C1274.73 132.853 1275.17 131.956 1275.71 131.28C1276.26 130.604 1276.92 130.123 1277.7 129.837C1278.48 129.551 1279.38 129.408 1280.39 129.408C1281.49 129.408 1282.45 129.577 1283.28 129.915C1284.11 130.253 1284.8 130.825 1285.35 131.631C1285.92 132.437 1286.33 133.516 1286.59 134.868C1286.88 136.22 1287.02 137.91 1287.02 139.938C1287.02 141.966 1286.88 143.656 1286.59 145.008C1286.31 146.36 1285.89 147.439 1285.35 148.245C1284.8 149.051 1284.11 149.623 1283.28 149.961C1282.45 150.299 1281.49 150.468 1280.39 150.468ZM1280.39 147.231C1280.86 147.231 1281.26 147.153 1281.6 146.997C1281.97 146.841 1282.25 146.568 1282.46 146.178C1282.69 145.788 1282.86 145.255 1282.97 144.579C1283.1 143.877 1283.16 142.98 1283.16 141.888V137.988C1283.16 136.896 1283.1 136.012 1282.97 135.336C1282.86 134.634 1282.69 134.088 1282.46 133.698C1282.25 133.308 1281.97 133.035 1281.6 132.879C1281.26 132.723 1280.86 132.645 1280.39 132.645C1279.93 132.645 1279.51 132.723 1279.15 132.879C1278.81 133.035 1278.52 133.308 1278.29 133.698C1278.08 134.088 1277.91 134.634 1277.78 135.336C1277.68 136.012 1277.62 136.896 1277.62 137.988V141.888C1277.62 142.98 1277.68 143.877 1277.78 144.579C1277.91 145.255 1278.08 145.788 1278.29 146.178C1278.52 146.568 1278.81 146.841 1279.15 146.997C1279.51 147.153 1279.93 147.231 1280.39 147.231ZM201.287 196.876H212.09C213.832 196.876 215.184 197.344 216.146 198.28C217.108 199.19 217.589 200.412 217.589 201.946C217.589 204.442 216.224 205.898 213.494 206.314V206.509C215.158 206.639 216.38 207.12 217.16 207.952C217.94 208.758 218.33 209.824 218.33 211.15C218.33 211.956 218.187 212.71 217.901 213.412C217.641 214.114 217.251 214.738 216.731 215.284C216.211 215.804 215.561 216.22 214.781 216.532C214.027 216.844 213.169 217 212.207 217H201.287V196.876ZM211.31 213.802C212.142 213.802 212.792 213.607 213.26 213.217C213.728 212.801 213.962 212.216 213.962 211.462V210.526C213.962 209.772 213.728 209.187 213.26 208.771C212.818 208.355 212.22 208.147 211.466 208.147H205.538V213.802H211.31ZM210.92 205.3C211.622 205.3 212.181 205.105 212.597 204.715C213.013 204.325 213.221 203.792 213.221 203.116V202.258C213.221 201.582 213.013 201.049 212.597 200.659C212.181 200.269 211.622 200.074 210.92 200.074H205.538V205.3H210.92ZM226.31 196.876H230.561V204.988H234.188L239.024 196.876H243.587L239.102 204.208C238.66 204.962 238.231 205.495 237.815 205.807C237.399 206.119 236.918 206.34 236.372 206.47V206.665C236.996 206.795 237.516 207.029 237.932 207.367C238.348 207.679 238.777 208.225 239.219 209.005L241.754 213.568H243.938V217H241.442C240.584 217 239.843 216.805 239.219 216.415C238.621 215.999 238.062 215.336 237.542 214.426L234.188 208.42H230.561V217H226.31V196.876ZM265.451 196.876H269.741L259.991 220.9C259.471 222.2 258.782 223.175 257.924 223.825C257.092 224.475 255.883 224.8 254.297 224.8H250.904V221.368H255.662L257.495 216.727L249.383 196.876H253.829L257.027 205.3L259.523 212.203H259.757L262.253 205.3L265.451 196.876ZM285.442 217.468C283.934 217.468 282.582 217.221 281.386 216.727C280.216 216.233 279.215 215.531 278.383 214.621C277.577 213.711 276.953 212.606 276.511 211.306C276.095 210.006 275.887 208.55 275.887 206.938C275.887 205.326 276.095 203.87 276.511 202.57C276.953 201.27 277.577 200.165 278.383 199.255C279.215 198.345 280.216 197.643 281.386 197.149C282.582 196.655 283.921 196.408 285.403 196.408C287.483 196.408 289.147 196.85 290.395 197.734C291.669 198.618 292.618 199.762 293.242 201.166L289.927 202.96C289.563 202.024 289.004 201.283 288.25 200.737C287.522 200.191 286.573 199.918 285.403 199.918C283.791 199.918 282.543 200.412 281.659 201.4C280.775 202.362 280.333 203.649 280.333 205.261V208.615C280.333 210.201 280.775 211.488 281.659 212.476C282.543 213.464 283.817 213.958 285.481 213.958C286.729 213.958 287.743 213.672 288.523 213.1C289.329 212.528 289.966 211.748 290.434 210.76L293.554 212.671C292.904 214.075 291.916 215.232 290.59 216.142C289.264 217.026 287.548 217.468 285.442 217.468ZM309.841 217.468C308.359 217.468 307.02 217.221 305.824 216.727C304.654 216.233 303.653 215.531 302.821 214.621C302.015 213.711 301.391 212.606 300.949 211.306C300.507 210.006 300.286 208.55 300.286 206.938C300.286 205.326 300.507 203.87 300.949 202.57C301.391 201.27 302.015 200.165 302.821 199.255C303.653 198.345 304.654 197.643 305.824 197.149C307.02 196.655 308.359 196.408 309.841 196.408C311.323 196.408 312.649 196.655 313.819 197.149C315.015 197.643 316.016 198.345 316.822 199.255C317.654 200.165 318.291 201.27 318.733 202.57C319.175 203.87 319.396 205.326 319.396 206.938C319.396 208.55 319.175 210.006 318.733 211.306C318.291 212.606 317.654 213.711 316.822 214.621C316.016 215.531 315.015 216.233 313.819 216.727C312.649 217.221 311.323 217.468 309.841 217.468ZM309.841 214.114C311.401 214.114 312.636 213.646 313.546 212.71C314.482 211.748 314.95 210.331 314.95 208.459V205.417C314.95 203.545 314.482 202.141 313.546 201.205C312.636 200.243 311.401 199.762 309.841 199.762C308.281 199.762 307.033 200.243 306.097 201.205C305.187 202.141 304.732 203.545 304.732 205.417V208.459C304.732 210.331 305.187 211.748 306.097 212.71C307.033 213.646 308.281 214.114 309.841 214.114ZM326.986 196.876H337.789C339.531 196.876 340.883 197.344 341.845 198.28C342.807 199.19 343.288 200.412 343.288 201.946C343.288 204.442 341.923 205.898 339.193 206.314V206.509C340.857 206.639 342.079 207.12 342.859 207.952C343.639 208.758 344.029 209.824 344.029 211.15C344.029 211.956 343.886 212.71 343.6 213.412C343.34 214.114 342.95 214.738 342.43 215.284C341.91 215.804 341.26 216.22 340.48 216.532C339.726 216.844 338.868 217 337.906 217H326.986V196.876ZM337.009 213.802C337.841 213.802 338.491 213.607 338.959 213.217C339.427 212.801 339.661 212.216 339.661 211.462V210.526C339.661 209.772 339.427 209.187 338.959 208.771C338.517 208.355 337.919 208.147 337.165 208.147H331.237V213.802H337.009ZM336.619 205.3C337.321 205.3 337.88 205.105 338.296 204.715C338.712 204.325 338.92 203.792 338.92 203.116V202.258C338.92 201.582 338.712 201.049 338.296 200.659C337.88 200.269 337.321 200.074 336.619 200.074H331.237V205.3H336.619ZM366.01 196.876H370.3L360.55 220.9C360.03 222.2 359.341 223.175 358.483 223.825C357.651 224.475 356.442 224.8 354.856 224.8H351.463V221.368H356.221L358.054 216.727L349.942 196.876H354.388L357.586 205.3L360.082 212.203H360.316L362.812 205.3L366.01 196.876ZM388.81 217.468C387.77 217.468 386.847 217.312 386.041 217C385.261 216.714 384.585 216.22 384.013 215.518C383.467 214.79 383.038 213.841 382.726 212.671C382.44 211.501 382.258 210.032 382.18 208.264H378.982V217H375.277V196.876H378.982V205.144H382.219C382.297 203.48 382.492 202.089 382.804 200.971C383.142 199.853 383.584 198.956 384.13 198.28C384.676 197.604 385.339 197.123 386.119 196.837C386.899 196.551 387.796 196.408 388.81 196.408C389.902 196.408 390.864 196.577 391.696 196.915C392.528 197.253 393.217 197.825 393.763 198.631C394.335 199.437 394.751 200.516 395.011 201.868C395.297 203.22 395.44 204.91 395.44 206.938C395.44 208.966 395.297 210.656 395.011 212.008C394.725 213.36 394.309 214.439 393.763 215.245C393.217 216.051 392.528 216.623 391.696 216.961C390.864 217.299 389.902 217.468 388.81 217.468ZM388.81 214.231C389.278 214.231 389.681 214.153 390.019 213.997C390.383 213.841 390.669 213.568 390.877 213.178C391.111 212.788 391.28 212.255 391.384 211.579C391.514 210.877 391.579 209.98 391.579 208.888V204.988C391.579 203.896 391.514 203.012 391.384 202.336C391.28 201.634 391.111 201.088 390.877 200.698C390.669 200.308 390.383 200.035 390.019 199.879C389.681 199.723 389.278 199.645 388.81 199.645C388.342 199.645 387.926 199.723 387.562 199.879C387.224 200.035 386.938 200.308 386.704 200.698C386.496 201.088 386.327 201.634 386.197 202.336C386.093 203.012 386.041 203.896 386.041 204.988V208.888C386.041 209.98 386.093 210.877 386.197 211.579C386.327 212.255 386.496 212.788 386.704 213.178C386.938 213.568 387.224 213.841 387.562 213.997C387.926 214.153 388.342 214.231 388.81 214.231ZM436.281 217.468C434.773 217.468 433.421 217.221 432.225 216.727C431.055 216.233 430.054 215.531 429.222 214.621C428.416 213.711 427.792 212.606 427.35 211.306C426.934 210.006 426.726 208.55 426.726 206.938C426.726 205.326 426.934 203.87 427.35 202.57C427.792 201.27 428.416 200.165 429.222 199.255C430.054 198.345 431.055 197.643 432.225 197.149C433.421 196.655 434.76 196.408 436.242 196.408C438.322 196.408 439.986 196.85 441.234 197.734C442.508 198.618 443.457 199.762 444.081 201.166L440.766 202.96C440.402 202.024 439.843 201.283 439.089 200.737C438.361 200.191 437.412 199.918 436.242 199.918C434.63 199.918 433.382 200.412 432.498 201.4C431.614 202.362 431.172 203.649 431.172 205.261V208.615C431.172 210.201 431.614 211.488 432.498 212.476C433.382 213.464 434.656 213.958 436.32 213.958C437.568 213.958 438.582 213.672 439.362 213.1C440.168 212.528 440.805 211.748 441.273 210.76L444.393 212.671C443.743 214.075 442.755 215.232 441.429 216.142C440.103 217.026 438.387 217.468 436.281 217.468ZM452.685 196.876H463.488C465.23 196.876 466.582 197.344 467.544 198.28C468.506 199.19 468.987 200.412 468.987 201.946C468.987 204.442 467.622 205.898 464.892 206.314V206.509C466.556 206.639 467.778 207.12 468.558 207.952C469.338 208.758 469.728 209.824 469.728 211.15C469.728 211.956 469.585 212.71 469.299 213.412C469.039 214.114 468.649 214.738 468.129 215.284C467.609 215.804 466.959 216.22 466.179 216.532C465.425 216.844 464.567 217 463.605 217H452.685V196.876ZM462.708 213.802C463.54 213.802 464.19 213.607 464.658 213.217C465.126 212.801 465.36 212.216 465.36 211.462V210.526C465.36 209.772 465.126 209.187 464.658 208.771C464.216 208.355 463.618 208.147 462.864 208.147H456.936V213.802H462.708ZM462.318 205.3C463.02 205.3 463.579 205.105 463.995 204.715C464.411 204.325 464.619 203.792 464.619 203.116V202.258C464.619 201.582 464.411 201.049 463.995 200.659C463.579 200.269 463.02 200.074 462.318 200.074H456.936V205.3H462.318ZM485.82 217.468C484.338 217.468 482.999 217.221 481.803 216.727C480.633 216.233 479.632 215.531 478.8 214.621C477.994 213.711 477.37 212.606 476.928 211.306C476.486 210.006 476.265 208.55 476.265 206.938C476.265 205.326 476.486 203.87 476.928 202.57C477.37 201.27 477.994 200.165 478.8 199.255C479.632 198.345 480.633 197.643 481.803 197.149C482.999 196.655 484.338 196.408 485.82 196.408C487.302 196.408 488.628 196.655 489.798 197.149C490.994 197.643 491.995 198.345 492.801 199.255C493.633 200.165 494.27 201.27 494.712 202.57C495.154 203.87 495.375 205.326 495.375 206.938C495.375 208.55 495.154 210.006 494.712 211.306C494.27 212.606 493.633 213.711 492.801 214.621C491.995 215.531 490.994 216.233 489.798 216.727C488.628 217.221 487.302 217.468 485.82 217.468ZM485.82 214.114C487.38 214.114 488.615 213.646 489.525 212.71C490.461 211.748 490.929 210.331 490.929 208.459V205.417C490.929 203.545 490.461 202.141 489.525 201.205C488.615 200.243 487.38 199.762 485.82 199.762C484.26 199.762 483.012 200.243 482.076 201.205C481.166 202.141 480.711 203.545 480.711 205.417V208.459C480.711 210.331 481.166 211.748 482.076 212.71C483.012 213.646 484.26 214.114 485.82 214.114ZM510.998 217.468C509.568 217.468 508.268 217.221 507.098 216.727C505.954 216.233 504.966 215.492 504.134 214.504C503.328 213.516 502.704 212.281 502.262 210.799C501.82 209.291 501.599 207.536 501.599 205.534C501.599 202.492 501.807 199.905 502.223 197.773C502.639 195.615 503.302 193.86 504.212 192.508C505.122 191.13 506.279 190.103 507.683 189.427C509.113 188.751 510.829 188.348 512.831 188.218L518.954 187.867V191.845L512.909 192.196C511.687 192.274 510.66 192.482 509.828 192.82C509.022 193.132 508.359 193.639 507.839 194.341C507.319 195.043 506.916 195.953 506.63 197.071C506.37 198.163 506.188 199.528 506.084 201.166H506.318C506.812 199.866 507.527 198.865 508.463 198.163C509.399 197.461 510.608 197.11 512.09 197.11C513.312 197.11 514.43 197.331 515.444 197.773C516.484 198.215 517.368 198.865 518.096 199.723C518.824 200.555 519.383 201.595 519.773 202.843C520.189 204.091 520.397 205.508 520.397 207.094C520.397 208.654 520.176 210.084 519.734 211.384C519.292 212.658 518.655 213.75 517.823 214.66C517.017 215.544 516.029 216.233 514.859 216.727C513.715 217.221 512.428 217.468 510.998 217.468ZM510.959 214.114C512.441 214.114 513.637 213.646 514.547 212.71C515.483 211.748 515.951 210.409 515.951 208.693V205.963C515.951 204.143 515.509 202.778 514.625 201.868C513.741 200.932 512.519 200.464 510.959 200.464C509.373 200.464 508.151 200.919 507.293 201.829C506.461 202.713 506.045 203.896 506.045 205.378V208.615C506.045 210.409 506.487 211.774 507.371 212.71C508.281 213.646 509.477 214.114 510.959 214.114ZM536.099 217.468C534.617 217.468 533.278 217.221 532.082 216.727C530.912 216.233 529.911 215.531 529.079 214.621C528.273 213.711 527.649 212.606 527.207 211.306C526.765 210.006 526.544 208.55 526.544 206.938C526.544 205.326 526.765 203.87 527.207 202.57C527.649 201.27 528.273 200.165 529.079 199.255C529.911 198.345 530.912 197.643 532.082 197.149C533.278 196.655 534.617 196.408 536.099 196.408C537.581 196.408 538.907 196.655 540.077 197.149C541.273 197.643 542.274 198.345 543.08 199.255C543.912 200.165 544.549 201.27 544.991 202.57C545.433 203.87 545.654 205.326 545.654 206.938C545.654 208.55 545.433 210.006 544.991 211.306C544.549 212.606 543.912 213.711 543.08 214.621C542.274 215.531 541.273 216.233 540.077 216.727C538.907 217.221 537.581 217.468 536.099 217.468ZM536.099 214.114C537.659 214.114 538.894 213.646 539.804 212.71C540.74 211.748 541.208 210.331 541.208 208.459V205.417C541.208 203.545 540.74 202.141 539.804 201.205C538.894 200.243 537.659 199.762 536.099 199.762C534.539 199.762 533.291 200.243 532.355 201.205C531.445 202.141 530.99 203.545 530.99 205.417V208.459C530.99 210.331 531.445 211.748 532.355 212.71C533.291 213.646 534.539 214.114 536.099 214.114ZM550.202 213.568H552.503C553.257 212.372 553.855 210.929 554.297 209.239C554.739 207.523 554.96 205.495 554.96 203.155V196.876H568.688V213.568H571.925V222.46H568.103V217H554.024V222.46H550.202V213.568ZM564.515 213.568V200.308H558.938V203.311C558.938 205.599 558.756 207.575 558.392 209.239C558.054 210.877 557.547 212.32 556.871 213.568H564.515ZM592.268 196.876H596.558L586.808 220.9C586.288 222.2 585.599 223.175 584.741 223.825C583.909 224.475 582.7 224.8 581.114 224.8H577.721V221.368H582.479L584.312 216.727L576.2 196.876H580.646L583.844 205.3L586.34 212.203H586.574L589.07 205.3L592.268 196.876ZM628.195 196.876H632.407V205.534L632.017 210.994H632.212L641.104 196.876H645.121V217H640.909V208.342L641.299 202.882H641.104L632.212 217H628.195V196.876ZM676.174 213.568H678.787C679.125 213.126 679.424 212.619 679.684 212.047C679.97 211.449 680.191 210.734 680.347 209.902C680.529 209.07 680.659 208.108 680.737 207.016C680.841 205.924 680.893 204.65 680.893 203.194V196.876H695.128V217H690.877V200.308H684.871V203.272C684.871 206.678 684.624 209.343 684.13 211.267C683.636 213.191 682.96 214.595 682.102 215.479C681.504 216.103 680.815 216.519 680.035 216.727C679.255 216.909 678.436 217 677.578 217H676.174V213.568ZM703.615 196.876H707.827V205.534L707.437 210.994H707.632L716.524 196.876H720.541V217H716.329V208.342L716.719 202.882H716.524L707.632 217H703.615V196.876ZM744.159 217H728.325V196.876H732.576V213.568H740.493V196.876H744.744V213.568H747.981V222.46H744.159V217ZM762.786 217.468C761.252 217.468 759.874 217.221 758.652 216.727C757.43 216.233 756.403 215.531 755.571 214.621C754.739 213.711 754.102 212.619 753.66 211.345C753.218 210.045 752.997 208.589 752.997 206.977C752.997 205.365 753.218 203.909 753.66 202.609C754.128 201.309 754.765 200.204 755.571 199.294C756.403 198.358 757.404 197.643 758.574 197.149C759.744 196.655 761.044 196.408 762.474 196.408C763.878 196.408 765.152 196.655 766.296 197.149C767.44 197.617 768.415 198.293 769.221 199.177C770.027 200.061 770.638 201.114 771.054 202.336C771.496 203.558 771.717 204.91 771.717 206.392V207.991H757.287V208.654C757.287 210.24 757.781 211.54 758.769 212.554C759.757 213.542 761.122 214.036 762.864 214.036C764.164 214.036 765.269 213.763 766.179 213.217C767.115 212.645 767.869 211.891 768.441 210.955L771.093 213.295C770.417 214.465 769.377 215.453 767.973 216.259C766.595 217.065 764.866 217.468 762.786 217.468ZM762.474 199.645C761.72 199.645 761.018 199.775 760.368 200.035C759.744 200.295 759.198 200.672 758.73 201.166C758.288 201.634 757.937 202.193 757.677 202.843C757.417 203.493 757.287 204.208 757.287 204.988V205.261H767.388V204.871C767.388 203.285 766.933 202.024 766.023 201.088C765.139 200.126 763.956 199.645 762.474 199.645ZM786.951 217.468C784.767 217.468 782.947 217.13 781.491 216.454C780.035 215.778 778.878 214.842 778.02 213.646L780.75 211.228C781.426 212.164 782.245 212.879 783.207 213.373C784.195 213.841 785.43 214.075 786.912 214.075C788.472 214.075 789.629 213.815 790.383 213.295C791.137 212.775 791.514 212.099 791.514 211.267V210.877C791.514 210.045 791.254 209.408 790.734 208.966C790.214 208.524 789.421 208.303 788.355 208.303H783.246V205.183H787.926C789.018 205.183 789.811 204.975 790.305 204.559C790.825 204.117 791.085 203.506 791.085 202.726V202.336C791.085 201.582 790.76 200.971 790.11 200.503C789.46 200.035 788.381 199.801 786.873 199.801C785.469 199.801 784.312 200.035 783.402 200.503C782.492 200.945 781.699 201.595 781.023 202.453L778.41 200.347C779.372 199.099 780.529 198.137 781.881 197.461C783.259 196.759 785.04 196.408 787.224 196.408C789.928 196.408 791.982 196.915 793.386 197.929C794.79 198.917 795.492 200.23 795.492 201.868C795.492 203.064 795.141 204.039 794.439 204.793C793.763 205.547 792.814 206.067 791.592 206.353V206.509C792.918 206.717 793.958 207.237 794.712 208.069C795.492 208.875 795.882 209.941 795.882 211.267C795.882 213.139 795.102 214.647 793.542 215.791C791.982 216.909 789.785 217.468 786.951 217.468ZM804.018 196.876H808.269V200.308H808.503C809.101 199.086 809.894 198.137 810.882 197.461C811.87 196.759 813.105 196.408 814.587 196.408C816.953 196.408 818.838 197.292 820.242 199.06C821.646 200.828 822.348 203.454 822.348 206.938C822.348 210.422 821.646 213.048 820.242 214.816C818.838 216.584 816.953 217.468 814.587 217.468C813.105 217.468 811.87 217.13 810.882 216.454C809.894 215.752 809.101 214.79 808.503 213.568H808.269V224.8H804.018V196.876ZM812.832 213.997C814.444 213.997 815.679 213.503 816.537 212.515C817.421 211.527 817.863 210.214 817.863 208.576V205.3C817.863 203.662 817.421 202.349 816.537 201.361C815.679 200.373 814.444 199.879 812.832 199.879C812.208 199.879 811.623 199.957 811.077 200.113C810.531 200.269 810.05 200.503 809.634 200.815C809.218 201.127 808.88 201.517 808.62 201.985C808.386 202.427 808.269 202.96 808.269 203.584V210.292C808.269 210.916 808.386 211.462 808.62 211.93C808.88 212.372 809.218 212.749 809.634 213.061C810.05 213.373 810.531 213.607 811.077 213.763C811.623 213.919 812.208 213.997 812.832 213.997ZM838.205 217.468C836.671 217.468 835.293 217.221 834.071 216.727C832.849 216.233 831.822 215.531 830.99 214.621C830.158 213.711 829.521 212.619 829.079 211.345C828.637 210.045 828.416 208.589 828.416 206.977C828.416 205.365 828.637 203.909 829.079 202.609C829.547 201.309 830.184 200.204 830.99 199.294C831.822 198.358 832.823 197.643 833.993 197.149C835.163 196.655 836.463 196.408 837.893 196.408C839.297 196.408 840.571 196.655 841.715 197.149C842.859 197.617 843.834 198.293 844.64 199.177C845.446 200.061 846.057 201.114 846.473 202.336C846.915 203.558 847.136 204.91 847.136 206.392V207.991H832.706V208.654C832.706 210.24 833.2 211.54 834.188 212.554C835.176 213.542 836.541 214.036 838.283 214.036C839.583 214.036 840.688 213.763 841.598 213.217C842.534 212.645 843.288 211.891 843.86 210.955L846.512 213.295C845.836 214.465 844.796 215.453 843.392 216.259C842.014 217.065 840.285 217.468 838.205 217.468ZM837.893 199.645C837.139 199.645 836.437 199.775 835.787 200.035C835.163 200.295 834.617 200.672 834.149 201.166C833.707 201.634 833.356 202.193 833.096 202.843C832.836 203.493 832.706 204.208 832.706 204.988V205.261H842.807V204.871C842.807 203.285 842.352 202.024 841.442 201.088C840.558 200.126 839.375 199.645 837.893 199.645ZM860.771 200.308H853.712V196.876H872.12V200.308H865.022V217H860.771V200.308ZM880.256 196.876H884.507V203.506H890.24C892.32 203.506 893.984 204.091 895.232 205.261C896.48 206.431 897.104 208.095 897.104 210.253C897.104 212.411 896.48 214.075 895.232 215.245C893.984 216.415 892.32 217 890.24 217H880.256V196.876ZM889.499 213.685C890.487 213.685 891.267 213.451 891.839 212.983C892.437 212.515 892.736 211.826 892.736 210.916V209.59C892.736 208.68 892.437 207.991 891.839 207.523C891.267 207.055 890.487 206.821 889.499 206.821H884.507V213.685H889.499ZM927.571 213.568H930.184C930.522 213.126 930.821 212.619 931.081 212.047C931.367 211.449 931.588 210.734 931.744 209.902C931.926 209.07 932.056 208.108 932.134 207.016C932.238 205.924 932.29 204.65 932.29 203.194V196.876H946.525V217H942.274V200.308H936.268V203.272C936.268 206.678 936.021 209.343 935.527 211.267C935.033 213.191 934.357 214.595 933.499 215.479C932.901 216.103 932.212 216.519 931.432 216.727C930.652 216.909 929.833 217 928.975 217H927.571V213.568ZM969.364 196.876H973.654L963.904 220.9C963.384 222.2 962.695 223.175 961.837 223.825C961.005 224.475 959.796 224.8 958.21 224.8H954.817V221.368H959.575L961.408 216.727L953.296 196.876H957.742L960.94 205.3L963.436 212.203H963.67L966.166 205.3L969.364 196.876ZM992.32 208.108H992.125C991.449 208.94 990.643 209.577 989.707 210.019C988.797 210.435 987.64 210.643 986.236 210.643C981.842 210.643 979.645 208.42 979.645 203.974V196.876H983.896V203.701C983.896 204.871 984.195 205.729 984.793 206.275C985.417 206.795 986.457 207.055 987.913 207.055C989.239 207.055 990.305 206.86 991.111 206.47C991.917 206.054 992.32 205.456 992.32 204.676V196.876H996.571V217H992.32V208.108ZM1003.77 196.876H1007.4V213.724H1011.92V196.876H1015.55V213.724H1020.07V196.876H1023.7V217H1003.77V196.876ZM1030.43 196.876H1034.64V205.534L1034.25 210.994H1034.45L1043.34 196.876H1047.36V217H1043.15V208.342L1043.54 202.882H1043.34L1034.45 217H1030.43V196.876ZM1055.57 196.876H1059.78V205.534L1059.39 210.994H1059.59L1068.48 196.876H1072.5V217H1068.29V208.342L1068.68 202.882H1068.48L1059.59 217H1055.57V196.876ZM1064.03 194.224C1062.53 194.224 1061.3 193.899 1060.37 193.249C1059.43 192.573 1058.67 191.572 1058.07 190.246L1057.09 188.062L1060.64 186.814L1062.05 190.948C1062.28 191.052 1062.59 191.13 1062.98 191.182C1063.37 191.208 1063.72 191.221 1064.03 191.221C1064.35 191.221 1064.7 191.208 1065.09 191.182C1065.48 191.13 1065.79 191.052 1066.02 190.948L1067.43 186.814L1070.98 188.062L1070 190.246C1069.4 191.572 1068.64 192.573 1067.7 193.249C1066.76 193.899 1065.54 194.224 1064.03 194.224ZM1106.32 196.876H1117.12C1118.86 196.876 1120.22 197.344 1121.18 198.28C1122.14 199.19 1122.62 200.412 1122.62 201.946C1122.62 204.442 1121.26 205.898 1118.53 206.314V206.509C1120.19 206.639 1121.41 207.12 1122.19 207.952C1122.97 208.758 1123.36 209.824 1123.36 211.15C1123.36 211.956 1123.22 212.71 1122.93 213.412C1122.67 214.114 1122.28 214.738 1121.76 215.284C1121.24 215.804 1120.59 216.22 1119.81 216.532C1119.06 216.844 1118.2 217 1117.24 217H1106.32V196.876ZM1116.34 213.802C1117.17 213.802 1117.82 213.607 1118.29 213.217C1118.76 212.801 1118.99 212.216 1118.99 211.462V210.526C1118.99 209.772 1118.76 209.187 1118.29 208.771C1117.85 208.355 1117.25 208.147 1116.5 208.147H1110.57V213.802H1116.34ZM1115.95 205.3C1116.65 205.3 1117.21 205.105 1117.63 204.715C1118.04 204.325 1118.25 203.792 1118.25 203.116V202.258C1118.25 201.582 1118.04 201.049 1117.63 200.659C1117.21 200.269 1116.65 200.074 1115.95 200.074H1110.57V205.3H1115.95ZM1130.99 196.876H1135.2V205.534L1134.81 210.994H1135.01L1143.9 196.876H1147.92V217H1143.7V208.342L1144.09 202.882H1143.9L1135.01 217H1130.99V196.876ZM1153.56 213.568H1155.86C1156.61 212.372 1157.21 210.929 1157.65 209.239C1158.09 207.523 1158.31 205.495 1158.31 203.155V196.876H1172.04V213.568H1175.28V222.46H1171.46V217H1157.38V222.46H1153.56V213.568ZM1167.87 213.568V200.308H1162.29V203.311C1162.29 205.599 1162.11 207.575 1161.75 209.239C1161.41 210.877 1160.9 212.32 1160.23 213.568H1167.87ZM364.267 263.876H368.518V271.988H376.864V263.876H381.115V284H376.864V275.42H368.518V284H364.267V263.876ZM405.318 284C404.096 284 403.173 283.688 402.549 283.064C401.951 282.44 401.587 281.621 401.457 280.607H401.262C400.872 281.829 400.157 282.778 399.117 283.454C398.103 284.13 396.803 284.468 395.217 284.468C393.163 284.468 391.525 283.935 390.303 282.869C389.081 281.777 388.47 280.282 388.47 278.384C388.47 276.434 389.185 274.952 390.615 273.938C392.071 272.898 394.294 272.378 397.284 272.378H401.145V270.818C401.145 268.088 399.702 266.723 396.816 266.723C395.516 266.723 394.463 266.983 393.657 267.503C392.851 267.997 392.175 268.66 391.629 269.492L389.094 267.425C389.666 266.333 390.628 265.397 391.98 264.617C393.332 263.811 395.074 263.408 397.206 263.408C399.754 263.408 401.756 264.019 403.212 265.241C404.668 266.463 405.396 268.231 405.396 270.545V280.646H407.931V284H405.318ZM396.426 281.348C397.804 281.348 398.935 281.036 399.819 280.412C400.703 279.788 401.145 278.982 401.145 277.994V275.069H397.362C394.294 275.069 392.76 275.992 392.76 277.838V278.618C392.76 279.528 393.085 280.217 393.735 280.685C394.385 281.127 395.282 281.348 396.426 281.348ZM439.998 263.876H444.249V271.988H447.876L452.712 263.876H457.275L452.79 271.208C452.348 271.962 451.919 272.495 451.503 272.807C451.087 273.119 450.606 273.34 450.06 273.47V273.665C450.684 273.795 451.204 274.029 451.62 274.367C452.036 274.679 452.465 275.225 452.907 276.005L455.442 280.568H457.626V284H455.13C454.272 284 453.531 283.805 452.907 283.415C452.309 282.999 451.75 282.336 451.23 281.426L447.876 275.42H444.249V284H439.998V263.876ZM473.25 284.468C471.768 284.468 470.429 284.221 469.233 283.727C468.063 283.233 467.062 282.531 466.23 281.621C465.424 280.711 464.8 279.606 464.358 278.306C463.916 277.006 463.695 275.55 463.695 273.938C463.695 272.326 463.916 270.87 464.358 269.57C464.8 268.27 465.424 267.165 466.23 266.255C467.062 265.345 468.063 264.643 469.233 264.149C470.429 263.655 471.768 263.408 473.25 263.408C474.732 263.408 476.058 263.655 477.228 264.149C478.424 264.643 479.425 265.345 480.231 266.255C481.063 267.165 481.7 268.27 482.142 269.57C482.584 270.87 482.805 272.326 482.805 273.938C482.805 275.55 482.584 277.006 482.142 278.306C481.7 279.606 481.063 280.711 480.231 281.621C479.425 282.531 478.424 283.233 477.228 283.727C476.058 284.221 474.732 284.468 473.25 284.468ZM473.25 281.114C474.81 281.114 476.045 280.646 476.955 279.71C477.891 278.748 478.359 277.331 478.359 275.459V272.417C478.359 270.545 477.891 269.141 476.955 268.205C476.045 267.243 474.81 266.762 473.25 266.762C471.69 266.762 470.442 267.243 469.506 268.205C468.596 269.141 468.141 270.545 468.141 272.417V275.459C468.141 277.331 468.596 278.748 469.506 279.71C470.442 280.646 471.69 281.114 473.25 281.114ZM499.13 284.468C497.622 284.468 496.27 284.221 495.074 283.727C493.904 283.233 492.903 282.531 492.071 281.621C491.265 280.711 490.641 279.606 490.199 278.306C489.783 277.006 489.575 275.55 489.575 273.938C489.575 272.326 489.783 270.87 490.199 269.57C490.641 268.27 491.265 267.165 492.071 266.255C492.903 265.345 493.904 264.643 495.074 264.149C496.27 263.655 497.609 263.408 499.091 263.408C501.171 263.408 502.835 263.85 504.083 264.734C505.357 265.618 506.306 266.762 506.93 268.166L503.615 269.96C503.251 269.024 502.692 268.283 501.938 267.737C501.21 267.191 500.261 266.918 499.091 266.918C497.479 266.918 496.231 267.412 495.347 268.4C494.463 269.362 494.021 270.649 494.021 272.261V275.615C494.021 277.201 494.463 278.488 495.347 279.476C496.231 280.464 497.505 280.958 499.169 280.958C500.417 280.958 501.431 280.672 502.211 280.1C503.017 279.528 503.654 278.748 504.122 277.76L507.242 279.671C506.592 281.075 505.604 282.232 504.278 283.142C502.952 284.026 501.236 284.468 499.13 284.468ZM514.286 263.876H519.239L523.607 273.353H523.88L528.248 263.876H532.772V284H529.067V272.651L529.223 269.102H528.95L523.529 280.841L518.108 269.102H517.835L517.991 272.651V284H514.286V263.876ZM548.669 284.468C547.187 284.468 545.848 284.221 544.652 283.727C543.482 283.233 542.481 282.531 541.649 281.621C540.843 280.711 540.219 279.606 539.777 278.306C539.335 277.006 539.114 275.55 539.114 273.938C539.114 272.326 539.335 270.87 539.777 269.57C540.219 268.27 540.843 267.165 541.649 266.255C542.481 265.345 543.482 264.643 544.652 264.149C545.848 263.655 547.187 263.408 548.669 263.408C550.151 263.408 551.477 263.655 552.647 264.149C553.843 264.643 554.844 265.345 555.65 266.255C556.482 267.165 557.119 268.27 557.561 269.57C558.003 270.87 558.224 272.326 558.224 273.938C558.224 275.55 558.003 277.006 557.561 278.306C557.119 279.606 556.482 280.711 555.65 281.621C554.844 282.531 553.843 283.233 552.647 283.727C551.477 284.221 550.151 284.468 548.669 284.468ZM548.669 281.114C550.229 281.114 551.464 280.646 552.374 279.71C553.31 278.748 553.778 277.331 553.778 275.459V272.417C553.778 270.545 553.31 269.141 552.374 268.205C551.464 267.243 550.229 266.762 548.669 266.762C547.109 266.762 545.861 267.243 544.925 268.205C544.015 269.141 543.56 270.545 543.56 272.417V275.459C543.56 277.331 544.015 278.748 544.925 279.71C545.861 280.646 547.109 281.114 548.669 281.114ZM574.55 284.468C573.042 284.468 571.69 284.221 570.494 283.727C569.324 283.233 568.323 282.531 567.491 281.621C566.685 280.711 566.061 279.606 565.619 278.306C565.203 277.006 564.995 275.55 564.995 273.938C564.995 272.326 565.203 270.87 565.619 269.57C566.061 268.27 566.685 267.165 567.491 266.255C568.323 265.345 569.324 264.643 570.494 264.149C571.69 263.655 573.029 263.408 574.511 263.408C576.591 263.408 578.255 263.85 579.503 264.734C580.777 265.618 581.726 266.762 582.35 268.166L579.035 269.96C578.671 269.024 578.112 268.283 577.358 267.737C576.63 267.191 575.681 266.918 574.511 266.918C572.899 266.918 571.651 267.412 570.767 268.4C569.883 269.362 569.441 270.649 569.441 272.261V275.615C569.441 277.201 569.883 278.488 570.767 279.476C571.651 280.464 572.925 280.958 574.589 280.958C575.837 280.958 576.851 280.672 577.631 280.1C578.437 279.528 579.074 278.748 579.542 277.76L582.662 279.671C582.012 281.075 581.024 282.232 579.698 283.142C578.372 284.026 576.656 284.468 574.55 284.468ZM624.829 284.468C623.321 284.468 621.969 284.221 620.773 283.727C619.603 283.233 618.602 282.531 617.77 281.621C616.964 280.711 616.34 279.606 615.898 278.306C615.482 277.006 615.274 275.55 615.274 273.938C615.274 272.326 615.482 270.87 615.898 269.57C616.34 268.27 616.964 267.165 617.77 266.255C618.602 265.345 619.603 264.643 620.773 264.149C621.969 263.655 623.308 263.408 624.79 263.408C626.87 263.408 628.534 263.85 629.782 264.734C631.056 265.618 632.005 266.762 632.629 268.166L629.314 269.96C628.95 269.024 628.391 268.283 627.637 267.737C626.909 267.191 625.96 266.918 624.79 266.918C623.178 266.918 621.93 267.412 621.046 268.4C620.162 269.362 619.72 270.649 619.72 272.261V275.615C619.72 277.201 620.162 278.488 621.046 279.476C621.93 280.464 623.204 280.958 624.868 280.958C626.116 280.958 627.13 280.672 627.91 280.1C628.716 279.528 629.353 278.748 629.821 277.76L632.941 279.671C632.291 281.075 631.303 282.232 629.977 283.142C628.651 284.026 626.935 284.468 624.829 284.468ZM663.604 280.568H666.217C666.555 280.126 666.854 279.619 667.114 279.047C667.4 278.449 667.621 277.734 667.777 276.902C667.959 276.07 668.089 275.108 668.167 274.016C668.271 272.924 668.323 271.65 668.323 270.194V263.876H682.558V284H678.307V267.308H672.301V270.272C672.301 273.678 672.054 276.343 671.56 278.267C671.066 280.191 670.39 281.595 669.532 282.479C668.934 283.103 668.245 283.519 667.465 283.727C666.685 283.909 665.866 284 665.008 284H663.604V280.568ZM703.057 284.468C702.017 284.468 701.094 284.312 700.288 284C699.508 283.714 698.832 283.22 698.26 282.518C697.714 281.79 697.285 280.841 696.973 279.671C696.687 278.501 696.505 277.032 696.427 275.264H693.229V284H689.524V263.876H693.229V272.144H696.466C696.544 270.48 696.739 269.089 697.051 267.971C697.389 266.853 697.831 265.956 698.377 265.28C698.923 264.604 699.586 264.123 700.366 263.837C701.146 263.551 702.043 263.408 703.057 263.408C704.149 263.408 705.111 263.577 705.943 263.915C706.775 264.253 707.464 264.825 708.01 265.631C708.582 266.437 708.998 267.516 709.258 268.868C709.544 270.22 709.687 271.91 709.687 273.938C709.687 275.966 709.544 277.656 709.258 279.008C708.972 280.36 708.556 281.439 708.01 282.245C707.464 283.051 706.775 283.623 705.943 283.961C705.111 284.299 704.149 284.468 703.057 284.468ZM703.057 281.231C703.525 281.231 703.928 281.153 704.266 280.997C704.63 280.841 704.916 280.568 705.124 280.178C705.358 279.788 705.527 279.255 705.631 278.579C705.761 277.877 705.826 276.98 705.826 275.888V271.988C705.826 270.896 705.761 270.012 705.631 269.336C705.527 268.634 705.358 268.088 705.124 267.698C704.916 267.308 704.63 267.035 704.266 266.879C703.928 266.723 703.525 266.645 703.057 266.645C702.589 266.645 702.173 266.723 701.809 266.879C701.471 267.035 701.185 267.308 700.951 267.698C700.743 268.088 700.574 268.634 700.444 269.336C700.34 270.012 700.288 270.896 700.288 271.988V275.888C700.288 276.98 700.34 277.877 700.444 278.579C700.574 279.255 700.743 279.788 700.951 280.178C701.185 280.568 701.471 280.841 701.809 280.997C702.173 281.153 702.589 281.231 703.057 281.231ZM724.686 284.468C723.256 284.468 721.956 284.221 720.786 283.727C719.642 283.233 718.654 282.492 717.822 281.504C717.016 280.516 716.392 279.281 715.95 277.799C715.508 276.291 715.287 274.536 715.287 272.534C715.287 269.492 715.495 266.905 715.911 264.773C716.327 262.615 716.99 260.86 717.9 259.508C718.81 258.13 719.967 257.103 721.371 256.427C722.801 255.751 724.517 255.348 726.519 255.218L732.642 254.867V258.845L726.597 259.196C725.375 259.274 724.348 259.482 723.516 259.82C722.71 260.132 722.047 260.639 721.527 261.341C721.007 262.043 720.604 262.953 720.318 264.071C720.058 265.163 719.876 266.528 719.772 268.166H720.006C720.5 266.866 721.215 265.865 722.151 265.163C723.087 264.461 724.296 264.11 725.778 264.11C727 264.11 728.118 264.331 729.132 264.773C730.172 265.215 731.056 265.865 731.784 266.723C732.512 267.555 733.071 268.595 733.461 269.843C733.877 271.091 734.085 272.508 734.085 274.094C734.085 275.654 733.864 277.084 733.422 278.384C732.98 279.658 732.343 280.75 731.511 281.66C730.705 282.544 729.717 283.233 728.547 283.727C727.403 284.221 726.116 284.468 724.686 284.468ZM724.647 281.114C726.129 281.114 727.325 280.646 728.235 279.71C729.171 278.748 729.639 277.409 729.639 275.693V272.963C729.639 271.143 729.197 269.778 728.313 268.868C727.429 267.932 726.207 267.464 724.647 267.464C723.061 267.464 721.839 267.919 720.981 268.829C720.149 269.713 719.733 270.896 719.733 272.378V275.615C719.733 277.409 720.175 278.774 721.059 279.71C721.969 280.646 723.165 281.114 724.647 281.114ZM739.803 263.876H743.664V270.506H746.511C748.565 270.506 750.216 271.091 751.464 272.261C752.738 273.431 753.375 275.095 753.375 277.253C753.375 279.411 752.738 281.075 751.464 282.245C750.216 283.415 748.565 284 746.511 284H739.803V263.876ZM746.238 280.802C747.226 280.802 747.993 280.581 748.539 280.139C749.111 279.671 749.397 278.943 749.397 277.955V276.551C749.397 275.563 749.111 274.848 748.539 274.406C747.993 273.938 747.226 273.704 746.238 273.704H743.664V280.802H746.238ZM755.91 263.876H759.771V284H755.91V263.876ZM764.982 284L772.47 273.782L765.294 263.876H770.247L772.899 267.698L775.005 270.74H775.239L777.306 267.698L779.958 263.876H784.56L777.345 273.626L784.911 284H779.919L776.916 279.671L774.849 276.707H774.615L772.587 279.671L769.623 284H764.982ZM816.587 263.876H820.838V267.308H821.072C821.67 266.086 822.463 265.137 823.451 264.461C824.439 263.759 825.674 263.408 827.156 263.408C829.522 263.408 831.407 264.292 832.811 266.06C834.215 267.828 834.917 270.454 834.917 273.938C834.917 277.422 834.215 280.048 832.811 281.816C831.407 283.584 829.522 284.468 827.156 284.468C825.674 284.468 824.439 284.13 823.451 283.454C822.463 282.752 821.67 281.79 821.072 280.568H820.838V291.8H816.587V263.876ZM825.401 280.997C827.013 280.997 828.248 280.503 829.106 279.515C829.99 278.527 830.432 277.214 830.432 275.576V272.3C830.432 270.662 829.99 269.349 829.106 268.361C828.248 267.373 827.013 266.879 825.401 266.879C824.777 266.879 824.192 266.957 823.646 267.113C823.1 267.269 822.619 267.503 822.203 267.815C821.787 268.127 821.449 268.517 821.189 268.985C820.955 269.427 820.838 269.96 820.838 270.584V277.292C820.838 277.916 820.955 278.462 821.189 278.93C821.449 279.372 821.787 279.749 822.203 280.061C822.619 280.373 823.1 280.607 823.646 280.763C824.192 280.919 824.777 280.997 825.401 280.997ZM857.834 284C856.612 284 855.689 283.688 855.065 283.064C854.467 282.44 854.103 281.621 853.973 280.607H853.778C853.388 281.829 852.673 282.778 851.633 283.454C850.619 284.13 849.319 284.468 847.733 284.468C845.679 284.468 844.041 283.935 842.819 282.869C841.597 281.777 840.986 280.282 840.986 278.384C840.986 276.434 841.701 274.952 843.131 273.938C844.587 272.898 846.81 272.378 849.8 272.378H853.661V270.818C853.661 268.088 852.218 266.723 849.332 266.723C848.032 266.723 846.979 266.983 846.173 267.503C845.367 267.997 844.691 268.66 844.145 269.492L841.61 267.425C842.182 266.333 843.144 265.397 844.496 264.617C845.848 263.811 847.59 263.408 849.722 263.408C852.27 263.408 854.272 264.019 855.728 265.241C857.184 266.463 857.912 268.231 857.912 270.545V280.646H860.447V284H857.834ZM848.942 281.348C850.32 281.348 851.451 281.036 852.335 280.412C853.219 279.788 853.661 278.982 853.661 277.994V275.069H849.878C846.81 275.069 845.276 275.992 845.276 277.838V278.618C845.276 279.528 845.601 280.217 846.251 280.685C846.901 281.127 847.798 281.348 848.942 281.348ZM867.374 263.876H871.625V271.988H875.252L880.088 263.876H884.651L880.166 271.208C879.724 271.962 879.295 272.495 878.879 272.807C878.463 273.119 877.982 273.34 877.436 273.47V273.665C878.06 273.795 878.58 274.029 878.996 274.367C879.412 274.679 879.841 275.225 880.283 276.005L882.818 280.568H885.002V284H882.506C881.648 284 880.907 283.805 880.283 283.415C879.685 282.999 879.126 282.336 878.606 281.426L875.252 275.42H871.625V284H867.374V263.876ZM906.515 263.876H910.805L901.055 287.9C900.535 289.2 899.846 290.175 898.988 290.825C898.156 291.475 896.947 291.8 895.361 291.8H891.968V288.368H896.726L898.559 283.727L890.447 263.876H894.893L898.091 272.3L900.587 279.203H900.821L903.317 272.3L906.515 263.876ZM917.146 263.876H921.397V267.308H921.631C922.229 266.086 923.022 265.137 924.01 264.461C924.998 263.759 926.233 263.408 927.715 263.408C930.081 263.408 931.966 264.292 933.37 266.06C934.774 267.828 935.476 270.454 935.476 273.938C935.476 277.422 934.774 280.048 933.37 281.816C931.966 283.584 930.081 284.468 927.715 284.468C926.233 284.468 924.998 284.13 924.01 283.454C923.022 282.752 922.229 281.79 921.631 280.568H921.397V291.8H917.146V263.876ZM925.96 280.997C927.572 280.997 928.807 280.503 929.665 279.515C930.549 278.527 930.991 277.214 930.991 275.576V272.3C930.991 270.662 930.549 269.349 929.665 268.361C928.807 267.373 927.572 266.879 925.96 266.879C925.336 266.879 924.751 266.957 924.205 267.113C923.659 267.269 923.178 267.503 922.762 267.815C922.346 268.127 922.008 268.517 921.748 268.985C921.514 269.427 921.397 269.96 921.397 270.584V277.292C921.397 277.916 921.514 278.462 921.748 278.93C922.008 279.372 922.346 279.749 922.762 280.061C923.178 280.373 923.659 280.607 924.205 280.763C924.751 280.919 925.336 280.997 925.96 280.997ZM951.646 284.468C950.138 284.468 948.786 284.221 947.59 283.727C946.42 283.233 945.419 282.531 944.587 281.621C943.781 280.711 943.157 279.606 942.715 278.306C942.299 277.006 942.091 275.55 942.091 273.938C942.091 272.326 942.299 270.87 942.715 269.57C943.157 268.27 943.781 267.165 944.587 266.255C945.419 265.345 946.42 264.643 947.59 264.149C948.786 263.655 950.125 263.408 951.607 263.408C953.687 263.408 955.351 263.85 956.599 264.734C957.873 265.618 958.822 266.762 959.446 268.166L956.131 269.96C955.767 269.024 955.208 268.283 954.454 267.737C953.726 267.191 952.777 266.918 951.607 266.918C949.995 266.918 948.747 267.412 947.863 268.4C946.979 269.362 946.537 270.649 946.537 272.261V275.615C946.537 277.201 946.979 278.488 947.863 279.476C948.747 280.464 950.021 280.958 951.685 280.958C952.933 280.958 953.947 280.672 954.727 280.1C955.533 279.528 956.17 278.748 956.638 277.76L959.758 279.671C959.108 281.075 958.12 282.232 956.794 283.142C955.468 284.026 953.752 284.468 951.646 284.468ZM976.045 284.468C974.563 284.468 973.224 284.221 972.028 283.727C970.858 283.233 969.857 282.531 969.025 281.621C968.219 280.711 967.595 279.606 967.153 278.306C966.711 277.006 966.49 275.55 966.49 273.938C966.49 272.326 966.711 270.87 967.153 269.57C967.595 268.27 968.219 267.165 969.025 266.255C969.857 265.345 970.858 264.643 972.028 264.149C973.224 263.655 974.563 263.408 976.045 263.408C977.527 263.408 978.853 263.655 980.023 264.149C981.219 264.643 982.22 265.345 983.026 266.255C983.858 267.165 984.495 268.27 984.937 269.57C985.379 270.87 985.6 272.326 985.6 273.938C985.6 275.55 985.379 277.006 984.937 278.306C984.495 279.606 983.858 280.711 983.026 281.621C982.22 282.531 981.219 283.233 980.023 283.727C978.853 284.221 977.527 284.468 976.045 284.468ZM976.045 281.114C977.605 281.114 978.84 280.646 979.75 279.71C980.686 278.748 981.154 277.331 981.154 275.459V272.417C981.154 270.545 980.686 269.141 979.75 268.205C978.84 267.243 977.605 266.762 976.045 266.762C974.485 266.762 973.237 267.243 972.301 268.205C971.391 269.141 970.936 270.545 970.936 272.417V275.459C970.936 277.331 971.391 278.748 972.301 279.71C973.237 280.646 974.485 281.114 976.045 281.114ZM993.19 263.876H1003.99C1005.73 263.876 1007.09 264.344 1008.05 265.28C1009.01 266.19 1009.49 267.412 1009.49 268.946C1009.49 271.442 1008.13 272.898 1005.4 273.314V273.509C1007.06 273.639 1008.28 274.12 1009.06 274.952C1009.84 275.758 1010.23 276.824 1010.23 278.15C1010.23 278.956 1010.09 279.71 1009.8 280.412C1009.54 281.114 1009.15 281.738 1008.63 282.284C1008.11 282.804 1007.46 283.22 1006.68 283.532C1005.93 283.844 1005.07 284 1004.11 284H993.19V263.876ZM1003.21 280.802C1004.04 280.802 1004.69 280.607 1005.16 280.217C1005.63 279.801 1005.86 279.216 1005.86 278.462V277.526C1005.86 276.772 1005.63 276.187 1005.16 275.771C1004.72 275.355 1004.12 275.147 1003.37 275.147H997.441V280.802H1003.21ZM1002.82 272.3C1003.52 272.3 1004.08 272.105 1004.5 271.715C1004.92 271.325 1005.12 270.792 1005.12 270.116V269.258C1005.12 268.582 1004.92 268.049 1004.5 267.659C1004.08 267.269 1003.52 267.074 1002.82 267.074H997.441V272.3H1002.82ZM1026.32 284.39C1025.08 284.39 1024.19 284.13 1023.67 283.61C1023.18 283.09 1022.93 282.453 1022.93 281.699V280.685C1022.93 279.931 1023.18 279.294 1023.67 278.774C1024.19 278.254 1025.08 277.994 1026.32 277.994C1027.57 277.994 1028.44 278.254 1028.94 278.774C1029.46 279.294 1029.72 279.931 1029.72 280.685V281.699C1029.72 282.453 1029.46 283.09 1028.94 283.61C1028.44 284.13 1027.57 284.39 1026.32 284.39Z" fill="white"/>
</svg>
