<svg width="1469" height="263" viewBox="0 0 1469 263" fill="none" xmlns="http://www.w3.org/2000/svg">
<path d="M1265.52 1.5H204.482C185.714 1.5 170.5 16.7144 170.5 35.4822C170.5 52.5933 156.629 66.4645 139.518 66.4645H66.3462C30.5326 66.4645 1.5 95.4971 1.5 131.311V135.141C1.5 168.839 28.8176 196.157 62.5155 196.157H89.3831C106.586 196.157 120.531 210.102 120.531 227.305C120.531 246.164 135.82 261.453 154.679 261.453H274.607H1193.31H1307.83C1326.69 261.453 1341.98 246.164 1341.98 227.305C1341.98 210.102 1355.92 196.157 1373.12 196.157H1403.24C1438.74 196.157 1467.5 167.086 1467.5 131.604C1467.5 95.7997 1438.48 66.4645 1402.65 66.4645H1330.48C1313.37 66.4645 1299.5 52.5933 1299.5 35.4822C1299.5 16.7144 1284.29 1.5 1265.52 1.5Z" fill="#242424" fill-opacity="0.7" stroke="white" stroke-width="3"/>
<path d="M282.248 48.778H299.876V76H295.508V52.444H286.616V76H282.248V48.778ZM316.63 76.468C315.096 76.468 313.718 76.221 312.496 75.727C311.274 75.233 310.247 74.531 309.415 73.621C308.583 72.711 307.946 71.619 307.504 70.345C307.062 69.045 306.841 67.589 306.841 65.977C306.841 64.365 307.062 62.909 307.504 61.609C307.972 60.309 308.609 59.204 309.415 58.294C310.247 57.358 311.248 56.643 312.418 56.149C313.588 55.655 314.888 55.408 316.318 55.408C317.722 55.408 318.996 55.655 320.14 56.149C321.284 56.617 322.259 57.293 323.065 58.177C323.871 59.061 324.482 60.114 324.898 61.336C325.34 62.558 325.561 63.91 325.561 65.392V66.991H311.131V67.654C311.131 69.24 311.625 70.54 312.613 71.554C313.601 72.542 314.966 73.036 316.708 73.036C318.008 73.036 319.113 72.763 320.023 72.217C320.959 71.645 321.713 70.891 322.285 69.955L324.937 72.295C324.261 73.465 323.221 74.453 321.817 75.259C320.439 76.065 318.71 76.468 316.63 76.468ZM316.318 58.645C315.564 58.645 314.862 58.775 314.212 59.035C313.588 59.295 313.042 59.672 312.574 60.166C312.132 60.634 311.781 61.193 311.521 61.843C311.261 62.493 311.131 63.208 311.131 63.988V64.261H321.232V63.871C321.232 62.285 320.777 61.024 319.867 60.088C318.983 59.126 317.8 58.645 316.318 58.645ZM332.722 55.876H336.973V59.308H337.207C337.805 58.086 338.598 57.137 339.586 56.461C340.574 55.759 341.809 55.408 343.291 55.408C345.657 55.408 347.542 56.292 348.946 58.06C350.35 59.828 351.052 62.454 351.052 65.938C351.052 69.422 350.35 72.048 348.946 73.816C347.542 75.584 345.657 76.468 343.291 76.468C341.809 76.468 340.574 76.13 339.586 75.454C338.598 74.752 337.805 73.79 337.207 72.568H336.973V83.8H332.722V55.876ZM341.536 72.997C343.148 72.997 344.383 72.503 345.241 71.515C346.125 70.527 346.567 69.214 346.567 67.576V64.3C346.567 62.662 346.125 61.349 345.241 60.361C344.383 59.373 343.148 58.879 341.536 58.879C340.912 58.879 340.327 58.957 339.781 59.113C339.235 59.269 338.754 59.503 338.338 59.815C337.922 60.127 337.584 60.517 337.324 60.985C337.09 61.427 336.973 61.96 336.973 62.584V69.292C336.973 69.916 337.09 70.462 337.324 70.93C337.584 71.372 337.922 71.749 338.338 72.061C338.754 72.373 339.235 72.607 339.781 72.763C340.327 72.919 340.912 72.997 341.536 72.997ZM366.91 76.468C365.376 76.468 363.998 76.221 362.776 75.727C361.554 75.233 360.527 74.531 359.695 73.621C358.863 72.711 358.226 71.619 357.784 70.345C357.342 69.045 357.121 67.589 357.121 65.977C357.121 64.365 357.342 62.909 357.784 61.609C358.252 60.309 358.889 59.204 359.695 58.294C360.527 57.358 361.528 56.643 362.698 56.149C363.868 55.655 365.168 55.408 366.598 55.408C368.002 55.408 369.276 55.655 370.42 56.149C371.564 56.617 372.539 57.293 373.345 58.177C374.151 59.061 374.762 60.114 375.178 61.336C375.62 62.558 375.841 63.91 375.841 65.392V66.991H361.411V67.654C361.411 69.24 361.905 70.54 362.893 71.554C363.881 72.542 365.246 73.036 366.988 73.036C368.288 73.036 369.393 72.763 370.303 72.217C371.239 71.645 371.993 70.891 372.565 69.955L375.217 72.295C374.541 73.465 373.501 74.453 372.097 75.259C370.719 76.065 368.99 76.468 366.91 76.468ZM366.598 58.645C365.844 58.645 365.142 58.775 364.492 59.035C363.868 59.295 363.322 59.672 362.854 60.166C362.412 60.634 362.061 61.193 361.801 61.843C361.541 62.493 361.411 63.208 361.411 63.988V64.261H371.512V63.871C371.512 62.285 371.057 61.024 370.147 60.088C369.263 59.126 368.08 58.645 366.598 58.645ZM382.378 55.876H387.331L391.699 65.353H391.972L396.34 55.876H400.864V76H397.159V64.651L397.315 61.102H397.042L391.621 72.841L386.2 61.102H385.927L386.083 64.651V76H382.378V55.876ZM417.19 76.468C415.656 76.468 414.278 76.221 413.056 75.727C411.834 75.233 410.807 74.531 409.975 73.621C409.143 72.711 408.506 71.619 408.064 70.345C407.622 69.045 407.401 67.589 407.401 65.977C407.401 64.365 407.622 62.909 408.064 61.609C408.532 60.309 409.169 59.204 409.975 58.294C410.807 57.358 411.808 56.643 412.978 56.149C414.148 55.655 415.448 55.408 416.878 55.408C418.282 55.408 419.556 55.655 420.7 56.149C421.844 56.617 422.819 57.293 423.625 58.177C424.431 59.061 425.042 60.114 425.458 61.336C425.9 62.558 426.121 63.91 426.121 65.392V66.991H411.691V67.654C411.691 69.24 412.185 70.54 413.173 71.554C414.161 72.542 415.526 73.036 417.268 73.036C418.568 73.036 419.673 72.763 420.583 72.217C421.519 71.645 422.273 70.891 422.845 69.955L425.497 72.295C424.821 73.465 423.781 74.453 422.377 75.259C420.999 76.065 419.27 76.468 417.19 76.468ZM416.878 58.645C416.124 58.645 415.422 58.775 414.772 59.035C414.148 59.295 413.602 59.672 413.134 60.166C412.692 60.634 412.341 61.193 412.081 61.843C411.821 62.493 411.691 63.208 411.691 63.988V64.261H421.792V63.871C421.792 62.285 421.337 61.024 420.427 60.088C419.543 59.126 418.36 58.645 416.878 58.645ZM442.641 76.468C441.133 76.468 439.781 76.221 438.585 75.727C437.415 75.233 436.414 74.531 435.582 73.621C434.776 72.711 434.152 71.606 433.71 70.306C433.294 69.006 433.086 67.55 433.086 65.938C433.086 64.326 433.294 62.87 433.71 61.57C434.152 60.27 434.776 59.165 435.582 58.255C436.414 57.345 437.415 56.643 438.585 56.149C439.781 55.655 441.12 55.408 442.602 55.408C444.682 55.408 446.346 55.85 447.594 56.734C448.868 57.618 449.817 58.762 450.441 60.166L447.126 61.96C446.762 61.024 446.203 60.283 445.449 59.737C444.721 59.191 443.772 58.918 442.602 58.918C440.99 58.918 439.742 59.412 438.858 60.4C437.974 61.362 437.532 62.649 437.532 64.261V67.615C437.532 69.201 437.974 70.488 438.858 71.476C439.742 72.464 441.016 72.958 442.68 72.958C443.928 72.958 444.942 72.672 445.722 72.1C446.528 71.528 447.165 70.748 447.633 69.76L450.753 71.671C450.103 73.075 449.115 74.232 447.789 75.142C446.463 76.026 444.747 76.468 442.641 76.468ZM464.895 59.308H457.836V55.876H476.244V59.308H469.146V76H464.895V59.308ZM483.717 55.876H487.929V64.534L487.539 69.994H487.734L496.626 55.876H500.643V76H496.431V67.342L496.821 61.882H496.626L487.734 76H483.717V55.876ZM509.325 55.876H520.128C521.87 55.876 523.222 56.344 524.184 57.28C525.146 58.19 525.627 59.412 525.627 60.946C525.627 63.442 524.262 64.898 521.532 65.314V65.509C523.196 65.639 524.418 66.12 525.198 66.952C525.978 67.758 526.368 68.824 526.368 70.15C526.368 70.956 526.225 71.71 525.939 72.412C525.679 73.114 525.289 73.738 524.769 74.284C524.249 74.804 523.599 75.22 522.819 75.532C522.065 75.844 521.207 76 520.245 76H509.325V55.876ZM519.348 72.802C520.18 72.802 520.83 72.607 521.298 72.217C521.766 71.801 522 71.216 522 70.462V69.526C522 68.772 521.766 68.187 521.298 67.771C520.856 67.355 520.258 67.147 519.504 67.147H513.576V72.802H519.348ZM518.958 64.3C519.66 64.3 520.219 64.105 520.635 63.715C521.051 63.325 521.259 62.792 521.259 62.116V61.258C521.259 60.582 521.051 60.049 520.635 59.659C520.219 59.269 519.66 59.074 518.958 59.074H513.576V64.3H518.958ZM532.475 55.876H536.102V72.724H540.626V55.876H544.253V72.724H548.777V55.876H552.404V76H532.475V55.876ZM559.136 55.876H563.348V64.534L562.958 69.994H563.153L572.045 55.876H576.062V76H571.85V67.342L572.24 61.882H572.045L563.153 76H559.136V55.876ZM593.48 76.468C591.972 76.468 590.62 76.221 589.424 75.727C588.254 75.233 587.253 74.531 586.421 73.621C585.615 72.711 584.991 71.606 584.549 70.306C584.133 69.006 583.925 67.55 583.925 65.938C583.925 64.326 584.133 62.87 584.549 61.57C584.991 60.27 585.615 59.165 586.421 58.255C587.253 57.345 588.254 56.643 589.424 56.149C590.62 55.655 591.959 55.408 593.441 55.408C595.521 55.408 597.185 55.85 598.433 56.734C599.707 57.618 600.656 58.762 601.28 60.166L597.965 61.96C597.601 61.024 597.042 60.283 596.288 59.737C595.56 59.191 594.611 58.918 593.441 58.918C591.829 58.918 590.581 59.412 589.697 60.4C588.813 61.362 588.371 62.649 588.371 64.261V67.615C588.371 69.201 588.813 70.488 589.697 71.476C590.581 72.464 591.855 72.958 593.519 72.958C594.767 72.958 595.781 72.672 596.561 72.1C597.367 71.528 598.004 70.748 598.472 69.76L601.592 71.671C600.942 73.075 599.954 74.232 598.628 75.142C597.302 76.026 595.586 76.468 593.48 76.468ZM610.079 55.876H614.33V62.506H620.063C622.143 62.506 623.807 63.091 625.055 64.261C626.303 65.431 626.927 67.095 626.927 69.253C626.927 71.411 626.303 73.075 625.055 74.245C623.807 75.415 622.143 76 620.063 76H610.079V55.876ZM619.322 72.685C620.31 72.685 621.09 72.451 621.662 71.983C622.26 71.515 622.559 70.826 622.559 69.916V68.59C622.559 67.68 622.26 66.991 621.662 66.523C621.09 66.055 620.31 65.821 619.322 65.821H614.33V72.685H619.322ZM667.612 76.468C665.428 76.468 663.608 76.13 662.152 75.454C660.696 74.778 659.539 73.842 658.681 72.646L661.411 70.228C662.087 71.164 662.906 71.879 663.868 72.373C664.856 72.841 666.091 73.075 667.573 73.075C669.133 73.075 670.29 72.815 671.044 72.295C671.798 71.775 672.175 71.099 672.175 70.267V69.877C672.175 69.045 671.915 68.408 671.395 67.966C670.875 67.524 670.082 67.303 669.016 67.303H663.907V64.183H668.587C669.679 64.183 670.472 63.975 670.966 63.559C671.486 63.117 671.746 62.506 671.746 61.726V61.336C671.746 60.582 671.421 59.971 670.771 59.503C670.121 59.035 669.042 58.801 667.534 58.801C666.13 58.801 664.973 59.035 664.063 59.503C663.153 59.945 662.36 60.595 661.684 61.453L659.071 59.347C660.033 58.099 661.19 57.137 662.542 56.461C663.92 55.759 665.701 55.408 667.885 55.408C670.589 55.408 672.643 55.915 674.047 56.929C675.451 57.917 676.153 59.23 676.153 60.868C676.153 62.064 675.802 63.039 675.1 63.793C674.424 64.547 673.475 65.067 672.253 65.353V65.509C673.579 65.717 674.619 66.237 675.373 67.069C676.153 67.875 676.543 68.941 676.543 70.267C676.543 72.139 675.763 73.647 674.203 74.791C672.643 75.909 670.446 76.468 667.612 76.468ZM700.786 76C699.564 76 698.641 75.688 698.017 75.064C697.419 74.44 697.055 73.621 696.925 72.607H696.73C696.34 73.829 695.625 74.778 694.585 75.454C693.571 76.13 692.271 76.468 690.685 76.468C688.631 76.468 686.993 75.935 685.771 74.869C684.549 73.777 683.938 72.282 683.938 70.384C683.938 68.434 684.653 66.952 686.083 65.938C687.539 64.898 689.762 64.378 692.752 64.378H696.613V62.818C696.613 60.088 695.17 58.723 692.284 58.723C690.984 58.723 689.931 58.983 689.125 59.503C688.319 59.997 687.643 60.66 687.097 61.492L684.562 59.425C685.134 58.333 686.096 57.397 687.448 56.617C688.8 55.811 690.542 55.408 692.674 55.408C695.222 55.408 697.224 56.019 698.68 57.241C700.136 58.463 700.864 60.231 700.864 62.545V72.646H703.399V76H700.786ZM691.894 73.348C693.272 73.348 694.403 73.036 695.287 72.412C696.171 71.788 696.613 70.982 696.613 69.994V67.069H692.83C689.762 67.069 688.228 67.992 688.228 69.838V70.618C688.228 71.528 688.553 72.217 689.203 72.685C689.853 73.127 690.75 73.348 691.894 73.348ZM735.583 55.876H746.386C748.128 55.876 749.48 56.344 750.442 57.28C751.404 58.19 751.885 59.412 751.885 60.946C751.885 63.442 750.52 64.898 747.79 65.314V65.509C749.454 65.639 750.676 66.12 751.456 66.952C752.236 67.758 752.626 68.824 752.626 70.15C752.626 70.956 752.483 71.71 752.197 72.412C751.937 73.114 751.547 73.738 751.027 74.284C750.507 74.804 749.857 75.22 749.077 75.532C748.323 75.844 747.465 76 746.503 76H735.583V55.876ZM745.606 72.802C746.438 72.802 747.088 72.607 747.556 72.217C748.024 71.801 748.258 71.216 748.258 70.462V69.526C748.258 68.772 748.024 68.187 747.556 67.771C747.114 67.355 746.516 67.147 745.762 67.147H739.834V72.802H745.606ZM745.216 64.3C745.918 64.3 746.477 64.105 746.893 63.715C747.309 63.325 747.517 62.792 747.517 62.116V61.258C747.517 60.582 747.309 60.049 746.893 59.659C746.477 59.269 745.918 59.074 745.216 59.074H739.834V64.3H745.216ZM758.733 55.876H762.594V62.506H765.441C767.495 62.506 769.146 63.091 770.394 64.261C771.668 65.431 772.305 67.095 772.305 69.253C772.305 71.411 771.668 73.075 770.394 74.245C769.146 75.415 767.495 76 765.441 76H758.733V55.876ZM765.168 72.802C766.156 72.802 766.923 72.581 767.469 72.139C768.041 71.671 768.327 70.943 768.327 69.955V68.551C768.327 67.563 768.041 66.848 767.469 66.406C766.923 65.938 766.156 65.704 765.168 65.704H762.594V72.802H765.168ZM774.84 55.876H778.701V76H774.84V55.876ZM793.896 76.468C792.466 76.468 791.166 76.221 789.996 75.727C788.852 75.233 787.864 74.492 787.032 73.504C786.226 72.516 785.602 71.281 785.16 69.799C784.718 68.291 784.497 66.536 784.497 64.534C784.497 61.492 784.705 58.905 785.121 56.773C785.537 54.615 786.2 52.86 787.11 51.508C788.02 50.13 789.177 49.103 790.581 48.427C792.011 47.751 793.727 47.348 795.729 47.218L801.852 46.867V50.845L795.807 51.196C794.585 51.274 793.558 51.482 792.726 51.82C791.92 52.132 791.257 52.639 790.737 53.341C790.217 54.043 789.814 54.953 789.528 56.071C789.268 57.163 789.086 58.528 788.982 60.166H789.216C789.71 58.866 790.425 57.865 791.361 57.163C792.297 56.461 793.506 56.11 794.988 56.11C796.21 56.11 797.328 56.331 798.342 56.773C799.382 57.215 800.266 57.865 800.994 58.723C801.722 59.555 802.281 60.595 802.671 61.843C803.087 63.091 803.295 64.508 803.295 66.094C803.295 67.654 803.074 69.084 802.632 70.384C802.19 71.658 801.553 72.75 800.721 73.66C799.915 74.544 798.927 75.233 797.757 75.727C796.613 76.221 795.326 76.468 793.896 76.468ZM793.857 73.114C795.339 73.114 796.535 72.646 797.445 71.71C798.381 70.748 798.849 69.409 798.849 67.693V64.963C798.849 63.143 798.407 61.778 797.523 60.868C796.639 59.932 795.417 59.464 793.857 59.464C792.271 59.464 791.049 59.919 790.191 60.829C789.359 61.713 788.943 62.896 788.943 64.378V67.615C788.943 69.409 789.385 70.774 790.269 71.71C791.179 72.646 792.375 73.114 793.857 73.114ZM810.378 55.876H814.629V59.308H814.863C815.461 58.086 816.254 57.137 817.242 56.461C818.23 55.759 819.465 55.408 820.947 55.408C823.313 55.408 825.198 56.292 826.602 58.06C828.006 59.828 828.708 62.454 828.708 65.938C828.708 69.422 828.006 72.048 826.602 73.816C825.198 75.584 823.313 76.468 820.947 76.468C819.465 76.468 818.23 76.13 817.242 75.454C816.254 74.752 815.461 73.79 814.863 72.568H814.629V83.8H810.378V55.876ZM819.192 72.997C820.804 72.997 822.039 72.503 822.897 71.515C823.781 70.527 824.223 69.214 824.223 67.576V64.3C824.223 62.662 823.781 61.349 822.897 60.361C822.039 59.373 820.804 58.879 819.192 58.879C818.568 58.879 817.983 58.957 817.437 59.113C816.891 59.269 816.41 59.503 815.994 59.815C815.578 60.127 815.24 60.517 814.98 60.985C814.746 61.427 814.629 61.96 814.629 62.584V69.292C814.629 69.916 814.746 70.462 814.98 70.93C815.24 71.372 815.578 71.749 815.994 72.061C816.41 72.373 816.891 72.607 817.437 72.763C817.983 72.919 818.568 72.997 819.192 72.997ZM851.625 76C850.403 76 849.48 75.688 848.856 75.064C848.258 74.44 847.894 73.621 847.764 72.607H847.569C847.179 73.829 846.464 74.778 845.424 75.454C844.41 76.13 843.11 76.468 841.524 76.468C839.47 76.468 837.832 75.935 836.61 74.869C835.388 73.777 834.777 72.282 834.777 70.384C834.777 68.434 835.492 66.952 836.922 65.938C838.378 64.898 840.601 64.378 843.591 64.378H847.452V62.818C847.452 60.088 846.009 58.723 843.123 58.723C841.823 58.723 840.77 58.983 839.964 59.503C839.158 59.997 838.482 60.66 837.936 61.492L835.401 59.425C835.973 58.333 836.935 57.397 838.287 56.617C839.639 55.811 841.381 55.408 843.513 55.408C846.061 55.408 848.063 56.019 849.519 57.241C850.975 58.463 851.703 60.231 851.703 62.545V72.646H854.238V76H851.625ZM842.733 73.348C844.111 73.348 845.242 73.036 846.126 72.412C847.01 71.788 847.452 70.982 847.452 69.994V67.069H843.669C840.601 67.069 839.067 67.992 839.067 69.838V70.618C839.067 71.528 839.392 72.217 840.042 72.685C840.692 73.127 841.589 73.348 842.733 73.348ZM860.852 55.876H865.103V63.988H873.449V55.876H877.7V76H873.449V67.42H865.103V76H860.852V55.876ZM885.992 55.876H890.243V63.988H898.589V55.876H902.84V76H898.589V67.42H890.243V76H885.992V55.876ZM919.556 76.468C918.074 76.468 916.735 76.221 915.539 75.727C914.369 75.233 913.368 74.531 912.536 73.621C911.73 72.711 911.106 71.606 910.664 70.306C910.222 69.006 910.001 67.55 910.001 65.938C910.001 64.326 910.222 62.87 910.664 61.57C911.106 60.27 911.73 59.165 912.536 58.255C913.368 57.345 914.369 56.643 915.539 56.149C916.735 55.655 918.074 55.408 919.556 55.408C921.038 55.408 922.364 55.655 923.534 56.149C924.73 56.643 925.731 57.345 926.537 58.255C927.369 59.165 928.006 60.27 928.448 61.57C928.89 62.87 929.111 64.326 929.111 65.938C929.111 67.55 928.89 69.006 928.448 70.306C928.006 71.606 927.369 72.711 926.537 73.621C925.731 74.531 924.73 75.233 923.534 75.727C922.364 76.221 921.038 76.468 919.556 76.468ZM919.556 73.114C921.116 73.114 922.351 72.646 923.261 71.71C924.197 70.748 924.665 69.331 924.665 67.459V64.417C924.665 62.545 924.197 61.141 923.261 60.205C922.351 59.243 921.116 58.762 919.556 58.762C917.996 58.762 916.748 59.243 915.812 60.205C914.902 61.141 914.447 62.545 914.447 64.417V67.459C914.447 69.331 914.902 70.748 915.812 71.71C916.748 72.646 917.996 73.114 919.556 73.114ZM945.125 76.468C943.591 76.468 942.213 76.221 940.991 75.727C939.769 75.233 938.742 74.531 937.91 73.621C937.078 72.711 936.441 71.619 935.999 70.345C935.557 69.045 935.336 67.589 935.336 65.977C935.336 64.365 935.557 62.909 935.999 61.609C936.467 60.309 937.104 59.204 937.91 58.294C938.742 57.358 939.743 56.643 940.913 56.149C942.083 55.655 943.383 55.408 944.813 55.408C946.217 55.408 947.491 55.655 948.635 56.149C949.779 56.617 950.754 57.293 951.56 58.177C952.366 59.061 952.977 60.114 953.393 61.336C953.835 62.558 954.056 63.91 954.056 65.392V66.991H939.626V67.654C939.626 69.24 940.12 70.54 941.108 71.554C942.096 72.542 943.461 73.036 945.203 73.036C946.503 73.036 947.608 72.763 948.518 72.217C949.454 71.645 950.208 70.891 950.78 69.955L953.432 72.295C952.756 73.465 951.716 74.453 950.312 75.259C948.934 76.065 947.205 76.468 945.125 76.468ZM944.813 58.645C944.059 58.645 943.357 58.775 942.707 59.035C942.083 59.295 941.537 59.672 941.069 60.166C940.627 60.634 940.276 61.193 940.016 61.843C939.756 62.493 939.626 63.208 939.626 63.988V64.261H949.727V63.871C949.727 62.285 949.272 61.024 948.362 60.088C947.478 59.126 946.295 58.645 944.813 58.645ZM986.863 55.876H991.114V63.988H994.741L999.577 55.876H1004.14L999.655 63.208C999.213 63.962 998.784 64.495 998.368 64.807C997.952 65.119 997.471 65.34 996.925 65.47V65.665C997.549 65.795 998.069 66.029 998.485 66.367C998.901 66.679 999.33 67.225 999.772 68.005L1002.31 72.568H1004.49V76H1002C1001.14 76 1000.4 75.805 999.772 75.415C999.174 74.999 998.615 74.336 998.095 73.426L994.741 67.42H991.114V76H986.863V55.876ZM1011.5 55.876H1015.75V59.308H1015.98C1016.58 58.086 1017.37 57.137 1018.36 56.461C1019.35 55.759 1020.58 55.408 1022.06 55.408C1024.43 55.408 1026.32 56.292 1027.72 58.06C1029.12 59.828 1029.83 62.454 1029.83 65.938C1029.83 69.422 1029.12 72.048 1027.72 73.816C1026.32 75.584 1024.43 76.468 1022.06 76.468C1020.58 76.468 1019.35 76.13 1018.36 75.454C1017.37 74.752 1016.58 73.79 1015.98 72.568H1015.75V83.8H1011.5V55.876ZM1020.31 72.997C1021.92 72.997 1023.16 72.503 1024.01 71.515C1024.9 70.527 1025.34 69.214 1025.34 67.576V64.3C1025.34 62.662 1024.9 61.349 1024.01 60.361C1023.16 59.373 1021.92 58.879 1020.31 58.879C1019.69 58.879 1019.1 58.957 1018.55 59.113C1018.01 59.269 1017.53 59.503 1017.11 59.815C1016.7 60.127 1016.36 60.517 1016.1 60.985C1015.86 61.427 1015.75 61.96 1015.75 62.584V69.292C1015.75 69.916 1015.86 70.462 1016.1 70.93C1016.36 71.372 1016.7 71.749 1017.11 72.061C1017.53 72.373 1018.01 72.607 1018.55 72.763C1019.1 72.919 1019.69 72.997 1020.31 72.997ZM1045.68 76.468C1044.15 76.468 1042.77 76.221 1041.55 75.727C1040.33 75.233 1039.3 74.531 1038.47 73.621C1037.64 72.711 1037 71.619 1036.56 70.345C1036.12 69.045 1035.89 67.589 1035.89 65.977C1035.89 64.365 1036.12 62.909 1036.56 61.609C1037.03 60.309 1037.66 59.204 1038.47 58.294C1039.3 57.358 1040.3 56.643 1041.47 56.149C1042.64 55.655 1043.94 55.408 1045.37 55.408C1046.78 55.408 1048.05 55.655 1049.19 56.149C1050.34 56.617 1051.31 57.293 1052.12 58.177C1052.92 59.061 1053.54 60.114 1053.95 61.336C1054.39 62.558 1054.61 63.91 1054.61 65.392V66.991H1040.18V67.654C1040.18 69.24 1040.68 70.54 1041.67 71.554C1042.65 72.542 1044.02 73.036 1045.76 73.036C1047.06 73.036 1048.17 72.763 1049.08 72.217C1050.01 71.645 1050.77 70.891 1051.34 69.955L1053.99 72.295C1053.31 73.465 1052.27 74.453 1050.87 75.259C1049.49 76.065 1047.76 76.468 1045.68 76.468ZM1045.37 58.645C1044.62 58.645 1043.92 58.775 1043.27 59.035C1042.64 59.295 1042.1 59.672 1041.63 60.166C1041.19 60.634 1040.83 61.193 1040.57 61.843C1040.31 62.493 1040.18 63.208 1040.18 63.988V64.261H1050.29V63.871C1050.29 62.285 1049.83 61.024 1048.92 60.088C1048.04 59.126 1046.85 58.645 1045.37 58.645ZM1071.14 76.468C1069.63 76.468 1068.28 76.221 1067.08 75.727C1065.91 75.233 1064.91 74.531 1064.08 73.621C1063.27 72.711 1062.65 71.606 1062.2 70.306C1061.79 69.006 1061.58 67.55 1061.58 65.938C1061.58 64.326 1061.79 62.87 1062.2 61.57C1062.65 60.27 1063.27 59.165 1064.08 58.255C1064.91 57.345 1065.91 56.643 1067.08 56.149C1068.28 55.655 1069.61 55.408 1071.1 55.408C1073.18 55.408 1074.84 55.85 1076.09 56.734C1077.36 57.618 1078.31 58.762 1078.94 60.166L1075.62 61.96C1075.26 61.024 1074.7 60.283 1073.94 59.737C1073.22 59.191 1072.27 58.918 1071.1 58.918C1069.48 58.918 1068.24 59.412 1067.35 60.4C1066.47 61.362 1066.03 62.649 1066.03 64.261V67.615C1066.03 69.201 1066.47 70.488 1067.35 71.476C1068.24 72.464 1069.51 72.958 1071.17 72.958C1072.42 72.958 1073.44 72.672 1074.22 72.1C1075.02 71.528 1075.66 70.748 1076.13 69.76L1079.25 71.671C1078.6 73.075 1077.61 74.232 1076.28 75.142C1074.96 76.026 1073.24 76.468 1071.14 76.468ZM1084.77 72.568H1087.38C1087.72 72.126 1088.02 71.619 1088.28 71.047C1088.57 70.449 1088.79 69.734 1088.94 68.902C1089.13 68.07 1089.26 67.108 1089.33 66.016C1089.44 64.924 1089.49 63.65 1089.49 62.194V55.876H1103.72V76H1099.47V59.308H1093.47V62.272C1093.47 65.678 1093.22 68.343 1092.73 70.267C1092.23 72.191 1091.56 73.595 1090.7 74.479C1090.1 75.103 1089.41 75.519 1088.63 75.727C1087.85 75.909 1087.03 76 1086.17 76H1084.77V72.568ZM1120.67 76.468C1119.19 76.468 1117.85 76.221 1116.66 75.727C1115.49 75.233 1114.49 74.531 1113.65 73.621C1112.85 72.711 1112.22 71.606 1111.78 70.306C1111.34 69.006 1111.12 67.55 1111.12 65.938C1111.12 64.326 1111.34 62.87 1111.78 61.57C1112.22 60.27 1112.85 59.165 1113.65 58.255C1114.49 57.345 1115.49 56.643 1116.66 56.149C1117.85 55.655 1119.19 55.408 1120.67 55.408C1122.16 55.408 1123.48 55.655 1124.65 56.149C1125.85 56.643 1126.85 57.345 1127.66 58.255C1128.49 59.165 1129.12 60.27 1129.57 61.57C1130.01 62.87 1130.23 64.326 1130.23 65.938C1130.23 67.55 1130.01 69.006 1129.57 70.306C1129.12 71.606 1128.49 72.711 1127.66 73.621C1126.85 74.531 1125.85 75.233 1124.65 75.727C1123.48 76.221 1122.16 76.468 1120.67 76.468ZM1120.67 73.114C1122.23 73.114 1123.47 72.646 1124.38 71.71C1125.31 70.748 1125.78 69.331 1125.78 67.459V64.417C1125.78 62.545 1125.31 61.141 1124.38 60.205C1123.47 59.243 1122.23 58.762 1120.67 58.762C1119.11 58.762 1117.87 59.243 1116.93 60.205C1116.02 61.141 1115.56 62.545 1115.56 64.417V67.459C1115.56 69.331 1116.02 70.748 1116.93 71.71C1117.87 72.646 1119.11 73.114 1120.67 73.114ZM1143.63 70.072H1149.67L1144.84 81.655H1141.52L1143.63 70.072ZM169.938 122.876H180.741C182.483 122.876 183.835 123.344 184.797 124.28C185.759 125.19 186.24 126.412 186.24 127.946C186.24 130.442 184.875 131.898 182.145 132.314V132.509C183.809 132.639 185.031 133.12 185.811 133.952C186.591 134.758 186.981 135.824 186.981 137.15C186.981 137.956 186.838 138.71 186.552 139.412C186.292 140.114 185.902 140.738 185.382 141.284C184.862 141.804 184.212 142.22 183.432 142.532C182.678 142.844 181.82 143 180.858 143H169.938V122.876ZM179.961 139.802C180.793 139.802 181.443 139.607 181.911 139.217C182.379 138.801 182.613 138.216 182.613 137.462V136.526C182.613 135.772 182.379 135.187 181.911 134.771C181.469 134.355 180.871 134.147 180.117 134.147H174.189V139.802H179.961ZM179.571 131.3C180.273 131.3 180.832 131.105 181.248 130.715C181.664 130.325 181.872 129.792 181.872 129.116V128.258C181.872 127.582 181.664 127.049 181.248 126.659C180.832 126.269 180.273 126.074 179.571 126.074H174.189V131.3H179.571ZM193.089 122.876H196.95V129.506H199.797C201.851 129.506 203.502 130.091 204.75 131.261C206.024 132.431 206.661 134.095 206.661 136.253C206.661 138.411 206.024 140.075 204.75 141.245C203.502 142.415 201.851 143 199.797 143H193.089V122.876ZM199.524 139.802C200.512 139.802 201.279 139.581 201.825 139.139C202.397 138.671 202.683 137.943 202.683 136.955V135.551C202.683 134.563 202.397 133.848 201.825 133.406C201.279 132.938 200.512 132.704 199.524 132.704H196.95V139.802H199.524ZM209.196 122.876H213.057V143H209.196V122.876ZM259.241 122.876H263.531L253.781 146.9C253.261 148.2 252.572 149.175 251.714 149.825C250.882 150.475 249.673 150.8 248.087 150.8H244.694V147.368H249.452L251.285 142.727L243.173 122.876H247.619L250.817 131.3L253.313 138.203H253.547L256.043 131.3L259.241 122.876ZM267.455 139.568H269.756C270.51 138.372 271.108 136.929 271.55 135.239C271.992 133.523 272.213 131.495 272.213 129.155V122.876H285.941V139.568H289.178V148.46H285.356V143H271.277V148.46H267.455V139.568ZM281.768 139.568V126.308H276.191V129.311C276.191 131.599 276.009 133.575 275.645 135.239C275.307 136.877 274.8 138.32 274.124 139.568H281.768ZM295.169 122.876H299.381V131.534L298.991 136.994H299.186L308.078 122.876H312.095V143H307.883V134.342L308.273 128.882H308.078L299.186 143H295.169V122.876ZM320.776 122.876H331.579C333.321 122.876 334.673 123.344 335.635 124.28C336.597 125.19 337.078 126.412 337.078 127.946C337.078 130.442 335.713 131.898 332.983 132.314V132.509C334.647 132.639 335.869 133.12 336.649 133.952C337.429 134.758 337.819 135.824 337.819 137.15C337.819 137.956 337.676 138.71 337.39 139.412C337.13 140.114 336.74 140.738 336.22 141.284C335.7 141.804 335.05 142.22 334.27 142.532C333.516 142.844 332.658 143 331.696 143H320.776V122.876ZM330.799 139.802C331.631 139.802 332.281 139.607 332.749 139.217C333.217 138.801 333.451 138.216 333.451 137.462V136.526C333.451 135.772 333.217 135.187 332.749 134.771C332.307 134.355 331.709 134.147 330.955 134.147H325.027V139.802H330.799ZM330.409 131.3C331.111 131.3 331.67 131.105 332.086 130.715C332.502 130.325 332.71 129.792 332.71 129.116V128.258C332.71 127.582 332.502 127.049 332.086 126.659C331.67 126.269 331.111 126.074 330.409 126.074H325.027V131.3H330.409ZM345.448 122.876H349.66V131.534L349.27 136.994H349.465L358.357 122.876H362.374V143H358.162V134.342L358.552 128.882H358.357L349.465 143H345.448V122.876ZM376.906 126.308H369.847V122.876H388.255V126.308H381.157V143H376.906V126.308ZM404.62 143.468C403.086 143.468 401.708 143.221 400.486 142.727C399.264 142.233 398.237 141.531 397.405 140.621C396.573 139.711 395.936 138.619 395.494 137.345C395.052 136.045 394.831 134.589 394.831 132.977C394.831 131.365 395.052 129.909 395.494 128.609C395.962 127.309 396.599 126.204 397.405 125.294C398.237 124.358 399.238 123.643 400.408 123.149C401.578 122.655 402.878 122.408 404.308 122.408C405.712 122.408 406.986 122.655 408.13 123.149C409.274 123.617 410.249 124.293 411.055 125.177C411.861 126.061 412.472 127.114 412.888 128.336C413.33 129.558 413.551 130.91 413.551 132.392V133.991H399.121V134.654C399.121 136.24 399.615 137.54 400.603 138.554C401.591 139.542 402.956 140.036 404.698 140.036C405.998 140.036 407.103 139.763 408.013 139.217C408.949 138.645 409.703 137.891 410.275 136.955L412.927 139.295C412.251 140.465 411.211 141.453 409.807 142.259C408.429 143.065 406.7 143.468 404.62 143.468ZM404.308 125.645C403.554 125.645 402.852 125.775 402.202 126.035C401.578 126.295 401.032 126.672 400.564 127.166C400.122 127.634 399.771 128.193 399.511 128.843C399.251 129.493 399.121 130.208 399.121 130.988V131.261H409.222V130.871C409.222 129.285 408.767 128.024 407.857 127.088C406.973 126.126 405.79 125.645 404.308 125.645ZM430.071 143.468C428.563 143.468 427.211 143.221 426.015 142.727C424.845 142.233 423.844 141.531 423.012 140.621C422.206 139.711 421.582 138.606 421.14 137.306C420.724 136.006 420.516 134.55 420.516 132.938C420.516 131.326 420.724 129.87 421.14 128.57C421.582 127.27 422.206 126.165 423.012 125.255C423.844 124.345 424.845 123.643 426.015 123.149C427.211 122.655 428.55 122.408 430.032 122.408C432.112 122.408 433.776 122.85 435.024 123.734C436.298 124.618 437.247 125.762 437.871 127.166L434.556 128.96C434.192 128.024 433.633 127.283 432.879 126.737C432.151 126.191 431.202 125.918 430.032 125.918C428.42 125.918 427.172 126.412 426.288 127.4C425.404 128.362 424.962 129.649 424.962 131.261V134.615C424.962 136.201 425.404 137.488 426.288 138.476C427.172 139.464 428.446 139.958 430.11 139.958C431.358 139.958 432.372 139.672 433.152 139.1C433.958 138.528 434.595 137.748 435.063 136.76L438.183 138.671C437.533 140.075 436.545 141.232 435.219 142.142C433.893 143.026 432.177 143.468 430.071 143.468ZM446.67 122.876H450.921V129.506H456.654C458.734 129.506 460.398 130.091 461.646 131.261C462.894 132.431 463.518 134.095 463.518 136.253C463.518 138.411 462.894 140.075 461.646 141.245C460.398 142.415 458.734 143 456.654 143H446.67V122.876ZM455.913 139.685C456.901 139.685 457.681 139.451 458.253 138.983C458.851 138.515 459.15 137.826 459.15 136.916V135.59C459.15 134.68 458.851 133.991 458.253 133.523C457.681 133.055 456.901 132.821 455.913 132.821H450.921V139.685H455.913ZM496.326 122.876H500.577V130.988H508.923V122.876H513.174V143H508.923V134.42H500.577V143H496.326V122.876ZM530.319 143.468C528.785 143.468 527.407 143.221 526.185 142.727C524.963 142.233 523.936 141.531 523.104 140.621C522.272 139.711 521.635 138.619 521.193 137.345C520.751 136.045 520.53 134.589 520.53 132.977C520.53 131.365 520.751 129.909 521.193 128.609C521.661 127.309 522.298 126.204 523.104 125.294C523.936 124.358 524.937 123.643 526.107 123.149C527.277 122.655 528.577 122.408 530.007 122.408C531.411 122.408 532.685 122.655 533.829 123.149C534.973 123.617 535.948 124.293 536.754 125.177C537.56 126.061 538.171 127.114 538.587 128.336C539.029 129.558 539.25 130.91 539.25 132.392V133.991H524.82V134.654C524.82 136.24 525.314 137.54 526.302 138.554C527.29 139.542 528.655 140.036 530.397 140.036C531.697 140.036 532.802 139.763 533.712 139.217C534.648 138.645 535.402 137.891 535.974 136.955L538.626 139.295C537.95 140.465 536.91 141.453 535.506 142.259C534.128 143.065 532.399 143.468 530.319 143.468ZM530.007 125.645C529.253 125.645 528.551 125.775 527.901 126.035C527.277 126.295 526.731 126.672 526.263 127.166C525.821 127.634 525.47 128.193 525.21 128.843C524.95 129.493 524.82 130.208 524.82 130.988V131.261H534.921V130.871C534.921 129.285 534.466 128.024 533.556 127.088C532.672 126.126 531.489 125.645 530.007 125.645ZM578.024 126.308H570.965V122.876H589.373V126.308H582.275V143H578.024V126.308ZM605.309 143.468C603.827 143.468 602.488 143.221 601.292 142.727C600.122 142.233 599.121 141.531 598.289 140.621C597.483 139.711 596.859 138.606 596.417 137.306C595.975 136.006 595.754 134.55 595.754 132.938C595.754 131.326 595.975 129.87 596.417 128.57C596.859 127.27 597.483 126.165 598.289 125.255C599.121 124.345 600.122 123.643 601.292 123.149C602.488 122.655 603.827 122.408 605.309 122.408C606.791 122.408 608.117 122.655 609.287 123.149C610.483 123.643 611.484 124.345 612.29 125.255C613.122 126.165 613.759 127.27 614.201 128.57C614.643 129.87 614.864 131.326 614.864 132.938C614.864 134.55 614.643 136.006 614.201 137.306C613.759 138.606 613.122 139.711 612.29 140.621C611.484 141.531 610.483 142.233 609.287 142.727C608.117 143.221 606.791 143.468 605.309 143.468ZM605.309 140.114C606.869 140.114 608.104 139.646 609.014 138.71C609.95 137.748 610.418 136.331 610.418 134.459V131.417C610.418 129.545 609.95 128.141 609.014 127.205C608.104 126.243 606.869 125.762 605.309 125.762C603.749 125.762 602.501 126.243 601.565 127.205C600.655 128.141 600.2 129.545 600.2 131.417V134.459C600.2 136.331 600.655 137.748 601.565 138.71C602.501 139.646 603.749 140.114 605.309 140.114ZM619.685 139.568H622.298C622.636 139.126 622.935 138.619 623.195 138.047C623.481 137.449 623.702 136.734 623.858 135.902C624.04 135.07 624.17 134.108 624.248 133.016C624.352 131.924 624.404 130.65 624.404 129.194V122.876H638.639V143H634.388V126.308H628.382V129.272C628.382 132.678 628.135 135.343 627.641 137.267C627.147 139.191 626.471 140.595 625.613 141.479C625.015 142.103 624.326 142.519 623.546 142.727C622.766 142.909 621.947 143 621.089 143H619.685V139.568ZM647.788 122.876H652.039V129.506H657.772C659.852 129.506 661.516 130.091 662.764 131.261C664.012 132.431 664.636 134.095 664.636 136.253C664.636 138.411 664.012 140.075 662.764 141.245C661.516 142.415 659.852 143 657.772 143H647.788V122.876ZM657.031 139.685C658.019 139.685 658.799 139.451 659.371 138.983C659.969 138.515 660.268 137.826 660.268 136.916V135.59C660.268 134.68 659.969 133.991 659.371 133.523C658.799 133.055 658.019 132.821 657.031 132.821H652.039V139.685H657.031ZM672.616 122.876H676.867V130.988H680.494L685.33 122.876H689.893L685.408 130.208C684.966 130.962 684.537 131.495 684.121 131.807C683.705 132.119 683.224 132.34 682.678 132.47V132.665C683.302 132.795 683.822 133.029 684.238 133.367C684.654 133.679 685.083 134.225 685.525 135.005L688.06 139.568H690.244V143H687.748C686.89 143 686.149 142.805 685.525 142.415C684.927 141.999 684.368 141.336 683.848 140.426L680.494 134.42H676.867V143H672.616V122.876ZM705.868 143.468C704.386 143.468 703.047 143.221 701.851 142.727C700.681 142.233 699.68 141.531 698.848 140.621C698.042 139.711 697.418 138.606 696.976 137.306C696.534 136.006 696.313 134.55 696.313 132.938C696.313 131.326 696.534 129.87 696.976 128.57C697.418 127.27 698.042 126.165 698.848 125.255C699.68 124.345 700.681 123.643 701.851 123.149C703.047 122.655 704.386 122.408 705.868 122.408C707.35 122.408 708.676 122.655 709.846 123.149C711.042 123.643 712.043 124.345 712.849 125.255C713.681 126.165 714.318 127.27 714.76 128.57C715.202 129.87 715.423 131.326 715.423 132.938C715.423 134.55 715.202 136.006 714.76 137.306C714.318 138.606 713.681 139.711 712.849 140.621C712.043 141.531 711.042 142.233 709.846 142.727C708.676 143.221 707.35 143.468 705.868 143.468ZM705.868 140.114C707.428 140.114 708.663 139.646 709.573 138.71C710.509 137.748 710.977 136.331 710.977 134.459V131.417C710.977 129.545 710.509 128.141 709.573 127.205C708.663 126.243 707.428 125.762 705.868 125.762C704.308 125.762 703.06 126.243 702.124 127.205C701.214 128.141 700.759 129.545 700.759 131.417V134.459C700.759 136.331 701.214 137.748 702.124 138.71C703.06 139.646 704.308 140.114 705.868 140.114ZM748.152 122.876H758.955C760.697 122.876 762.049 123.344 763.011 124.28C763.973 125.19 764.454 126.412 764.454 127.946C764.454 130.442 763.089 131.898 760.359 132.314V132.509C762.023 132.639 763.245 133.12 764.025 133.952C764.805 134.758 765.195 135.824 765.195 137.15C765.195 137.956 765.052 138.71 764.766 139.412C764.506 140.114 764.116 140.738 763.596 141.284C763.076 141.804 762.426 142.22 761.646 142.532C760.892 142.844 760.034 143 759.072 143H748.152V122.876ZM758.175 139.802C759.007 139.802 759.657 139.607 760.125 139.217C760.593 138.801 760.827 138.216 760.827 137.462V136.526C760.827 135.772 760.593 135.187 760.125 134.771C759.683 134.355 759.085 134.147 758.331 134.147H752.403V139.802H758.175ZM757.785 131.3C758.487 131.3 759.046 131.105 759.462 130.715C759.878 130.325 760.086 129.792 760.086 129.116V128.258C760.086 127.582 759.878 127.049 759.462 126.659C759.046 126.269 758.487 126.074 757.785 126.074H752.403V131.3H757.785ZM781.716 143.468C780.182 143.468 778.804 143.221 777.582 142.727C776.36 142.233 775.333 141.531 774.501 140.621C773.669 139.711 773.032 138.619 772.59 137.345C772.148 136.045 771.927 134.589 771.927 132.977C771.927 131.365 772.148 129.909 772.59 128.609C773.058 127.309 773.695 126.204 774.501 125.294C775.333 124.358 776.334 123.643 777.504 123.149C778.674 122.655 779.974 122.408 781.404 122.408C782.808 122.408 784.082 122.655 785.226 123.149C786.37 123.617 787.345 124.293 788.151 125.177C788.957 126.061 789.568 127.114 789.984 128.336C790.426 129.558 790.647 130.91 790.647 132.392V133.991H776.217V134.654C776.217 136.24 776.711 137.54 777.699 138.554C778.687 139.542 780.052 140.036 781.794 140.036C783.094 140.036 784.199 139.763 785.109 139.217C786.045 138.645 786.799 137.891 787.371 136.955L790.023 139.295C789.347 140.465 788.307 141.453 786.903 142.259C785.525 143.065 783.796 143.468 781.716 143.468ZM781.404 125.645C780.65 125.645 779.948 125.775 779.298 126.035C778.674 126.295 778.128 126.672 777.66 127.166C777.218 127.634 776.867 128.193 776.607 128.843C776.347 129.493 776.217 130.208 776.217 130.988V131.261H786.318V130.871C786.318 129.285 785.863 128.024 784.953 127.088C784.069 126.126 782.886 125.645 781.404 125.645ZM810.132 134.108H809.937C809.261 134.94 808.455 135.577 807.519 136.019C806.609 136.435 805.452 136.643 804.048 136.643C799.654 136.643 797.457 134.42 797.457 129.974V122.876H801.708V129.701C801.708 130.871 802.007 131.729 802.605 132.275C803.229 132.795 804.269 133.055 805.725 133.055C807.051 133.055 808.117 132.86 808.923 132.47C809.729 132.054 810.132 131.456 810.132 130.676V122.876H814.383V143H810.132V134.108ZM823.143 122.876H827.394V130.988H835.74V122.876H839.991V143H835.74V134.42H827.394V143H823.143V122.876ZM856.706 143.468C855.224 143.468 853.885 143.221 852.689 142.727C851.519 142.233 850.518 141.531 849.686 140.621C848.88 139.711 848.256 138.606 847.814 137.306C847.372 136.006 847.151 134.55 847.151 132.938C847.151 131.326 847.372 129.87 847.814 128.57C848.256 127.27 848.88 126.165 849.686 125.255C850.518 124.345 851.519 123.643 852.689 123.149C853.885 122.655 855.224 122.408 856.706 122.408C858.188 122.408 859.514 122.655 860.684 123.149C861.88 123.643 862.881 124.345 863.687 125.255C864.519 126.165 865.156 127.27 865.598 128.57C866.04 129.87 866.261 131.326 866.261 132.938C866.261 134.55 866.04 136.006 865.598 137.306C865.156 138.606 864.519 139.711 863.687 140.621C862.881 141.531 861.88 142.233 860.684 142.727C859.514 143.221 858.188 143.468 856.706 143.468ZM856.706 140.114C858.266 140.114 859.501 139.646 860.411 138.71C861.347 137.748 861.815 136.331 861.815 134.459V131.417C861.815 129.545 861.347 128.141 860.411 127.205C859.501 126.243 858.266 125.762 856.706 125.762C855.146 125.762 853.898 126.243 852.962 127.205C852.052 128.141 851.597 129.545 851.597 131.417V134.459C851.597 136.331 852.052 137.748 852.962 138.71C853.898 139.646 855.146 140.114 856.706 140.114ZM898.601 122.876H915.371V143H911.12V126.308H902.852V143H898.601V122.876ZM923.507 122.876H927.758V126.308H927.992C928.59 125.086 929.383 124.137 930.371 123.461C931.359 122.759 932.594 122.408 934.076 122.408C936.442 122.408 938.327 123.292 939.731 125.06C941.135 126.828 941.837 129.454 941.837 132.938C941.837 136.422 941.135 139.048 939.731 140.816C938.327 142.584 936.442 143.468 934.076 143.468C932.594 143.468 931.359 143.13 930.371 142.454C929.383 141.752 928.59 140.79 927.992 139.568H927.758V150.8H923.507V122.876ZM932.321 139.997C933.933 139.997 935.168 139.503 936.026 138.515C936.91 137.527 937.352 136.214 937.352 134.576V131.3C937.352 129.662 936.91 128.349 936.026 127.361C935.168 126.373 933.933 125.879 932.321 125.879C931.697 125.879 931.112 125.957 930.566 126.113C930.02 126.269 929.539 126.503 929.123 126.815C928.707 127.127 928.369 127.517 928.109 127.985C927.875 128.427 927.758 128.96 927.758 129.584V136.292C927.758 136.916 927.875 137.462 928.109 137.93C928.369 138.372 928.707 138.749 929.123 139.061C929.539 139.373 930.02 139.607 930.566 139.763C931.112 139.919 931.697 139.997 932.321 139.997ZM957.695 143.468C956.161 143.468 954.783 143.221 953.561 142.727C952.339 142.233 951.312 141.531 950.48 140.621C949.648 139.711 949.011 138.619 948.569 137.345C948.127 136.045 947.906 134.589 947.906 132.977C947.906 131.365 948.127 129.909 948.569 128.609C949.037 127.309 949.674 126.204 950.48 125.294C951.312 124.358 952.313 123.643 953.483 123.149C954.653 122.655 955.953 122.408 957.383 122.408C958.787 122.408 960.061 122.655 961.205 123.149C962.349 123.617 963.324 124.293 964.13 125.177C964.936 126.061 965.547 127.114 965.963 128.336C966.405 129.558 966.626 130.91 966.626 132.392V133.991H952.196V134.654C952.196 136.24 952.69 137.54 953.678 138.554C954.666 139.542 956.031 140.036 957.773 140.036C959.073 140.036 960.178 139.763 961.088 139.217C962.024 138.645 962.778 137.891 963.35 136.955L966.002 139.295C965.326 140.465 964.286 141.453 962.882 142.259C961.504 143.065 959.775 143.468 957.695 143.468ZM957.383 125.645C956.629 125.645 955.927 125.775 955.277 126.035C954.653 126.295 954.107 126.672 953.639 127.166C953.197 127.634 952.846 128.193 952.586 128.843C952.326 129.493 952.196 130.208 952.196 130.988V131.261H962.297V130.871C962.297 129.285 961.842 128.024 960.932 127.088C960.048 126.126 958.865 125.645 957.383 125.645ZM974.293 122.876H978.544V130.988H982.171L987.007 122.876H991.57L987.085 130.208C986.643 130.962 986.214 131.495 985.798 131.807C985.382 132.119 984.901 132.34 984.355 132.47V132.665C984.979 132.795 985.499 133.029 985.915 133.367C986.331 133.679 986.76 134.225 987.202 135.005L989.737 139.568H991.921V143H989.425C988.567 143 987.826 142.805 987.202 142.415C986.604 141.999 986.045 141.336 985.525 140.426L982.171 134.42H978.544V143H974.293V122.876ZM998.926 122.876H1003.18V126.308H1003.41C1004.01 125.086 1004.8 124.137 1005.79 123.461C1006.78 122.759 1008.01 122.408 1009.5 122.408C1011.86 122.408 1013.75 123.292 1015.15 125.06C1016.55 126.828 1017.26 129.454 1017.26 132.938C1017.26 136.422 1016.55 139.048 1015.15 140.816C1013.75 142.584 1011.86 143.468 1009.5 143.468C1008.01 143.468 1006.78 143.13 1005.79 142.454C1004.8 141.752 1004.01 140.79 1003.41 139.568H1003.18V150.8H998.926V122.876ZM1007.74 139.997C1009.35 139.997 1010.59 139.503 1011.45 138.515C1012.33 137.527 1012.77 136.214 1012.77 134.576V131.3C1012.77 129.662 1012.33 128.349 1011.45 127.361C1010.59 126.373 1009.35 125.879 1007.74 125.879C1007.12 125.879 1006.53 125.957 1005.99 126.113C1005.44 126.269 1004.96 126.503 1004.54 126.815C1004.13 127.127 1003.79 127.517 1003.53 127.985C1003.29 128.427 1003.18 128.96 1003.18 129.584V136.292C1003.18 136.916 1003.29 137.462 1003.53 137.93C1003.79 138.372 1004.13 138.749 1004.54 139.061C1004.96 139.373 1005.44 139.607 1005.99 139.763C1006.53 139.919 1007.12 139.997 1007.74 139.997ZM1040.17 143C1038.95 143 1038.03 142.688 1037.4 142.064C1036.81 141.44 1036.44 140.621 1036.31 139.607H1036.12C1035.73 140.829 1035.01 141.778 1033.97 142.454C1032.96 143.13 1031.66 143.468 1030.07 143.468C1028.02 143.468 1026.38 142.935 1025.16 141.869C1023.94 140.777 1023.32 139.282 1023.32 137.384C1023.32 135.434 1024.04 133.952 1025.47 132.938C1026.93 131.898 1029.15 131.378 1032.14 131.378H1036V129.818C1036 127.088 1034.56 125.723 1031.67 125.723C1030.37 125.723 1029.32 125.983 1028.51 126.503C1027.71 126.997 1027.03 127.66 1026.48 128.492L1023.95 126.425C1024.52 125.333 1025.48 124.397 1026.83 123.617C1028.19 122.811 1029.93 122.408 1032.06 122.408C1034.61 122.408 1036.61 123.019 1038.07 124.241C1039.52 125.463 1040.25 127.231 1040.25 129.545V139.646H1042.79V143H1040.17ZM1031.28 140.348C1032.66 140.348 1033.79 140.036 1034.67 139.412C1035.56 138.788 1036 137.982 1036 136.994V134.069H1032.22C1029.15 134.069 1027.61 134.992 1027.61 136.838V137.618C1027.61 138.528 1027.94 139.217 1028.59 139.685C1029.24 140.127 1030.14 140.348 1031.28 140.348ZM1058.57 143.468C1057.06 143.468 1055.71 143.221 1054.51 142.727C1053.34 142.233 1052.34 141.531 1051.51 140.621C1050.7 139.711 1050.08 138.606 1049.63 137.306C1049.22 136.006 1049.01 134.55 1049.01 132.938C1049.01 131.326 1049.22 129.87 1049.63 128.57C1050.08 127.27 1050.7 126.165 1051.51 125.255C1052.34 124.345 1053.34 123.643 1054.51 123.149C1055.71 122.655 1057.04 122.408 1058.53 122.408C1060.61 122.408 1062.27 122.85 1063.52 123.734C1064.79 124.618 1065.74 125.762 1066.37 127.166L1063.05 128.96C1062.69 128.024 1062.13 127.283 1061.37 126.737C1060.65 126.191 1059.7 125.918 1058.53 125.918C1056.91 125.918 1055.67 126.412 1054.78 127.4C1053.9 128.362 1053.46 129.649 1053.46 131.261V134.615C1053.46 136.201 1053.9 137.488 1054.78 138.476C1055.67 139.464 1056.94 139.958 1058.6 139.958C1059.85 139.958 1060.87 139.672 1061.65 139.1C1062.45 138.528 1063.09 137.748 1063.56 136.76L1066.68 138.671C1066.03 140.075 1065.04 141.232 1063.71 142.142C1062.39 143.026 1060.67 143.468 1058.57 143.468ZM1074.54 122.876H1078.79V130.988H1087.14V122.876H1091.39V143H1087.14V134.42H1078.79V143H1074.54V122.876ZM1108.1 143.468C1106.62 143.468 1105.28 143.221 1104.09 142.727C1102.92 142.233 1101.92 141.531 1101.08 140.621C1100.28 139.711 1099.65 138.606 1099.21 137.306C1098.77 136.006 1098.55 134.55 1098.55 132.938C1098.55 131.326 1098.77 129.87 1099.21 128.57C1099.65 127.27 1100.28 126.165 1101.08 125.255C1101.92 124.345 1102.92 123.643 1104.09 123.149C1105.28 122.655 1106.62 122.408 1108.1 122.408C1109.59 122.408 1110.91 122.655 1112.08 123.149C1113.28 123.643 1114.28 124.345 1115.09 125.255C1115.92 126.165 1116.55 127.27 1117 128.57C1117.44 129.87 1117.66 131.326 1117.66 132.938C1117.66 134.55 1117.44 136.006 1117 137.306C1116.55 138.606 1115.92 139.711 1115.09 140.621C1114.28 141.531 1113.28 142.233 1112.08 142.727C1110.91 143.221 1109.59 143.468 1108.1 143.468ZM1108.1 140.114C1109.66 140.114 1110.9 139.646 1111.81 138.71C1112.75 137.748 1113.21 136.331 1113.21 134.459V131.417C1113.21 129.545 1112.75 128.141 1111.81 127.205C1110.9 126.243 1109.66 125.762 1108.1 125.762C1106.54 125.762 1105.3 126.243 1104.36 127.205C1103.45 128.141 1103 129.545 1103 131.417V134.459C1103 136.331 1103.45 137.748 1104.36 138.71C1105.3 139.646 1106.54 140.114 1108.1 140.114ZM1124 122.876H1128.95L1133.32 132.353H1133.59L1137.96 122.876H1142.49V143H1138.78V131.651L1138.94 128.102H1138.66L1133.24 139.841L1127.82 128.102H1127.55L1127.71 131.651V143H1124V122.876ZM1164.27 122.876H1168.56L1158.81 146.9C1158.29 148.2 1157.6 149.175 1156.75 149.825C1155.91 150.475 1154.7 150.8 1153.12 150.8H1149.73V147.368H1154.48L1156.32 142.727L1148.2 122.876H1152.65L1155.85 131.3L1158.34 138.203H1158.58L1161.07 131.3L1164.27 122.876ZM1200.67 122.876H1211.47C1213.21 122.876 1214.57 123.344 1215.53 124.28C1216.49 125.19 1216.97 126.412 1216.97 127.946C1216.97 130.442 1215.61 131.898 1212.88 132.314V132.509C1214.54 132.639 1215.76 133.12 1216.54 133.952C1217.32 134.758 1217.71 135.824 1217.71 137.15C1217.71 137.956 1217.57 138.71 1217.28 139.412C1217.02 140.114 1216.63 140.738 1216.11 141.284C1215.59 141.804 1214.94 142.22 1214.16 142.532C1213.41 142.844 1212.55 143 1211.59 143H1200.67V122.876ZM1210.69 139.802C1211.52 139.802 1212.17 139.607 1212.64 139.217C1213.11 138.801 1213.34 138.216 1213.34 137.462V136.526C1213.34 135.772 1213.11 135.187 1212.64 134.771C1212.2 134.355 1211.6 134.147 1210.85 134.147H1204.92V139.802H1210.69ZM1210.3 131.3C1211 131.3 1211.56 131.105 1211.98 130.715C1212.39 130.325 1212.6 129.792 1212.6 129.116V128.258C1212.6 127.582 1212.39 127.049 1211.98 126.659C1211.56 126.269 1211 126.074 1210.3 126.074H1204.92V131.3H1210.3ZM1225.34 122.876H1229.55V131.534L1229.16 136.994H1229.36L1238.25 122.876H1242.27V143H1238.05V134.342L1238.44 128.882H1238.25L1229.36 143H1225.34V122.876ZM1247.91 139.568H1250.21C1250.96 138.372 1251.56 136.929 1252 135.239C1252.44 133.523 1252.66 131.495 1252.66 129.155V122.876H1266.39V139.568H1269.63V148.46H1265.81V143H1251.73V148.46H1247.91V139.568ZM1262.22 139.568V126.308H1256.64V129.311C1256.64 131.599 1256.46 133.575 1256.1 135.239C1255.76 136.877 1255.25 138.32 1254.57 139.568H1262.22ZM1289.97 122.876H1294.26L1284.51 146.9C1283.99 148.2 1283.3 149.175 1282.44 149.825C1281.61 150.475 1280.4 150.8 1278.82 150.8H1275.42V147.368H1280.18L1282.02 142.727L1273.9 122.876H1278.35L1281.55 131.3L1284.04 138.203H1284.28L1286.77 131.3L1289.97 122.876ZM208.661 182.778H224.417V186.444H213.029V210H208.661V182.778ZM248.27 210C247.048 210 246.125 209.688 245.501 209.064C244.903 208.44 244.539 207.621 244.409 206.607H244.214C243.824 207.829 243.109 208.778 242.069 209.454C241.055 210.13 239.755 210.468 238.169 210.468C236.115 210.468 234.477 209.935 233.255 208.869C232.033 207.777 231.422 206.282 231.422 204.384C231.422 202.434 232.137 200.952 233.567 199.938C235.023 198.898 237.246 198.378 240.236 198.378H244.097V196.818C244.097 194.088 242.654 192.723 239.768 192.723C238.468 192.723 237.415 192.983 236.609 193.503C235.803 193.997 235.127 194.66 234.581 195.492L232.046 193.425C232.618 192.333 233.58 191.397 234.932 190.617C236.284 189.811 238.026 189.408 240.158 189.408C242.706 189.408 244.708 190.019 246.164 191.241C247.62 192.463 248.348 194.231 248.348 196.545V206.646H250.883V210H248.27ZM239.378 207.348C240.756 207.348 241.887 207.036 242.771 206.412C243.655 205.788 244.097 204.982 244.097 203.994V201.069H240.314C237.246 201.069 235.712 201.992 235.712 203.838V204.618C235.712 205.528 236.037 206.217 236.687 206.685C237.337 207.127 238.234 207.348 239.378 207.348ZM255.158 206.568H257.771C258.109 206.126 258.408 205.619 258.668 205.047C258.954 204.449 259.175 203.734 259.331 202.902C259.513 202.07 259.643 201.108 259.721 200.016C259.825 198.924 259.877 197.65 259.877 196.194V189.876H274.112V210H269.861V193.308H263.855V196.272C263.855 199.678 263.608 202.343 263.114 204.267C262.62 206.191 261.944 207.595 261.086 208.479C260.488 209.103 259.799 209.519 259.019 209.727C258.239 209.909 257.42 210 256.562 210H255.158V206.568ZM298.55 210C297.328 210 296.405 209.688 295.781 209.064C295.183 208.44 294.819 207.621 294.689 206.607H294.494C294.104 207.829 293.389 208.778 292.349 209.454C291.335 210.13 290.035 210.468 288.449 210.468C286.395 210.468 284.757 209.935 283.535 208.869C282.313 207.777 281.702 206.282 281.702 204.384C281.702 202.434 282.417 200.952 283.847 199.938C285.303 198.898 287.526 198.378 290.516 198.378H294.377V196.818C294.377 194.088 292.934 192.723 290.048 192.723C288.748 192.723 287.695 192.983 286.889 193.503C286.083 193.997 285.407 194.66 284.861 195.492L282.326 193.425C282.898 192.333 283.86 191.397 285.212 190.617C286.564 189.811 288.306 189.408 290.438 189.408C292.986 189.408 294.988 190.019 296.444 191.241C297.9 192.463 298.628 194.231 298.628 196.545V206.646H301.163V210H298.55ZM289.658 207.348C291.036 207.348 292.167 207.036 293.051 206.412C293.935 205.788 294.377 204.982 294.377 203.994V201.069H290.594C287.526 201.069 285.992 201.992 285.992 203.838V204.618C285.992 205.528 286.317 206.217 286.967 206.685C287.617 207.127 288.514 207.348 289.658 207.348ZM308.089 189.876H312.34V197.988H315.967L320.803 189.876H325.366L320.881 197.208C320.439 197.962 320.01 198.495 319.594 198.807C319.178 199.119 318.697 199.34 318.151 199.47V199.665C318.775 199.795 319.295 200.029 319.711 200.367C320.127 200.679 320.556 201.225 320.998 202.005L323.533 206.568H325.717V210H323.221C322.363 210 321.622 209.805 320.998 209.415C320.4 208.999 319.841 208.336 319.321 207.426L315.967 201.42H312.34V210H308.089V189.876ZM339.196 193.308H332.137V189.876H350.545V193.308H343.447V210H339.196V193.308ZM358.018 189.876H362.23V198.534L361.84 203.994H362.035L370.927 189.876H374.944V210H370.732V201.342L371.122 195.882H370.927L362.035 210H358.018V189.876ZM383.509 189.876H387.76V197.988H391.387L396.223 189.876H400.786L396.301 197.208C395.859 197.962 395.43 198.495 395.014 198.807C394.598 199.119 394.117 199.34 393.571 199.47V199.665C394.195 199.795 394.715 200.029 395.131 200.367C395.547 200.679 395.976 201.225 396.418 202.005L398.953 206.568H401.137V210H398.641C397.783 210 397.042 209.805 396.418 209.415C395.82 208.999 395.261 208.336 394.741 207.426L391.387 201.42H387.76V210H383.509V189.876ZM408.298 189.876H412.51V198.534L412.12 203.994H412.315L421.207 189.876H425.224V210H421.012V201.342L421.402 195.882H421.207L412.315 210H408.298V189.876ZM439.716 204.072H445.761L440.925 215.655H437.61L439.716 204.072ZM483.756 189.876H488.007V197.988H496.353V189.876H500.604V210H496.353V201.42H488.007V210H483.756V189.876ZM517.32 210.468C515.838 210.468 514.499 210.221 513.303 209.727C512.133 209.233 511.132 208.531 510.3 207.621C509.494 206.711 508.87 205.606 508.428 204.306C507.986 203.006 507.765 201.55 507.765 199.938C507.765 198.326 507.986 196.87 508.428 195.57C508.87 194.27 509.494 193.165 510.3 192.255C511.132 191.345 512.133 190.643 513.303 190.149C514.499 189.655 515.838 189.408 517.32 189.408C518.802 189.408 520.128 189.655 521.298 190.149C522.494 190.643 523.495 191.345 524.301 192.255C525.133 193.165 525.77 194.27 526.212 195.57C526.654 196.87 526.875 198.326 526.875 199.938C526.875 201.55 526.654 203.006 526.212 204.306C525.77 205.606 525.133 206.711 524.301 207.621C523.495 208.531 522.494 209.233 521.298 209.727C520.128 210.221 518.802 210.468 517.32 210.468ZM517.32 207.114C518.88 207.114 520.115 206.646 521.025 205.71C521.961 204.748 522.429 203.331 522.429 201.459V198.417C522.429 196.545 521.961 195.141 521.025 194.205C520.115 193.243 518.88 192.762 517.32 192.762C515.76 192.762 514.512 193.243 513.576 194.205C512.666 195.141 512.211 196.545 512.211 198.417V201.459C512.211 203.331 512.666 204.748 513.576 205.71C514.512 206.646 515.76 207.114 517.32 207.114ZM559.136 189.876H563.348V198.534L562.958 203.994H563.153L572.045 189.876H576.062V210H571.85V201.342L572.24 195.882H572.045L563.153 210H559.136V189.876ZM609.416 189.876H613.628V198.534L613.238 203.994H613.433L622.325 189.876H626.342V210H622.13V201.342L622.52 195.882H622.325L613.433 210H609.416V189.876ZM642.472 210.468C640.288 210.468 638.468 210.13 637.012 209.454C635.556 208.778 634.399 207.842 633.541 206.646L636.271 204.228C636.947 205.164 637.766 205.879 638.728 206.373C639.716 206.841 640.951 207.075 642.433 207.075C643.993 207.075 645.15 206.815 645.904 206.295C646.658 205.775 647.035 205.099 647.035 204.267V203.877C647.035 203.045 646.775 202.408 646.255 201.966C645.735 201.524 644.942 201.303 643.876 201.303H638.767V198.183H643.447C644.539 198.183 645.332 197.975 645.826 197.559C646.346 197.117 646.606 196.506 646.606 195.726V195.336C646.606 194.582 646.281 193.971 645.631 193.503C644.981 193.035 643.902 192.801 642.394 192.801C640.99 192.801 639.833 193.035 638.923 193.503C638.013 193.945 637.22 194.595 636.544 195.453L633.931 193.347C634.893 192.099 636.05 191.137 637.402 190.461C638.78 189.759 640.561 189.408 642.745 189.408C645.449 189.408 647.503 189.915 648.907 190.929C650.311 191.917 651.013 193.23 651.013 194.868C651.013 196.064 650.662 197.039 649.96 197.793C649.284 198.547 648.335 199.067 647.113 199.353V199.509C648.439 199.717 649.479 200.237 650.233 201.069C651.013 201.875 651.403 202.941 651.403 204.267C651.403 206.139 650.623 207.647 649.063 208.791C647.503 209.909 645.306 210.468 642.472 210.468ZM658.174 189.876H662.035V196.506H664.882C666.936 196.506 668.587 197.091 669.835 198.261C671.109 199.431 671.746 201.095 671.746 203.253C671.746 205.411 671.109 207.075 669.835 208.245C668.587 209.415 666.936 210 664.882 210H658.174V189.876ZM664.609 206.802C665.597 206.802 666.364 206.581 666.91 206.139C667.482 205.671 667.768 204.943 667.768 203.955V202.551C667.768 201.563 667.482 200.848 666.91 200.406C666.364 199.938 665.597 199.704 664.609 199.704H662.035V206.802H664.609ZM674.281 189.876H678.142V210H674.281V189.876ZM694.039 210.468C692.531 210.468 691.179 210.221 689.983 209.727C688.813 209.233 687.812 208.531 686.98 207.621C686.174 206.711 685.55 205.606 685.108 204.306C684.692 203.006 684.484 201.55 684.484 199.938C684.484 198.326 684.692 196.87 685.108 195.57C685.55 194.27 686.174 193.165 686.98 192.255C687.812 191.345 688.813 190.643 689.983 190.149C691.179 189.655 692.518 189.408 694 189.408C696.08 189.408 697.744 189.85 698.992 190.734C700.266 191.618 701.215 192.762 701.839 194.166L698.524 195.96C698.16 195.024 697.601 194.283 696.847 193.737C696.119 193.191 695.17 192.918 694 192.918C692.388 192.918 691.14 193.412 690.256 194.4C689.372 195.362 688.93 196.649 688.93 198.261V201.615C688.93 203.201 689.372 204.488 690.256 205.476C691.14 206.464 692.414 206.958 694.078 206.958C695.326 206.958 696.34 206.672 697.12 206.1C697.926 205.528 698.563 204.748 699.031 203.76L702.151 205.671C701.501 207.075 700.513 208.232 699.187 209.142C697.861 210.026 696.145 210.468 694.039 210.468ZM710.326 189.876H714.577V197.988H718.204L723.04 189.876H727.603L723.118 197.208C722.676 197.962 722.247 198.495 721.831 198.807C721.415 199.119 720.934 199.34 720.388 199.47V199.665C721.012 199.795 721.532 200.029 721.948 200.367C722.364 200.679 722.793 201.225 723.235 202.005L725.77 206.568H727.954V210H725.458C724.6 210 723.859 209.805 723.235 209.415C722.637 208.999 722.078 208.336 721.558 207.426L718.204 201.42H714.577V210H710.326V189.876ZM751.066 210C749.844 210 748.921 209.688 748.297 209.064C747.699 208.44 747.335 207.621 747.205 206.607H747.01C746.62 207.829 745.905 208.778 744.865 209.454C743.851 210.13 742.551 210.468 740.965 210.468C738.911 210.468 737.273 209.935 736.051 208.869C734.829 207.777 734.218 206.282 734.218 204.384C734.218 202.434 734.933 200.952 736.363 199.938C737.819 198.898 740.042 198.378 743.032 198.378H746.893V196.818C746.893 194.088 745.45 192.723 742.564 192.723C741.264 192.723 740.211 192.983 739.405 193.503C738.599 193.997 737.923 194.66 737.377 195.492L734.842 193.425C735.414 192.333 736.376 191.397 737.728 190.617C739.08 189.811 740.822 189.408 742.954 189.408C745.502 189.408 747.504 190.019 748.96 191.241C750.416 192.463 751.144 194.231 751.144 196.545V206.646H753.679V210H751.066ZM742.174 207.348C743.552 207.348 744.683 207.036 745.567 206.412C746.451 205.788 746.893 204.982 746.893 203.994V201.069H743.11C740.042 201.069 738.508 201.992 738.508 203.838V204.618C738.508 205.528 738.833 206.217 739.483 206.685C740.133 207.127 741.03 207.348 742.174 207.348ZM759.474 189.876H764.427L768.795 199.353H769.068L773.436 189.876H777.96V210H774.255V198.651L774.411 195.102H774.138L768.717 206.841L763.296 195.102H763.023L763.179 198.651V210H759.474V189.876ZM810.612 189.876H827.382V210H823.131V193.308H814.863V210H810.612V189.876ZM844.137 210.468C842.655 210.468 841.316 210.221 840.12 209.727C838.95 209.233 837.949 208.531 837.117 207.621C836.311 206.711 835.687 205.606 835.245 204.306C834.803 203.006 834.582 201.55 834.582 199.938C834.582 198.326 834.803 196.87 835.245 195.57C835.687 194.27 836.311 193.165 837.117 192.255C837.949 191.345 838.95 190.643 840.12 190.149C841.316 189.655 842.655 189.408 844.137 189.408C845.619 189.408 846.945 189.655 848.115 190.149C849.311 190.643 850.312 191.345 851.118 192.255C851.95 193.165 852.587 194.27 853.029 195.57C853.471 196.87 853.692 198.326 853.692 199.938C853.692 201.55 853.471 203.006 853.029 204.306C852.587 205.606 851.95 206.711 851.118 207.621C850.312 208.531 849.311 209.233 848.115 209.727C846.945 210.221 845.619 210.468 844.137 210.468ZM844.137 207.114C845.697 207.114 846.932 206.646 847.842 205.71C848.778 204.748 849.246 203.331 849.246 201.459V198.417C849.246 196.545 848.778 195.141 847.842 194.205C846.932 193.243 845.697 192.762 844.137 192.762C842.577 192.762 841.329 193.243 840.393 194.205C839.483 195.141 839.028 196.545 839.028 198.417V201.459C839.028 203.331 839.483 204.748 840.393 205.71C841.329 206.646 842.577 207.114 844.137 207.114ZM860.657 189.876H864.908V193.308H865.142C865.74 192.086 866.533 191.137 867.521 190.461C868.509 189.759 869.744 189.408 871.226 189.408C873.592 189.408 875.477 190.292 876.881 192.06C878.285 193.828 878.987 196.454 878.987 199.938C878.987 203.422 878.285 206.048 876.881 207.816C875.477 209.584 873.592 210.468 871.226 210.468C869.744 210.468 868.509 210.13 867.521 209.454C866.533 208.752 865.74 207.79 865.142 206.568H864.908V217.8H860.657V189.876ZM869.471 206.997C871.083 206.997 872.318 206.503 873.176 205.515C874.06 204.527 874.502 203.214 874.502 201.576V198.3C874.502 196.662 874.06 195.349 873.176 194.361C872.318 193.373 871.083 192.879 869.471 192.879C868.847 192.879 868.262 192.957 867.716 193.113C867.17 193.269 866.689 193.503 866.273 193.815C865.857 194.127 865.519 194.517 865.259 194.985C865.025 195.427 864.908 195.96 864.908 196.584V203.292C864.908 203.916 865.025 204.462 865.259 204.93C865.519 205.372 865.857 205.749 866.273 206.061C866.689 206.373 867.17 206.607 867.716 206.763C868.262 206.919 868.847 206.997 869.471 206.997ZM892.271 193.308H885.212V189.876H903.62V193.308H896.522V210H892.271V193.308ZM927.044 210C925.822 210 924.899 209.688 924.275 209.064C923.677 208.44 923.313 207.621 923.183 206.607H922.988C922.598 207.829 921.883 208.778 920.843 209.454C919.829 210.13 918.529 210.468 916.943 210.468C914.889 210.468 913.251 209.935 912.029 208.869C910.807 207.777 910.196 206.282 910.196 204.384C910.196 202.434 910.911 200.952 912.341 199.938C913.797 198.898 916.02 198.378 919.01 198.378H922.871V196.818C922.871 194.088 921.428 192.723 918.542 192.723C917.242 192.723 916.189 192.983 915.383 193.503C914.577 193.997 913.901 194.66 913.355 195.492L910.82 193.425C911.392 192.333 912.354 191.397 913.706 190.617C915.058 189.811 916.8 189.408 918.932 189.408C921.48 189.408 923.482 190.019 924.938 191.241C926.394 192.463 927.122 194.231 927.122 196.545V206.646H929.657V210H927.044ZM918.152 207.348C919.53 207.348 920.661 207.036 921.545 206.412C922.429 205.788 922.871 204.982 922.871 203.994V201.069H919.088C916.02 201.069 914.486 201.992 914.486 203.838V204.618C914.486 205.528 914.811 206.217 915.461 206.685C916.111 207.127 917.008 207.348 918.152 207.348ZM942.551 193.308H935.492V189.876H953.9V193.308H946.802V210H942.551V193.308ZM961.372 189.876H965.584V198.534L965.194 203.994H965.389L974.281 189.876H978.298V210H974.086V201.342L974.476 195.882H974.281L965.389 210H961.372V189.876ZM986.98 189.876H997.783C999.525 189.876 1000.88 190.344 1001.84 191.28C1002.8 192.19 1003.28 193.412 1003.28 194.946C1003.28 197.442 1001.92 198.898 999.187 199.314V199.509C1000.85 199.639 1002.07 200.12 1002.85 200.952C1003.63 201.758 1004.02 202.824 1004.02 204.15C1004.02 204.956 1003.88 205.71 1003.59 206.412C1003.33 207.114 1002.94 207.738 1002.42 208.284C1001.9 208.804 1001.25 209.22 1000.47 209.532C999.72 209.844 998.862 210 997.9 210H986.98V189.876ZM997.003 206.802C997.835 206.802 998.485 206.607 998.953 206.217C999.421 205.801 999.655 205.216 999.655 204.462V203.526C999.655 202.772 999.421 202.187 998.953 201.771C998.511 201.355 997.913 201.147 997.159 201.147H991.231V206.802H997.003ZM996.613 198.3C997.315 198.3 997.874 198.105 998.29 197.715C998.706 197.325 998.914 196.792 998.914 196.116V195.258C998.914 194.582 998.706 194.049 998.29 193.659C997.874 193.269 997.315 193.074 996.613 193.074H991.231V198.3H996.613ZM1011.69 189.876H1015.94V197.988H1024.29V189.876H1028.54V210H1024.29V201.42H1015.94V210H1011.69V189.876ZM1045.25 210.468C1043.77 210.468 1042.43 210.221 1041.24 209.727C1040.07 209.233 1039.07 208.531 1038.23 207.621C1037.43 206.711 1036.8 205.606 1036.36 204.306C1035.92 203.006 1035.7 201.55 1035.7 199.938C1035.7 198.326 1035.92 196.87 1036.36 195.57C1036.8 194.27 1037.43 193.165 1038.23 192.255C1039.07 191.345 1040.07 190.643 1041.24 190.149C1042.43 189.655 1043.77 189.408 1045.25 189.408C1046.74 189.408 1048.06 189.655 1049.23 190.149C1050.43 190.643 1051.43 191.345 1052.24 192.255C1053.07 193.165 1053.7 194.27 1054.15 195.57C1054.59 196.87 1054.81 198.326 1054.81 199.938C1054.81 201.55 1054.59 203.006 1054.15 204.306C1053.7 205.606 1053.07 206.711 1052.24 207.621C1051.43 208.531 1050.43 209.233 1049.23 209.727C1048.06 210.221 1046.74 210.468 1045.25 210.468ZM1045.25 207.114C1046.81 207.114 1048.05 206.646 1048.96 205.71C1049.9 204.748 1050.36 203.331 1050.36 201.459V198.417C1050.36 196.545 1049.9 195.141 1048.96 194.205C1048.05 193.243 1046.81 192.762 1045.25 192.762C1043.69 192.762 1042.45 193.243 1041.51 194.205C1040.6 195.141 1040.15 196.545 1040.15 198.417V201.459C1040.15 203.331 1040.6 204.748 1041.51 205.71C1042.45 206.646 1043.69 207.114 1045.25 207.114ZM1063.73 189.876H1078.51V193.308H1067.98V210H1063.73V189.876ZM1095.53 210.468C1094.05 210.468 1092.71 210.221 1091.52 209.727C1090.35 209.233 1089.35 208.531 1088.51 207.621C1087.71 206.711 1087.08 205.606 1086.64 204.306C1086.2 203.006 1085.98 201.55 1085.98 199.938C1085.98 198.326 1086.2 196.87 1086.64 195.57C1087.08 194.27 1087.71 193.165 1088.51 192.255C1089.35 191.345 1090.35 190.643 1091.52 190.149C1092.71 189.655 1094.05 189.408 1095.53 189.408C1097.02 189.408 1098.34 189.655 1099.51 190.149C1100.71 190.643 1101.71 191.345 1102.52 192.255C1103.35 193.165 1103.98 194.27 1104.43 195.57C1104.87 196.87 1105.09 198.326 1105.09 199.938C1105.09 201.55 1104.87 203.006 1104.43 204.306C1103.98 205.606 1103.35 206.711 1102.52 207.621C1101.71 208.531 1100.71 209.233 1099.51 209.727C1098.34 210.221 1097.02 210.468 1095.53 210.468ZM1095.53 207.114C1097.09 207.114 1098.33 206.646 1099.24 205.71C1100.18 204.748 1100.64 203.331 1100.64 201.459V198.417C1100.64 196.545 1100.18 195.141 1099.24 194.205C1098.33 193.243 1097.09 192.762 1095.53 192.762C1093.97 192.762 1092.73 193.243 1091.79 194.205C1090.88 195.141 1090.43 196.545 1090.43 198.417V201.459C1090.43 203.331 1090.88 204.748 1091.79 205.71C1092.73 206.646 1093.97 207.114 1095.53 207.114ZM1136.57 189.876H1141.52L1145.89 199.353H1146.16L1150.53 189.876H1155.06V210H1151.35V198.651L1151.51 195.102H1151.23L1145.81 206.841L1140.39 195.102H1140.12L1140.28 198.651V210H1136.57V189.876ZM1171.38 210.468C1169.85 210.468 1168.47 210.221 1167.25 209.727C1166.03 209.233 1165 208.531 1164.17 207.621C1163.34 206.711 1162.7 205.619 1162.26 204.345C1161.81 203.045 1161.59 201.589 1161.59 199.977C1161.59 198.365 1161.81 196.909 1162.26 195.609C1162.72 194.309 1163.36 193.204 1164.17 192.294C1165 191.358 1166 190.643 1167.17 190.149C1168.34 189.655 1169.64 189.408 1171.07 189.408C1172.47 189.408 1173.75 189.655 1174.89 190.149C1176.04 190.617 1177.01 191.293 1177.82 192.177C1178.62 193.061 1179.23 194.114 1179.65 195.336C1180.09 196.558 1180.31 197.91 1180.31 199.392V200.991H1165.88V201.654C1165.88 203.24 1166.38 204.54 1167.37 205.554C1168.35 206.542 1169.72 207.036 1171.46 207.036C1172.76 207.036 1173.87 206.763 1174.78 206.217C1175.71 205.645 1176.47 204.891 1177.04 203.955L1179.69 206.295C1179.01 207.465 1177.97 208.453 1176.57 209.259C1175.19 210.065 1173.46 210.468 1171.38 210.468ZM1171.07 192.645C1170.32 192.645 1169.61 192.775 1168.96 193.035C1168.34 193.295 1167.79 193.672 1167.33 194.166C1166.88 194.634 1166.53 195.193 1166.27 195.843C1166.01 196.493 1165.88 197.208 1165.88 197.988V198.261H1175.98V197.871C1175.98 196.285 1175.53 195.024 1174.62 194.088C1173.74 193.126 1172.55 192.645 1171.07 192.645ZM1187.67 189.876H1191.92V197.988H1200.27V189.876H1204.52V210H1200.27V201.42H1191.92V210H1187.67V189.876ZM1224.78 210.468C1223.74 210.468 1222.82 210.312 1222.01 210C1221.23 209.714 1220.56 209.22 1219.99 208.518C1219.44 207.79 1219.01 206.841 1218.7 205.671C1218.41 204.501 1218.23 203.032 1218.15 201.264H1214.95V210H1211.25V189.876H1214.95V198.144H1218.19C1218.27 196.48 1218.46 195.089 1218.78 193.971C1219.11 192.853 1219.56 191.956 1220.1 191.28C1220.65 190.604 1221.31 190.123 1222.09 189.837C1222.87 189.551 1223.77 189.408 1224.78 189.408C1225.87 189.408 1226.84 189.577 1227.67 189.915C1228.5 190.253 1229.19 190.825 1229.74 191.631C1230.31 192.437 1230.72 193.516 1230.98 194.868C1231.27 196.22 1231.41 197.91 1231.41 199.938C1231.41 201.966 1231.27 203.656 1230.98 205.008C1230.7 206.36 1230.28 207.439 1229.74 208.245C1229.19 209.051 1228.5 209.623 1227.67 209.961C1226.84 210.299 1225.87 210.468 1224.78 210.468ZM1224.78 207.231C1225.25 207.231 1225.65 207.153 1225.99 206.997C1226.36 206.841 1226.64 206.568 1226.85 206.178C1227.08 205.788 1227.25 205.255 1227.36 204.579C1227.49 203.877 1227.55 202.98 1227.55 201.888V197.988C1227.55 196.896 1227.49 196.012 1227.36 195.336C1227.25 194.634 1227.08 194.088 1226.85 193.698C1226.64 193.308 1226.36 193.035 1225.99 192.879C1225.65 192.723 1225.25 192.645 1224.78 192.645C1224.31 192.645 1223.9 192.723 1223.53 192.879C1223.2 193.035 1222.91 193.308 1222.68 193.698C1222.47 194.088 1222.3 194.634 1222.17 195.336C1222.07 196.012 1222.01 196.896 1222.01 197.988V201.888C1222.01 202.98 1222.07 203.877 1222.17 204.579C1222.3 205.255 1222.47 205.788 1222.68 206.178C1222.91 206.568 1223.2 206.841 1223.53 206.997C1223.9 207.153 1224.31 207.231 1224.78 207.231ZM1246.37 210.39C1245.12 210.39 1244.24 210.13 1243.72 209.61C1243.23 209.09 1242.98 208.453 1242.98 207.699V206.685C1242.98 205.931 1243.23 205.294 1243.72 204.774C1244.24 204.254 1245.12 203.994 1246.37 203.994C1247.62 203.994 1248.49 204.254 1248.99 204.774C1249.51 205.294 1249.77 205.931 1249.77 206.685V207.699C1249.77 208.453 1249.51 209.09 1248.99 209.61C1248.49 210.13 1247.62 210.39 1246.37 210.39Z" fill="white"/>
</svg>
