<svg width="1711" height="286" viewBox="0 0 1711 286" fill="none" xmlns="http://www.w3.org/2000/svg">
<path d="M1641.5 2H69.5C32.2208 2 2 32.2208 2 69.5C2 106.779 32.2208 137 69.5 137H102C122.435 137 139 153.565 139 174C139 194.435 155.565 211 176 211H212.5C232.658 211 249 227.342 249 247.5C249 267.658 265.342 284 285.5 284H1417.5C1437.66 284 1454 267.658 1454 247.5C1454 227.342 1470.34 211 1490.5 211H1531C1551.43 211 1568 194.435 1568 174C1568 153.565 1584.57 137 1605 137H1641.5C1678.78 137 1709 106.779 1709 69.5C1709 32.2208 1678.78 2 1641.5 2Z" fill="#242424" fill-opacity="0.7" stroke="white" stroke-width="3"/>
<path d="M129.561 56.778H138.96C141.43 56.778 143.341 57.415 144.693 58.689C146.071 59.963 146.76 61.705 146.76 63.915C146.76 65.501 146.37 66.762 145.59 67.698C144.81 68.634 143.757 69.297 142.431 69.687V69.882C144.017 70.246 145.291 70.948 146.253 71.988C147.215 73.002 147.696 74.445 147.696 76.317C147.696 77.435 147.514 78.462 147.15 79.398C146.786 80.334 146.266 81.153 145.59 81.855C144.914 82.531 144.095 83.064 143.133 83.454C142.197 83.818 141.157 84 140.013 84H129.561V56.778ZM138.687 80.646C140.143 80.646 141.261 80.347 142.041 79.749C142.821 79.151 143.211 78.189 143.211 76.863V75.459C143.211 74.133 142.821 73.171 142.041 72.573C141.261 71.975 140.143 71.676 138.687 71.676H133.851V80.646H138.687ZM138.063 68.478C139.441 68.478 140.481 68.218 141.183 67.698C141.911 67.152 142.275 66.255 142.275 65.007V63.603C142.275 62.355 141.911 61.471 141.183 60.951C140.481 60.405 139.441 60.132 138.063 60.132H133.851V68.478H138.063ZM179.685 63.876H183.936V67.308H184.17C184.768 66.086 185.561 65.137 186.549 64.461C187.537 63.759 188.772 63.408 190.254 63.408C192.62 63.408 194.505 64.292 195.909 66.06C197.313 67.828 198.015 70.454 198.015 73.938C198.015 77.422 197.313 80.048 195.909 81.816C194.505 83.584 192.62 84.468 190.254 84.468C188.772 84.468 187.537 84.13 186.549 83.454C185.561 82.752 184.768 81.79 184.17 80.568H183.936V91.8H179.685V63.876ZM188.499 80.997C190.111 80.997 191.346 80.503 192.204 79.515C193.088 78.527 193.53 77.214 193.53 75.576V72.3C193.53 70.662 193.088 69.349 192.204 68.361C191.346 67.373 190.111 66.879 188.499 66.879C187.875 66.879 187.29 66.957 186.744 67.113C186.198 67.269 185.717 67.503 185.301 67.815C184.885 68.127 184.547 68.517 184.287 68.985C184.053 69.427 183.936 69.96 183.936 70.584V77.292C183.936 77.916 184.053 78.462 184.287 78.93C184.547 79.372 184.885 79.749 185.301 80.061C185.717 80.373 186.198 80.607 186.744 80.763C187.29 80.919 187.875 80.997 188.499 80.997ZM213.873 84.468C212.339 84.468 210.961 84.221 209.739 83.727C208.517 83.233 207.49 82.531 206.658 81.621C205.826 80.711 205.189 79.619 204.747 78.345C204.305 77.045 204.084 75.589 204.084 73.977C204.084 72.365 204.305 70.909 204.747 69.609C205.215 68.309 205.852 67.204 206.658 66.294C207.49 65.358 208.491 64.643 209.661 64.149C210.831 63.655 212.131 63.408 213.561 63.408C214.965 63.408 216.239 63.655 217.383 64.149C218.527 64.617 219.502 65.293 220.308 66.177C221.114 67.061 221.725 68.114 222.141 69.336C222.583 70.558 222.804 71.91 222.804 73.392V74.991H208.374V75.654C208.374 77.24 208.868 78.54 209.856 79.554C210.844 80.542 212.209 81.036 213.951 81.036C215.251 81.036 216.356 80.763 217.266 80.217C218.202 79.645 218.956 78.891 219.528 77.955L222.18 80.295C221.504 81.465 220.464 82.453 219.06 83.259C217.682 84.065 215.953 84.468 213.873 84.468ZM213.561 66.645C212.807 66.645 212.105 66.775 211.455 67.035C210.831 67.295 210.285 67.672 209.817 68.166C209.375 68.634 209.024 69.193 208.764 69.843C208.504 70.493 208.374 71.208 208.374 71.988V72.261H218.475V71.871C218.475 70.285 218.02 69.024 217.11 68.088C216.226 67.126 215.043 66.645 213.561 66.645ZM239.324 84.468C237.816 84.468 236.464 84.221 235.268 83.727C234.098 83.233 233.097 82.531 232.265 81.621C231.459 80.711 230.835 79.606 230.393 78.306C229.977 77.006 229.769 75.55 229.769 73.938C229.769 72.326 229.977 70.87 230.393 69.57C230.835 68.27 231.459 67.165 232.265 66.255C233.097 65.345 234.098 64.643 235.268 64.149C236.464 63.655 237.803 63.408 239.285 63.408C241.365 63.408 243.029 63.85 244.277 64.734C245.551 65.618 246.5 66.762 247.124 68.166L243.809 69.96C243.445 69.024 242.886 68.283 242.132 67.737C241.404 67.191 240.455 66.918 239.285 66.918C237.673 66.918 236.425 67.412 235.541 68.4C234.657 69.362 234.215 70.649 234.215 72.261V75.615C234.215 77.201 234.657 78.488 235.541 79.476C236.425 80.464 237.699 80.958 239.363 80.958C240.611 80.958 241.625 80.672 242.405 80.1C243.211 79.528 243.848 78.748 244.316 77.76L247.436 79.671C246.786 81.075 245.798 82.232 244.472 83.142C243.146 84.026 241.43 84.468 239.324 84.468ZM261.578 67.308H254.519V63.876H272.927V67.308H265.829V84H261.578V67.308ZM288.863 84.468C287.381 84.468 286.042 84.221 284.846 83.727C283.676 83.233 282.675 82.531 281.843 81.621C281.037 80.711 280.413 79.606 279.971 78.306C279.529 77.006 279.308 75.55 279.308 73.938C279.308 72.326 279.529 70.87 279.971 69.57C280.413 68.27 281.037 67.165 281.843 66.255C282.675 65.345 283.676 64.643 284.846 64.149C286.042 63.655 287.381 63.408 288.863 63.408C290.345 63.408 291.671 63.655 292.841 64.149C294.037 64.643 295.038 65.345 295.844 66.255C296.676 67.165 297.313 68.27 297.755 69.57C298.197 70.87 298.418 72.326 298.418 73.938C298.418 75.55 298.197 77.006 297.755 78.306C297.313 79.606 296.676 80.711 295.844 81.621C295.038 82.531 294.037 83.233 292.841 83.727C291.671 84.221 290.345 84.468 288.863 84.468ZM288.863 81.114C290.423 81.114 291.658 80.646 292.568 79.71C293.504 78.748 293.972 77.331 293.972 75.459V72.417C293.972 70.545 293.504 69.141 292.568 68.205C291.658 67.243 290.423 66.762 288.863 66.762C287.303 66.762 286.055 67.243 285.119 68.205C284.209 69.141 283.754 70.545 283.754 72.417V75.459C283.754 77.331 284.209 78.748 285.119 79.71C286.055 80.646 287.303 81.114 288.863 81.114ZM305.384 63.876H309.635V67.308H309.869C310.467 66.086 311.26 65.137 312.248 64.461C313.236 63.759 314.471 63.408 315.953 63.408C318.319 63.408 320.204 64.292 321.608 66.06C323.012 67.828 323.714 70.454 323.714 73.938C323.714 77.422 323.012 80.048 321.608 81.816C320.204 83.584 318.319 84.468 315.953 84.468C314.471 84.468 313.236 84.13 312.248 83.454C311.26 82.752 310.467 81.79 309.869 80.568H309.635V91.8H305.384V63.876ZM314.198 80.997C315.81 80.997 317.045 80.503 317.903 79.515C318.787 78.527 319.229 77.214 319.229 75.576V72.3C319.229 70.662 318.787 69.349 317.903 68.361C317.045 67.373 315.81 66.879 314.198 66.879C313.574 66.879 312.989 66.957 312.443 67.113C311.897 67.269 311.416 67.503 311 67.815C310.584 68.127 310.246 68.517 309.986 68.985C309.752 69.427 309.635 69.96 309.635 70.584V77.292C309.635 77.916 309.752 78.462 309.986 78.93C310.246 79.372 310.584 79.749 311 80.061C311.416 80.373 311.897 80.607 312.443 80.763C312.989 80.919 313.574 80.997 314.198 80.997ZM346.63 84C345.408 84 344.485 83.688 343.861 83.064C343.263 82.44 342.899 81.621 342.769 80.607H342.574C342.184 81.829 341.469 82.778 340.429 83.454C339.415 84.13 338.115 84.468 336.529 84.468C334.475 84.468 332.837 83.935 331.615 82.869C330.393 81.777 329.782 80.282 329.782 78.384C329.782 76.434 330.497 74.952 331.927 73.938C333.383 72.898 335.606 72.378 338.596 72.378H342.457V70.818C342.457 68.088 341.014 66.723 338.128 66.723C336.828 66.723 335.775 66.983 334.969 67.503C334.163 67.997 333.487 68.66 332.941 69.492L330.406 67.425C330.978 66.333 331.94 65.397 333.292 64.617C334.644 63.811 336.386 63.408 338.518 63.408C341.066 63.408 343.068 64.019 344.524 65.241C345.98 66.463 346.708 68.231 346.708 70.545V80.646H349.243V84H346.63ZM337.738 81.348C339.116 81.348 340.247 81.036 341.131 80.412C342.015 79.788 342.457 78.982 342.457 77.994V75.069H338.674C335.606 75.069 334.072 75.992 334.072 77.838V78.618C334.072 79.528 334.397 80.217 335.047 80.685C335.697 81.127 336.594 81.348 337.738 81.348ZM355.858 63.876H360.109V71.988H368.455V63.876H372.706V84H368.455V75.42H360.109V84H355.858V63.876ZM389.851 84.468C388.317 84.468 386.939 84.221 385.717 83.727C384.495 83.233 383.468 82.531 382.636 81.621C381.804 80.711 381.167 79.619 380.725 78.345C380.283 77.045 380.062 75.589 380.062 73.977C380.062 72.365 380.283 70.909 380.725 69.609C381.193 68.309 381.83 67.204 382.636 66.294C383.468 65.358 384.469 64.643 385.639 64.149C386.809 63.655 388.109 63.408 389.539 63.408C390.943 63.408 392.217 63.655 393.361 64.149C394.505 64.617 395.48 65.293 396.286 66.177C397.092 67.061 397.703 68.114 398.119 69.336C398.561 70.558 398.782 71.91 398.782 73.392V74.991H384.352V75.654C384.352 77.24 384.846 78.54 385.834 79.554C386.822 80.542 388.187 81.036 389.929 81.036C391.229 81.036 392.334 80.763 393.244 80.217C394.18 79.645 394.934 78.891 395.506 77.955L398.158 80.295C397.482 81.465 396.442 82.453 395.038 83.259C393.66 84.065 391.931 84.468 389.851 84.468ZM389.539 66.645C388.785 66.645 388.083 66.775 387.433 67.035C386.809 67.295 386.263 67.672 385.795 68.166C385.353 68.634 385.002 69.193 384.742 69.843C384.482 70.493 384.352 71.208 384.352 71.988V72.261H394.453V71.871C394.453 70.285 393.998 69.024 393.088 68.088C392.204 67.126 391.021 66.645 389.539 66.645ZM408.673 74.25V69.999H420.451V74.25H408.673ZM439.701 84.468C438.219 84.468 436.88 84.221 435.684 83.727C434.514 83.233 433.513 82.531 432.681 81.621C431.875 80.711 431.251 79.606 430.809 78.306C430.367 77.006 430.146 75.55 430.146 73.938C430.146 72.326 430.367 70.87 430.809 69.57C431.251 68.27 431.875 67.165 432.681 66.255C433.513 65.345 434.514 64.643 435.684 64.149C436.88 63.655 438.219 63.408 439.701 63.408C441.183 63.408 442.509 63.655 443.679 64.149C444.875 64.643 445.876 65.345 446.682 66.255C447.514 67.165 448.151 68.27 448.593 69.57C449.035 70.87 449.256 72.326 449.256 73.938C449.256 75.55 449.035 77.006 448.593 78.306C448.151 79.606 447.514 80.711 446.682 81.621C445.876 82.531 444.875 83.233 443.679 83.727C442.509 84.221 441.183 84.468 439.701 84.468ZM439.701 81.114C441.261 81.114 442.496 80.646 443.406 79.71C444.342 78.748 444.81 77.331 444.81 75.459V72.417C444.81 70.545 444.342 69.141 443.406 68.205C442.496 67.243 441.261 66.762 439.701 66.762C438.141 66.762 436.893 67.243 435.957 68.205C435.047 69.141 434.592 70.545 434.592 72.417V75.459C434.592 77.331 435.047 78.748 435.957 79.71C436.893 80.646 438.141 81.114 439.701 81.114ZM464.88 84.468C463.45 84.468 462.15 84.221 460.98 83.727C459.836 83.233 458.848 82.492 458.016 81.504C457.21 80.516 456.586 79.281 456.144 77.799C455.702 76.291 455.481 74.536 455.481 72.534C455.481 69.492 455.689 66.905 456.105 64.773C456.521 62.615 457.184 60.86 458.094 59.508C459.004 58.13 460.161 57.103 461.565 56.427C462.995 55.751 464.711 55.348 466.713 55.218L472.836 54.867V58.845L466.791 59.196C465.569 59.274 464.542 59.482 463.71 59.82C462.904 60.132 462.241 60.639 461.721 61.341C461.201 62.043 460.798 62.953 460.512 64.071C460.252 65.163 460.07 66.528 459.966 68.166H460.2C460.694 66.866 461.409 65.865 462.345 65.163C463.281 64.461 464.49 64.11 465.972 64.11C467.194 64.11 468.312 64.331 469.326 64.773C470.366 65.215 471.25 65.865 471.978 66.723C472.706 67.555 473.265 68.595 473.655 69.843C474.071 71.091 474.279 72.508 474.279 74.094C474.279 75.654 474.058 77.084 473.616 78.384C473.174 79.658 472.537 80.75 471.705 81.66C470.899 82.544 469.911 83.233 468.741 83.727C467.597 84.221 466.31 84.468 464.88 84.468ZM464.841 81.114C466.323 81.114 467.519 80.646 468.429 79.71C469.365 78.748 469.833 77.409 469.833 75.693V72.963C469.833 71.143 469.391 69.778 468.507 68.868C467.623 67.932 466.401 67.464 464.841 67.464C463.255 67.464 462.033 67.919 461.175 68.829C460.343 69.713 459.927 70.896 459.927 72.378V75.615C459.927 77.409 460.369 78.774 461.253 79.71C462.163 80.646 463.359 81.114 464.841 81.114ZM490.722 84.468C489.214 84.468 487.862 84.221 486.666 83.727C485.496 83.233 484.495 82.531 483.663 81.621C482.857 80.711 482.233 79.606 481.791 78.306C481.375 77.006 481.167 75.55 481.167 73.938C481.167 72.326 481.375 70.87 481.791 69.57C482.233 68.27 482.857 67.165 483.663 66.255C484.495 65.345 485.496 64.643 486.666 64.149C487.862 63.655 489.201 63.408 490.683 63.408C492.763 63.408 494.427 63.85 495.675 64.734C496.949 65.618 497.898 66.762 498.522 68.166L495.207 69.96C494.843 69.024 494.284 68.283 493.53 67.737C492.802 67.191 491.853 66.918 490.683 66.918C489.071 66.918 487.823 67.412 486.939 68.4C486.055 69.362 485.613 70.649 485.613 72.261V75.615C485.613 77.201 486.055 78.488 486.939 79.476C487.823 80.464 489.097 80.958 490.761 80.958C492.009 80.958 493.023 80.672 493.803 80.1C494.609 79.528 495.246 78.748 495.714 77.76L498.834 79.671C498.184 81.075 497.196 82.232 495.87 83.142C494.544 84.026 492.828 84.468 490.722 84.468ZM515.55 84.468C514.016 84.468 512.638 84.221 511.416 83.727C510.194 83.233 509.167 82.531 508.335 81.621C507.503 80.711 506.866 79.619 506.424 78.345C505.982 77.045 505.761 75.589 505.761 73.977C505.761 72.365 505.982 70.909 506.424 69.609C506.892 68.309 507.529 67.204 508.335 66.294C509.167 65.358 510.168 64.643 511.338 64.149C512.508 63.655 513.808 63.408 515.238 63.408C516.642 63.408 517.916 63.655 519.06 64.149C520.204 64.617 521.179 65.293 521.985 66.177C522.791 67.061 523.402 68.114 523.818 69.336C524.26 70.558 524.481 71.91 524.481 73.392V74.991H510.051V75.654C510.051 77.24 510.545 78.54 511.533 79.554C512.521 80.542 513.886 81.036 515.628 81.036C516.928 81.036 518.033 80.763 518.943 80.217C519.879 79.645 520.633 78.891 521.205 77.955L523.857 80.295C523.181 81.465 522.141 82.453 520.737 83.259C519.359 84.065 517.63 84.468 515.55 84.468ZM515.238 66.645C514.484 66.645 513.782 66.775 513.132 67.035C512.508 67.295 511.962 67.672 511.494 68.166C511.052 68.634 510.701 69.193 510.441 69.843C510.181 70.493 510.051 71.208 510.051 71.988V72.261H520.152V71.871C520.152 70.285 519.697 69.024 518.787 68.088C517.903 67.126 516.72 66.645 515.238 66.645ZM531.642 63.876H535.893V67.308H536.127C536.725 66.086 537.518 65.137 538.506 64.461C539.494 63.759 540.729 63.408 542.211 63.408C544.577 63.408 546.462 64.292 547.866 66.06C549.27 67.828 549.972 70.454 549.972 73.938C549.972 77.422 549.27 80.048 547.866 81.816C546.462 83.584 544.577 84.468 542.211 84.468C540.729 84.468 539.494 84.13 538.506 83.454C537.518 82.752 536.725 81.79 536.127 80.568H535.893V91.8H531.642V63.876ZM540.456 80.997C542.068 80.997 543.303 80.503 544.161 79.515C545.045 78.527 545.487 77.214 545.487 75.576V72.3C545.487 70.662 545.045 69.349 544.161 68.361C543.303 67.373 542.068 66.879 540.456 66.879C539.832 66.879 539.247 66.957 538.701 67.113C538.155 67.269 537.674 67.503 537.258 67.815C536.842 68.127 536.504 68.517 536.244 68.985C536.01 69.427 535.893 69.96 535.893 70.584V77.292C535.893 77.916 536.01 78.462 536.244 78.93C536.504 79.372 536.842 79.749 537.258 80.061C537.674 80.373 538.155 80.607 538.701 80.763C539.247 80.919 539.832 80.997 540.456 80.997ZM557.405 63.876H568.208C569.95 63.876 571.302 64.344 572.264 65.28C573.226 66.19 573.707 67.412 573.707 68.946C573.707 71.442 572.342 72.898 569.612 73.314V73.509C571.276 73.639 572.498 74.12 573.278 74.952C574.058 75.758 574.448 76.824 574.448 78.15C574.448 78.956 574.305 79.71 574.019 80.412C573.759 81.114 573.369 81.738 572.849 82.284C572.329 82.804 571.679 83.22 570.899 83.532C570.145 83.844 569.287 84 568.325 84H557.405V63.876ZM567.428 80.802C568.26 80.802 568.91 80.607 569.378 80.217C569.846 79.801 570.08 79.216 570.08 78.462V77.526C570.08 76.772 569.846 76.187 569.378 75.771C568.936 75.355 568.338 75.147 567.584 75.147H561.656V80.802H567.428ZM567.038 72.3C567.74 72.3 568.299 72.105 568.715 71.715C569.131 71.325 569.339 70.792 569.339 70.116V69.258C569.339 68.582 569.131 68.049 568.715 67.659C568.299 67.269 567.74 67.074 567.038 67.074H561.656V72.3H567.038ZM598.028 84C596.806 84 595.883 83.688 595.259 83.064C594.661 82.44 594.297 81.621 594.167 80.607H593.972C593.582 81.829 592.867 82.778 591.827 83.454C590.813 84.13 589.513 84.468 587.927 84.468C585.873 84.468 584.235 83.935 583.013 82.869C581.791 81.777 581.18 80.282 581.18 78.384C581.18 76.434 581.895 74.952 583.325 73.938C584.781 72.898 587.004 72.378 589.994 72.378H593.855V70.818C593.855 68.088 592.412 66.723 589.526 66.723C588.226 66.723 587.173 66.983 586.367 67.503C585.561 67.997 584.885 68.66 584.339 69.492L581.804 67.425C582.376 66.333 583.338 65.397 584.69 64.617C586.042 63.811 587.784 63.408 589.916 63.408C592.464 63.408 594.466 64.019 595.922 65.241C597.378 66.463 598.106 68.231 598.106 70.545V80.646H600.641V84H598.028ZM589.136 81.348C590.514 81.348 591.645 81.036 592.529 80.412C593.413 79.788 593.855 78.982 593.855 77.994V75.069H590.072C587.004 75.069 585.47 75.992 585.47 77.838V78.618C585.47 79.528 585.795 80.217 586.445 80.685C587.095 81.127 587.992 81.348 589.136 81.348ZM613.535 67.308H606.476V63.876H624.884V67.308H617.786V84H613.535V67.308ZM640.82 84.468C639.338 84.468 637.999 84.221 636.803 83.727C635.633 83.233 634.632 82.531 633.8 81.621C632.994 80.711 632.37 79.606 631.928 78.306C631.486 77.006 631.265 75.55 631.265 73.938C631.265 72.326 631.486 70.87 631.928 69.57C632.37 68.27 632.994 67.165 633.8 66.255C634.632 65.345 635.633 64.643 636.803 64.149C637.999 63.655 639.338 63.408 640.82 63.408C642.302 63.408 643.628 63.655 644.798 64.149C645.994 64.643 646.995 65.345 647.801 66.255C648.633 67.165 649.27 68.27 649.712 69.57C650.154 70.87 650.375 72.326 650.375 73.938C650.375 75.55 650.154 77.006 649.712 78.306C649.27 79.606 648.633 80.711 647.801 81.621C646.995 82.531 645.994 83.233 644.798 83.727C643.628 84.221 642.302 84.468 640.82 84.468ZM640.82 81.114C642.38 81.114 643.615 80.646 644.525 79.71C645.461 78.748 645.929 77.331 645.929 75.459V72.417C645.929 70.545 645.461 69.141 644.525 68.205C643.615 67.243 642.38 66.762 640.82 66.762C639.26 66.762 638.012 67.243 637.076 68.205C636.166 69.141 635.711 70.545 635.711 72.417V75.459C635.711 77.331 636.166 78.748 637.076 79.71C638.012 80.646 639.26 81.114 640.82 81.114ZM657.34 63.876H661.591V67.308H661.825C662.423 66.086 663.216 65.137 664.204 64.461C665.192 63.759 666.427 63.408 667.909 63.408C670.275 63.408 672.16 64.292 673.564 66.06C674.968 67.828 675.67 70.454 675.67 73.938C675.67 77.422 674.968 80.048 673.564 81.816C672.16 83.584 670.275 84.468 667.909 84.468C666.427 84.468 665.192 84.13 664.204 83.454C663.216 82.752 662.423 81.79 661.825 80.568H661.591V91.8H657.34V63.876ZM666.154 80.997C667.766 80.997 669.001 80.503 669.859 79.515C670.743 78.527 671.185 77.214 671.185 75.576V72.3C671.185 70.662 670.743 69.349 669.859 68.361C669.001 67.373 667.766 66.879 666.154 66.879C665.53 66.879 664.945 66.957 664.399 67.113C663.853 67.269 663.372 67.503 662.956 67.815C662.54 68.127 662.202 68.517 661.942 68.985C661.708 69.427 661.591 69.96 661.591 70.584V77.292C661.591 77.916 661.708 78.462 661.942 78.93C662.202 79.372 662.54 79.749 662.956 80.061C663.372 80.373 663.853 80.607 664.399 80.763C664.945 80.919 665.53 80.997 666.154 80.997ZM682.636 63.876H686.848V72.534L686.458 77.994H686.653L695.545 63.876H699.562V84H695.35V75.342L695.74 69.882H695.545L686.653 84H682.636V63.876ZM707.776 63.876H711.988V72.534L711.598 77.994H711.793L720.685 63.876H724.702V84H720.49V75.342L720.88 69.882H720.685L711.793 84H707.776V63.876ZM761.799 63.057H761.448V84H757.626V56.778H763.242L771.237 77.721H771.588V56.778H775.41V84H769.794L761.799 63.057ZM791.658 84.468C789.942 84.468 788.447 84.156 787.173 83.532C785.925 82.882 784.885 81.959 784.053 80.763C783.247 79.567 782.649 78.098 782.259 76.356C781.869 74.614 781.674 72.625 781.674 70.389C781.674 68.179 781.869 66.203 782.259 64.461C782.649 62.693 783.247 61.211 784.053 60.015C784.885 58.819 785.925 57.909 787.173 57.285C788.447 56.635 789.942 56.31 791.658 56.31C793.374 56.31 794.856 56.635 796.104 57.285C797.378 57.909 798.418 58.819 799.224 60.015C800.056 61.211 800.667 62.693 801.057 64.461C801.447 66.203 801.642 68.179 801.642 70.389C801.642 72.625 801.447 74.614 801.057 76.356C800.667 78.098 800.056 79.567 799.224 80.763C798.418 81.959 797.378 82.882 796.104 83.532C794.856 84.156 793.374 84.468 791.658 84.468ZM791.658 80.841C793.608 80.841 794.986 80.113 795.792 78.657C796.598 77.175 797.001 75.173 797.001 72.651V68.088C797.001 65.592 796.598 63.616 795.792 62.16C794.986 60.678 793.608 59.937 791.658 59.937C789.708 59.937 788.33 60.678 787.524 62.16C786.718 63.616 786.315 65.592 786.315 68.088V72.69C786.315 75.186 786.718 77.175 787.524 78.657C788.33 80.113 789.708 80.841 791.658 80.841ZM827.796 84H822.843L819.762 78.618L816.876 73.47H816.642L813.678 78.618L810.48 84H805.839L814.185 70.038L806.346 56.778H811.299L814.068 61.653L816.876 66.684H817.071L819.879 61.653L822.765 56.778H827.406L819.528 70.038L827.796 84ZM867.819 84.468C866.311 84.468 864.959 84.221 863.763 83.727C862.593 83.233 861.592 82.531 860.76 81.621C859.954 80.711 859.33 79.606 858.888 78.306C858.472 77.006 858.264 75.55 858.264 73.938C858.264 72.326 858.472 70.87 858.888 69.57C859.33 68.27 859.954 67.165 860.76 66.255C861.592 65.345 862.593 64.643 863.763 64.149C864.959 63.655 866.298 63.408 867.78 63.408C869.86 63.408 871.524 63.85 872.772 64.734C874.046 65.618 874.995 66.762 875.619 68.166L872.304 69.96C871.94 69.024 871.381 68.283 870.627 67.737C869.899 67.191 868.95 66.918 867.78 66.918C866.168 66.918 864.92 67.412 864.036 68.4C863.152 69.362 862.71 70.649 862.71 72.261V75.615C862.71 77.201 863.152 78.488 864.036 79.476C864.92 80.464 866.194 80.958 867.858 80.958C869.106 80.958 870.12 80.672 870.9 80.1C871.706 79.528 872.343 78.748 872.811 77.76L875.931 79.671C875.281 81.075 874.293 82.232 872.967 83.142C871.641 84.026 869.925 84.468 867.819 84.468ZM882.974 63.876H887.927L892.295 73.353H892.568L896.936 63.876H901.46V84H897.755V72.651L897.911 69.102H897.638L892.217 80.841L886.796 69.102H886.523L886.679 72.651V84H882.974V63.876ZM917.357 84.468C915.875 84.468 914.536 84.221 913.34 83.727C912.17 83.233 911.169 82.531 910.337 81.621C909.531 80.711 908.907 79.606 908.465 78.306C908.023 77.006 907.802 75.55 907.802 73.938C907.802 72.326 908.023 70.87 908.465 69.57C908.907 68.27 909.531 67.165 910.337 66.255C911.169 65.345 912.17 64.643 913.34 64.149C914.536 63.655 915.875 63.408 917.357 63.408C918.839 63.408 920.165 63.655 921.335 64.149C922.531 64.643 923.532 65.345 924.338 66.255C925.17 67.165 925.807 68.27 926.249 69.57C926.691 70.87 926.912 72.326 926.912 73.938C926.912 75.55 926.691 77.006 926.249 78.306C925.807 79.606 925.17 80.711 924.338 81.621C923.532 82.531 922.531 83.233 921.335 83.727C920.165 84.221 918.839 84.468 917.357 84.468ZM917.357 81.114C918.917 81.114 920.152 80.646 921.062 79.71C921.998 78.748 922.466 77.331 922.466 75.459V72.417C922.466 70.545 921.998 69.141 921.062 68.205C920.152 67.243 918.917 66.762 917.357 66.762C915.797 66.762 914.549 67.243 913.613 68.205C912.703 69.141 912.248 70.545 912.248 72.417V75.459C912.248 77.331 912.703 78.748 913.613 79.71C914.549 80.646 915.797 81.114 917.357 81.114ZM940.703 75.303H937.817L935.516 84H931.694L933.644 76.629C933.878 75.771 934.19 75.108 934.58 74.64C934.996 74.172 935.555 73.873 936.257 73.743V73.548C935.087 73.21 934.294 72.3 933.878 70.818L931.967 63.876H935.672L937.934 72.105H940.703V63.876H944.291V72.105H947.06L949.322 63.876H953.027L951.116 70.818C950.7 72.3 949.907 73.21 948.737 73.548V73.743C949.439 73.873 949.985 74.172 950.375 74.64C950.791 75.108 951.116 75.771 951.35 76.629L953.3 84H949.478L947.177 75.303H944.291V84H940.703V75.303ZM968.066 84.468C966.532 84.468 965.154 84.221 963.932 83.727C962.71 83.233 961.683 82.531 960.851 81.621C960.019 80.711 959.382 79.619 958.94 78.345C958.498 77.045 958.277 75.589 958.277 73.977C958.277 72.365 958.498 70.909 958.94 69.609C959.408 68.309 960.045 67.204 960.851 66.294C961.683 65.358 962.684 64.643 963.854 64.149C965.024 63.655 966.324 63.408 967.754 63.408C969.158 63.408 970.432 63.655 971.576 64.149C972.72 64.617 973.695 65.293 974.501 66.177C975.307 67.061 975.918 68.114 976.334 69.336C976.776 70.558 976.997 71.91 976.997 73.392V74.991H962.567V75.654C962.567 77.24 963.061 78.54 964.049 79.554C965.037 80.542 966.402 81.036 968.144 81.036C969.444 81.036 970.549 80.763 971.459 80.217C972.395 79.645 973.149 78.891 973.721 77.955L976.373 80.295C975.697 81.465 974.657 82.453 973.253 83.259C971.875 84.065 970.146 84.468 968.066 84.468ZM967.754 66.645C967 66.645 966.298 66.775 965.648 67.035C965.024 67.295 964.478 67.672 964.01 68.166C963.568 68.634 963.217 69.193 962.957 69.843C962.697 70.493 962.567 71.208 962.567 71.988V72.261H972.668V71.871C972.668 70.285 972.213 69.024 971.303 68.088C970.419 67.126 969.236 66.645 967.754 66.645ZM990.631 67.308H983.572V63.876H1001.98V67.308H994.882V84H990.631V67.308ZM1018.35 84.468C1016.81 84.468 1015.43 84.221 1014.21 83.727C1012.99 83.233 1011.96 82.531 1011.13 81.621C1010.3 80.711 1009.66 79.619 1009.22 78.345C1008.78 77.045 1008.56 75.589 1008.56 73.977C1008.56 72.365 1008.78 70.909 1009.22 69.609C1009.69 68.309 1010.32 67.204 1011.13 66.294C1011.96 65.358 1012.96 64.643 1014.13 64.149C1015.3 63.655 1016.6 63.408 1018.03 63.408C1019.44 63.408 1020.71 63.655 1021.86 64.149C1023 64.617 1023.97 65.293 1024.78 66.177C1025.59 67.061 1026.2 68.114 1026.61 69.336C1027.06 70.558 1027.28 71.91 1027.28 73.392V74.991H1012.85V75.654C1012.85 77.24 1013.34 78.54 1014.33 79.554C1015.32 80.542 1016.68 81.036 1018.42 81.036C1019.72 81.036 1020.83 80.763 1021.74 80.217C1022.67 79.645 1023.43 78.891 1024 77.955L1026.65 80.295C1025.98 81.465 1024.94 82.453 1023.53 83.259C1022.15 84.065 1020.43 84.468 1018.35 84.468ZM1018.03 66.645C1017.28 66.645 1016.58 66.775 1015.93 67.035C1015.3 67.295 1014.76 67.672 1014.29 68.166C1013.85 68.634 1013.5 69.193 1013.24 69.843C1012.98 70.493 1012.85 71.208 1012.85 71.988V72.261H1022.95V71.871C1022.95 70.285 1022.49 69.024 1021.58 68.088C1020.7 67.126 1019.52 66.645 1018.03 66.645ZM1059.81 63.876H1076.58V84H1072.33V67.308H1064.06V84H1059.81V63.876ZM1093.34 84.468C1091.85 84.468 1090.51 84.221 1089.32 83.727C1088.15 83.233 1087.15 82.531 1086.32 81.621C1085.51 80.711 1084.89 79.606 1084.44 78.306C1084 77.006 1083.78 75.55 1083.78 73.938C1083.78 72.326 1084 70.87 1084.44 69.57C1084.89 68.27 1085.51 67.165 1086.32 66.255C1087.15 65.345 1088.15 64.643 1089.32 64.149C1090.51 63.655 1091.85 63.408 1093.34 63.408C1094.82 63.408 1096.14 63.655 1097.31 64.149C1098.51 64.643 1099.51 65.345 1100.32 66.255C1101.15 67.165 1101.79 68.27 1102.23 69.57C1102.67 70.87 1102.89 72.326 1102.89 73.938C1102.89 75.55 1102.67 77.006 1102.23 78.306C1101.79 79.606 1101.15 80.711 1100.32 81.621C1099.51 82.531 1098.51 83.233 1097.31 83.727C1096.14 84.221 1094.82 84.468 1093.34 84.468ZM1093.34 81.114C1094.9 81.114 1096.13 80.646 1097.04 79.71C1097.98 78.748 1098.44 77.331 1098.44 75.459V72.417C1098.44 70.545 1097.98 69.141 1097.04 68.205C1096.13 67.243 1094.9 66.762 1093.34 66.762C1091.78 66.762 1090.53 67.243 1089.59 68.205C1088.68 69.141 1088.23 70.545 1088.23 72.417V75.459C1088.23 77.331 1088.68 78.748 1089.59 79.71C1090.53 80.646 1091.78 81.114 1093.34 81.114ZM1111.81 63.876H1126.59V67.308H1116.06V84H1111.81V63.876ZM1135 63.876H1139.25V67.308H1139.48C1140.08 66.086 1140.87 65.137 1141.86 64.461C1142.85 63.759 1144.08 63.408 1145.56 63.408C1147.93 63.408 1149.82 64.292 1151.22 66.06C1152.62 67.828 1153.33 70.454 1153.33 73.938C1153.33 77.422 1152.62 80.048 1151.22 81.816C1149.82 83.584 1147.93 84.468 1145.56 84.468C1144.08 84.468 1142.85 84.13 1141.86 83.454C1140.87 82.752 1140.08 81.79 1139.48 80.568H1139.25V91.8H1135V63.876ZM1143.81 80.997C1145.42 80.997 1146.66 80.503 1147.51 79.515C1148.4 78.527 1148.84 77.214 1148.84 75.576V72.3C1148.84 70.662 1148.4 69.349 1147.51 68.361C1146.66 67.373 1145.42 66.879 1143.81 66.879C1143.19 66.879 1142.6 66.957 1142.05 67.113C1141.51 67.269 1141.03 67.503 1140.61 67.815C1140.2 68.127 1139.86 68.517 1139.6 68.985C1139.36 69.427 1139.25 69.96 1139.25 70.584V77.292C1139.25 77.916 1139.36 78.462 1139.6 78.93C1139.86 79.372 1140.2 79.749 1140.61 80.061C1141.03 80.373 1141.51 80.607 1142.05 80.763C1142.6 80.919 1143.19 80.997 1143.81 80.997ZM1174.64 63.876H1178.93L1169.18 87.9C1168.66 89.2 1167.97 90.175 1167.12 90.825C1166.28 91.475 1165.08 91.8 1163.49 91.8H1160.1V88.368H1164.85L1166.69 83.727L1158.58 63.876H1163.02L1166.22 72.3L1168.72 79.203H1168.95L1171.45 72.3L1174.64 63.876ZM1193.35 84.468C1191.16 84.468 1189.34 84.13 1187.89 83.454C1186.43 82.778 1185.28 81.842 1184.42 80.646L1187.15 78.228C1187.82 79.164 1188.64 79.879 1189.6 80.373C1190.59 80.841 1191.83 81.075 1193.31 81.075C1194.87 81.075 1196.03 80.815 1196.78 80.295C1197.53 79.775 1197.91 79.099 1197.91 78.267V77.877C1197.91 77.045 1197.65 76.408 1197.13 75.966C1196.61 75.524 1195.82 75.303 1194.75 75.303H1189.64V72.183H1194.32C1195.42 72.183 1196.21 71.975 1196.7 71.559C1197.22 71.117 1197.48 70.506 1197.48 69.726V69.336C1197.48 68.582 1197.16 67.971 1196.51 67.503C1195.86 67.035 1194.78 66.801 1193.27 66.801C1191.87 66.801 1190.71 67.035 1189.8 67.503C1188.89 67.945 1188.1 68.595 1187.42 69.453L1184.81 67.347C1185.77 66.099 1186.93 65.137 1188.28 64.461C1189.66 63.759 1191.44 63.408 1193.62 63.408C1196.33 63.408 1198.38 63.915 1199.78 64.929C1201.19 65.917 1201.89 67.23 1201.89 68.868C1201.89 70.064 1201.54 71.039 1200.84 71.793C1200.16 72.547 1199.21 73.067 1197.99 73.353V73.509C1199.32 73.717 1200.36 74.237 1201.11 75.069C1201.89 75.875 1202.28 76.941 1202.28 78.267C1202.28 80.139 1201.5 81.647 1199.94 82.791C1198.38 83.909 1196.18 84.468 1193.35 84.468ZM1210.57 63.876H1214.78V72.534L1214.39 77.994H1214.59L1223.48 63.876H1227.5V84H1223.29V75.342L1223.68 69.882H1223.48L1214.59 84H1210.57V63.876ZM1242.03 67.308H1234.97V63.876H1253.38V67.308H1246.28V84H1242.03V67.308ZM1261.51 63.876H1265.76V70.506H1271.5C1273.58 70.506 1275.24 71.091 1276.49 72.261C1277.74 73.431 1278.36 75.095 1278.36 77.253C1278.36 79.411 1277.74 81.075 1276.49 82.245C1275.24 83.415 1273.58 84 1271.5 84H1261.51V63.876ZM1270.76 80.685C1271.74 80.685 1272.52 80.451 1273.1 79.983C1273.69 79.515 1273.99 78.826 1273.99 77.916V76.59C1273.99 75.68 1273.69 74.991 1273.1 74.523C1272.52 74.055 1271.74 73.821 1270.76 73.821H1265.76V80.685H1270.76ZM1295.19 84.468C1293.69 84.468 1292.33 84.221 1291.14 83.727C1289.97 83.233 1288.97 82.531 1288.14 81.621C1287.33 80.711 1286.71 79.606 1286.26 78.306C1285.85 77.006 1285.64 75.55 1285.64 73.938C1285.64 72.326 1285.85 70.87 1286.26 69.57C1286.71 68.27 1287.33 67.165 1288.14 66.255C1288.97 65.345 1289.97 64.643 1291.14 64.149C1292.33 63.655 1293.67 63.408 1295.16 63.408C1297.24 63.408 1298.9 63.85 1300.15 64.734C1301.42 65.618 1302.37 66.762 1302.99 68.166L1299.68 69.96C1299.32 69.024 1298.76 68.283 1298 67.737C1297.27 67.191 1296.33 66.918 1295.16 66.918C1293.54 66.918 1292.3 67.412 1291.41 68.4C1290.53 69.362 1290.09 70.649 1290.09 72.261V75.615C1290.09 77.201 1290.53 78.488 1291.41 79.476C1292.3 80.464 1293.57 80.958 1295.23 80.958C1296.48 80.958 1297.5 80.672 1298.28 80.1C1299.08 79.528 1299.72 78.748 1300.19 77.76L1303.31 79.671C1302.66 81.075 1301.67 82.232 1300.34 83.142C1299.02 84.026 1297.3 84.468 1295.19 84.468ZM1310.16 80.568H1312.46L1313.9 77.916C1314.21 77.318 1314.58 76.889 1314.99 76.629C1315.41 76.343 1315.91 76.174 1316.51 76.122V75.966C1314.85 75.836 1313.5 75.303 1312.46 74.367C1311.42 73.431 1310.9 72.053 1310.9 70.233C1310.9 69.271 1311.05 68.4 1311.36 67.62C1311.68 66.84 1312.12 66.177 1312.69 65.631C1313.29 65.059 1313.99 64.63 1314.8 64.344C1315.63 64.032 1316.55 63.876 1317.57 63.876H1327.55V84H1323.3V76.512H1319.52L1316.9 81.27C1316.38 82.258 1315.81 82.96 1315.19 83.376C1314.56 83.792 1313.76 84 1312.77 84H1310.16V80.568ZM1323.3 67.191H1318.35C1317.36 67.191 1316.59 67.425 1316.04 67.893C1315.52 68.335 1315.26 68.959 1315.26 69.765V70.779C1315.26 71.585 1315.52 72.222 1316.04 72.69C1316.59 73.132 1317.36 73.353 1318.35 73.353H1323.3V67.191ZM1361.88 63.876H1372.68C1374.42 63.876 1375.77 64.344 1376.74 65.28C1377.7 66.19 1378.18 67.412 1378.18 68.946C1378.18 71.442 1376.81 72.898 1374.08 73.314V73.509C1375.75 73.639 1376.97 74.12 1377.75 74.952C1378.53 75.758 1378.92 76.824 1378.92 78.15C1378.92 78.956 1378.78 79.71 1378.49 80.412C1378.23 81.114 1377.84 81.738 1377.32 82.284C1376.8 82.804 1376.15 83.22 1375.37 83.532C1374.62 83.844 1373.76 84 1372.8 84H1361.88V63.876ZM1371.9 80.802C1372.73 80.802 1373.38 80.607 1373.85 80.217C1374.32 79.801 1374.55 79.216 1374.55 78.462V77.526C1374.55 76.772 1374.32 76.187 1373.85 75.771C1373.41 75.355 1372.81 75.147 1372.06 75.147H1366.13V80.802H1371.9ZM1371.51 72.3C1372.21 72.3 1372.77 72.105 1373.19 71.715C1373.6 71.325 1373.81 70.792 1373.81 70.116V69.258C1373.81 68.582 1373.6 68.049 1373.19 67.659C1372.77 67.269 1372.21 67.074 1371.51 67.074H1366.13V72.3H1371.51ZM1418.01 67.308H1410.95V63.876H1429.36V67.308H1422.26V84H1418.01V67.308ZM1435.85 80.568H1438.16L1439.6 77.916C1439.91 77.318 1440.27 76.889 1440.69 76.629C1441.11 76.343 1441.61 76.174 1442.21 76.122V75.966C1440.55 75.836 1439.2 75.303 1438.16 74.367C1437.12 73.431 1436.6 72.053 1436.6 70.233C1436.6 69.271 1436.75 68.4 1437.06 67.62C1437.38 66.84 1437.82 66.177 1438.39 65.631C1438.99 65.059 1439.69 64.63 1440.5 64.344C1441.33 64.032 1442.25 63.876 1443.26 63.876H1453.25V84H1449V76.512H1445.21L1442.6 81.27C1442.08 82.258 1441.51 82.96 1440.89 83.376C1440.26 83.792 1439.46 84 1438.47 84H1435.85V80.568ZM1449 67.191H1444.04C1443.06 67.191 1442.29 67.425 1441.74 67.893C1441.22 68.335 1440.96 68.959 1440.96 69.765V70.779C1440.96 71.585 1441.22 72.222 1441.74 72.69C1442.29 73.132 1443.06 73.353 1444.04 73.353H1449V67.191ZM1463.76 63.876H1478.54V67.308H1468.01V84H1463.76V63.876ZM1501.46 63.876H1505.75L1496 87.9C1495.48 89.2 1494.79 90.175 1493.93 90.825C1493.1 91.475 1491.89 91.8 1490.31 91.8H1486.91V88.368H1491.67L1493.5 83.727L1485.39 63.876H1489.84L1493.04 72.3L1495.53 79.203H1495.77L1498.26 72.3L1501.46 63.876ZM1524.42 75.108H1524.22C1523.55 75.94 1522.74 76.577 1521.8 77.019C1520.89 77.435 1519.74 77.643 1518.33 77.643C1513.94 77.643 1511.74 75.42 1511.74 70.974V63.876H1515.99V70.701C1515.99 71.871 1516.29 72.729 1516.89 73.275C1517.51 73.795 1518.55 74.055 1520.01 74.055C1521.34 74.055 1522.4 73.86 1523.21 73.47C1524.01 73.054 1524.42 72.456 1524.42 71.676V63.876H1528.67V84H1524.42V75.108ZM1551.74 63.876H1556.03L1546.28 87.9C1545.76 89.2 1545.07 90.175 1544.21 90.825C1543.38 91.475 1542.17 91.8 1540.59 91.8H1537.19V88.368H1541.95L1543.78 83.727L1535.67 63.876H1540.12L1543.32 72.3L1545.81 79.203H1546.05L1548.54 72.3L1551.74 63.876ZM1574.54 84.468C1573.5 84.468 1572.58 84.312 1571.77 84C1570.99 83.714 1570.32 83.22 1569.74 82.518C1569.2 81.79 1568.77 80.841 1568.46 79.671C1568.17 78.501 1567.99 77.032 1567.91 75.264H1564.71V84H1561.01V63.876H1564.71V72.144H1567.95C1568.03 70.48 1568.22 69.089 1568.53 67.971C1568.87 66.853 1569.31 65.956 1569.86 65.28C1570.41 64.604 1571.07 64.123 1571.85 63.837C1572.63 63.551 1573.53 63.408 1574.54 63.408C1575.63 63.408 1576.59 63.577 1577.43 63.915C1578.26 64.253 1578.95 64.825 1579.49 65.631C1580.07 66.437 1580.48 67.516 1580.74 68.868C1581.03 70.22 1581.17 71.91 1581.17 73.938C1581.17 75.966 1581.03 77.656 1580.74 79.008C1580.46 80.36 1580.04 81.439 1579.49 82.245C1578.95 83.051 1578.26 83.623 1577.43 83.961C1576.59 84.299 1575.63 84.468 1574.54 84.468ZM1574.54 81.231C1575.01 81.231 1575.41 81.153 1575.75 80.997C1576.11 80.841 1576.4 80.568 1576.61 80.178C1576.84 79.788 1577.01 79.255 1577.11 78.579C1577.24 77.877 1577.31 76.98 1577.31 75.888V71.988C1577.31 70.896 1577.24 70.012 1577.11 69.336C1577.01 68.634 1576.84 68.088 1576.61 67.698C1576.4 67.308 1576.11 67.035 1575.75 66.879C1575.41 66.723 1575.01 66.645 1574.54 66.645C1574.07 66.645 1573.66 66.723 1573.29 66.879C1572.95 67.035 1572.67 67.308 1572.43 67.698C1572.23 68.088 1572.06 68.634 1571.93 69.336C1571.82 70.012 1571.77 70.896 1571.77 71.988V75.888C1571.77 76.98 1571.82 77.877 1571.93 78.579C1572.06 79.255 1572.23 79.788 1572.43 80.178C1572.67 80.568 1572.95 80.841 1573.29 80.997C1573.66 81.153 1574.07 81.231 1574.54 81.231ZM238.622 151.468C237.192 151.468 235.892 151.221 234.722 150.727C233.578 150.233 232.59 149.492 231.758 148.504C230.952 147.516 230.328 146.281 229.886 144.799C229.444 143.291 229.223 141.536 229.223 139.534C229.223 136.492 229.431 133.905 229.847 131.773C230.263 129.615 230.926 127.86 231.836 126.508C232.746 125.13 233.903 124.103 235.307 123.427C236.737 122.751 238.453 122.348 240.455 122.218L246.578 121.867V125.845L240.533 126.196C239.311 126.274 238.284 126.482 237.452 126.82C236.646 127.132 235.983 127.639 235.463 128.341C234.943 129.043 234.54 129.953 234.254 131.071C233.994 132.163 233.812 133.528 233.708 135.166H233.942C234.436 133.866 235.151 132.865 236.087 132.163C237.023 131.461 238.232 131.11 239.714 131.11C240.936 131.11 242.054 131.331 243.068 131.773C244.108 132.215 244.992 132.865 245.72 133.723C246.448 134.555 247.007 135.595 247.397 136.843C247.813 138.091 248.021 139.508 248.021 141.094C248.021 142.654 247.8 144.084 247.358 145.384C246.916 146.658 246.279 147.75 245.447 148.66C244.641 149.544 243.653 150.233 242.483 150.727C241.339 151.221 240.052 151.468 238.622 151.468ZM238.583 148.114C240.065 148.114 241.261 147.646 242.171 146.71C243.107 145.748 243.575 144.409 243.575 142.693V139.963C243.575 138.143 243.133 136.778 242.249 135.868C241.365 134.932 240.143 134.464 238.583 134.464C236.997 134.464 235.775 134.919 234.917 135.829C234.085 136.713 233.669 137.896 233.669 139.378V142.615C233.669 144.409 234.111 145.774 234.995 146.71C235.905 147.646 237.101 148.114 238.583 148.114ZM264.152 151.468C262.618 151.468 261.24 151.221 260.018 150.727C258.796 150.233 257.769 149.531 256.937 148.621C256.105 147.711 255.468 146.619 255.026 145.345C254.584 144.045 254.363 142.589 254.363 140.977C254.363 139.365 254.584 137.909 255.026 136.609C255.494 135.309 256.131 134.204 256.937 133.294C257.769 132.358 258.77 131.643 259.94 131.149C261.11 130.655 262.41 130.408 263.84 130.408C265.244 130.408 266.518 130.655 267.662 131.149C268.806 131.617 269.781 132.293 270.587 133.177C271.393 134.061 272.004 135.114 272.42 136.336C272.862 137.558 273.083 138.91 273.083 140.392V141.991H258.653V142.654C258.653 144.24 259.147 145.54 260.135 146.554C261.123 147.542 262.488 148.036 264.23 148.036C265.53 148.036 266.635 147.763 267.545 147.217C268.481 146.645 269.235 145.891 269.807 144.955L272.459 147.295C271.783 148.465 270.743 149.453 269.339 150.259C267.961 151.065 266.232 151.468 264.152 151.468ZM263.84 133.645C263.086 133.645 262.384 133.775 261.734 134.035C261.11 134.295 260.564 134.672 260.096 135.166C259.654 135.634 259.303 136.193 259.043 136.843C258.783 137.493 258.653 138.208 258.653 138.988V139.261H268.754V138.871C268.754 137.285 268.299 136.024 267.389 135.088C266.505 134.126 265.322 133.645 263.84 133.645ZM289.604 151.468C288.096 151.468 286.744 151.221 285.548 150.727C284.378 150.233 283.377 149.531 282.545 148.621C281.739 147.711 281.115 146.606 280.673 145.306C280.257 144.006 280.049 142.55 280.049 140.938C280.049 139.326 280.257 137.87 280.673 136.57C281.115 135.27 281.739 134.165 282.545 133.255C283.377 132.345 284.378 131.643 285.548 131.149C286.744 130.655 288.083 130.408 289.565 130.408C291.645 130.408 293.309 130.85 294.557 131.734C295.831 132.618 296.78 133.762 297.404 135.166L294.089 136.96C293.725 136.024 293.166 135.283 292.412 134.737C291.684 134.191 290.735 133.918 289.565 133.918C287.953 133.918 286.705 134.412 285.821 135.4C284.937 136.362 284.495 137.649 284.495 139.261V142.615C284.495 144.201 284.937 145.488 285.821 146.476C286.705 147.464 287.979 147.958 289.643 147.958C290.891 147.958 291.905 147.672 292.685 147.1C293.491 146.528 294.128 145.748 294.596 144.76L297.716 146.671C297.066 148.075 296.078 149.232 294.752 150.142C293.426 151.026 291.71 151.468 289.604 151.468ZM305.891 130.876H310.142V138.988H313.769L318.605 130.876H323.168L318.683 138.208C318.241 138.962 317.812 139.495 317.396 139.807C316.98 140.119 316.499 140.34 315.953 140.47V140.665C316.577 140.795 317.097 141.029 317.513 141.367C317.929 141.679 318.358 142.225 318.8 143.005L321.335 147.568H323.519V151H321.023C320.165 151 319.424 150.805 318.8 150.415C318.202 149.999 317.643 149.336 317.123 148.426L313.769 142.42H310.142V151H305.891V130.876ZM339.142 151.468C337.66 151.468 336.321 151.221 335.125 150.727C333.955 150.233 332.954 149.531 332.122 148.621C331.316 147.711 330.692 146.606 330.25 145.306C329.808 144.006 329.587 142.55 329.587 140.938C329.587 139.326 329.808 137.87 330.25 136.57C330.692 135.27 331.316 134.165 332.122 133.255C332.954 132.345 333.955 131.643 335.125 131.149C336.321 130.655 337.66 130.408 339.142 130.408C340.624 130.408 341.95 130.655 343.12 131.149C344.316 131.643 345.317 132.345 346.123 133.255C346.955 134.165 347.592 135.27 348.034 136.57C348.476 137.87 348.697 139.326 348.697 140.938C348.697 142.55 348.476 144.006 348.034 145.306C347.592 146.606 346.955 147.711 346.123 148.621C345.317 149.531 344.316 150.233 343.12 150.727C341.95 151.221 340.624 151.468 339.142 151.468ZM339.142 148.114C340.702 148.114 341.937 147.646 342.847 146.71C343.783 145.748 344.251 144.331 344.251 142.459V139.417C344.251 137.545 343.783 136.141 342.847 135.205C341.937 134.243 340.702 133.762 339.142 133.762C337.582 133.762 336.334 134.243 335.398 135.205C334.488 136.141 334.033 137.545 334.033 139.417V142.459C334.033 144.331 334.488 145.748 335.398 146.71C336.334 147.646 337.582 148.114 339.142 148.114ZM355.858 130.876H360.109V138.988H368.455V130.876H372.706V151H368.455V142.42H360.109V151H355.858V130.876ZM389.851 151.468C388.317 151.468 386.939 151.221 385.717 150.727C384.495 150.233 383.468 149.531 382.636 148.621C381.804 147.711 381.167 146.619 380.725 145.345C380.283 144.045 380.062 142.589 380.062 140.977C380.062 139.365 380.283 137.909 380.725 136.609C381.193 135.309 381.83 134.204 382.636 133.294C383.468 132.358 384.469 131.643 385.639 131.149C386.809 130.655 388.109 130.408 389.539 130.408C390.943 130.408 392.217 130.655 393.361 131.149C394.505 131.617 395.48 132.293 396.286 133.177C397.092 134.061 397.703 135.114 398.119 136.336C398.561 137.558 398.782 138.91 398.782 140.392V141.991H384.352V142.654C384.352 144.24 384.846 145.54 385.834 146.554C386.822 147.542 388.187 148.036 389.929 148.036C391.229 148.036 392.334 147.763 393.244 147.217C394.18 146.645 394.934 145.891 395.506 144.955L398.158 147.295C397.482 148.465 396.442 149.453 395.038 150.259C393.66 151.065 391.931 151.468 389.851 151.468ZM389.539 133.645C388.785 133.645 388.083 133.775 387.433 134.035C386.809 134.295 386.263 134.672 385.795 135.166C385.353 135.634 385.002 136.193 384.742 136.843C384.482 137.493 384.352 138.208 384.352 138.988V139.261H394.453V138.871C394.453 137.285 393.998 136.024 393.088 135.088C392.204 134.126 391.021 133.645 389.539 133.645ZM418.267 142.108H418.072C417.396 142.94 416.59 143.577 415.654 144.019C414.744 144.435 413.587 144.643 412.183 144.643C407.789 144.643 405.592 142.42 405.592 137.974V130.876H409.843V137.701C409.843 138.871 410.142 139.729 410.74 140.275C411.364 140.795 412.404 141.055 413.86 141.055C415.186 141.055 416.252 140.86 417.058 140.47C417.864 140.054 418.267 139.456 418.267 138.676V130.876H422.518V151H418.267V142.108ZM431.277 130.876H435.528V138.988H443.874V130.876H448.125V151H443.874V142.42H435.528V151H431.277V130.876ZM464.841 151.468C463.359 151.468 462.02 151.221 460.824 150.727C459.654 150.233 458.653 149.531 457.821 148.621C457.015 147.711 456.391 146.606 455.949 145.306C455.507 144.006 455.286 142.55 455.286 140.938C455.286 139.326 455.507 137.87 455.949 136.57C456.391 135.27 457.015 134.165 457.821 133.255C458.653 132.345 459.654 131.643 460.824 131.149C462.02 130.655 463.359 130.408 464.841 130.408C466.323 130.408 467.649 130.655 468.819 131.149C470.015 131.643 471.016 132.345 471.822 133.255C472.654 134.165 473.291 135.27 473.733 136.57C474.175 137.87 474.396 139.326 474.396 140.938C474.396 142.55 474.175 144.006 473.733 145.306C473.291 146.606 472.654 147.711 471.822 148.621C471.016 149.531 470.015 150.233 468.819 150.727C467.649 151.221 466.323 151.468 464.841 151.468ZM464.841 148.114C466.401 148.114 467.636 147.646 468.546 146.71C469.482 145.748 469.95 144.331 469.95 142.459V139.417C469.95 137.545 469.482 136.141 468.546 135.205C467.636 134.243 466.401 133.762 464.841 133.762C463.281 133.762 462.033 134.243 461.097 135.205C460.187 136.141 459.732 137.545 459.732 139.417V142.459C459.732 144.331 460.187 145.748 461.097 146.71C462.033 147.646 463.281 148.114 464.841 148.114ZM490.722 151.468C489.214 151.468 487.862 151.221 486.666 150.727C485.496 150.233 484.495 149.531 483.663 148.621C482.857 147.711 482.233 146.606 481.791 145.306C481.375 144.006 481.167 142.55 481.167 140.938C481.167 139.326 481.375 137.87 481.791 136.57C482.233 135.27 482.857 134.165 483.663 133.255C484.495 132.345 485.496 131.643 486.666 131.149C487.862 130.655 489.201 130.408 490.683 130.408C492.763 130.408 494.427 130.85 495.675 131.734C496.949 132.618 497.898 133.762 498.522 135.166L495.207 136.96C494.843 136.024 494.284 135.283 493.53 134.737C492.802 134.191 491.853 133.918 490.683 133.918C489.071 133.918 487.823 134.412 486.939 135.4C486.055 136.362 485.613 137.649 485.613 139.261V142.615C485.613 144.201 486.055 145.488 486.939 146.476C487.823 147.464 489.097 147.958 490.761 147.958C492.009 147.958 493.023 147.672 493.803 147.1C494.609 146.528 495.246 145.748 495.714 144.76L498.834 146.671C498.184 148.075 497.196 149.232 495.87 150.142C494.544 151.026 492.828 151.468 490.722 151.468ZM512.976 134.308H505.917V130.876H524.325V134.308H517.227V151H512.976V134.308ZM532.461 130.876H536.712V137.506H542.445C544.525 137.506 546.189 138.091 547.437 139.261C548.685 140.431 549.309 142.095 549.309 144.253C549.309 146.411 548.685 148.075 547.437 149.245C546.189 150.415 544.525 151 542.445 151H532.461V130.876ZM541.704 147.685C542.692 147.685 543.472 147.451 544.044 146.983C544.642 146.515 544.941 145.826 544.941 144.916V143.59C544.941 142.68 544.642 141.991 544.044 141.523C543.472 141.055 542.692 140.821 541.704 140.821H536.712V147.685H541.704ZM582.077 123.778H591.476C593.946 123.778 595.857 124.415 597.209 125.689C598.587 126.963 599.276 128.705 599.276 130.915C599.276 132.501 598.886 133.762 598.106 134.698C597.326 135.634 596.273 136.297 594.947 136.687V136.882C596.533 137.246 597.807 137.948 598.769 138.988C599.731 140.002 600.212 141.445 600.212 143.317C600.212 144.435 600.03 145.462 599.666 146.398C599.302 147.334 598.782 148.153 598.106 148.855C597.43 149.531 596.611 150.064 595.649 150.454C594.713 150.818 593.673 151 592.529 151H582.077V123.778ZM591.203 147.646C592.659 147.646 593.777 147.347 594.557 146.749C595.337 146.151 595.727 145.189 595.727 143.863V142.459C595.727 141.133 595.337 140.171 594.557 139.573C593.777 138.975 592.659 138.676 591.203 138.676H586.367V147.646H591.203ZM590.579 135.478C591.957 135.478 592.997 135.218 593.699 134.698C594.427 134.152 594.791 133.255 594.791 132.007V130.603C594.791 129.355 594.427 128.471 593.699 127.951C592.997 127.405 591.957 127.132 590.579 127.132H586.367V135.478H590.579ZM616.421 151.468C614.913 151.468 613.561 151.221 612.365 150.727C611.195 150.233 610.194 149.531 609.362 148.621C608.556 147.711 607.932 146.606 607.49 145.306C607.074 144.006 606.866 142.55 606.866 140.938C606.866 139.326 607.074 137.87 607.49 136.57C607.932 135.27 608.556 134.165 609.362 133.255C610.194 132.345 611.195 131.643 612.365 131.149C613.561 130.655 614.9 130.408 616.382 130.408C618.462 130.408 620.126 130.85 621.374 131.734C622.648 132.618 623.597 133.762 624.221 135.166L620.906 136.96C620.542 136.024 619.983 135.283 619.229 134.737C618.501 134.191 617.552 133.918 616.382 133.918C614.77 133.918 613.522 134.412 612.638 135.4C611.754 136.362 611.312 137.649 611.312 139.261V142.615C611.312 144.201 611.754 145.488 612.638 146.476C613.522 147.464 614.796 147.958 616.46 147.958C617.708 147.958 618.722 147.672 619.502 147.1C620.308 146.528 620.945 145.748 621.413 144.76L624.533 146.671C623.883 148.075 622.895 149.232 621.569 150.142C620.243 151.026 618.527 151.468 616.421 151.468ZM641.249 151.468C639.715 151.468 638.337 151.221 637.115 150.727C635.893 150.233 634.866 149.531 634.034 148.621C633.202 147.711 632.565 146.619 632.123 145.345C631.681 144.045 631.46 142.589 631.46 140.977C631.46 139.365 631.681 137.909 632.123 136.609C632.591 135.309 633.228 134.204 634.034 133.294C634.866 132.358 635.867 131.643 637.037 131.149C638.207 130.655 639.507 130.408 640.937 130.408C642.341 130.408 643.615 130.655 644.759 131.149C645.903 131.617 646.878 132.293 647.684 133.177C648.49 134.061 649.101 135.114 649.517 136.336C649.959 137.558 650.18 138.91 650.18 140.392V141.991H635.75V142.654C635.75 144.24 636.244 145.54 637.232 146.554C638.22 147.542 639.585 148.036 641.327 148.036C642.627 148.036 643.732 147.763 644.642 147.217C645.578 146.645 646.332 145.891 646.904 144.955L649.556 147.295C648.88 148.465 647.84 149.453 646.436 150.259C645.058 151.065 643.329 151.468 641.249 151.468ZM640.937 133.645C640.183 133.645 639.481 133.775 638.831 134.035C638.207 134.295 637.661 134.672 637.193 135.166C636.751 135.634 636.4 136.193 636.14 136.843C635.88 137.493 635.75 138.208 635.75 138.988V139.261H645.851V138.871C645.851 137.285 645.396 136.024 644.486 135.088C643.602 134.126 642.419 133.645 640.937 133.645ZM655.195 147.568H657.808C658.146 147.126 658.445 146.619 658.705 146.047C658.991 145.449 659.212 144.734 659.368 143.902C659.55 143.07 659.68 142.108 659.758 141.016C659.862 139.924 659.914 138.65 659.914 137.194V130.876H674.149V151H669.898V134.308H663.892V137.272C663.892 140.678 663.645 143.343 663.151 145.267C662.657 147.191 661.981 148.595 661.123 149.479C660.525 150.103 659.836 150.519 659.056 150.727C658.276 150.909 657.457 151 656.599 151H655.195V147.568ZM691.528 151.468C689.994 151.468 688.616 151.221 687.394 150.727C686.172 150.233 685.145 149.531 684.313 148.621C683.481 147.711 682.844 146.619 682.402 145.345C681.96 144.045 681.739 142.589 681.739 140.977C681.739 139.365 681.96 137.909 682.402 136.609C682.87 135.309 683.507 134.204 684.313 133.294C685.145 132.358 686.146 131.643 687.316 131.149C688.486 130.655 689.786 130.408 691.216 130.408C692.62 130.408 693.894 130.655 695.038 131.149C696.182 131.617 697.157 132.293 697.963 133.177C698.769 134.061 699.38 135.114 699.796 136.336C700.238 137.558 700.459 138.91 700.459 140.392V141.991H686.029V142.654C686.029 144.24 686.523 145.54 687.511 146.554C688.499 147.542 689.864 148.036 691.606 148.036C692.906 148.036 694.011 147.763 694.921 147.217C695.857 146.645 696.611 145.891 697.183 144.955L699.835 147.295C699.159 148.465 698.119 149.453 696.715 150.259C695.337 151.065 693.608 151.468 691.528 151.468ZM691.216 133.645C690.462 133.645 689.76 133.775 689.11 134.035C688.486 134.295 687.94 134.672 687.472 135.166C687.03 135.634 686.679 136.193 686.419 136.843C686.159 137.493 686.029 138.208 686.029 138.988V139.261H696.13V138.871C696.13 137.285 695.675 136.024 694.765 135.088C693.881 134.126 692.698 133.645 691.216 133.645ZM707.815 130.876H712.066V138.988H720.412V130.876H724.663V151H720.412V142.42H712.066V151H707.815V130.876ZM732.955 130.876H737.206V138.988H745.552V130.876H749.803V151H745.552V142.42H737.206V151H732.955V130.876ZM766.518 151.468C765.036 151.468 763.697 151.221 762.501 150.727C761.331 150.233 760.33 149.531 759.498 148.621C758.692 147.711 758.068 146.606 757.626 145.306C757.184 144.006 756.963 142.55 756.963 140.938C756.963 139.326 757.184 137.87 757.626 136.57C758.068 135.27 758.692 134.165 759.498 133.255C760.33 132.345 761.331 131.643 762.501 131.149C763.697 130.655 765.036 130.408 766.518 130.408C768 130.408 769.326 130.655 770.496 131.149C771.692 131.643 772.693 132.345 773.499 133.255C774.331 134.165 774.968 135.27 775.41 136.57C775.852 137.87 776.073 139.326 776.073 140.938C776.073 142.55 775.852 144.006 775.41 145.306C774.968 146.606 774.331 147.711 773.499 148.621C772.693 149.531 771.692 150.233 770.496 150.727C769.326 151.221 768 151.468 766.518 151.468ZM766.518 148.114C768.078 148.114 769.313 147.646 770.223 146.71C771.159 145.748 771.627 144.331 771.627 142.459V139.417C771.627 137.545 771.159 136.141 770.223 135.205C769.313 134.243 768.078 133.762 766.518 133.762C764.958 133.762 763.71 134.243 762.774 135.205C761.864 136.141 761.409 137.545 761.409 139.417V142.459C761.409 144.331 761.864 145.748 762.774 146.71C763.71 147.646 764.958 148.114 766.518 148.114ZM783.195 130.876H787.407V139.534L787.017 144.994H787.212L796.104 130.876H800.121V151H795.909V142.342L796.299 136.882H796.104L787.212 151H783.195V130.876ZM791.658 128.224C790.15 128.224 788.928 127.899 787.992 127.249C787.056 126.573 786.289 125.572 785.691 124.246L784.716 122.062L788.265 120.814L789.669 124.948C789.903 125.052 790.215 125.13 790.605 125.182C790.995 125.208 791.346 125.221 791.658 125.221C791.97 125.221 792.321 125.208 792.711 125.182C793.101 125.13 793.413 125.052 793.647 124.948L795.051 120.814L798.6 122.062L797.625 124.246C797.027 125.572 796.26 126.573 795.324 127.249C794.388 127.899 793.166 128.224 791.658 128.224ZM814.614 145.072H820.659L815.823 156.655H812.508L814.614 145.072ZM858.693 130.876H875.463V151H871.212V134.308H862.944V151H858.693V130.876ZM892.217 151.468C890.735 151.468 889.396 151.221 888.2 150.727C887.03 150.233 886.029 149.531 885.197 148.621C884.391 147.711 883.767 146.606 883.325 145.306C882.883 144.006 882.662 142.55 882.662 140.938C882.662 139.326 882.883 137.87 883.325 136.57C883.767 135.27 884.391 134.165 885.197 133.255C886.029 132.345 887.03 131.643 888.2 131.149C889.396 130.655 890.735 130.408 892.217 130.408C893.699 130.408 895.025 130.655 896.195 131.149C897.391 131.643 898.392 132.345 899.198 133.255C900.03 134.165 900.667 135.27 901.109 136.57C901.551 137.87 901.772 139.326 901.772 140.938C901.772 142.55 901.551 144.006 901.109 145.306C900.667 146.606 900.03 147.711 899.198 148.621C898.392 149.531 897.391 150.233 896.195 150.727C895.025 151.221 893.699 151.468 892.217 151.468ZM892.217 148.114C893.777 148.114 895.012 147.646 895.922 146.71C896.858 145.748 897.326 144.331 897.326 142.459V139.417C897.326 137.545 896.858 136.141 895.922 135.205C895.012 134.243 893.777 133.762 892.217 133.762C890.657 133.762 889.409 134.243 888.473 135.205C887.563 136.141 887.108 137.545 887.108 139.417V142.459C887.108 144.331 887.563 145.748 888.473 146.71C889.409 147.646 890.657 148.114 892.217 148.114ZM909.245 130.876H913.496V138.988H917.123L921.959 130.876H926.522L922.037 138.208C921.595 138.962 921.166 139.495 920.75 139.807C920.334 140.119 919.853 140.34 919.307 140.47V140.665C919.931 140.795 920.451 141.029 920.867 141.367C921.283 141.679 921.712 142.225 922.154 143.005L924.689 147.568H926.873V151H924.377C923.519 151 922.778 150.805 922.154 150.415C921.556 149.999 920.997 149.336 920.477 148.426L917.123 142.42H913.496V151H909.245V130.876ZM942.497 151.468C941.015 151.468 939.676 151.221 938.48 150.727C937.31 150.233 936.309 149.531 935.477 148.621C934.671 147.711 934.047 146.606 933.605 145.306C933.163 144.006 932.942 142.55 932.942 140.938C932.942 139.326 933.163 137.87 933.605 136.57C934.047 135.27 934.671 134.165 935.477 133.255C936.309 132.345 937.31 131.643 938.48 131.149C939.676 130.655 941.015 130.408 942.497 130.408C943.979 130.408 945.305 130.655 946.475 131.149C947.671 131.643 948.672 132.345 949.478 133.255C950.31 134.165 950.947 135.27 951.389 136.57C951.831 137.87 952.052 139.326 952.052 140.938C952.052 142.55 951.831 144.006 951.389 145.306C950.947 146.606 950.31 147.711 949.478 148.621C948.672 149.531 947.671 150.233 946.475 150.727C945.305 151.221 943.979 151.468 942.497 151.468ZM942.497 148.114C944.057 148.114 945.292 147.646 946.202 146.71C947.138 145.748 947.606 144.331 947.606 142.459V139.417C947.606 137.545 947.138 136.141 946.202 135.205C945.292 134.243 944.057 133.762 942.497 133.762C940.937 133.762 939.689 134.243 938.753 135.205C937.843 136.141 937.388 137.545 937.388 139.417V142.459C937.388 144.331 937.843 145.748 938.753 146.71C939.689 147.646 940.937 148.114 942.497 148.114ZM959.018 130.876H963.269V134.308H963.503C964.101 133.086 964.894 132.137 965.882 131.461C966.87 130.759 968.105 130.408 969.587 130.408C971.953 130.408 973.838 131.292 975.242 133.06C976.646 134.828 977.348 137.454 977.348 140.938C977.348 144.422 976.646 147.048 975.242 148.816C973.838 150.584 971.953 151.468 969.587 151.468C968.105 151.468 966.87 151.13 965.882 150.454C964.894 149.752 964.101 148.79 963.503 147.568H963.269V158.8H959.018V130.876ZM967.832 147.997C969.444 147.997 970.679 147.503 971.537 146.515C972.421 145.527 972.863 144.214 972.863 142.576V139.3C972.863 137.662 972.421 136.349 971.537 135.361C970.679 134.373 969.444 133.879 967.832 133.879C967.208 133.879 966.623 133.957 966.077 134.113C965.531 134.269 965.05 134.503 964.634 134.815C964.218 135.127 963.88 135.517 963.62 135.985C963.386 136.427 963.269 136.96 963.269 137.584V144.292C963.269 144.916 963.386 145.462 963.62 145.93C963.88 146.372 964.218 146.749 964.634 147.061C965.05 147.373 965.531 147.607 966.077 147.763C966.623 147.919 967.208 147.997 967.832 147.997ZM984.313 130.876H988.525V139.534L988.135 144.994H988.33L997.222 130.876H1001.24V151H997.027V142.342L997.417 136.882H997.222L988.33 151H984.313V130.876ZM1015.77 134.308H1008.71V130.876H1027.12V134.308H1020.02V151H1015.77V134.308ZM1035.26 130.876H1039.51V137.506H1045.24C1047.32 137.506 1048.98 138.091 1050.23 139.261C1051.48 140.431 1052.1 142.095 1052.1 144.253C1052.1 146.411 1051.48 148.075 1050.23 149.245C1048.98 150.415 1047.32 151 1045.24 151H1035.26V130.876ZM1044.5 147.685C1045.49 147.685 1046.27 147.451 1046.84 146.983C1047.44 146.515 1047.74 145.826 1047.74 144.916V143.59C1047.74 142.68 1047.44 141.991 1046.84 141.523C1046.27 141.055 1045.49 140.821 1044.5 140.821H1039.51V147.685H1044.5ZM1068.94 151.468C1067.43 151.468 1066.08 151.221 1064.88 150.727C1063.71 150.233 1062.71 149.531 1061.88 148.621C1061.07 147.711 1060.45 146.606 1060.01 145.306C1059.59 144.006 1059.38 142.55 1059.38 140.938C1059.38 139.326 1059.59 137.87 1060.01 136.57C1060.45 135.27 1061.07 134.165 1061.88 133.255C1062.71 132.345 1063.71 131.643 1064.88 131.149C1066.08 130.655 1067.42 130.408 1068.9 130.408C1070.98 130.408 1072.64 130.85 1073.89 131.734C1075.16 132.618 1076.11 133.762 1076.74 135.166L1073.42 136.96C1073.06 136.024 1072.5 135.283 1071.74 134.737C1071.02 134.191 1070.07 133.918 1068.9 133.918C1067.29 133.918 1066.04 134.412 1065.15 135.4C1064.27 136.362 1063.83 137.649 1063.83 139.261V142.615C1063.83 144.201 1064.27 145.488 1065.15 146.476C1066.04 147.464 1067.31 147.958 1068.98 147.958C1070.22 147.958 1071.24 147.672 1072.02 147.1C1072.82 146.528 1073.46 145.748 1073.93 144.76L1077.05 146.671C1076.4 148.075 1075.41 149.232 1074.08 150.142C1072.76 151.026 1071.04 151.468 1068.94 151.468ZM1083.9 147.568H1086.2L1087.64 144.916C1087.95 144.318 1088.32 143.889 1088.73 143.629C1089.15 143.343 1089.66 143.174 1090.25 143.122V142.966C1088.59 142.836 1087.24 142.303 1086.2 141.367C1085.16 140.431 1084.64 139.053 1084.64 137.233C1084.64 136.271 1084.79 135.4 1085.11 134.62C1085.42 133.84 1085.86 133.177 1086.43 132.631C1087.03 132.059 1087.73 131.63 1088.54 131.344C1089.37 131.032 1090.29 130.876 1091.31 130.876H1101.29V151H1097.04V143.512H1093.26L1090.64 148.27C1090.12 149.258 1089.55 149.96 1088.93 150.376C1088.3 150.792 1087.5 151 1086.51 151H1083.9V147.568ZM1097.04 134.191H1092.09C1091.1 134.191 1090.33 134.425 1089.79 134.893C1089.27 135.335 1089.01 135.959 1089.01 136.765V137.779C1089.01 138.585 1089.27 139.222 1089.79 139.69C1090.33 140.132 1091.1 140.353 1092.09 140.353H1097.04V134.191ZM1134.37 130.876H1139.32L1143.69 140.353H1143.97L1148.33 130.876H1152.86V151H1149.15V139.651L1149.31 136.102H1149.04L1143.61 147.841L1138.19 136.102H1137.92L1138.08 139.651V151H1134.37V130.876ZM1169.18 151.468C1167.65 151.468 1166.27 151.221 1165.05 150.727C1163.83 150.233 1162.8 149.531 1161.97 148.621C1161.14 147.711 1160.5 146.619 1160.06 145.345C1159.62 144.045 1159.39 142.589 1159.39 140.977C1159.39 139.365 1159.62 137.909 1160.06 136.609C1160.53 135.309 1161.16 134.204 1161.97 133.294C1162.8 132.358 1163.8 131.643 1164.97 131.149C1166.14 130.655 1167.44 130.408 1168.87 130.408C1170.28 130.408 1171.55 130.655 1172.69 131.149C1173.84 131.617 1174.81 132.293 1175.62 133.177C1176.42 134.061 1177.04 135.114 1177.45 136.336C1177.89 137.558 1178.11 138.91 1178.11 140.392V141.991H1163.68V142.654C1163.68 144.24 1164.18 145.54 1165.17 146.554C1166.15 147.542 1167.52 148.036 1169.26 148.036C1170.56 148.036 1171.67 147.763 1172.58 147.217C1173.51 146.645 1174.27 145.891 1174.84 144.955L1177.49 147.295C1176.81 148.465 1175.77 149.453 1174.37 150.259C1172.99 151.065 1171.26 151.468 1169.18 151.468ZM1168.87 133.645C1168.12 133.645 1167.42 133.775 1166.77 134.035C1166.14 134.295 1165.6 134.672 1165.13 135.166C1164.69 135.634 1164.33 136.193 1164.07 136.843C1163.81 137.493 1163.68 138.208 1163.68 138.988V139.261H1173.79V138.871C1173.79 137.285 1173.33 136.024 1172.42 135.088C1171.54 134.126 1170.35 133.645 1168.87 133.645ZM1192.1 142.303H1189.21L1186.91 151H1183.09L1185.04 143.629C1185.28 142.771 1185.59 142.108 1185.98 141.64C1186.39 141.172 1186.95 140.873 1187.65 140.743V140.548C1186.48 140.21 1185.69 139.3 1185.28 137.818L1183.36 130.876H1187.07L1189.33 139.105H1192.1V130.876H1195.69V139.105H1198.46L1200.72 130.876H1204.42L1202.51 137.818C1202.1 139.3 1201.3 140.21 1200.13 140.548V140.743C1200.84 140.873 1201.38 141.172 1201.77 141.64C1202.19 142.108 1202.51 142.771 1202.75 143.629L1204.7 151H1200.88L1198.57 142.303H1195.69V151H1192.1V142.303ZM1218.49 151.468C1216.3 151.468 1214.48 151.13 1213.03 150.454C1211.57 149.778 1210.42 148.842 1209.56 147.646L1212.29 145.228C1212.96 146.164 1213.78 146.879 1214.74 147.373C1215.73 147.841 1216.97 148.075 1218.45 148.075C1220.01 148.075 1221.17 147.815 1221.92 147.295C1222.67 146.775 1223.05 146.099 1223.05 145.267V144.877C1223.05 144.045 1222.79 143.408 1222.27 142.966C1221.75 142.524 1220.96 142.303 1219.89 142.303H1214.78V139.183H1219.46C1220.56 139.183 1221.35 138.975 1221.84 138.559C1222.36 138.117 1222.62 137.506 1222.62 136.726V136.336C1222.62 135.582 1222.3 134.971 1221.65 134.503C1221 134.035 1219.92 133.801 1218.41 133.801C1217.01 133.801 1215.85 134.035 1214.94 134.503C1214.03 134.945 1213.24 135.595 1212.56 136.453L1209.95 134.347C1210.91 133.099 1212.07 132.137 1213.42 131.461C1214.8 130.759 1216.58 130.408 1218.76 130.408C1221.47 130.408 1223.52 130.915 1224.92 131.929C1226.33 132.917 1227.03 134.23 1227.03 135.868C1227.03 137.064 1226.68 138.039 1225.98 138.793C1225.3 139.547 1224.35 140.067 1223.13 140.353V140.509C1224.46 140.717 1225.5 141.237 1226.25 142.069C1227.03 142.875 1227.42 143.941 1227.42 145.267C1227.42 147.139 1226.64 148.647 1225.08 149.791C1223.52 150.909 1221.32 151.468 1218.49 151.468ZM1236.18 130.876H1246.98C1248.72 130.876 1250.08 131.344 1251.04 132.28C1252 133.19 1252.48 134.412 1252.48 135.946C1252.48 138.442 1251.12 139.898 1248.39 140.314V140.509C1250.05 140.639 1251.27 141.12 1252.05 141.952C1252.83 142.758 1253.22 143.824 1253.22 145.15C1253.22 145.956 1253.08 146.71 1252.79 147.412C1252.53 148.114 1252.14 148.738 1251.62 149.284C1251.1 149.804 1250.45 150.22 1249.67 150.532C1248.92 150.844 1248.06 151 1247.1 151H1236.18V130.876ZM1246.2 147.802C1247.03 147.802 1247.68 147.607 1248.15 147.217C1248.62 146.801 1248.85 146.216 1248.85 145.462V144.526C1248.85 143.772 1248.62 143.187 1248.15 142.771C1247.71 142.355 1247.11 142.147 1246.36 142.147H1240.43V147.802H1246.2ZM1245.81 139.3C1246.51 139.3 1247.07 139.105 1247.49 138.715C1247.9 138.325 1248.11 137.792 1248.11 137.116V136.258C1248.11 135.582 1247.9 135.049 1247.49 134.659C1247.07 134.269 1246.51 134.074 1245.81 134.074H1240.43V139.3H1245.81ZM1269.74 151.468C1268.21 151.468 1266.83 151.221 1265.61 150.727C1264.39 150.233 1263.36 149.531 1262.53 148.621C1261.7 147.711 1261.06 146.619 1260.62 145.345C1260.17 144.045 1259.95 142.589 1259.95 140.977C1259.95 139.365 1260.17 137.909 1260.62 136.609C1261.08 135.309 1261.72 134.204 1262.53 133.294C1263.36 132.358 1264.36 131.643 1265.53 131.149C1266.7 130.655 1268 130.408 1269.43 130.408C1270.83 130.408 1272.11 130.655 1273.25 131.149C1274.4 131.617 1275.37 132.293 1276.18 133.177C1276.98 134.061 1277.59 135.114 1278.01 136.336C1278.45 137.558 1278.67 138.91 1278.67 140.392V141.991H1264.24V142.654C1264.24 144.24 1264.74 145.54 1265.73 146.554C1266.71 147.542 1268.08 148.036 1269.82 148.036C1271.12 148.036 1272.23 147.763 1273.14 147.217C1274.07 146.645 1274.83 145.891 1275.4 144.955L1278.05 147.295C1277.37 148.465 1276.33 149.453 1274.93 150.259C1273.55 151.065 1271.82 151.468 1269.74 151.468ZM1269.43 133.645C1268.68 133.645 1267.97 133.775 1267.32 134.035C1266.7 134.295 1266.15 134.672 1265.69 135.166C1265.24 135.634 1264.89 136.193 1264.63 136.843C1264.37 137.493 1264.24 138.208 1264.24 138.988V139.261H1274.34V138.871C1274.34 137.285 1273.89 136.024 1272.98 135.088C1272.1 134.126 1270.91 133.645 1269.43 133.645ZM1293.91 151.468C1291.72 151.468 1289.9 151.13 1288.45 150.454C1286.99 149.778 1285.83 148.842 1284.98 147.646L1287.71 145.228C1288.38 146.164 1289.2 146.879 1290.16 147.373C1291.15 147.841 1292.39 148.075 1293.87 148.075C1295.43 148.075 1296.59 147.815 1297.34 147.295C1298.09 146.775 1298.47 146.099 1298.47 145.267V144.877C1298.47 144.045 1298.21 143.408 1297.69 142.966C1297.17 142.524 1296.38 142.303 1295.31 142.303H1290.2V139.183H1294.88C1295.97 139.183 1296.77 138.975 1297.26 138.559C1297.78 138.117 1298.04 137.506 1298.04 136.726V136.336C1298.04 135.582 1297.72 134.971 1297.07 134.503C1296.42 134.035 1295.34 133.801 1293.83 133.801C1292.43 133.801 1291.27 134.035 1290.36 134.503C1289.45 134.945 1288.66 135.595 1287.98 136.453L1285.37 134.347C1286.33 133.099 1287.49 132.137 1288.84 131.461C1290.22 130.759 1292 130.408 1294.18 130.408C1296.88 130.408 1298.94 130.915 1300.34 131.929C1301.75 132.917 1302.45 134.23 1302.45 135.868C1302.45 137.064 1302.1 138.039 1301.4 138.793C1300.72 139.547 1299.77 140.067 1298.55 140.353V140.509C1299.87 140.717 1300.91 141.237 1301.67 142.069C1302.45 142.875 1302.84 143.941 1302.84 145.267C1302.84 147.139 1302.06 148.647 1300.5 149.791C1298.94 150.909 1296.74 151.468 1293.91 151.468ZM1308.56 147.568H1310.86C1311.61 146.372 1312.21 144.929 1312.65 143.239C1313.09 141.523 1313.31 139.495 1313.31 137.155V130.876H1327.04V147.568H1330.28V156.46H1326.46V151H1312.38V156.46H1308.56V147.568ZM1322.87 147.568V134.308H1317.29V137.311C1317.29 139.599 1317.11 141.575 1316.75 143.239C1316.41 144.877 1315.9 146.32 1315.23 147.568H1322.87ZM1336.31 130.876H1340.56V138.988H1348.91V130.876H1353.16V151H1348.91V142.42H1340.56V151H1336.31V130.876ZM1369.87 151.468C1368.39 151.468 1367.05 151.221 1365.86 150.727C1364.69 150.233 1363.68 149.531 1362.85 148.621C1362.05 147.711 1361.42 146.606 1360.98 145.306C1360.54 144.006 1360.32 142.55 1360.32 140.938C1360.32 139.326 1360.54 137.87 1360.98 136.57C1361.42 135.27 1362.05 134.165 1362.85 133.255C1363.68 132.345 1364.69 131.643 1365.86 131.149C1367.05 130.655 1368.39 130.408 1369.87 130.408C1371.35 130.408 1372.68 130.655 1373.85 131.149C1375.05 131.643 1376.05 132.345 1376.85 133.255C1377.69 134.165 1378.32 135.27 1378.76 136.57C1379.21 137.87 1379.43 139.326 1379.43 140.938C1379.43 142.55 1379.21 144.006 1378.76 145.306C1378.32 146.606 1377.69 147.711 1376.85 148.621C1376.05 149.531 1375.05 150.233 1373.85 150.727C1372.68 151.221 1371.35 151.468 1369.87 151.468ZM1369.87 148.114C1371.43 148.114 1372.67 147.646 1373.58 146.71C1374.51 145.748 1374.98 144.331 1374.98 142.459V139.417C1374.98 137.545 1374.51 136.141 1373.58 135.205C1372.67 134.243 1371.43 133.762 1369.87 133.762C1368.31 133.762 1367.06 134.243 1366.13 135.205C1365.22 136.141 1364.76 137.545 1364.76 139.417V142.459C1364.76 144.331 1365.22 145.748 1366.13 146.71C1367.06 147.646 1368.31 148.114 1369.87 148.114ZM1395.75 151.468C1394.25 151.468 1392.89 151.221 1391.7 150.727C1390.53 150.233 1389.53 149.531 1388.69 148.621C1387.89 147.711 1387.26 146.606 1386.82 145.306C1386.41 144.006 1386.2 142.55 1386.2 140.938C1386.2 139.326 1386.41 137.87 1386.82 136.57C1387.26 135.27 1387.89 134.165 1388.69 133.255C1389.53 132.345 1390.53 131.643 1391.7 131.149C1392.89 130.655 1394.23 130.408 1395.71 130.408C1397.79 130.408 1399.46 130.85 1400.71 131.734C1401.98 132.618 1402.93 133.762 1403.55 135.166L1400.24 136.96C1399.87 136.024 1399.32 135.283 1398.56 134.737C1397.83 134.191 1396.88 133.918 1395.71 133.918C1394.1 133.918 1392.85 134.412 1391.97 135.4C1391.09 136.362 1390.64 137.649 1390.64 139.261V142.615C1390.64 144.201 1391.09 145.488 1391.97 146.476C1392.85 147.464 1394.13 147.958 1395.79 147.958C1397.04 147.958 1398.05 147.672 1398.83 147.1C1399.64 146.528 1400.28 145.748 1400.75 144.76L1403.87 146.671C1403.22 148.075 1402.23 149.232 1400.9 150.142C1399.58 151.026 1397.86 151.468 1395.75 151.468ZM1418.01 134.308H1410.95V130.876H1429.36V134.308H1422.26V151H1418.01V134.308ZM1436.83 130.876H1441.04V139.534L1440.65 144.994H1440.85L1449.74 130.876H1453.76V151H1449.54V142.342L1449.93 136.882H1449.74L1440.85 151H1436.83V130.876ZM318.11 197.876H322.322V206.534L321.932 211.994H322.127L331.019 197.876H335.036V218H330.824V209.342L331.214 203.882H331.019L322.127 218H318.11V197.876ZM376.852 218.468C375.37 218.468 374.031 218.221 372.835 217.727C371.665 217.233 370.664 216.531 369.832 215.621C369.026 214.711 368.402 213.606 367.96 212.306C367.518 211.006 367.297 209.55 367.297 207.938C367.297 206.326 367.518 204.87 367.96 203.57C368.402 202.27 369.026 201.165 369.832 200.255C370.664 199.345 371.665 198.643 372.835 198.149C374.031 197.655 375.37 197.408 376.852 197.408C378.334 197.408 379.66 197.655 380.83 198.149C382.026 198.643 383.027 199.345 383.833 200.255C384.665 201.165 385.302 202.27 385.744 203.57C386.186 204.87 386.407 206.326 386.407 207.938C386.407 209.55 386.186 211.006 385.744 212.306C385.302 213.606 384.665 214.711 383.833 215.621C383.027 216.531 382.026 217.233 380.83 217.727C379.66 218.221 378.334 218.468 376.852 218.468ZM376.852 215.114C378.412 215.114 379.647 214.646 380.557 213.71C381.493 212.748 381.961 211.331 381.961 209.459V206.417C381.961 204.545 381.493 203.141 380.557 202.205C379.647 201.243 378.412 200.762 376.852 200.762C375.292 200.762 374.044 201.243 373.108 202.205C372.198 203.141 371.743 204.545 371.743 206.417V209.459C371.743 211.331 372.198 212.748 373.108 213.71C374.044 214.646 375.292 215.114 376.852 215.114ZM399.847 201.308H392.788V197.876H411.196V201.308H404.098V218H399.847V201.308ZM427.171 218.468C425.741 218.468 424.441 218.221 423.271 217.727C422.127 217.233 421.139 216.492 420.307 215.504C419.501 214.516 418.877 213.281 418.435 211.799C417.993 210.291 417.772 208.536 417.772 206.534C417.772 203.492 417.98 200.905 418.396 198.773C418.812 196.615 419.475 194.86 420.385 193.508C421.295 192.13 422.452 191.103 423.856 190.427C425.286 189.751 427.002 189.348 429.004 189.218L435.127 188.867V192.845L429.082 193.196C427.86 193.274 426.833 193.482 426.001 193.82C425.195 194.132 424.532 194.639 424.012 195.341C423.492 196.043 423.089 196.953 422.803 198.071C422.543 199.163 422.361 200.528 422.257 202.166H422.491C422.985 200.866 423.7 199.865 424.636 199.163C425.572 198.461 426.781 198.11 428.263 198.11C429.485 198.11 430.603 198.331 431.617 198.773C432.657 199.215 433.541 199.865 434.269 200.723C434.997 201.555 435.556 202.595 435.946 203.843C436.362 205.091 436.57 206.508 436.57 208.094C436.57 209.654 436.349 211.084 435.907 212.384C435.465 213.658 434.828 214.75 433.996 215.66C433.19 216.544 432.202 217.233 431.032 217.727C429.888 218.221 428.601 218.468 427.171 218.468ZM427.132 215.114C428.614 215.114 429.81 214.646 430.72 213.71C431.656 212.748 432.124 211.409 432.124 209.693V206.963C432.124 205.143 431.682 203.778 430.798 202.868C429.914 201.932 428.692 201.464 427.132 201.464C425.546 201.464 424.324 201.919 423.466 202.829C422.634 203.713 422.218 204.896 422.218 206.378V209.615C422.218 211.409 422.66 212.774 423.544 213.71C424.454 214.646 425.65 215.114 427.132 215.114ZM443.652 197.876H447.903V201.308H448.137C448.735 200.086 449.528 199.137 450.516 198.461C451.504 197.759 452.739 197.408 454.221 197.408C456.587 197.408 458.472 198.292 459.876 200.06C461.28 201.828 461.982 204.454 461.982 207.938C461.982 211.422 461.28 214.048 459.876 215.816C458.472 217.584 456.587 218.468 454.221 218.468C452.739 218.468 451.504 218.13 450.516 217.454C449.528 216.752 448.735 215.79 448.137 214.568H447.903V225.8H443.652V197.876ZM452.466 214.997C454.078 214.997 455.313 214.503 456.171 213.515C457.055 212.527 457.497 211.214 457.497 209.576V206.3C457.497 204.662 457.055 203.349 456.171 202.361C455.313 201.373 454.078 200.879 452.466 200.879C451.842 200.879 451.257 200.957 450.711 201.113C450.165 201.269 449.684 201.503 449.268 201.815C448.852 202.127 448.514 202.517 448.254 202.985C448.02 203.427 447.903 203.96 447.903 204.584V211.292C447.903 211.916 448.02 212.462 448.254 212.93C448.514 213.372 448.852 213.749 449.268 214.061C449.684 214.373 450.165 214.607 450.711 214.763C451.257 214.919 451.842 214.997 452.466 214.997ZM477.411 218.468C475.929 218.468 474.59 218.221 473.394 217.727C472.224 217.233 471.223 216.531 470.391 215.621C469.585 214.711 468.961 213.606 468.519 212.306C468.077 211.006 467.856 209.55 467.856 207.938C467.856 206.326 468.077 204.87 468.519 203.57C468.961 202.27 469.585 201.165 470.391 200.255C471.223 199.345 472.224 198.643 473.394 198.149C474.59 197.655 475.929 197.408 477.411 197.408C478.893 197.408 480.219 197.655 481.389 198.149C482.585 198.643 483.586 199.345 484.392 200.255C485.224 201.165 485.861 202.27 486.303 203.57C486.745 204.87 486.966 206.326 486.966 207.938C486.966 209.55 486.745 211.006 486.303 212.306C485.861 213.606 485.224 214.711 484.392 215.621C483.586 216.531 482.585 217.233 481.389 217.727C480.219 218.221 478.893 218.468 477.411 218.468ZM477.411 215.114C478.971 215.114 480.206 214.646 481.116 213.71C482.052 212.748 482.52 211.331 482.52 209.459V206.417C482.52 204.545 482.052 203.141 481.116 202.205C480.206 201.243 478.971 200.762 477.411 200.762C475.851 200.762 474.603 201.243 473.667 202.205C472.757 203.141 472.302 204.545 472.302 206.417V209.459C472.302 211.331 472.757 212.748 473.667 213.71C474.603 214.646 475.851 215.114 477.411 215.114ZM503.292 218.468C501.784 218.468 500.432 218.221 499.236 217.727C498.066 217.233 497.065 216.531 496.233 215.621C495.427 214.711 494.803 213.606 494.361 212.306C493.945 211.006 493.737 209.55 493.737 207.938C493.737 206.326 493.945 204.87 494.361 203.57C494.803 202.27 495.427 201.165 496.233 200.255C497.065 199.345 498.066 198.643 499.236 198.149C500.432 197.655 501.771 197.408 503.253 197.408C505.333 197.408 506.997 197.85 508.245 198.734C509.519 199.618 510.468 200.762 511.092 202.166L507.777 203.96C507.413 203.024 506.854 202.283 506.1 201.737C505.372 201.191 504.423 200.918 503.253 200.918C501.641 200.918 500.393 201.412 499.509 202.4C498.625 203.362 498.183 204.649 498.183 206.261V209.615C498.183 211.201 498.625 212.488 499.509 213.476C500.393 214.464 501.667 214.958 503.331 214.958C504.579 214.958 505.593 214.672 506.373 214.1C507.179 213.528 507.816 212.748 508.284 211.76L511.404 213.671C510.754 215.075 509.766 216.232 508.44 217.142C507.114 218.026 505.398 218.468 503.292 218.468ZM519.228 197.876H523.44V206.534L523.05 211.994H523.245L532.137 197.876H536.154V218H531.942V209.342L532.332 203.882H532.137L523.245 218H519.228V197.876ZM550.685 201.308H543.626V197.876H562.034V201.308H554.936V218H550.685V201.308ZM570.17 197.876H574.421V204.506H580.154C582.234 204.506 583.898 205.091 585.146 206.261C586.394 207.431 587.018 209.095 587.018 211.253C587.018 213.411 586.394 215.075 585.146 216.245C583.898 217.415 582.234 218 580.154 218H570.17V197.876ZM579.413 214.685C580.401 214.685 581.181 214.451 581.753 213.983C582.351 213.515 582.65 212.826 582.65 211.916V210.59C582.65 209.68 582.351 208.991 581.753 208.523C581.181 208.055 580.401 207.821 579.413 207.821H574.421V214.685H579.413ZM628.25 218.468C626.768 218.468 625.429 218.221 624.233 217.727C623.063 217.233 622.062 216.531 621.23 215.621C620.424 214.711 619.8 213.606 619.358 212.306C618.916 211.006 618.695 209.55 618.695 207.938C618.695 206.326 618.916 204.87 619.358 203.57C619.8 202.27 620.424 201.165 621.23 200.255C622.062 199.345 623.063 198.643 624.233 198.149C625.429 197.655 626.768 197.408 628.25 197.408C629.732 197.408 631.058 197.655 632.228 198.149C633.424 198.643 634.425 199.345 635.231 200.255C636.063 201.165 636.7 202.27 637.142 203.57C637.584 204.87 637.805 206.326 637.805 207.938C637.805 209.55 637.584 211.006 637.142 212.306C636.7 213.606 636.063 214.711 635.231 215.621C634.425 216.531 633.424 217.233 632.228 217.727C631.058 218.221 629.732 218.468 628.25 218.468ZM628.25 215.114C629.81 215.114 631.045 214.646 631.955 213.71C632.891 212.748 633.359 211.331 633.359 209.459V206.417C633.359 204.545 632.891 203.141 631.955 202.205C631.045 201.243 629.81 200.762 628.25 200.762C626.69 200.762 625.442 201.243 624.506 202.205C623.596 203.141 623.141 204.545 623.141 206.417V209.459C623.141 211.331 623.596 212.748 624.506 213.71C625.442 214.646 626.69 215.114 628.25 215.114ZM651.245 201.308H644.186V197.876H662.594V201.308H655.496V218H651.245V201.308ZM669.091 214.568H671.392L672.835 211.916C673.147 211.318 673.511 210.889 673.927 210.629C674.343 210.343 674.85 210.174 675.448 210.122V209.966C673.784 209.836 672.432 209.303 671.392 208.367C670.352 207.431 669.832 206.053 669.832 204.233C669.832 203.271 669.988 202.4 670.3 201.62C670.612 200.84 671.054 200.177 671.626 199.631C672.224 199.059 672.926 198.63 673.732 198.344C674.564 198.032 675.487 197.876 676.501 197.876H686.485V218H682.234V210.512H678.451L675.838 215.27C675.318 216.258 674.746 216.96 674.122 217.376C673.498 217.792 672.692 218 671.704 218H669.091V214.568ZM682.234 201.191H677.281C676.293 201.191 675.526 201.425 674.98 201.893C674.46 202.335 674.2 202.959 674.2 203.765V204.779C674.2 205.585 674.46 206.222 674.98 206.69C675.526 207.132 676.293 207.353 677.281 207.353H682.234V201.191ZM697 197.876H711.781V201.308H701.251V218H697V197.876ZM728.809 218.468C727.327 218.468 725.988 218.221 724.792 217.727C723.622 217.233 722.621 216.531 721.789 215.621C720.983 214.711 720.359 213.606 719.917 212.306C719.475 211.006 719.254 209.55 719.254 207.938C719.254 206.326 719.475 204.87 719.917 203.57C720.359 202.27 720.983 201.165 721.789 200.255C722.621 199.345 723.622 198.643 724.792 198.149C725.988 197.655 727.327 197.408 728.809 197.408C730.291 197.408 731.617 197.655 732.787 198.149C733.983 198.643 734.984 199.345 735.79 200.255C736.622 201.165 737.259 202.27 737.701 203.57C738.143 204.87 738.364 206.326 738.364 207.938C738.364 209.55 738.143 211.006 737.701 212.306C737.259 213.606 736.622 214.711 735.79 215.621C734.984 216.531 733.983 217.233 732.787 217.727C731.617 218.221 730.291 218.468 728.809 218.468ZM728.809 215.114C730.369 215.114 731.604 214.646 732.514 213.71C733.45 212.748 733.918 211.331 733.918 209.459V206.417C733.918 204.545 733.45 203.141 732.514 202.205C731.604 201.243 730.369 200.762 728.809 200.762C727.249 200.762 726.001 201.243 725.065 202.205C724.155 203.141 723.7 204.545 723.7 206.417V209.459C723.7 211.331 724.155 212.748 725.065 213.71C726.001 214.646 727.249 215.114 728.809 215.114ZM762.256 218H743.887V197.876H747.514V214.724H751.804V197.876H755.431V214.724H759.721V197.876H763.348V214.685H765.649V223.46H762.256V218ZM786.576 218C785.354 218 784.431 217.688 783.807 217.064C783.209 216.44 782.845 215.621 782.715 214.607H782.52C782.13 215.829 781.415 216.778 780.375 217.454C779.361 218.13 778.061 218.468 776.475 218.468C774.421 218.468 772.783 217.935 771.561 216.869C770.339 215.777 769.728 214.282 769.728 212.384C769.728 210.434 770.443 208.952 771.873 207.938C773.329 206.898 775.552 206.378 778.542 206.378H782.403V204.818C782.403 202.088 780.96 200.723 778.074 200.723C776.774 200.723 775.721 200.983 774.915 201.503C774.109 201.997 773.433 202.66 772.887 203.492L770.352 201.425C770.924 200.333 771.886 199.397 773.238 198.617C774.59 197.811 776.332 197.408 778.464 197.408C781.012 197.408 783.014 198.019 784.47 199.241C785.926 200.463 786.654 202.231 786.654 204.545V214.646H789.189V218H786.576ZM777.684 215.348C779.062 215.348 780.193 215.036 781.077 214.412C781.961 213.788 782.403 212.982 782.403 211.994V209.069H778.62C775.552 209.069 774.018 209.992 774.018 211.838V212.618C774.018 213.528 774.343 214.217 774.993 214.685C775.643 215.127 776.54 215.348 777.684 215.348ZM807.777 218.468C806.737 218.468 805.814 218.312 805.008 218C804.228 217.714 803.552 217.22 802.98 216.518C802.434 215.79 802.005 214.841 801.693 213.671C801.407 212.501 801.225 211.032 801.147 209.264H797.949V218H794.244V197.876H797.949V206.144H801.186C801.264 204.48 801.459 203.089 801.771 201.971C802.109 200.853 802.551 199.956 803.097 199.28C803.643 198.604 804.306 198.123 805.086 197.837C805.866 197.551 806.763 197.408 807.777 197.408C808.869 197.408 809.831 197.577 810.663 197.915C811.495 198.253 812.184 198.825 812.73 199.631C813.302 200.437 813.718 201.516 813.978 202.868C814.264 204.22 814.407 205.91 814.407 207.938C814.407 209.966 814.264 211.656 813.978 213.008C813.692 214.36 813.276 215.439 812.73 216.245C812.184 217.051 811.495 217.623 810.663 217.961C809.831 218.299 808.869 218.468 807.777 218.468ZM807.777 215.231C808.245 215.231 808.648 215.153 808.986 214.997C809.35 214.841 809.636 214.568 809.844 214.178C810.078 213.788 810.247 213.255 810.351 212.579C810.481 211.877 810.546 210.98 810.546 209.888V205.988C810.546 204.896 810.481 204.012 810.351 203.336C810.247 202.634 810.078 202.088 809.844 201.698C809.636 201.308 809.35 201.035 808.986 200.879C808.648 200.723 808.245 200.645 807.777 200.645C807.309 200.645 806.893 200.723 806.529 200.879C806.191 201.035 805.905 201.308 805.671 201.698C805.463 202.088 805.294 202.634 805.164 203.336C805.06 204.012 805.008 204.896 805.008 205.988V209.888C805.008 210.98 805.06 211.877 805.164 212.579C805.294 213.255 805.463 213.788 805.671 214.178C805.905 214.568 806.191 214.841 806.529 214.997C806.893 215.153 807.309 215.231 807.777 215.231ZM837.675 218H819.306V197.876H822.933V214.724H827.223V197.876H830.85V214.724H835.14V197.876H838.767V214.685H841.068V223.46H837.675V218ZM860.397 197.876H864.687L854.937 221.9C854.417 223.2 853.728 224.175 852.87 224.825C852.038 225.475 850.829 225.8 849.243 225.8H845.85V222.368H850.608L852.441 217.727L844.329 197.876H848.775L851.973 206.3L854.469 213.203H854.703L857.199 206.3L860.397 197.876ZM883.196 218.468C882.156 218.468 881.233 218.312 880.427 218C879.647 217.714 878.971 217.22 878.399 216.518C877.853 215.79 877.424 214.841 877.112 213.671C876.826 212.501 876.644 211.032 876.566 209.264H873.368V218H869.663V197.876H873.368V206.144H876.605C876.683 204.48 876.878 203.089 877.19 201.971C877.528 200.853 877.97 199.956 878.516 199.28C879.062 198.604 879.725 198.123 880.505 197.837C881.285 197.551 882.182 197.408 883.196 197.408C884.288 197.408 885.25 197.577 886.082 197.915C886.914 198.253 887.603 198.825 888.149 199.631C888.721 200.437 889.137 201.516 889.397 202.868C889.683 204.22 889.826 205.91 889.826 207.938C889.826 209.966 889.683 211.656 889.397 213.008C889.111 214.36 888.695 215.439 888.149 216.245C887.603 217.051 886.914 217.623 886.082 217.961C885.25 218.299 884.288 218.468 883.196 218.468ZM883.196 215.231C883.664 215.231 884.067 215.153 884.405 214.997C884.769 214.841 885.055 214.568 885.263 214.178C885.497 213.788 885.666 213.255 885.77 212.579C885.9 211.877 885.965 210.98 885.965 209.888V205.988C885.965 204.896 885.9 204.012 885.77 203.336C885.666 202.634 885.497 202.088 885.263 201.698C885.055 201.308 884.769 201.035 884.405 200.879C884.067 200.723 883.664 200.645 883.196 200.645C882.728 200.645 882.312 200.723 881.948 200.879C881.61 201.035 881.324 201.308 881.09 201.698C880.882 202.088 880.713 202.634 880.583 203.336C880.479 204.012 880.427 204.896 880.427 205.988V209.888C880.427 210.98 880.479 211.877 880.583 212.579C880.713 213.255 880.882 213.788 881.09 214.178C881.324 214.568 881.61 214.841 881.948 214.997C882.312 215.153 882.728 215.231 883.196 215.231ZM930.668 218.468C929.16 218.468 927.808 218.221 926.612 217.727C925.442 217.233 924.441 216.531 923.609 215.621C922.803 214.711 922.179 213.606 921.737 212.306C921.321 211.006 921.113 209.55 921.113 207.938C921.113 206.326 921.321 204.87 921.737 203.57C922.179 202.27 922.803 201.165 923.609 200.255C924.441 199.345 925.442 198.643 926.612 198.149C927.808 197.655 929.147 197.408 930.629 197.408C932.709 197.408 934.373 197.85 935.621 198.734C936.895 199.618 937.844 200.762 938.468 202.166L935.153 203.96C934.789 203.024 934.23 202.283 933.476 201.737C932.748 201.191 931.799 200.918 930.629 200.918C929.017 200.918 927.769 201.412 926.885 202.4C926.001 203.362 925.559 204.649 925.559 206.261V209.615C925.559 211.201 926.001 212.488 926.885 213.476C927.769 214.464 929.043 214.958 930.707 214.958C931.955 214.958 932.969 214.672 933.749 214.1C934.555 213.528 935.192 212.748 935.66 211.76L938.78 213.671C938.13 215.075 937.142 216.232 935.816 217.142C934.49 218.026 932.774 218.468 930.668 218.468ZM960.956 197.876H965.246L955.496 221.9C954.976 223.2 954.287 224.175 953.429 224.825C952.597 225.475 951.388 225.8 949.802 225.8H946.409V222.368H951.167L953 217.727L944.888 197.876H949.334L952.532 206.3L955.028 213.203H955.262L957.758 206.3L960.956 197.876ZM980.635 218.468C979.101 218.468 977.723 218.221 976.501 217.727C975.279 217.233 974.252 216.531 973.42 215.621C972.588 214.711 971.951 213.619 971.509 212.345C971.067 211.045 970.846 209.589 970.846 207.977C970.846 206.365 971.067 204.909 971.509 203.609C971.977 202.309 972.614 201.204 973.42 200.294C974.252 199.358 975.253 198.643 976.423 198.149C977.593 197.655 978.893 197.408 980.323 197.408C981.727 197.408 983.001 197.655 984.145 198.149C985.289 198.617 986.264 199.293 987.07 200.177C987.876 201.061 988.487 202.114 988.903 203.336C989.345 204.558 989.566 205.91 989.566 207.392V208.991H975.136V209.654C975.136 211.24 975.63 212.54 976.618 213.554C977.606 214.542 978.971 215.036 980.713 215.036C982.013 215.036 983.118 214.763 984.028 214.217C984.964 213.645 985.718 212.891 986.29 211.955L988.942 214.295C988.266 215.465 987.226 216.453 985.822 217.259C984.444 218.065 982.715 218.468 980.635 218.468ZM980.323 200.645C979.569 200.645 978.867 200.775 978.217 201.035C977.593 201.295 977.047 201.672 976.579 202.166C976.137 202.634 975.786 203.193 975.526 203.843C975.266 204.493 975.136 205.208 975.136 205.988V206.261H985.237V205.871C985.237 204.285 984.782 203.024 983.872 202.088C982.988 201.126 981.805 200.645 980.323 200.645ZM1003.2 201.308H996.142V197.876H1014.55V201.308H1007.45V218H1003.2V201.308ZM1036.38 197.876H1040.67L1030.92 221.9C1030.4 223.2 1029.71 224.175 1028.85 224.825C1028.02 225.475 1026.81 225.8 1025.22 225.8H1021.83V222.368H1026.59L1028.42 217.727L1020.31 197.876H1024.75L1027.95 206.3L1030.45 213.203H1030.68L1033.18 206.3L1036.38 197.876ZM1080.22 218.468C1078.04 218.468 1076.22 218.13 1074.76 217.454C1073.3 216.778 1072.15 215.842 1071.29 214.646L1074.02 212.228C1074.69 213.164 1075.51 213.879 1076.48 214.373C1077.46 214.841 1078.7 215.075 1080.18 215.075C1081.74 215.075 1082.9 214.815 1083.65 214.295C1084.41 213.775 1084.78 213.099 1084.78 212.267V211.877C1084.78 211.045 1084.52 210.408 1084 209.966C1083.48 209.524 1082.69 209.303 1081.62 209.303H1076.51V206.183H1081.19C1082.29 206.183 1083.08 205.975 1083.57 205.559C1084.09 205.117 1084.35 204.506 1084.35 203.726V203.336C1084.35 202.582 1084.03 201.971 1083.38 201.503C1082.73 201.035 1081.65 200.801 1080.14 200.801C1078.74 200.801 1077.58 201.035 1076.67 201.503C1075.76 201.945 1074.97 202.595 1074.29 203.453L1071.68 201.347C1072.64 200.099 1073.8 199.137 1075.15 198.461C1076.53 197.759 1078.31 197.408 1080.49 197.408C1083.2 197.408 1085.25 197.915 1086.65 198.929C1088.06 199.917 1088.76 201.23 1088.76 202.868C1088.76 204.064 1088.41 205.039 1087.71 205.793C1087.03 206.547 1086.08 207.067 1084.86 207.353V207.509C1086.19 207.717 1087.23 208.237 1087.98 209.069C1088.76 209.875 1089.15 210.941 1089.15 212.267C1089.15 214.139 1088.37 215.647 1086.81 216.791C1085.25 217.909 1083.05 218.468 1080.22 218.468ZM1106.33 218.468C1104.8 218.468 1103.42 218.221 1102.2 217.727C1100.98 217.233 1099.95 216.531 1099.12 215.621C1098.29 214.711 1097.65 213.619 1097.21 212.345C1096.77 211.045 1096.55 209.589 1096.55 207.977C1096.55 206.365 1096.77 204.909 1097.21 203.609C1097.68 202.309 1098.31 201.204 1099.12 200.294C1099.95 199.358 1100.95 198.643 1102.12 198.149C1103.29 197.655 1104.59 197.408 1106.02 197.408C1107.43 197.408 1108.7 197.655 1109.84 198.149C1110.99 198.617 1111.96 199.293 1112.77 200.177C1113.58 201.061 1114.19 202.114 1114.6 203.336C1115.04 204.558 1115.27 205.91 1115.27 207.392V208.991H1100.84V209.654C1100.84 211.24 1101.33 212.54 1102.32 213.554C1103.31 214.542 1104.67 215.036 1106.41 215.036C1107.71 215.036 1108.82 214.763 1109.73 214.217C1110.66 213.645 1111.42 212.891 1111.99 211.955L1114.64 214.295C1113.97 215.465 1112.93 216.453 1111.52 217.259C1110.14 218.065 1108.41 218.468 1106.33 218.468ZM1106.02 200.645C1105.27 200.645 1104.57 200.775 1103.92 201.035C1103.29 201.295 1102.75 201.672 1102.28 202.166C1101.84 202.634 1101.49 203.193 1101.23 203.843C1100.97 204.493 1100.84 205.208 1100.84 205.988V206.261H1110.94V205.871C1110.94 204.285 1110.48 203.024 1109.57 202.088C1108.69 201.126 1107.5 200.645 1106.02 200.645ZM1121.8 197.876H1126.76L1131.12 207.353H1131.4L1135.76 197.876H1140.29V218H1136.58V206.651L1136.74 203.102H1136.47L1131.05 214.841L1125.62 203.102H1125.35L1125.51 206.651V218H1121.8V197.876ZM1147.76 197.876H1152.01V205.988H1160.36V197.876H1164.61V218H1160.36V209.42H1152.01V218H1147.76V197.876ZM1181.32 218.468C1179.84 218.468 1178.5 218.221 1177.31 217.727C1176.14 217.233 1175.14 216.531 1174.3 215.621C1173.5 214.711 1172.87 213.606 1172.43 212.306C1171.99 211.006 1171.77 209.55 1171.77 207.938C1171.77 206.326 1171.99 204.87 1172.43 203.57C1172.87 202.27 1173.5 201.165 1174.3 200.255C1175.14 199.345 1176.14 198.643 1177.31 198.149C1178.5 197.655 1179.84 197.408 1181.32 197.408C1182.81 197.408 1184.13 197.655 1185.3 198.149C1186.5 198.643 1187.5 199.345 1188.31 200.255C1189.14 201.165 1189.77 202.27 1190.22 203.57C1190.66 204.87 1190.88 206.326 1190.88 207.938C1190.88 209.55 1190.66 211.006 1190.22 212.306C1189.77 213.606 1189.14 214.711 1188.31 215.621C1187.5 216.531 1186.5 217.233 1185.3 217.727C1184.13 218.221 1182.81 218.468 1181.32 218.468ZM1181.32 215.114C1182.88 215.114 1184.12 214.646 1185.03 213.71C1185.97 212.748 1186.43 211.331 1186.43 209.459V206.417C1186.43 204.545 1185.97 203.141 1185.03 202.205C1184.12 201.243 1182.88 200.762 1181.32 200.762C1179.76 200.762 1178.52 201.243 1177.58 202.205C1176.67 203.141 1176.22 204.545 1176.22 206.417V209.459C1176.22 211.331 1176.67 212.748 1177.58 213.71C1178.52 214.646 1179.76 215.114 1181.32 215.114ZM1198 197.876H1202.21V206.534L1201.82 211.994H1202.02L1210.91 197.876H1214.93V218H1210.72V209.342L1211.11 203.882H1210.91L1202.02 218H1198V197.876ZM1206.46 195.224C1204.96 195.224 1203.73 194.899 1202.8 194.249C1201.86 193.573 1201.1 192.572 1200.5 191.246L1199.52 189.062L1203.07 187.814L1204.48 191.948C1204.71 192.052 1205.02 192.13 1205.41 192.182C1205.8 192.208 1206.15 192.221 1206.46 192.221C1206.78 192.221 1207.13 192.208 1207.52 192.182C1207.91 192.13 1208.22 192.052 1208.45 191.948L1209.86 187.814L1213.41 189.062L1212.43 191.246C1211.83 192.572 1211.07 193.573 1210.13 194.249C1209.19 194.899 1207.97 195.224 1206.46 195.224ZM1254.95 209.303H1252.06L1249.76 218H1245.94L1247.89 210.629C1248.12 209.771 1248.44 209.108 1248.83 208.64C1249.24 208.172 1249.8 207.873 1250.5 207.743V207.548C1249.33 207.21 1248.54 206.3 1248.12 204.818L1246.21 197.876H1249.92L1252.18 206.105H1254.95V197.876H1258.54V206.105H1261.31L1263.57 197.876H1267.27L1265.36 204.818C1264.95 206.3 1264.15 207.21 1262.98 207.548V207.743C1263.69 207.873 1264.23 208.172 1264.62 208.64C1265.04 209.108 1265.36 209.771 1265.6 210.629L1267.55 218H1263.72L1261.42 209.303H1258.54V218H1254.95V209.303ZM1273.42 197.876H1277.63V206.534L1277.24 211.994H1277.44L1286.33 197.876H1290.35V218H1286.13V209.342L1286.52 203.882H1286.33L1277.44 218H1273.42V197.876ZM1306.48 218.468C1304.29 218.468 1302.47 218.13 1301.02 217.454C1299.56 216.778 1298.4 215.842 1297.55 214.646L1300.28 212.228C1300.95 213.164 1301.77 213.879 1302.73 214.373C1303.72 214.841 1304.96 215.075 1306.44 215.075C1308 215.075 1309.16 214.815 1309.91 214.295C1310.66 213.775 1311.04 213.099 1311.04 212.267V211.877C1311.04 211.045 1310.78 210.408 1310.26 209.966C1309.74 209.524 1308.95 209.303 1307.88 209.303H1302.77V206.183H1307.45C1308.54 206.183 1309.34 205.975 1309.83 205.559C1310.35 205.117 1310.61 204.506 1310.61 203.726V203.336C1310.61 202.582 1310.29 201.971 1309.64 201.503C1308.99 201.035 1307.91 200.801 1306.4 200.801C1305 200.801 1303.84 201.035 1302.93 201.503C1302.02 201.945 1301.23 202.595 1300.55 203.453L1297.94 201.347C1298.9 200.099 1300.06 199.137 1301.41 198.461C1302.79 197.759 1304.57 197.408 1306.75 197.408C1309.45 197.408 1311.51 197.915 1312.91 198.929C1314.32 199.917 1315.02 201.23 1315.02 202.868C1315.02 204.064 1314.67 205.039 1313.97 205.793C1313.29 206.547 1312.34 207.067 1311.12 207.353V207.509C1312.44 207.717 1313.48 208.237 1314.24 209.069C1315.02 209.875 1315.41 210.941 1315.41 212.267C1315.41 214.139 1314.63 215.647 1313.07 216.791C1311.51 217.909 1309.31 218.468 1306.48 218.468ZM1323.74 197.876H1327.99V205.988H1336.34V197.876H1340.59V218H1336.34V209.42H1327.99V218H1323.74V197.876ZM1348.84 197.876H1353.05V206.534L1352.66 211.994H1352.86L1361.75 197.876H1365.77V218H1361.55V209.342L1361.94 203.882H1361.75L1352.86 218H1348.84V197.876ZM1382.44 218.39C1381.19 218.39 1380.31 218.13 1379.79 217.61C1379.3 217.09 1379.05 216.453 1379.05 215.699V214.685C1379.05 213.931 1379.3 213.294 1379.79 212.774C1380.31 212.254 1381.19 211.994 1382.44 211.994C1383.69 211.994 1384.56 212.254 1385.06 212.774C1385.58 213.294 1385.84 213.931 1385.84 214.685V215.699C1385.84 216.453 1385.58 217.09 1385.06 217.61C1384.56 218.13 1383.69 218.39 1382.44 218.39Z" fill="white"/>
</svg>
