<svg width="1587" height="286" viewBox="0 0 1587 286" fill="none" xmlns="http://www.w3.org/2000/svg">
<path d="M1517.5 2H69.5C32.2208 2 2 32.2208 2 69.5V73.476C2 108.559 30.4406 137 65.524 137H92.048C112.483 137 129.048 153.565 129.048 174C129.048 194.435 145.614 211 166.048 211H194.557C214.716 211 231.057 227.342 231.057 247.5C231.057 267.658 247.399 284 267.557 284H1312.02C1332.18 284 1348.52 267.658 1348.52 247.5C1348.52 227.342 1364.87 211 1385.02 211H1417.24C1437.68 211 1454.24 194.435 1454.24 174C1454.24 153.565 1470.81 137 1491.24 137H1519.62C1555.73 137 1585 107.729 1585 71.6212V69.5C1585 32.2208 1554.78 2 1517.5 2Z" fill="#242424" fill-opacity="0.7" stroke="white" stroke-width="3"/>
<path d="M91.9725 59.778H109.601V87H105.233V63.444H96.3405V87H91.9725V59.778ZM125.926 87.468C124.444 87.468 123.105 87.221 121.909 86.727C120.739 86.233 119.738 85.531 118.906 84.621C118.1 83.711 117.476 82.606 117.034 81.306C116.592 80.006 116.371 78.55 116.371 76.938C116.371 75.326 116.592 73.87 117.034 72.57C117.476 71.27 118.1 70.165 118.906 69.255C119.738 68.345 120.739 67.643 121.909 67.149C123.105 66.655 124.444 66.408 125.926 66.408C127.408 66.408 128.734 66.655 129.904 67.149C131.1 67.643 132.101 68.345 132.907 69.255C133.739 70.165 134.376 71.27 134.818 72.57C135.26 73.87 135.481 75.326 135.481 76.938C135.481 78.55 135.26 80.006 134.818 81.306C134.376 82.606 133.739 83.711 132.907 84.621C132.101 85.531 131.1 86.233 129.904 86.727C128.734 87.221 127.408 87.468 125.926 87.468ZM125.926 84.114C127.486 84.114 128.721 83.646 129.631 82.71C130.567 81.748 131.035 80.331 131.035 78.459V75.417C131.035 73.545 130.567 72.141 129.631 71.205C128.721 70.243 127.486 69.762 125.926 69.762C124.366 69.762 123.118 70.243 122.182 71.205C121.272 72.141 120.817 73.545 120.817 75.417V78.459C120.817 80.331 121.272 81.748 122.182 82.71C123.118 83.646 124.366 84.114 125.926 84.114ZM151.807 87.468C150.299 87.468 148.947 87.221 147.751 86.727C146.581 86.233 145.58 85.531 144.748 84.621C143.942 83.711 143.318 82.606 142.876 81.306C142.46 80.006 142.252 78.55 142.252 76.938C142.252 75.326 142.46 73.87 142.876 72.57C143.318 71.27 143.942 70.165 144.748 69.255C145.58 68.345 146.581 67.643 147.751 67.149C148.947 66.655 150.286 66.408 151.768 66.408C153.848 66.408 155.512 66.85 156.76 67.734C158.034 68.618 158.983 69.762 159.607 71.166L156.292 72.96C155.928 72.024 155.369 71.283 154.615 70.737C153.887 70.191 152.938 69.918 151.768 69.918C150.156 69.918 148.908 70.412 148.024 71.4C147.14 72.362 146.698 73.649 146.698 75.261V78.615C146.698 80.201 147.14 81.488 148.024 82.476C148.908 83.464 150.182 83.958 151.846 83.958C153.094 83.958 154.108 83.672 154.888 83.1C155.694 82.528 156.331 81.748 156.799 80.76L159.919 82.671C159.269 84.075 158.281 85.232 156.955 86.142C155.629 87.026 153.913 87.468 151.807 87.468ZM165.442 83.568H168.055C168.393 83.126 168.692 82.619 168.952 82.047C169.238 81.449 169.459 80.734 169.615 79.902C169.797 79.07 169.927 78.108 170.005 77.016C170.109 75.924 170.161 74.65 170.161 73.194V66.876H184.396V87H180.145V70.308H174.139V73.272C174.139 76.678 173.892 79.343 173.398 81.267C172.904 83.191 172.228 84.595 171.37 85.479C170.772 86.103 170.083 86.519 169.303 86.727C168.523 86.909 167.704 87 166.846 87H165.442V83.568ZM201.775 87.468C200.241 87.468 198.863 87.221 197.641 86.727C196.419 86.233 195.392 85.531 194.56 84.621C193.728 83.711 193.091 82.619 192.649 81.345C192.207 80.045 191.986 78.589 191.986 76.977C191.986 75.365 192.207 73.909 192.649 72.609C193.117 71.309 193.754 70.204 194.56 69.294C195.392 68.358 196.393 67.643 197.563 67.149C198.733 66.655 200.033 66.408 201.463 66.408C202.867 66.408 204.141 66.655 205.285 67.149C206.429 67.617 207.404 68.293 208.21 69.177C209.016 70.061 209.627 71.114 210.043 72.336C210.485 73.558 210.706 74.91 210.706 76.392V77.991H196.276V78.654C196.276 80.24 196.77 81.54 197.758 82.554C198.746 83.542 200.111 84.036 201.853 84.036C203.153 84.036 204.258 83.763 205.168 83.217C206.104 82.645 206.858 81.891 207.43 80.955L210.082 83.295C209.406 84.465 208.366 85.453 206.962 86.259C205.584 87.065 203.855 87.468 201.775 87.468ZM201.463 69.645C200.709 69.645 200.007 69.775 199.357 70.035C198.733 70.295 198.187 70.672 197.719 71.166C197.277 71.634 196.926 72.193 196.666 72.843C196.406 73.493 196.276 74.208 196.276 74.988V75.261H206.377V74.871C206.377 73.285 205.922 72.024 205.012 71.088C204.128 70.126 202.945 69.645 201.463 69.645ZM225.939 87.468C223.755 87.468 221.935 87.13 220.479 86.454C219.023 85.778 217.866 84.842 217.008 83.646L219.738 81.228C220.414 82.164 221.233 82.879 222.195 83.373C223.183 83.841 224.418 84.075 225.9 84.075C227.46 84.075 228.617 83.815 229.371 83.295C230.125 82.775 230.502 82.099 230.502 81.267V80.877C230.502 80.045 230.242 79.408 229.722 78.966C229.202 78.524 228.409 78.303 227.343 78.303H222.234V75.183H226.914C228.006 75.183 228.799 74.975 229.293 74.559C229.813 74.117 230.073 73.506 230.073 72.726V72.336C230.073 71.582 229.748 70.971 229.098 70.503C228.448 70.035 227.369 69.801 225.861 69.801C224.457 69.801 223.3 70.035 222.39 70.503C221.48 70.945 220.687 71.595 220.011 72.453L217.398 70.347C218.36 69.099 219.517 68.137 220.869 67.461C222.247 66.759 224.028 66.408 226.212 66.408C228.916 66.408 230.97 66.915 232.374 67.929C233.778 68.917 234.48 70.23 234.48 71.868C234.48 73.064 234.129 74.039 233.427 74.793C232.751 75.547 231.802 76.067 230.58 76.353V76.509C231.906 76.717 232.946 77.237 233.7 78.069C234.48 78.875 234.87 79.941 234.87 81.267C234.87 83.139 234.09 84.647 232.53 85.791C230.97 86.909 228.773 87.468 225.939 87.468ZM259.113 87C257.891 87 256.968 86.688 256.344 86.064C255.746 85.44 255.382 84.621 255.252 83.607H255.057C254.667 84.829 253.952 85.778 252.912 86.454C251.898 87.13 250.598 87.468 249.012 87.468C246.958 87.468 245.32 86.935 244.098 85.869C242.876 84.777 242.265 83.282 242.265 81.384C242.265 79.434 242.98 77.952 244.41 76.938C245.866 75.898 248.089 75.378 251.079 75.378H254.94V73.818C254.94 71.088 253.497 69.723 250.611 69.723C249.311 69.723 248.258 69.983 247.452 70.503C246.646 70.997 245.97 71.66 245.424 72.492L242.889 70.425C243.461 69.333 244.423 68.397 245.775 67.617C247.127 66.811 248.869 66.408 251.001 66.408C253.549 66.408 255.551 67.019 257.007 68.241C258.463 69.463 259.191 71.231 259.191 73.545V83.646H261.726V87H259.113ZM250.221 84.348C251.599 84.348 252.73 84.036 253.614 83.412C254.498 82.788 254.94 81.982 254.94 80.994V78.069H251.157C248.089 78.069 246.555 78.992 246.555 80.838V81.618C246.555 82.528 246.88 83.217 247.53 83.685C248.18 84.127 249.077 84.348 250.221 84.348ZM268.77 66.876H279.573C281.315 66.876 282.667 67.344 283.629 68.28C284.591 69.19 285.072 70.412 285.072 71.946C285.072 74.442 283.707 75.898 280.977 76.314V76.509C282.641 76.639 283.863 77.12 284.643 77.952C285.423 78.758 285.813 79.824 285.813 81.15C285.813 81.956 285.67 82.71 285.384 83.412C285.124 84.114 284.734 84.738 284.214 85.284C283.694 85.804 283.044 86.22 282.264 86.532C281.51 86.844 280.652 87 279.69 87H268.77V66.876ZM278.793 83.802C279.625 83.802 280.275 83.607 280.743 83.217C281.211 82.801 281.445 82.216 281.445 81.462V80.526C281.445 79.772 281.211 79.187 280.743 78.771C280.301 78.355 279.703 78.147 278.949 78.147H273.021V83.802H278.793ZM278.403 75.3C279.105 75.3 279.664 75.105 280.08 74.715C280.496 74.325 280.704 73.792 280.704 73.116V72.258C280.704 71.582 280.496 71.049 280.08 70.659C279.664 70.269 279.105 70.074 278.403 70.074H273.021V75.3H278.403ZM299.76 70.308H292.701V66.876H311.109V70.308H304.011V87H299.76V70.308ZM318.425 66.876H322.676V70.308H322.91C323.508 69.086 324.301 68.137 325.289 67.461C326.277 66.759 327.512 66.408 328.994 66.408C331.36 66.408 333.245 67.292 334.649 69.06C336.053 70.828 336.755 73.454 336.755 76.938C336.755 80.422 336.053 83.048 334.649 84.816C333.245 86.584 331.36 87.468 328.994 87.468C327.512 87.468 326.277 87.13 325.289 86.454C324.301 85.752 323.508 84.79 322.91 83.568H322.676V94.8H318.425V66.876ZM327.239 83.997C328.851 83.997 330.086 83.503 330.944 82.515C331.828 81.527 332.27 80.214 332.27 78.576V75.3C332.27 73.662 331.828 72.349 330.944 71.361C330.086 70.373 328.851 69.879 327.239 69.879C326.615 69.879 326.03 69.957 325.484 70.113C324.938 70.269 324.457 70.503 324.041 70.815C323.625 71.127 323.287 71.517 323.027 71.985C322.793 72.427 322.676 72.96 322.676 73.584V80.292C322.676 80.916 322.793 81.462 323.027 81.93C323.287 82.372 323.625 82.749 324.041 83.061C324.457 83.373 324.938 83.607 325.484 83.763C326.03 83.919 326.615 83.997 327.239 83.997ZM359.672 87C358.45 87 357.527 86.688 356.903 86.064C356.305 85.44 355.941 84.621 355.811 83.607H355.616C355.226 84.829 354.511 85.778 353.471 86.454C352.457 87.13 351.157 87.468 349.571 87.468C347.517 87.468 345.879 86.935 344.657 85.869C343.435 84.777 342.824 83.282 342.824 81.384C342.824 79.434 343.539 77.952 344.969 76.938C346.425 75.898 348.648 75.378 351.638 75.378H355.499V73.818C355.499 71.088 354.056 69.723 351.17 69.723C349.87 69.723 348.817 69.983 348.011 70.503C347.205 70.997 346.529 71.66 345.983 72.492L343.448 70.425C344.02 69.333 344.982 68.397 346.334 67.617C347.686 66.811 349.428 66.408 351.56 66.408C354.108 66.408 356.11 67.019 357.566 68.241C359.022 69.463 359.75 71.231 359.75 73.545V83.646H362.285V87H359.672ZM350.78 84.348C352.158 84.348 353.289 84.036 354.173 83.412C355.057 82.788 355.499 81.982 355.499 80.994V78.069H351.716C348.648 78.069 347.114 78.992 347.114 80.838V81.618C347.114 82.528 347.439 83.217 348.089 83.685C348.739 84.127 349.636 84.348 350.78 84.348ZM401.918 87.468C399.734 87.468 397.914 87.13 396.458 86.454C395.002 85.778 393.845 84.842 392.987 83.646L395.717 81.228C396.393 82.164 397.212 82.879 398.174 83.373C399.162 83.841 400.397 84.075 401.879 84.075C403.439 84.075 404.596 83.815 405.35 83.295C406.104 82.775 406.481 82.099 406.481 81.267V80.877C406.481 80.045 406.221 79.408 405.701 78.966C405.181 78.524 404.388 78.303 403.322 78.303H398.213V75.183H402.893C403.985 75.183 404.778 74.975 405.272 74.559C405.792 74.117 406.052 73.506 406.052 72.726V72.336C406.052 71.582 405.727 70.971 405.077 70.503C404.427 70.035 403.348 69.801 401.84 69.801C400.436 69.801 399.279 70.035 398.369 70.503C397.459 70.945 396.666 71.595 395.99 72.453L393.377 70.347C394.339 69.099 395.496 68.137 396.848 67.461C398.226 66.759 400.007 66.408 402.191 66.408C404.895 66.408 406.949 66.915 408.353 67.929C409.757 68.917 410.459 70.23 410.459 71.868C410.459 73.064 410.108 74.039 409.406 74.793C408.73 75.547 407.781 76.067 406.559 76.353V76.509C407.885 76.717 408.925 77.237 409.679 78.069C410.459 78.875 410.849 79.941 410.849 81.267C410.849 83.139 410.069 84.647 408.509 85.791C406.949 86.909 404.752 87.468 401.918 87.468ZM435.092 87C433.87 87 432.947 86.688 432.323 86.064C431.725 85.44 431.361 84.621 431.231 83.607H431.036C430.646 84.829 429.931 85.778 428.891 86.454C427.877 87.13 426.577 87.468 424.991 87.468C422.937 87.468 421.299 86.935 420.077 85.869C418.855 84.777 418.244 83.282 418.244 81.384C418.244 79.434 418.959 77.952 420.389 76.938C421.845 75.898 424.068 75.378 427.058 75.378H430.919V73.818C430.919 71.088 429.476 69.723 426.59 69.723C425.29 69.723 424.237 69.983 423.431 70.503C422.625 70.997 421.949 71.66 421.403 72.492L418.868 70.425C419.44 69.333 420.402 68.397 421.754 67.617C423.106 66.811 424.848 66.408 426.98 66.408C429.528 66.408 431.53 67.019 432.986 68.241C434.442 69.463 435.17 71.231 435.17 73.545V83.646H437.705V87H435.092ZM426.2 84.348C427.578 84.348 428.709 84.036 429.593 83.412C430.477 82.788 430.919 81.982 430.919 80.994V78.069H427.136C424.068 78.069 422.534 78.992 422.534 80.838V81.618C422.534 82.528 422.859 83.217 423.509 83.685C424.159 84.127 425.056 84.348 426.2 84.348ZM444.748 66.876H455.551C457.293 66.876 458.645 67.344 459.607 68.28C460.569 69.19 461.05 70.412 461.05 71.946C461.05 74.442 459.685 75.898 456.955 76.314V76.509C458.619 76.639 459.841 77.12 460.621 77.952C461.401 78.758 461.791 79.824 461.791 81.15C461.791 81.956 461.648 82.71 461.362 83.412C461.102 84.114 460.712 84.738 460.192 85.284C459.672 85.804 459.022 86.22 458.242 86.532C457.488 86.844 456.63 87 455.668 87H444.748V66.876ZM454.771 83.802C455.603 83.802 456.253 83.607 456.721 83.217C457.189 82.801 457.423 82.216 457.423 81.462V80.526C457.423 79.772 457.189 79.187 456.721 78.771C456.279 78.355 455.681 78.147 454.927 78.147H448.999V83.802H454.771ZM454.381 75.3C455.083 75.3 455.642 75.105 456.058 74.715C456.474 74.325 456.682 73.792 456.682 73.116V72.258C456.682 71.582 456.474 71.049 456.058 70.659C455.642 70.269 455.083 70.074 454.381 70.074H448.999V75.3H454.381ZM478.312 87.468C476.778 87.468 475.4 87.221 474.178 86.727C472.956 86.233 471.929 85.531 471.097 84.621C470.265 83.711 469.628 82.619 469.186 81.345C468.744 80.045 468.523 78.589 468.523 76.977C468.523 75.365 468.744 73.909 469.186 72.609C469.654 71.309 470.291 70.204 471.097 69.294C471.929 68.358 472.93 67.643 474.1 67.149C475.27 66.655 476.57 66.408 478 66.408C479.404 66.408 480.678 66.655 481.822 67.149C482.966 67.617 483.941 68.293 484.747 69.177C485.553 70.061 486.164 71.114 486.58 72.336C487.022 73.558 487.243 74.91 487.243 76.392V77.991H472.813V78.654C472.813 80.24 473.307 81.54 474.295 82.554C475.283 83.542 476.648 84.036 478.39 84.036C479.69 84.036 480.795 83.763 481.705 83.217C482.641 82.645 483.395 81.891 483.967 80.955L486.619 83.295C485.943 84.465 484.903 85.453 483.499 86.259C482.121 87.065 480.392 87.468 478.312 87.468ZM478 69.645C477.246 69.645 476.544 69.775 475.894 70.035C475.27 70.295 474.724 70.672 474.256 71.166C473.814 71.634 473.463 72.193 473.203 72.843C472.943 73.493 472.813 74.208 472.813 74.988V75.261H482.914V74.871C482.914 73.285 482.459 72.024 481.549 71.088C480.665 70.126 479.482 69.645 478 69.645ZM494.404 66.876H498.655V70.308H498.889C499.487 69.086 500.28 68.137 501.268 67.461C502.256 66.759 503.491 66.408 504.973 66.408C507.339 66.408 509.224 67.292 510.628 69.06C512.032 70.828 512.734 73.454 512.734 76.938C512.734 80.422 512.032 83.048 510.628 84.816C509.224 86.584 507.339 87.468 504.973 87.468C503.491 87.468 502.256 87.13 501.268 86.454C500.28 85.752 499.487 84.79 498.889 83.568H498.655V94.8H494.404V66.876ZM503.218 83.997C504.83 83.997 506.065 83.503 506.923 82.515C507.807 81.527 508.249 80.214 508.249 78.576V75.3C508.249 73.662 507.807 72.349 506.923 71.361C506.065 70.373 504.83 69.879 503.218 69.879C502.594 69.879 502.009 69.957 501.463 70.113C500.917 70.269 500.436 70.503 500.02 70.815C499.604 71.127 499.266 71.517 499.006 71.985C498.772 72.427 498.655 72.96 498.655 73.584V80.292C498.655 80.916 498.772 81.462 499.006 81.93C499.266 82.372 499.604 82.749 500.02 83.061C500.436 83.373 500.917 83.607 501.463 83.763C502.009 83.919 502.594 83.997 503.218 83.997ZM518.179 66.876H521.806V83.724H526.33V66.876H529.957V83.724H534.481V66.876H538.108V87H518.179V66.876ZM560.79 87C559.568 87 558.645 86.688 558.021 86.064C557.423 85.44 557.059 84.621 556.929 83.607H556.734C556.344 84.829 555.629 85.778 554.589 86.454C553.575 87.13 552.275 87.468 550.689 87.468C548.635 87.468 546.997 86.935 545.775 85.869C544.553 84.777 543.942 83.282 543.942 81.384C543.942 79.434 544.657 77.952 546.087 76.938C547.543 75.898 549.766 75.378 552.756 75.378H556.617V73.818C556.617 71.088 555.174 69.723 552.288 69.723C550.988 69.723 549.935 69.983 549.129 70.503C548.323 70.997 547.647 71.66 547.101 72.492L544.566 70.425C545.138 69.333 546.1 68.397 547.452 67.617C548.804 66.811 550.546 66.408 552.678 66.408C555.226 66.408 557.228 67.019 558.684 68.241C560.14 69.463 560.868 71.231 560.868 73.545V83.646H563.403V87H560.79ZM551.898 84.348C553.276 84.348 554.407 84.036 555.291 83.412C556.175 82.788 556.617 81.982 556.617 80.994V78.069H552.834C549.766 78.069 548.232 78.992 548.232 80.838V81.618C548.232 82.528 548.557 83.217 549.207 83.685C549.857 84.127 550.754 84.348 551.898 84.348ZM578.871 87.468C577.337 87.468 575.959 87.221 574.737 86.727C573.515 86.233 572.488 85.531 571.656 84.621C570.824 83.711 570.187 82.619 569.745 81.345C569.303 80.045 569.082 78.589 569.082 76.977C569.082 75.365 569.303 73.909 569.745 72.609C570.213 71.309 570.85 70.204 571.656 69.294C572.488 68.358 573.489 67.643 574.659 67.149C575.829 66.655 577.129 66.408 578.559 66.408C579.963 66.408 581.237 66.655 582.381 67.149C583.525 67.617 584.5 68.293 585.306 69.177C586.112 70.061 586.723 71.114 587.139 72.336C587.581 73.558 587.802 74.91 587.802 76.392V77.991H573.372V78.654C573.372 80.24 573.866 81.54 574.854 82.554C575.842 83.542 577.207 84.036 578.949 84.036C580.249 84.036 581.354 83.763 582.264 83.217C583.2 82.645 583.954 81.891 584.526 80.955L587.178 83.295C586.502 84.465 585.462 85.453 584.058 86.259C582.68 87.065 580.951 87.468 578.871 87.468ZM578.559 69.645C577.805 69.645 577.103 69.775 576.453 70.035C575.829 70.295 575.283 70.672 574.815 71.166C574.373 71.634 574.022 72.193 573.762 72.843C573.502 73.493 573.372 74.208 573.372 74.988V75.261H583.473V74.871C583.473 73.285 583.018 72.024 582.108 71.088C581.224 70.126 580.041 69.645 578.559 69.645ZM601.437 70.308H594.378V66.876H612.786V70.308H605.688V87H601.437V70.308ZM629.463 87.468C627.955 87.468 626.603 87.221 625.407 86.727C624.237 86.233 623.236 85.531 622.404 84.621C621.598 83.711 620.974 82.606 620.532 81.306C620.116 80.006 619.908 78.55 619.908 76.938C619.908 75.326 620.116 73.87 620.532 72.57C620.974 71.27 621.598 70.165 622.404 69.255C623.236 68.345 624.237 67.643 625.407 67.149C626.603 66.655 627.942 66.408 629.424 66.408C631.504 66.408 633.168 66.85 634.416 67.734C635.69 68.618 636.639 69.762 637.263 71.166L633.948 72.96C633.584 72.024 633.025 71.283 632.271 70.737C631.543 70.191 630.594 69.918 629.424 69.918C627.812 69.918 626.564 70.412 625.68 71.4C624.796 72.362 624.354 73.649 624.354 75.261V78.615C624.354 80.201 624.796 81.488 625.68 82.476C626.564 83.464 627.838 83.958 629.502 83.958C630.75 83.958 631.764 83.672 632.544 83.1C633.35 82.528 633.987 81.748 634.455 80.76L637.575 82.671C636.925 84.075 635.937 85.232 634.611 86.142C633.285 87.026 631.569 87.468 629.463 87.468ZM644.423 83.568H646.724L648.167 80.916C648.479 80.318 648.843 79.889 649.259 79.629C649.675 79.343 650.182 79.174 650.78 79.122V78.966C649.116 78.836 647.764 78.303 646.724 77.367C645.684 76.431 645.164 75.053 645.164 73.233C645.164 72.271 645.32 71.4 645.632 70.62C645.944 69.84 646.386 69.177 646.958 68.631C647.556 68.059 648.258 67.63 649.064 67.344C649.896 67.032 650.819 66.876 651.833 66.876H661.817V87H657.566V79.512H653.783L651.17 84.27C650.65 85.258 650.078 85.96 649.454 86.376C648.83 86.792 648.024 87 647.036 87H644.423V83.568ZM657.566 70.191H652.613C651.625 70.191 650.858 70.425 650.312 70.893C649.792 71.335 649.532 71.959 649.532 72.765V73.779C649.532 74.585 649.792 75.222 650.312 75.69C650.858 76.132 651.625 76.353 652.613 76.353H657.566V70.191ZM704.57 87.468C703.036 87.468 701.658 87.221 700.436 86.727C699.214 86.233 698.187 85.531 697.355 84.621C696.523 83.711 695.886 82.619 695.444 81.345C695.002 80.045 694.781 78.589 694.781 76.977C694.781 75.365 695.002 73.909 695.444 72.609C695.912 71.309 696.549 70.204 697.355 69.294C698.187 68.358 699.188 67.643 700.358 67.149C701.528 66.655 702.828 66.408 704.258 66.408C705.662 66.408 706.936 66.655 708.08 67.149C709.224 67.617 710.199 68.293 711.005 69.177C711.811 70.061 712.422 71.114 712.838 72.336C713.28 73.558 713.501 74.91 713.501 76.392V77.991H699.071V78.654C699.071 80.24 699.565 81.54 700.553 82.554C701.541 83.542 702.906 84.036 704.648 84.036C705.948 84.036 707.053 83.763 707.963 83.217C708.899 82.645 709.653 81.891 710.225 80.955L712.877 83.295C712.201 84.465 711.161 85.453 709.757 86.259C708.379 87.065 706.65 87.468 704.57 87.468ZM704.258 69.645C703.504 69.645 702.802 69.775 702.152 70.035C701.528 70.295 700.982 70.672 700.514 71.166C700.072 71.634 699.721 72.193 699.461 72.843C699.201 73.493 699.071 74.208 699.071 74.988V75.261H709.172V74.871C709.172 73.285 708.717 72.024 707.807 71.088C706.923 70.126 705.74 69.645 704.258 69.645ZM727.487 78.303H724.601L722.3 87H718.478L720.428 79.629C720.662 78.771 720.974 78.108 721.364 77.64C721.78 77.172 722.339 76.873 723.041 76.743V76.548C721.871 76.21 721.078 75.3 720.662 73.818L718.751 66.876H722.456L724.718 75.105H727.487V66.876H731.075V75.105H733.844L736.106 66.876H739.811L737.9 73.818C737.484 75.3 736.691 76.21 735.521 76.548V76.743C736.223 76.873 736.769 77.172 737.159 77.64C737.575 78.108 737.9 78.771 738.134 79.629L740.084 87H736.262L733.961 78.303H731.075V87H727.487V78.303ZM754.849 87.468C753.315 87.468 751.937 87.221 750.715 86.727C749.493 86.233 748.466 85.531 747.634 84.621C746.802 83.711 746.165 82.619 745.723 81.345C745.281 80.045 745.06 78.589 745.06 76.977C745.06 75.365 745.281 73.909 745.723 72.609C746.191 71.309 746.828 70.204 747.634 69.294C748.466 68.358 749.467 67.643 750.637 67.149C751.807 66.655 753.107 66.408 754.537 66.408C755.941 66.408 757.215 66.655 758.359 67.149C759.503 67.617 760.478 68.293 761.284 69.177C762.09 70.061 762.701 71.114 763.117 72.336C763.559 73.558 763.78 74.91 763.78 76.392V77.991H749.35V78.654C749.35 80.24 749.844 81.54 750.832 82.554C751.82 83.542 753.185 84.036 754.927 84.036C756.227 84.036 757.332 83.763 758.242 83.217C759.178 82.645 759.932 81.891 760.504 80.955L763.156 83.295C762.48 84.465 761.44 85.453 760.036 86.259C758.658 87.065 756.929 87.468 754.849 87.468ZM754.537 69.645C753.783 69.645 753.081 69.775 752.431 70.035C751.807 70.295 751.261 70.672 750.793 71.166C750.351 71.634 750 72.193 749.74 72.843C749.48 73.493 749.35 74.208 749.35 74.988V75.261H759.451V74.871C759.451 73.285 758.996 72.024 758.086 71.088C757.202 70.126 756.019 69.645 754.537 69.645ZM772.891 66.876H787.672V70.308H777.142V87H772.891V66.876ZM804.7 87.468C803.218 87.468 801.879 87.221 800.683 86.727C799.513 86.233 798.512 85.531 797.68 84.621C796.874 83.711 796.25 82.606 795.808 81.306C795.366 80.006 795.145 78.55 795.145 76.938C795.145 75.326 795.366 73.87 795.808 72.57C796.25 71.27 796.874 70.165 797.68 69.255C798.512 68.345 799.513 67.643 800.683 67.149C801.879 66.655 803.218 66.408 804.7 66.408C806.182 66.408 807.508 66.655 808.678 67.149C809.874 67.643 810.875 68.345 811.681 69.255C812.513 70.165 813.15 71.27 813.592 72.57C814.034 73.87 814.255 75.326 814.255 76.938C814.255 78.55 814.034 80.006 813.592 81.306C813.15 82.606 812.513 83.711 811.681 84.621C810.875 85.531 809.874 86.233 808.678 86.727C807.508 87.221 806.182 87.468 804.7 87.468ZM804.7 84.114C806.26 84.114 807.495 83.646 808.405 82.71C809.341 81.748 809.809 80.331 809.809 78.459V75.417C809.809 73.545 809.341 72.141 808.405 71.205C807.495 70.243 806.26 69.762 804.7 69.762C803.14 69.762 801.892 70.243 800.956 71.205C800.046 72.141 799.591 73.545 799.591 75.417V78.459C799.591 80.331 800.046 81.748 800.956 82.71C801.892 83.646 803.14 84.114 804.7 84.114ZM818.803 83.568H821.104C821.858 82.372 822.456 80.929 822.898 79.239C823.34 77.523 823.561 75.495 823.561 73.155V66.876H837.289V83.568H840.526V92.46H836.704V87H822.625V92.46H818.803V83.568ZM833.116 83.568V70.308H827.539V73.311C827.539 75.599 827.357 77.575 826.993 79.239C826.655 80.877 826.148 82.32 825.472 83.568H833.116ZM846.556 66.876H850.807V74.988H859.153V66.876H863.404V87H859.153V78.42H850.807V87H846.556V66.876ZM887.607 87C886.385 87 885.462 86.688 884.838 86.064C884.24 85.44 883.876 84.621 883.746 83.607H883.551C883.161 84.829 882.446 85.778 881.406 86.454C880.392 87.13 879.092 87.468 877.506 87.468C875.452 87.468 873.814 86.935 872.592 85.869C871.37 84.777 870.759 83.282 870.759 81.384C870.759 79.434 871.474 77.952 872.904 76.938C874.36 75.898 876.583 75.378 879.573 75.378H883.434V73.818C883.434 71.088 881.991 69.723 879.105 69.723C877.805 69.723 876.752 69.983 875.946 70.503C875.14 70.997 874.464 71.66 873.918 72.492L871.383 70.425C871.955 69.333 872.917 68.397 874.269 67.617C875.621 66.811 877.363 66.408 879.495 66.408C882.043 66.408 884.045 67.019 885.501 68.241C886.957 69.463 887.685 71.231 887.685 73.545V83.646H890.22V87H887.607ZM878.715 84.348C880.093 84.348 881.224 84.036 882.108 83.412C882.992 82.788 883.434 81.982 883.434 80.994V78.069H879.651C876.583 78.069 875.049 78.992 875.049 80.838V81.618C875.049 82.528 875.374 83.217 876.024 83.685C876.674 84.127 877.571 84.348 878.715 84.348ZM895.821 83.568H898.122L899.565 80.916C899.877 80.318 900.241 79.889 900.657 79.629C901.073 79.343 901.58 79.174 902.178 79.122V78.966C900.514 78.836 899.162 78.303 898.122 77.367C897.082 76.431 896.562 75.053 896.562 73.233C896.562 72.271 896.718 71.4 897.03 70.62C897.342 69.84 897.784 69.177 898.356 68.631C898.954 68.059 899.656 67.63 900.462 67.344C901.294 67.032 902.217 66.876 903.231 66.876H913.215V87H908.964V79.512H905.181L902.568 84.27C902.048 85.258 901.476 85.96 900.852 86.376C900.228 86.792 899.422 87 898.434 87H895.821V83.568ZM908.964 70.191H904.011C903.023 70.191 902.256 70.425 901.71 70.893C901.19 71.335 900.93 71.959 900.93 72.765V73.779C900.93 74.585 901.19 75.222 901.71 75.69C902.256 76.132 903.023 76.353 904.011 76.353H908.964V70.191ZM946.296 66.876H951.249L955.617 76.353H955.89L960.258 66.876H964.782V87H961.077V75.651L961.233 72.102H960.96L955.539 83.841L950.118 72.102H949.845L950.001 75.651V87H946.296V66.876ZM980.678 87.468C979.196 87.468 977.857 87.221 976.661 86.727C975.491 86.233 974.49 85.531 973.658 84.621C972.852 83.711 972.228 82.606 971.786 81.306C971.344 80.006 971.123 78.55 971.123 76.938C971.123 75.326 971.344 73.87 971.786 72.57C972.228 71.27 972.852 70.165 973.658 69.255C974.49 68.345 975.491 67.643 976.661 67.149C977.857 66.655 979.196 66.408 980.678 66.408C982.16 66.408 983.486 66.655 984.656 67.149C985.852 67.643 986.853 68.345 987.659 69.255C988.491 70.165 989.128 71.27 989.57 72.57C990.012 73.87 990.233 75.326 990.233 76.938C990.233 78.55 990.012 80.006 989.57 81.306C989.128 82.606 988.491 83.711 987.659 84.621C986.853 85.531 985.852 86.233 984.656 86.727C983.486 87.221 982.16 87.468 980.678 87.468ZM980.678 84.114C982.238 84.114 983.473 83.646 984.383 82.71C985.319 81.748 985.787 80.331 985.787 78.459V75.417C985.787 73.545 985.319 72.141 984.383 71.205C983.473 70.243 982.238 69.762 980.678 69.762C979.118 69.762 977.87 70.243 976.934 71.205C976.024 72.141 975.569 73.545 975.569 75.417V78.459C975.569 80.331 976.024 81.748 976.934 82.71C977.87 83.646 979.118 84.114 980.678 84.114ZM995.054 83.568H997.667C998.005 83.126 998.304 82.619 998.564 82.047C998.85 81.449 999.071 80.734 999.227 79.902C999.409 79.07 999.539 78.108 999.617 77.016C999.721 75.924 999.773 74.65 999.773 73.194V66.876H1014.01V87H1009.76V70.308H1003.75V73.272C1003.75 76.678 1003.5 79.343 1003.01 81.267C1002.52 83.191 1001.84 84.595 1000.98 85.479C1000.38 86.103 999.695 86.519 998.915 86.727C998.135 86.909 997.316 87 996.458 87H995.054V83.568ZM1031.39 87.468C1029.85 87.468 1028.47 87.221 1027.25 86.727C1026.03 86.233 1025 85.531 1024.17 84.621C1023.34 83.711 1022.7 82.619 1022.26 81.345C1021.82 80.045 1021.6 78.589 1021.6 76.977C1021.6 75.365 1021.82 73.909 1022.26 72.609C1022.73 71.309 1023.37 70.204 1024.17 69.294C1025 68.358 1026 67.643 1027.17 67.149C1028.34 66.655 1029.64 66.408 1031.07 66.408C1032.48 66.408 1033.75 66.655 1034.9 67.149C1036.04 67.617 1037.02 68.293 1037.82 69.177C1038.63 70.061 1039.24 71.114 1039.65 72.336C1040.1 73.558 1040.32 74.91 1040.32 76.392V77.991H1025.89V78.654C1025.89 80.24 1026.38 81.54 1027.37 82.554C1028.36 83.542 1029.72 84.036 1031.46 84.036C1032.76 84.036 1033.87 83.763 1034.78 83.217C1035.72 82.645 1036.47 81.891 1037.04 80.955L1039.69 83.295C1039.02 84.465 1037.98 85.453 1036.57 86.259C1035.2 87.065 1033.47 87.468 1031.39 87.468ZM1031.07 69.645C1030.32 69.645 1029.62 69.775 1028.97 70.035C1028.34 70.295 1027.8 70.672 1027.33 71.166C1026.89 71.634 1026.54 72.193 1026.28 72.843C1026.02 73.493 1025.89 74.208 1025.89 74.988V75.261H1035.99V74.871C1035.99 73.285 1035.53 72.024 1034.62 71.088C1033.74 70.126 1032.56 69.645 1031.07 69.645ZM1047.99 66.876H1052.24V74.988H1055.86L1060.7 66.876H1065.26L1060.78 74.208C1060.34 74.962 1059.91 75.495 1059.49 75.807C1059.07 76.119 1058.59 76.34 1058.05 76.47V76.665C1058.67 76.795 1059.19 77.029 1059.61 77.367C1060.02 77.679 1060.45 78.225 1060.89 79.005L1063.43 83.568H1065.61V87H1063.12C1062.26 87 1061.52 86.805 1060.89 86.415C1060.3 85.999 1059.74 85.336 1059.22 84.426L1055.86 78.42H1052.24V87H1047.99V66.876ZM1087.13 66.876H1091.42L1081.67 90.9C1081.15 92.2 1080.46 93.175 1079.6 93.825C1078.77 94.475 1077.56 94.8 1075.97 94.8H1072.58V91.368H1077.34L1079.17 86.727L1071.06 66.876H1075.5L1078.7 75.3L1081.2 82.203H1081.43L1083.93 75.3L1087.13 66.876ZM1095.61 83.568H1098.23C1098.56 83.126 1098.86 82.619 1099.12 82.047C1099.41 81.449 1099.63 80.734 1099.79 79.902C1099.97 79.07 1100.1 78.108 1100.18 77.016C1100.28 75.924 1100.33 74.65 1100.33 73.194V66.876H1114.57V87H1110.32V70.308H1104.31V73.272C1104.31 76.678 1104.06 79.343 1103.57 81.267C1103.08 83.191 1102.4 84.595 1101.54 85.479C1100.94 86.103 1100.25 86.519 1099.47 86.727C1098.69 86.909 1097.88 87 1097.02 87H1095.61V83.568ZM1122.08 83.568H1124.38L1125.82 80.916C1126.13 80.318 1126.5 79.889 1126.91 79.629C1127.33 79.343 1127.84 79.174 1128.44 79.122V78.966C1126.77 78.836 1125.42 78.303 1124.38 77.367C1123.34 76.431 1122.82 75.053 1122.82 73.233C1122.82 72.271 1122.98 71.4 1123.29 70.62C1123.6 69.84 1124.04 69.177 1124.61 68.631C1125.21 68.059 1125.91 67.63 1126.72 67.344C1127.55 67.032 1128.47 66.876 1129.49 66.876H1139.47V87H1135.22V79.512H1131.44L1128.83 84.27C1128.31 85.258 1127.73 85.96 1127.11 86.376C1126.49 86.792 1125.68 87 1124.69 87H1122.08V83.568ZM1135.22 70.191H1130.27C1129.28 70.191 1128.51 70.425 1127.97 70.893C1127.45 71.335 1127.19 71.959 1127.19 72.765V73.779C1127.19 74.585 1127.45 75.222 1127.97 75.69C1128.51 76.132 1129.28 76.353 1130.27 76.353H1135.22V70.191ZM1148.04 66.876H1152.29V70.308H1152.52C1153.12 69.086 1153.91 68.137 1154.9 67.461C1155.89 66.759 1157.12 66.408 1158.61 66.408C1160.97 66.408 1162.86 67.292 1164.26 69.06C1165.67 70.828 1166.37 73.454 1166.37 76.938C1166.37 80.422 1165.67 83.048 1164.26 84.816C1162.86 86.584 1160.97 87.468 1158.61 87.468C1157.12 87.468 1155.89 87.13 1154.9 86.454C1153.91 85.752 1153.12 84.79 1152.52 83.568H1152.29V94.8H1148.04V66.876ZM1156.85 83.997C1158.46 83.997 1159.7 83.503 1160.56 82.515C1161.44 81.527 1161.88 80.214 1161.88 78.576V75.3C1161.88 73.662 1161.44 72.349 1160.56 71.361C1159.7 70.373 1158.46 69.879 1156.85 69.879C1156.23 69.879 1155.64 69.957 1155.1 70.113C1154.55 70.269 1154.07 70.503 1153.65 70.815C1153.24 71.127 1152.9 71.517 1152.64 71.985C1152.41 72.427 1152.29 72.96 1152.29 73.584V80.292C1152.29 80.916 1152.41 81.462 1152.64 81.93C1152.9 82.372 1153.24 82.749 1153.65 83.061C1154.07 83.373 1154.55 83.607 1155.1 83.763C1155.64 83.919 1156.23 83.997 1156.85 83.997ZM1173.37 66.876H1177.62V74.988H1185.97V66.876H1190.22V87H1185.97V78.42H1177.62V87H1173.37V66.876ZM1214.42 87C1213.2 87 1212.28 86.688 1211.66 86.064C1211.06 85.44 1210.69 84.621 1210.56 83.607H1210.37C1209.98 84.829 1209.26 85.778 1208.22 86.454C1207.21 87.13 1205.91 87.468 1204.32 87.468C1202.27 87.468 1200.63 86.935 1199.41 85.869C1198.19 84.777 1197.58 83.282 1197.58 81.384C1197.58 79.434 1198.29 77.952 1199.72 76.938C1201.18 75.898 1203.4 75.378 1206.39 75.378H1210.25V73.818C1210.25 71.088 1208.81 69.723 1205.92 69.723C1204.62 69.723 1203.57 69.983 1202.76 70.503C1201.96 70.997 1201.28 71.66 1200.74 72.492L1198.2 70.425C1198.77 69.333 1199.73 68.397 1201.09 67.617C1202.44 66.811 1204.18 66.408 1206.31 66.408C1208.86 66.408 1210.86 67.019 1212.32 68.241C1213.77 69.463 1214.5 71.231 1214.5 73.545V83.646H1217.04V87H1214.42ZM1205.53 84.348C1206.91 84.348 1208.04 84.036 1208.93 83.412C1209.81 82.788 1210.25 81.982 1210.25 80.994V78.069H1206.47C1203.4 78.069 1201.87 78.992 1201.87 80.838V81.618C1201.87 82.528 1202.19 83.217 1202.84 83.685C1203.49 84.127 1204.39 84.348 1205.53 84.348ZM1222.64 83.568H1224.94L1226.38 80.916C1226.69 80.318 1227.06 79.889 1227.47 79.629C1227.89 79.343 1228.4 79.174 1228.99 79.122V78.966C1227.33 78.836 1225.98 78.303 1224.94 77.367C1223.9 76.431 1223.38 75.053 1223.38 73.233C1223.38 72.271 1223.53 71.4 1223.85 70.62C1224.16 69.84 1224.6 69.177 1225.17 68.631C1225.77 68.059 1226.47 67.63 1227.28 67.344C1228.11 67.032 1229.03 66.876 1230.05 66.876H1240.03V87H1235.78V79.512H1232L1229.38 84.27C1228.86 85.258 1228.29 85.96 1227.67 86.376C1227.04 86.792 1226.24 87 1225.25 87H1222.64V83.568ZM1235.78 70.191H1230.83C1229.84 70.191 1229.07 70.425 1228.53 70.893C1228.01 71.335 1227.75 71.959 1227.75 72.765V73.779C1227.75 74.585 1228.01 75.222 1228.53 75.69C1229.07 76.132 1229.84 76.353 1230.83 76.353H1235.78V70.191ZM1274.36 66.876H1285.16C1286.91 66.876 1288.26 67.344 1289.22 68.28C1290.18 69.19 1290.66 70.412 1290.66 71.946C1290.66 74.442 1289.3 75.898 1286.57 76.314V76.509C1288.23 76.639 1289.45 77.12 1290.23 77.952C1291.01 78.758 1291.4 79.824 1291.4 81.15C1291.4 81.956 1291.26 82.71 1290.97 83.412C1290.71 84.114 1290.32 84.738 1289.8 85.284C1289.28 85.804 1288.63 86.22 1287.85 86.532C1287.1 86.844 1286.24 87 1285.28 87H1274.36V66.876ZM1284.38 83.802C1285.22 83.802 1285.87 83.607 1286.33 83.217C1286.8 82.801 1287.04 82.216 1287.04 81.462V80.526C1287.04 79.772 1286.8 79.187 1286.33 78.771C1285.89 78.355 1285.29 78.147 1284.54 78.147H1278.61V83.802H1284.38ZM1283.99 75.3C1284.7 75.3 1285.25 75.105 1285.67 74.715C1286.09 74.325 1286.29 73.792 1286.29 73.116V72.258C1286.29 71.582 1286.09 71.049 1285.67 70.659C1285.25 70.269 1284.7 70.074 1283.99 70.074H1278.61V75.3H1283.99ZM1297.51 66.876H1301.37V73.506H1304.22C1306.27 73.506 1307.92 74.091 1309.17 75.261C1310.45 76.431 1311.08 78.095 1311.08 80.253C1311.08 82.411 1310.45 84.075 1309.17 85.245C1307.92 86.415 1306.27 87 1304.22 87H1297.51V66.876ZM1303.95 83.802C1304.93 83.802 1305.7 83.581 1306.25 83.139C1306.82 82.671 1307.11 81.943 1307.11 80.955V79.551C1307.11 78.563 1306.82 77.848 1306.25 77.406C1305.7 76.938 1304.93 76.704 1303.95 76.704H1301.37V83.802H1303.95ZM1313.62 66.876H1317.48V87H1313.62V66.876ZM1333.38 87.468C1331.87 87.468 1330.52 87.221 1329.32 86.727C1328.15 86.233 1327.15 85.531 1326.32 84.621C1325.51 83.711 1324.89 82.606 1324.45 81.306C1324.03 80.006 1323.82 78.55 1323.82 76.938C1323.82 75.326 1324.03 73.87 1324.45 72.57C1324.89 71.27 1325.51 70.165 1326.32 69.255C1327.15 68.345 1328.15 67.643 1329.32 67.149C1330.52 66.655 1331.86 66.408 1333.34 66.408C1335.42 66.408 1337.08 66.85 1338.33 67.734C1339.6 68.618 1340.55 69.762 1341.18 71.166L1337.86 72.96C1337.5 72.024 1336.94 71.283 1336.18 70.737C1335.46 70.191 1334.51 69.918 1333.34 69.918C1331.73 69.918 1330.48 70.412 1329.59 71.4C1328.71 72.362 1328.27 73.649 1328.27 75.261V78.615C1328.27 80.201 1328.71 81.488 1329.59 82.476C1330.48 83.464 1331.75 83.958 1333.42 83.958C1334.66 83.958 1335.68 83.672 1336.46 83.1C1337.26 82.528 1337.9 81.748 1338.37 80.76L1341.49 82.671C1340.84 84.075 1339.85 85.232 1338.52 86.142C1337.2 87.026 1335.48 87.468 1333.38 87.468ZM1355.63 70.308H1348.57V66.876H1366.98V70.308H1359.88V87H1355.63V70.308ZM1390.4 87C1389.18 87 1388.26 86.688 1387.63 86.064C1387.04 85.44 1386.67 84.621 1386.54 83.607H1386.35C1385.96 84.829 1385.24 85.778 1384.2 86.454C1383.19 87.13 1381.89 87.468 1380.3 87.468C1378.25 87.468 1376.61 86.935 1375.39 85.869C1374.17 84.777 1373.55 83.282 1373.55 81.384C1373.55 79.434 1374.27 77.952 1375.7 76.938C1377.16 75.898 1379.38 75.378 1382.37 75.378H1386.23V73.818C1386.23 71.088 1384.79 69.723 1381.9 69.723C1380.6 69.723 1379.55 69.983 1378.74 70.503C1377.94 70.997 1377.26 71.66 1376.71 72.492L1374.18 70.425C1374.75 69.333 1375.71 68.397 1377.06 67.617C1378.42 66.811 1380.16 66.408 1382.29 66.408C1384.84 66.408 1386.84 67.019 1388.3 68.241C1389.75 69.463 1390.48 71.231 1390.48 73.545V83.646H1393.02V87H1390.4ZM1381.51 84.348C1382.89 84.348 1384.02 84.036 1384.9 83.412C1385.79 82.788 1386.23 81.982 1386.23 80.994V78.069H1382.45C1379.38 78.069 1377.84 78.992 1377.84 80.838V81.618C1377.84 82.528 1378.17 83.217 1378.82 83.685C1379.47 84.127 1380.37 84.348 1381.51 84.348ZM1400.06 66.876H1410.86C1412.6 66.876 1413.96 67.344 1414.92 68.28C1415.88 69.19 1416.36 70.412 1416.36 71.946C1416.36 74.442 1415 75.898 1412.27 76.314V76.509C1413.93 76.639 1415.15 77.12 1415.93 77.952C1416.71 78.758 1417.1 79.824 1417.1 81.15C1417.1 81.956 1416.96 82.71 1416.67 83.412C1416.41 84.114 1416.02 84.738 1415.5 85.284C1414.98 85.804 1414.33 86.22 1413.55 86.532C1412.8 86.844 1411.94 87 1410.98 87H1400.06V66.876ZM1410.08 83.802C1410.91 83.802 1411.56 83.607 1412.03 83.217C1412.5 82.801 1412.73 82.216 1412.73 81.462V80.526C1412.73 79.772 1412.5 79.187 1412.03 78.771C1411.59 78.355 1410.99 78.147 1410.24 78.147H1404.31V83.802H1410.08ZM1409.69 75.3C1410.39 75.3 1410.95 75.105 1411.37 74.715C1411.79 74.325 1411.99 73.792 1411.99 73.116V72.258C1411.99 71.582 1411.79 71.049 1411.37 70.659C1410.95 70.269 1410.39 70.074 1409.69 70.074H1404.31V75.3H1409.69ZM1425.08 66.876H1429.33V74.988H1432.96L1437.8 66.876H1442.36L1437.87 74.208C1437.43 74.962 1437 75.495 1436.59 75.807C1436.17 76.119 1435.69 76.34 1435.14 76.47V76.665C1435.77 76.795 1436.29 77.029 1436.7 77.367C1437.12 77.679 1437.55 78.225 1437.99 79.005L1440.53 83.568H1442.71V87H1440.21C1439.36 87 1438.62 86.805 1437.99 86.415C1437.39 85.999 1436.83 85.336 1436.31 84.426L1432.96 78.42H1429.33V87H1425.08V66.876ZM1465.82 87C1464.6 87 1463.68 86.688 1463.05 86.064C1462.45 85.44 1462.09 84.621 1461.96 83.607H1461.77C1461.38 84.829 1460.66 85.778 1459.62 86.454C1458.61 87.13 1457.31 87.468 1455.72 87.468C1453.67 87.468 1452.03 86.935 1450.81 85.869C1449.58 84.777 1448.97 83.282 1448.97 81.384C1448.97 79.434 1449.69 77.952 1451.12 76.938C1452.57 75.898 1454.8 75.378 1457.79 75.378H1461.65V73.818C1461.65 71.088 1460.21 69.723 1457.32 69.723C1456.02 69.723 1454.97 69.983 1454.16 70.503C1453.35 70.997 1452.68 71.66 1452.13 72.492L1449.6 70.425C1450.17 69.333 1451.13 68.397 1452.48 67.617C1453.84 66.811 1455.58 66.408 1457.71 66.408C1460.26 66.408 1462.26 67.019 1463.72 68.241C1465.17 69.463 1465.9 71.231 1465.9 73.545V83.646H1468.43V87H1465.82ZM1456.93 84.348C1458.31 84.348 1459.44 84.036 1460.32 83.412C1461.21 82.788 1461.65 81.982 1461.65 80.994V78.069H1457.87C1454.8 78.069 1453.26 78.992 1453.26 80.838V81.618C1453.26 82.528 1453.59 83.217 1454.24 83.685C1454.89 84.127 1455.79 84.348 1456.93 84.348ZM1483.47 87.39C1482.23 87.39 1481.34 87.13 1480.82 86.61C1480.33 86.09 1480.08 85.453 1480.08 84.699V83.685C1480.08 82.931 1480.33 82.294 1480.82 81.774C1481.34 81.254 1482.23 80.994 1483.47 80.994C1484.72 80.994 1485.59 81.254 1486.09 81.774C1486.61 82.294 1486.87 82.931 1486.87 83.685V84.699C1486.87 85.453 1486.61 86.09 1486.09 86.61C1485.59 87.13 1484.72 87.39 1483.47 87.39ZM220.577 150.334H224.906L225.998 147.565L216.911 126.778H221.591L226.388 138.361L227.987 143.002H228.065L229.547 138.283L233.642 126.778H237.971L229.313 149.788C229.001 150.62 228.663 151.309 228.299 151.855C227.961 152.401 227.571 152.83 227.129 153.142C226.687 153.454 226.18 153.675 225.608 153.805C225.036 153.935 224.36 154 223.58 154H220.577V150.334ZM256.208 145.108H256.013C255.337 145.94 254.531 146.577 253.595 147.019C252.685 147.435 251.528 147.643 250.124 147.643C245.73 147.643 243.533 145.42 243.533 140.974V133.876H247.784V140.701C247.784 141.871 248.083 142.729 248.681 143.275C249.305 143.795 250.345 144.055 251.801 144.055C253.127 144.055 254.193 143.86 254.999 143.47C255.805 143.054 256.208 142.456 256.208 141.676V133.876H260.459V154H256.208V145.108ZM285.13 154C283.908 154 282.985 153.688 282.361 153.064C281.763 152.44 281.399 151.621 281.269 150.607H281.074C280.684 151.829 279.969 152.778 278.929 153.454C277.915 154.13 276.615 154.468 275.029 154.468C272.975 154.468 271.337 153.935 270.115 152.869C268.893 151.777 268.282 150.282 268.282 148.384C268.282 146.434 268.997 144.952 270.427 143.938C271.883 142.898 274.106 142.378 277.096 142.378H280.957V140.818C280.957 138.088 279.514 136.723 276.628 136.723C275.328 136.723 274.275 136.983 273.469 137.503C272.663 137.997 271.987 138.66 271.441 139.492L268.906 137.425C269.478 136.333 270.44 135.397 271.792 134.617C273.144 133.811 274.886 133.408 277.018 133.408C279.566 133.408 281.568 134.019 283.024 135.241C284.48 136.463 285.208 138.231 285.208 140.545V150.646H287.743V154H285.13ZM276.238 151.348C277.616 151.348 278.747 151.036 279.631 150.412C280.515 149.788 280.957 148.982 280.957 147.994V145.069H277.174C274.106 145.069 272.572 145.992 272.572 147.838V148.618C272.572 149.528 272.897 150.217 273.547 150.685C274.197 151.127 275.094 151.348 276.238 151.348ZM303.523 154.468C302.015 154.468 300.663 154.221 299.467 153.727C298.297 153.233 297.296 152.531 296.464 151.621C295.658 150.711 295.034 149.606 294.592 148.306C294.176 147.006 293.968 145.55 293.968 143.938C293.968 142.326 294.176 140.87 294.592 139.57C295.034 138.27 295.658 137.165 296.464 136.255C297.296 135.345 298.297 134.643 299.467 134.149C300.663 133.655 302.002 133.408 303.484 133.408C305.564 133.408 307.228 133.85 308.476 134.734C309.75 135.618 310.699 136.762 311.323 138.166L308.008 139.96C307.644 139.024 307.085 138.283 306.331 137.737C305.603 137.191 304.654 136.918 303.484 136.918C301.872 136.918 300.624 137.412 299.74 138.4C298.856 139.362 298.414 140.649 298.414 142.261V145.615C298.414 147.201 298.856 148.488 299.74 149.476C300.624 150.464 301.898 150.958 303.562 150.958C304.81 150.958 305.824 150.672 306.604 150.1C307.41 149.528 308.047 148.748 308.515 147.76L311.635 149.671C310.985 151.075 309.997 152.232 308.671 153.142C307.345 154.026 305.629 154.468 303.523 154.468ZM325.777 137.308H318.718V133.876H337.126V137.308H330.028V154H325.777V137.308ZM345.067 133.876H355.87C357.612 133.876 358.964 134.344 359.926 135.28C360.888 136.19 361.369 137.412 361.369 138.946C361.369 141.442 360.004 142.898 357.274 143.314V143.509C358.938 143.639 360.16 144.12 360.94 144.952C361.72 145.758 362.11 146.824 362.11 148.15C362.11 148.956 361.967 149.71 361.681 150.412C361.421 151.114 361.031 151.738 360.511 152.284C359.991 152.804 359.341 153.22 358.561 153.532C357.807 153.844 356.949 154 355.987 154H345.067V133.876ZM355.09 150.802C355.922 150.802 356.572 150.607 357.04 150.217C357.508 149.801 357.742 149.216 357.742 148.462V147.526C357.742 146.772 357.508 146.187 357.04 145.771C356.598 145.355 356 145.147 355.246 145.147H349.318V150.802H355.09ZM354.7 142.3C355.402 142.3 355.961 142.105 356.377 141.715C356.793 141.325 357.001 140.792 357.001 140.116V139.258C357.001 138.582 356.793 138.049 356.377 137.659C355.961 137.269 355.402 137.074 354.7 137.074H349.318V142.3H354.7ZM384.09 133.876H388.38L378.63 157.9C378.11 159.2 377.421 160.175 376.563 160.825C375.731 161.475 374.522 161.8 372.936 161.8H369.543V158.368H374.301L376.134 153.727L368.022 133.876H372.468L375.666 142.3L378.162 149.203H378.396L380.892 142.3L384.09 133.876ZM394.878 133.876H399.09V142.534L398.7 147.994H398.895L407.787 133.876H411.804V154H407.592V145.342L407.982 139.882H407.787L398.895 154H394.878V133.876ZM403.341 131.224C401.833 131.224 400.611 130.899 399.675 130.249C398.739 129.573 397.972 128.572 397.374 127.246L396.399 125.062L399.948 123.814L401.352 127.948C401.586 128.052 401.898 128.13 402.288 128.182C402.678 128.208 403.029 128.221 403.341 128.221C403.653 128.221 404.004 128.208 404.394 128.182C404.784 128.13 405.096 128.052 405.33 127.948L406.734 123.814L410.283 125.062L409.308 127.246C408.71 128.572 407.943 129.573 407.007 130.249C406.071 130.899 404.849 131.224 403.341 131.224ZM426.336 137.308H419.277V133.876H437.685V137.308H430.587V154H426.336V137.308ZM454.05 154.468C452.516 154.468 451.138 154.221 449.916 153.727C448.694 153.233 447.667 152.531 446.835 151.621C446.003 150.711 445.366 149.619 444.924 148.345C444.482 147.045 444.261 145.589 444.261 143.977C444.261 142.365 444.482 140.909 444.924 139.609C445.392 138.309 446.029 137.204 446.835 136.294C447.667 135.358 448.668 134.643 449.838 134.149C451.008 133.655 452.308 133.408 453.738 133.408C455.142 133.408 456.416 133.655 457.56 134.149C458.704 134.617 459.679 135.293 460.485 136.177C461.291 137.061 461.902 138.114 462.318 139.336C462.76 140.558 462.981 141.91 462.981 143.392V144.991H448.551V145.654C448.551 147.24 449.045 148.54 450.033 149.554C451.021 150.542 452.386 151.036 454.128 151.036C455.428 151.036 456.533 150.763 457.443 150.217C458.379 149.645 459.133 148.891 459.705 147.955L462.357 150.295C461.681 151.465 460.641 152.453 459.237 153.259C457.859 154.065 456.13 154.468 454.05 154.468ZM453.738 136.645C452.984 136.645 452.282 136.775 451.632 137.035C451.008 137.295 450.462 137.672 449.994 138.166C449.552 138.634 449.201 139.193 448.941 139.843C448.681 140.493 448.551 141.208 448.551 141.988V142.261H458.652V141.871C458.652 140.285 458.197 139.024 457.287 138.088C456.403 137.126 455.22 136.645 453.738 136.645ZM495.905 133.876H506.708C508.45 133.876 509.802 134.344 510.764 135.28C511.726 136.19 512.207 137.412 512.207 138.946C512.207 141.442 510.842 142.898 508.112 143.314V143.509C509.776 143.639 510.998 144.12 511.778 144.952C512.558 145.758 512.948 146.824 512.948 148.15C512.948 148.956 512.805 149.71 512.519 150.412C512.259 151.114 511.869 151.738 511.349 152.284C510.829 152.804 510.179 153.22 509.399 153.532C508.645 153.844 507.787 154 506.825 154H495.905V133.876ZM505.928 150.802C506.76 150.802 507.41 150.607 507.878 150.217C508.346 149.801 508.58 149.216 508.58 148.462V147.526C508.58 146.772 508.346 146.187 507.878 145.771C507.436 145.355 506.838 145.147 506.084 145.147H500.156V150.802H505.928ZM505.538 142.3C506.24 142.3 506.799 142.105 507.215 141.715C507.631 141.325 507.839 140.792 507.839 140.116V139.258C507.839 138.582 507.631 138.049 507.215 137.659C506.799 137.269 506.24 137.074 505.538 137.074H500.156V142.3H505.538ZM545.795 133.876H562.565V154H558.314V137.308H550.046V154H545.795V133.876ZM570.701 133.876H574.952V137.308H575.186C575.784 136.086 576.577 135.137 577.565 134.461C578.553 133.759 579.788 133.408 581.27 133.408C583.636 133.408 585.521 134.292 586.925 136.06C588.329 137.828 589.031 140.454 589.031 143.938C589.031 147.422 588.329 150.048 586.925 151.816C585.521 153.584 583.636 154.468 581.27 154.468C579.788 154.468 578.553 154.13 577.565 153.454C576.577 152.752 575.784 151.79 575.186 150.568H574.952V161.8H570.701V133.876ZM579.515 150.997C581.127 150.997 582.362 150.503 583.22 149.515C584.104 148.527 584.546 147.214 584.546 145.576V142.3C584.546 140.662 584.104 139.349 583.22 138.361C582.362 137.373 581.127 136.879 579.515 136.879C578.891 136.879 578.306 136.957 577.76 137.113C577.214 137.269 576.733 137.503 576.317 137.815C575.901 138.127 575.563 138.517 575.303 138.985C575.069 139.427 574.952 139.96 574.952 140.584V147.292C574.952 147.916 575.069 148.462 575.303 148.93C575.563 149.372 575.901 149.749 576.317 150.061C576.733 150.373 577.214 150.607 577.76 150.763C578.306 150.919 578.891 150.997 579.515 150.997ZM595.996 133.876H600.208V142.534L599.818 147.994H600.013L608.905 133.876H612.922V154H608.71V145.342L609.1 139.882H608.905L600.013 154H595.996V133.876ZM622.93 133.876H637.711V137.308H627.181V154H622.93V133.876ZM654.739 154.468C653.257 154.468 651.918 154.221 650.722 153.727C649.552 153.233 648.551 152.531 647.719 151.621C646.913 150.711 646.289 149.606 645.847 148.306C645.405 147.006 645.184 145.55 645.184 143.938C645.184 142.326 645.405 140.87 645.847 139.57C646.289 138.27 646.913 137.165 647.719 136.255C648.551 135.345 649.552 134.643 650.722 134.149C651.918 133.655 653.257 133.408 654.739 133.408C656.221 133.408 657.547 133.655 658.717 134.149C659.913 134.643 660.914 135.345 661.72 136.255C662.552 137.165 663.189 138.27 663.631 139.57C664.073 140.87 664.294 142.326 664.294 143.938C664.294 145.55 664.073 147.006 663.631 148.306C663.189 149.606 662.552 150.711 661.72 151.621C660.914 152.531 659.913 153.233 658.717 153.727C657.547 154.221 656.221 154.468 654.739 154.468ZM654.739 151.114C656.299 151.114 657.534 150.646 658.444 149.71C659.38 148.748 659.848 147.331 659.848 145.459V142.417C659.848 140.545 659.38 139.141 658.444 138.205C657.534 137.243 656.299 136.762 654.739 136.762C653.179 136.762 651.931 137.243 650.995 138.205C650.085 139.141 649.63 140.545 649.63 142.417V145.459C649.63 147.331 650.085 148.748 650.995 149.71C651.931 150.646 653.179 151.114 654.739 151.114ZM677.734 137.308H670.675V133.876H689.083V137.308H681.985V154H677.734V137.308ZM705.018 154.468C703.536 154.468 702.197 154.221 701.001 153.727C699.831 153.233 698.83 152.531 697.998 151.621C697.192 150.711 696.568 149.606 696.126 148.306C695.684 147.006 695.463 145.55 695.463 143.938C695.463 142.326 695.684 140.87 696.126 139.57C696.568 138.27 697.192 137.165 697.998 136.255C698.83 135.345 699.831 134.643 701.001 134.149C702.197 133.655 703.536 133.408 705.018 133.408C706.5 133.408 707.826 133.655 708.996 134.149C710.192 134.643 711.193 135.345 711.999 136.255C712.831 137.165 713.468 138.27 713.91 139.57C714.352 140.87 714.573 142.326 714.573 143.938C714.573 145.55 714.352 147.006 713.91 148.306C713.468 149.606 712.831 150.711 711.999 151.621C711.193 152.531 710.192 153.233 708.996 153.727C707.826 154.221 706.5 154.468 705.018 154.468ZM705.018 151.114C706.578 151.114 707.813 150.646 708.723 149.71C709.659 148.748 710.127 147.331 710.127 145.459V142.417C710.127 140.545 709.659 139.141 708.723 138.205C707.813 137.243 706.578 136.762 705.018 136.762C703.458 136.762 702.21 137.243 701.274 138.205C700.364 139.141 699.909 140.545 699.909 142.417V145.459C699.909 147.331 700.364 148.748 701.274 149.71C702.21 150.646 703.458 151.114 705.018 151.114ZM722.163 133.876H732.966C734.708 133.876 736.06 134.344 737.022 135.28C737.984 136.19 738.465 137.412 738.465 138.946C738.465 141.442 737.1 142.898 734.37 143.314V143.509C736.034 143.639 737.256 144.12 738.036 144.952C738.816 145.758 739.206 146.824 739.206 148.15C739.206 148.956 739.063 149.71 738.777 150.412C738.517 151.114 738.127 151.738 737.607 152.284C737.087 152.804 736.437 153.22 735.657 153.532C734.903 153.844 734.045 154 733.083 154H722.163V133.876ZM732.186 150.802C733.018 150.802 733.668 150.607 734.136 150.217C734.604 149.801 734.838 149.216 734.838 148.462V147.526C734.838 146.772 734.604 146.187 734.136 145.771C733.694 145.355 733.096 145.147 732.342 145.147H726.414V150.802H732.186ZM731.796 142.3C732.498 142.3 733.057 142.105 733.473 141.715C733.889 141.325 734.097 140.792 734.097 140.116V139.258C734.097 138.582 733.889 138.049 733.473 137.659C733.057 137.269 732.498 137.074 731.796 137.074H726.414V142.3H731.796ZM744.534 150.568H747.147C747.485 150.126 747.784 149.619 748.044 149.047C748.33 148.449 748.551 147.734 748.707 146.902C748.889 146.07 749.019 145.108 749.097 144.016C749.201 142.924 749.253 141.65 749.253 140.194V133.876H763.488V154H759.237V137.308H753.231V140.272C753.231 143.678 752.984 146.343 752.49 148.267C751.996 150.191 751.32 151.595 750.462 152.479C749.864 153.103 749.175 153.519 748.395 153.727C747.615 153.909 746.796 154 745.938 154H744.534V150.568ZM780.867 154.468C779.333 154.468 777.955 154.221 776.733 153.727C775.511 153.233 774.484 152.531 773.652 151.621C772.82 150.711 772.183 149.619 771.741 148.345C771.299 147.045 771.078 145.589 771.078 143.977C771.078 142.365 771.299 140.909 771.741 139.609C772.209 138.309 772.846 137.204 773.652 136.294C774.484 135.358 775.485 134.643 776.655 134.149C777.825 133.655 779.125 133.408 780.555 133.408C781.959 133.408 783.233 133.655 784.377 134.149C785.521 134.617 786.496 135.293 787.302 136.177C788.108 137.061 788.719 138.114 789.135 139.336C789.577 140.558 789.798 141.91 789.798 143.392V144.991H775.368V145.654C775.368 147.24 775.862 148.54 776.85 149.554C777.838 150.542 779.203 151.036 780.945 151.036C782.245 151.036 783.35 150.763 784.26 150.217C785.196 149.645 785.95 148.891 786.522 147.955L789.174 150.295C788.498 151.465 787.458 152.453 786.054 153.259C784.676 154.065 782.947 154.468 780.867 154.468ZM780.555 136.645C779.801 136.645 779.099 136.775 778.449 137.035C777.825 137.295 777.279 137.672 776.811 138.166C776.369 138.634 776.018 139.193 775.758 139.843C775.498 140.493 775.368 141.208 775.368 141.988V142.261H785.469V141.871C785.469 140.285 785.014 139.024 784.104 138.088C783.22 137.126 782.037 136.645 780.555 136.645ZM797.154 133.876H801.405V141.988H809.751V133.876H814.002V154H809.751V145.42H801.405V154H797.154V133.876ZM822.254 133.876H826.466V142.534L826.076 147.994H826.271L835.163 133.876H839.18V154H834.968V145.342L835.358 139.882H835.163L826.271 154H822.254V133.876ZM847.394 133.876H851.606V142.534L851.216 147.994H851.411L860.303 133.876H864.32V154H860.108V145.342L860.498 139.882H860.303L851.411 154H847.394V133.876ZM906.176 154.468C904.746 154.468 903.446 154.221 902.276 153.727C901.132 153.233 900.144 152.492 899.312 151.504C898.506 150.516 897.882 149.281 897.44 147.799C896.998 146.291 896.777 144.536 896.777 142.534C896.777 139.492 896.985 136.905 897.401 134.773C897.817 132.615 898.48 130.86 899.39 129.508C900.3 128.13 901.457 127.103 902.861 126.427C904.291 125.751 906.007 125.348 908.009 125.218L914.132 124.867V128.845L908.087 129.196C906.865 129.274 905.838 129.482 905.006 129.82C904.2 130.132 903.537 130.639 903.017 131.341C902.497 132.043 902.094 132.953 901.808 134.071C901.548 135.163 901.366 136.528 901.262 138.166H901.496C901.99 136.866 902.705 135.865 903.641 135.163C904.577 134.461 905.786 134.11 907.268 134.11C908.49 134.11 909.608 134.331 910.622 134.773C911.662 135.215 912.546 135.865 913.274 136.723C914.002 137.555 914.561 138.595 914.951 139.843C915.367 141.091 915.575 142.508 915.575 144.094C915.575 145.654 915.354 147.084 914.912 148.384C914.47 149.658 913.833 150.75 913.001 151.66C912.195 152.544 911.207 153.233 910.037 153.727C908.893 154.221 907.606 154.468 906.176 154.468ZM906.137 151.114C907.619 151.114 908.815 150.646 909.725 149.71C910.661 148.748 911.129 147.409 911.129 145.693V142.963C911.129 141.143 910.687 139.778 909.803 138.868C908.919 137.932 907.697 137.464 906.137 137.464C904.551 137.464 903.329 137.919 902.471 138.829C901.639 139.713 901.223 140.896 901.223 142.378V145.615C901.223 147.409 901.665 148.774 902.549 149.71C903.459 150.646 904.655 151.114 906.137 151.114ZM920.512 150.568H923.125C923.463 150.126 923.762 149.619 924.022 149.047C924.308 148.449 924.529 147.734 924.685 146.902C924.867 146.07 924.997 145.108 925.075 144.016C925.179 142.924 925.231 141.65 925.231 140.194V133.876H939.466V154H935.215V137.308H929.209V140.272C929.209 143.678 928.962 146.343 928.468 148.267C927.974 150.191 927.298 151.595 926.44 152.479C925.842 153.103 925.153 153.519 924.373 153.727C923.593 153.909 922.774 154 921.916 154H920.512V150.568ZM959.965 154.468C958.925 154.468 958.002 154.312 957.196 154C956.416 153.714 955.74 153.22 955.168 152.518C954.622 151.79 954.193 150.841 953.881 149.671C953.595 148.501 953.413 147.032 953.335 145.264H950.137V154H946.432V133.876H950.137V142.144H953.374C953.452 140.48 953.647 139.089 953.959 137.971C954.297 136.853 954.739 135.956 955.285 135.28C955.831 134.604 956.494 134.123 957.274 133.837C958.054 133.551 958.951 133.408 959.965 133.408C961.057 133.408 962.019 133.577 962.851 133.915C963.683 134.253 964.372 134.825 964.918 135.631C965.49 136.437 965.906 137.516 966.166 138.868C966.452 140.22 966.595 141.91 966.595 143.938C966.595 145.966 966.452 147.656 966.166 149.008C965.88 150.36 965.464 151.439 964.918 152.245C964.372 153.051 963.683 153.623 962.851 153.961C962.019 154.299 961.057 154.468 959.965 154.468ZM959.965 151.231C960.433 151.231 960.836 151.153 961.174 150.997C961.538 150.841 961.824 150.568 962.032 150.178C962.266 149.788 962.435 149.255 962.539 148.579C962.669 147.877 962.734 146.98 962.734 145.888V141.988C962.734 140.896 962.669 140.012 962.539 139.336C962.435 138.634 962.266 138.088 962.032 137.698C961.824 137.308 961.538 137.035 961.174 136.879C960.836 136.723 960.433 136.645 959.965 136.645C959.497 136.645 959.081 136.723 958.717 136.879C958.379 137.035 958.093 137.308 957.859 137.698C957.651 138.088 957.482 138.634 957.352 139.336C957.248 140.012 957.196 140.896 957.196 141.988V145.888C957.196 146.98 957.248 147.877 957.352 148.579C957.482 149.255 957.651 149.788 957.859 150.178C958.093 150.568 958.379 150.841 958.717 150.997C959.081 151.153 959.497 151.231 959.965 151.231ZM970.519 150.568H972.82C973.574 149.372 974.172 147.929 974.614 146.239C975.056 144.523 975.277 142.495 975.277 140.155V133.876H989.005V150.568H992.242V159.46H988.42V154H974.341V159.46H970.519V150.568ZM984.832 150.568V137.308H979.255V140.311C979.255 142.599 979.073 144.575 978.709 146.239C978.371 147.877 977.864 149.32 977.188 150.568H984.832ZM1023.84 133.876H1034.64C1036.39 133.876 1037.74 134.344 1038.7 135.28C1039.66 136.19 1040.14 137.412 1040.14 138.946C1040.14 141.442 1038.78 142.898 1036.05 143.314V143.509C1037.71 143.639 1038.93 144.12 1039.71 144.952C1040.49 145.758 1040.88 146.824 1040.88 148.15C1040.88 148.956 1040.74 149.71 1040.45 150.412C1040.19 151.114 1039.8 151.738 1039.28 152.284C1038.76 152.804 1038.11 153.22 1037.33 153.532C1036.58 153.844 1035.72 154 1034.76 154H1023.84V133.876ZM1033.86 150.802C1034.7 150.802 1035.35 150.607 1035.81 150.217C1036.28 149.801 1036.52 149.216 1036.52 148.462V147.526C1036.52 146.772 1036.28 146.187 1035.81 145.771C1035.37 145.355 1034.77 145.147 1034.02 145.147H1028.09V150.802H1033.86ZM1033.47 142.3C1034.18 142.3 1034.73 142.105 1035.15 141.715C1035.57 141.325 1035.77 140.792 1035.77 140.116V139.258C1035.77 138.582 1035.57 138.049 1035.15 137.659C1034.73 137.269 1034.18 137.074 1033.47 137.074H1028.09V142.3H1033.47ZM1046.99 133.876H1050.85V140.506H1053.7C1055.75 140.506 1057.4 141.091 1058.65 142.261C1059.93 143.431 1060.56 145.095 1060.56 147.253C1060.56 149.411 1059.93 151.075 1058.65 152.245C1057.4 153.415 1055.75 154 1053.7 154H1046.99V133.876ZM1053.43 150.802C1054.41 150.802 1055.18 150.581 1055.73 150.139C1056.3 149.671 1056.59 148.943 1056.59 147.955V146.551C1056.59 145.563 1056.3 144.848 1055.73 144.406C1055.18 143.938 1054.41 143.704 1053.43 143.704H1050.85V150.802H1053.43ZM1063.1 133.876H1066.96V154H1063.1V133.876ZM1082.86 154.468C1081.35 154.468 1080 154.221 1078.8 153.727C1077.63 153.233 1076.63 152.531 1075.8 151.621C1074.99 150.711 1074.37 149.606 1073.92 148.306C1073.51 147.006 1073.3 145.55 1073.3 143.938C1073.3 142.326 1073.51 140.87 1073.92 139.57C1074.37 138.27 1074.99 137.165 1075.8 136.255C1076.63 135.345 1077.63 134.643 1078.8 134.149C1080 133.655 1081.33 133.408 1082.82 133.408C1084.9 133.408 1086.56 133.85 1087.81 134.734C1089.08 135.618 1090.03 136.762 1090.66 138.166L1087.34 139.96C1086.98 139.024 1086.42 138.283 1085.66 137.737C1084.94 137.191 1083.99 136.918 1082.82 136.918C1081.2 136.918 1079.96 137.412 1079.07 138.4C1078.19 139.362 1077.75 140.649 1077.75 142.261V145.615C1077.75 147.201 1078.19 148.488 1079.07 149.476C1079.96 150.464 1081.23 150.958 1082.89 150.958C1084.14 150.958 1085.16 150.672 1085.94 150.1C1086.74 149.528 1087.38 148.748 1087.85 147.76L1090.97 149.671C1090.32 151.075 1089.33 152.232 1088 153.142C1086.68 154.026 1084.96 154.468 1082.86 154.468ZM1107.25 154.468C1105.77 154.468 1104.43 154.221 1103.24 153.727C1102.07 153.233 1101.07 152.531 1100.23 151.621C1099.43 150.711 1098.8 149.606 1098.36 148.306C1097.92 147.006 1097.7 145.55 1097.7 143.938C1097.7 142.326 1097.92 140.87 1098.36 139.57C1098.8 138.27 1099.43 137.165 1100.23 136.255C1101.07 135.345 1102.07 134.643 1103.24 134.149C1104.43 133.655 1105.77 133.408 1107.25 133.408C1108.74 133.408 1110.06 133.655 1111.23 134.149C1112.43 134.643 1113.43 135.345 1114.24 136.255C1115.07 137.165 1115.7 138.27 1116.15 139.57C1116.59 140.87 1116.81 142.326 1116.81 143.938C1116.81 145.55 1116.59 147.006 1116.15 148.306C1115.7 149.606 1115.07 150.711 1114.24 151.621C1113.43 152.531 1112.43 153.233 1111.23 153.727C1110.06 154.221 1108.74 154.468 1107.25 154.468ZM1107.25 151.114C1108.81 151.114 1110.05 150.646 1110.96 149.71C1111.9 148.748 1112.36 147.331 1112.36 145.459V142.417C1112.36 140.545 1111.9 139.141 1110.96 138.205C1110.05 137.243 1108.81 136.762 1107.25 136.762C1105.69 136.762 1104.45 137.243 1103.51 138.205C1102.6 139.141 1102.15 140.545 1102.15 142.417V145.459C1102.15 147.331 1102.6 148.748 1103.51 149.71C1104.45 150.646 1105.69 151.114 1107.25 151.114ZM1124.28 133.876H1128.53V141.988H1132.16L1137 133.876H1141.56L1137.07 141.208C1136.63 141.962 1136.2 142.495 1135.79 142.807C1135.37 143.119 1134.89 143.34 1134.34 143.47V143.665C1134.97 143.795 1135.49 144.029 1135.9 144.367C1136.32 144.679 1136.75 145.225 1137.19 146.005L1139.73 150.568H1141.91V154H1139.41C1138.56 154 1137.82 153.805 1137.19 153.415C1136.59 152.999 1136.03 152.336 1135.51 151.426L1132.16 145.42H1128.53V154H1124.28V133.876ZM1157.53 154.468C1156.05 154.468 1154.71 154.221 1153.52 153.727C1152.35 153.233 1151.35 152.531 1150.51 151.621C1149.71 150.711 1149.08 149.606 1148.64 148.306C1148.2 147.006 1147.98 145.55 1147.98 143.938C1147.98 142.326 1148.2 140.87 1148.64 139.57C1149.08 138.27 1149.71 137.165 1150.51 136.255C1151.35 135.345 1152.35 134.643 1153.52 134.149C1154.71 133.655 1156.05 133.408 1157.53 133.408C1159.02 133.408 1160.34 133.655 1161.51 134.149C1162.71 134.643 1163.71 135.345 1164.52 136.255C1165.35 137.165 1165.98 138.27 1166.43 139.57C1166.87 140.87 1167.09 142.326 1167.09 143.938C1167.09 145.55 1166.87 147.006 1166.43 148.306C1165.98 149.606 1165.35 150.711 1164.52 151.621C1163.71 152.531 1162.71 153.233 1161.51 153.727C1160.34 154.221 1159.02 154.468 1157.53 154.468ZM1157.53 151.114C1159.09 151.114 1160.33 150.646 1161.24 149.71C1162.18 148.748 1162.64 147.331 1162.64 145.459V142.417C1162.64 140.545 1162.18 139.141 1161.24 138.205C1160.33 137.243 1159.09 136.762 1157.53 136.762C1155.97 136.762 1154.73 137.243 1153.79 138.205C1152.88 139.141 1152.43 140.545 1152.43 142.417V145.459C1152.43 147.331 1152.88 148.748 1153.79 149.71C1154.73 150.646 1155.97 151.114 1157.53 151.114ZM1174.21 133.876H1178.42V142.534L1178.03 147.994H1178.23L1187.12 133.876H1191.14V154H1186.92V145.342L1187.32 139.882H1187.12L1178.23 154H1174.21V133.876ZM1182.67 131.224C1181.17 131.224 1179.94 130.899 1179.01 130.249C1178.07 129.573 1177.3 128.572 1176.71 127.246L1175.73 125.062L1179.28 123.814L1180.68 127.948C1180.92 128.052 1181.23 128.13 1181.62 128.182C1182.01 128.208 1182.36 128.221 1182.67 128.221C1182.99 128.221 1183.34 128.208 1183.73 128.182C1184.12 128.13 1184.43 128.052 1184.66 127.948L1186.07 123.814L1189.62 125.062L1188.64 127.246C1188.04 128.572 1187.28 129.573 1186.34 130.249C1185.4 130.899 1184.18 131.224 1182.67 131.224ZM1224.84 133.876H1229.09V141.988H1232.72L1237.56 133.876H1242.12L1237.63 141.208C1237.19 141.962 1236.76 142.495 1236.35 142.807C1235.93 143.119 1235.45 143.34 1234.9 143.47V143.665C1235.53 143.795 1236.05 144.029 1236.46 144.367C1236.88 144.679 1237.31 145.225 1237.75 146.005L1240.29 150.568H1242.47V154H1239.97C1239.12 154 1238.37 153.805 1237.75 153.415C1237.15 152.999 1236.59 152.336 1236.07 151.426L1232.72 145.42H1229.09V154H1224.84V133.876ZM1263.98 133.876H1268.27L1258.52 157.9C1258 159.2 1257.31 160.175 1256.46 160.825C1255.62 161.475 1254.41 161.8 1252.83 161.8H1249.44V158.368H1254.19L1256.03 153.727L1247.91 133.876H1252.36L1255.56 142.3L1258.05 149.203H1258.29L1260.78 142.3L1263.98 133.876ZM1273.29 154L1280.78 143.782L1273.6 133.876H1278.55L1281.2 137.698L1283.31 140.74H1283.54L1285.61 137.698L1288.26 133.876H1292.87L1285.65 143.626L1293.22 154H1288.22L1285.22 149.671L1283.15 146.707H1282.92L1280.89 149.671L1277.93 154H1273.29ZM1299.95 133.876H1304.2V141.988H1312.55V133.876H1316.8V154H1312.55V145.42H1304.2V154H1299.95V133.876ZM1325.05 133.876H1329.26V142.534L1328.87 147.994H1329.07L1337.96 133.876H1341.98V154H1337.76V145.342L1338.15 139.882H1337.96L1329.07 154H1325.05V133.876ZM319.459 200.876H323.671V209.534L323.281 214.994H323.476L332.368 200.876H336.385V221H332.173V212.342L332.563 206.882H332.368L323.476 221H319.459V200.876ZM352.516 221.468C350.332 221.468 348.512 221.13 347.056 220.454C345.6 219.778 344.443 218.842 343.585 217.646L346.315 215.228C346.991 216.164 347.81 216.879 348.772 217.373C349.76 217.841 350.995 218.075 352.477 218.075C354.037 218.075 355.194 217.815 355.948 217.295C356.702 216.775 357.079 216.099 357.079 215.267V214.877C357.079 214.045 356.819 213.408 356.299 212.966C355.779 212.524 354.986 212.303 353.92 212.303H348.811V209.183H353.491C354.583 209.183 355.376 208.975 355.87 208.559C356.39 208.117 356.65 207.506 356.65 206.726V206.336C356.65 205.582 356.325 204.971 355.675 204.503C355.025 204.035 353.946 203.801 352.438 203.801C351.034 203.801 349.877 204.035 348.967 204.503C348.057 204.945 347.264 205.595 346.588 206.453L343.975 204.347C344.937 203.099 346.094 202.137 347.446 201.461C348.824 200.759 350.605 200.408 352.789 200.408C355.493 200.408 357.547 200.915 358.951 201.929C360.355 202.917 361.057 204.23 361.057 205.868C361.057 207.064 360.706 208.039 360.004 208.793C359.328 209.547 358.379 210.067 357.157 210.353V210.509C358.483 210.717 359.523 211.237 360.277 212.069C361.057 212.875 361.447 213.941 361.447 215.267C361.447 217.139 360.667 218.647 359.107 219.791C357.547 220.909 355.35 221.468 352.516 221.468ZM394.917 200.876H399.168V208.988H407.514V200.876H411.765V221H407.514V212.42H399.168V221H394.917V200.876ZM428.91 221.468C427.376 221.468 425.998 221.221 424.776 220.727C423.554 220.233 422.527 219.531 421.695 218.621C420.863 217.711 420.226 216.619 419.784 215.345C419.342 214.045 419.121 212.589 419.121 210.977C419.121 209.365 419.342 207.909 419.784 206.609C420.252 205.309 420.889 204.204 421.695 203.294C422.527 202.358 423.528 201.643 424.698 201.149C425.868 200.655 427.168 200.408 428.598 200.408C430.002 200.408 431.276 200.655 432.42 201.149C433.564 201.617 434.539 202.293 435.345 203.177C436.151 204.061 436.762 205.114 437.178 206.336C437.62 207.558 437.841 208.91 437.841 210.392V211.991H423.411V212.654C423.411 214.24 423.905 215.54 424.893 216.554C425.881 217.542 427.246 218.036 428.988 218.036C430.288 218.036 431.393 217.763 432.303 217.217C433.239 216.645 433.993 215.891 434.565 214.955L437.217 217.295C436.541 218.465 435.501 219.453 434.097 220.259C432.719 221.065 430.99 221.468 428.91 221.468ZM428.598 203.645C427.844 203.645 427.142 203.775 426.492 204.035C425.868 204.295 425.322 204.672 424.854 205.166C424.412 205.634 424.061 206.193 423.801 206.843C423.541 207.493 423.411 208.208 423.411 208.988V209.261H433.512V208.871C433.512 207.285 433.057 206.024 432.147 205.088C431.263 204.126 430.08 203.645 428.598 203.645ZM453.075 221.468C450.891 221.468 449.071 221.13 447.615 220.454C446.159 219.778 445.002 218.842 444.144 217.646L446.874 215.228C447.55 216.164 448.369 216.879 449.331 217.373C450.319 217.841 451.554 218.075 453.036 218.075C454.596 218.075 455.753 217.815 456.507 217.295C457.261 216.775 457.638 216.099 457.638 215.267V214.877C457.638 214.045 457.378 213.408 456.858 212.966C456.338 212.524 455.545 212.303 454.479 212.303H449.37V209.183H454.05C455.142 209.183 455.935 208.975 456.429 208.559C456.949 208.117 457.209 207.506 457.209 206.726V206.336C457.209 205.582 456.884 204.971 456.234 204.503C455.584 204.035 454.505 203.801 452.997 203.801C451.593 203.801 450.436 204.035 449.526 204.503C448.616 204.945 447.823 205.595 447.147 206.453L444.534 204.347C445.496 203.099 446.653 202.137 448.005 201.461C449.383 200.759 451.164 200.408 453.348 200.408C456.052 200.408 458.106 200.915 459.51 201.929C460.914 202.917 461.616 204.23 461.616 205.868C461.616 207.064 461.265 208.039 460.563 208.793C459.887 209.547 458.938 210.067 457.716 210.353V210.509C459.042 210.717 460.082 211.237 460.836 212.069C461.616 212.875 462.006 213.941 462.006 215.267C462.006 217.139 461.226 218.647 459.666 219.791C458.106 220.909 455.909 221.468 453.075 221.468ZM479.19 221.468C477.656 221.468 476.278 221.221 475.056 220.727C473.834 220.233 472.807 219.531 471.975 218.621C471.143 217.711 470.506 216.619 470.064 215.345C469.622 214.045 469.401 212.589 469.401 210.977C469.401 209.365 469.622 207.909 470.064 206.609C470.532 205.309 471.169 204.204 471.975 203.294C472.807 202.358 473.808 201.643 474.978 201.149C476.148 200.655 477.448 200.408 478.878 200.408C480.282 200.408 481.556 200.655 482.7 201.149C483.844 201.617 484.819 202.293 485.625 203.177C486.431 204.061 487.042 205.114 487.458 206.336C487.9 207.558 488.121 208.91 488.121 210.392V211.991H473.691V212.654C473.691 214.24 474.185 215.54 475.173 216.554C476.161 217.542 477.526 218.036 479.268 218.036C480.568 218.036 481.673 217.763 482.583 217.217C483.519 216.645 484.273 215.891 484.845 214.955L487.497 217.295C486.821 218.465 485.781 219.453 484.377 220.259C482.999 221.065 481.27 221.468 479.19 221.468ZM478.878 203.645C478.124 203.645 477.422 203.775 476.772 204.035C476.148 204.295 475.602 204.672 475.134 205.166C474.692 205.634 474.341 206.193 474.081 206.843C473.821 207.493 473.691 208.208 473.691 208.988V209.261H483.792V208.871C483.792 207.285 483.337 206.024 482.427 205.088C481.543 204.126 480.36 203.645 478.878 203.645ZM494.657 200.876H499.61L503.978 210.353H504.251L508.619 200.876H513.143V221H509.438V209.651L509.594 206.102H509.321L503.9 217.841L498.479 206.102H498.206L498.362 209.651V221H494.657V200.876ZM520.616 200.876H524.867V208.988H533.213V200.876H537.464V221H533.213V212.42H524.867V221H520.616V200.876ZM544.196 200.876H548.057V207.506H550.904C552.958 207.506 554.609 208.091 555.857 209.261C557.131 210.431 557.768 212.095 557.768 214.253C557.768 216.411 557.131 218.075 555.857 219.245C554.609 220.415 552.958 221 550.904 221H544.196V200.876ZM550.631 217.802C551.619 217.802 552.386 217.581 552.932 217.139C553.504 216.671 553.79 215.943 553.79 214.955V213.551C553.79 212.563 553.504 211.848 552.932 211.406C552.386 210.938 551.619 210.704 550.631 210.704H548.057V217.802H550.631ZM560.303 200.876H564.164V221H560.303V200.876ZM569.375 221L576.863 210.782L569.687 200.876H574.64L577.292 204.698L579.398 207.74H579.632L581.699 204.698L584.351 200.876H588.953L581.738 210.626L589.304 221H584.312L581.309 216.671L579.242 213.707H579.008L576.98 216.671L574.016 221H569.375ZM620.356 200.876H625.309L629.677 210.353H629.95L634.318 200.876H638.842V221H635.137V209.651L635.293 206.102H635.02L629.599 217.841L624.178 206.102H623.905L624.061 209.651V221H620.356V200.876ZM654.739 221.468C653.257 221.468 651.918 221.221 650.722 220.727C649.552 220.233 648.551 219.531 647.719 218.621C646.913 217.711 646.289 216.606 645.847 215.306C645.405 214.006 645.184 212.55 645.184 210.938C645.184 209.326 645.405 207.87 645.847 206.57C646.289 205.27 646.913 204.165 647.719 203.255C648.551 202.345 649.552 201.643 650.722 201.149C651.918 200.655 653.257 200.408 654.739 200.408C656.221 200.408 657.547 200.655 658.717 201.149C659.913 201.643 660.914 202.345 661.72 203.255C662.552 204.165 663.189 205.27 663.631 206.57C664.073 207.87 664.294 209.326 664.294 210.938C664.294 212.55 664.073 214.006 663.631 215.306C663.189 216.606 662.552 217.711 661.72 218.621C660.914 219.531 659.913 220.233 658.717 220.727C657.547 221.221 656.221 221.468 654.739 221.468ZM654.739 218.114C656.299 218.114 657.534 217.646 658.444 216.71C659.38 215.748 659.848 214.331 659.848 212.459V209.417C659.848 207.545 659.38 206.141 658.444 205.205C657.534 204.243 656.299 203.762 654.739 203.762C653.179 203.762 651.931 204.243 650.995 205.205C650.085 206.141 649.63 207.545 649.63 209.417V212.459C649.63 214.331 650.085 215.748 650.995 216.71C651.931 217.646 653.179 218.114 654.739 218.114ZM669.115 217.568H671.728C672.066 217.126 672.365 216.619 672.625 216.047C672.911 215.449 673.132 214.734 673.288 213.902C673.47 213.07 673.6 212.108 673.678 211.016C673.782 209.924 673.834 208.65 673.834 207.194V200.876H688.069V221H683.818V204.308H677.812V207.272C677.812 210.678 677.565 213.343 677.071 215.267C676.577 217.191 675.901 218.595 675.043 219.479C674.445 220.103 673.756 220.519 672.976 220.727C672.196 220.909 671.377 221 670.519 221H669.115V217.568ZM705.447 221.468C703.913 221.468 702.535 221.221 701.313 220.727C700.091 220.233 699.064 219.531 698.232 218.621C697.4 217.711 696.763 216.619 696.321 215.345C695.879 214.045 695.658 212.589 695.658 210.977C695.658 209.365 695.879 207.909 696.321 206.609C696.789 205.309 697.426 204.204 698.232 203.294C699.064 202.358 700.065 201.643 701.235 201.149C702.405 200.655 703.705 200.408 705.135 200.408C706.539 200.408 707.813 200.655 708.957 201.149C710.101 201.617 711.076 202.293 711.882 203.177C712.688 204.061 713.299 205.114 713.715 206.336C714.157 207.558 714.378 208.91 714.378 210.392V211.991H699.948V212.654C699.948 214.24 700.442 215.54 701.43 216.554C702.418 217.542 703.783 218.036 705.525 218.036C706.825 218.036 707.93 217.763 708.84 217.217C709.776 216.645 710.53 215.891 711.102 214.955L713.754 217.295C713.078 218.465 712.038 219.453 710.634 220.259C709.256 221.065 707.527 221.468 705.447 221.468ZM705.135 203.645C704.381 203.645 703.679 203.775 703.029 204.035C702.405 204.295 701.859 204.672 701.391 205.166C700.949 205.634 700.598 206.193 700.338 206.843C700.078 207.493 699.948 208.208 699.948 208.988V209.261H710.049V208.871C710.049 207.285 709.594 206.024 708.684 205.088C707.8 204.126 706.617 203.645 705.135 203.645ZM722.046 200.876H726.297V208.988H729.924L734.76 200.876H739.323L734.838 208.208C734.396 208.962 733.967 209.495 733.551 209.807C733.135 210.119 732.654 210.34 732.108 210.47V210.665C732.732 210.795 733.252 211.029 733.668 211.367C734.084 211.679 734.513 212.225 734.955 213.005L737.49 217.568H739.674V221H737.178C736.32 221 735.579 220.805 734.955 220.415C734.357 219.999 733.798 219.336 733.278 218.426L729.924 212.42H726.297V221H722.046V200.876ZM761.187 200.876H765.477L755.727 224.9C755.207 226.2 754.518 227.175 753.66 227.825C752.828 228.475 751.619 228.8 750.033 228.8H746.64V225.368H751.398L753.231 220.727L745.119 200.876H749.565L752.763 209.3L755.259 216.203H755.493L757.989 209.3L761.187 200.876ZM769.674 217.568H772.287C772.625 217.126 772.924 216.619 773.184 216.047C773.47 215.449 773.691 214.734 773.847 213.902C774.029 213.07 774.159 212.108 774.237 211.016C774.341 209.924 774.393 208.65 774.393 207.194V200.876H788.628V221H784.377V204.308H778.371V207.272C778.371 210.678 778.124 213.343 777.63 215.267C777.136 217.191 776.46 218.595 775.602 219.479C775.004 220.103 774.315 220.519 773.535 220.727C772.755 220.909 771.936 221 771.078 221H769.674V217.568ZM822.254 200.876H826.466V209.534L826.076 214.994H826.271L835.163 200.876H839.18V221H834.968V212.342L835.358 206.882H835.163L826.271 221H822.254V200.876ZM869.96 217.568H872.261C873.015 216.372 873.613 214.929 874.055 213.239C874.497 211.523 874.718 209.495 874.718 207.155V200.876H888.446V217.568H891.683V226.46H887.861V221H873.782V226.46H869.96V217.568ZM884.273 217.568V204.308H878.696V207.311C878.696 209.599 878.514 211.575 878.15 213.239C877.812 214.877 877.305 216.32 876.629 217.568H884.273ZM906.566 221.468C905.032 221.468 903.654 221.221 902.432 220.727C901.21 220.233 900.183 219.531 899.351 218.621C898.519 217.711 897.882 216.619 897.44 215.345C896.998 214.045 896.777 212.589 896.777 210.977C896.777 209.365 896.998 207.909 897.44 206.609C897.908 205.309 898.545 204.204 899.351 203.294C900.183 202.358 901.184 201.643 902.354 201.149C903.524 200.655 904.824 200.408 906.254 200.408C907.658 200.408 908.932 200.655 910.076 201.149C911.22 201.617 912.195 202.293 913.001 203.177C913.807 204.061 914.418 205.114 914.834 206.336C915.276 207.558 915.497 208.91 915.497 210.392V211.991H901.067V212.654C901.067 214.24 901.561 215.54 902.549 216.554C903.537 217.542 904.902 218.036 906.644 218.036C907.944 218.036 909.049 217.763 909.959 217.217C910.895 216.645 911.649 215.891 912.221 214.955L914.873 217.295C914.197 218.465 913.157 219.453 911.753 220.259C910.375 221.065 908.646 221.468 906.566 221.468ZM906.254 203.645C905.5 203.645 904.798 203.775 904.148 204.035C903.524 204.295 902.978 204.672 902.51 205.166C902.068 205.634 901.717 206.193 901.457 206.843C901.197 207.493 901.067 208.208 901.067 208.988V209.261H911.168V208.871C911.168 207.285 910.713 206.024 909.803 205.088C908.919 204.126 907.736 203.645 906.254 203.645ZM924.607 200.876H939.388V204.308H928.858V221H924.607V200.876ZM962.305 200.876H966.595L956.845 224.9C956.325 226.2 955.636 227.175 954.778 227.825C953.946 228.475 952.737 228.8 951.151 228.8H947.758V225.368H952.516L954.349 220.727L946.237 200.876H950.683L953.881 209.3L956.377 216.203H956.611L959.107 209.3L962.305 200.876ZM982.297 221.468C980.789 221.468 979.437 221.221 978.241 220.727C977.071 220.233 976.07 219.531 975.238 218.621C974.432 217.711 973.808 216.606 973.366 215.306C972.95 214.006 972.742 212.55 972.742 210.938C972.742 209.326 972.95 207.87 973.366 206.57C973.808 205.27 974.432 204.165 975.238 203.255C976.07 202.345 977.071 201.643 978.241 201.149C979.437 200.655 980.776 200.408 982.258 200.408C984.338 200.408 986.002 200.85 987.25 201.734C988.524 202.618 989.473 203.762 990.097 205.166L986.782 206.96C986.418 206.024 985.859 205.283 985.105 204.737C984.377 204.191 983.428 203.918 982.258 203.918C980.646 203.918 979.398 204.412 978.514 205.4C977.63 206.362 977.188 207.649 977.188 209.261V212.615C977.188 214.201 977.63 215.488 978.514 216.476C979.398 217.464 980.672 217.958 982.336 217.958C983.584 217.958 984.598 217.672 985.378 217.1C986.184 216.528 986.821 215.748 987.289 214.76L990.409 216.671C989.759 218.075 988.771 219.232 987.445 220.142C986.119 221.026 984.403 221.468 982.297 221.468ZM1004.55 204.308H997.492V200.876H1015.9V204.308H1008.8V221H1004.55V204.308ZM1023.37 200.876H1027.58V209.534L1027.19 214.994H1027.39L1036.28 200.876H1040.3V221H1036.09V212.342L1036.48 206.882H1036.28L1027.39 221H1023.37V200.876ZM1048.36 200.876H1052.61V204.308H1052.84C1053.44 203.086 1054.23 202.137 1055.22 201.461C1056.21 200.759 1057.44 200.408 1058.93 200.408C1061.29 200.408 1063.18 201.292 1064.58 203.06C1065.98 204.828 1066.69 207.454 1066.69 210.938C1066.69 214.422 1065.98 217.048 1064.58 218.816C1063.18 220.584 1061.29 221.468 1058.93 221.468C1057.44 221.468 1056.21 221.13 1055.22 220.454C1054.23 219.752 1053.44 218.79 1052.84 217.568H1052.61V228.8H1048.36V200.876ZM1057.17 217.997C1058.78 217.997 1060.02 217.503 1060.88 216.515C1061.76 215.527 1062.2 214.214 1062.2 212.576V209.3C1062.2 207.662 1061.76 206.349 1060.88 205.361C1060.02 204.373 1058.78 203.879 1057.17 203.879C1056.55 203.879 1055.96 203.957 1055.42 204.113C1054.87 204.269 1054.39 204.503 1053.97 204.815C1053.56 205.127 1053.22 205.517 1052.96 205.985C1052.72 206.427 1052.61 206.96 1052.61 207.584V214.292C1052.61 214.916 1052.72 215.462 1052.96 215.93C1053.22 216.372 1053.56 216.749 1053.97 217.061C1054.39 217.373 1054.87 217.607 1055.42 217.763C1055.96 217.919 1056.55 217.997 1057.17 217.997ZM1088 200.876H1092.29L1082.54 224.9C1082.02 226.2 1081.33 227.175 1080.48 227.825C1079.64 228.475 1078.44 228.8 1076.85 228.8H1073.46V225.368H1078.21L1080.05 220.727L1071.94 200.876H1076.38L1079.58 209.3L1082.08 216.203H1082.31L1084.81 209.3L1088 200.876ZM1098.79 200.876H1103V209.534L1102.61 214.994H1102.81L1111.7 200.876H1115.72V221H1111.51V212.342L1111.9 206.882H1111.7L1102.81 221H1098.79V200.876ZM1107.25 198.224C1105.75 198.224 1104.52 197.899 1103.59 197.249C1102.65 196.573 1101.89 195.572 1101.29 194.246L1100.31 192.062L1103.86 190.814L1105.27 194.948C1105.5 195.052 1105.81 195.13 1106.2 195.182C1106.59 195.208 1106.94 195.221 1107.25 195.221C1107.57 195.221 1107.92 195.208 1108.31 195.182C1108.7 195.13 1109.01 195.052 1109.24 194.948L1110.65 190.814L1114.2 192.062L1113.22 194.246C1112.62 195.572 1111.86 196.573 1110.92 197.249C1109.98 197.899 1108.76 198.224 1107.25 198.224ZM1130.25 204.308H1123.19V200.876H1141.6V204.308H1134.5V221H1130.25V204.308ZM1157.96 221.468C1156.43 221.468 1155.05 221.221 1153.83 220.727C1152.61 220.233 1151.58 219.531 1150.75 218.621C1149.92 217.711 1149.28 216.619 1148.84 215.345C1148.4 214.045 1148.17 212.589 1148.17 210.977C1148.17 209.365 1148.4 207.909 1148.84 206.609C1149.31 205.309 1149.94 204.204 1150.75 203.294C1151.58 202.358 1152.58 201.643 1153.75 201.149C1154.92 200.655 1156.22 200.408 1157.65 200.408C1159.06 200.408 1160.33 200.655 1161.47 201.149C1162.62 201.617 1163.59 202.293 1164.4 203.177C1165.2 204.061 1165.82 205.114 1166.23 206.336C1166.67 207.558 1166.89 208.91 1166.89 210.392V211.991H1152.46V212.654C1152.46 214.24 1152.96 215.54 1153.95 216.554C1154.93 217.542 1156.3 218.036 1158.04 218.036C1159.34 218.036 1160.45 217.763 1161.36 217.217C1162.29 216.645 1163.05 215.891 1163.62 214.955L1166.27 217.295C1165.59 218.465 1164.55 219.453 1163.15 220.259C1161.77 221.065 1160.04 221.468 1157.96 221.468ZM1157.65 203.645C1156.9 203.645 1156.2 203.775 1155.55 204.035C1154.92 204.295 1154.38 204.672 1153.91 205.166C1153.47 205.634 1153.11 206.193 1152.85 206.843C1152.59 207.493 1152.46 208.208 1152.46 208.988V209.261H1162.57V208.871C1162.57 207.285 1162.11 206.024 1161.2 205.088C1160.32 204.126 1159.13 203.645 1157.65 203.645ZM1199.35 200.876H1203.56V209.534L1203.17 214.994H1203.37L1212.26 200.876H1216.28V221H1212.06V212.342L1212.45 206.882H1212.26L1203.37 221H1199.35V200.876ZM1223.01 221L1230.5 210.782L1223.32 200.876H1228.27L1230.93 204.698L1233.03 207.74H1233.27L1235.33 204.698L1237.98 200.876H1242.59L1235.37 210.626L1242.94 221H1237.95L1234.94 216.671L1232.88 213.707H1232.64L1230.61 216.671L1227.65 221H1223.01ZM1258.09 221.39C1256.85 221.39 1255.96 221.13 1255.44 220.61C1254.95 220.09 1254.7 219.453 1254.7 218.699V217.685C1254.7 216.931 1254.95 216.294 1255.44 215.774C1255.96 215.254 1256.85 214.994 1258.09 214.994C1259.34 214.994 1260.21 215.254 1260.71 215.774C1261.23 216.294 1261.49 216.931 1261.49 217.685V218.699C1261.49 219.453 1261.23 220.09 1260.71 220.61C1260.21 221.13 1259.34 221.39 1258.09 221.39Z" fill="white"/>
</svg>
