<svg width="1136" height="645" viewBox="0 0 1136 645" fill="none" xmlns="http://www.w3.org/2000/svg">
<path d="M58.5 574.751L81.0004 574.751C99.7778 574.751 115 589.973 115 608.75C115 627.528 130.222 642.75 149 642.75L996 642.75C1014.78 642.75 1030 627.528 1030 608.75C1030 589.972 1045.22 574.75 1064 574.75L1082 574.75C1110.72 574.751 1134 551.47 1134 522.751L1134 507.604C1134 470.52 1103.94 440.458 1066.85 440.458L715.601 440.458C660.372 440.458 615.601 395.686 615.601 340.458C615.601 285.229 660.372 240.458 715.601 240.458L799.771 240.457C830.826 240.457 856 215.283 856 184.229L856 181.5C856 151.953 879.953 128 909.5 128C939.047 128 963 104.047 963 74.5002L963 65.0002C963 30.2062 934.794 2.00017 900 2.00016L250 2.00004C215.206 2.00004 187 30.2061 187 65.0001L187 75.0002C187 104.271 210.729 128 240 128C269.271 128 293 151.729 293 181L293 184.229C293 215.283 318.175 240.458 349.229 240.458L419.999 240.458C475.227 240.458 519.999 285.229 519.999 340.458C519.999 395.686 475.228 440.458 419.999 440.458L69.1466 440.458C32.0625 440.457 2.00002 470.52 2.00001 507.604L2.00001 518.251C2.00001 549.455 27.2959 574.751 58.5 574.751Z" fill="#242424" fill-opacity="0.7" stroke="white" stroke-width="3"/>
<path d="M404.552 65.4673C404.224 64.0933 403.711 62.8115 403.014 61.6221C402.317 60.4121 401.353 59.3662 400.122 58.4844C398.892 57.6025 397.354 56.9155 395.508 56.4233C393.683 55.9106 391.478 55.6543 388.894 55.6543C385.941 55.6543 383.429 56.0952 381.358 56.9771C379.286 57.8384 377.594 58.9663 376.282 60.3608C374.99 61.7349 374.047 63.2729 373.452 64.9751C372.857 66.6772 372.56 68.3691 372.56 70.0508V71.9272C372.56 73.6499 372.867 75.3726 373.483 77.0952C374.098 78.8179 375.062 80.3662 376.374 81.7402C377.707 83.1143 379.399 84.2319 381.45 85.0933C383.521 85.9341 386.003 86.3545 388.894 86.3545C391.478 86.3545 393.673 86.1084 395.477 85.6162C397.302 85.124 398.83 84.4473 400.061 83.5859C401.291 82.7041 402.255 81.6582 402.952 80.4482C403.67 79.2178 404.214 77.8745 404.583 76.4185H409.012C408.664 78.3052 408.038 80.0688 407.136 81.7095C406.254 83.3296 405.013 84.7446 403.414 85.9546C401.814 87.1646 399.825 88.1182 397.446 88.8154C395.067 89.5127 392.227 89.8613 388.925 89.8613C385.418 89.8613 382.352 89.3999 379.727 88.4771C377.102 87.5337 374.908 86.252 373.144 84.6318C371.381 83.0117 370.058 81.1045 369.176 78.9102C368.294 76.6953 367.853 74.3062 367.853 71.7427V70.2046C367.853 67.6616 368.294 65.293 369.176 63.0986C370.058 60.8838 371.381 58.9663 373.144 57.3462C374.908 55.7056 377.102 54.4238 379.727 53.501C382.373 52.5781 385.439 52.1167 388.925 52.1167C392.186 52.1167 394.995 52.4551 397.354 53.1318C399.712 53.8086 401.691 54.752 403.291 55.9619C404.89 57.1514 406.141 58.5664 407.044 60.207C407.946 61.8271 408.582 63.5806 408.951 65.4673H404.552ZM433.313 56.4233V89H428.729V56.4233H412.979V52.978H449.001V56.4233H433.313ZM451.953 70.3276C451.953 67.7847 452.374 65.4058 453.214 63.1909C454.076 60.9556 455.378 59.0278 457.121 57.4077C458.885 55.7671 461.1 54.4751 463.766 53.5317C466.452 52.5884 469.631 52.1167 473.302 52.1167C476.993 52.1167 480.182 52.5884 482.869 53.5317C485.555 54.4751 487.77 55.7671 489.513 57.4077C491.277 59.0278 492.579 60.9556 493.42 63.1909C494.261 65.4058 494.681 67.7847 494.681 70.3276V71.6504C494.681 74.1934 494.261 76.5723 493.42 78.7871C492.579 81.002 491.277 82.9297 489.513 84.5703C487.77 86.2109 485.555 87.5029 482.869 88.4463C480.182 89.3896 476.993 89.8613 473.302 89.8613C469.631 89.8613 466.452 89.3896 463.766 88.4463C461.1 87.5029 458.885 86.2109 457.121 84.5703C455.378 82.9297 454.076 81.002 453.214 78.7871C452.374 76.5723 451.953 74.1934 451.953 71.6504V70.3276ZM456.66 71.7734C456.66 73.4961 456.947 75.229 457.521 76.9722C458.116 78.7153 459.069 80.2842 460.382 81.6787C461.694 83.0527 463.407 84.1807 465.519 85.0625C467.631 85.9238 470.226 86.3545 473.302 86.3545C476.378 86.3545 478.972 85.9341 481.085 85.0933C483.217 84.2319 484.94 83.1143 486.253 81.7402C487.565 80.3457 488.508 78.7871 489.083 77.0645C489.677 75.3213 489.975 73.5576 489.975 71.7734V70.2046C489.975 69.0767 489.852 67.9385 489.606 66.79C489.359 65.6416 488.97 64.5239 488.437 63.437C487.903 62.3501 487.206 61.335 486.345 60.3916C485.484 59.4482 484.427 58.6279 483.176 57.9307C481.946 57.2334 480.51 56.6797 478.87 56.2695C477.25 55.8594 475.394 55.6543 473.302 55.6543C470.185 55.6543 467.56 56.0952 465.427 56.9771C463.315 57.8384 461.602 58.9663 460.29 60.3608C458.998 61.7554 458.065 63.314 457.49 65.0366C456.937 66.7593 456.66 68.4717 456.66 70.1738V71.7734ZM544.022 89V56.7002H515.413V72.8501C515.413 75.7417 515.239 78.2437 514.891 80.356C514.542 82.4683 513.834 84.2114 512.768 85.5854C511.722 86.939 510.225 87.9541 508.277 88.6309C506.349 89.2871 503.806 89.6152 500.648 89.6152V86.0161C503.006 86.0161 504.862 85.7495 506.216 85.2163C507.569 84.6626 508.584 83.8423 509.261 82.7554C509.938 81.6685 510.358 80.3149 510.522 78.6948C510.686 77.0747 510.768 75.1777 510.768 73.0039V52.978H548.698V89H544.022ZM560.294 70.3276C560.294 67.7847 560.714 65.4058 561.555 63.1909C562.416 60.9556 563.718 59.0278 565.462 57.4077C567.225 55.7671 569.44 54.4751 572.106 53.5317C574.793 52.5884 577.971 52.1167 581.642 52.1167C585.334 52.1167 588.523 52.5884 591.209 53.5317C593.896 54.4751 596.11 55.7671 597.854 57.4077C599.617 59.0278 600.92 60.9556 601.76 63.1909C602.601 65.4058 603.022 67.7847 603.022 70.3276V71.6504C603.022 74.1934 602.601 76.5723 601.76 78.7871C600.92 81.002 599.617 82.9297 597.854 84.5703C596.11 86.2109 593.896 87.5029 591.209 88.4463C588.523 89.3896 585.334 89.8613 581.642 89.8613C577.971 89.8613 574.793 89.3896 572.106 88.4463C569.44 87.5029 567.225 86.2109 565.462 84.5703C563.718 82.9297 562.416 81.002 561.555 78.7871C560.714 76.5723 560.294 74.1934 560.294 71.6504V70.3276ZM565 71.7734C565 73.4961 565.287 75.229 565.861 76.9722C566.456 78.7153 567.41 80.2842 568.722 81.6787C570.035 83.0527 571.747 84.1807 573.859 85.0625C575.972 85.9238 578.566 86.3545 581.642 86.3545C584.718 86.3545 587.313 85.9341 589.425 85.0933C591.558 84.2319 593.28 83.1143 594.593 81.7402C595.905 80.3457 596.849 78.7871 597.423 77.0645C598.018 75.3213 598.315 73.5576 598.315 71.7734V70.2046C598.315 69.0767 598.192 67.9385 597.946 66.79C597.7 65.6416 597.31 64.5239 596.777 63.437C596.244 62.3501 595.547 61.335 594.685 60.3916C593.824 59.4482 592.768 58.6279 591.517 57.9307C590.286 57.2334 588.851 56.6797 587.21 56.2695C585.59 55.8594 583.734 55.6543 581.642 55.6543C578.525 55.6543 575.9 56.0952 573.767 56.9771C571.655 57.8384 569.943 58.9663 568.63 60.3608C567.338 61.7554 566.405 63.314 565.831 65.0366C565.277 66.7593 565 68.4717 565 70.1738V71.7734ZM614.002 52.978H637.843C640.509 52.978 642.682 53.2241 644.364 53.7163C646.066 54.2085 647.399 54.875 648.363 55.7158C649.327 56.5361 649.994 57.5 650.363 58.6074C650.732 59.7148 650.916 60.8838 650.916 62.1143V62.7603C650.916 63.6216 650.783 64.4316 650.516 65.1904C650.25 65.9492 649.829 66.6465 649.255 67.2822C648.702 67.918 647.963 68.4922 647.04 69.0049C646.138 69.5176 645.041 69.9482 643.749 70.2969C646.641 70.9941 648.763 72.0811 650.117 73.5576C651.47 75.0342 652.147 76.8901 652.147 79.1255V79.7407C652.147 80.7046 651.983 81.73 651.655 82.8169C651.327 83.8833 650.67 84.8779 649.686 85.8008C648.722 86.7236 647.348 87.4927 645.564 88.1079C643.78 88.7026 641.432 89 638.519 89H614.002V52.978ZM647.471 79.4639C647.471 78.1309 647.266 76.9927 646.856 76.0493C646.466 75.106 645.82 74.3369 644.918 73.7422C644.036 73.127 642.888 72.6758 641.473 72.3887C640.078 72.1016 638.366 71.958 636.335 71.958H618.617V85.8008H638.181C639.801 85.8008 641.196 85.6572 642.365 85.3701C643.534 85.0625 644.497 84.6421 645.256 84.1089C646.015 83.5552 646.569 82.8887 646.917 82.1094C647.286 81.3301 647.471 80.4482 647.471 79.4639ZM646.21 62.2065C646.21 60.894 645.953 59.8379 645.441 59.0381C644.928 58.2383 644.231 57.623 643.349 57.1924C642.467 56.7617 641.452 56.4746 640.304 56.3311C639.155 56.1875 637.935 56.1157 636.643 56.1157H618.617V68.8203H637.104C637.494 68.8203 637.986 68.7998 638.581 68.7588C639.196 68.6973 639.842 68.5947 640.519 68.4512C641.196 68.2871 641.872 68.0615 642.549 67.7744C643.226 67.4873 643.831 67.1182 644.364 66.667C644.918 66.2158 645.359 65.6724 645.687 65.0366C646.036 64.3804 646.21 63.6113 646.21 62.7295V62.2065ZM714.653 52.7935V89H710.193V52.7935H714.653ZM695.735 76.7568C695.735 75.5264 695.468 74.4395 694.935 73.4961C694.402 72.5527 693.653 71.7632 692.69 71.1274C691.726 70.4712 690.577 69.979 689.244 69.6509C687.911 69.3022 686.435 69.1279 684.815 69.1279H669.034V85.4932H684.907C686.342 85.4932 687.716 85.3804 689.029 85.1548C690.341 84.9292 691.49 84.5293 692.474 83.9551C693.479 83.3604 694.269 82.5605 694.843 81.5557C695.438 80.5508 695.735 79.2588 695.735 77.6797V76.7568ZM669.034 52.978V65.6211H684.907C687.573 65.6211 689.88 65.8877 691.828 66.4209C693.776 66.9336 695.386 67.6821 696.658 68.6665C697.929 69.6304 698.873 70.7993 699.488 72.1733C700.103 73.5474 700.411 75.0854 700.411 76.7876V77.8335C700.411 79.6587 700.052 81.2686 699.334 82.6631C698.616 84.0576 697.601 85.2266 696.289 86.1699C694.997 87.1133 693.428 87.8208 691.582 88.2925C689.736 88.7642 687.686 89 685.43 89H664.389V52.978H669.034ZM731.848 72.2656C731.848 74.0293 732.156 75.7622 732.771 77.4644C733.386 79.1665 734.35 80.6841 735.662 82.0171C736.995 83.3501 738.708 84.4268 740.8 85.2471C742.912 86.0469 745.465 86.4468 748.459 86.4468C750.756 86.4468 752.776 86.1904 754.519 85.6777C756.263 85.165 757.729 84.4985 758.918 83.6782C760.128 82.8374 761.072 81.894 761.748 80.8481C762.446 79.8022 762.907 78.7563 763.133 77.7104L767.624 77.7412C767.275 79.1973 766.67 80.6533 765.809 82.1094C764.968 83.5449 763.789 84.8369 762.271 85.9854C760.774 87.1338 758.898 88.0669 756.642 88.7847C754.386 89.5024 751.669 89.8613 748.49 89.8613C744.778 89.8613 741.579 89.3999 738.892 88.4771C736.206 87.5337 733.991 86.2212 732.248 84.5396C730.505 82.8374 729.213 80.8071 728.372 78.4487C727.531 76.0903 727.111 73.4858 727.111 70.6353V70.1123C727.111 67.5283 727.562 65.1392 728.464 62.9448C729.367 60.7505 730.7 58.8535 732.463 57.2539C734.247 55.6338 736.462 54.3726 739.108 53.4702C741.753 52.5679 744.829 52.1167 748.336 52.1167C751.782 52.1167 754.755 52.5884 757.257 53.5317C759.78 54.4546 761.851 55.7466 763.471 57.4077C765.112 59.0483 766.322 60.9966 767.101 63.2524C767.88 65.4878 768.27 67.9077 768.27 70.5122C768.29 70.8198 768.29 71.1172 768.27 71.4043C768.249 71.6914 768.239 71.9785 768.239 72.2656H731.848ZM731.817 69.1279H763.748V68.8818C763.666 66.8311 763.307 64.9751 762.671 63.314C762.036 61.6528 761.082 60.2378 759.81 59.0688C758.559 57.8794 756.97 56.9668 755.042 56.3311C753.135 55.6953 750.859 55.3774 748.213 55.3774C746.183 55.3774 744.368 55.5723 742.768 55.9619C741.169 56.3516 739.764 56.8745 738.554 57.5308C737.365 58.187 736.349 58.9561 735.509 59.8379C734.668 60.6992 733.981 61.6221 733.448 62.6064C732.914 63.5703 732.515 64.5547 732.248 65.5596C732.002 66.5645 731.858 67.5283 731.817 68.4512V69.1279ZM384.387 175V138.978H424.131V175H419.455V142.731H389.063V175H384.387ZM440.28 186.228V138.978H444.956V146.761C446.268 144.013 448.278 141.89 450.985 140.393C453.692 138.875 457.158 138.117 461.382 138.117C463.597 138.117 465.627 138.353 467.473 138.824C469.339 139.296 471.011 139.952 472.487 140.793C473.984 141.634 475.287 142.628 476.394 143.777C477.501 144.925 478.424 146.187 479.163 147.561C479.901 148.935 480.455 150.391 480.824 151.929C481.193 153.446 481.377 154.995 481.377 156.574V157.835C481.377 160.316 480.926 162.654 480.024 164.849C479.122 167.022 477.819 168.93 476.117 170.57C474.415 172.19 472.323 173.482 469.842 174.446C467.381 175.39 464.571 175.861 461.413 175.861C459.157 175.861 457.137 175.656 455.353 175.246C453.589 174.836 452.041 174.262 450.708 173.523C449.375 172.765 448.237 171.862 447.293 170.816C446.35 169.771 445.571 168.622 444.956 167.371V186.228H440.28ZM476.64 156.235C476.64 154.513 476.333 152.78 475.717 151.037C475.102 149.293 474.148 147.735 472.856 146.361C471.564 144.966 469.903 143.838 467.873 142.977C465.863 142.095 463.464 141.654 460.675 141.654C458.542 141.654 456.666 141.87 455.045 142.3C453.446 142.71 452.062 143.285 450.893 144.023C449.744 144.741 448.78 145.592 448.001 146.576C447.242 147.54 446.637 148.586 446.186 149.714C445.735 150.842 445.417 152.011 445.232 153.221C445.048 154.431 444.956 155.63 444.956 156.82V157.466C444.956 162.347 446.289 166.048 448.955 168.571C451.641 171.093 455.538 172.354 460.644 172.354C463.351 172.354 465.699 171.955 467.689 171.155C469.698 170.334 471.359 169.258 472.672 167.925C474.005 166.592 475 165.064 475.656 163.341C476.312 161.619 476.64 159.845 476.64 158.02V156.235ZM533.579 175H528.934V143.715L498.203 175H492.297V138.978H496.942V170.693L527.98 138.978H533.579V175ZM544.313 150.914C544.313 148.965 544.426 147.068 544.652 145.223C544.877 143.356 545.277 141.603 545.852 139.962C546.426 138.322 547.205 136.814 548.189 135.44C549.194 134.046 550.466 132.856 552.004 131.872C553.542 130.867 555.377 130.088 557.51 129.534C559.664 128.98 562.186 128.693 565.078 128.673C567.436 128.673 569.354 128.652 570.83 128.611C572.307 128.55 573.476 128.458 574.337 128.334C575.198 128.211 575.824 128.047 576.213 127.842C576.603 127.617 576.911 127.35 577.136 127.042H582.12C581.73 127.822 581.31 128.488 580.858 129.042C580.428 129.596 579.915 130.057 579.32 130.426C578.726 130.795 578.039 131.093 577.259 131.318C576.48 131.523 575.567 131.688 574.521 131.811C573.476 131.913 572.276 131.985 570.922 132.026C569.569 132.046 568.021 132.057 566.277 132.057C563.324 132.057 560.833 132.375 558.802 133.01C556.772 133.625 555.101 134.497 553.788 135.625C552.476 136.732 551.471 138.055 550.773 139.593C550.097 141.111 549.615 142.772 549.328 144.577C551.235 142.731 553.583 141.265 556.372 140.178C559.182 139.091 562.371 138.547 565.939 138.547C569.487 138.547 572.583 138.999 575.229 139.901C577.875 140.783 580.069 142.003 581.812 143.562C583.555 145.12 584.857 146.966 585.719 149.099C586.58 151.231 587.011 153.528 587.011 155.989V157.958C587.011 160.46 586.58 162.798 585.719 164.972C584.857 167.146 583.545 169.042 581.781 170.663C580.018 172.283 577.792 173.554 575.106 174.477C572.44 175.4 569.292 175.861 565.662 175.861C562.032 175.861 558.874 175.4 556.188 174.477C553.521 173.554 551.307 172.283 549.543 170.663C547.779 169.042 546.467 167.146 545.605 164.972C544.744 162.798 544.313 160.46 544.313 157.958V150.914ZM549.02 158.112C549.02 159.896 549.317 161.639 549.912 163.341C550.507 165.043 551.46 166.571 552.773 167.925C554.106 169.258 555.829 170.334 557.941 171.155C560.053 171.955 562.627 172.354 565.662 172.354C568.677 172.354 571.24 171.965 573.353 171.186C575.465 170.386 577.188 169.33 578.521 168.017C579.854 166.684 580.817 165.156 581.412 163.434C582.027 161.711 582.335 159.927 582.335 158.081V156.358C582.335 155.189 582.202 154.031 581.935 152.882C581.689 151.734 581.289 150.626 580.735 149.56C580.202 148.494 579.495 147.509 578.613 146.607C577.751 145.684 576.706 144.884 575.475 144.208C574.245 143.531 572.809 143.008 571.168 142.639C569.548 142.249 567.713 142.054 565.662 142.054C563.611 142.054 561.776 142.249 560.156 142.639C558.536 143.028 557.11 143.562 555.88 144.238C554.649 144.915 553.593 145.715 552.711 146.638C551.85 147.54 551.143 148.524 550.589 149.591C550.056 150.657 549.656 151.775 549.389 152.944C549.143 154.113 549.02 155.282 549.02 156.451V158.112ZM594.054 156.328C594.054 153.785 594.474 151.406 595.315 149.191C596.177 146.956 597.479 145.028 599.222 143.408C600.986 141.767 603.2 140.475 605.866 139.532C608.553 138.588 611.732 138.117 615.403 138.117C619.094 138.117 622.283 138.588 624.969 139.532C627.656 140.475 629.871 141.767 631.614 143.408C633.378 145.028 634.68 146.956 635.521 149.191C636.362 151.406 636.782 153.785 636.782 156.328V157.65C636.782 160.193 636.362 162.572 635.521 164.787C634.68 167.002 633.378 168.93 631.614 170.57C629.871 172.211 627.656 173.503 624.969 174.446C622.283 175.39 619.094 175.861 615.403 175.861C611.732 175.861 608.553 175.39 605.866 174.446C603.2 173.503 600.986 172.211 599.222 170.57C597.479 168.93 596.177 167.002 595.315 164.787C594.474 162.572 594.054 160.193 594.054 157.65V156.328ZM598.76 157.773C598.76 159.496 599.048 161.229 599.622 162.972C600.217 164.715 601.17 166.284 602.483 167.679C603.795 169.053 605.508 170.181 607.62 171.062C609.732 171.924 612.326 172.354 615.403 172.354C618.479 172.354 621.073 171.934 623.185 171.093C625.318 170.232 627.041 169.114 628.353 167.74C629.666 166.346 630.609 164.787 631.183 163.064C631.778 161.321 632.075 159.558 632.075 157.773V156.205C632.075 155.077 631.952 153.938 631.706 152.79C631.46 151.642 631.071 150.524 630.537 149.437C630.004 148.35 629.307 147.335 628.446 146.392C627.584 145.448 626.528 144.628 625.277 143.931C624.047 143.233 622.611 142.68 620.97 142.27C619.35 141.859 617.494 141.654 615.403 141.654C612.285 141.654 609.66 142.095 607.528 142.977C605.415 143.838 603.703 144.966 602.39 146.361C601.098 147.755 600.165 149.314 599.591 151.037C599.037 152.759 598.76 154.472 598.76 156.174V157.773ZM647.732 186.228V138.978H652.408V146.761C653.72 144.013 655.73 141.89 658.437 140.393C661.144 138.875 664.61 138.117 668.834 138.117C671.049 138.117 673.08 138.353 674.925 138.824C676.792 139.296 678.463 139.952 679.939 140.793C681.437 141.634 682.739 142.628 683.846 143.777C684.954 144.925 685.876 146.187 686.615 147.561C687.353 148.935 687.907 150.391 688.276 151.929C688.645 153.446 688.83 154.995 688.83 156.574V157.835C688.83 160.316 688.378 162.654 687.476 164.849C686.574 167.022 685.271 168.93 683.569 170.57C681.867 172.19 679.775 173.482 677.294 174.446C674.833 175.39 672.023 175.861 668.865 175.861C666.609 175.861 664.589 175.656 662.805 175.246C661.042 174.836 659.493 174.262 658.16 173.523C656.827 172.765 655.689 171.862 654.746 170.816C653.802 169.771 653.023 168.622 652.408 167.371V186.228H647.732ZM684.092 156.235C684.092 154.513 683.785 152.78 683.169 151.037C682.554 149.293 681.601 147.735 680.309 146.361C679.017 144.966 677.355 143.838 675.325 142.977C673.315 142.095 670.916 141.654 668.127 141.654C665.994 141.654 664.118 141.87 662.498 142.3C660.898 142.71 659.514 143.285 658.345 144.023C657.196 144.741 656.232 145.592 655.453 146.576C654.694 147.54 654.089 148.586 653.638 149.714C653.187 150.842 652.869 152.011 652.685 153.221C652.5 154.431 652.408 155.63 652.408 156.82V157.466C652.408 162.347 653.741 166.048 656.407 168.571C659.093 171.093 662.99 172.354 668.096 172.354C670.803 172.354 673.151 171.955 675.141 171.155C677.15 170.334 678.812 169.258 680.124 167.925C681.457 166.592 682.452 165.064 683.108 163.341C683.764 161.619 684.092 159.845 684.092 158.02V156.235ZM750.075 138.793V175H745.615V138.793H750.075ZM731.156 162.757C731.156 161.526 730.89 160.439 730.357 159.496C729.823 158.553 729.075 157.763 728.111 157.127C727.147 156.471 725.999 155.979 724.666 155.651C723.333 155.302 721.856 155.128 720.236 155.128H704.455V171.493H720.328C721.764 171.493 723.138 171.38 724.45 171.155C725.763 170.929 726.911 170.529 727.896 169.955C728.901 169.36 729.69 168.561 730.264 167.556C730.859 166.551 731.156 165.259 731.156 163.68V162.757ZM704.455 138.978V151.621H720.328C722.994 151.621 725.302 151.888 727.25 152.421C729.198 152.934 730.808 153.682 732.079 154.667C733.351 155.63 734.294 156.799 734.909 158.173C735.525 159.547 735.832 161.085 735.832 162.788V163.833C735.832 165.659 735.473 167.269 734.756 168.663C734.038 170.058 733.023 171.227 731.71 172.17C730.418 173.113 728.849 173.821 727.004 174.292C725.158 174.764 723.107 175 720.851 175H699.81V138.978H704.455Z" fill="white"/>
<path d="M121.202 517.468C117.744 517.468 115.17 516.246 113.48 513.802C111.816 511.358 110.984 507.887 110.984 503.389C110.984 498.891 111.816 495.42 113.48 492.976C115.17 490.532 117.744 489.31 121.202 489.31C122.528 489.31 123.672 489.492 124.634 489.856C125.622 490.194 126.467 490.675 127.169 491.299C127.871 491.897 128.456 492.612 128.924 493.444C129.418 494.25 129.821 495.121 130.133 496.057L126.194 497.383C125.986 496.759 125.752 496.174 125.492 495.628C125.232 495.082 124.907 494.614 124.517 494.224C124.127 493.834 123.659 493.522 123.113 493.288C122.593 493.054 121.943 492.937 121.163 492.937C119.239 492.937 117.835 493.678 116.951 495.16C116.067 496.616 115.625 498.592 115.625 501.088L115.625 505.69C115.625 508.186 116.067 510.175 116.951 511.657C117.835 513.113 119.239 513.841 121.163 513.841C121.943 513.841 122.593 513.724 123.113 513.49C123.659 513.256 124.127 512.944 124.517 512.554C124.907 512.164 125.232 511.696 125.492 511.15C125.752 510.604 125.986 510.019 126.194 509.395L130.133 510.721C129.821 511.657 129.418 512.541 128.924 513.373C128.456 514.179 127.871 514.894 127.169 515.518C126.467 516.116 125.622 516.597 124.634 516.961C123.672 517.299 122.528 517.468 121.202 517.468ZM145.991 517.468C144.457 517.468 143.079 517.221 141.857 516.727C140.635 516.233 139.608 515.531 138.776 514.621C137.944 513.711 137.307 512.619 136.865 511.345C136.423 510.045 136.202 508.589 136.202 506.977C136.202 505.365 136.423 503.909 136.865 502.609C137.333 501.309 137.97 500.204 138.776 499.294C139.608 498.358 140.609 497.643 141.779 497.149C142.949 496.655 144.249 496.408 145.679 496.408C147.083 496.408 148.357 496.655 149.501 497.149C150.645 497.617 151.62 498.293 152.426 499.177C153.232 500.061 153.843 501.114 154.259 502.336C154.701 503.558 154.922 504.91 154.922 506.392L154.922 507.991L140.492 507.991L140.492 508.654C140.492 510.24 140.986 511.54 141.974 512.554C142.962 513.542 144.327 514.036 146.069 514.036C147.369 514.036 148.474 513.763 149.384 513.217C150.32 512.645 151.074 511.891 151.646 510.955L154.298 513.295C153.622 514.465 152.582 515.453 151.178 516.259C149.8 517.065 148.071 517.468 145.991 517.468ZM145.679 499.645C144.925 499.645 144.223 499.775 143.573 500.035C142.949 500.295 142.403 500.672 141.935 501.166C141.493 501.634 141.142 502.193 140.882 502.843C140.622 503.493 140.492 504.208 140.492 504.988L140.492 505.261L150.593 505.261L150.593 504.871C150.593 503.285 150.138 502.024 149.228 501.088C148.344 500.126 147.161 499.645 145.679 499.645ZM162.082 496.876L166.333 496.876L166.333 500.308L166.567 500.308C167.165 499.086 167.958 498.137 168.946 497.461C169.934 496.759 171.169 496.408 172.651 496.408C175.017 496.408 176.902 497.292 178.306 499.06C179.71 500.828 180.412 503.454 180.412 506.938C180.412 510.422 179.71 513.048 178.306 514.816C176.902 516.584 175.017 517.468 172.651 517.468C171.169 517.468 169.934 517.13 168.946 516.454C167.958 515.752 167.165 514.79 166.567 513.568L166.333 513.568L166.333 524.8L162.082 524.8L162.082 496.876ZM170.896 513.997C172.508 513.997 173.743 513.503 174.601 512.515C175.485 511.527 175.927 510.214 175.927 508.576L175.927 505.3C175.927 503.662 175.485 502.349 174.601 501.361C173.743 500.373 172.508 499.879 170.896 499.879C170.272 499.879 169.687 499.957 169.141 500.113C168.595 500.269 168.114 500.503 167.698 500.815C167.282 501.127 166.944 501.517 166.684 501.985C166.45 502.427 166.333 502.96 166.333 503.584L166.333 510.292C166.333 510.916 166.45 511.462 166.684 511.93C166.944 512.372 167.282 512.749 167.698 513.061C168.114 513.373 168.595 513.607 169.141 513.763C169.687 513.919 170.272 513.997 170.896 513.997ZM187.846 496.876L198.649 496.876C200.391 496.876 201.743 497.344 202.705 498.28C203.667 499.19 204.148 500.412 204.148 501.946C204.148 504.442 202.783 505.898 200.053 506.314L200.053 506.509C201.717 506.639 202.939 507.12 203.719 507.952C204.499 508.758 204.889 509.824 204.889 511.15C204.889 511.956 204.746 512.71 204.46 513.412C204.2 514.114 203.81 514.738 203.29 515.284C202.77 515.804 202.12 516.22 201.34 516.532C200.586 516.844 199.728 517 198.766 517L187.846 517L187.846 496.876ZM197.869 513.802C198.701 513.802 199.351 513.607 199.819 513.217C200.287 512.801 200.521 512.216 200.521 511.462L200.521 510.526C200.521 509.772 200.287 509.187 199.819 508.771C199.377 508.355 198.779 508.147 198.025 508.147L192.097 508.147L192.097 513.802L197.869 513.802ZM197.479 505.3C198.181 505.3 198.74 505.105 199.156 504.715C199.572 504.325 199.78 503.792 199.78 503.116L199.78 502.258C199.78 501.582 199.572 501.049 199.156 500.659C198.74 500.269 198.181 500.074 197.479 500.074L192.097 500.074L192.097 505.3L197.479 505.3ZM212.518 496.876L216.73 496.876L216.73 505.534L216.34 510.994L216.535 510.994L225.427 496.876L229.444 496.876L229.444 517L225.232 517L225.232 508.342L225.622 502.882L225.427 502.882L216.535 517L212.518 517L212.518 496.876ZM245.575 517.468C243.391 517.468 241.571 517.13 240.115 516.454C238.659 515.778 237.502 514.842 236.644 513.646L239.374 511.228C240.05 512.164 240.869 512.879 241.831 513.373C242.819 513.841 244.054 514.075 245.536 514.075C247.096 514.075 248.253 513.815 249.007 513.295C249.761 512.775 250.138 512.099 250.138 511.267L250.138 510.877C250.138 510.045 249.878 509.408 249.358 508.966C248.838 508.524 248.045 508.303 246.979 508.303L241.87 508.303L241.87 505.183L246.55 505.183C247.642 505.183 248.435 504.975 248.929 504.559C249.449 504.117 249.709 503.506 249.709 502.726L249.709 502.336C249.709 501.582 249.384 500.971 248.734 500.503C248.084 500.035 247.005 499.801 245.497 499.801C244.093 499.801 242.936 500.035 242.026 500.503C241.116 500.945 240.323 501.595 239.647 502.453L237.034 500.347C237.996 499.099 239.153 498.137 240.505 497.461C241.883 496.759 243.664 496.408 245.848 496.408C248.552 496.408 250.606 496.915 252.01 497.929C253.414 498.917 254.116 500.23 254.116 501.868C254.116 503.064 253.765 504.039 253.063 504.793C252.387 505.547 251.438 506.067 250.216 506.353L250.216 506.509C251.542 506.717 252.582 507.237 253.336 508.069C254.116 508.875 254.506 509.941 254.506 511.267C254.506 513.139 253.726 514.647 252.166 515.791C250.606 516.909 248.409 517.468 245.575 517.468ZM287.937 496.876L292.149 496.876L292.149 505.534L291.759 510.994L291.954 510.994L300.846 496.876L304.863 496.876L304.863 517L300.651 517L300.651 508.342L301.041 502.882L300.846 502.882L291.954 517L287.937 517L287.937 496.876ZM320.994 517.468C318.81 517.468 316.99 517.13 315.534 516.454C314.078 515.778 312.921 514.842 312.063 513.646L314.793 511.228C315.469 512.164 316.288 512.879 317.25 513.373C318.238 513.841 319.473 514.075 320.955 514.075C322.515 514.075 323.672 513.815 324.426 513.295C325.18 512.775 325.557 512.099 325.557 511.267L325.557 510.877C325.557 510.045 325.297 509.408 324.777 508.966C324.257 508.524 323.464 508.303 322.398 508.303L317.289 508.303L317.289 505.183L321.969 505.183C323.061 505.183 323.854 504.975 324.348 504.559C324.868 504.117 325.128 503.506 325.128 502.726L325.128 502.336C325.128 501.582 324.803 500.971 324.153 500.503C323.503 500.035 322.424 499.801 320.916 499.801C319.512 499.801 318.355 500.035 317.445 500.503C316.535 500.945 315.742 501.595 315.066 502.453L312.453 500.347C313.415 499.099 314.572 498.137 315.924 497.461C317.302 496.759 319.083 496.408 321.267 496.408C323.971 496.408 326.025 496.915 327.429 497.929C328.833 498.917 329.535 500.23 329.535 501.868C329.535 503.064 329.184 504.039 328.482 504.793C327.806 505.547 326.857 506.067 325.635 506.353L325.635 506.509C326.961 506.717 328.001 507.237 328.755 508.069C329.535 508.875 329.925 509.941 329.925 511.267C329.925 513.139 329.145 514.647 327.585 515.791C326.025 516.909 323.828 517.468 320.994 517.468ZM372.561 517.468C371.053 517.468 369.701 517.221 368.505 516.727C367.335 516.233 366.334 515.531 365.502 514.621C364.696 513.711 364.072 512.606 363.63 511.306C363.214 510.006 363.006 508.55 363.006 506.938C363.006 505.326 363.214 503.87 363.63 502.57C364.072 501.27 364.696 500.165 365.502 499.255C366.334 498.345 367.335 497.643 368.505 497.149C369.701 496.655 371.04 496.408 372.522 496.408C374.602 496.408 376.266 496.85 377.514 497.734C378.788 498.618 379.737 499.762 380.361 501.166L377.046 502.96C376.682 502.024 376.123 501.283 375.369 500.737C374.641 500.191 373.692 499.918 372.522 499.918C370.91 499.918 369.662 500.412 368.778 501.4C367.894 502.362 367.452 503.649 367.452 505.261L367.452 508.615C367.452 510.201 367.894 511.488 368.778 512.476C369.662 513.464 370.936 513.958 372.6 513.958C373.848 513.958 374.862 513.672 375.642 513.1C376.448 512.528 377.085 511.748 377.553 510.76L380.673 512.671C380.023 514.075 379.035 515.232 377.709 516.142C376.383 517.026 374.667 517.468 372.561 517.468ZM388.964 496.876L399.767 496.876C401.509 496.876 402.861 497.344 403.823 498.28C404.785 499.19 405.266 500.412 405.266 501.946C405.266 504.442 403.901 505.898 401.171 506.314L401.171 506.509C402.835 506.639 404.057 507.12 404.837 507.952C405.617 508.758 406.007 509.824 406.007 511.15C406.007 511.956 405.864 512.71 405.578 513.412C405.318 514.114 404.928 514.738 404.408 515.284C403.888 515.804 403.238 516.22 402.458 516.532C401.704 516.844 400.846 517 399.884 517L388.964 517L388.964 496.876ZM398.987 513.802C399.819 513.802 400.469 513.607 400.937 513.217C401.405 512.801 401.639 512.216 401.639 511.462L401.639 510.526C401.639 509.772 401.405 509.187 400.937 508.771C400.495 508.355 399.897 508.147 399.143 508.147L393.215 508.147L393.215 513.802L398.987 513.802ZM398.597 505.3C399.299 505.3 399.858 505.105 400.274 504.715C400.69 504.325 400.898 503.792 400.898 503.116L400.898 502.258C400.898 501.582 400.69 501.049 400.274 500.659C399.858 500.269 399.299 500.074 398.597 500.074L393.215 500.074L393.215 505.3L398.597 505.3ZM422.528 517.468C420.994 517.468 419.616 517.221 418.394 516.727C417.172 516.233 416.145 515.531 415.313 514.621C414.481 513.711 413.844 512.619 413.402 511.345C412.96 510.045 412.739 508.589 412.739 506.977C412.739 505.365 412.96 503.909 413.402 502.609C413.87 501.309 414.507 500.204 415.313 499.294C416.145 498.358 417.146 497.643 418.316 497.149C419.486 496.655 420.786 496.408 422.216 496.408C423.62 496.408 424.894 496.655 426.038 497.149C427.182 497.617 428.157 498.293 428.963 499.177C429.769 500.061 430.38 501.114 430.796 502.336C431.238 503.558 431.459 504.91 431.459 506.392L431.459 507.991L417.029 507.991L417.029 508.654C417.029 510.24 417.523 511.54 418.511 512.554C419.499 513.542 420.864 514.036 422.606 514.036C423.906 514.036 425.011 513.763 425.921 513.217C426.857 512.645 427.611 511.891 428.183 510.955L430.835 513.295C430.159 514.465 429.119 515.453 427.715 516.259C426.337 517.065 424.608 517.468 422.528 517.468ZM422.216 499.645C421.462 499.645 420.76 499.775 420.11 500.035C419.486 500.295 418.94 500.672 418.472 501.166C418.03 501.634 417.679 502.193 417.419 502.843C417.159 503.493 417.029 504.208 417.029 504.988L417.029 505.261L427.13 505.261L427.13 504.871C427.13 503.285 426.675 502.024 425.765 501.088C424.881 500.126 423.698 499.645 422.216 499.645ZM445.094 500.308L438.035 500.308L438.035 496.876L456.443 496.876L456.443 500.308L449.345 500.308L449.345 517L445.094 517L445.094 500.308ZM461.615 513.568L464.228 513.568C464.566 513.126 464.865 512.619 465.125 512.047C465.411 511.449 465.632 510.734 465.788 509.902C465.97 509.07 466.1 508.108 466.178 507.016C466.282 505.924 466.334 504.65 466.334 503.194L466.334 496.876L480.569 496.876L480.569 517L476.318 517L476.318 500.308L470.312 500.308L470.312 503.272C470.312 506.678 470.065 509.343 469.571 511.267C469.077 513.191 468.401 514.595 467.543 515.479C466.945 516.103 466.256 516.519 465.476 516.727C464.696 516.909 463.877 517 463.019 517L461.615 517L461.615 513.568ZM497.518 517.468C496.036 517.468 494.697 517.221 493.501 516.727C492.331 516.233 491.33 515.531 490.498 514.621C489.692 513.711 489.068 512.606 488.626 511.306C488.184 510.006 487.963 508.55 487.963 506.938C487.963 505.326 488.184 503.87 488.626 502.57C489.068 501.27 489.692 500.165 490.498 499.255C491.33 498.345 492.331 497.643 493.501 497.149C494.697 496.655 496.036 496.408 497.518 496.408C499 496.408 500.326 496.655 501.496 497.149C502.692 497.643 503.693 498.345 504.499 499.255C505.331 500.165 505.968 501.27 506.41 502.57C506.852 503.87 507.073 505.326 507.073 506.938C507.073 508.55 506.852 510.006 506.41 511.306C505.968 512.606 505.331 513.711 504.499 514.621C503.693 515.531 502.692 516.233 501.496 516.727C500.326 517.221 499 517.468 497.518 517.468ZM497.518 514.114C499.078 514.114 500.313 513.646 501.223 512.71C502.159 511.748 502.627 510.331 502.627 508.459L502.627 505.417C502.627 503.545 502.159 502.141 501.223 501.205C500.313 500.243 499.078 499.762 497.518 499.762C495.958 499.762 494.71 500.243 493.774 501.205C492.864 502.141 492.409 503.545 492.409 505.417L492.409 508.459C492.409 510.331 492.864 511.748 493.774 512.71C494.71 513.646 495.958 514.114 497.518 514.114ZM515.989 496.876L530.77 496.876L530.77 500.308L520.24 500.308L520.24 517L515.989 517L515.989 496.876ZM547.798 517.468C546.316 517.468 544.977 517.221 543.781 516.727C542.611 516.233 541.61 515.531 540.778 514.621C539.972 513.711 539.348 512.606 538.906 511.306C538.464 510.006 538.243 508.55 538.243 506.938C538.243 505.326 538.464 503.87 538.906 502.57C539.348 501.27 539.972 500.165 540.778 499.255C541.61 498.345 542.611 497.643 543.781 497.149C544.977 496.655 546.316 496.408 547.798 496.408C549.28 496.408 550.606 496.655 551.776 497.149C552.972 497.643 553.973 498.345 554.779 499.255C555.611 500.165 556.248 501.27 556.69 502.57C557.132 503.87 557.353 505.326 557.353 506.938C557.353 508.55 557.132 510.006 556.69 511.306C556.248 512.606 555.611 513.711 554.779 514.621C553.973 515.531 552.972 516.233 551.776 516.727C550.606 517.221 549.28 517.468 547.798 517.468ZM547.798 514.114C549.358 514.114 550.593 513.646 551.503 512.71C552.439 511.748 552.907 510.331 552.907 508.459L552.907 505.417C552.907 503.545 552.439 502.141 551.503 501.205C550.593 500.243 549.358 499.762 547.798 499.762C546.238 499.762 544.99 500.243 544.054 501.205C543.144 502.141 542.689 503.545 542.689 505.417L542.689 508.459C542.689 510.331 543.144 511.748 544.054 512.71C544.99 513.646 546.238 514.114 547.798 514.114ZM603.967 496.876L608.257 496.876L598.506 520.9C597.986 522.2 597.297 523.175 596.439 523.825C595.607 524.475 594.398 524.8 592.812 524.8L589.419 524.8L589.419 521.368L594.177 521.368L596.01 516.727L587.899 496.876L592.345 496.876L595.542 505.3L598.038 512.203L598.272 512.203L600.768 505.3L603.967 496.876ZM616.548 496.876L631.329 496.876L631.329 500.308L620.799 500.308L620.799 517L616.548 517L616.548 496.876ZM637.593 513.568L640.206 513.568C640.544 513.126 640.843 512.619 641.103 512.047C641.389 511.449 641.61 510.734 641.766 509.902C641.948 509.07 642.078 508.108 642.156 507.016C642.26 505.924 642.312 504.65 642.312 503.194L642.312 496.876L656.547 496.876L656.547 517L652.296 517L652.296 500.308L646.29 500.308L646.29 503.272C646.29 506.678 646.043 509.343 645.549 511.267C645.055 513.191 644.379 514.595 643.521 515.479C642.923 516.103 642.234 516.519 641.454 516.727C640.674 516.909 639.855 517 638.997 517L637.593 517L637.593 513.568ZM673.926 517.468C672.392 517.468 671.014 517.221 669.792 516.727C668.57 516.233 667.543 515.531 666.711 514.621C665.879 513.711 665.242 512.619 664.8 511.345C664.358 510.045 664.137 508.589 664.137 506.977C664.137 505.365 664.358 503.909 664.8 502.609C665.268 501.309 665.905 500.204 666.711 499.294C667.543 498.358 668.544 497.643 669.714 497.149C670.884 496.655 672.184 496.408 673.614 496.408C675.018 496.408 676.292 496.655 677.436 497.149C678.58 497.617 679.555 498.293 680.361 499.177C681.167 500.061 681.778 501.114 682.194 502.336C682.636 503.558 682.857 504.91 682.857 506.392L682.857 507.991L668.427 507.991L668.427 508.654C668.427 510.24 668.921 511.54 669.909 512.554C670.897 513.542 672.262 514.036 674.004 514.036C675.304 514.036 676.409 513.763 677.319 513.217C678.255 512.645 679.009 511.891 679.581 510.955L682.233 513.295C681.557 514.465 680.517 515.453 679.113 516.259C677.735 517.065 676.006 517.468 673.926 517.468ZM673.614 499.645C672.86 499.645 672.158 499.775 671.508 500.035C670.884 500.295 670.338 500.672 669.87 501.166C669.428 501.634 669.077 502.193 668.817 502.843C668.557 503.493 668.427 504.208 668.427 504.988L668.427 505.261L678.528 505.261L678.528 504.871C678.528 503.285 678.073 502.024 677.163 501.088C676.279 500.126 675.096 499.645 673.614 499.645ZM690.018 496.876L694.269 496.876L694.269 500.308L694.503 500.308C695.101 499.086 695.894 498.137 696.882 497.461C697.87 496.759 699.105 496.408 700.587 496.408C702.953 496.408 704.838 497.292 706.242 499.06C707.646 500.828 708.348 503.454 708.348 506.938C708.348 510.422 707.646 513.048 706.242 514.816C704.838 516.584 702.953 517.468 700.587 517.468C699.105 517.468 697.87 517.13 696.882 516.454C695.894 515.752 695.101 514.79 694.503 513.568L694.269 513.568L694.269 524.8L690.018 524.8L690.018 496.876ZM698.832 513.997C700.444 513.997 701.679 513.503 702.537 512.515C703.421 511.527 703.863 510.214 703.863 508.576L703.863 505.3C703.863 503.662 703.421 502.349 702.537 501.361C701.679 500.373 700.444 499.879 698.832 499.879C698.208 499.879 697.623 499.957 697.077 500.113C696.531 500.269 696.05 500.503 695.634 500.815C695.218 501.127 694.88 501.517 694.62 501.985C694.386 502.427 694.269 502.96 694.269 503.584L694.269 510.292C694.269 510.916 694.386 511.462 694.62 511.93C694.88 512.372 695.218 512.749 695.634 513.061C696.05 513.373 696.531 513.607 697.077 513.763C697.623 513.919 698.208 513.997 698.832 513.997ZM723.776 517.468C722.294 517.468 720.955 517.221 719.759 516.727C718.589 516.233 717.588 515.531 716.756 514.621C715.95 513.711 715.326 512.606 714.884 511.306C714.442 510.006 714.221 508.55 714.221 506.938C714.221 505.326 714.442 503.87 714.884 502.57C715.326 501.27 715.95 500.165 716.756 499.255C717.588 498.345 718.589 497.643 719.759 497.149C720.955 496.655 722.294 496.408 723.776 496.408C725.258 496.408 726.584 496.655 727.754 497.149C728.95 497.643 729.951 498.345 730.757 499.255C731.589 500.165 732.226 501.27 732.668 502.57C733.11 503.87 733.331 505.326 733.331 506.938C733.331 508.55 733.11 510.006 732.668 511.306C732.226 512.606 731.589 513.711 730.757 514.621C729.951 515.531 728.95 516.233 727.754 516.727C726.584 517.221 725.258 517.468 723.776 517.468ZM723.776 514.114C725.336 514.114 726.571 513.646 727.481 512.71C728.417 511.748 728.885 510.331 728.885 508.459L728.885 505.417C728.885 503.545 728.417 502.141 727.481 501.205C726.571 500.243 725.336 499.762 723.776 499.762C722.216 499.762 720.968 500.243 720.032 501.205C719.122 502.141 718.667 503.545 718.667 505.417L718.667 508.459C718.667 510.331 719.122 511.748 720.032 512.71C720.968 513.646 722.216 514.114 723.776 514.114ZM737.879 513.568L740.18 513.568C740.934 512.372 741.532 510.929 741.974 509.239C742.416 507.523 742.637 505.495 742.637 503.155L742.637 496.876L756.365 496.876L756.365 513.568L759.602 513.568L759.602 522.46L755.78 522.46L755.78 517L741.701 517L741.701 522.46L737.879 522.46L737.879 513.568ZM752.192 513.568L752.192 500.308L746.615 500.308L746.615 503.311C746.615 505.599 746.433 507.575 746.069 509.239C745.731 510.877 745.224 512.32 744.548 513.568L752.192 513.568ZM781.544 517C780.322 517 779.399 516.688 778.775 516.064C778.177 515.44 777.813 514.621 777.683 513.607L777.488 513.607C777.098 514.829 776.383 515.778 775.343 516.454C774.329 517.13 773.029 517.468 771.443 517.468C769.389 517.468 767.751 516.935 766.529 515.869C765.307 514.777 764.696 513.282 764.696 511.384C764.696 509.434 765.411 507.952 766.841 506.938C768.297 505.898 770.52 505.378 773.51 505.378L777.371 505.378L777.371 503.818C777.371 501.088 775.928 499.723 773.042 499.723C771.742 499.723 770.689 499.983 769.883 500.503C769.077 500.997 768.401 501.66 767.855 502.492L765.32 500.425C765.892 499.333 766.854 498.397 768.206 497.617C769.558 496.811 771.3 496.408 773.432 496.408C775.98 496.408 777.982 497.019 779.438 498.241C780.894 499.463 781.622 501.231 781.622 503.545L781.622 513.646L784.157 513.646L784.157 517L781.544 517ZM772.652 514.348C774.03 514.348 775.161 514.036 776.045 513.412C776.929 512.788 777.371 511.982 777.371 510.994L777.371 508.069L773.588 508.069C770.52 508.069 768.986 508.992 768.986 510.838L768.986 511.618C768.986 512.528 769.311 513.217 769.961 513.685C770.611 514.127 771.508 514.348 772.652 514.348ZM830.224 496.876L834.514 496.876L824.764 520.9C824.244 522.2 823.555 523.175 822.697 523.825C821.865 524.475 820.656 524.8 819.07 524.8L815.677 524.8L815.677 521.368L820.435 521.368L822.268 516.727L814.156 496.876L818.602 496.876L821.8 505.3L824.296 512.203L824.53 512.203L827.026 505.3L830.224 496.876ZM850.216 517.468C848.708 517.468 847.356 517.221 846.16 516.727C844.99 516.233 843.989 515.531 843.157 514.621C842.351 513.711 841.727 512.606 841.285 511.306C840.869 510.006 840.661 508.55 840.661 506.938C840.661 505.326 840.869 503.87 841.285 502.57C841.727 501.27 842.351 500.165 843.157 499.255C843.989 498.345 844.99 497.643 846.16 497.149C847.356 496.655 848.695 496.408 850.177 496.408C852.257 496.408 853.921 496.85 855.169 497.734C856.443 498.618 857.392 499.762 858.016 501.166L854.701 502.96C854.337 502.024 853.778 501.283 853.024 500.737C852.296 500.191 851.347 499.918 850.177 499.918C848.565 499.918 847.317 500.412 846.433 501.4C845.549 502.362 845.107 503.649 845.107 505.261L845.107 508.615C845.107 510.201 845.549 511.488 846.433 512.476C847.317 513.464 848.591 513.958 850.255 513.958C851.503 513.958 852.517 513.672 853.297 513.1C854.103 512.528 854.74 511.748 855.208 510.76L858.328 512.671C857.678 514.075 856.69 515.232 855.364 516.142C854.038 517.026 852.322 517.468 850.216 517.468ZM866.152 496.876L870.364 496.876L870.364 505.534L869.974 510.994L870.169 510.994L879.061 496.876L883.078 496.876L883.078 517L878.866 517L878.866 508.342L879.256 502.882L879.061 502.882L870.169 517L866.152 517L866.152 496.876ZM888.991 513.568L891.604 513.568C891.942 513.126 892.241 512.619 892.501 512.047C892.787 511.449 893.008 510.734 893.164 509.902C893.346 509.07 893.476 508.108 893.554 507.016C893.658 505.924 893.71 504.65 893.71 503.194L893.71 496.876L907.945 496.876L907.945 517L903.694 517L903.694 500.308L897.688 500.308L897.688 503.272C897.688 506.678 897.441 509.343 896.947 511.267C896.453 513.191 895.777 514.595 894.919 515.479C894.321 516.103 893.632 516.519 892.852 516.727C892.072 516.909 891.253 517 890.395 517L888.991 517L888.991 513.568ZM916.431 496.876L920.643 496.876L920.643 505.534L920.253 510.994L920.448 510.994L929.34 496.876L933.357 496.876L933.357 517L929.145 517L929.145 508.342L929.535 502.882L929.34 502.882L920.448 517L916.431 517L916.431 496.876ZM942.039 496.876L952.842 496.876C954.584 496.876 955.936 497.344 956.898 498.28C957.86 499.19 958.341 500.412 958.341 501.946C958.341 504.442 956.976 505.898 954.246 506.314L954.246 506.509C955.91 506.639 957.132 507.12 957.912 507.952C958.692 508.758 959.082 509.824 959.082 511.15C959.082 511.956 958.939 512.71 958.653 513.412C958.393 514.114 958.003 514.738 957.483 515.284C956.963 515.804 956.313 516.22 955.533 516.532C954.779 516.844 953.921 517 952.959 517L942.039 517L942.039 496.876ZM952.062 513.802C952.894 513.802 953.544 513.607 954.012 513.217C954.48 512.801 954.714 512.216 954.714 511.462L954.714 510.526C954.714 509.772 954.48 509.187 954.012 508.771C953.57 508.355 952.972 508.147 952.218 508.147L946.29 508.147L946.29 513.802L952.062 513.802ZM951.672 505.3C952.374 505.3 952.933 505.105 953.349 504.715C953.765 504.325 953.973 503.792 953.973 503.116L953.973 502.258C953.973 501.582 953.765 501.049 953.349 500.659C952.933 500.269 952.374 500.074 951.672 500.074L946.29 500.074L946.29 505.3L951.672 505.3ZM982.662 517C981.44 517 980.517 516.688 979.893 516.064C979.295 515.44 978.931 514.621 978.801 513.607L978.606 513.607C978.216 514.829 977.501 515.778 976.461 516.454C975.447 517.13 974.147 517.468 972.561 517.468C970.507 517.468 968.869 516.935 967.647 515.869C966.425 514.777 965.814 513.282 965.814 511.384C965.814 509.434 966.529 507.952 967.959 506.938C969.415 505.898 971.638 505.378 974.628 505.378L978.489 505.378L978.489 503.818C978.489 501.088 977.046 499.723 974.16 499.723C972.86 499.723 971.807 499.983 971.001 500.503C970.195 500.997 969.519 501.66 968.973 502.492L966.438 500.425C967.01 499.333 967.972 498.397 969.324 497.617C970.676 496.811 972.418 496.408 974.55 496.408C977.098 496.408 979.1 497.019 980.556 498.241C982.012 499.463 982.74 501.231 982.74 503.545L982.74 513.646L985.275 513.646L985.275 517L982.662 517ZM973.77 514.348C975.148 514.348 976.279 514.036 977.163 513.412C978.047 512.788 978.489 511.982 978.489 510.994L978.489 508.069L974.706 508.069C971.638 508.069 970.104 508.992 970.104 510.838L970.104 511.618C970.104 512.528 970.429 513.217 971.079 513.685C971.729 514.127 972.626 514.348 973.77 514.348ZM1000.74 517.468C999.209 517.468 997.831 517.221 996.609 516.727C995.387 516.233 994.36 515.531 993.528 514.621C992.696 513.711 992.059 512.619 991.617 511.345C991.175 510.045 990.954 508.589 990.954 506.977C990.954 505.365 991.175 503.909 991.617 502.609C992.085 501.309 992.722 500.204 993.528 499.294C994.36 498.358 995.361 497.643 996.531 497.149C997.701 496.655 999.001 496.408 1000.43 496.408C1001.83 496.408 1003.11 496.655 1004.25 497.149C1005.4 497.617 1006.37 498.293 1007.18 499.177C1007.98 500.061 1008.59 501.114 1009.01 502.336C1009.45 503.558 1009.67 504.91 1009.67 506.392L1009.67 507.991L995.244 507.991L995.244 508.654C995.244 510.24 995.738 511.54 996.726 512.554C997.714 513.542 999.079 514.036 1000.82 514.036C1002.12 514.036 1003.23 513.763 1004.14 513.217C1005.07 512.645 1005.83 511.891 1006.4 510.955L1009.05 513.295C1008.37 514.465 1007.33 515.453 1005.93 516.259C1004.55 517.065 1002.82 517.468 1000.74 517.468ZM1000.43 499.645C999.677 499.645 998.975 499.775 998.325 500.035C997.701 500.295 997.155 500.672 996.687 501.166C996.245 501.634 995.894 502.193 995.634 502.843C995.374 503.493 995.244 504.208 995.244 504.988L995.244 505.261L1005.34 505.261L1005.34 504.871C1005.34 503.285 1004.89 502.024 1003.98 501.088C1003.1 500.126 1001.91 499.645 1000.43 499.645ZM1023.31 500.308L1016.25 500.308L1016.25 496.876L1034.66 496.876L1034.66 500.308L1027.56 500.308L1027.56 517L1023.31 517L1023.31 500.308ZM200.416 563.876L211.219 563.876C212.961 563.876 214.313 564.344 215.275 565.28C216.237 566.19 216.718 567.412 216.718 568.946C216.718 571.442 215.353 572.898 212.623 573.314L212.623 573.509C214.287 573.639 215.509 574.12 216.289 574.952C217.069 575.758 217.459 576.824 217.459 578.15C217.459 578.956 217.316 579.71 217.03 580.412C216.77 581.114 216.38 581.738 215.86 582.284C215.34 582.804 214.69 583.22 213.91 583.532C213.156 583.844 212.298 584 211.336 584L200.416 584L200.416 563.876ZM210.439 580.802C211.271 580.802 211.921 580.607 212.389 580.217C212.857 579.801 213.091 579.216 213.091 578.462L213.091 577.526C213.091 576.772 212.857 576.187 212.389 575.771C211.947 575.355 211.349 575.147 210.595 575.147L204.667 575.147L204.667 580.802L210.439 580.802ZM210.049 572.3C210.751 572.3 211.31 572.105 211.726 571.715C212.142 571.325 212.35 570.792 212.35 570.116L212.35 569.258C212.35 568.582 212.142 568.049 211.726 567.659C211.31 567.269 210.751 567.074 210.049 567.074L204.667 567.074L204.667 572.3L210.049 572.3ZM225.439 563.876L229.69 563.876L229.69 571.988L233.317 571.988L238.153 563.876L242.716 563.876L238.231 571.208C237.789 571.962 237.36 572.495 236.944 572.807C236.528 573.119 236.047 573.34 235.501 573.47L235.501 573.665C236.125 573.795 236.645 574.029 237.061 574.367C237.477 574.679 237.906 575.225 238.348 576.005L240.883 580.568L243.067 580.568L243.067 584L240.571 584C239.713 584 238.972 583.805 238.348 583.415C237.75 582.999 237.191 582.336 236.671 581.426L233.317 575.42L229.69 575.42L229.69 584L225.439 584L225.439 563.876ZM264.58 563.876L268.87 563.876L259.12 587.9C258.6 589.2 257.911 590.175 257.053 590.825C256.221 591.475 255.012 591.8 253.426 591.8L250.033 591.8L250.033 588.368L254.791 588.368L256.624 583.727L248.512 563.876L252.958 563.876L256.156 572.3L258.652 579.203L258.886 579.203L261.382 572.3L264.58 563.876ZM284.571 584.468C283.063 584.468 281.711 584.221 280.515 583.727C279.345 583.233 278.344 582.531 277.512 581.621C276.706 580.711 276.082 579.606 275.64 578.306C275.224 577.006 275.016 575.55 275.016 573.938C275.016 572.326 275.224 570.87 275.64 569.57C276.082 568.27 276.706 567.165 277.512 566.255C278.344 565.345 279.345 564.643 280.515 564.149C281.711 563.655 283.05 563.408 284.532 563.408C286.612 563.408 288.276 563.85 289.524 564.734C290.798 565.618 291.747 566.762 292.371 568.166L289.056 569.96C288.692 569.024 288.133 568.283 287.379 567.737C286.651 567.191 285.702 566.918 284.532 566.918C282.92 566.918 281.672 567.412 280.788 568.4C279.904 569.362 279.462 570.649 279.462 572.261L279.462 575.615C279.462 577.201 279.904 578.488 280.788 579.476C281.672 580.464 282.946 580.958 284.61 580.958C285.858 580.958 286.872 580.672 287.652 580.1C288.458 579.528 289.095 578.748 289.563 577.76L292.683 579.671C292.033 581.075 291.045 582.232 289.719 583.142C288.393 584.026 286.677 584.468 284.571 584.468ZM308.97 584.468C307.488 584.468 306.149 584.221 304.953 583.727C303.783 583.233 302.782 582.531 301.95 581.621C301.144 580.711 300.52 579.606 300.078 578.306C299.636 577.006 299.415 575.55 299.415 573.938C299.415 572.326 299.636 570.87 300.078 569.57C300.52 568.27 301.144 567.165 301.95 566.255C302.782 565.345 303.783 564.643 304.953 564.149C306.149 563.655 307.488 563.408 308.97 563.408C310.452 563.408 311.778 563.655 312.948 564.149C314.144 564.643 315.145 565.345 315.951 566.255C316.783 567.165 317.42 568.27 317.862 569.57C318.304 570.87 318.525 572.326 318.525 573.938C318.525 575.55 318.304 577.006 317.862 578.306C317.42 579.606 316.783 580.711 315.951 581.621C315.145 582.531 314.144 583.233 312.948 583.727C311.778 584.221 310.452 584.468 308.97 584.468ZM308.97 581.114C310.53 581.114 311.765 580.646 312.675 579.71C313.611 578.748 314.079 577.331 314.079 575.459L314.079 572.417C314.079 570.545 313.611 569.141 312.675 568.205C311.765 567.243 310.53 566.762 308.97 566.762C307.41 566.762 306.162 567.243 305.226 568.205C304.316 569.141 303.861 570.545 303.861 572.417L303.861 575.459C303.861 577.331 304.316 578.748 305.226 579.71C306.162 580.646 307.41 581.114 308.97 581.114ZM326.115 563.876L336.918 563.876C338.66 563.876 340.012 564.344 340.974 565.28C341.936 566.19 342.417 567.412 342.417 568.946C342.417 571.442 341.052 572.898 338.322 573.314L338.322 573.509C339.986 573.639 341.208 574.12 341.988 574.952C342.768 575.758 343.158 576.824 343.158 578.15C343.158 578.956 343.015 579.71 342.729 580.412C342.469 581.114 342.079 581.738 341.559 582.284C341.039 582.804 340.389 583.22 339.609 583.532C338.855 583.844 337.997 584 337.035 584L326.115 584L326.115 563.876ZM336.138 580.802C336.97 580.802 337.62 580.607 338.088 580.217C338.556 579.801 338.79 579.216 338.79 578.462L338.79 577.526C338.79 576.772 338.556 576.187 338.088 575.771C337.646 575.355 337.048 575.147 336.294 575.147L330.366 575.147L330.366 580.802L336.138 580.802ZM335.748 572.3C336.45 572.3 337.009 572.105 337.425 571.715C337.841 571.325 338.049 570.792 338.049 570.116L338.049 569.258C338.049 568.582 337.841 568.049 337.425 567.659C337.009 567.269 336.45 567.074 335.748 567.074L330.366 567.074L330.366 572.3L335.748 572.3ZM349.266 563.876L353.127 563.876L353.127 570.506L355.974 570.506C358.028 570.506 359.679 571.091 360.927 572.261C362.201 573.431 362.838 575.095 362.838 577.253C362.838 579.411 362.201 581.075 360.927 582.245C359.679 583.415 358.028 584 355.974 584L349.266 584L349.266 563.876ZM355.701 580.802C356.689 580.802 357.456 580.581 358.002 580.139C358.574 579.671 358.86 578.943 358.86 577.955L358.86 576.551C358.86 575.563 358.574 574.848 358.002 574.406C357.456 573.938 356.689 573.704 355.701 573.704L353.127 573.704L353.127 580.802L355.701 580.802ZM365.373 563.876L369.234 563.876L369.234 584L365.373 584L365.373 563.876ZM384.818 584.468C383.284 584.468 381.906 584.221 380.684 583.727C379.462 583.233 378.435 582.531 377.603 581.621C376.771 580.711 376.134 579.619 375.692 578.345C375.25 577.045 375.029 575.589 375.029 573.977C375.029 572.365 375.25 570.909 375.692 569.609C376.16 568.309 376.797 567.204 377.603 566.294C378.435 565.358 379.436 564.643 380.606 564.149C381.776 563.655 383.076 563.408 384.506 563.408C385.91 563.408 387.184 563.655 388.328 564.149C389.472 564.617 390.447 565.293 391.253 566.177C392.059 567.061 392.67 568.114 393.086 569.336C393.528 570.558 393.749 571.91 393.749 573.392L393.749 574.991L379.319 574.991L379.319 575.654C379.319 577.24 379.813 578.54 380.801 579.554C381.789 580.542 383.154 581.036 384.896 581.036C386.196 581.036 387.301 580.763 388.211 580.217C389.147 579.645 389.901 578.891 390.473 577.955L393.125 580.295C392.449 581.465 391.409 582.453 390.005 583.259C388.627 584.065 386.898 584.468 384.818 584.468ZM384.506 566.645C383.752 566.645 383.05 566.775 382.4 567.035C381.776 567.295 381.23 567.672 380.762 568.166C380.32 568.634 379.969 569.193 379.709 569.843C379.449 570.493 379.319 571.208 379.319 571.988L379.319 572.261L389.42 572.261L389.42 571.871C389.42 570.285 388.965 569.024 388.055 568.088C387.171 567.126 385.988 566.645 384.506 566.645ZM434.669 584.468C433.187 584.468 431.848 584.221 430.652 583.727C429.482 583.233 428.481 582.531 427.649 581.621C426.843 580.711 426.219 579.606 425.777 578.306C425.335 577.006 425.114 575.55 425.114 573.938C425.114 572.326 425.335 570.87 425.777 569.57C426.219 568.27 426.843 567.165 427.649 566.255C428.481 565.345 429.482 564.643 430.652 564.149C431.848 563.655 433.187 563.408 434.669 563.408C436.151 563.408 437.477 563.655 438.647 564.149C439.843 564.643 440.844 565.345 441.65 566.255C442.482 567.165 443.119 568.27 443.561 569.57C444.003 570.87 444.224 572.326 444.224 573.938C444.224 575.55 444.003 577.006 443.561 578.306C443.119 579.606 442.482 580.711 441.65 581.621C440.844 582.531 439.843 583.233 438.647 583.727C437.477 584.221 436.151 584.468 434.669 584.468ZM434.669 581.114C436.229 581.114 437.464 580.646 438.374 579.71C439.31 578.748 439.778 577.331 439.778 575.459L439.778 572.417C439.778 570.545 439.31 569.141 438.374 568.205C437.464 567.243 436.229 566.762 434.669 566.762C433.109 566.762 431.861 567.243 430.925 568.205C430.015 569.141 429.56 570.545 429.56 572.417L429.56 575.459C429.56 577.331 430.015 578.748 430.925 579.71C431.861 580.646 433.109 581.114 434.669 581.114ZM468.116 584L449.747 584L449.747 563.876L453.374 563.876L453.374 580.724L457.664 580.724L457.664 563.876L461.291 563.876L461.291 580.724L465.581 580.724L465.581 563.876L469.208 563.876L469.208 580.685L471.509 580.685L471.509 589.46L468.116 589.46L468.116 584ZM490.838 563.876L495.128 563.876L485.378 587.9C484.858 589.2 484.169 590.175 483.311 590.825C482.479 591.475 481.27 591.8 479.684 591.8L476.291 591.8L476.291 588.368L481.049 588.368L482.882 583.727L474.77 563.876L479.216 563.876L482.414 572.3L484.91 579.203L485.144 579.203L487.64 572.3L490.838 563.876ZM518.395 584L500.026 584L500.026 563.876L503.653 563.876L503.653 580.724L507.943 580.724L507.943 563.876L511.57 563.876L511.57 580.724L515.86 580.724L515.86 563.876L519.487 563.876L519.487 580.685L521.788 580.685L521.788 589.46L518.395 589.46L518.395 584ZM535.657 584.468C534.123 584.468 532.745 584.221 531.523 583.727C530.301 583.233 529.274 582.531 528.442 581.621C527.61 580.711 526.973 579.619 526.531 578.345C526.089 577.045 525.868 575.589 525.868 573.977C525.868 572.365 526.089 570.909 526.531 569.609C526.999 568.309 527.636 567.204 528.442 566.294C529.274 565.358 530.275 564.643 531.445 564.149C532.615 563.655 533.915 563.408 535.345 563.408C536.749 563.408 538.023 563.655 539.167 564.149C540.311 564.617 541.286 565.293 542.092 566.177C542.898 567.061 543.509 568.114 543.925 569.336C544.367 570.558 544.588 571.91 544.588 573.392L544.588 574.991L530.158 574.991L530.158 575.654C530.158 577.24 530.652 578.54 531.64 579.554C532.628 580.542 533.993 581.036 535.735 581.036C537.035 581.036 538.14 580.763 539.05 580.217C539.986 579.645 540.74 578.891 541.312 577.955L543.964 580.295C543.288 581.465 542.248 582.453 540.844 583.259C539.466 584.065 537.737 584.468 535.657 584.468ZM535.345 566.645C534.591 566.645 533.889 566.775 533.239 567.035C532.615 567.295 532.069 567.672 531.601 568.166C531.159 568.634 530.808 569.193 530.548 569.843C530.288 570.493 530.158 571.208 530.158 571.988L530.158 572.261L540.259 572.261L540.259 571.871C540.259 570.285 539.804 569.024 538.894 568.088C538.01 567.126 536.827 566.645 535.345 566.645ZM551.944 563.876L556.195 563.876L556.195 571.988L564.541 571.988L564.541 563.876L568.792 563.876L568.792 584L564.541 584L564.541 575.42L556.195 575.42L556.195 584L551.944 584L551.944 563.876ZM577.045 563.876L581.257 563.876L581.257 572.534L580.867 577.994L581.062 577.994L589.954 563.876L593.971 563.876L593.971 584L589.759 584L589.759 575.342L590.149 569.882L589.954 569.882L581.062 584L577.045 584L577.045 563.876ZM601.209 580.568L603.51 580.568L604.953 577.916C605.265 577.318 605.629 576.889 606.045 576.629C606.461 576.343 606.968 576.174 607.566 576.122L607.566 575.966C605.902 575.836 604.55 575.303 603.51 574.367C602.47 573.431 601.95 572.053 601.95 570.233C601.95 569.271 602.106 568.4 602.418 567.62C602.73 566.84 603.172 566.177 603.744 565.631C604.342 565.059 605.044 564.63 605.85 564.344C606.682 564.032 607.605 563.876 608.619 563.876L618.603 563.876L618.603 584L614.352 584L614.352 576.512L610.569 576.512L607.956 581.27C607.436 582.258 606.864 582.96 606.24 583.376C605.616 583.792 604.81 584 603.822 584L601.209 584L601.209 580.568ZM614.352 567.191L609.399 567.191C608.411 567.191 607.644 567.425 607.098 567.893C606.578 568.335 606.318 568.959 606.318 569.765L606.318 570.779C606.318 571.585 606.578 572.222 607.098 572.69C607.644 573.132 608.411 573.353 609.399 573.353L614.352 573.353L614.352 567.191ZM660.927 584.468C659.445 584.468 658.106 584.221 656.91 583.727C655.74 583.233 654.739 582.531 653.907 581.621C653.101 580.711 652.477 579.606 652.035 578.306C651.593 577.006 651.372 575.55 651.372 573.938C651.372 572.326 651.593 570.87 652.035 569.57C652.477 568.27 653.101 567.165 653.907 566.255C654.739 565.345 655.74 564.643 656.91 564.149C658.106 563.655 659.445 563.408 660.927 563.408C662.409 563.408 663.735 563.655 664.905 564.149C666.101 564.643 667.102 565.345 667.908 566.255C668.74 567.165 669.377 568.27 669.819 569.57C670.261 570.87 670.482 572.326 670.482 573.938C670.482 575.55 670.261 577.006 669.819 578.306C669.377 579.606 668.74 580.711 667.908 581.621C667.102 582.531 666.101 583.233 664.905 583.727C663.735 584.221 662.409 584.468 660.927 584.468ZM660.927 581.114C662.487 581.114 663.722 580.646 664.632 579.71C665.568 578.748 666.036 577.331 666.036 575.459L666.036 572.417C666.036 570.545 665.568 569.141 664.632 568.205C663.722 567.243 662.487 566.762 660.927 566.762C659.367 566.762 658.119 567.243 657.183 568.205C656.273 569.141 655.818 570.545 655.818 572.417L655.818 575.459C655.818 577.331 656.273 578.748 657.183 579.71C658.119 580.646 659.367 581.114 660.927 581.114ZM683.922 567.308L676.863 567.308L676.863 563.876L695.271 563.876L695.271 567.308L688.173 567.308L688.173 584L683.922 584L683.922 567.308ZM725.582 580.568L728.195 580.568C728.533 580.126 728.832 579.619 729.092 579.047C729.378 578.449 729.599 577.734 729.755 576.902C729.937 576.07 730.067 575.108 730.145 574.016C730.249 572.924 730.301 571.65 730.301 570.194L730.301 563.876L744.536 563.876L744.536 584L740.285 584L740.285 567.308L734.279 567.308L734.279 570.272C734.279 573.678 734.032 576.343 733.538 578.267C733.044 580.191 732.368 581.595 731.51 582.479C730.912 583.103 730.223 583.519 729.443 583.727C728.663 583.909 727.844 584 726.986 584L725.582 584L725.582 580.568ZM765.035 584.468C763.995 584.468 763.072 584.312 762.266 584C761.486 583.714 760.81 583.22 760.238 582.518C759.692 581.79 759.263 580.841 758.951 579.671C758.665 578.501 758.483 577.032 758.405 575.264L755.207 575.264L755.207 584L751.502 584L751.502 563.876L755.207 563.876L755.207 572.144L758.444 572.144C758.522 570.48 758.717 569.089 759.029 567.971C759.367 566.853 759.809 565.956 760.355 565.28C760.901 564.604 761.564 564.123 762.344 563.837C763.124 563.551 764.021 563.408 765.035 563.408C766.127 563.408 767.089 563.577 767.921 563.915C768.753 564.253 769.442 564.825 769.988 565.631C770.56 566.437 770.976 567.516 771.236 568.868C771.522 570.22 771.665 571.91 771.665 573.938C771.665 575.966 771.522 577.656 771.236 579.008C770.95 580.36 770.534 581.439 769.988 582.245C769.442 583.051 768.753 583.623 767.921 583.961C767.089 584.299 766.127 584.468 765.035 584.468ZM765.035 581.231C765.503 581.231 765.906 581.153 766.244 580.997C766.608 580.841 766.894 580.568 767.102 580.178C767.336 579.788 767.505 579.255 767.609 578.579C767.739 577.877 767.804 576.98 767.804 575.888L767.804 571.988C767.804 570.896 767.739 570.012 767.609 569.336C767.505 568.634 767.336 568.088 767.102 567.698C766.894 567.308 766.608 567.035 766.244 566.879C765.906 566.723 765.503 566.645 765.035 566.645C764.567 566.645 764.151 566.723 763.787 566.879C763.449 567.035 763.163 567.308 762.929 567.698C762.721 568.088 762.552 568.634 762.422 569.336C762.318 570.012 762.266 570.896 762.266 571.988L762.266 575.888C762.266 576.98 762.318 577.877 762.422 578.579C762.552 579.255 762.721 579.788 762.929 580.178C763.163 580.568 763.449 580.841 763.787 580.997C764.151 581.153 764.567 581.231 765.035 581.231ZM786.665 584.468C785.235 584.468 783.935 584.221 782.765 583.727C781.621 583.233 780.633 582.492 779.801 581.504C778.995 580.516 778.371 579.281 777.929 577.799C777.487 576.291 777.266 574.536 777.266 572.534C777.266 569.492 777.474 566.905 777.89 564.773C778.306 562.615 778.969 560.86 779.879 559.508C780.789 558.13 781.946 557.103 783.35 556.427C784.78 555.751 786.496 555.348 788.498 555.218L794.621 554.867L794.621 558.845L788.576 559.196C787.354 559.274 786.327 559.482 785.495 559.82C784.689 560.132 784.026 560.639 783.506 561.341C782.986 562.043 782.583 562.953 782.297 564.071C782.037 565.163 781.855 566.528 781.751 568.166L781.985 568.166C782.479 566.866 783.194 565.865 784.13 565.163C785.066 564.461 786.275 564.11 787.757 564.11C788.979 564.11 790.097 564.331 791.111 564.773C792.151 565.215 793.035 565.865 793.763 566.723C794.491 567.555 795.05 568.595 795.44 569.843C795.856 571.091 796.064 572.508 796.064 574.094C796.064 575.654 795.843 577.084 795.401 578.384C794.959 579.658 794.322 580.75 793.49 581.66C792.684 582.544 791.696 583.233 790.526 583.727C789.382 584.221 788.095 584.468 786.665 584.468ZM786.626 581.114C788.108 581.114 789.304 580.646 790.214 579.71C791.15 578.748 791.618 577.409 791.618 575.693L791.618 572.963C791.618 571.143 791.176 569.778 790.292 568.868C789.408 567.932 788.186 567.464 786.626 567.464C785.04 567.464 783.818 567.919 782.96 568.829C782.128 569.713 781.712 570.896 781.712 572.378L781.712 575.615C781.712 577.409 782.154 578.774 783.038 579.71C783.948 580.646 785.144 581.114 786.626 581.114ZM811.765 584.468C810.283 584.468 808.944 584.221 807.748 583.727C806.578 583.233 805.577 582.531 804.745 581.621C803.939 580.711 803.315 579.606 802.873 578.306C802.431 577.006 802.21 575.55 802.21 573.938C802.21 572.326 802.431 570.87 802.873 569.57C803.315 568.27 803.939 567.165 804.745 566.255C805.577 565.345 806.578 564.643 807.748 564.149C808.944 563.655 810.283 563.408 811.765 563.408C813.247 563.408 814.573 563.655 815.743 564.149C816.939 564.643 817.94 565.345 818.746 566.255C819.578 567.165 820.215 568.27 820.657 569.57C821.099 570.87 821.32 572.326 821.32 573.938C821.32 575.55 821.099 577.006 820.657 578.306C820.215 579.606 819.578 580.711 818.746 581.621C817.94 582.531 816.939 583.233 815.743 583.727C814.573 584.221 813.247 584.468 811.765 584.468ZM811.765 581.114C813.325 581.114 814.56 580.646 815.47 579.71C816.406 578.748 816.874 577.331 816.874 575.459L816.874 572.417C816.874 570.545 816.406 569.141 815.47 568.205C814.56 567.243 813.325 566.762 811.765 566.762C810.205 566.762 808.957 567.243 808.021 568.205C807.111 569.141 806.656 570.545 806.656 572.417L806.656 575.459C806.656 577.331 807.111 578.748 808.021 579.71C808.957 580.646 810.205 581.114 811.765 581.114ZM828.442 563.876L832.654 563.876L832.654 572.534L832.264 577.994L832.459 577.994L841.351 563.876L845.368 563.876L845.368 584L841.156 584L841.156 575.342L841.546 569.882L841.351 569.882L832.459 584L828.442 584L828.442 563.876ZM836.905 561.224C835.397 561.224 834.175 560.899 833.239 560.249C832.303 559.573 831.536 558.572 830.938 557.246L829.963 555.062L833.512 553.814L834.916 557.948C835.15 558.052 835.462 558.13 835.852 558.182C836.242 558.208 836.593 558.221 836.905 558.221C837.217 558.221 837.568 558.208 837.958 558.182C838.348 558.13 838.66 558.052 838.894 557.948L840.298 553.814L843.847 555.062L842.872 557.246C842.274 558.572 841.507 559.573 840.571 560.249C839.635 560.899 838.413 561.224 836.905 561.224ZM887.614 584.468C886.08 584.468 884.702 584.221 883.48 583.727C882.258 583.233 881.231 582.531 880.399 581.621C879.567 580.711 878.93 579.619 878.488 578.345C878.046 577.045 877.825 575.589 877.825 573.977C877.825 572.365 878.046 570.909 878.488 569.609C878.956 568.309 879.593 567.204 880.399 566.294C881.231 565.358 882.232 564.643 883.402 564.149C884.572 563.655 885.872 563.408 887.302 563.408C888.706 563.408 889.98 563.655 891.124 564.149C892.268 564.617 893.243 565.293 894.049 566.177C894.855 567.061 895.466 568.114 895.882 569.336C896.324 570.558 896.545 571.91 896.545 573.392L896.545 574.991L882.115 574.991L882.115 575.654C882.115 577.24 882.609 578.54 883.597 579.554C884.585 580.542 885.95 581.036 887.692 581.036C888.992 581.036 890.097 580.763 891.007 580.217C891.943 579.645 892.697 578.891 893.269 577.955L895.921 580.295C895.245 581.465 894.205 582.453 892.801 583.259C891.423 584.065 889.694 584.468 887.614 584.468ZM887.302 566.645C886.548 566.645 885.846 566.775 885.196 567.035C884.572 567.295 884.026 567.672 883.558 568.166C883.116 568.634 882.765 569.193 882.505 569.843C882.245 570.493 882.115 571.208 882.115 571.988L882.115 572.261L892.216 572.261L892.216 571.871C892.216 570.285 891.761 569.024 890.851 568.088C889.967 567.126 888.784 566.645 887.302 566.645ZM901.288 580.568L903.589 580.568C904.343 579.372 904.941 577.929 905.383 576.239C905.825 574.523 906.046 572.495 906.046 570.155L906.046 563.876L919.774 563.876L919.774 580.568L923.011 580.568L923.011 589.46L919.189 589.46L919.189 584L905.11 584L905.11 589.46L901.288 589.46L901.288 580.568ZM915.601 580.568L915.601 567.308L910.024 567.308L910.024 570.311C910.024 572.599 909.842 574.575 909.478 576.239C909.14 577.877 908.633 579.32 907.957 580.568L915.601 580.568ZM927.48 563.876L931.341 563.876L931.341 570.506L934.188 570.506C936.242 570.506 937.893 571.091 939.141 572.261C940.415 573.431 941.052 575.095 941.052 577.253C941.052 579.411 940.415 581.075 939.141 582.245C937.893 583.415 936.242 584 934.188 584L927.48 584L927.48 563.876ZM933.915 580.802C934.903 580.802 935.67 580.581 936.216 580.139C936.788 579.671 937.074 578.943 937.074 577.955L937.074 576.551C937.074 575.563 936.788 574.848 936.216 574.406C935.67 573.938 934.903 573.704 933.915 573.704L931.341 573.704L931.341 580.802L933.915 580.802ZM943.587 563.876L947.448 563.876L947.448 584L943.587 584L943.587 563.876ZM962.604 584.39C961.356 584.39 960.472 584.13 959.952 583.61C959.458 583.09 959.211 582.453 959.211 581.699L959.211 580.685C959.211 579.931 959.458 579.294 959.952 578.774C960.472 578.254 961.356 577.994 962.604 577.994C963.852 577.994 964.723 578.254 965.217 578.774C965.737 579.294 965.997 579.931 965.997 580.685L965.997 581.699C965.997 582.453 965.737 583.09 965.217 583.61C964.723 584.13 963.852 584.39 962.604 584.39Z" fill="white"/>
</svg>
