<svg width="1512" height="637" viewBox="0 0 1512 637" fill="none" xmlns="http://www.w3.org/2000/svg">
<path d="M627 142H521C482.34 142 451 110.66 451 72C451 33.3401 482.34 2 521 2H736H818H1017C1055.66 2 1087 33.3401 1087 72C1087 110.66 1055.66 142 1017 142H913C858.876 142 815 185.876 815 240C815 294.124 858.876 338 913 338H1244C1265.54 338 1283 355.461 1283 377C1283 398.539 1300.46 416 1322 416H1335C1357.09 416 1375 433.909 1375 456V469C1375 483.912 1387.09 496 1402 496C1416.91 496 1429 508.088 1429 523V565.5C1429 603.884 1397.88 635 1359.5 635H159.5C117.25 635 83 600.75 83 558.5V507C83 493.193 94.1929 482 108 482C121.807 482 133 470.807 133 457V449C133 430.775 147.775 416 166 416H180C201.539 416 219 398.539 219 377C219 355.461 236.461 338 258 338H627C681.124 338 725 294.124 725 240C725 185.876 681.124 142 627 142Z" fill="#242424" fill-opacity="0.7" stroke="white" stroke-width="3"/>
<path d="M303.492 434.468C301.776 434.468 300.281 434.156 299.007 433.532C297.759 432.882 296.719 431.959 295.887 430.763C295.081 429.567 294.483 428.098 294.093 426.356C293.703 424.614 293.508 422.625 293.508 420.389C293.508 418.179 293.703 416.203 294.093 414.461C294.483 412.693 295.081 411.211 295.887 410.015C296.719 408.819 297.759 407.909 299.007 407.285C300.281 406.635 301.776 406.31 303.492 406.31C305.208 406.31 306.69 406.635 307.938 407.285C309.212 407.909 310.252 408.819 311.058 410.015C311.89 411.211 312.501 412.693 312.891 414.461C313.281 416.203 313.476 418.179 313.476 420.389C313.476 422.625 313.281 424.614 312.891 426.356C312.501 428.098 311.89 429.567 311.058 430.763C310.252 431.959 309.212 432.882 307.938 433.532C306.69 434.156 305.208 434.468 303.492 434.468ZM303.492 430.841C305.442 430.841 306.82 430.113 307.626 428.657C308.432 427.175 308.835 425.173 308.835 422.651L308.835 418.088C308.835 415.592 308.432 413.616 307.626 412.16C306.82 410.678 305.442 409.937 303.492 409.937C301.542 409.937 300.164 410.678 299.358 412.16C298.552 413.616 298.149 415.592 298.149 418.088L298.149 422.69C298.149 425.186 298.552 427.175 299.358 428.657C300.164 430.113 301.542 430.841 303.492 430.841ZM329.373 434.468C327.865 434.468 326.513 434.221 325.317 433.727C324.147 433.233 323.146 432.531 322.314 431.621C321.508 430.711 320.884 429.606 320.442 428.306C320.026 427.006 319.818 425.55 319.818 423.938C319.818 422.326 320.026 420.87 320.442 419.57C320.884 418.27 321.508 417.165 322.314 416.255C323.146 415.345 324.147 414.643 325.317 414.149C326.513 413.655 327.852 413.408 329.334 413.408C331.414 413.408 333.078 413.85 334.326 414.734C335.6 415.618 336.549 416.762 337.173 418.166L333.858 419.96C333.494 419.024 332.935 418.283 332.181 417.737C331.453 417.191 330.504 416.918 329.334 416.918C327.722 416.918 326.474 417.412 325.59 418.4C324.706 419.362 324.264 420.649 324.264 422.261L324.264 425.615C324.264 427.201 324.706 428.488 325.59 429.476C326.474 430.464 327.748 430.958 329.412 430.958C330.66 430.958 331.674 430.672 332.454 430.1C333.26 429.528 333.897 428.748 334.365 427.76L337.485 429.671C336.835 431.075 335.847 432.232 334.521 433.142C333.195 434.026 331.479 434.468 329.373 434.468ZM351.626 417.308L344.567 417.308L344.567 413.876L362.975 413.876L362.975 417.308L355.877 417.308L355.877 434L351.626 434L351.626 417.308ZM370.292 413.876L374.543 413.876L374.543 417.308L374.777 417.308C375.375 416.086 376.168 415.137 377.156 414.461C378.144 413.759 379.379 413.408 380.861 413.408C383.227 413.408 385.112 414.292 386.516 416.06C387.92 417.828 388.622 420.454 388.622 423.938C388.622 427.422 387.92 430.048 386.516 431.816C385.112 433.584 383.227 434.468 380.861 434.468C379.379 434.468 378.144 434.13 377.156 433.454C376.168 432.752 375.375 431.79 374.777 430.568L374.543 430.568L374.543 441.8L370.292 441.8L370.292 413.876ZM379.106 430.997C380.718 430.997 381.953 430.503 382.811 429.515C383.695 428.527 384.137 427.214 384.137 425.576L384.137 422.3C384.137 420.662 383.695 419.349 382.811 418.361C381.953 417.373 380.718 416.879 379.106 416.879C378.482 416.879 377.897 416.957 377.351 417.113C376.805 417.269 376.324 417.503 375.908 417.815C375.492 418.127 375.154 418.517 374.894 418.985C374.66 419.427 374.543 419.96 374.543 420.584L374.543 427.292C374.543 427.916 374.66 428.462 374.894 428.93C375.154 429.372 375.492 429.749 375.908 430.061C376.324 430.373 376.805 430.607 377.351 430.763C377.897 430.919 378.482 430.997 379.106 430.997ZM394.067 413.876L397.928 413.876L397.928 420.506L400.775 420.506C402.829 420.506 404.48 421.091 405.728 422.261C407.002 423.431 407.639 425.095 407.639 427.253C407.639 429.411 407.002 431.075 405.728 432.245C404.48 433.415 402.829 434 400.775 434L394.067 434L394.067 413.876ZM400.502 430.802C401.49 430.802 402.257 430.581 402.803 430.139C403.375 429.671 403.661 428.943 403.661 427.955L403.661 426.551C403.661 425.563 403.375 424.848 402.803 424.406C402.257 423.938 401.49 423.704 400.502 423.704L397.928 423.704L397.928 430.802L400.502 430.802ZM410.174 413.876L414.035 413.876L414.035 434L410.174 434L410.174 413.876ZM429.62 434.468C428.086 434.468 426.708 434.221 425.486 433.727C424.264 433.233 423.237 432.531 422.405 431.621C421.573 430.711 420.936 429.619 420.494 428.345C420.052 427.045 419.831 425.589 419.831 423.977C419.831 422.365 420.052 420.909 420.494 419.609C420.962 418.309 421.599 417.204 422.405 416.294C423.237 415.358 424.238 414.643 425.408 414.149C426.578 413.655 427.878 413.408 429.308 413.408C430.712 413.408 431.986 413.655 433.13 414.149C434.274 414.617 435.249 415.293 436.055 416.177C436.861 417.061 437.472 418.114 437.888 419.336C438.33 420.558 438.551 421.91 438.551 423.392L438.551 424.991L424.121 424.991L424.121 425.654C424.121 427.24 424.615 428.54 425.603 429.554C426.591 430.542 427.956 431.036 429.698 431.036C430.998 431.036 432.103 430.763 433.013 430.217C433.949 429.645 434.703 428.891 435.275 427.955L437.927 430.295C437.251 431.465 436.211 432.453 434.807 433.259C433.429 434.065 431.7 434.468 429.62 434.468ZM429.308 416.645C428.554 416.645 427.852 416.775 427.202 417.035C426.578 417.295 426.032 417.672 425.564 418.166C425.122 418.634 424.771 419.193 424.511 419.843C424.251 420.493 424.121 421.208 424.121 421.988L424.121 422.261L434.222 422.261L434.222 421.871C434.222 420.285 433.767 419.024 432.857 418.088C431.973 417.126 430.79 416.645 429.308 416.645ZM471.358 413.876L475.609 413.876L475.609 421.988L479.236 421.988L484.072 413.876L488.635 413.876L484.15 421.208C483.708 421.962 483.279 422.495 482.863 422.807C482.447 423.119 481.966 423.34 481.42 423.47L481.42 423.665C482.044 423.795 482.564 424.029 482.98 424.367C483.396 424.679 483.825 425.225 484.267 426.005L486.802 430.568L488.986 430.568L488.986 434L486.49 434C485.632 434 484.891 433.805 484.267 433.415C483.669 432.999 483.11 432.336 482.59 431.426L479.236 425.42L475.609 425.42L475.609 434L471.358 434L471.358 413.876ZM504.61 434.468C503.128 434.468 501.789 434.221 500.593 433.727C499.423 433.233 498.422 432.531 497.59 431.621C496.784 430.711 496.16 429.606 495.718 428.306C495.276 427.006 495.055 425.55 495.055 423.938C495.055 422.326 495.276 420.87 495.718 419.57C496.16 418.27 496.784 417.165 497.59 416.255C498.422 415.345 499.423 414.643 500.593 414.149C501.789 413.655 503.128 413.408 504.61 413.408C506.092 413.408 507.418 413.655 508.588 414.149C509.784 414.643 510.785 415.345 511.591 416.255C512.423 417.165 513.06 418.27 513.502 419.57C513.944 420.87 514.165 422.326 514.165 423.938C514.165 425.55 513.944 427.006 513.502 428.306C513.06 429.606 512.423 430.711 511.591 431.621C510.785 432.531 509.784 433.233 508.588 433.727C507.418 434.221 506.092 434.468 504.61 434.468ZM504.61 431.114C506.17 431.114 507.405 430.646 508.315 429.71C509.251 428.748 509.719 427.331 509.719 425.459L509.719 422.417C509.719 420.545 509.251 419.141 508.315 418.205C507.405 417.243 506.17 416.762 504.61 416.762C503.05 416.762 501.802 417.243 500.866 418.205C499.956 419.141 499.501 420.545 499.501 422.417L499.501 425.459C499.501 427.331 499.956 428.748 500.866 429.71C501.802 430.646 503.05 431.114 504.61 431.114ZM518.986 430.568L521.599 430.568C521.937 430.126 522.236 429.619 522.496 429.047C522.782 428.449 523.003 427.734 523.159 426.902C523.341 426.07 523.471 425.108 523.549 424.016C523.653 422.924 523.705 421.65 523.705 420.194L523.705 413.876L537.94 413.876L537.94 434L533.689 434L533.689 417.308L527.683 417.308L527.683 420.272C527.683 423.678 527.436 426.343 526.942 428.267C526.448 430.191 525.772 431.595 524.914 432.479C524.316 433.103 523.627 433.519 522.847 433.727C522.067 433.909 521.248 434 520.39 434L518.986 434L518.986 430.568ZM547.09 413.876L551.341 413.876L551.341 420.506L557.074 420.506C559.154 420.506 560.818 421.091 562.066 422.261C563.314 423.431 563.938 425.095 563.938 427.253C563.938 429.411 563.314 431.075 562.066 432.245C560.818 433.415 559.154 434 557.074 434L547.09 434L547.09 413.876ZM556.333 430.685C557.321 430.685 558.101 430.451 558.673 429.983C559.271 429.515 559.57 428.826 559.57 427.916L559.57 426.59C559.57 425.68 559.271 424.991 558.673 424.523C558.101 424.055 557.321 423.821 556.333 423.821L551.341 423.821L551.341 430.685L556.333 430.685ZM586.971 434L571.137 434L571.137 413.876L575.388 413.876L575.388 430.568L583.305 430.568L583.305 413.876L587.556 413.876L587.556 430.568L590.793 430.568L590.793 439.46L586.971 439.46L586.971 434ZM612.657 434C611.435 434 610.512 433.688 609.888 433.064C609.29 432.44 608.926 431.621 608.796 430.607L608.601 430.607C608.211 431.829 607.496 432.778 606.456 433.454C605.442 434.13 604.142 434.468 602.556 434.468C600.502 434.468 598.864 433.935 597.642 432.869C596.42 431.777 595.809 430.282 595.809 428.384C595.809 426.434 596.524 424.952 597.954 423.938C599.41 422.898 601.633 422.378 604.623 422.378L608.484 422.378L608.484 420.818C608.484 418.088 607.041 416.723 604.155 416.723C602.855 416.723 601.802 416.983 600.996 417.503C600.19 417.997 599.514 418.66 598.968 419.492L596.433 417.425C597.005 416.333 597.967 415.397 599.319 414.617C600.671 413.811 602.413 413.408 604.545 413.408C607.093 413.408 609.095 414.019 610.551 415.241C612.007 416.463 612.735 418.231 612.735 420.545L612.735 430.646L615.27 430.646L615.27 434L612.657 434ZM603.765 431.348C605.143 431.348 606.274 431.036 607.158 430.412C608.042 429.788 608.484 428.982 608.484 427.994L608.484 425.069L604.701 425.069C601.633 425.069 600.099 425.992 600.099 427.838L600.099 428.618C600.099 429.528 600.424 430.217 601.074 430.685C601.724 431.127 602.621 431.348 603.765 431.348ZM658.842 434.468C657.672 434.468 656.658 434.286 655.8 433.922C654.968 433.532 654.266 432.869 653.694 431.933C653.148 430.997 652.719 429.723 652.407 428.111C652.121 426.499 651.952 424.458 651.9 421.988L649.248 421.988L649.248 434L645.27 434L645.27 406.778L649.248 406.778L649.248 418.439L651.9 418.439C651.978 416.047 652.16 414.071 652.446 412.511C652.758 410.951 653.2 409.716 653.772 408.806C654.344 407.87 655.046 407.22 655.878 406.856C656.71 406.492 657.698 406.31 658.842 406.31C660.064 406.31 661.104 406.518 661.962 406.934C662.846 407.35 663.574 408.091 664.146 409.157C664.718 410.197 665.134 411.627 665.394 413.447C665.654 415.267 665.784 417.581 665.784 420.389C665.784 423.197 665.654 425.511 665.394 427.331C665.134 429.151 664.718 430.594 664.146 431.66C663.574 432.7 662.846 433.428 661.962 433.844C661.104 434.26 660.064 434.468 658.842 434.468ZM658.842 430.958C659.31 430.958 659.713 430.88 660.051 430.724C660.415 430.542 660.714 430.217 660.948 429.749C661.182 429.281 661.351 428.618 661.455 427.76C661.585 426.902 661.65 425.784 661.65 424.406L661.65 416.372C661.65 414.994 661.585 413.876 661.455 413.018C661.351 412.16 661.182 411.497 660.948 411.029C660.714 410.561 660.415 410.249 660.051 410.093C659.713 409.911 659.31 409.82 658.842 409.82C658.374 409.82 657.958 409.911 657.594 410.093C657.256 410.249 656.97 410.561 656.736 411.029C656.502 411.497 656.32 412.16 656.19 413.018C656.086 413.876 656.034 414.994 656.034 416.372L656.034 424.406C656.034 425.784 656.086 426.902 656.19 427.76C656.32 428.618 656.502 429.281 656.736 429.749C656.97 430.217 657.256 430.542 657.594 430.724C657.958 430.88 658.374 430.958 658.842 430.958ZM672.203 413.876L688.973 413.876L688.973 434L684.722 434L684.722 417.308L676.454 417.308L676.454 434L672.203 434L672.203 413.876ZM697.265 413.876L701.477 413.876L701.477 422.534L701.087 427.994L701.282 427.994L710.174 413.876L714.191 413.876L714.191 434L709.979 434L709.979 425.342L710.369 419.882L710.174 419.882L701.282 434L697.265 434L697.265 413.876ZM728.723 417.308L721.664 417.308L721.664 413.876L740.072 413.876L740.072 417.308L732.974 417.308L732.974 434L728.723 434L728.723 417.308ZM756.437 434.468C754.903 434.468 753.525 434.221 752.303 433.727C751.081 433.233 750.054 432.531 749.222 431.621C748.39 430.711 747.753 429.619 747.311 428.345C746.869 427.045 746.648 425.589 746.648 423.977C746.648 422.365 746.869 420.909 747.311 419.609C747.779 418.309 748.416 417.204 749.222 416.294C750.054 415.358 751.055 414.643 752.225 414.149C753.395 413.655 754.695 413.408 756.125 413.408C757.529 413.408 758.803 413.655 759.947 414.149C761.091 414.617 762.066 415.293 762.872 416.177C763.678 417.061 764.289 418.114 764.705 419.336C765.147 420.558 765.368 421.91 765.368 423.392L765.368 424.991L750.938 424.991L750.938 425.654C750.938 427.24 751.432 428.54 752.42 429.554C753.408 430.542 754.773 431.036 756.515 431.036C757.815 431.036 758.92 430.763 759.83 430.217C760.766 429.645 761.52 428.891 762.092 427.955L764.744 430.295C764.068 431.465 763.028 432.453 761.624 433.259C760.246 434.065 758.517 434.468 756.437 434.468ZM756.125 416.645C755.371 416.645 754.669 416.775 754.019 417.035C753.395 417.295 752.849 417.672 752.381 418.166C751.939 418.634 751.588 419.193 751.328 419.843C751.068 420.493 750.938 421.208 750.938 421.988L750.938 422.261L761.039 422.261L761.039 421.871C761.039 420.285 760.584 419.024 759.674 418.088C758.79 417.126 757.607 416.645 756.125 416.645ZM772.528 413.876L776.779 413.876L776.779 417.308L777.013 417.308C777.611 416.086 778.404 415.137 779.392 414.461C780.38 413.759 781.615 413.408 783.097 413.408C785.463 413.408 787.348 414.292 788.752 416.06C790.156 417.828 790.858 420.454 790.858 423.938C790.858 427.422 790.156 430.048 788.752 431.816C787.348 433.584 785.463 434.468 783.097 434.468C781.615 434.468 780.38 434.13 779.392 433.454C778.404 432.752 777.611 431.79 777.013 430.568L776.779 430.568L776.779 441.8L772.528 441.8L772.528 413.876ZM781.342 430.997C782.954 430.997 784.189 430.503 785.047 429.515C785.931 428.527 786.373 427.214 786.373 425.576L786.373 422.3C786.373 420.662 785.931 419.349 785.047 418.361C784.189 417.373 782.954 416.879 781.342 416.879C780.718 416.879 780.133 416.957 779.587 417.113C779.041 417.269 778.56 417.503 778.144 417.815C777.728 418.127 777.39 418.517 777.13 418.985C776.896 419.427 776.779 419.96 776.779 420.584L776.779 427.292C776.779 427.916 776.896 428.462 777.13 428.93C777.39 429.372 777.728 429.749 778.144 430.061C778.56 430.373 779.041 430.607 779.587 430.763C780.133 430.919 780.718 430.997 781.342 430.997ZM813.775 434C812.553 434 811.63 433.688 811.006 433.064C810.408 432.44 810.044 431.621 809.914 430.607L809.719 430.607C809.329 431.829 808.614 432.778 807.574 433.454C806.56 434.13 805.26 434.468 803.674 434.468C801.62 434.468 799.982 433.935 798.76 432.869C797.538 431.777 796.927 430.282 796.927 428.384C796.927 426.434 797.642 424.952 799.072 423.938C800.528 422.898 802.751 422.378 805.741 422.378L809.602 422.378L809.602 420.818C809.602 418.088 808.159 416.723 805.273 416.723C803.973 416.723 802.92 416.983 802.114 417.503C801.308 417.997 800.632 418.66 800.086 419.492L797.551 417.425C798.123 416.333 799.085 415.397 800.437 414.617C801.789 413.811 803.531 413.408 805.663 413.408C808.211 413.408 810.213 414.019 811.669 415.241C813.125 416.463 813.853 418.231 813.853 420.545L813.853 430.646L816.388 430.646L816.388 434L813.775 434ZM804.883 431.348C806.261 431.348 807.392 431.036 808.276 430.412C809.16 429.788 809.602 428.982 809.602 427.994L809.602 425.069L805.819 425.069C802.751 425.069 801.217 425.992 801.217 427.838L801.217 428.618C801.217 429.528 801.542 430.217 802.192 430.685C802.842 431.127 803.739 431.348 804.883 431.348ZM856.567 434.39C855.319 434.39 854.435 434.13 853.915 433.61C853.421 433.09 853.174 432.453 853.174 431.699L853.174 430.685C853.174 429.931 853.421 429.294 853.915 428.774C854.435 428.254 855.319 427.994 856.567 427.994C857.815 427.994 858.686 428.254 859.18 428.774C859.7 429.294 859.96 429.931 859.96 430.685L859.96 431.699C859.96 432.453 859.7 433.09 859.18 433.61C858.686 434.13 857.815 434.39 856.567 434.39ZM881.706 434.39C880.458 434.39 879.574 434.13 879.054 433.61C878.56 433.09 878.313 432.453 878.313 431.699L878.313 430.685C878.313 429.931 878.56 429.294 879.054 428.774C879.574 428.254 880.458 427.994 881.706 427.994C882.954 427.994 883.825 428.254 884.319 428.774C884.839 429.294 885.099 429.931 885.099 430.685L885.099 431.699C885.099 432.453 884.839 433.09 884.319 433.61C883.825 434.13 882.954 434.39 881.706 434.39ZM906.846 434.39C905.598 434.39 904.714 434.13 904.194 433.61C903.7 433.09 903.453 432.453 903.453 431.699L903.453 430.685C903.453 429.931 903.7 429.294 904.194 428.774C904.714 428.254 905.598 427.994 906.846 427.994C908.094 427.994 908.965 428.254 909.459 428.774C909.979 429.294 910.239 429.931 910.239 430.685L910.239 431.699C910.239 432.453 909.979 433.09 909.459 433.61C908.965 434.13 908.094 434.39 906.846 434.39ZM931.986 434.39C930.738 434.39 929.854 434.13 929.334 433.61C928.84 433.09 928.593 432.453 928.593 431.699L928.593 430.685C928.593 429.931 928.84 429.294 929.334 428.774C929.854 428.254 930.738 427.994 931.986 427.994C933.234 427.994 934.105 428.254 934.599 428.774C935.119 429.294 935.379 429.931 935.379 430.685L935.379 431.699C935.379 432.453 935.119 433.09 934.599 433.61C934.105 434.13 933.234 434.39 931.986 434.39ZM957.126 434.39C955.878 434.39 954.994 434.13 954.474 433.61C953.98 433.09 953.733 432.453 953.733 431.699L953.733 430.685C953.733 429.931 953.98 429.294 954.474 428.774C954.994 428.254 955.878 427.994 957.126 427.994C958.374 427.994 959.245 428.254 959.739 428.774C960.259 429.294 960.519 429.931 960.519 430.685L960.519 431.699C960.519 432.453 960.259 433.09 959.739 433.61C959.245 434.13 958.374 434.39 957.126 434.39ZM982.266 434.39C981.018 434.39 980.134 434.13 979.614 433.61C979.12 433.09 978.873 432.453 978.873 431.699L978.873 430.685C978.873 429.931 979.12 429.294 979.614 428.774C980.134 428.254 981.018 427.994 982.266 427.994C983.514 427.994 984.385 428.254 984.879 428.774C985.399 429.294 985.659 429.931 985.659 430.685L985.659 431.699C985.659 432.453 985.399 433.09 984.879 433.61C984.385 434.13 983.514 434.39 982.266 434.39ZM1007.41 434.39C1006.16 434.39 1005.27 434.13 1004.75 433.61C1004.26 433.09 1004.01 432.453 1004.01 431.699L1004.01 430.685C1004.01 429.931 1004.26 429.294 1004.75 428.774C1005.27 428.254 1006.16 427.994 1007.41 427.994C1008.65 427.994 1009.52 428.254 1010.02 428.774C1010.54 429.294 1010.8 429.931 1010.8 430.685L1010.8 431.699C1010.8 432.453 1010.54 433.09 1010.02 433.61C1009.52 434.13 1008.65 434.39 1007.41 434.39ZM1032.55 434.39C1031.3 434.39 1030.41 434.13 1029.89 433.61C1029.4 433.09 1029.15 432.453 1029.15 431.699L1029.15 430.685C1029.15 429.931 1029.4 429.294 1029.89 428.774C1030.41 428.254 1031.3 427.994 1032.55 427.994C1033.79 427.994 1034.66 428.254 1035.16 428.774C1035.68 429.294 1035.94 429.931 1035.94 430.685L1035.94 431.699C1035.94 432.453 1035.68 433.09 1035.16 433.61C1034.66 434.13 1033.79 434.39 1032.55 434.39ZM1057.68 434.39C1056.44 434.39 1055.55 434.13 1055.03 433.61C1054.54 433.09 1054.29 432.453 1054.29 431.699L1054.29 430.685C1054.29 429.931 1054.54 429.294 1055.03 428.774C1055.55 428.254 1056.44 427.994 1057.68 427.994C1058.93 427.994 1059.8 428.254 1060.3 428.774C1060.82 429.294 1061.08 429.931 1061.08 430.685L1061.08 431.699C1061.08 432.453 1060.82 433.09 1060.3 433.61C1059.8 434.13 1058.93 434.39 1057.68 434.39ZM1082.82 434.39C1081.58 434.39 1080.69 434.13 1080.17 433.61C1079.68 433.09 1079.43 432.453 1079.43 431.699L1079.43 430.685C1079.43 429.931 1079.68 429.294 1080.17 428.774C1080.69 428.254 1081.58 427.994 1082.82 427.994C1084.07 427.994 1084.94 428.254 1085.44 428.774C1085.96 429.294 1086.22 429.931 1086.22 430.685L1086.22 431.699C1086.22 432.453 1085.96 433.09 1085.44 433.61C1084.94 434.13 1084.07 434.39 1082.82 434.39ZM1142.66 434L1123.86 434L1123.86 429.827L1132.75 422.066C1134.16 420.818 1135.24 419.635 1135.99 418.517C1136.77 417.399 1137.16 416.216 1137.16 414.968L1137.16 414.539C1137.16 413.109 1136.77 412.017 1135.99 411.263C1135.21 410.483 1134.08 410.093 1132.6 410.093C1131.09 410.093 1129.92 410.496 1129.09 411.302C1128.28 412.108 1127.7 413.135 1127.33 414.383L1123.51 412.94C1123.77 412.082 1124.15 411.263 1124.64 410.483C1125.14 409.677 1125.76 408.962 1126.51 408.338C1127.29 407.714 1128.2 407.22 1129.24 406.856C1130.31 406.492 1131.53 406.31 1132.91 406.31C1134.31 406.31 1135.56 406.518 1136.65 406.934C1137.77 407.324 1138.71 407.87 1139.46 408.572C1140.22 409.274 1140.79 410.119 1141.18 411.107C1141.57 412.069 1141.76 413.135 1141.76 414.305C1141.76 415.397 1141.59 416.411 1141.26 417.347C1140.94 418.257 1140.49 419.141 1139.89 419.999C1139.32 420.831 1138.63 421.637 1137.82 422.417C1137.02 423.197 1136.13 423.977 1135.17 424.757L1128.58 430.295L1142.66 430.295L1142.66 434ZM1158.24 434.468C1156.63 434.468 1155.21 434.273 1153.99 433.883C1152.77 433.467 1151.74 432.908 1150.91 432.206C1150.08 431.504 1149.44 430.672 1149 429.71C1148.58 428.748 1148.38 427.695 1148.38 426.551C1148.38 424.731 1148.88 423.275 1149.9 422.183C1150.91 421.091 1152.24 420.324 1153.88 419.882L1153.88 419.57C1152.47 419.076 1151.34 418.296 1150.48 417.23C1149.62 416.164 1149.2 414.851 1149.2 413.291C1149.2 411.185 1149.98 409.495 1151.54 408.221C1153.12 406.947 1155.36 406.31 1158.24 406.31C1161.13 406.31 1163.35 406.947 1164.91 408.221C1166.5 409.495 1167.29 411.185 1167.29 413.291C1167.29 414.851 1166.86 416.164 1166 417.23C1165.15 418.296 1164.02 419.076 1162.61 419.57L1162.61 419.882C1164.25 420.324 1165.58 421.091 1166.59 422.183C1167.6 423.275 1168.11 424.731 1168.11 426.551C1168.11 427.695 1167.89 428.748 1167.45 429.71C1167.03 430.672 1166.41 431.504 1165.58 432.206C1164.74 432.908 1163.72 433.467 1162.49 433.883C1161.27 434.273 1159.86 434.468 1158.24 434.468ZM1158.24 430.997C1159.96 430.997 1161.27 430.62 1162.18 429.866C1163.12 429.112 1163.59 428.046 1163.59 426.668L1163.59 425.849C1163.59 424.471 1163.12 423.405 1162.18 422.651C1161.27 421.897 1159.96 421.52 1158.24 421.52C1156.53 421.52 1155.2 421.897 1154.27 422.651C1153.36 423.405 1152.9 424.471 1152.9 425.849L1152.9 426.668C1152.9 428.046 1153.36 429.112 1154.27 429.866C1155.2 430.62 1156.53 430.997 1158.24 430.997ZM1158.24 418.166C1159.8 418.166 1160.99 417.828 1161.79 417.152C1162.62 416.45 1163.04 415.475 1163.04 414.227L1163.04 413.72C1163.04 412.472 1162.62 411.51 1161.79 410.834C1160.99 410.132 1159.8 409.781 1158.24 409.781C1156.68 409.781 1155.49 410.132 1154.66 410.834C1153.85 411.51 1153.45 412.472 1153.45 413.72L1153.45 414.227C1153.45 415.475 1153.85 416.45 1154.66 417.152C1155.49 417.828 1156.68 418.166 1158.24 418.166ZM1193.02 416.918C1193.02 418.894 1192.72 420.753 1192.12 422.495C1191.52 424.237 1190.74 425.836 1189.78 427.292C1188.82 428.748 1187.75 430.048 1186.58 431.192C1185.41 432.336 1184.25 433.272 1183.11 434L1177.26 434C1178.82 432.882 1180.22 431.803 1181.47 430.763C1182.72 429.723 1183.8 428.657 1184.71 427.565C1185.65 426.473 1186.43 425.329 1187.05 424.133C1187.67 422.911 1188.15 421.559 1188.49 420.077L1188.22 419.999C1187.93 420.545 1187.6 421.065 1187.21 421.559C1186.82 422.027 1186.36 422.443 1185.84 422.807C1185.32 423.171 1184.72 423.457 1184.05 423.665C1183.37 423.873 1182.6 423.977 1181.75 423.977C1180.58 423.977 1179.5 423.782 1178.51 423.392C1177.52 423.002 1176.66 422.443 1175.93 421.715C1175.21 420.961 1174.63 420.064 1174.22 419.024C1173.83 417.984 1173.63 416.814 1173.63 415.514C1173.63 414.162 1173.85 412.927 1174.3 411.809C1174.76 410.665 1175.41 409.69 1176.25 408.884C1177.1 408.078 1178.13 407.454 1179.33 407.012C1180.52 406.544 1181.85 406.31 1183.31 406.31C1184.81 406.31 1186.17 406.557 1187.36 407.051C1188.58 407.545 1189.61 408.26 1190.44 409.196C1191.27 410.106 1191.91 411.211 1192.35 412.511C1192.8 413.811 1193.02 415.28 1193.02 416.918ZM1183.34 420.506C1184.98 420.506 1186.26 420.064 1187.17 419.18C1188.08 418.27 1188.53 416.996 1188.53 415.358L1188.53 414.968C1188.53 413.33 1188.08 412.069 1187.17 411.185C1186.26 410.275 1184.98 409.82 1183.34 409.82C1181.68 409.82 1180.39 410.275 1179.48 411.185C1178.57 412.069 1178.12 413.33 1178.12 414.968L1178.12 415.358C1178.12 416.996 1178.57 418.27 1179.48 419.18C1180.39 420.064 1181.68 420.506 1183.34 420.506ZM1205.6 429.125L1205.6 434L1201.23 434L1201.23 429.125L1198.38 429.125L1198.38 425.771L1201.23 425.771L1201.23 422.846L1198.38 422.846L1198.38 419.492L1201.23 419.492L1201.23 406.778L1210.63 406.778C1213.23 406.778 1215.21 407.506 1216.56 408.962C1217.94 410.392 1218.62 412.355 1218.62 414.851C1218.62 417.373 1217.94 419.336 1216.56 420.74C1215.21 422.144 1213.23 422.846 1210.63 422.846L1205.6 422.846L1205.6 425.771L1214.1 425.771L1214.1 429.125L1205.6 429.125ZM1205.6 419.492L1210.01 419.492C1212.74 419.492 1214.1 418.27 1214.1 415.826L1214.1 413.915C1214.1 411.471 1212.74 410.249 1210.01 410.249L1205.6 410.249L1205.6 419.492ZM194.041 473.778L198.409 473.778L198.409 485.4L202.621 485.4L207.808 473.778L212.293 473.778L207.691 484.074C207.249 485.062 206.807 485.764 206.365 486.18C205.949 486.596 205.455 486.856 204.883 486.96L204.883 487.194C205.533 487.324 206.053 487.597 206.443 488.013C206.859 488.429 207.288 489.17 207.73 490.236L210.772 497.334L213.151 497.334L213.151 501L210.499 501C209.537 501 208.731 500.753 208.081 500.259C207.431 499.765 206.846 498.933 206.326 497.763L202.582 489.066L198.409 489.066L198.409 501L194.041 501L194.041 473.778ZM228.073 501.468C226.591 501.468 225.252 501.221 224.056 500.727C222.886 500.233 221.885 499.531 221.053 498.621C220.247 497.711 219.623 496.606 219.181 495.306C218.739 494.006 218.518 492.55 218.518 490.938C218.518 489.326 218.739 487.87 219.181 486.57C219.623 485.27 220.247 484.165 221.053 483.255C221.885 482.345 222.886 481.643 224.056 481.149C225.252 480.655 226.591 480.408 228.073 480.408C229.555 480.408 230.881 480.655 232.051 481.149C233.247 481.643 234.248 482.345 235.054 483.255C235.886 484.165 236.523 485.27 236.965 486.57C237.407 487.87 237.628 489.326 237.628 490.938C237.628 492.55 237.407 494.006 236.965 495.306C236.523 496.606 235.886 497.711 235.054 498.621C234.248 499.531 233.247 500.233 232.051 500.727C230.881 501.221 229.555 501.468 228.073 501.468ZM228.073 498.114C229.633 498.114 230.868 497.646 231.778 496.71C232.714 495.748 233.182 494.331 233.182 492.459L233.182 489.417C233.182 487.545 232.714 486.141 231.778 485.205C230.868 484.243 229.633 483.762 228.073 483.762C226.513 483.762 225.265 484.243 224.329 485.205C223.419 486.141 222.964 487.545 222.964 489.417L222.964 492.459C222.964 494.331 223.419 495.748 224.329 496.71C225.265 497.646 226.513 498.114 228.073 498.114ZM244.827 480.876L261.597 480.876L261.597 501L257.346 501L257.346 484.308L249.078 484.308L249.078 501L244.827 501L244.827 480.876ZM282.057 492.108L281.862 492.108C281.186 492.94 280.38 493.577 279.444 494.019C278.534 494.435 277.377 494.643 275.973 494.643C271.579 494.643 269.382 492.42 269.382 487.974L269.382 480.876L273.633 480.876L273.633 487.701C273.633 488.871 273.932 489.729 274.53 490.275C275.154 490.795 276.194 491.055 277.65 491.055C278.976 491.055 280.042 490.86 280.848 490.47C281.654 490.054 282.057 489.456 282.057 488.676L282.057 480.876L286.308 480.876L286.308 501L282.057 501L282.057 492.108ZM303.921 501.468C302.387 501.468 301.009 501.221 299.787 500.727C298.565 500.233 297.538 499.531 296.706 498.621C295.874 497.711 295.237 496.619 294.795 495.345C294.353 494.045 294.132 492.589 294.132 490.977C294.132 489.365 294.353 487.909 294.795 486.609C295.263 485.309 295.9 484.204 296.706 483.294C297.538 482.358 298.539 481.643 299.709 481.149C300.879 480.655 302.179 480.408 303.609 480.408C305.013 480.408 306.287 480.655 307.431 481.149C308.575 481.617 309.55 482.293 310.356 483.177C311.162 484.061 311.773 485.114 312.189 486.336C312.631 487.558 312.852 488.91 312.852 490.392L312.852 491.991L298.422 491.991L298.422 492.654C298.422 494.24 298.916 495.54 299.904 496.554C300.892 497.542 302.257 498.036 303.999 498.036C305.299 498.036 306.404 497.763 307.314 497.217C308.25 496.645 309.004 495.891 309.576 494.955L312.228 497.295C311.552 498.465 310.512 499.453 309.108 500.259C307.73 501.065 306.001 501.468 303.921 501.468ZM303.609 483.645C302.855 483.645 302.153 483.775 301.503 484.035C300.879 484.295 300.333 484.672 299.865 485.166C299.423 485.634 299.072 486.193 298.812 486.843C298.552 487.493 298.422 488.208 298.422 488.988L298.422 489.261L308.523 489.261L308.523 488.871C308.523 487.285 308.068 486.024 307.158 485.088C306.274 484.126 305.091 483.645 303.609 483.645ZM320.208 480.876L324.459 480.876L324.459 488.988L332.805 488.988L332.805 480.876L337.056 480.876L337.056 501L332.805 501L332.805 492.42L324.459 492.42L324.459 501L320.208 501L320.208 480.876ZM343.787 480.876L347.648 480.876L347.648 487.506L350.495 487.506C352.549 487.506 354.2 488.091 355.448 489.261C356.722 490.431 357.359 492.095 357.359 494.253C357.359 496.411 356.722 498.075 355.448 499.245C354.2 500.415 352.549 501 350.495 501L343.787 501L343.787 480.876ZM350.222 497.802C351.21 497.802 351.977 497.581 352.523 497.139C353.095 496.671 353.381 495.943 353.381 494.955L353.381 493.551C353.381 492.563 353.095 491.848 352.523 491.406C351.977 490.938 351.21 490.704 350.222 490.704L347.648 490.704L347.648 497.802L350.222 497.802ZM359.894 480.876L363.755 480.876L363.755 501L359.894 501L359.894 480.876ZM379.34 501.468C377.806 501.468 376.428 501.221 375.206 500.727C373.984 500.233 372.957 499.531 372.125 498.621C371.293 497.711 370.656 496.619 370.214 495.345C369.772 494.045 369.551 492.589 369.551 490.977C369.551 489.365 369.772 487.909 370.214 486.609C370.682 485.309 371.319 484.204 372.125 483.294C372.957 482.358 373.958 481.643 375.128 481.149C376.298 480.655 377.598 480.408 379.028 480.408C380.432 480.408 381.706 480.655 382.85 481.149C383.994 481.617 384.969 482.293 385.775 483.177C386.581 484.061 387.192 485.114 387.608 486.336C388.05 487.558 388.271 488.91 388.271 490.392L388.271 491.991L373.841 491.991L373.841 492.654C373.841 494.24 374.335 495.54 375.323 496.554C376.311 497.542 377.676 498.036 379.418 498.036C380.718 498.036 381.823 497.763 382.733 497.217C383.669 496.645 384.423 495.891 384.995 494.955L387.647 497.295C386.971 498.465 385.931 499.453 384.527 500.259C383.149 501.065 381.42 501.468 379.34 501.468ZM379.028 483.645C378.274 483.645 377.572 483.775 376.922 484.035C376.298 484.295 375.752 484.672 375.284 485.166C374.842 485.634 374.491 486.193 374.231 486.843C373.971 487.493 373.841 488.208 373.841 488.988L373.841 489.261L383.942 489.261L383.942 488.871C383.942 487.285 383.487 486.024 382.577 485.088C381.693 484.126 380.51 483.645 379.028 483.645ZM429.932 501.468C428.424 501.468 427.072 501.221 425.876 500.727C424.706 500.233 423.705 499.531 422.873 498.621C422.067 497.711 421.443 496.606 421.001 495.306C420.585 494.006 420.377 492.55 420.377 490.938C420.377 489.326 420.585 487.87 421.001 486.57C421.443 485.27 422.067 484.165 422.873 483.255C423.705 482.345 424.706 481.643 425.876 481.149C427.072 480.655 428.411 480.408 429.893 480.408C431.973 480.408 433.637 480.85 434.885 481.734C436.159 482.618 437.108 483.762 437.732 485.166L434.417 486.96C434.053 486.024 433.494 485.283 432.74 484.737C432.012 484.191 431.063 483.918 429.893 483.918C428.281 483.918 427.033 484.412 426.149 485.4C425.265 486.362 424.823 487.649 424.823 489.261L424.823 492.615C424.823 494.201 425.265 495.488 426.149 496.476C427.033 497.464 428.307 497.958 429.971 497.958C431.219 497.958 432.233 497.672 433.013 497.1C433.819 496.528 434.456 495.748 434.924 494.76L438.044 496.671C437.394 498.075 436.406 499.232 435.08 500.142C433.754 501.026 432.038 501.468 429.932 501.468ZM461.818 501C460.596 501 459.673 500.688 459.049 500.064C458.451 499.44 458.087 498.621 457.957 497.607L457.762 497.607C457.372 498.829 456.657 499.778 455.617 500.454C454.603 501.13 453.303 501.468 451.717 501.468C449.663 501.468 448.025 500.935 446.803 499.869C445.581 498.777 444.97 497.282 444.97 495.384C444.97 493.434 445.685 491.952 447.115 490.938C448.571 489.898 450.794 489.378 453.784 489.378L457.645 489.378L457.645 487.818C457.645 485.088 456.202 483.723 453.316 483.723C452.016 483.723 450.963 483.983 450.157 484.503C449.351 484.997 448.675 485.66 448.129 486.492L445.594 484.425C446.166 483.333 447.128 482.397 448.48 481.617C449.832 480.811 451.574 480.408 453.706 480.408C456.254 480.408 458.256 481.019 459.712 482.241C461.168 483.463 461.896 485.231 461.896 487.545L461.896 497.646L464.431 497.646L464.431 501L461.818 501ZM452.926 498.348C454.304 498.348 455.435 498.036 456.319 497.412C457.203 496.788 457.645 495.982 457.645 494.994L457.645 492.069L453.862 492.069C450.794 492.069 449.26 492.992 449.26 494.838L449.26 495.618C449.26 496.528 449.585 497.217 450.235 497.685C450.885 498.127 451.782 498.348 452.926 498.348ZM470.851 480.876L475.102 480.876L475.102 484.308L475.336 484.308C475.934 483.086 476.727 482.137 477.715 481.461C478.703 480.759 479.938 480.408 481.42 480.408C483.786 480.408 485.671 481.292 487.075 483.06C488.479 484.828 489.181 487.454 489.181 490.938C489.181 494.422 488.479 497.048 487.075 498.816C485.671 500.584 483.786 501.468 481.42 501.468C479.938 501.468 478.703 501.13 477.715 500.454C476.727 499.752 475.934 498.79 475.336 497.568L475.102 497.568L475.102 508.8L470.851 508.8L470.851 480.876ZM479.665 497.997C481.277 497.997 482.512 497.503 483.37 496.515C484.254 495.527 484.696 494.214 484.696 492.576L484.696 489.3C484.696 487.662 484.254 486.349 483.37 485.361C482.512 484.373 481.277 483.879 479.665 483.879C479.041 483.879 478.456 483.957 477.91 484.113C477.364 484.269 476.883 484.503 476.467 484.815C476.051 485.127 475.713 485.517 475.453 485.985C475.219 486.427 475.102 486.96 475.102 487.584L475.102 494.292C475.102 494.916 475.219 495.462 475.453 495.93C475.713 496.372 476.051 496.749 476.467 497.061C476.883 497.373 477.364 497.607 477.91 497.763C478.456 497.919 479.041 497.997 479.665 497.997ZM493.573 497.568L495.874 497.568C496.628 496.372 497.226 494.929 497.668 493.239C498.11 491.523 498.331 489.495 498.331 487.155L498.331 480.876L512.059 480.876L512.059 497.568L515.296 497.568L515.296 506.46L511.474 506.46L511.474 501L497.395 501L497.395 506.46L493.573 506.46L493.573 497.568ZM507.886 497.568L507.886 484.308L502.309 484.308L502.309 487.311C502.309 489.599 502.127 491.575 501.763 493.239C501.425 494.877 500.918 496.32 500.242 497.568L507.886 497.568ZM530.179 501.468C528.645 501.468 527.267 501.221 526.045 500.727C524.823 500.233 523.796 499.531 522.964 498.621C522.132 497.711 521.495 496.619 521.053 495.345C520.611 494.045 520.39 492.589 520.39 490.977C520.39 489.365 520.611 487.909 521.053 486.609C521.521 485.309 522.158 484.204 522.964 483.294C523.796 482.358 524.797 481.643 525.967 481.149C527.137 480.655 528.437 480.408 529.867 480.408C531.271 480.408 532.545 480.655 533.689 481.149C534.833 481.617 535.808 482.293 536.614 483.177C537.42 484.061 538.031 485.114 538.447 486.336C538.889 487.558 539.11 488.91 539.11 490.392L539.11 491.991L524.68 491.991L524.68 492.654C524.68 494.24 525.174 495.54 526.162 496.554C527.15 497.542 528.515 498.036 530.257 498.036C531.557 498.036 532.662 497.763 533.572 497.217C534.508 496.645 535.262 495.891 535.834 494.955L538.486 497.295C537.81 498.465 536.77 499.453 535.366 500.259C533.988 501.065 532.259 501.468 530.179 501.468ZM529.867 483.645C529.113 483.645 528.411 483.775 527.761 484.035C527.137 484.295 526.591 484.672 526.123 485.166C525.681 485.634 525.33 486.193 525.07 486.843C524.81 487.493 524.68 488.208 524.68 488.988L524.68 489.261L534.781 489.261L534.781 488.871C534.781 487.285 534.326 486.024 533.416 485.088C532.532 484.126 531.349 483.645 529.867 483.645ZM544.125 497.568L546.738 497.568C547.076 497.126 547.375 496.619 547.635 496.047C547.921 495.449 548.142 494.734 548.298 493.902C548.48 493.07 548.61 492.108 548.688 491.016C548.792 489.924 548.844 488.65 548.844 487.194L548.845 480.876L563.08 480.876L563.08 501L558.828 501L558.829 484.308L552.823 484.308L552.822 487.272C552.822 490.678 552.575 493.343 552.081 495.267C551.587 497.191 550.911 498.595 550.053 499.479C549.455 500.103 548.766 500.519 547.986 500.727C547.206 500.909 546.387 501 545.529 501L544.125 501L544.125 497.568ZM572.229 480.876L576.48 480.876L576.48 487.506L582.213 487.506C584.293 487.506 585.957 488.091 587.205 489.261C588.453 490.431 589.077 492.095 589.077 494.253C589.077 496.411 588.453 498.075 587.205 499.245C585.957 500.415 584.293 501 582.213 501L572.229 501L572.229 480.876ZM581.472 497.685C582.46 497.685 583.24 497.451 583.812 496.983C584.41 496.515 584.709 495.826 584.709 494.916L584.709 493.59C584.709 492.68 584.41 491.991 583.812 491.523C583.24 491.055 582.46 490.821 581.472 490.821L576.48 490.821L576.48 497.685L581.472 497.685ZM597.057 480.876L601.308 480.876L601.308 488.988L604.935 488.988L609.771 480.876L614.334 480.876L609.849 488.208C609.407 488.962 608.978 489.495 608.562 489.807C608.146 490.119 607.665 490.34 607.119 490.47L607.119 490.665C607.743 490.795 608.263 491.029 608.679 491.367C609.095 491.679 609.524 492.225 609.966 493.005L612.501 497.568L614.685 497.568L614.685 501L612.189 501C611.331 501 610.59 500.805 609.966 500.415C609.368 499.999 608.809 499.336 608.289 498.426L604.935 492.42L601.308 492.42L601.308 501L597.057 501L597.057 480.876ZM621.846 480.876L626.058 480.876L626.058 489.534L625.668 494.994L625.863 494.994L634.755 480.876L638.772 480.876L638.772 501L634.56 501L634.56 492.342L634.95 486.882L634.755 486.882L625.863 501L621.846 501L621.846 480.876ZM672.125 480.876L676.337 480.876L676.337 489.534L675.947 494.994L676.142 494.994L685.034 480.876L689.051 480.876L689.051 501L684.839 501L684.839 492.342L685.229 486.882L685.034 486.882L676.142 501L672.125 501L672.125 480.876ZM705.182 501.468C702.998 501.468 701.178 501.13 699.722 500.454C698.266 499.778 697.109 498.842 696.251 497.646L698.981 495.228C699.657 496.164 700.476 496.879 701.438 497.373C702.426 497.841 703.661 498.075 705.143 498.075C706.703 498.075 707.86 497.815 708.614 497.295C709.368 496.775 709.745 496.099 709.745 495.267L709.745 494.877C709.745 494.045 709.485 493.408 708.965 492.966C708.445 492.524 707.652 492.303 706.586 492.303L701.477 492.303L701.477 489.183L706.157 489.183C707.249 489.183 708.042 488.975 708.536 488.559C709.056 488.117 709.316 487.506 709.316 486.726L709.316 486.336C709.316 485.582 708.991 484.971 708.341 484.503C707.691 484.035 706.612 483.801 705.104 483.801C703.7 483.801 702.543 484.035 701.633 484.503C700.723 484.945 699.93 485.595 699.254 486.453L696.641 484.347C697.603 483.099 698.76 482.137 700.112 481.461C701.49 480.759 703.271 480.408 705.455 480.408C708.159 480.408 710.213 480.915 711.617 481.929C713.021 482.917 713.723 484.23 713.723 485.868C713.723 487.064 713.372 488.039 712.67 488.793C711.994 489.547 711.045 490.067 709.823 490.353L709.823 490.509C711.149 490.717 712.189 491.237 712.943 492.069C713.723 492.875 714.113 493.941 714.113 495.267C714.113 497.139 713.333 498.647 711.773 499.791C710.213 500.909 708.016 501.468 705.182 501.468ZM747.896 480.876L752.147 480.876L752.147 488.988L755.774 488.988L760.61 480.876L765.173 480.876L760.688 488.208C760.246 488.962 759.817 489.495 759.401 489.807C758.985 490.119 758.504 490.34 757.958 490.47L757.958 490.665C758.582 490.795 759.102 491.029 759.518 491.367C759.934 491.679 760.363 492.225 760.805 493.005L763.34 497.568L765.524 497.568L765.524 501L763.028 501C762.17 501 761.429 500.805 760.805 500.415C760.207 499.999 759.648 499.336 759.128 498.426L755.774 492.42L752.147 492.42L752.147 501L747.896 501L747.896 480.876ZM788.635 501C787.413 501 786.49 500.688 785.866 500.064C785.268 499.44 784.904 498.621 784.774 497.607L784.579 497.607C784.189 498.829 783.474 499.778 782.434 500.454C781.42 501.13 780.12 501.468 778.534 501.468C776.48 501.468 774.842 500.935 773.62 499.869C772.398 498.777 771.787 497.282 771.787 495.384C771.787 493.434 772.502 491.952 773.932 490.938C775.388 489.898 777.611 489.378 780.601 489.378L784.462 489.378L784.462 487.818C784.462 485.088 783.019 483.723 780.133 483.723C778.833 483.723 777.78 483.983 776.974 484.503C776.168 484.997 775.492 485.66 774.946 486.492L772.411 484.425C772.983 483.333 773.945 482.397 775.297 481.617C776.649 480.811 778.391 480.408 780.523 480.408C783.071 480.408 785.073 481.019 786.529 482.241C787.985 483.463 788.713 485.231 788.713 487.545L788.713 497.646L791.248 497.646L791.248 501L788.635 501ZM779.743 498.348C781.121 498.348 782.252 498.036 783.136 497.412C784.02 496.788 784.462 495.982 784.462 494.994L784.462 492.069L780.679 492.069C777.611 492.069 776.077 492.992 776.077 494.838L776.077 495.618C776.077 496.528 776.402 497.217 777.052 497.685C777.702 498.127 778.599 498.348 779.743 498.348ZM797.902 480.876L814.672 480.876L814.672 501L810.421 501L810.421 484.308L802.153 484.308L802.153 501L797.902 501L797.902 480.876ZM829.282 484.308L822.223 484.308L822.223 480.876L840.631 480.876L840.631 484.308L833.533 484.308L833.533 501L829.282 501L829.282 484.308ZM856.567 501.468C855.085 501.468 853.746 501.221 852.55 500.727C851.38 500.233 850.379 499.531 849.547 498.621C848.741 497.711 848.117 496.606 847.675 495.306C847.233 494.006 847.012 492.55 847.012 490.938C847.012 489.326 847.233 487.87 847.675 486.57C848.117 485.27 848.741 484.165 849.547 483.255C850.379 482.345 851.38 481.643 852.55 481.149C853.746 480.655 855.085 480.408 856.567 480.408C858.049 480.408 859.375 480.655 860.545 481.149C861.741 481.643 862.742 482.345 863.548 483.255C864.38 484.165 865.017 485.27 865.459 486.57C865.901 487.87 866.122 489.326 866.122 490.938C866.122 492.55 865.901 494.006 865.459 495.306C865.017 496.606 864.38 497.711 863.548 498.621C862.742 499.531 861.741 500.233 860.545 500.727C859.375 501.221 858.049 501.468 856.567 501.468ZM856.567 498.114C858.127 498.114 859.362 497.646 860.272 496.71C861.208 495.748 861.676 494.331 861.676 492.459L861.676 489.417C861.676 487.545 861.208 486.141 860.272 485.205C859.362 484.243 858.127 483.762 856.567 483.762C855.007 483.762 853.759 484.243 852.823 485.205C851.913 486.141 851.458 487.545 851.458 489.417L851.458 492.459C851.458 494.331 851.913 495.748 852.823 496.71C853.759 497.646 855.007 498.114 856.567 498.114ZM873.282 480.876L877.533 480.876L877.533 488.988L885.879 488.988L885.879 480.876L890.13 480.876L890.13 501L885.879 501L885.879 492.42L877.533 492.42L877.533 501L873.282 501L873.282 480.876ZM914.334 501C913.112 501 912.189 500.688 911.565 500.064C910.967 499.44 910.603 498.621 910.473 497.607L910.278 497.607C909.888 498.829 909.173 499.778 908.133 500.454C907.119 501.13 905.819 501.468 904.233 501.468C902.179 501.468 900.541 500.935 899.319 499.869C898.097 498.777 897.486 497.282 897.486 495.384C897.486 493.434 898.201 491.952 899.631 490.938C901.087 489.898 903.31 489.378 906.3 489.378L910.161 489.378L910.161 487.818C910.161 485.088 908.718 483.723 905.832 483.723C904.532 483.723 903.479 483.983 902.673 484.503C901.867 484.997 901.191 485.66 900.645 486.492L898.11 484.425C898.682 483.333 899.644 482.397 900.996 481.617C902.348 480.811 904.09 480.408 906.222 480.408C908.77 480.408 910.772 481.019 912.228 482.241C913.684 483.463 914.412 485.231 914.412 487.545L914.412 497.646L916.947 497.646L916.947 501L914.334 501ZM905.442 498.348C906.82 498.348 907.951 498.036 908.835 497.412C909.719 496.788 910.161 495.982 910.161 494.994L910.161 492.069L906.378 492.069C903.31 492.069 901.776 492.992 901.776 494.838L901.776 495.618C901.776 496.528 902.101 497.217 902.751 497.685C903.401 498.127 904.298 498.348 905.442 498.348ZM957.126 501.39C955.878 501.39 954.994 501.13 954.474 500.61C953.98 500.09 953.733 499.453 953.733 498.699L953.733 497.685C953.733 496.931 953.98 496.294 954.474 495.774C954.994 495.254 955.878 494.994 957.126 494.994C958.374 494.994 959.245 495.254 959.739 495.774C960.259 496.294 960.519 496.931 960.519 497.685L960.519 498.699C960.519 499.453 960.259 500.09 959.739 500.61C959.245 501.13 958.374 501.39 957.126 501.39ZM982.266 501.39C981.018 501.39 980.134 501.13 979.614 500.61C979.12 500.09 978.873 499.453 978.873 498.699L978.873 497.685C978.873 496.931 979.12 496.294 979.614 495.774C980.134 495.254 981.018 494.994 982.266 494.994C983.514 494.994 984.385 495.254 984.879 495.774C985.399 496.294 985.659 496.931 985.659 497.685L985.659 498.699C985.659 499.453 985.399 500.09 984.879 500.61C984.385 501.13 983.514 501.39 982.266 501.39ZM1007.41 501.39C1006.16 501.39 1005.27 501.13 1004.75 500.61C1004.26 500.09 1004.01 499.453 1004.01 498.699L1004.01 497.685C1004.01 496.931 1004.26 496.294 1004.75 495.774C1005.27 495.254 1006.16 494.994 1007.41 494.994C1008.65 494.994 1009.52 495.254 1010.02 495.774C1010.54 496.294 1010.8 496.931 1010.8 497.685L1010.8 498.699C1010.8 499.453 1010.54 500.09 1010.02 500.61C1009.52 501.13 1008.65 501.39 1007.41 501.39ZM1032.55 501.39C1031.3 501.39 1030.41 501.13 1029.89 500.61C1029.4 500.09 1029.15 499.453 1029.15 498.699L1029.15 497.685C1029.15 496.931 1029.4 496.294 1029.89 495.774C1030.41 495.254 1031.3 494.994 1032.55 494.994C1033.79 494.994 1034.66 495.254 1035.16 495.774C1035.68 496.294 1035.94 496.931 1035.94 497.685L1035.94 498.699C1035.94 499.453 1035.68 500.09 1035.16 500.61C1034.66 501.13 1033.79 501.39 1032.55 501.39ZM1057.68 501.39C1056.44 501.39 1055.55 501.13 1055.03 500.61C1054.54 500.09 1054.29 499.453 1054.29 498.699L1054.29 497.685C1054.29 496.931 1054.54 496.294 1055.03 495.774C1055.55 495.254 1056.44 494.994 1057.68 494.994C1058.93 494.994 1059.8 495.254 1060.3 495.774C1060.82 496.294 1061.08 496.931 1061.08 497.685L1061.08 498.699C1061.08 499.453 1060.82 500.09 1060.3 500.61C1059.8 501.13 1058.93 501.39 1057.68 501.39ZM1082.82 501.39C1081.58 501.39 1080.69 501.13 1080.17 500.61C1079.68 500.09 1079.43 499.453 1079.43 498.699L1079.43 497.685C1079.43 496.931 1079.68 496.294 1080.17 495.774C1080.69 495.254 1081.58 494.994 1082.82 494.994C1084.07 494.994 1084.94 495.254 1085.44 495.774C1085.96 496.294 1086.22 496.931 1086.22 497.685L1086.22 498.699C1086.22 499.453 1085.96 500.09 1085.44 500.61C1084.94 501.13 1084.07 501.39 1082.82 501.39ZM1107.96 501.39C1106.72 501.39 1105.83 501.13 1105.31 500.61C1104.82 500.09 1104.57 499.453 1104.57 498.699L1104.57 497.685C1104.57 496.931 1104.82 496.294 1105.31 495.774C1105.83 495.254 1106.72 494.994 1107.96 494.994C1109.21 494.994 1110.08 495.254 1110.58 495.774C1111.1 496.294 1111.36 496.931 1111.36 497.685L1111.36 498.699C1111.36 499.453 1111.1 500.09 1110.58 500.61C1110.08 501.13 1109.21 501.39 1107.96 501.39ZM1133.1 501.39C1131.86 501.39 1130.97 501.13 1130.45 500.61C1129.96 500.09 1129.71 499.453 1129.71 498.699L1129.71 497.685C1129.71 496.931 1129.96 496.294 1130.45 495.774C1130.97 495.254 1131.86 494.994 1133.1 494.994C1134.35 494.994 1135.22 495.254 1135.72 495.774C1136.24 496.294 1136.5 496.931 1136.5 497.685L1136.5 498.699C1136.5 499.453 1136.24 500.09 1135.72 500.61C1135.22 501.13 1134.35 501.39 1133.1 501.39ZM1158.24 501.39C1157 501.39 1156.11 501.13 1155.59 500.61C1155.1 500.09 1154.85 499.453 1154.85 498.699L1154.85 497.685C1154.85 496.931 1155.1 496.294 1155.59 495.774C1156.11 495.254 1157 494.994 1158.24 494.994C1159.49 494.994 1160.36 495.254 1160.86 495.774C1161.38 496.294 1161.64 496.931 1161.64 497.685L1161.64 498.699C1161.64 499.453 1161.38 500.09 1160.86 500.61C1160.36 501.13 1159.49 501.39 1158.24 501.39ZM1183.38 501.39C1182.14 501.39 1181.25 501.13 1180.73 500.61C1180.24 500.09 1179.99 499.453 1179.99 498.699L1179.99 497.685C1179.99 496.931 1180.24 496.294 1180.73 495.774C1181.25 495.254 1182.14 494.994 1183.38 494.994C1184.63 494.994 1185.5 495.254 1186 495.774C1186.52 496.294 1186.78 496.931 1186.78 497.685L1186.78 498.699C1186.78 499.453 1186.52 500.09 1186 500.61C1185.5 501.13 1184.63 501.39 1183.38 501.39ZM1232.53 485.01C1234.27 485.01 1235.56 484.646 1236.39 483.918C1237.25 483.164 1237.68 482.228 1237.68 481.11L1237.68 480.837C1237.68 479.589 1237.26 478.64 1236.43 477.99C1235.63 477.314 1234.53 476.976 1233.16 476.976C1231.83 476.976 1230.7 477.275 1229.76 477.873C1228.85 478.471 1228.09 479.29 1227.46 480.33L1224.5 477.795C1224.91 477.197 1225.4 476.625 1225.94 476.079C1226.49 475.533 1227.11 475.065 1227.81 474.675C1228.52 474.259 1229.32 473.934 1230.23 473.7C1231.14 473.44 1232.17 473.31 1233.31 473.31C1234.59 473.31 1235.77 473.466 1236.86 473.778C1237.95 474.09 1238.9 474.558 1239.71 475.182C1240.51 475.78 1241.14 476.521 1241.58 477.405C1242.02 478.263 1242.24 479.238 1242.24 480.33C1242.24 481.188 1242.1 481.968 1241.81 482.67C1241.55 483.372 1241.18 483.996 1240.68 484.542C1240.22 485.062 1239.66 485.491 1239.01 485.829C1238.36 486.167 1237.67 486.414 1236.94 486.57L1236.94 486.765C1237.72 486.921 1238.46 487.181 1239.16 487.545C1239.86 487.883 1240.49 488.338 1241.03 488.91C1241.58 489.456 1242.01 490.119 1242.32 490.899C1242.63 491.653 1242.79 492.524 1242.79 493.512C1242.79 494.708 1242.56 495.8 1242.09 496.788C1241.62 497.75 1240.94 498.582 1240.06 499.284C1239.2 499.986 1238.16 500.532 1236.94 500.922C1235.72 501.286 1234.35 501.468 1232.84 501.468C1231.57 501.468 1230.44 501.325 1229.45 501.039C1228.49 500.779 1227.63 500.428 1226.88 499.986C1226.12 499.518 1225.46 498.998 1224.89 498.426C1224.34 497.828 1223.86 497.217 1223.45 496.593L1226.68 494.097C1227.36 495.189 1228.15 496.086 1229.06 496.788C1230 497.464 1231.27 497.802 1232.88 497.802C1234.6 497.802 1235.91 497.412 1236.82 496.632C1237.73 495.826 1238.19 494.721 1238.19 493.317L1238.19 493.005C1238.19 491.601 1237.71 490.535 1236.74 489.807C1235.81 489.053 1234.44 488.676 1232.65 488.676L1229.72 488.676L1229.72 485.01L1232.53 485.01ZM1261.22 501L1261.22 495.696L1248.27 495.696L1248.27 491.952L1259.66 473.778L1265.39 473.778L1265.39 492.264L1269.22 492.264L1269.22 495.696L1265.39 495.696L1265.39 501L1261.22 501ZM1251.98 492.264L1261.22 492.264L1261.22 477.795L1260.99 477.795L1251.98 492.264ZM1293.58 483.918C1293.58 485.894 1293.28 487.753 1292.68 489.495C1292.08 491.237 1291.3 492.836 1290.34 494.292C1289.38 495.748 1288.31 497.048 1287.14 498.192C1285.97 499.336 1284.81 500.272 1283.67 501L1277.82 501C1279.38 499.882 1280.78 498.803 1282.03 497.763C1283.28 496.723 1284.36 495.657 1285.27 494.565C1286.2 493.473 1286.98 492.329 1287.61 491.133C1288.23 489.911 1288.71 488.559 1289.05 487.077L1288.78 486.999C1288.49 487.545 1288.15 488.065 1287.76 488.559C1287.37 489.027 1286.92 489.443 1286.4 489.807C1285.88 490.171 1285.28 490.457 1284.61 490.665C1283.93 490.873 1283.16 490.977 1282.3 490.977C1281.13 490.977 1280.06 490.782 1279.07 490.392C1278.08 490.002 1277.22 489.443 1276.49 488.715C1275.77 487.961 1275.19 487.064 1274.78 486.024C1274.39 484.984 1274.19 483.814 1274.19 482.514C1274.19 481.162 1274.41 479.927 1274.86 478.809C1275.32 477.665 1275.97 476.69 1276.81 475.884C1277.66 475.078 1278.69 474.454 1279.89 474.012C1281.08 473.544 1282.41 473.31 1283.86 473.31C1285.37 473.31 1286.72 473.557 1287.92 474.051C1289.14 474.545 1290.17 475.26 1291 476.196C1291.83 477.106 1292.47 478.211 1292.91 479.511C1293.35 480.811 1293.58 482.28 1293.58 483.918ZM1283.9 487.506C1285.54 487.506 1286.82 487.064 1287.73 486.18C1288.64 485.27 1289.09 483.996 1289.09 482.358L1289.09 481.968C1289.09 480.33 1288.64 479.069 1287.73 478.185C1286.82 477.275 1285.54 476.82 1283.9 476.82C1282.24 476.82 1280.95 477.275 1280.04 478.185C1279.13 479.069 1278.68 480.33 1278.68 481.968L1278.68 482.358C1278.68 483.996 1279.13 485.27 1280.04 486.18C1280.95 487.064 1282.24 487.506 1283.9 487.506ZM1306.16 496.125L1306.16 501L1301.79 501L1301.79 496.125L1298.94 496.125L1298.94 492.771L1301.79 492.771L1301.79 489.846L1298.94 489.846L1298.94 486.492L1301.79 486.492L1301.79 473.778L1311.19 473.778C1313.79 473.778 1315.76 474.506 1317.12 475.962C1318.49 477.392 1319.18 479.355 1319.18 481.851C1319.18 484.373 1318.49 486.336 1317.12 487.74C1315.76 489.144 1313.79 489.846 1311.19 489.846L1306.16 489.846L1306.16 492.771L1314.66 492.771L1314.66 496.125L1306.16 496.125ZM1306.16 486.492L1310.56 486.492C1313.29 486.492 1314.66 485.27 1314.66 482.826L1314.66 480.915C1314.66 478.471 1313.29 477.249 1310.56 477.249L1306.16 477.249L1306.16 486.492ZM194.692 557.743L194.497 557.743C193.821 558.029 193.054 558.25 192.196 558.406C191.338 558.562 190.363 558.64 189.271 558.64C187.711 558.64 186.385 558.458 185.293 558.094C184.201 557.704 183.304 557.119 182.602 556.339C181.9 555.533 181.393 554.519 181.081 553.297C180.769 552.075 180.613 550.619 180.613 548.929L180.613 540.778L184.981 540.778L184.981 548.968C184.981 550.112 185.059 551.074 185.215 551.854C185.397 552.608 185.683 553.219 186.073 553.687C186.489 554.155 187.022 554.493 187.672 554.701C188.322 554.883 189.128 554.974 190.09 554.974C191.754 554.974 193.288 554.701 194.692 554.155L194.692 540.778L199.06 540.778L199.06 568L194.692 568L194.692 557.743ZM215.932 568.468C214.398 568.468 213.02 568.221 211.798 567.727C210.576 567.233 209.549 566.531 208.717 565.621C207.885 564.711 207.248 563.619 206.806 562.345C206.364 561.045 206.143 559.589 206.143 557.977C206.143 556.365 206.364 554.909 206.806 553.609C207.274 552.309 207.911 551.204 208.717 550.294C209.549 549.358 210.55 548.643 211.72 548.149C212.89 547.655 214.19 547.408 215.62 547.408C217.024 547.408 218.298 547.655 219.442 548.149C220.586 548.617 221.561 549.293 222.367 550.177C223.173 551.061 223.784 552.114 224.2 553.336C224.642 554.558 224.863 555.91 224.863 557.392L224.863 558.991L210.433 558.991L210.433 559.654C210.433 561.24 210.927 562.54 211.915 563.554C212.903 564.542 214.268 565.036 216.01 565.036C217.31 565.036 218.415 564.763 219.325 564.217C220.261 563.645 221.015 562.891 221.587 561.955L224.239 564.295C223.563 565.465 222.523 566.453 221.119 567.259C219.741 568.065 218.012 568.468 215.932 568.468ZM215.62 550.645C214.866 550.645 214.164 550.775 213.514 551.035C212.89 551.295 212.344 551.672 211.876 552.166C211.434 552.634 211.083 553.193 210.823 553.843C210.563 554.493 210.433 555.208 210.433 555.988L210.433 556.261L220.534 556.261L220.534 555.871C220.534 554.285 220.079 553.024 219.169 552.088C218.285 551.126 217.102 550.645 215.62 550.645ZM232.023 547.876L236.274 547.876L236.274 551.308L236.508 551.308C237.106 550.086 237.899 549.137 238.887 548.461C239.875 547.759 241.11 547.408 242.592 547.408C244.958 547.408 246.843 548.292 248.247 550.06C249.651 551.828 250.353 554.454 250.353 557.938C250.353 561.422 249.651 564.048 248.247 565.816C246.843 567.584 244.958 568.468 242.592 568.468C241.11 568.468 239.875 568.13 238.887 567.454C237.899 566.752 237.106 565.79 236.508 564.568L236.274 564.568L236.274 575.8L232.023 575.8L232.023 547.876ZM240.837 564.997C242.449 564.997 243.684 564.503 244.542 563.515C245.426 562.527 245.868 561.214 245.868 559.576L245.868 556.3C245.868 554.662 245.426 553.349 244.542 552.361C243.684 551.373 242.449 550.879 240.837 550.879C240.213 550.879 239.628 550.957 239.082 551.113C238.536 551.269 238.055 551.503 237.639 551.815C237.223 552.127 236.885 552.517 236.625 552.985C236.391 553.427 236.274 553.96 236.274 554.584L236.274 561.292C236.274 561.916 236.391 562.462 236.625 562.93C236.885 563.372 237.223 563.749 237.639 564.061C238.055 564.373 238.536 564.607 239.082 564.763C239.628 564.919 240.213 564.997 240.837 564.997ZM257.358 547.876L261.609 547.876L261.609 555.988L269.955 555.988L269.955 547.876L274.206 547.876L274.206 568L269.955 568L269.955 559.42L261.609 559.42L261.609 568L257.358 568L257.358 547.876ZM298.41 568C297.188 568 296.265 567.688 295.641 567.064C295.043 566.44 294.679 565.621 294.549 564.607L294.354 564.607C293.964 565.829 293.249 566.778 292.209 567.454C291.195 568.13 289.895 568.468 288.309 568.468C286.255 568.468 284.617 567.935 283.395 566.869C282.173 565.777 281.562 564.282 281.562 562.384C281.562 560.434 282.277 558.952 283.707 557.938C285.163 556.898 287.386 556.378 290.376 556.378L294.237 556.378L294.237 554.818C294.237 552.088 292.794 550.723 289.908 550.723C288.608 550.723 287.555 550.983 286.749 551.503C285.943 551.997 285.267 552.66 284.721 553.492L282.186 551.425C282.758 550.333 283.72 549.397 285.072 548.617C286.424 547.811 288.166 547.408 290.298 547.408C292.846 547.408 294.848 548.019 296.304 549.241C297.76 550.463 298.488 552.231 298.488 554.545L298.488 564.646L301.023 564.646L301.023 568L298.41 568ZM289.518 565.348C290.896 565.348 292.027 565.036 292.911 564.412C293.795 563.788 294.237 562.982 294.237 561.994L294.237 559.069L290.454 559.069C287.386 559.069 285.852 559.992 285.852 561.838L285.852 562.618C285.852 563.528 286.177 564.217 286.827 564.685C287.477 565.127 288.374 565.348 289.518 565.348ZM306.624 564.568L308.925 564.568L310.368 561.916C310.68 561.318 311.044 560.889 311.46 560.629C311.876 560.343 312.383 560.174 312.981 560.122L312.981 559.966C311.317 559.836 309.965 559.303 308.925 558.367C307.885 557.431 307.365 556.053 307.365 554.233C307.365 553.271 307.521 552.4 307.833 551.62C308.145 550.84 308.587 550.177 309.159 549.631C309.757 549.059 310.459 548.63 311.265 548.344C312.097 548.032 313.02 547.876 314.034 547.876L324.018 547.876L324.018 568L319.767 568L319.767 560.512L315.984 560.512L313.371 565.27C312.851 566.258 312.279 566.96 311.655 567.376C311.031 567.792 310.225 568 309.237 568L306.624 568L306.624 564.568ZM319.767 551.191L314.814 551.191C313.826 551.191 313.059 551.425 312.513 551.893C311.993 552.335 311.733 552.959 311.733 553.765L311.733 554.779C311.733 555.585 311.993 556.222 312.513 556.69C313.059 557.132 313.826 557.353 314.814 557.353L319.767 557.353L319.767 551.191ZM355.304 564.568L357.605 564.568C358.359 563.372 358.957 561.929 359.399 560.239C359.841 558.523 360.062 556.495 360.062 554.155L360.062 547.876L373.79 547.876L373.79 564.568L377.027 564.568L377.027 573.46L373.205 573.46L373.205 568L359.126 568L359.126 573.46L355.304 573.46L355.304 564.568ZM369.617 564.568L369.617 551.308L364.04 551.308L364.04 554.311C364.04 556.599 363.858 558.575 363.494 560.239C363.156 561.877 362.649 563.32 361.973 564.568L369.617 564.568ZM381.497 547.876L385.358 547.876L385.358 554.506L388.205 554.506C390.259 554.506 391.91 555.091 393.158 556.261C394.432 557.431 395.069 559.095 395.069 561.253C395.069 563.411 394.432 565.075 393.158 566.245C391.91 567.415 390.259 568 388.205 568L381.497 568L381.497 547.876ZM387.932 564.802C388.92 564.802 389.687 564.581 390.233 564.139C390.805 563.671 391.091 562.943 391.091 561.955L391.091 560.551C391.091 559.563 390.805 558.848 390.233 558.406C389.687 557.938 388.92 557.704 387.932 557.704L385.358 557.704L385.358 564.802L387.932 564.802ZM397.604 547.876L401.465 547.876L401.465 568L397.604 568L397.604 547.876ZM408.002 547.876L412.253 547.876L412.253 551.308L412.487 551.308C413.085 550.086 413.878 549.137 414.866 548.461C415.854 547.759 417.089 547.408 418.571 547.408C420.937 547.408 422.822 548.292 424.226 550.06C425.63 551.828 426.332 554.454 426.332 557.938C426.332 561.422 425.63 564.048 424.226 565.816C422.822 567.584 420.937 568.468 418.571 568.468C417.089 568.468 415.854 568.13 414.866 567.454C413.878 566.752 413.085 565.79 412.487 564.568L412.253 564.568L412.253 575.8L408.002 575.8L408.002 547.876ZM416.816 564.997C418.428 564.997 419.663 564.503 420.521 563.515C421.405 562.527 421.847 561.214 421.847 559.576L421.847 556.3C421.847 554.662 421.405 553.349 420.521 552.361C419.663 551.373 418.428 550.879 416.816 550.879C416.192 550.879 415.607 550.957 415.061 551.113C414.515 551.269 414.034 551.503 413.618 551.815C413.202 552.127 412.864 552.517 412.604 552.985C412.37 553.427 412.253 553.96 412.253 554.584L412.253 561.292C412.253 561.916 412.37 562.462 412.604 562.93C412.864 563.372 413.202 563.749 413.618 564.061C414.034 564.373 414.515 564.607 415.061 564.763C415.607 564.919 416.192 564.997 416.816 564.997ZM449.249 568C448.027 568 447.104 567.688 446.48 567.064C445.882 566.44 445.518 565.621 445.388 564.607L445.193 564.607C444.803 565.829 444.088 566.778 443.048 567.454C442.034 568.13 440.734 568.468 439.148 568.468C437.094 568.468 435.456 567.935 434.234 566.869C433.012 565.777 432.401 564.282 432.401 562.384C432.401 560.434 433.116 558.952 434.546 557.938C436.002 556.898 438.225 556.378 441.215 556.378L445.076 556.378L445.076 554.818C445.076 552.088 443.633 550.723 440.747 550.723C439.447 550.723 438.394 550.983 437.588 551.503C436.782 551.997 436.106 552.66 435.56 553.492L433.025 551.425C433.597 550.333 434.559 549.397 435.911 548.617C437.263 547.811 439.005 547.408 441.137 547.408C443.685 547.408 445.687 548.019 447.143 549.241C448.599 550.463 449.327 552.231 449.327 554.545L449.327 564.646L451.862 564.646L451.862 568L449.249 568ZM440.357 565.348C441.735 565.348 442.866 565.036 443.75 564.412C444.634 563.788 445.076 562.982 445.076 561.994L445.076 559.069L441.293 559.069C438.225 559.069 436.691 559.992 436.691 561.838L436.691 562.618C436.691 563.528 437.016 564.217 437.666 564.685C438.316 565.127 439.213 565.348 440.357 565.348ZM483.772 568L483.772 564.373L491.416 564.373L491.416 543.976L491.104 543.976L484.786 550.723L482.095 548.305L489.037 540.778L495.784 540.778L495.784 564.373L502.375 564.373L502.375 568L483.772 568ZM509.068 547.876L513.319 547.876L513.319 555.988L516.946 555.988L521.782 547.876L526.345 547.876L521.86 555.208C521.418 555.962 520.989 556.495 520.573 556.807C520.157 557.119 519.676 557.34 519.13 557.47L519.13 557.665C519.754 557.795 520.274 558.029 520.69 558.367C521.106 558.679 521.535 559.225 521.977 560.005L524.512 564.568L526.696 564.568L526.696 568L524.2 568C523.342 568 522.601 567.805 521.977 567.415C521.379 566.999 520.82 566.336 520.3 565.426L516.946 559.42L513.319 559.42L513.319 568L509.068 568L509.068 547.876ZM535.651 547.876L550.432 547.876L550.432 551.308L539.902 551.308L539.902 568L535.651 568L535.651 547.876ZM584.604 547.876L595.407 547.876C597.149 547.876 598.501 548.344 599.463 549.28C600.425 550.19 600.906 551.412 600.906 552.946C600.906 555.442 599.541 556.898 596.811 557.314L596.811 557.509C598.475 557.639 599.697 558.12 600.477 558.952C601.257 559.758 601.647 560.824 601.647 562.15C601.647 562.956 601.504 563.71 601.218 564.412C600.958 565.114 600.568 565.738 600.048 566.284C599.528 566.804 598.878 567.22 598.098 567.532C597.344 567.844 596.486 568 595.524 568L584.604 568L584.604 547.876ZM594.627 564.802C595.459 564.802 596.109 564.607 596.577 564.217C597.045 563.801 597.279 563.216 597.279 562.462L597.279 561.526C597.279 560.772 597.045 560.187 596.577 559.771C596.135 559.355 595.537 559.147 594.783 559.147L588.855 559.147L588.855 564.802L594.627 564.802ZM594.237 556.3C594.939 556.3 595.498 556.105 595.914 555.715C596.33 555.325 596.538 554.792 596.538 554.116L596.538 553.258C596.538 552.582 596.33 552.049 595.914 551.659C595.498 551.269 594.939 551.074 594.237 551.074L588.855 551.074L588.855 556.3L594.237 556.3ZM643.62 568.468C642.112 568.468 640.76 568.221 639.564 567.727C638.394 567.233 637.393 566.531 636.561 565.621C635.755 564.711 635.131 563.606 634.689 562.306C634.273 561.006 634.065 559.55 634.065 557.938C634.065 556.326 634.273 554.87 634.689 553.57C635.131 552.27 635.755 551.165 636.561 550.255C637.393 549.345 638.394 548.643 639.564 548.149C640.76 547.655 642.099 547.408 643.581 547.408C645.661 547.408 647.325 547.85 648.573 548.734C649.847 549.618 650.796 550.762 651.42 552.166L648.105 553.96C647.741 553.024 647.182 552.283 646.428 551.737C645.7 551.191 644.751 550.918 643.581 550.918C641.969 550.918 640.721 551.412 639.837 552.4C638.953 553.362 638.511 554.649 638.511 556.261L638.511 559.615C638.511 561.201 638.953 562.488 639.837 563.476C640.721 564.464 641.995 564.958 643.659 564.958C644.907 564.958 645.921 564.672 646.701 564.1C647.507 563.528 648.144 562.748 648.612 561.76L651.732 563.671C651.082 565.075 650.094 566.232 648.768 567.142C647.442 568.026 645.726 568.468 643.62 568.468ZM658.034 547.876L661.895 547.876L661.895 554.506L664.742 554.506C666.796 554.506 668.447 555.091 669.695 556.261C670.969 557.431 671.606 559.095 671.606 561.253C671.606 563.411 670.969 565.075 669.695 566.245C668.447 567.415 666.796 568 664.742 568L658.034 568L658.034 547.876ZM664.469 564.802C665.457 564.802 666.224 564.581 666.77 564.139C667.342 563.671 667.628 562.943 667.628 561.955L667.628 560.551C667.628 559.563 667.342 558.848 666.77 558.406C666.224 557.938 665.457 557.704 664.469 557.704L661.895 557.704L661.895 564.802L664.469 564.802ZM674.141 547.876L678.002 547.876L678.002 568L674.141 568L674.141 547.876ZM684.539 547.876L688.79 547.876L688.79 551.308L689.024 551.308C689.622 550.086 690.415 549.137 691.403 548.461C692.391 547.759 693.626 547.408 695.108 547.408C697.474 547.408 699.359 548.292 700.763 550.06C702.167 551.828 702.869 554.454 702.869 557.938C702.869 561.422 702.167 564.048 700.763 565.816C699.359 567.584 697.474 568.468 695.108 568.468C693.626 568.468 692.391 568.13 691.403 567.454C690.415 566.752 689.622 565.79 689.024 564.568L688.79 564.568L688.79 575.8L684.539 575.8L684.539 547.876ZM693.353 564.997C694.965 564.997 696.2 564.503 697.058 563.515C697.942 562.527 698.384 561.214 698.384 559.576L698.384 556.3C698.384 554.662 697.942 553.349 697.058 552.361C696.2 551.373 694.965 550.879 693.353 550.879C692.729 550.879 692.144 550.957 691.598 551.113C691.052 551.269 690.571 551.503 690.155 551.815C689.739 552.127 689.401 552.517 689.141 552.985C688.907 553.427 688.79 553.96 688.79 554.584L688.79 561.292C688.79 561.916 688.907 562.462 689.141 562.93C689.401 563.372 689.739 563.749 690.155 564.061C690.571 564.373 691.052 564.607 691.598 564.763C692.144 564.919 692.729 564.997 693.353 564.997ZM709.874 547.876L714.125 547.876L714.125 555.988L722.471 555.988L722.471 547.876L726.722 547.876L726.722 568L722.471 568L722.471 559.42L714.125 559.42L714.125 568L709.874 568L709.874 547.876ZM743.438 568.468C741.956 568.468 740.617 568.221 739.421 567.727C738.251 567.233 737.25 566.531 736.418 565.621C735.612 564.711 734.988 563.606 734.546 562.306C734.104 561.006 733.883 559.55 733.883 557.938C733.883 556.326 734.104 554.87 734.546 553.57C734.988 552.27 735.612 551.165 736.418 550.255C737.25 549.345 738.251 548.643 739.421 548.149C740.617 547.655 741.956 547.408 743.438 547.408C744.92 547.408 746.246 547.655 747.416 548.149C748.612 548.643 749.613 549.345 750.419 550.255C751.251 551.165 751.888 552.27 752.33 553.57C752.772 554.87 752.993 556.326 752.993 557.938C752.993 559.55 752.772 561.006 752.33 562.306C751.888 563.606 751.251 564.711 750.419 565.621C749.613 566.531 748.612 567.233 747.416 567.727C746.246 568.221 744.92 568.468 743.438 568.468ZM743.438 565.114C744.998 565.114 746.233 564.646 747.143 563.71C748.079 562.748 748.547 561.331 748.547 559.459L748.547 556.417C748.547 554.545 748.079 553.141 747.143 552.205C746.233 551.243 744.998 550.762 743.438 550.762C741.878 550.762 740.63 551.243 739.694 552.205C738.784 553.141 738.329 554.545 738.329 556.417L738.329 559.459C738.329 561.331 738.784 562.748 739.694 563.71C740.63 564.646 741.878 565.114 743.438 565.114ZM759.334 547.876L764.287 547.876L768.655 557.353L768.928 557.353L773.296 547.876L777.82 547.876L777.82 568L774.115 568L774.115 556.651L774.271 553.102L773.998 553.102L768.577 564.841L763.156 553.102L762.883 553.102L763.039 556.651L763.039 568L759.334 568L759.334 547.876ZM819.598 568.468C818.09 568.468 816.738 568.221 815.542 567.727C814.372 567.233 813.371 566.531 812.539 565.621C811.733 564.711 811.109 563.606 810.667 562.306C810.251 561.006 810.043 559.55 810.043 557.938C810.043 556.326 810.251 554.87 810.667 553.57C811.109 552.27 811.733 551.165 812.539 550.255C813.371 549.345 814.372 548.643 815.542 548.149C816.738 547.655 818.077 547.408 819.559 547.408C821.639 547.408 823.303 547.85 824.551 548.734C825.825 549.618 826.774 550.762 827.398 552.166L824.083 553.96C823.719 553.024 823.16 552.283 822.406 551.737C821.678 551.191 820.729 550.918 819.559 550.918C817.947 550.918 816.699 551.412 815.815 552.4C814.931 553.362 814.489 554.649 814.489 556.261L814.489 559.615C814.489 561.201 814.931 562.488 815.815 563.476C816.699 564.464 817.973 564.958 819.637 564.958C820.885 564.958 821.899 564.672 822.679 564.1C823.485 563.528 824.122 562.748 824.59 561.76L827.71 563.671C827.06 565.075 826.072 566.232 824.746 567.142C823.42 568.026 821.704 568.468 819.598 568.468ZM843.997 568.468C842.515 568.468 841.176 568.221 839.98 567.727C838.81 567.233 837.809 566.531 836.977 565.621C836.171 564.711 835.547 563.606 835.105 562.306C834.663 561.006 834.442 559.55 834.442 557.938C834.442 556.326 834.663 554.87 835.105 553.57C835.547 552.27 836.171 551.165 836.977 550.255C837.809 549.345 838.81 548.643 839.98 548.149C841.176 547.655 842.515 547.408 843.997 547.408C845.479 547.408 846.805 547.655 847.975 548.149C849.171 548.643 850.172 549.345 850.978 550.255C851.81 551.165 852.447 552.27 852.889 553.57C853.331 554.87 853.552 556.326 853.552 557.938C853.552 559.55 853.331 561.006 852.889 562.306C852.447 563.606 851.81 564.711 850.978 565.621C850.172 566.531 849.171 567.233 847.975 567.727C846.805 568.221 845.479 568.468 843.997 568.468ZM843.997 565.114C845.557 565.114 846.792 564.646 847.702 563.71C848.638 562.748 849.106 561.331 849.106 559.459L849.106 556.417C849.106 554.545 848.638 553.141 847.702 552.205C846.792 551.243 845.557 550.762 843.997 550.762C842.437 550.762 841.189 551.243 840.253 552.205C839.343 553.141 838.888 554.545 838.888 556.417L838.888 559.459C838.888 561.331 839.343 562.748 840.253 563.71C841.189 564.646 842.437 565.114 843.997 565.114ZM875.026 547.876L879.316 547.876L869.566 571.9C869.046 573.2 868.357 574.175 867.499 574.825C866.667 575.475 865.458 575.8 863.872 575.8L860.479 575.8L860.479 572.368L865.237 572.368L867.07 567.727L858.958 547.876L863.404 547.876L866.602 556.3L869.098 563.203L869.332 563.203L871.828 556.3L875.026 547.876ZM895.017 568.468C893.509 568.468 892.157 568.221 890.961 567.727C889.791 567.233 888.79 566.531 887.958 565.621C887.152 564.711 886.528 563.606 886.086 562.306C885.67 561.006 885.462 559.55 885.462 557.938C885.462 556.326 885.67 554.87 886.086 553.57C886.528 552.27 887.152 551.165 887.958 550.255C888.79 549.345 889.791 548.643 890.961 548.149C892.157 547.655 893.496 547.408 894.978 547.408C897.058 547.408 898.722 547.85 899.97 548.734C901.244 549.618 902.193 550.762 902.817 552.166L899.502 553.96C899.138 553.024 898.579 552.283 897.825 551.737C897.097 551.191 896.148 550.918 894.978 550.918C893.366 550.918 892.118 551.412 891.234 552.4C890.35 553.362 889.908 554.649 889.908 556.261L889.908 559.615C889.908 561.201 890.35 562.488 891.234 563.476C892.118 564.464 893.392 564.958 895.056 564.958C896.304 564.958 897.318 564.672 898.098 564.1C898.904 563.528 899.541 562.748 900.009 561.76L903.129 563.671C902.479 565.075 901.491 566.232 900.165 567.142C898.839 568.026 897.123 568.468 895.017 568.468ZM919.845 568.468C918.311 568.468 916.933 568.221 915.711 567.727C914.489 567.233 913.462 566.531 912.63 565.621C911.798 564.711 911.161 563.619 910.719 562.345C910.277 561.045 910.056 559.589 910.056 557.977C910.056 556.365 910.277 554.909 910.719 553.609C911.187 552.309 911.824 551.204 912.63 550.294C913.462 549.358 914.463 548.643 915.633 548.149C916.803 547.655 918.103 547.408 919.533 547.408C920.937 547.408 922.211 547.655 923.355 548.149C924.499 548.617 925.474 549.293 926.28 550.177C927.086 551.061 927.697 552.114 928.113 553.336C928.555 554.558 928.776 555.91 928.776 557.392L928.776 558.991L914.346 558.991L914.346 559.654C914.346 561.24 914.84 562.54 915.828 563.554C916.816 564.542 918.181 565.036 919.923 565.036C921.223 565.036 922.328 564.763 923.238 564.217C924.174 563.645 924.928 562.891 925.5 561.955L928.152 564.295C927.476 565.465 926.436 566.453 925.032 567.259C923.654 568.065 921.925 568.468 919.845 568.468ZM919.533 550.645C918.779 550.645 918.077 550.775 917.427 551.035C916.803 551.295 916.257 551.672 915.789 552.166C915.347 552.634 914.996 553.193 914.736 553.843C914.476 554.493 914.346 555.208 914.346 555.988L914.346 556.261L924.447 556.261L924.447 555.871C924.447 554.285 923.992 553.024 923.082 552.088C922.198 551.126 921.015 550.645 919.533 550.645ZM969.696 568.39C968.448 568.39 967.564 568.13 967.044 567.61C966.55 567.09 966.303 566.453 966.303 565.699L966.303 564.685C966.303 563.931 966.55 563.294 967.044 562.774C967.564 562.254 968.448 561.994 969.696 561.994C970.944 561.994 971.815 562.254 972.309 562.774C972.829 563.294 973.089 563.931 973.089 564.685L973.089 565.699C973.089 566.453 972.829 567.09 972.309 567.61C971.815 568.13 970.944 568.39 969.696 568.39ZM994.835 568.39C993.587 568.39 992.703 568.13 992.183 567.61C991.689 567.09 991.442 566.453 991.442 565.699L991.442 564.685C991.442 563.931 991.689 563.294 992.183 562.774C992.703 562.254 993.587 561.994 994.835 561.994C996.083 561.994 996.954 562.254 997.448 562.774C997.968 563.294 998.228 563.931 998.228 564.685L998.228 565.699C998.228 566.453 997.968 567.09 997.448 567.61C996.954 568.13 996.083 568.39 994.835 568.39ZM1019.98 568.39C1018.73 568.39 1017.84 568.13 1017.32 567.61C1016.83 567.09 1016.58 566.453 1016.58 565.699L1016.58 564.685C1016.58 563.931 1016.83 563.294 1017.32 562.774C1017.84 562.254 1018.73 561.994 1019.98 561.994C1021.22 561.994 1022.09 562.254 1022.59 562.774C1023.11 563.294 1023.37 563.931 1023.37 564.685L1023.37 565.699C1023.37 566.453 1023.11 567.09 1022.59 567.61C1022.09 568.13 1021.22 568.39 1019.98 568.39ZM1045.11 568.39C1043.87 568.39 1042.98 568.13 1042.46 567.61C1041.97 567.09 1041.72 566.453 1041.72 565.699L1041.72 564.685C1041.72 563.931 1041.97 563.294 1042.46 562.774C1042.98 562.254 1043.87 561.994 1045.11 561.994C1046.36 561.994 1047.23 562.254 1047.73 562.774C1048.25 563.294 1048.51 563.931 1048.51 564.685L1048.51 565.699C1048.51 566.453 1048.25 567.09 1047.73 567.61C1047.23 568.13 1046.36 568.39 1045.11 568.39ZM1070.25 568.39C1069.01 568.39 1068.12 568.13 1067.6 567.61C1067.11 567.09 1066.86 566.453 1066.86 565.699L1066.86 564.685C1066.86 563.931 1067.11 563.294 1067.6 562.774C1068.12 562.254 1069.01 561.994 1070.25 561.994C1071.5 561.994 1072.37 562.254 1072.87 562.774C1073.39 563.294 1073.65 563.931 1073.65 564.685L1073.65 565.699C1073.65 566.453 1073.39 567.09 1072.87 567.61C1072.37 568.13 1071.5 568.39 1070.25 568.39ZM1095.39 568.39C1094.15 568.39 1093.26 568.13 1092.74 567.61C1092.25 567.09 1092 566.453 1092 565.699L1092 564.685C1092 563.931 1092.25 563.294 1092.74 562.774C1093.26 562.254 1094.15 561.994 1095.39 561.994C1096.64 561.994 1097.51 562.254 1098.01 562.774C1098.53 563.294 1098.79 563.931 1098.79 564.685L1098.79 565.699C1098.79 566.453 1098.53 567.09 1098.01 567.61C1097.51 568.13 1096.64 568.39 1095.39 568.39ZM1120.53 568.39C1119.29 568.39 1118.4 568.13 1117.88 567.61C1117.39 567.09 1117.14 566.453 1117.14 565.699L1117.14 564.685C1117.14 563.931 1117.39 563.294 1117.88 562.774C1118.4 562.254 1119.29 561.994 1120.53 561.994C1121.78 561.994 1122.65 562.254 1123.15 562.774C1123.67 563.294 1123.93 563.931 1123.93 564.685L1123.93 565.699C1123.93 566.453 1123.67 567.09 1123.15 567.61C1122.65 568.13 1121.78 568.39 1120.53 568.39ZM1145.67 568.39C1144.43 568.39 1143.54 568.13 1143.02 567.61C1142.53 567.09 1142.28 566.453 1142.28 565.699L1142.28 564.685C1142.28 563.931 1142.53 563.294 1143.02 562.774C1143.54 562.254 1144.43 561.994 1145.67 561.994C1146.92 561.994 1147.79 562.254 1148.29 562.774C1148.81 563.294 1149.07 563.931 1149.07 564.685L1149.07 565.699C1149.07 566.453 1148.81 567.09 1148.29 567.61C1147.79 568.13 1146.92 568.39 1145.67 568.39ZM1170.81 568.39C1169.57 568.39 1168.68 568.13 1168.16 567.61C1167.67 567.09 1167.42 566.453 1167.42 565.699L1167.42 564.685C1167.42 563.931 1167.67 563.294 1168.16 562.774C1168.68 562.254 1169.57 561.994 1170.81 561.994C1172.06 561.994 1172.93 562.254 1173.43 562.774C1173.95 563.294 1174.21 563.931 1174.21 564.685L1174.21 565.699C1174.21 566.453 1173.95 567.09 1173.43 567.61C1172.93 568.13 1172.06 568.39 1170.81 568.39ZM1195.95 568.39C1194.71 568.39 1193.82 568.13 1193.3 567.61C1192.81 567.09 1192.56 566.453 1192.56 565.699L1192.56 564.685C1192.56 563.931 1192.81 563.294 1193.3 562.774C1193.82 562.254 1194.71 561.994 1195.95 561.994C1197.2 561.994 1198.07 562.254 1198.57 562.774C1199.09 563.294 1199.35 563.931 1199.35 564.685L1199.35 565.699C1199.35 566.453 1199.09 567.09 1198.57 567.61C1198.07 568.13 1197.2 568.39 1195.95 568.39ZM1254.46 544.561L1242.1 544.561L1241.4 554.233L1241.71 554.233C1242.33 553.167 1243.09 552.322 1243.97 551.698C1244.85 551.048 1246.06 550.723 1247.6 550.723C1248.77 550.723 1249.85 550.918 1250.83 551.308C1251.85 551.698 1252.72 552.257 1253.45 552.985C1254.2 553.713 1254.79 554.61 1255.2 555.676C1255.64 556.716 1255.87 557.899 1255.87 559.225C1255.87 560.577 1255.64 561.825 1255.2 562.969C1254.76 564.087 1254.12 565.062 1253.29 565.894C1252.46 566.7 1251.43 567.337 1250.21 567.805C1248.99 568.247 1247.6 568.468 1246.04 568.468C1244.82 568.468 1243.72 568.325 1242.76 568.039C1241.83 567.779 1240.98 567.428 1240.23 566.986C1239.5 566.518 1238.86 565.998 1238.32 565.426C1237.77 564.828 1237.29 564.217 1236.87 563.593L1240.07 561.097C1240.41 561.617 1240.76 562.111 1241.12 562.579C1241.51 563.021 1241.94 563.411 1242.41 563.749C1242.88 564.087 1243.41 564.347 1244.01 564.529C1244.63 564.711 1245.34 564.802 1246.12 564.802C1247.81 564.802 1249.09 564.347 1249.98 563.437C1250.86 562.501 1251.3 561.24 1251.3 559.654L1251.3 559.342C1251.3 557.756 1250.85 556.521 1249.94 555.637C1249.05 554.753 1247.78 554.311 1246.12 554.311C1244.89 554.311 1243.93 554.532 1243.23 554.974C1242.53 555.416 1241.92 555.91 1241.4 556.456L1237.77 555.949L1238.78 540.778L1254.46 540.778L1254.46 544.561ZM1281.01 550.918C1281.01 552.894 1280.71 554.753 1280.11 556.495C1279.51 558.237 1278.73 559.836 1277.77 561.292C1276.81 562.748 1275.74 564.048 1274.57 565.192C1273.4 566.336 1272.24 567.272 1271.1 568L1265.25 568C1266.81 566.882 1268.21 565.803 1269.46 564.763C1270.71 563.723 1271.79 562.657 1272.7 561.565C1273.63 560.473 1274.41 559.329 1275.04 558.133C1275.66 556.911 1276.14 555.559 1276.48 554.077L1276.21 553.999C1275.92 554.545 1275.58 555.065 1275.19 555.559C1274.8 556.027 1274.35 556.443 1273.83 556.807C1273.31 557.171 1272.71 557.457 1272.04 557.665C1271.36 557.873 1270.59 557.977 1269.73 557.977C1268.56 557.977 1267.49 557.782 1266.5 557.392C1265.51 557.002 1264.65 556.443 1263.92 555.715C1263.2 554.961 1262.62 554.064 1262.21 553.024C1261.82 551.984 1261.62 550.814 1261.62 549.514C1261.62 548.162 1261.84 546.927 1262.29 545.809C1262.75 544.665 1263.4 543.69 1264.24 542.884C1265.09 542.078 1266.12 541.454 1267.32 541.012C1268.51 540.544 1269.84 540.31 1271.29 540.31C1272.8 540.31 1274.15 540.557 1275.35 541.051C1276.57 541.545 1277.6 542.26 1278.43 543.196C1279.26 544.106 1279.9 545.211 1280.34 546.511C1280.78 547.811 1281.01 549.28 1281.01 550.918ZM1271.33 554.506C1272.97 554.506 1274.25 554.064 1275.16 553.18C1276.07 552.27 1276.52 550.996 1276.52 549.358L1276.52 548.968C1276.52 547.33 1276.07 546.069 1275.16 545.185C1274.25 544.275 1272.97 543.82 1271.33 543.82C1269.67 543.82 1268.38 544.275 1267.47 545.185C1266.56 546.069 1266.11 547.33 1266.11 548.968L1266.11 549.358C1266.11 550.996 1266.56 552.27 1267.47 553.18C1268.38 554.064 1269.67 554.506 1271.33 554.506ZM1296.51 568.468C1294.8 568.468 1293.3 568.156 1292.03 567.532C1290.78 566.882 1289.74 565.959 1288.91 564.763C1288.1 563.567 1287.5 562.098 1287.11 560.356C1286.72 558.614 1286.53 556.625 1286.53 554.389C1286.53 552.179 1286.72 550.203 1287.11 548.461C1287.5 546.693 1288.1 545.211 1288.91 544.015C1289.74 542.819 1290.78 541.909 1292.03 541.285C1293.3 540.635 1294.8 540.31 1296.51 540.31C1298.23 540.31 1299.71 540.635 1300.96 541.285C1302.23 541.909 1303.27 542.819 1304.08 544.015C1304.91 545.211 1305.52 546.693 1305.91 548.461C1306.3 550.203 1306.5 552.179 1306.5 554.389C1306.5 556.625 1306.3 558.614 1305.91 560.356C1305.52 562.098 1304.91 563.567 1304.08 564.763C1303.27 565.959 1302.23 566.882 1300.96 567.532C1299.71 568.156 1298.23 568.468 1296.51 568.468ZM1296.51 564.88C1298.49 564.88 1299.89 564.152 1300.72 562.696C1301.58 561.214 1302.01 559.225 1302.01 556.729L1302.01 552.049C1302.01 549.553 1301.58 547.577 1300.72 546.121C1299.89 544.639 1298.49 543.898 1296.51 543.898C1295.52 543.898 1294.68 544.093 1293.98 544.483C1293.28 544.847 1292.7 545.393 1292.26 546.121C1291.82 546.823 1291.49 547.681 1291.29 548.695C1291.1 549.683 1291.01 550.801 1291.01 552.049L1291.01 556.729C1291.01 557.977 1291.1 559.108 1291.29 560.122C1291.49 561.11 1291.82 561.968 1292.26 562.696C1292.7 563.398 1293.28 563.944 1293.98 564.334C1294.68 564.698 1295.52 564.88 1296.51 564.88ZM1296.51 556.69C1295.6 556.69 1294.97 556.508 1294.6 556.144C1294.26 555.78 1294.09 555.338 1294.09 554.818L1294.09 553.96C1294.09 553.44 1294.26 552.998 1294.6 552.634C1294.97 552.27 1295.6 552.088 1296.51 552.088C1297.42 552.088 1298.05 552.27 1298.38 552.634C1298.75 552.998 1298.93 553.44 1298.93 553.96L1298.93 554.818C1298.93 555.338 1298.75 555.78 1298.38 556.144C1298.05 556.508 1297.42 556.69 1296.51 556.69ZM1318.73 563.125L1318.73 568L1314.36 568L1314.36 563.125L1311.51 563.125L1311.51 559.771L1314.36 559.771L1314.36 556.846L1311.51 556.846L1311.51 553.492L1314.36 553.492L1314.36 540.778L1323.76 540.778C1326.36 540.778 1328.33 541.506 1329.69 542.962C1331.06 544.392 1331.75 546.355 1331.75 548.851C1331.75 551.373 1331.06 553.336 1329.69 554.74C1328.33 556.144 1326.36 556.846 1323.76 556.846L1318.73 556.846L1318.73 559.771L1327.23 559.771L1327.23 563.125L1318.73 563.125ZM1318.73 553.492L1323.13 553.492C1325.86 553.492 1327.23 552.27 1327.23 549.826L1327.23 547.915C1327.23 545.471 1325.86 544.249 1323.13 544.249L1318.73 544.249L1318.73 553.492Z" fill="white"/>
<path d="M618.763 66.1587C620.67 66.1587 622.393 66.0459 623.931 65.8203C625.49 65.5947 626.812 65.2461 627.899 64.7744C629.007 64.2822 629.858 63.6567 630.452 62.8979C631.047 62.1392 631.345 61.2266 631.345 60.1602V59.6064C631.345 58.499 631.129 57.5044 630.699 56.6226C630.268 55.7407 629.54 55.0024 628.514 54.4077C627.489 53.7925 626.125 53.3311 624.423 53.0234C622.741 52.6953 620.65 52.5312 618.148 52.5312C616.425 52.5312 614.805 52.644 613.287 52.8696C611.79 53.0952 610.457 53.4951 609.288 54.0693C608.119 54.6436 607.145 55.4331 606.366 56.438C605.607 57.4429 605.115 58.7144 604.889 60.2524L600.767 60.1294L600.829 59.4834C601.301 55.9971 603.003 53.4028 605.935 51.7007C608.868 49.978 612.949 49.1167 618.178 49.1167C621.747 49.1167 624.679 49.3833 626.976 49.9165C629.294 50.4497 631.119 51.1675 632.452 52.0698C633.805 52.9722 634.739 54.0386 635.251 55.269C635.764 56.479 636.01 57.7607 635.99 59.1143V59.6987C635.99 60.7036 635.784 61.6572 635.374 62.5596C634.964 63.4619 634.349 64.2822 633.529 65.0205C632.729 65.7383 631.734 66.333 630.545 66.8047C629.376 67.2764 628.022 67.584 626.484 67.7275C628.104 67.9121 629.509 68.2915 630.699 68.8657C631.908 69.4194 632.903 70.0962 633.682 70.896C634.462 71.6958 635.046 72.5776 635.436 73.5415C635.825 74.5054 636.02 75.4897 636.02 76.4946V76.8638C636.02 78.3198 635.743 79.6631 635.19 80.8936C634.657 82.1035 633.713 83.1494 632.36 84.0312C631.006 84.9131 629.181 85.6001 626.884 86.0923C624.587 86.605 621.685 86.8613 618.178 86.8613C615.964 86.8613 614.005 86.7075 612.303 86.3999C610.621 86.0923 609.145 85.6821 607.873 85.1694C606.622 84.6567 605.566 84.062 604.705 83.3853C603.844 82.688 603.136 81.9497 602.582 81.1704C602.029 80.3911 601.608 79.6016 601.321 78.8018C601.054 77.9814 600.88 77.1816 600.798 76.4023L600.767 75.9102L604.889 75.7563L604.951 76.187C605.053 77.1099 605.361 78.0122 605.874 78.894C606.407 79.7554 607.197 80.5244 608.242 81.2012C609.288 81.8779 610.621 82.4214 612.241 82.8315C613.882 83.2417 615.861 83.4468 618.178 83.4468C620.639 83.4468 622.7 83.3032 624.362 83.0161C626.043 82.729 627.397 82.2983 628.422 81.7241C629.468 81.1499 630.217 80.4424 630.668 79.6016C631.119 78.7402 631.345 77.7456 631.345 76.6177V76.3408C631.345 75.5205 631.17 74.6899 630.822 73.8491C630.473 73.0083 629.827 72.2495 628.884 71.5728C627.94 70.896 626.648 70.3525 625.008 69.9424C623.387 69.5117 621.306 69.2964 618.763 69.2964H614.026V66.1587H618.763ZM680.839 86V77.6021C680.408 78.8735 679.649 80.0732 678.563 81.2012C677.476 82.3086 676.173 83.2827 674.656 84.1235C673.159 84.9644 671.498 85.6309 669.672 86.123C667.868 86.6152 666.032 86.8613 664.166 86.8613C661.521 86.8613 659.244 86.646 657.337 86.2153C655.45 85.8052 653.851 85.272 652.538 84.6157C651.226 83.939 650.169 83.1699 649.37 82.3086C648.57 81.4473 647.955 80.5757 647.524 79.6938C647.093 78.7915 646.806 77.9302 646.663 77.1099C646.519 76.269 646.447 75.5308 646.447 74.895C646.447 74.2593 646.509 73.5518 646.632 72.7725C646.775 71.9727 647.052 71.1626 647.462 70.3423C647.873 69.5015 648.457 68.6914 649.216 67.9121C649.975 67.1123 650.969 66.4048 652.2 65.7896C653.451 65.1743 654.979 64.6821 656.783 64.313C658.588 63.9233 660.741 63.7285 663.243 63.7285C665.109 63.7285 666.945 63.8721 668.75 64.1592C670.575 64.4258 672.267 64.7539 673.825 65.1436C675.384 65.5127 676.768 65.9126 677.978 66.3433C679.209 66.7534 680.162 67.0918 680.839 67.3584V64.8975C680.839 63.1748 680.634 61.5649 680.224 60.0679C679.813 58.5708 679.075 57.2686 678.009 56.1611C676.942 55.0332 675.486 54.1514 673.641 53.5156C671.815 52.8799 669.478 52.562 666.627 52.562C663.858 52.562 661.562 52.8184 659.736 53.3311C657.932 53.8438 656.476 54.5103 655.368 55.3306C654.281 56.1509 653.471 57.084 652.938 58.1299C652.425 59.1553 652.066 60.1807 651.861 61.2061H647.309C647.452 60.4678 647.657 59.6577 647.924 58.7759C648.211 57.8735 648.621 56.9814 649.154 56.0996C649.708 55.1973 650.426 54.3257 651.308 53.4849C652.21 52.644 653.358 51.9058 654.753 51.27C656.147 50.6138 657.819 50.0908 659.767 49.7012C661.736 49.3115 664.063 49.1167 666.75 49.1167C669.437 49.1167 671.764 49.3628 673.733 49.855C675.702 50.3267 677.383 50.9624 678.778 51.7622C680.172 52.562 681.3 53.4951 682.162 54.5615C683.043 55.6074 683.73 56.7148 684.223 57.8838C684.715 59.0527 685.053 60.2422 685.238 61.4521C685.422 62.6416 685.515 63.7695 685.515 64.8359V86H680.839ZM665.058 83.416C667.068 83.416 668.842 83.2109 670.38 82.8008C671.938 82.3701 673.292 81.8267 674.44 81.1704C675.609 80.4937 676.584 79.7451 677.363 78.9248C678.163 78.1045 678.809 77.2944 679.301 76.4946C679.813 75.6743 680.183 74.9155 680.408 74.2183C680.654 73.5005 680.798 72.916 680.839 72.4648V70.4038C680.183 70.0962 679.239 69.7373 678.009 69.3271C676.778 68.8965 675.384 68.4966 673.825 68.1274C672.267 67.7378 670.616 67.4097 668.873 67.1431C667.129 66.8765 665.427 66.7432 663.766 66.7432C661.859 66.7432 660.218 66.8765 658.844 67.1431C657.491 67.4097 656.342 67.7686 655.399 68.2197C654.476 68.6504 653.728 69.1528 653.153 69.7271C652.6 70.2808 652.169 70.855 651.861 71.4497C651.554 72.0444 651.349 72.6392 651.246 73.2339C651.164 73.8081 651.123 74.3208 651.123 74.772C651.123 75.2642 651.185 75.8179 651.308 76.4331C651.431 77.0483 651.667 77.6738 652.015 78.3096C652.364 78.9453 652.856 79.5708 653.492 80.186C654.148 80.8013 654.989 81.355 656.014 81.8472C657.04 82.3188 658.291 82.6982 659.767 82.9854C661.264 83.2725 663.028 83.416 665.058 83.416ZM704.37 49.978V65.8818H717.013L730.456 49.978H736.024L720.613 67.7891L738.331 86H732.548L716.798 69.4502H704.37V86H699.695V49.978H704.37ZM742.021 49.978H747.036L762.54 82.5547H762.878L778.505 49.978H783.55L763.616 90.522C763.001 91.7935 762.273 92.9111 761.432 93.875C760.591 94.8389 759.73 95.6592 758.848 96.3359C757.987 97.0332 757.136 97.5869 756.295 97.9971C755.475 98.4072 754.767 98.7046 754.172 98.8892L752.511 96.1821C753.147 95.895 753.793 95.5464 754.449 95.1362C755.126 94.7261 755.782 94.2339 756.418 93.6597C757.054 93.106 757.659 92.4497 758.233 91.6909C758.807 90.9526 759.33 90.1118 759.802 89.1685L761.248 86H759.894L742.021 49.978ZM824.554 62.4673C824.226 61.0933 823.713 59.8115 823.016 58.6221C822.319 57.4121 821.355 56.3662 820.124 55.4844C818.894 54.6025 817.356 53.9155 815.51 53.4233C813.685 52.9106 811.48 52.6543 808.896 52.6543C805.943 52.6543 803.431 53.0952 801.36 53.9771C799.288 54.8384 797.596 55.9663 796.284 57.3608C794.992 58.7349 794.049 60.2729 793.454 61.9751C792.859 63.6772 792.562 65.3691 792.562 67.0508V68.9272C792.562 70.6499 792.869 72.3726 793.485 74.0952C794.1 75.8179 795.064 77.3662 796.376 78.7402C797.709 80.1143 799.401 81.2319 801.452 82.0933C803.523 82.9341 806.005 83.3545 808.896 83.3545C811.48 83.3545 813.675 83.1084 815.479 82.6162C817.304 82.124 818.832 81.4473 820.063 80.5859C821.293 79.7041 822.257 78.6582 822.954 77.4482C823.672 76.2178 824.216 74.8745 824.585 73.4185H829.014C828.666 75.3052 828.04 77.0688 827.138 78.7095C826.256 80.3296 825.015 81.7446 823.416 82.9546C821.816 84.1646 819.827 85.1182 817.448 85.8154C815.069 86.5127 812.229 86.8613 808.927 86.8613C805.42 86.8613 802.354 86.3999 799.729 85.4771C797.104 84.5337 794.91 83.252 793.146 81.6318C791.383 80.0117 790.06 78.1045 789.178 75.9102C788.296 73.6953 787.855 71.3062 787.855 68.7427V67.2046C787.855 64.6616 788.296 62.293 789.178 60.0986C790.06 57.8838 791.383 55.9663 793.146 54.3462C794.91 52.7056 797.104 51.4238 799.729 50.501C802.375 49.5781 805.441 49.1167 808.927 49.1167C812.188 49.1167 814.997 49.4551 817.356 50.1318C819.714 50.8086 821.693 51.752 823.293 52.9619C824.892 54.1514 826.143 55.5664 827.046 57.207C827.948 58.8271 828.584 60.5806 828.953 62.4673H824.554ZM844.671 49.978V65.8818H857.314L870.757 49.978H876.325L860.913 67.7891L878.632 86H872.849L857.099 69.4502H844.671V86H839.995V49.978H844.671ZM929.295 86H924.65V54.7153L893.919 86H888.013V49.978H892.658V81.6934L923.697 49.978H929.295V86Z" fill="white"/>
</svg>
