<svg width="1136" height="645" viewBox="0 0 1136 645" fill="none" xmlns="http://www.w3.org/2000/svg">
<path d="M69.1465 574.751L109 574.751C127.778 574.751 143 589.973 143 608.751C143 627.528 158.222 642.75 177 642.75L980 642.75C998.778 642.75 1014 627.528 1014 608.75C1014 589.973 1029.22 574.75 1048 574.75L1074 574.751C1107.14 574.751 1134 547.888 1134 514.751L1134 507.604C1134 470.52 1103.94 440.458 1066.85 440.458L715.601 440.458C660.372 440.458 615.601 395.686 615.601 340.458C615.601 285.229 660.372 240.458 715.601 240.458L947.272 240.458C984.125 240.458 1014 210.583 1014 173.73L1014 169.501C1014 134.984 986.018 107.002 951.5 107.002L941.501 107.002C912.505 107.002 889 83.4961 889 54.5008C889 25.5055 865.495 2.0001 836.499 2.0001L312.501 1.99999C283.505 1.99999 260 25.5054 260 54.5008C260 83.4961 236.495 107.002 207.499 107.002L201.5 107.002C169.191 107.002 143 133.193 143 165.502L143 173.73C143 210.582 172.875 240.458 209.728 240.458L419.999 240.458C475.228 240.458 519.999 285.229 519.999 340.458C519.999 395.686 475.227 440.458 419.999 440.458L69.1466 440.458C32.0625 440.458 2.00002 470.52 2.00001 507.604C2.00001 544.688 32.0625 574.751 69.1465 574.751Z" fill="#242424" fill-opacity="0.7" stroke="white" stroke-width="3"/>
<path d="M397.061 89V52.978H436.805V89H432.129V56.731H401.737V89H397.061ZM449.139 70.3276C449.139 67.7847 449.56 65.4058 450.4 63.1909C451.262 60.9556 452.564 59.0278 454.307 57.4077C456.071 55.7671 458.286 54.4751 460.952 53.5317C463.638 52.5884 466.817 52.1167 470.488 52.1167C474.179 52.1167 477.368 52.5884 480.055 53.5317C482.741 54.4751 484.956 55.7671 486.699 57.4077C488.463 59.0278 489.765 60.9556 490.606 63.1909C491.447 65.4058 491.867 67.7847 491.867 70.3276V71.6504C491.867 74.1934 491.447 76.5723 490.606 78.7871C489.765 81.002 488.463 82.9297 486.699 84.5703C484.956 86.2109 482.741 87.5029 480.055 88.4463C477.368 89.3896 474.179 89.8613 470.488 89.8613C466.817 89.8613 463.638 89.3896 460.952 88.4463C458.286 87.5029 456.071 86.2109 454.307 84.5703C452.564 82.9297 451.262 81.002 450.4 78.7871C449.56 76.5723 449.139 74.1934 449.139 71.6504V70.3276ZM453.846 71.7734C453.846 73.4961 454.133 75.229 454.707 76.9722C455.302 78.7153 456.255 80.2842 457.568 81.6787C458.88 83.0527 460.593 84.1807 462.705 85.0625C464.817 85.9238 467.412 86.3545 470.488 86.3545C473.564 86.3545 476.158 85.9341 478.271 85.0933C480.403 84.2319 482.126 83.1143 483.439 81.7402C484.751 80.3457 485.694 78.7871 486.269 77.0645C486.863 75.3213 487.161 73.5576 487.161 71.7734V70.2046C487.161 69.0767 487.038 67.9385 486.792 66.79C486.545 65.6416 486.156 64.5239 485.623 63.437C485.089 62.3501 484.392 61.335 483.531 60.3916C482.669 59.4482 481.613 58.6279 480.362 57.9307C479.132 57.2334 477.696 56.6797 476.056 56.2695C474.436 55.8594 472.58 55.6543 470.488 55.6543C467.371 55.6543 464.746 56.0952 462.613 56.9771C460.501 57.8384 458.788 58.9663 457.476 60.3608C456.184 61.7554 455.251 63.314 454.676 65.0366C454.123 66.7593 453.846 68.4717 453.846 70.1738V71.7734ZM535.701 65.4673C535.373 64.0933 534.861 62.8115 534.163 61.6221C533.466 60.4121 532.502 59.3662 531.272 58.4844C530.041 57.6025 528.503 56.9155 526.657 56.4233C524.832 55.9106 522.628 55.6543 520.044 55.6543C517.091 55.6543 514.578 56.0952 512.507 56.9771C510.436 57.8384 508.744 58.9663 507.431 60.3608C506.139 61.7349 505.196 63.2729 504.601 64.9751C504.007 66.6772 503.709 68.3691 503.709 70.0508V71.9272C503.709 73.6499 504.017 75.3726 504.632 77.0952C505.247 78.8179 506.211 80.3662 507.524 81.7402C508.857 83.1143 510.549 84.2319 512.599 85.0933C514.671 85.9341 517.152 86.3545 520.044 86.3545C522.628 86.3545 524.822 86.1084 526.627 85.6162C528.452 85.124 529.98 84.4473 531.21 83.5859C532.441 82.7041 533.405 81.6582 534.102 80.4482C534.82 79.2178 535.363 77.8745 535.732 76.4185H540.162C539.813 78.3052 539.188 80.0688 538.285 81.7095C537.404 83.3296 536.163 84.7446 534.563 85.9546C532.964 87.1646 530.974 88.1182 528.595 88.8154C526.217 89.5127 523.376 89.8613 520.074 89.8613C516.568 89.8613 513.502 89.3999 510.877 88.4771C508.252 87.5337 506.057 86.252 504.294 84.6318C502.53 83.0117 501.207 81.1045 500.325 78.9102C499.444 76.6953 499.003 74.3062 499.003 71.7427V70.2046C499.003 67.6616 499.444 65.293 500.325 63.0986C501.207 60.8838 502.53 58.9663 504.294 57.3462C506.057 55.7056 508.252 54.4238 510.877 53.501C513.522 52.5781 516.588 52.1167 520.074 52.1167C523.335 52.1167 526.145 52.4551 528.503 53.1318C530.862 53.8086 532.841 54.752 534.44 55.9619C536.04 57.1514 537.291 58.5664 538.193 60.207C539.095 61.8271 539.731 63.5806 540.1 65.4673H535.701ZM564.462 56.4233V89H559.879V56.4233H544.129V52.978H580.151V56.4233H564.462ZM587.84 72.2656C587.84 74.0293 588.148 75.7622 588.763 77.4644C589.378 79.1665 590.342 80.6841 591.655 82.0171C592.988 83.3501 594.7 84.4268 596.792 85.2471C598.904 86.0469 601.457 86.4468 604.451 86.4468C606.748 86.4468 608.768 86.1904 610.511 85.6777C612.255 85.165 613.721 84.4985 614.91 83.6782C616.12 82.8374 617.064 81.894 617.74 80.8481C618.438 79.8022 618.899 78.7563 619.125 77.7104L623.616 77.7412C623.267 79.1973 622.662 80.6533 621.801 82.1094C620.96 83.5449 619.781 84.8369 618.263 85.9854C616.766 87.1338 614.89 88.0669 612.634 88.7847C610.378 89.5024 607.661 89.8613 604.482 89.8613C600.77 89.8613 597.571 89.3999 594.885 88.4771C592.198 87.5337 589.983 86.2212 588.24 84.5396C586.497 82.8374 585.205 80.8071 584.364 78.4487C583.523 76.0903 583.103 73.4858 583.103 70.6353V70.1123C583.103 67.5283 583.554 65.1392 584.456 62.9448C585.359 60.7505 586.692 58.8535 588.455 57.2539C590.24 55.6338 592.454 54.3726 595.1 53.4702C597.745 52.5679 600.822 52.1167 604.328 52.1167C607.774 52.1167 610.747 52.5884 613.249 53.5317C615.772 54.4546 617.843 55.7466 619.463 57.4077C621.104 59.0483 622.314 60.9966 623.093 63.2524C623.872 65.4878 624.262 67.9077 624.262 70.5122C624.282 70.8198 624.282 71.1172 624.262 71.4043C624.241 71.6914 624.231 71.9785 624.231 72.2656H587.84ZM587.809 69.1279H619.74V68.8818C619.658 66.8311 619.299 64.9751 618.663 63.314C618.028 61.6528 617.074 60.2378 615.802 59.0688C614.552 57.8794 612.962 56.9668 611.034 56.3311C609.127 55.6953 606.851 55.3774 604.205 55.3774C602.175 55.3774 600.36 55.5723 598.76 55.9619C597.161 56.3516 595.756 56.8745 594.546 57.5308C593.357 58.187 592.342 58.9561 591.501 59.8379C590.66 60.6992 589.973 61.6221 589.44 62.6064C588.906 63.5703 588.507 64.5547 588.24 65.5596C587.994 66.5645 587.85 67.5283 587.809 68.4512V69.1279ZM635.058 100.228V52.978H639.734V60.7607C641.046 58.0127 643.056 55.8901 645.763 54.3931C648.47 52.8755 651.936 52.1167 656.161 52.1167C658.375 52.1167 660.406 52.3525 662.251 52.8242C664.118 53.2959 665.789 53.9521 667.266 54.793C668.763 55.6338 670.065 56.6284 671.172 57.7769C672.28 58.9253 673.203 60.1865 673.941 61.5605C674.679 62.9346 675.233 64.3906 675.602 65.9287C675.971 67.4463 676.156 68.9946 676.156 70.5737V71.835C676.156 74.3164 675.705 76.6543 674.802 78.8486C673.9 81.0225 672.598 82.9297 670.896 84.5703C669.193 86.1904 667.102 87.4824 664.62 88.4463C662.159 89.3896 659.35 89.8613 656.191 89.8613C653.936 89.8613 651.916 89.6562 650.131 89.2461C648.368 88.8359 646.819 88.2617 645.486 87.5234C644.153 86.7646 643.015 85.8623 642.072 84.8164C641.128 83.7705 640.349 82.6221 639.734 81.3711V100.228H635.058ZM671.418 70.2354C671.418 68.5127 671.111 66.7798 670.496 65.0366C669.88 63.2935 668.927 61.7349 667.635 60.3608C666.343 58.9663 664.682 57.8384 662.651 56.9771C660.642 56.0952 658.242 55.6543 655.453 55.6543C653.32 55.6543 651.444 55.8696 649.824 56.3003C648.224 56.7104 646.84 57.2847 645.671 58.0229C644.522 58.7407 643.559 59.5918 642.779 60.5762C642.021 61.54 641.416 62.5859 640.964 63.7139C640.513 64.8418 640.195 66.0107 640.011 67.2207C639.826 68.4307 639.734 69.6304 639.734 70.8198V71.4658C639.734 76.3467 641.067 80.0483 643.733 82.5708C646.419 85.0933 650.316 86.3545 655.422 86.3545C658.129 86.3545 660.478 85.9546 662.467 85.1548C664.477 84.3345 666.138 83.2578 667.45 81.9248C668.783 80.5918 669.778 79.064 670.434 77.3413C671.09 75.6187 671.418 73.8447 671.418 72.0195V70.2354ZM737.401 52.7935V89H732.941V52.7935H737.401ZM718.483 76.7568C718.483 75.5264 718.216 74.4395 717.683 73.4961C717.15 72.5527 716.401 71.7632 715.437 71.1274C714.473 70.4712 713.325 69.979 711.992 69.6509C710.659 69.3022 709.182 69.1279 707.562 69.1279H691.781V85.4932H707.655C709.09 85.4932 710.464 85.3804 711.777 85.1548C713.089 84.9292 714.238 84.5293 715.222 83.9551C716.227 83.3604 717.016 82.5605 717.591 81.5557C718.185 80.5508 718.483 79.2588 718.483 77.6797V76.7568ZM691.781 52.978V65.6211H707.655C710.321 65.6211 712.628 65.8877 714.576 66.4209C716.524 66.9336 718.134 67.6821 719.406 68.6665C720.677 69.6304 721.62 70.7993 722.236 72.1733C722.851 73.5474 723.158 75.0854 723.158 76.7876V77.8335C723.158 79.6587 722.8 81.2686 722.082 82.6631C721.364 84.0576 720.349 85.2266 719.036 86.1699C717.744 87.1133 716.176 87.8208 714.33 88.2925C712.484 88.7642 710.433 89 708.177 89H687.136V52.978H691.781ZM334.002 175H329.357V143.715L298.626 175H292.72V138.978H297.365V170.693L328.403 138.978H334.002V175ZM348.612 175V138.978H353.288V155.62H385.188V138.978H389.864V175H385.188V159.373H353.288V175H348.612ZM417.579 142.423V175H412.995V142.423H397.245V138.978H433.267V142.423H417.579ZM440.957 158.266C440.957 160.029 441.264 161.762 441.879 163.464C442.495 165.167 443.459 166.684 444.771 168.017C446.104 169.35 447.816 170.427 449.908 171.247C452.021 172.047 454.574 172.447 457.568 172.447C459.865 172.447 461.885 172.19 463.628 171.678C465.371 171.165 466.837 170.499 468.027 169.678C469.237 168.837 470.18 167.894 470.857 166.848C471.554 165.802 472.016 164.756 472.241 163.71L476.732 163.741C476.384 165.197 475.779 166.653 474.918 168.109C474.077 169.545 472.897 170.837 471.38 171.985C469.883 173.134 468.006 174.067 465.751 174.785C463.495 175.502 460.777 175.861 457.599 175.861C453.887 175.861 450.688 175.4 448.001 174.477C445.314 173.534 443.1 172.221 441.356 170.54C439.613 168.837 438.321 166.807 437.48 164.449C436.64 162.09 436.219 159.486 436.219 156.635V156.112C436.219 153.528 436.67 151.139 437.573 148.945C438.475 146.75 439.808 144.854 441.572 143.254C443.356 141.634 445.571 140.373 448.216 139.47C450.862 138.568 453.938 138.117 457.445 138.117C460.89 138.117 463.864 138.588 466.366 139.532C468.888 140.455 470.96 141.747 472.58 143.408C474.22 145.048 475.43 146.997 476.21 149.252C476.989 151.488 477.378 153.908 477.378 156.512C477.399 156.82 477.399 157.117 477.378 157.404C477.358 157.691 477.348 157.979 477.348 158.266H440.957ZM440.926 155.128H472.856V154.882C472.774 152.831 472.416 150.975 471.78 149.314C471.144 147.653 470.19 146.238 468.919 145.069C467.668 143.879 466.079 142.967 464.151 142.331C462.244 141.695 459.967 141.377 457.322 141.377C455.292 141.377 453.477 141.572 451.877 141.962C450.277 142.352 448.873 142.875 447.663 143.531C446.473 144.187 445.458 144.956 444.617 145.838C443.776 146.699 443.089 147.622 442.556 148.606C442.023 149.57 441.623 150.555 441.356 151.56C441.11 152.564 440.967 153.528 440.926 154.451V155.128ZM488.175 186.228V138.978H492.85V146.761C494.163 144.013 496.173 141.89 498.88 140.393C501.587 138.875 505.052 138.117 509.277 138.117C511.492 138.117 513.522 138.353 515.368 138.824C517.234 139.296 518.906 139.952 520.382 140.793C521.879 141.634 523.181 142.628 524.289 143.777C525.396 144.925 526.319 146.187 527.057 147.561C527.796 148.935 528.349 150.391 528.719 151.929C529.088 153.446 529.272 154.995 529.272 156.574V157.835C529.272 160.316 528.821 162.654 527.919 164.849C527.016 167.022 525.714 168.93 524.012 170.57C522.31 172.19 520.218 173.482 517.737 174.446C515.276 175.39 512.466 175.861 509.308 175.861C507.052 175.861 505.032 175.656 503.248 175.246C501.484 174.836 499.936 174.262 498.603 173.523C497.27 172.765 496.132 171.862 495.188 170.816C494.245 169.771 493.466 168.622 492.85 167.371V186.228H488.175ZM524.535 156.235C524.535 154.513 524.227 152.78 523.612 151.037C522.997 149.293 522.043 147.735 520.751 146.361C519.459 144.966 517.798 143.838 515.768 142.977C513.758 142.095 511.359 141.654 508.57 141.654C506.437 141.654 504.56 141.87 502.94 142.3C501.341 142.71 499.956 143.285 498.787 144.023C497.639 144.741 496.675 145.592 495.896 146.576C495.137 147.54 494.532 148.586 494.081 149.714C493.63 150.842 493.312 152.011 493.127 153.221C492.943 154.431 492.85 155.63 492.85 156.82V157.466C492.85 162.347 494.183 166.048 496.849 168.571C499.536 171.093 503.432 172.354 508.539 172.354C511.246 172.354 513.594 171.955 515.583 171.155C517.593 170.334 519.254 169.258 520.567 167.925C521.9 166.592 522.894 165.064 523.551 163.341C524.207 161.619 524.535 159.845 524.535 158.02V156.235ZM571.599 162.757C571.599 161.526 571.333 160.439 570.799 159.496C570.266 158.553 569.518 157.763 568.554 157.127C567.59 156.471 566.441 155.979 565.108 155.651C563.775 155.302 562.299 155.128 560.679 155.128H544.898V171.493H560.771C562.207 171.493 563.581 171.38 564.893 171.155C566.206 170.929 567.354 170.529 568.338 169.955C569.343 169.36 570.133 168.561 570.707 167.556C571.302 166.551 571.599 165.259 571.599 163.68V162.757ZM544.898 138.978V151.621H560.771C563.437 151.621 565.744 151.888 567.692 152.421C569.641 152.934 571.25 153.682 572.522 154.667C573.793 155.63 574.737 156.799 575.352 158.173C575.967 159.547 576.275 161.085 576.275 162.788V163.833C576.275 165.659 575.916 167.269 575.198 168.663C574.48 170.058 573.465 171.227 572.153 172.17C570.861 173.113 569.292 173.821 567.446 174.292C565.601 174.764 563.55 175 561.294 175H540.253V138.978H544.898ZM588.394 158.266C588.394 160.029 588.701 161.762 589.317 163.464C589.932 165.167 590.896 166.684 592.208 168.017C593.541 169.35 595.254 170.427 597.345 171.247C599.458 172.047 602.011 172.447 605.005 172.447C607.302 172.447 609.322 172.19 611.065 171.678C612.808 171.165 614.275 170.499 615.464 169.678C616.674 168.837 617.617 167.894 618.294 166.848C618.991 165.802 619.453 164.756 619.678 163.71L624.17 163.741C623.821 165.197 623.216 166.653 622.355 168.109C621.514 169.545 620.335 170.837 618.817 171.985C617.32 173.134 615.444 174.067 613.188 174.785C610.932 175.502 608.215 175.861 605.036 175.861C601.324 175.861 598.125 175.4 595.438 174.477C592.752 173.534 590.537 172.221 588.794 170.54C587.051 168.837 585.759 166.807 584.918 164.449C584.077 162.09 583.656 159.486 583.656 156.635V156.112C583.656 153.528 584.108 151.139 585.01 148.945C585.912 146.75 587.245 144.854 589.009 143.254C590.793 141.634 593.008 140.373 595.654 139.47C598.299 138.568 601.375 138.117 604.882 138.117C608.327 138.117 611.301 138.588 613.803 139.532C616.325 140.455 618.397 141.747 620.017 143.408C621.657 145.048 622.867 146.997 623.647 149.252C624.426 151.488 624.816 153.908 624.816 156.512C624.836 156.82 624.836 157.117 624.816 157.404C624.795 157.691 624.785 157.979 624.785 158.266H588.394ZM588.363 155.128H620.294V154.882C620.212 152.831 619.853 150.975 619.217 149.314C618.581 147.653 617.628 146.238 616.356 145.069C615.105 143.879 613.516 142.967 611.588 142.331C609.681 141.695 607.405 141.377 604.759 141.377C602.729 141.377 600.914 141.572 599.314 141.962C597.715 142.352 596.31 142.875 595.1 143.531C593.91 144.187 592.895 144.956 592.054 145.838C591.214 146.699 590.527 147.622 589.993 148.606C589.46 149.57 589.06 150.555 588.794 151.56C588.548 152.564 588.404 153.528 588.363 154.451V155.128ZM635.612 186.228V138.978H640.288V146.761C641.6 144.013 643.61 141.89 646.317 140.393C649.024 138.875 652.49 138.117 656.714 138.117C658.929 138.117 660.959 138.353 662.805 138.824C664.671 139.296 666.343 139.952 667.819 140.793C669.316 141.634 670.619 142.628 671.726 143.777C672.833 144.925 673.756 146.187 674.495 147.561C675.233 148.935 675.787 150.391 676.156 151.929C676.525 153.446 676.709 154.995 676.709 156.574V157.835C676.709 160.316 676.258 162.654 675.356 164.849C674.454 167.022 673.151 168.93 671.449 170.57C669.747 172.19 667.655 173.482 665.174 174.446C662.713 175.39 659.903 175.861 656.745 175.861C654.489 175.861 652.469 175.656 650.685 175.246C648.921 174.836 647.373 174.262 646.04 173.523C644.707 172.765 643.569 171.862 642.625 170.816C641.682 169.771 640.903 168.622 640.288 167.371V186.228H635.612ZM671.972 156.235C671.972 154.513 671.665 152.78 671.049 151.037C670.434 149.293 669.48 147.735 668.188 146.361C666.896 144.966 665.235 143.838 663.205 142.977C661.195 142.095 658.796 141.654 656.007 141.654C653.874 141.654 651.998 141.87 650.377 142.3C648.778 142.71 647.394 143.285 646.225 144.023C645.076 144.741 644.112 145.592 643.333 146.576C642.574 147.54 641.969 148.586 641.518 149.714C641.067 150.842 640.749 152.011 640.564 153.221C640.38 154.431 640.288 155.63 640.288 156.82V157.466C640.288 162.347 641.621 166.048 644.287 168.571C646.973 171.093 650.87 172.354 655.976 172.354C658.683 172.354 661.031 171.955 663.021 171.155C665.03 170.334 666.691 169.258 668.004 167.925C669.337 166.592 670.332 165.064 670.988 163.341C671.644 161.619 671.972 159.845 671.972 158.02V156.235ZM687.629 175V138.978H692.304V155.62H724.204V138.978H728.88V175H724.204V159.373H692.304V175H687.629ZM793.602 138.793V175H789.141V138.793H793.602ZM774.683 162.757C774.683 161.526 774.417 160.439 773.883 159.496C773.35 158.553 772.602 157.763 771.638 157.127C770.674 156.471 769.525 155.979 768.192 155.651C766.859 155.302 765.383 155.128 763.763 155.128H747.982V171.493H763.855C765.291 171.493 766.665 171.38 767.977 171.155C769.29 170.929 770.438 170.529 771.422 169.955C772.427 169.36 773.217 168.561 773.791 167.556C774.386 166.551 774.683 165.259 774.683 163.68V162.757ZM747.982 138.978V151.621H763.855C766.521 151.621 768.828 151.888 770.776 152.421C772.725 152.934 774.334 153.682 775.606 154.667C776.877 155.63 777.821 156.799 778.436 158.173C779.051 159.547 779.359 161.085 779.359 162.788V163.833C779.359 165.659 779 167.269 778.282 168.663C777.564 170.058 776.549 171.227 775.237 172.17C773.945 173.113 772.376 173.821 770.53 174.292C768.685 174.764 766.634 175 764.378 175H743.337V138.978H747.982ZM810.796 158.266C810.796 160.029 811.104 161.762 811.719 163.464C812.334 165.167 813.298 166.684 814.611 168.017C815.944 169.35 817.656 170.427 819.748 171.247C821.86 172.047 824.413 172.447 827.407 172.447C829.704 172.447 831.724 172.19 833.467 171.678C835.211 171.165 836.677 170.499 837.866 169.678C839.076 168.837 840.02 167.894 840.696 166.848C841.394 165.802 841.855 164.756 842.081 163.71L846.572 163.741C846.223 165.197 845.618 166.653 844.757 168.109C843.916 169.545 842.737 170.837 841.219 171.985C839.722 173.134 837.846 174.067 835.59 174.785C833.334 175.502 830.617 175.861 827.438 175.861C823.726 175.861 820.527 175.4 817.841 174.477C815.154 173.534 812.939 172.221 811.196 170.54C809.453 168.837 808.161 166.807 807.32 164.449C806.479 162.09 806.059 159.486 806.059 156.635V156.112C806.059 153.528 806.51 151.139 807.412 148.945C808.315 146.75 809.648 144.854 811.411 143.254C813.195 141.634 815.41 140.373 818.056 139.47C820.701 138.568 823.778 138.117 827.284 138.117C830.73 138.117 833.703 138.588 836.205 139.532C838.728 140.455 840.799 141.747 842.419 143.408C844.06 145.048 845.27 146.997 846.049 149.252C846.828 151.488 847.218 153.908 847.218 156.512C847.238 156.82 847.238 157.117 847.218 157.404C847.197 157.691 847.187 157.979 847.187 158.266H810.796ZM810.765 155.128H842.696V154.882C842.614 152.831 842.255 150.975 841.619 149.314C840.984 147.653 840.03 146.238 838.758 145.069C837.508 143.879 835.918 142.967 833.99 142.331C832.083 141.695 829.807 141.377 827.161 141.377C825.131 141.377 823.316 141.572 821.716 141.962C820.117 142.352 818.712 142.875 817.502 143.531C816.313 144.187 815.298 144.956 814.457 145.838C813.616 146.699 812.929 147.622 812.396 148.606C811.862 149.57 811.463 150.555 811.196 151.56C810.95 152.564 810.806 153.528 810.765 154.451V155.128Z" fill="white"/>
<path d="M117.678 489.528L135.306 489.528L135.306 516.75L130.938 516.75L130.938 493.194L122.046 493.194L122.046 516.75L117.678 516.75L117.678 489.528ZM140.868 513.318L143.481 513.318C143.819 512.876 144.118 512.369 144.378 511.797C144.664 511.199 144.885 510.484 145.041 509.652C145.223 508.82 145.353 507.858 145.431 506.766C145.535 505.674 145.587 504.4 145.587 502.944L145.587 496.626L159.822 496.626L159.822 516.75L155.571 516.75L155.571 500.058L149.565 500.058L149.565 503.022C149.565 506.428 149.318 509.093 148.824 511.017C148.33 512.941 147.654 514.345 146.796 515.229C146.198 515.853 145.509 516.269 144.729 516.477C143.949 516.659 143.13 516.75 142.272 516.75L140.868 516.75L140.868 513.318ZM184.259 516.75C183.037 516.75 182.114 516.438 181.49 515.814C180.892 515.19 180.528 514.371 180.398 513.357L180.203 513.357C179.813 514.579 179.098 515.528 178.058 516.204C177.044 516.88 175.744 517.218 174.158 517.218C172.104 517.218 170.466 516.685 169.244 515.619C168.022 514.527 167.411 513.032 167.411 511.134C167.411 509.184 168.126 507.702 169.556 506.688C171.012 505.648 173.235 505.128 176.225 505.128L180.086 505.128L180.086 503.568C180.086 500.838 178.643 499.473 175.757 499.473C174.457 499.473 173.404 499.733 172.598 500.253C171.792 500.747 171.116 501.41 170.57 502.242L168.035 500.175C168.607 499.083 169.569 498.147 170.921 497.367C172.273 496.561 174.015 496.158 176.147 496.158C178.695 496.158 180.697 496.769 182.153 497.991C183.609 499.213 184.337 500.981 184.337 503.295L184.337 513.396L186.872 513.396L186.872 516.75L184.259 516.75ZM175.367 514.098C176.745 514.098 177.876 513.786 178.76 513.162C179.644 512.538 180.086 511.732 180.086 510.744L180.086 507.819L176.303 507.819C173.235 507.819 171.701 508.742 171.701 510.588L171.701 511.368C171.701 512.278 172.026 512.967 172.676 513.435C173.326 513.877 174.223 514.098 175.367 514.098ZM193.799 496.626L198.05 496.626L198.05 504.738L201.677 504.738L206.513 496.626L211.076 496.626L206.591 503.958C206.149 504.712 205.72 505.245 205.304 505.557C204.888 505.869 204.407 506.09 203.861 506.22L203.861 506.415C204.485 506.545 205.005 506.779 205.421 507.117C205.837 507.429 206.266 507.975 206.708 508.755L209.243 513.318L211.427 513.318L211.427 516.75L208.931 516.75C208.073 516.75 207.332 516.555 206.708 516.165C206.11 515.749 205.551 515.086 205.031 514.176L201.677 508.17L198.05 508.17L198.05 516.75L193.799 516.75L193.799 496.626ZM234.539 516.751C233.317 516.751 232.394 516.438 231.77 515.814C231.172 515.19 230.808 514.371 230.678 513.357L230.483 513.357C230.093 514.579 229.378 515.528 228.338 516.204C227.324 516.88 226.024 517.218 224.438 517.218C222.384 517.218 220.746 516.685 219.524 515.619C218.302 514.527 217.691 513.032 217.691 511.134C217.691 509.184 218.406 507.702 219.836 506.688C221.292 505.648 223.515 505.128 226.505 505.128L230.366 505.128L230.366 503.568C230.366 500.838 228.923 499.473 226.037 499.473C224.737 499.473 223.684 499.733 222.878 500.253C222.072 500.747 221.396 501.41 220.85 502.242L218.315 500.175C218.887 499.083 219.849 498.147 221.201 497.367C222.553 496.561 224.295 496.158 226.427 496.158C228.975 496.158 230.977 496.769 232.433 497.991C233.889 499.213 234.617 500.981 234.617 503.295L234.617 513.397L237.152 513.397L237.152 516.751L234.539 516.751ZM225.647 514.098C227.025 514.098 228.156 513.786 229.04 513.162C229.924 512.538 230.366 511.732 230.366 510.744L230.366 507.819L226.583 507.819C223.515 507.819 221.981 508.742 221.981 510.588L221.981 511.368C221.981 512.278 222.306 512.967 222.956 513.435C223.606 513.877 224.503 514.098 225.647 514.098ZM250.046 500.059L242.987 500.058L242.987 496.626L261.395 496.627L261.395 500.059L254.297 500.059L254.297 516.751L250.046 516.751L250.046 500.059ZM267.346 496.627L271.207 496.627L271.207 503.257L274.054 503.257C276.108 503.257 277.759 503.842 279.007 505.012C280.281 506.182 280.918 507.846 280.918 510.004C280.918 512.162 280.281 513.826 279.007 514.996C277.759 516.166 276.108 516.751 274.054 516.751L267.346 516.751L267.346 496.627ZM273.781 513.553C274.769 513.553 275.536 513.332 276.082 512.89C276.654 512.422 276.94 511.694 276.94 510.706L276.94 509.302C276.94 508.314 276.654 507.599 276.082 507.157C275.536 506.689 274.769 506.455 273.781 506.455L271.207 506.455L271.207 513.553L273.781 513.553ZM283.453 496.627L287.314 496.627L287.314 516.751L283.453 516.751L283.453 496.627ZM319.147 496.627L323.359 496.627L323.359 505.285L322.969 510.745L323.164 510.745L332.056 496.627L336.073 496.627L336.073 516.751L331.861 516.751L331.861 508.093L332.251 502.633L332.056 502.633L323.164 516.751L319.147 516.751L319.147 496.627ZM352.204 517.219C350.02 517.219 348.2 516.881 346.744 516.205C345.288 515.529 344.131 514.593 343.273 513.397L346.003 510.979C346.679 511.915 347.498 512.63 348.46 513.124C349.448 513.592 350.683 513.826 352.165 513.826C353.725 513.826 354.882 513.566 355.636 513.046C356.39 512.526 356.767 511.85 356.767 511.018L356.767 510.628C356.767 509.796 356.507 509.159 355.987 508.717C355.467 508.275 354.674 508.054 353.608 508.054L348.499 508.054L348.499 504.934L353.179 504.934C354.271 504.934 355.064 504.726 355.558 504.31C356.078 503.868 356.338 503.257 356.338 502.477L356.338 502.087C356.338 501.333 356.013 500.722 355.363 500.254C354.713 499.786 353.634 499.552 352.126 499.552C350.722 499.552 349.565 499.786 348.655 500.254C347.745 500.696 346.952 501.346 346.276 502.204L343.663 500.098C344.625 498.85 345.782 497.888 347.134 497.212C348.512 496.51 350.293 496.159 352.477 496.159C355.181 496.159 357.235 496.666 358.639 497.68C360.043 498.668 360.745 499.981 360.745 501.619C360.745 502.815 360.394 503.79 359.692 504.544C359.016 505.298 358.067 505.818 356.845 506.104L356.845 506.26C358.171 506.468 359.211 506.988 359.965 507.82C360.745 508.626 361.135 509.692 361.135 511.018C361.135 512.89 360.355 514.398 358.795 515.542C357.235 516.66 355.038 517.219 352.204 517.219ZM402.483 517.219C400.299 517.219 398.479 516.881 397.023 516.205C395.567 515.529 394.41 514.593 393.552 513.397L396.282 510.979C396.958 511.915 397.777 512.63 398.739 513.124C399.727 513.592 400.962 513.826 402.444 513.826C404.004 513.826 405.161 513.566 405.915 513.046C406.669 512.526 407.046 511.85 407.046 511.018L407.046 510.628C407.046 509.796 406.786 509.159 406.266 508.717C405.746 508.275 404.953 508.054 403.887 508.054L398.778 508.054L398.778 504.934L403.458 504.934C404.55 504.934 405.343 504.726 405.837 504.31C406.357 503.868 406.617 503.257 406.617 502.477L406.617 502.087C406.617 501.333 406.292 500.722 405.642 500.254C404.992 499.786 403.913 499.552 402.405 499.552C401.001 499.552 399.844 499.786 398.934 500.254C398.024 500.696 397.231 501.346 396.555 502.204L393.942 500.098C394.904 498.85 396.061 497.888 397.413 497.212C398.791 496.51 400.572 496.159 402.756 496.159C405.46 496.159 407.514 496.666 408.918 497.68C410.322 498.668 411.024 499.981 411.024 501.619C411.024 502.815 410.673 503.79 409.971 504.544C409.295 505.298 408.346 505.818 407.124 506.104L407.124 506.26C408.45 506.468 409.49 506.988 410.244 507.82C411.024 508.626 411.414 509.692 411.414 511.018C411.414 512.89 410.634 514.398 409.074 515.542C407.514 516.66 405.317 517.219 402.483 517.219ZM420.174 496.627L430.977 496.627C432.719 496.627 434.071 497.095 435.033 498.031C435.995 498.941 436.476 500.163 436.476 501.697C436.476 504.193 435.111 505.649 432.381 506.065L432.381 506.26C434.045 506.39 435.267 506.871 436.047 507.703C436.827 508.509 437.217 509.575 437.217 510.901C437.217 511.707 437.074 512.461 436.788 513.163C436.528 513.865 436.138 514.489 435.618 515.035C435.098 515.555 434.448 515.971 433.668 516.283C432.914 516.595 432.056 516.751 431.094 516.751L420.174 516.751L420.174 496.627ZM430.197 513.553C431.029 513.553 431.679 513.358 432.147 512.968C432.615 512.552 432.849 511.967 432.849 511.213L432.849 510.277C432.849 509.523 432.615 508.938 432.147 508.522C431.705 508.106 431.107 507.898 430.353 507.898L424.425 507.898L424.425 513.553L430.197 513.553ZM429.807 505.051C430.509 505.051 431.068 504.856 431.484 504.466C431.9 504.076 432.108 503.543 432.108 502.867L432.108 502.009C432.108 501.333 431.9 500.8 431.484 500.41C431.068 500.02 430.509 499.825 429.807 499.825L424.425 499.825L424.425 505.051L429.807 505.051ZM453.738 517.219C452.204 517.219 450.826 516.972 449.604 516.478C448.382 515.984 447.355 515.282 446.523 514.372C445.691 513.462 445.054 512.37 444.612 511.096C444.17 509.796 443.949 508.34 443.949 506.728C443.949 505.116 444.17 503.66 444.612 502.36C445.08 501.06 445.717 499.955 446.523 499.045C447.355 498.109 448.356 497.394 449.526 496.9C450.696 496.406 451.996 496.159 453.426 496.159C454.83 496.159 456.104 496.406 457.248 496.9C458.392 497.368 459.367 498.044 460.173 498.928C460.979 499.812 461.59 500.865 462.006 502.087C462.448 503.309 462.669 504.661 462.669 506.143L462.669 507.742L448.239 507.742L448.239 508.405C448.239 509.991 448.733 511.291 449.721 512.305C450.709 513.293 452.074 513.787 453.816 513.787C455.116 513.787 456.221 513.514 457.131 512.968C458.067 512.396 458.821 511.642 459.393 510.706L462.045 513.046C461.369 514.216 460.329 515.204 458.925 516.01C457.547 516.816 455.818 517.219 453.738 517.219ZM453.426 499.396C452.672 499.396 451.97 499.526 451.32 499.786C450.696 500.046 450.15 500.423 449.682 500.917C449.24 501.385 448.889 501.944 448.629 502.594C448.369 503.244 448.239 503.959 448.239 504.739L448.239 505.012L458.34 505.012L458.34 504.622C458.34 503.036 457.885 501.775 456.975 500.839C456.091 499.877 454.908 499.396 453.426 499.396ZM477.903 517.219C475.719 517.219 473.899 516.881 472.443 516.205C470.987 515.529 469.83 514.593 468.972 513.397L471.702 510.979C472.378 511.915 473.197 512.63 474.159 513.124C475.147 513.592 476.382 513.826 477.864 513.826C479.424 513.826 480.581 513.566 481.335 513.046C482.089 512.526 482.466 511.85 482.466 511.018L482.466 510.628C482.466 509.796 482.206 509.159 481.686 508.717C481.166 508.275 480.373 508.054 479.307 508.054L474.198 508.054L474.198 504.934L478.878 504.934C479.97 504.934 480.763 504.726 481.257 504.31C481.777 503.868 482.037 503.257 482.037 502.477L482.037 502.087C482.037 501.333 481.712 500.722 481.062 500.254C480.412 499.786 479.333 499.552 477.825 499.552C476.421 499.552 475.264 499.786 474.354 500.254C473.444 500.696 472.651 501.346 471.975 502.204L469.362 500.098C470.324 498.85 471.481 497.888 472.833 497.212C474.211 496.51 475.992 496.159 478.176 496.159C480.88 496.159 482.934 496.666 484.338 497.68C485.742 498.668 486.444 499.981 486.444 501.619C486.444 502.815 486.093 503.79 485.391 504.544C484.715 505.298 483.766 505.818 482.544 506.104L482.544 506.26C483.87 506.468 484.91 506.988 485.664 507.82C486.444 508.626 486.834 509.692 486.834 511.018C486.834 512.89 486.054 514.398 484.494 515.542C482.934 516.66 480.737 517.219 477.903 517.219ZM492.551 513.319L494.852 513.319C495.606 512.123 496.204 510.68 496.646 508.99C497.088 507.274 497.309 505.246 497.309 502.906L497.309 496.627L511.037 496.627L511.037 513.319L514.274 513.319L514.274 522.211L510.452 522.211L510.452 516.751L496.373 516.751L496.373 522.211L492.551 522.211L492.551 513.319ZM506.864 513.319L506.864 500.059L501.287 500.059L501.287 503.062C501.287 505.35 501.105 507.326 500.741 508.99C500.403 510.628 499.896 512.071 499.22 513.319L506.864 513.319ZM520.304 496.627L524.555 496.627L524.555 504.739L532.901 504.739L532.901 496.627L537.152 496.627L537.152 516.751L532.901 516.751L532.901 508.171L524.555 508.171L524.555 516.751L520.304 516.751L520.304 496.627ZM553.868 517.219C552.386 517.219 551.047 516.972 549.851 516.478C548.681 515.984 547.68 515.282 546.848 514.372C546.042 513.462 545.418 512.357 544.976 511.057C544.534 509.757 544.313 508.301 544.313 506.689C544.313 505.077 544.534 503.621 544.976 502.321C545.418 501.021 546.042 499.916 546.848 499.006C547.68 498.096 548.681 497.394 549.851 496.9C551.047 496.406 552.386 496.159 553.868 496.159C555.35 496.159 556.676 496.406 557.846 496.9C559.042 497.394 560.043 498.096 560.849 499.006C561.681 499.916 562.318 501.021 562.76 502.321C563.202 503.621 563.423 505.077 563.423 506.689C563.423 508.301 563.202 509.757 562.76 511.057C562.318 512.357 561.681 513.462 560.849 514.372C560.043 515.282 559.042 515.984 557.846 516.478C556.676 516.972 555.35 517.219 553.868 517.219ZM553.868 513.865C555.428 513.865 556.663 513.397 557.573 512.461C558.509 511.499 558.977 510.082 558.977 508.21L558.977 505.168C558.977 503.296 558.509 501.892 557.573 500.956C556.663 499.994 555.428 499.513 553.868 499.513C552.308 499.513 551.06 499.994 550.124 500.956C549.214 501.892 548.759 503.296 548.759 505.168L548.759 508.21C548.759 510.082 549.214 511.499 550.124 512.461C551.06 513.397 552.308 513.865 553.868 513.865ZM572.339 496.627L587.12 496.627L587.12 500.059L576.59 500.059L576.59 516.751L572.339 516.751L572.339 496.627ZM604.147 517.219C602.665 517.219 601.326 516.972 600.13 516.478C598.96 515.984 597.959 515.282 597.127 514.372C596.321 513.462 595.697 512.357 595.255 511.057C594.813 509.757 594.592 508.301 594.592 506.689C594.592 505.077 594.813 503.621 595.255 502.321C595.697 501.021 596.321 499.916 597.127 499.006C597.959 498.096 598.96 497.394 600.13 496.9C601.326 496.406 602.665 496.159 604.147 496.159C605.629 496.159 606.955 496.406 608.125 496.9C609.321 497.394 610.322 498.096 611.128 499.006C611.96 499.916 612.597 501.021 613.039 502.321C613.481 503.621 613.702 505.077 613.702 506.689C613.702 508.301 613.481 509.757 613.039 511.057C612.597 512.357 611.96 513.462 611.128 514.372C610.322 515.282 609.321 515.984 608.125 516.478C606.955 516.972 605.629 517.219 604.147 517.219ZM604.147 513.865C605.707 513.865 606.942 513.397 607.852 512.461C608.788 511.499 609.256 510.082 609.256 508.21L609.256 505.168C609.256 503.296 608.788 501.892 607.852 500.956C606.942 499.994 605.707 499.513 604.147 499.513C602.587 499.513 601.339 499.994 600.403 500.956C599.493 501.892 599.038 503.296 599.038 505.168L599.038 508.21C599.038 510.082 599.493 511.499 600.403 512.461C601.339 513.397 602.587 513.865 604.147 513.865ZM650.41 513.904C651.892 513.904 652.633 512.955 652.633 511.057L652.633 502.321C652.633 500.423 651.892 499.474 650.41 499.474C649.578 499.474 648.941 499.838 648.499 500.566C648.083 501.294 647.875 502.672 647.875 504.7L647.875 508.678C647.875 510.706 648.083 512.084 648.499 512.812C648.941 513.54 649.578 513.904 650.41 513.904ZM652.594 514.489L652.399 514.489C651.983 515.503 651.476 516.218 650.878 516.634C650.306 517.024 649.643 517.219 648.889 517.219C648.109 517.219 647.42 517.05 646.822 516.712C646.25 516.374 645.756 515.802 645.34 514.996C644.95 514.164 644.651 513.072 644.443 511.72C644.235 510.368 644.131 508.691 644.131 506.689C644.131 504.687 644.235 503.01 644.443 501.658C644.651 500.306 644.95 499.227 645.34 498.421C645.756 497.589 646.25 497.004 646.822 496.666C647.42 496.328 648.109 496.159 648.889 496.159C649.643 496.159 650.306 496.367 650.878 496.783C651.476 497.173 651.983 497.875 652.399 498.889L652.594 498.889L652.594 489.061L656.26 489.061L656.26 498.889L656.455 498.889C656.871 497.875 657.365 497.173 657.937 496.783C658.535 496.367 659.211 496.159 659.965 496.159C660.745 496.159 661.421 496.328 661.993 496.666C662.591 497.004 663.085 497.589 663.475 498.421C663.891 499.227 664.203 500.306 664.411 501.658C664.619 503.01 664.723 504.687 664.723 506.689C664.723 508.691 664.619 510.368 664.411 511.72C664.203 513.072 663.891 514.164 663.475 514.996C663.085 515.802 662.591 516.374 661.993 516.712C661.421 517.05 660.745 517.219 659.965 517.219C659.211 517.219 658.535 517.024 657.937 516.634C657.365 516.218 656.871 515.503 656.455 514.489L656.26 514.489L656.26 524.551L652.594 524.551L652.594 514.489ZM658.444 513.904C659.276 513.904 659.9 513.54 660.316 512.812C660.758 512.084 660.979 510.706 660.979 508.678L660.979 504.7C660.979 502.672 660.758 501.294 660.316 500.566C659.9 499.838 659.276 499.474 658.444 499.474C656.962 499.474 656.221 500.423 656.221 502.321L656.221 511.057C656.221 512.955 656.962 513.904 658.444 513.904ZM679.567 517.219C678.085 517.219 676.746 516.972 675.55 516.478C674.38 515.984 673.379 515.282 672.547 514.372C671.741 513.462 671.117 512.357 670.675 511.057C670.233 509.757 670.012 508.301 670.012 506.689C670.012 505.077 670.233 503.621 670.675 502.321C671.117 501.021 671.741 499.916 672.547 499.006C673.379 498.096 674.38 497.394 675.55 496.9C676.746 496.406 678.085 496.159 679.567 496.159C681.049 496.159 682.375 496.406 683.545 496.9C684.741 497.394 685.742 498.096 686.548 499.006C687.38 499.916 688.017 501.021 688.459 502.321C688.901 503.621 689.122 505.077 689.122 506.689C689.122 508.301 688.901 509.757 688.459 511.057C688.017 512.357 687.38 513.462 686.548 514.372C685.742 515.282 684.741 515.984 683.545 516.478C682.375 516.972 681.049 517.219 679.567 517.219ZM679.567 513.865C681.127 513.865 682.362 513.397 683.272 512.461C684.208 511.499 684.676 510.082 684.676 508.21L684.676 505.168C684.676 503.296 684.208 501.892 683.272 500.956C682.362 499.994 681.127 499.513 679.567 499.513C678.007 499.513 676.759 499.994 675.823 500.956C674.913 501.892 674.458 503.296 674.458 505.168L674.458 508.21C674.458 510.082 674.913 511.499 675.823 512.461C676.759 513.397 678.007 513.865 679.567 513.865ZM705.447 517.219C703.939 517.219 702.587 516.972 701.391 516.478C700.221 515.984 699.22 515.282 698.388 514.372C697.582 513.462 696.958 512.357 696.516 511.057C696.1 509.757 695.892 508.301 695.892 506.689C695.892 505.077 696.1 503.621 696.516 502.321C696.958 501.021 697.582 499.916 698.388 499.006C699.22 498.096 700.221 497.394 701.391 496.9C702.587 496.406 703.926 496.159 705.408 496.159C707.488 496.159 709.152 496.601 710.4 497.485C711.674 498.369 712.623 499.513 713.247 500.917L709.932 502.711C709.568 501.775 709.009 501.034 708.255 500.488C707.527 499.942 706.578 499.669 705.408 499.669C703.796 499.669 702.548 500.163 701.664 501.151C700.78 502.113 700.338 503.4 700.338 505.012L700.338 508.366C700.338 509.952 700.78 511.239 701.664 512.227C702.548 513.215 703.822 513.709 705.486 513.709C706.734 513.709 707.748 513.423 708.528 512.851C709.334 512.279 709.971 511.499 710.439 510.511L713.559 512.422C712.909 513.826 711.921 514.983 710.595 515.893C709.269 516.777 707.553 517.219 705.447 517.219ZM725.829 513.904C727.311 513.904 728.052 512.955 728.052 511.057L728.052 502.321C728.052 500.423 727.311 499.474 725.829 499.474C724.997 499.474 724.36 499.838 723.918 500.566C723.502 501.294 723.294 502.672 723.294 504.7L723.294 508.678C723.294 510.706 723.502 512.084 723.918 512.812C724.36 513.54 724.997 513.904 725.829 513.904ZM728.013 514.489L727.818 514.489C727.402 515.503 726.895 516.218 726.297 516.634C725.725 517.024 725.062 517.219 724.308 517.219C723.528 517.219 722.839 517.05 722.241 516.712C721.669 516.374 721.175 515.802 720.759 514.996C720.369 514.164 720.07 513.072 719.862 511.72C719.654 510.368 719.55 508.691 719.55 506.689C719.55 504.687 719.654 503.01 719.862 501.658C720.07 500.306 720.369 499.227 720.759 498.421C721.175 497.589 721.669 497.004 722.241 496.666C722.839 496.328 723.528 496.159 724.308 496.159C725.062 496.159 725.725 496.367 726.297 496.783C726.895 497.173 727.402 497.875 727.818 498.889L728.013 498.889L728.013 489.061L731.679 489.061L731.679 498.889L731.874 498.889C732.29 497.875 732.784 497.173 733.356 496.783C733.954 496.367 734.63 496.159 735.384 496.159C736.164 496.159 736.84 496.328 737.412 496.666C738.01 497.004 738.504 497.589 738.894 498.421C739.31 499.227 739.622 500.306 739.83 501.658C740.038 503.01 740.142 504.687 740.142 506.689C740.142 508.691 740.038 510.368 739.83 511.72C739.622 513.072 739.31 514.164 738.894 514.996C738.504 515.802 738.01 516.374 737.412 516.712C736.84 517.05 736.164 517.219 735.384 517.219C734.63 517.219 733.954 517.024 733.356 516.634C732.784 516.218 732.29 515.503 731.874 514.489L731.679 514.489L731.679 524.551L728.013 524.551L728.013 514.489ZM733.863 513.904C734.695 513.904 735.319 513.54 735.735 512.812C736.177 512.084 736.398 510.706 736.398 508.678L736.398 504.7C736.398 502.672 736.177 501.294 735.735 500.566C735.319 499.838 734.695 499.474 733.863 499.474C732.381 499.474 731.64 500.423 731.64 502.321L731.64 511.057C731.64 512.955 732.381 513.904 733.863 513.904ZM754.986 517.219C753.504 517.219 752.165 516.972 750.969 516.478C749.799 515.984 748.798 515.282 747.966 514.372C747.16 513.462 746.536 512.357 746.094 511.057C745.652 509.757 745.431 508.301 745.431 506.689C745.431 505.077 745.652 503.621 746.094 502.321C746.536 501.021 747.16 499.916 747.966 499.006C748.798 498.096 749.799 497.394 750.969 496.9C752.165 496.406 753.504 496.159 754.986 496.159C756.468 496.159 757.794 496.406 758.964 496.9C760.16 497.394 761.161 498.096 761.967 499.006C762.799 499.916 763.436 501.021 763.878 502.321C764.32 503.621 764.541 505.077 764.541 506.689C764.541 508.301 764.32 509.757 763.878 511.057C763.436 512.357 762.799 513.462 761.967 514.372C761.161 515.282 760.16 515.984 758.964 516.478C757.794 516.972 756.468 517.219 754.986 517.219ZM754.986 513.865C756.546 513.865 757.781 513.397 758.691 512.461C759.627 511.499 760.095 510.082 760.095 508.21L760.095 505.168C760.095 503.296 759.627 501.892 758.691 500.956C757.781 499.994 756.546 499.513 754.986 499.513C753.426 499.513 752.178 499.994 751.242 500.956C750.332 501.892 749.877 503.296 749.877 505.168L749.877 508.21C749.877 510.082 750.332 511.499 751.242 512.461C752.178 513.397 753.426 513.865 754.986 513.865ZM771.507 496.627L775.758 496.627L775.758 500.059L775.992 500.059C776.59 498.837 777.383 497.888 778.371 497.212C779.359 496.51 780.594 496.159 782.076 496.159C784.442 496.159 786.327 497.043 787.731 498.811C789.135 500.579 789.837 503.205 789.837 506.689C789.837 510.173 789.135 512.799 787.731 514.567C786.327 516.335 784.442 517.219 782.076 517.219C780.594 517.219 779.359 516.881 778.371 516.205C777.383 515.503 776.59 514.541 775.992 513.319L775.758 513.319L775.758 524.551L771.507 524.551L771.507 496.627ZM780.321 513.748C781.933 513.748 783.168 513.254 784.026 512.266C784.91 511.278 785.352 509.965 785.352 508.327L785.352 505.051C785.352 503.413 784.91 502.1 784.026 501.112C783.168 500.124 781.933 499.63 780.321 499.63C779.697 499.63 779.112 499.708 778.566 499.864C778.02 500.02 777.539 500.254 777.123 500.566C776.707 500.878 776.369 501.268 776.109 501.736C775.875 502.178 775.758 502.711 775.758 503.335L775.758 510.043C775.758 510.667 775.875 511.213 776.109 511.681C776.369 512.123 776.707 512.5 777.123 512.812C777.539 513.124 778.02 513.358 778.566 513.514C779.112 513.67 779.697 513.748 780.321 513.748ZM812.754 516.751C811.532 516.751 810.609 516.439 809.985 515.815C809.387 515.191 809.023 514.372 808.893 513.358L808.698 513.358C808.308 514.58 807.593 515.529 806.553 516.205C805.539 516.881 804.239 517.219 802.653 517.219C800.599 517.219 798.961 516.686 797.739 515.62C796.517 514.528 795.906 513.033 795.906 511.135C795.906 509.185 796.621 507.703 798.051 506.689C799.507 505.649 801.73 505.129 804.72 505.129L808.581 505.129L808.581 503.569C808.581 500.839 807.138 499.474 804.252 499.474C802.952 499.474 801.899 499.734 801.093 500.254C800.287 500.748 799.611 501.411 799.065 502.243L796.53 500.176C797.102 499.084 798.064 498.148 799.416 497.368C800.768 496.562 802.51 496.159 804.642 496.159C807.19 496.159 809.192 496.77 810.648 497.992C812.104 499.214 812.832 500.982 812.832 503.296L812.832 513.397L815.367 513.397L815.367 516.751L812.754 516.751ZM803.862 514.099C805.24 514.099 806.371 513.787 807.255 513.163C808.139 512.539 808.581 511.733 808.581 510.745L808.581 507.82L804.798 507.82C801.73 507.82 800.196 508.743 800.196 510.589L800.196 511.369C800.196 512.279 800.521 512.968 801.171 513.436C801.821 513.878 802.718 514.099 803.862 514.099ZM855.545 517.219C854.063 517.219 852.724 516.972 851.528 516.478C850.358 515.984 849.357 515.282 848.525 514.372C847.719 513.462 847.095 512.357 846.653 511.057C846.211 509.757 845.99 508.301 845.99 506.689C845.99 505.077 846.211 503.621 846.653 502.321C847.095 501.021 847.719 499.916 848.525 499.006C849.357 498.096 850.358 497.394 851.528 496.9C852.724 496.406 854.063 496.159 855.545 496.159C857.027 496.159 858.353 496.406 859.523 496.9C860.719 497.394 861.72 498.096 862.526 499.006C863.358 499.916 863.995 501.021 864.437 502.321C864.879 503.621 865.1 505.077 865.1 506.689C865.1 508.301 864.879 509.757 864.437 511.057C863.995 512.357 863.358 513.462 862.526 514.372C861.72 515.282 860.719 515.984 859.523 516.478C858.353 516.972 857.027 517.219 855.545 517.219ZM855.545 513.865C857.105 513.865 858.34 513.397 859.25 512.461C860.186 511.499 860.654 510.082 860.654 508.21L860.654 505.168C860.654 503.296 860.186 501.892 859.25 500.956C858.34 499.994 857.105 499.513 855.545 499.513C853.985 499.513 852.737 499.994 851.801 500.956C850.891 501.892 850.436 503.296 850.436 505.168L850.436 508.21C850.436 510.082 850.891 511.499 851.801 512.461C852.737 513.397 853.985 513.865 855.545 513.865ZM881.426 517.219C879.918 517.219 878.566 516.972 877.37 516.478C876.2 515.984 875.199 515.282 874.367 514.372C873.561 513.462 872.937 512.357 872.495 511.057C872.079 509.757 871.871 508.301 871.871 506.689C871.871 505.077 872.079 503.621 872.495 502.321C872.937 501.021 873.561 499.916 874.367 499.006C875.199 498.096 876.2 497.394 877.37 496.9C878.566 496.406 879.905 496.159 881.387 496.159C883.467 496.159 885.131 496.601 886.379 497.485C887.653 498.369 888.602 499.513 889.226 500.917L885.911 502.711C885.547 501.775 884.988 501.034 884.234 500.488C883.506 499.942 882.557 499.669 881.387 499.669C879.775 499.669 878.527 500.163 877.643 501.151C876.759 502.113 876.317 503.4 876.317 505.012L876.317 508.366C876.317 509.952 876.759 511.239 877.643 512.227C878.527 513.215 879.801 513.709 881.465 513.709C882.713 513.709 883.727 513.423 884.507 512.851C885.313 512.279 885.95 511.499 886.418 510.511L889.538 512.422C888.888 513.826 887.9 514.983 886.574 515.893C885.248 516.777 883.532 517.219 881.426 517.219ZM897.83 496.627L908.633 496.627C910.375 496.627 911.727 497.095 912.689 498.031C913.651 498.941 914.132 500.163 914.132 501.697C914.132 504.193 912.767 505.649 910.037 506.065L910.037 506.26C911.701 506.39 912.923 506.871 913.703 507.703C914.483 508.509 914.873 509.575 914.873 510.901C914.873 511.707 914.73 512.461 914.444 513.163C914.184 513.865 913.794 514.489 913.274 515.035C912.754 515.555 912.104 515.971 911.324 516.283C910.57 516.595 909.712 516.751 908.75 516.751L897.83 516.751L897.83 496.627ZM907.853 513.553C908.685 513.553 909.335 513.358 909.803 512.968C910.271 512.552 910.505 511.967 910.505 511.213L910.505 510.277C910.505 509.523 910.271 508.938 909.803 508.522C909.361 508.106 908.763 507.898 908.009 507.898L902.081 507.898L902.081 513.553L907.853 513.553ZM907.463 505.051C908.165 505.051 908.724 504.856 909.14 504.466C909.556 504.076 909.764 503.543 909.764 502.867L909.764 502.009C909.764 501.333 909.556 500.8 909.14 500.41C908.724 500.02 908.165 499.825 907.463 499.825L902.081 499.825L902.081 505.051L907.463 505.051ZM931.393 517.219C929.859 517.219 928.481 516.972 927.259 516.478C926.037 515.984 925.01 515.282 924.178 514.372C923.346 513.462 922.709 512.37 922.267 511.096C921.825 509.796 921.604 508.34 921.604 506.728C921.604 505.116 921.825 503.66 922.267 502.36C922.735 501.06 923.372 499.955 924.178 499.045C925.01 498.109 926.011 497.394 927.181 496.9C928.351 496.406 929.651 496.159 931.081 496.159C932.485 496.159 933.759 496.406 934.903 496.9C936.047 497.368 937.022 498.044 937.828 498.928C938.634 499.812 939.245 500.865 939.661 502.087C940.103 503.309 940.324 504.661 940.324 506.143L940.324 507.742L925.894 507.742L925.894 508.405C925.894 509.991 926.388 511.291 927.376 512.305C928.364 513.293 929.729 513.787 931.471 513.787C932.771 513.787 933.876 513.514 934.786 512.968C935.722 512.396 936.476 511.642 937.048 510.706L939.7 513.046C939.024 514.216 937.984 515.204 936.58 516.01C935.202 516.816 933.473 517.219 931.393 517.219ZM931.081 499.396C930.327 499.396 929.625 499.526 928.975 499.786C928.351 500.046 927.805 500.423 927.337 500.917C926.895 501.385 926.544 501.944 926.284 502.594C926.024 503.244 925.894 503.959 925.894 504.739L925.894 505.012L935.995 505.012L935.995 504.622C935.995 503.036 935.54 501.775 934.63 500.839C933.746 499.877 932.563 499.396 931.081 499.396ZM953.959 500.059L946.9 500.059L946.9 496.627L965.308 496.627L965.308 500.059L958.21 500.059L958.21 516.751L953.959 516.751L953.959 500.059ZM971.806 513.319L974.107 513.319L975.55 510.667C975.862 510.069 976.226 509.64 976.642 509.38C977.058 509.094 977.565 508.925 978.163 508.873L978.163 508.717C976.499 508.587 975.147 508.054 974.107 507.118C973.067 506.182 972.547 504.804 972.547 502.984C972.547 502.022 972.703 501.151 973.015 500.371C973.327 499.591 973.769 498.928 974.341 498.382C974.939 497.81 975.641 497.381 976.447 497.095C977.279 496.783 978.202 496.627 979.216 496.627L989.2 496.627L989.2 516.751L984.949 516.751L984.949 509.263L981.166 509.263L978.553 514.021C978.033 515.009 977.461 515.711 976.837 516.127C976.213 516.543 975.407 516.751 974.419 516.751L971.806 516.751L971.806 513.319ZM984.949 499.942L979.996 499.942C979.008 499.942 978.241 500.176 977.695 500.644C977.175 501.086 976.915 501.71 976.915 502.516L976.915 503.53C976.915 504.336 977.175 504.973 977.695 505.441C978.241 505.883 979.008 506.104 979.996 506.104L984.949 506.104L984.949 499.942ZM1004.24 500.059L997.18 500.059L997.18 496.627L1015.59 496.627L1015.59 500.059L1008.49 500.059L1008.49 516.751L1004.24 516.751L1004.24 500.059ZM319.225 563.627L335.995 563.627L335.995 583.751L331.744 583.751L331.744 567.059L323.476 567.059L323.476 583.751L319.225 583.751L319.225 563.627ZM358.639 563.627L362.929 563.627L353.179 587.651C352.659 588.951 351.97 589.926 351.112 590.576C350.28 591.226 349.071 591.551 347.485 591.551L344.092 591.551L344.092 588.119L348.85 588.119L350.683 583.478L342.571 563.627L347.017 563.627L350.215 572.051L352.711 578.954L352.945 578.954L355.441 572.051L358.639 563.627ZM375.745 567.059L368.686 567.059L368.686 563.627L387.094 563.627L387.094 567.059L379.996 567.059L379.996 583.751L375.745 583.751L375.745 567.059ZM395.229 563.627L399.48 563.627L399.48 570.257L405.213 570.257C407.293 570.257 408.957 570.842 410.205 572.012C411.453 573.182 412.077 574.846 412.077 577.004C412.077 579.162 411.453 580.826 410.205 581.996C408.957 583.166 407.293 583.751 405.213 583.751L395.229 583.751L395.229 563.627ZM404.472 580.436C405.46 580.436 406.24 580.202 406.812 579.734C407.41 579.266 407.709 578.577 407.709 577.667L407.709 576.341C407.709 575.431 407.41 574.742 406.812 574.274C406.24 573.806 405.46 573.572 404.472 573.572L399.48 573.572L399.48 580.436L404.472 580.436ZM444.885 563.627L449.136 563.627L449.136 571.739L457.482 571.739L457.482 563.627L461.733 563.627L461.733 583.751L457.482 583.751L457.482 575.171L449.136 575.171L449.136 583.751L444.885 583.751L444.885 563.627ZM485.937 583.751C484.715 583.751 483.792 583.439 483.168 582.815C482.57 582.191 482.206 581.372 482.076 580.358L481.881 580.358C481.491 581.58 480.776 582.529 479.736 583.205C478.722 583.881 477.422 584.219 475.836 584.219C473.782 584.219 472.144 583.686 470.922 582.62C469.7 581.528 469.089 580.033 469.089 578.135C469.089 576.185 469.804 574.703 471.234 573.689C472.69 572.649 474.913 572.129 477.903 572.129L481.764 572.129L481.764 570.569C481.764 567.839 480.321 566.474 477.435 566.474C476.135 566.474 475.082 566.734 474.276 567.254C473.47 567.748 472.794 568.411 472.248 569.243L469.713 567.176C470.285 566.084 471.247 565.148 472.599 564.368C473.951 563.562 475.693 563.159 477.825 563.159C480.373 563.159 482.375 563.77 483.831 564.992C485.287 566.214 486.015 567.982 486.015 570.296L486.015 580.397L488.55 580.397L488.55 583.751L485.937 583.751ZM477.045 581.099C478.423 581.099 479.554 580.787 480.438 580.163C481.322 579.539 481.764 578.733 481.764 577.745L481.764 574.82L477.981 574.82C474.913 574.82 473.379 575.743 473.379 577.589L473.379 578.369C473.379 579.279 473.704 579.968 474.354 580.436C475.004 580.878 475.901 581.099 477.045 581.099ZM520.616 563.627L524.867 563.627L524.867 571.739L528.494 571.739L533.33 563.627L537.893 563.627L533.408 570.959C532.966 571.713 532.537 572.246 532.121 572.558C531.705 572.87 531.224 573.091 530.678 573.221L530.678 573.416C531.302 573.546 531.822 573.78 532.238 574.118C532.654 574.43 533.083 574.976 533.525 575.756L536.06 580.319L538.244 580.319L538.244 583.751L535.748 583.751C534.89 583.751 534.149 583.556 533.525 583.166C532.927 582.75 532.368 582.087 531.848 581.177L528.494 575.171L524.867 575.171L524.867 583.751L520.616 583.751L520.616 563.627ZM559.757 563.627L564.047 563.627L554.297 587.651C553.777 588.951 553.088 589.926 552.23 590.576C551.398 591.226 550.189 591.551 548.603 591.551L545.21 591.551L545.21 588.119L549.968 588.119L551.801 583.478L543.689 563.627L548.135 563.627L551.333 572.051L553.829 578.954L554.063 578.954L556.559 572.051L559.757 563.627ZM569.063 583.751L576.551 573.533L569.375 563.627L574.328 563.627L576.98 567.449L579.086 570.491L579.32 570.491L581.387 567.449L584.039 563.627L588.641 563.627L581.426 573.377L588.992 583.751L584 583.751L580.997 579.422L578.93 576.458L578.696 576.458L576.668 579.422L573.704 583.751L569.063 583.751ZM595.723 563.627L599.974 563.627L599.974 571.739L608.32 571.739L608.32 563.627L612.571 563.627L612.571 583.751L608.32 583.751L608.32 575.171L599.974 575.171L599.974 583.751L595.723 583.751L595.723 563.627ZM632.836 584.219C631.796 584.219 630.873 584.063 630.067 583.751C629.287 583.465 628.611 582.971 628.039 582.269C627.493 581.541 627.064 580.592 626.752 579.422C626.466 578.252 626.284 576.783 626.206 575.015L623.008 575.015L623.008 583.751L619.303 583.751L619.303 563.627L623.008 563.627L623.008 571.895L626.245 571.895C626.323 570.231 626.518 568.84 626.83 567.722C627.168 566.604 627.61 565.707 628.156 565.031C628.702 564.355 629.365 563.874 630.145 563.588C630.925 563.302 631.822 563.159 632.836 563.159C633.928 563.159 634.89 563.328 635.722 563.666C636.554 564.004 637.243 564.576 637.789 565.382C638.361 566.188 638.777 567.267 639.037 568.619C639.323 569.971 639.466 571.661 639.466 573.689C639.466 575.717 639.323 577.407 639.037 578.759C638.751 580.111 638.335 581.19 637.789 581.996C637.243 582.802 636.554 583.374 635.722 583.712C634.89 584.05 633.928 584.219 632.836 584.219ZM632.836 580.982C633.304 580.982 633.707 580.904 634.045 580.748C634.409 580.592 634.695 580.319 634.903 579.929C635.137 579.539 635.306 579.006 635.41 578.33C635.54 577.628 635.605 576.731 635.605 575.639L635.605 571.739C635.605 570.647 635.54 569.763 635.41 569.087C635.306 568.385 635.137 567.839 634.903 567.449C634.695 567.059 634.409 566.786 634.045 566.63C633.707 566.474 633.304 566.396 632.836 566.396C632.368 566.396 631.952 566.474 631.588 566.63C631.25 566.786 630.964 567.059 630.73 567.449C630.522 567.839 630.353 568.385 630.223 569.087C630.119 569.763 630.067 570.647 630.067 571.739L630.067 575.639C630.067 576.731 630.119 577.628 630.223 578.33C630.353 579.006 630.522 579.539 630.73 579.929C630.964 580.319 631.25 580.592 631.588 580.748C631.952 580.904 632.368 580.982 632.836 580.982ZM671.572 563.627L682.375 563.627C684.117 563.627 685.469 564.095 686.431 565.031C687.393 565.941 687.874 567.163 687.874 568.697C687.874 571.193 686.509 572.649 683.779 573.065L683.779 573.26C685.443 573.39 686.665 573.871 687.445 574.703C688.225 575.509 688.615 576.575 688.615 577.901C688.615 578.707 688.472 579.461 688.186 580.163C687.926 580.865 687.536 581.489 687.016 582.035C686.496 582.555 685.846 582.971 685.066 583.283C684.312 583.595 683.454 583.751 682.492 583.751L671.572 583.751L671.572 563.627ZM681.595 580.553C682.427 580.553 683.077 580.358 683.545 579.968C684.013 579.552 684.247 578.967 684.247 578.213L684.247 577.277C684.247 576.523 684.013 575.938 683.545 575.522C683.103 575.106 682.505 574.898 681.751 574.898L675.823 574.898L675.823 580.553L681.595 580.553ZM681.205 572.051C681.907 572.051 682.466 571.856 682.882 571.466C683.298 571.076 683.506 570.543 683.506 569.867L683.506 569.009C683.506 568.333 683.298 567.8 682.882 567.41C682.466 567.02 681.907 566.825 681.205 566.825L675.823 566.825L675.823 572.051L681.205 572.051ZM721.422 563.627L725.673 563.627L725.673 571.739L734.019 571.739L734.019 563.627L738.27 563.627L738.27 583.751L734.019 583.751L734.019 575.171L725.673 575.171L725.673 583.751L721.422 583.751L721.422 563.627ZM754.986 584.219C753.504 584.219 752.165 583.972 750.969 583.478C749.799 582.984 748.798 582.282 747.966 581.372C747.16 580.462 746.536 579.357 746.094 578.057C745.652 576.757 745.431 575.301 745.431 573.689C745.431 572.077 745.652 570.621 746.094 569.321C746.536 568.021 747.16 566.916 747.966 566.006C748.798 565.096 749.799 564.394 750.969 563.9C752.165 563.406 753.504 563.159 754.986 563.159C756.468 563.159 757.794 563.406 758.964 563.9C760.16 564.394 761.161 565.096 761.967 566.006C762.799 566.916 763.436 568.021 763.878 569.321C764.32 570.621 764.541 572.077 764.541 573.689C764.541 575.301 764.32 576.757 763.878 578.057C763.436 579.357 762.799 580.462 761.967 581.372C761.161 582.282 760.16 582.984 758.964 583.478C757.794 583.972 756.468 584.219 754.986 584.219ZM754.986 580.865C756.546 580.865 757.781 580.397 758.691 579.461C759.627 578.499 760.095 577.082 760.095 575.21L760.095 572.168C760.095 570.296 759.627 568.892 758.691 567.956C757.781 566.994 756.546 566.513 754.986 566.513C753.426 566.513 752.178 566.994 751.242 567.956C750.332 568.892 749.877 570.296 749.877 572.168L749.877 575.21C749.877 577.082 750.332 578.499 751.242 579.461C752.178 580.397 753.426 580.865 754.986 580.865ZM783.831 574.859L783.636 574.859C782.96 575.691 782.154 576.328 781.218 576.77C780.308 577.186 779.151 577.394 777.747 577.394C773.353 577.394 771.156 575.171 771.156 570.725L771.156 563.627L775.407 563.627L775.407 570.452C775.407 571.622 775.706 572.48 776.304 573.026C776.928 573.546 777.968 573.806 779.424 573.806C780.75 573.806 781.816 573.611 782.622 573.221C783.428 572.805 783.831 572.207 783.831 571.427L783.831 563.627L788.082 563.627L788.082 583.751L783.831 583.751L783.831 574.859ZM796.803 563.627L801.015 563.627L801.015 572.285L800.625 577.745L800.82 577.745L809.712 563.627L813.729 563.627L813.729 583.751L809.517 583.751L809.517 575.093L809.907 569.633L809.712 569.633L800.82 583.751L796.803 583.751L796.803 563.627ZM830.405 584.141C829.157 584.141 828.273 583.881 827.753 583.361C827.259 582.841 827.012 582.204 827.012 581.45L827.012 580.436C827.012 579.682 827.259 579.045 827.753 578.525C828.273 578.005 829.157 577.745 830.405 577.745C831.653 577.745 832.524 578.005 833.018 578.525C833.538 579.045 833.798 579.682 833.798 580.436L833.798 581.45C833.798 582.204 833.538 582.841 833.018 583.361C832.524 583.881 831.653 584.141 830.405 584.141Z" fill="white"/>
</svg>
