<svg width="1570" height="614" viewBox="0 0 1570 614" fill="none" xmlns="http://www.w3.org/2000/svg">
<path d="M1046 2H567C529.997 2 500 31.9969 500 69C500 106.003 529.997 136 567 136H657.5C712.452 136 757 180.548 757 235.5C757 290.452 712.452 335 657.5 335H228C207.013 335 190 352.013 190 373C190 393.987 172.987 411 152 411H136C113.909 411 96 428.909 96 451C96 473.091 78.0914 491 56 491H49C23.0426 491 2 512.043 2 538V551.5C2 584.913 29.0868 612 62.5 612H1507.5C1540.91 612 1568 584.913 1568 551.5V537C1568 511.595 1547.41 491 1522 491H1516C1493.91 491 1476 473.091 1476 451C1476 428.909 1458.09 411 1436 411H1416C1395.01 411 1378 393.987 1378 373C1378 352.013 1360.99 335 1340 335H955.5C900.548 335 856 290.452 856 235.5C856 180.548 900.548 136 955.5 136H1046C1083 136 1113 106.003 1113 69C1113 31.9969 1083 2 1046 2Z" fill="#242424" fill-opacity="0.7" stroke="white" stroke-width="3"/>
<path d="M267.422 422.468C263.964 422.468 261.39 421.246 259.7 418.802C258.036 416.358 257.204 412.887 257.204 408.389C257.204 403.891 258.036 400.42 259.7 397.976C261.39 395.532 263.964 394.31 267.422 394.31C268.748 394.31 269.892 394.492 270.854 394.856C271.842 395.194 272.687 395.675 273.389 396.299C274.091 396.897 274.676 397.612 275.144 398.444C275.638 399.25 276.041 400.121 276.353 401.057L272.414 402.383C272.206 401.759 271.972 401.174 271.712 400.628C271.452 400.082 271.127 399.614 270.737 399.224C270.347 398.834 269.879 398.522 269.333 398.288C268.813 398.054 268.163 397.937 267.383 397.937C265.459 397.937 264.055 398.678 263.171 400.16C262.287 401.616 261.845 403.592 261.845 406.088L261.845 410.69C261.845 413.186 262.287 415.175 263.171 416.657C264.055 418.113 265.459 418.841 267.383 418.841C268.163 418.841 268.813 418.724 269.333 418.49C269.879 418.256 270.347 417.944 270.737 417.554C271.127 417.164 271.452 416.696 271.712 416.15C271.972 415.604 272.206 415.019 272.414 414.395L276.353 415.721C276.041 416.657 275.638 417.541 275.144 418.373C274.676 419.179 274.091 419.894 273.389 420.518C272.687 421.116 271.842 421.597 270.854 421.961C269.892 422.299 268.748 422.468 267.422 422.468ZM297.671 401.876L301.961 401.876L292.211 425.9C291.691 427.2 291.002 428.175 290.144 428.825C289.312 429.475 288.103 429.8 286.517 429.8L283.124 429.8L283.124 426.368L287.882 426.368L289.715 421.727L281.603 401.876L286.049 401.876L289.247 410.3L291.743 417.203L291.977 417.203L294.473 410.3L297.671 401.876ZM308.537 401.876L325.307 401.876L325.307 422L321.056 422L321.056 405.308L312.788 405.308L312.788 422L308.537 422L308.537 401.876ZM358.738 401.876L362.95 401.876L362.95 410.534L362.56 415.994L362.755 415.994L371.647 401.876L375.664 401.876L375.664 422L371.452 422L371.452 413.342L371.842 407.882L371.647 407.882L362.755 422L358.738 422L358.738 401.876ZM391.795 422.468C389.611 422.468 387.791 422.13 386.335 421.454C384.879 420.778 383.722 419.842 382.864 418.646L385.594 416.228C386.27 417.164 387.089 417.879 388.051 418.373C389.039 418.841 390.274 419.075 391.756 419.075C393.316 419.075 394.473 418.815 395.227 418.295C395.981 417.775 396.358 417.099 396.358 416.267L396.358 415.877C396.358 415.045 396.098 414.408 395.578 413.966C395.058 413.524 394.265 413.303 393.199 413.303L388.09 413.303L388.09 410.183L392.77 410.183C393.862 410.183 394.655 409.975 395.149 409.559C395.669 409.117 395.929 408.506 395.929 407.726L395.929 407.336C395.929 406.582 395.604 405.971 394.954 405.503C394.304 405.035 393.225 404.801 391.717 404.801C390.313 404.801 389.156 405.035 388.246 405.503C387.336 405.945 386.543 406.595 385.867 407.453L383.254 405.347C384.216 404.099 385.373 403.137 386.725 402.461C388.103 401.759 389.884 401.408 392.068 401.408C394.772 401.408 396.826 401.915 398.23 402.929C399.634 403.917 400.336 405.23 400.336 406.868C400.336 408.064 399.985 409.039 399.283 409.793C398.607 410.547 397.658 411.067 396.436 411.353L396.436 411.509C397.762 411.717 398.802 412.237 399.556 413.069C400.336 413.875 400.726 414.941 400.726 416.267C400.726 418.139 399.946 419.647 398.386 420.791C396.826 421.909 394.629 422.468 391.795 422.468ZM434.002 401.876L438.253 401.876L438.253 405.308L438.487 405.308C439.085 404.086 439.878 403.137 440.866 402.461C441.854 401.759 443.089 401.408 444.571 401.408C446.937 401.408 448.822 402.292 450.226 404.06C451.63 405.828 452.332 408.454 452.332 411.938C452.332 415.422 451.63 418.048 450.226 419.816C448.822 421.584 446.937 422.468 444.571 422.468C443.089 422.468 441.854 422.13 440.866 421.454C439.878 420.752 439.085 419.79 438.487 418.568L438.253 418.568L438.253 429.8L434.002 429.8L434.002 401.876ZM442.816 418.997C444.428 418.997 445.663 418.503 446.521 417.515C447.405 416.527 447.847 415.214 447.847 413.576L447.847 410.3C447.847 408.662 447.405 407.349 446.521 406.361C445.663 405.373 444.428 404.879 442.816 404.879C442.192 404.879 441.607 404.957 441.061 405.113C440.515 405.269 440.034 405.503 439.618 405.815C439.202 406.127 438.864 406.517 438.604 406.985C438.37 407.427 438.253 407.96 438.253 408.584L438.253 415.292C438.253 415.916 438.37 416.462 438.604 416.93C438.864 417.372 439.202 417.749 439.618 418.061C440.034 418.373 440.515 418.607 441.061 418.763C441.607 418.919 442.192 418.997 442.816 418.997ZM459.298 401.876L463.51 401.876L463.51 410.534L463.12 415.994L463.315 415.994L472.207 401.876L476.224 401.876L476.224 422L472.012 422L472.012 413.342L472.402 407.882L472.207 407.882L463.315 422L459.298 422L459.298 401.876ZM490.755 405.308L483.696 405.308L483.696 401.876L502.104 401.876L502.104 405.308L495.006 405.308L495.006 422L490.755 422L490.755 405.308ZM508.797 401.876L513.75 401.876L518.118 411.353L518.391 411.353L522.759 401.876L527.283 401.876L527.283 422L523.578 422L523.578 410.651L523.734 407.102L523.461 407.102L518.04 418.841L512.619 407.102L512.346 407.102L512.502 410.651L512.502 422L508.797 422L508.797 401.876ZM534.717 401.876L538.929 401.876L538.929 410.534L538.539 415.994L538.734 415.994L547.626 401.876L551.643 401.876L551.643 422L547.431 422L547.431 413.342L547.821 407.882L547.626 407.882L538.734 422L534.717 422L534.717 401.876ZM572.025 413.108L571.83 413.108C571.154 413.94 570.348 414.577 569.412 415.019C568.502 415.435 567.345 415.643 565.941 415.643C561.547 415.643 559.35 413.42 559.35 408.974L559.35 401.876L563.601 401.876L563.601 408.701C563.601 409.871 563.9 410.729 564.498 411.275C565.122 411.795 566.162 412.055 567.618 412.055C568.944 412.055 570.01 411.86 570.816 411.47C571.622 411.054 572.025 410.456 572.025 409.676L572.025 401.876L576.276 401.876L576.276 422L572.025 422L572.025 413.108ZM585.035 401.876L589.286 401.876L589.286 409.988L597.632 409.988L597.632 401.876L601.883 401.876L601.883 422L597.632 422L597.632 413.42L589.286 413.42L589.286 422L585.035 422L585.035 401.876ZM608.615 401.876L612.476 401.876L612.476 408.506L615.323 408.506C617.377 408.506 619.028 409.091 620.276 410.261C621.55 411.431 622.187 413.095 622.187 415.253C622.187 417.411 621.55 419.075 620.276 420.245C619.028 421.415 617.377 422 615.323 422L608.615 422L608.615 401.876ZM615.05 418.802C616.038 418.802 616.805 418.581 617.351 418.139C617.923 417.671 618.209 416.943 618.209 415.955L618.209 414.551C618.209 413.563 617.923 412.848 617.351 412.406C616.805 411.938 616.038 411.704 615.05 411.704L612.476 411.704L612.476 418.802L615.05 418.802ZM624.722 401.876L628.583 401.876L628.583 422L624.722 422L624.722 401.876ZM633.794 422L641.282 411.782L634.106 401.876L639.059 401.876L641.711 405.698L643.817 408.74L644.051 408.74L646.118 405.698L648.77 401.876L653.372 401.876L646.157 411.626L653.723 422L648.731 422L645.728 417.671L643.661 414.707L643.427 414.707L641.399 417.671L638.435 422L633.794 422ZM685.633 401.876L702.403 401.876L702.403 422L698.152 422L698.152 405.308L689.884 405.308L689.884 422L685.633 422L685.633 401.876ZM725.047 401.876L729.337 401.876L719.587 425.9C719.067 427.2 718.378 428.175 717.52 428.825C716.688 429.475 715.479 429.8 713.893 429.8L710.5 429.8L710.5 426.368L715.258 426.368L717.091 421.727L708.979 401.876L713.425 401.876L716.623 410.3L719.119 417.203L719.353 417.203L721.849 410.3L725.047 401.876ZM733.534 418.568L736.147 418.568C736.485 418.126 736.784 417.619 737.044 417.047C737.33 416.449 737.551 415.734 737.707 414.902C737.889 414.07 738.019 413.108 738.097 412.016C738.201 410.924 738.253 409.65 738.253 408.194L738.253 401.876L752.488 401.876L752.488 422L748.237 422L748.237 405.308L742.231 405.308L742.231 408.272C742.231 411.678 741.984 414.343 741.49 416.267C740.996 418.191 740.32 419.595 739.462 420.479C738.864 421.103 738.175 421.519 737.395 421.727C736.615 421.909 735.796 422 734.938 422L733.534 422L733.534 418.568ZM761.638 401.876L765.889 401.876L765.889 408.506L771.622 408.506C773.702 408.506 775.366 409.091 776.614 410.261C777.862 411.431 778.486 413.095 778.486 415.253C778.486 417.411 777.862 419.075 776.614 420.245C775.366 421.415 773.702 422 771.622 422L761.638 422L761.638 401.876ZM770.881 418.685C771.869 418.685 772.649 418.451 773.221 417.983C773.819 417.515 774.118 416.826 774.118 415.916L774.118 414.59C774.118 413.68 773.819 412.991 773.221 412.523C772.649 412.055 771.869 411.821 770.881 411.821L765.889 411.821L765.889 418.685L770.881 418.685ZM795.318 422.468C793.81 422.468 792.458 422.221 791.262 421.727C790.092 421.233 789.091 420.531 788.259 419.621C787.453 418.711 786.829 417.606 786.387 416.306C785.971 415.006 785.763 413.55 785.763 411.938C785.763 410.326 785.971 408.87 786.387 407.57C786.829 406.27 787.454 405.165 788.26 404.255C789.092 403.345 790.093 402.643 791.263 402.149C792.459 401.655 793.798 401.408 795.28 401.408C797.36 401.408 799.024 401.85 800.272 402.734C801.546 403.618 802.495 404.762 803.119 406.166L799.804 407.96C799.44 407.024 798.881 406.283 798.127 405.737C797.399 405.191 796.45 404.918 795.28 404.918C793.668 404.918 792.42 405.412 791.536 406.4C790.651 407.362 790.209 408.649 790.209 410.261L790.209 413.615C790.209 415.201 790.651 416.488 791.535 417.476C792.419 418.464 793.693 418.958 795.357 418.958C796.605 418.958 797.619 418.672 798.399 418.1C799.205 417.528 799.842 416.748 800.31 415.76L803.43 417.671C802.78 419.075 801.792 420.232 800.466 421.142C799.14 422.026 797.424 422.468 795.318 422.468ZM827.205 422C825.983 422 825.06 421.688 824.436 421.064C823.838 420.44 823.474 419.621 823.344 418.607L823.149 418.607C822.759 419.829 822.044 420.778 821.004 421.454C819.99 422.13 818.69 422.468 817.104 422.468C815.05 422.468 813.412 421.935 812.19 420.869C810.968 419.777 810.357 418.282 810.357 416.384C810.357 414.434 811.072 412.952 812.502 411.938C813.958 410.898 816.181 410.378 819.171 410.378L823.032 410.378L823.032 408.818C823.032 406.088 821.589 404.723 818.703 404.723C817.403 404.723 816.35 404.983 815.544 405.503C814.738 405.997 814.062 406.66 813.516 407.492L810.981 405.425C811.553 404.333 812.515 403.397 813.867 402.617C815.219 401.811 816.961 401.408 819.093 401.408C821.641 401.408 823.643 402.019 825.099 403.241C826.555 404.463 827.283 406.231 827.283 408.545L827.283 418.646L829.818 418.646L829.818 422L827.205 422ZM818.313 419.348C819.691 419.348 820.822 419.036 821.706 418.412C822.59 417.788 823.032 416.982 823.032 415.994L823.032 413.069L819.249 413.069C816.181 413.069 814.647 413.992 814.647 415.838L814.647 416.618C814.647 417.528 814.972 418.217 815.622 418.685C816.272 419.127 817.169 419.348 818.313 419.348ZM836.238 401.876L840.489 401.876L840.489 405.308L840.723 405.308C841.321 404.086 842.114 403.137 843.102 402.461C844.09 401.759 845.325 401.408 846.807 401.408C849.173 401.408 851.058 402.292 852.462 404.06C853.866 405.828 854.568 408.454 854.568 411.938C854.568 415.422 853.866 418.048 852.462 419.816C851.058 421.584 849.173 422.468 846.807 422.468C845.325 422.468 844.09 422.13 843.102 421.454C842.114 420.752 841.321 419.79 840.723 418.568L840.489 418.568L840.489 429.8L836.238 429.8L836.238 401.876ZM845.052 418.997C846.664 418.997 847.899 418.503 848.757 417.515C849.641 416.527 850.083 415.214 850.083 413.576L850.083 410.3C850.083 408.662 849.641 407.349 848.757 406.361C847.899 405.373 846.664 404.879 845.052 404.879C844.428 404.879 843.843 404.957 843.297 405.113C842.751 405.269 842.27 405.503 841.854 405.815C841.438 406.127 841.1 406.517 840.84 406.985C840.606 407.427 840.489 407.96 840.489 408.584L840.489 415.292C840.489 415.916 840.606 416.462 840.84 416.93C841.1 417.372 841.438 417.749 841.854 418.061C842.27 418.373 842.751 418.607 843.297 418.763C843.843 418.919 844.428 418.997 845.052 418.997ZM869.997 422.468C868.515 422.468 867.176 422.221 865.98 421.727C864.81 421.233 863.809 420.531 862.977 419.621C862.171 418.711 861.547 417.606 861.105 416.306C860.663 415.006 860.442 413.55 860.442 411.938C860.442 410.326 860.663 408.87 861.105 407.57C861.547 406.27 862.171 405.165 862.977 404.255C863.809 403.345 864.81 402.643 865.98 402.149C867.176 401.655 868.515 401.408 869.997 401.408C871.479 401.408 872.805 401.655 873.975 402.149C875.171 402.643 876.172 403.345 876.978 404.255C877.81 405.165 878.447 406.27 878.889 407.57C879.331 408.87 879.552 410.326 879.552 411.938C879.552 413.55 879.331 415.006 878.889 416.306C878.447 417.606 877.81 418.711 876.978 419.621C876.172 420.531 875.171 421.233 873.975 421.727C872.805 422.221 871.479 422.468 869.997 422.468ZM869.997 419.114C871.557 419.114 872.792 418.646 873.702 417.71C874.638 416.748 875.106 415.331 875.106 413.459L875.106 410.417C875.106 408.545 874.638 407.141 873.702 406.205C872.792 405.243 871.557 404.762 869.997 404.762C868.437 404.762 867.189 405.243 866.253 406.205C865.343 407.141 864.888 408.545 864.888 410.417L864.888 413.459C864.888 415.331 865.343 416.748 866.253 417.71C867.189 418.646 868.437 419.114 869.997 419.114ZM887.142 401.876L897.945 401.876C899.687 401.876 901.039 402.344 902.001 403.28C902.963 404.19 903.444 405.412 903.444 406.946C903.444 409.442 902.079 410.898 899.349 411.314L899.349 411.509C901.013 411.639 902.235 412.12 903.015 412.952C903.795 413.758 904.185 414.824 904.185 416.15C904.185 416.956 904.042 417.71 903.756 418.412C903.496 419.114 903.106 419.738 902.586 420.284C902.066 420.804 901.416 421.22 900.636 421.532C899.882 421.844 899.024 422 898.062 422L887.142 422L887.142 401.876ZM897.165 418.802C897.997 418.802 898.647 418.607 899.115 418.217C899.583 417.801 899.817 417.216 899.817 416.462L899.817 415.526C899.817 414.772 899.583 414.187 899.115 413.771C898.673 413.355 898.075 413.147 897.321 413.147L891.393 413.147L891.393 418.802L897.165 418.802ZM896.775 410.3C897.477 410.3 898.036 410.105 898.452 409.715C898.868 409.325 899.076 408.792 899.076 408.116L899.076 407.258C899.076 406.582 898.868 406.049 898.452 405.659C898.036 405.269 897.477 405.074 896.775 405.074L891.393 405.074L891.393 410.3L896.775 410.3ZM945.416 422.39C944.168 422.39 943.284 422.13 942.764 421.61C942.27 421.09 942.023 420.453 942.023 419.699L942.023 418.685C942.023 417.931 942.27 417.294 942.764 416.774C943.284 416.254 944.168 415.994 945.416 415.994C946.664 415.994 947.535 416.254 948.029 416.774C948.549 417.294 948.809 417.931 948.809 418.685L948.809 419.699C948.809 420.453 948.549 421.09 948.029 421.61C947.535 422.13 946.664 422.39 945.416 422.39ZM970.556 422.39C969.308 422.39 968.424 422.13 967.904 421.61C967.41 421.09 967.163 420.453 967.163 419.699L967.163 418.685C967.163 417.931 967.41 417.294 967.904 416.774C968.424 416.254 969.308 415.994 970.556 415.994C971.804 415.994 972.675 416.254 973.169 416.774C973.689 417.294 973.949 417.931 973.949 418.685L973.949 419.699C973.949 420.453 973.689 421.09 973.169 421.61C972.675 422.13 971.804 422.39 970.556 422.39ZM995.696 422.39C994.448 422.39 993.564 422.13 993.044 421.61C992.55 421.09 992.303 420.453 992.303 419.699L992.303 418.685C992.303 417.931 992.55 417.294 993.044 416.774C993.564 416.254 994.448 415.994 995.696 415.994C996.944 415.994 997.815 416.254 998.309 416.774C998.829 417.294 999.089 417.931 999.089 418.685L999.089 419.699C999.089 420.453 998.829 421.09 998.309 421.61C997.815 422.13 996.944 422.39 995.696 422.39ZM1020.84 422.39C1019.59 422.39 1018.7 422.13 1018.18 421.61C1017.69 421.09 1017.44 420.453 1017.44 419.699L1017.44 418.685C1017.44 417.931 1017.69 417.294 1018.18 416.774C1018.7 416.254 1019.59 415.994 1020.84 415.994C1022.08 415.994 1022.95 416.254 1023.45 416.774C1023.97 417.294 1024.23 417.931 1024.23 418.685L1024.23 419.699C1024.23 420.453 1023.97 421.09 1023.45 421.61C1022.95 422.13 1022.08 422.39 1020.84 422.39ZM1045.98 422.39C1044.73 422.39 1043.84 422.13 1043.32 421.61C1042.83 421.09 1042.58 420.453 1042.58 419.699L1042.58 418.685C1042.58 417.931 1042.83 417.294 1043.32 416.774C1043.84 416.254 1044.73 415.994 1045.98 415.994C1047.22 415.994 1048.09 416.254 1048.59 416.774C1049.11 417.294 1049.37 417.931 1049.37 418.685L1049.37 419.699C1049.37 420.453 1049.11 421.09 1048.59 421.61C1048.09 422.13 1047.22 422.39 1045.98 422.39ZM1071.11 422.39C1069.87 422.39 1068.98 422.13 1068.46 421.61C1067.97 421.09 1067.72 420.453 1067.72 419.699L1067.72 418.685C1067.72 417.931 1067.97 417.294 1068.46 416.774C1068.98 416.254 1069.87 415.994 1071.11 415.994C1072.36 415.994 1073.23 416.254 1073.73 416.774C1074.25 417.294 1074.51 417.931 1074.51 418.685L1074.51 419.699C1074.51 420.453 1074.25 421.09 1073.73 421.61C1073.23 422.13 1072.36 422.39 1071.11 422.39ZM1096.25 422.39C1095.01 422.39 1094.12 422.13 1093.6 421.61C1093.11 421.09 1092.86 420.453 1092.86 419.699L1092.86 418.685C1092.86 417.931 1093.11 417.294 1093.6 416.774C1094.12 416.254 1095.01 415.994 1096.25 415.994C1097.5 415.994 1098.37 416.254 1098.87 416.774C1099.39 417.294 1099.65 417.931 1099.65 418.685L1099.65 419.699C1099.65 420.453 1099.39 421.09 1098.87 421.61C1098.37 422.13 1097.5 422.39 1096.25 422.39ZM1121.39 422.39C1120.15 422.39 1119.26 422.13 1118.74 421.61C1118.25 421.09 1118 420.453 1118 419.699L1118 418.685C1118 417.931 1118.25 417.294 1118.74 416.774C1119.26 416.254 1120.15 415.994 1121.39 415.994C1122.64 415.994 1123.51 416.254 1124.01 416.774C1124.53 417.294 1124.79 417.931 1124.79 418.685L1124.79 419.699C1124.79 420.453 1124.53 421.09 1124.01 421.61C1123.51 422.13 1122.64 422.39 1121.39 422.39ZM1146.53 422.39C1145.29 422.39 1144.4 422.13 1143.88 421.61C1143.39 421.09 1143.14 420.453 1143.14 419.699L1143.14 418.685C1143.14 417.931 1143.39 417.294 1143.88 416.774C1144.4 416.254 1145.29 415.994 1146.53 415.994C1147.78 415.994 1148.65 416.254 1149.15 416.774C1149.67 417.294 1149.93 417.931 1149.93 418.685L1149.93 419.699C1149.93 420.453 1149.67 421.09 1149.15 421.61C1148.65 422.13 1147.78 422.39 1146.53 422.39ZM1171.67 422.39C1170.43 422.39 1169.54 422.13 1169.02 421.61C1168.53 421.09 1168.28 420.453 1168.28 419.699L1168.28 418.685C1168.28 417.931 1168.53 417.294 1169.02 416.774C1169.54 416.254 1170.43 415.994 1171.67 415.994C1172.92 415.994 1173.79 416.254 1174.29 416.774C1174.81 417.294 1175.07 417.931 1175.07 418.685L1175.07 419.699C1175.07 420.453 1174.81 421.09 1174.29 421.61C1173.79 422.13 1172.92 422.39 1171.67 422.39ZM1220.82 406.01C1222.56 406.01 1223.85 405.646 1224.68 404.918C1225.54 404.164 1225.97 403.228 1225.97 402.11L1225.97 401.837C1225.97 400.589 1225.55 399.64 1224.72 398.99C1223.92 398.314 1222.82 397.976 1221.45 397.976C1220.12 397.976 1218.99 398.275 1218.05 398.873C1217.14 399.471 1216.38 400.29 1215.75 401.33L1212.79 398.795C1213.2 398.197 1213.69 397.625 1214.23 397.079C1214.78 396.533 1215.4 396.065 1216.1 395.675C1216.81 395.259 1217.61 394.934 1218.52 394.7C1219.43 394.44 1220.46 394.31 1221.6 394.31C1222.88 394.31 1224.06 394.466 1225.15 394.778C1226.24 395.09 1227.19 395.558 1228 396.182C1228.8 396.78 1229.43 397.521 1229.87 398.405C1230.31 399.263 1230.53 400.238 1230.53 401.33C1230.53 402.188 1230.39 402.968 1230.1 403.67C1229.84 404.372 1229.47 404.996 1228.97 405.542C1228.51 406.062 1227.95 406.491 1227.3 406.829C1226.65 407.167 1225.96 407.414 1225.23 407.57L1225.23 407.765C1226.01 407.921 1226.75 408.181 1227.45 408.545C1228.15 408.883 1228.78 409.338 1229.32 409.91C1229.87 410.456 1230.3 411.119 1230.61 411.899C1230.92 412.653 1231.08 413.524 1231.08 414.512C1231.08 415.708 1230.85 416.8 1230.38 417.788C1229.91 418.75 1229.23 419.582 1228.35 420.284C1227.49 420.986 1226.45 421.532 1225.23 421.922C1224.01 422.286 1222.64 422.468 1221.13 422.468C1219.86 422.468 1218.73 422.325 1217.74 422.039C1216.78 421.779 1215.92 421.428 1215.17 420.986C1214.41 420.518 1213.75 419.998 1213.18 419.426C1212.63 418.828 1212.15 418.217 1211.74 417.593L1214.97 415.097C1215.65 416.189 1216.44 417.086 1217.35 417.788C1218.29 418.464 1219.56 418.802 1221.17 418.802C1222.89 418.802 1224.2 418.412 1225.11 417.632C1226.02 416.826 1226.48 415.721 1226.48 414.317L1226.48 414.005C1226.48 412.601 1226 411.535 1225.03 410.807C1224.1 410.053 1222.73 409.676 1220.94 409.676L1218.01 409.676L1218.01 406.01L1220.82 406.01ZM1247.09 422.468C1245.48 422.468 1244.06 422.273 1242.84 421.883C1241.62 421.467 1240.59 420.908 1239.76 420.206C1238.93 419.504 1238.29 418.672 1237.85 417.71C1237.43 416.748 1237.23 415.695 1237.23 414.551C1237.23 412.731 1237.73 411.275 1238.75 410.183C1239.76 409.091 1241.09 408.324 1242.73 407.882L1242.73 407.57C1241.32 407.076 1240.19 406.296 1239.33 405.23C1238.47 404.164 1238.05 402.851 1238.05 401.291C1238.05 399.185 1238.83 397.495 1240.39 396.221C1241.97 394.947 1244.21 394.31 1247.09 394.31C1249.98 394.31 1252.2 394.947 1253.76 396.221C1255.35 397.495 1256.14 399.185 1256.14 401.291C1256.14 402.851 1255.71 404.164 1254.85 405.23C1254 406.296 1252.87 407.076 1251.46 407.57L1251.46 407.882C1253.1 408.324 1254.43 409.091 1255.44 410.183C1256.45 411.275 1256.96 412.731 1256.96 414.551C1256.96 415.695 1256.74 416.748 1256.3 417.71C1255.88 418.672 1255.26 419.504 1254.43 420.206C1253.59 420.908 1252.57 421.467 1251.34 421.883C1250.12 422.273 1248.71 422.468 1247.09 422.468ZM1247.09 418.997C1248.81 418.997 1250.12 418.62 1251.03 417.866C1251.97 417.112 1252.44 416.046 1252.44 414.668L1252.44 413.849C1252.44 412.471 1251.97 411.405 1251.03 410.651C1250.12 409.897 1248.81 409.52 1247.09 409.52C1245.38 409.52 1244.05 409.897 1243.12 410.651C1242.21 411.405 1241.75 412.471 1241.75 413.849L1241.75 414.668C1241.75 416.046 1242.21 417.112 1243.12 417.866C1244.05 418.62 1245.38 418.997 1247.09 418.997ZM1247.09 406.166C1248.65 406.166 1249.84 405.828 1250.64 405.152C1251.47 404.45 1251.89 403.475 1251.89 402.227L1251.89 401.72C1251.89 400.472 1251.47 399.51 1250.64 398.834C1249.84 398.132 1248.65 397.781 1247.09 397.781C1245.53 397.781 1244.34 398.132 1243.51 398.834C1242.7 399.51 1242.3 400.472 1242.3 401.72L1242.3 402.227C1242.3 403.475 1242.7 404.45 1243.51 405.152C1244.34 405.828 1245.53 406.166 1247.09 406.166ZM1281.87 404.918C1281.87 406.894 1281.57 408.753 1280.97 410.495C1280.37 412.237 1279.59 413.836 1278.63 415.292C1277.67 416.748 1276.6 418.048 1275.43 419.192C1274.26 420.336 1273.1 421.272 1271.96 422L1266.11 422C1267.67 420.882 1269.07 419.803 1270.32 418.763C1271.57 417.723 1272.65 416.657 1273.56 415.565C1274.5 414.473 1275.28 413.329 1275.9 412.133C1276.52 410.911 1277 409.559 1277.34 408.077L1277.07 407.999C1276.78 408.545 1276.45 409.065 1276.06 409.559C1275.67 410.027 1275.21 410.443 1274.69 410.807C1274.17 411.171 1273.57 411.457 1272.9 411.665C1272.22 411.873 1271.45 411.977 1270.6 411.977C1269.43 411.977 1268.35 411.782 1267.36 411.392C1266.37 411.002 1265.51 410.443 1264.78 409.715C1264.06 408.961 1263.48 408.064 1263.07 407.024C1262.68 405.984 1262.48 404.814 1262.48 403.514C1262.48 402.162 1262.7 400.927 1263.15 399.809C1263.61 398.665 1264.26 397.69 1265.1 396.884C1265.95 396.078 1266.98 395.454 1268.18 395.012C1269.37 394.544 1270.7 394.31 1272.16 394.31C1273.66 394.31 1275.02 394.557 1276.21 395.051C1277.43 395.545 1278.46 396.26 1279.29 397.196C1280.12 398.106 1280.76 399.211 1281.2 400.511C1281.65 401.811 1281.87 403.28 1281.87 404.918ZM1272.19 408.506C1273.83 408.506 1275.11 408.064 1276.02 407.18C1276.93 406.27 1277.38 404.996 1277.38 403.358L1277.38 402.968C1277.38 401.33 1276.93 400.069 1276.02 399.185C1275.11 398.275 1273.83 397.82 1272.19 397.82C1270.53 397.82 1269.24 398.275 1268.33 399.185C1267.42 400.069 1266.97 401.33 1266.97 402.968L1266.97 403.358C1266.97 404.996 1267.42 406.27 1268.33 407.18C1269.24 408.064 1270.53 408.506 1272.19 408.506ZM1294.45 417.125L1294.45 422L1290.08 422L1290.08 417.125L1287.23 417.125L1287.23 413.771L1290.08 413.771L1290.08 410.846L1287.23 410.846L1287.23 407.492L1290.08 407.492L1290.08 394.778L1299.48 394.778C1302.08 394.778 1304.05 395.506 1305.41 396.962C1306.78 398.392 1307.47 400.355 1307.47 402.851C1307.47 405.373 1306.78 407.336 1305.41 408.74C1304.05 410.144 1302.08 410.846 1299.48 410.846L1294.45 410.846L1294.45 413.771L1302.95 413.771L1302.95 417.125L1294.45 417.125ZM1294.45 407.492L1298.85 407.492C1301.58 407.492 1302.95 406.27 1302.95 403.826L1302.95 401.915C1302.95 399.471 1301.58 398.249 1298.85 398.249L1294.45 398.249L1294.45 407.492ZM184.971 489L182.904 481.746L174.246 481.746L172.179 489L167.733 489L175.689 461.778L181.656 461.778L189.612 489L184.971 489ZM178.731 466.185L178.419 466.185L175.065 478.119L182.085 478.119L178.731 466.185ZM204.534 489.468C203.026 489.468 201.674 489.221 200.478 488.727C199.308 488.233 198.307 487.531 197.475 486.621C196.669 485.711 196.045 484.606 195.603 483.306C195.187 482.006 194.979 480.55 194.979 478.938C194.979 477.326 195.187 475.87 195.603 474.57C196.045 473.27 196.669 472.165 197.475 471.255C198.307 470.345 199.308 469.643 200.478 469.149C201.674 468.655 203.013 468.408 204.495 468.408C206.575 468.408 208.239 468.85 209.487 469.734C210.761 470.618 211.71 471.762 212.334 473.166L209.019 474.96C208.655 474.024 208.096 473.283 207.342 472.737C206.614 472.191 205.665 471.918 204.495 471.918C202.883 471.918 201.635 472.412 200.751 473.4C199.867 474.362 199.425 475.649 199.425 477.261L199.425 480.615C199.425 482.201 199.867 483.488 200.751 484.476C201.635 485.464 202.909 485.958 204.573 485.958C205.821 485.958 206.835 485.672 207.615 485.1C208.421 484.528 209.058 483.748 209.526 482.76L212.646 484.671C211.996 486.075 211.008 487.232 209.682 488.142C208.356 489.026 206.64 489.468 204.534 489.468ZM226.788 472.308L219.729 472.308L219.729 468.876L238.137 468.876L238.137 472.308L231.039 472.308L231.039 489L226.788 489L226.788 472.308ZM254.502 489.468C252.968 489.468 251.59 489.221 250.368 488.727C249.146 488.233 248.119 487.531 247.287 486.621C246.455 485.711 245.818 484.619 245.376 483.345C244.934 482.045 244.713 480.589 244.713 478.977C244.713 477.365 244.934 475.909 245.376 474.609C245.844 473.309 246.481 472.204 247.287 471.294C248.119 470.358 249.12 469.643 250.29 469.149C251.46 468.655 252.76 468.408 254.19 468.408C255.594 468.408 256.868 468.655 258.012 469.149C259.156 469.617 260.131 470.293 260.937 471.177C261.743 472.061 262.354 473.114 262.77 474.336C263.212 475.558 263.433 476.91 263.433 478.392L263.433 479.991L249.003 479.991L249.003 480.654C249.003 482.24 249.497 483.54 250.485 484.554C251.473 485.542 252.838 486.036 254.58 486.036C255.88 486.036 256.985 485.763 257.895 485.217C258.831 484.645 259.585 483.891 260.157 482.955L262.809 485.295C262.133 486.465 261.093 487.453 259.689 488.259C258.311 489.065 256.582 489.468 254.502 489.468ZM254.19 471.645C253.436 471.645 252.734 471.775 252.084 472.035C251.46 472.295 250.914 472.672 250.446 473.166C250.004 473.634 249.653 474.193 249.393 474.843C249.133 475.493 249.003 476.208 249.003 476.988L249.003 477.261L259.104 477.261L259.104 476.871C259.104 475.285 258.649 474.024 257.739 473.088C256.855 472.126 255.672 471.645 254.19 471.645ZM270.593 468.876L274.844 468.876L274.844 472.308L275.078 472.308C275.676 471.086 276.469 470.137 277.457 469.461C278.445 468.759 279.68 468.408 281.162 468.408C283.528 468.408 285.413 469.292 286.817 471.06C288.221 472.828 288.923 475.454 288.923 478.938C288.923 482.422 288.221 485.048 286.817 486.816C285.413 488.584 283.528 489.468 281.162 489.468C279.68 489.468 278.445 489.13 277.457 488.454C276.469 487.752 275.676 486.79 275.078 485.568L274.844 485.568L274.844 496.8L270.593 496.8L270.593 468.876ZM279.407 485.997C281.019 485.997 282.254 485.503 283.112 484.515C283.996 483.527 284.438 482.214 284.438 480.576L284.438 477.3C284.438 475.662 283.996 474.349 283.112 473.361C282.254 472.373 281.019 471.879 279.407 471.879C278.783 471.879 278.198 471.957 277.652 472.113C277.106 472.269 276.625 472.503 276.209 472.815C275.793 473.127 275.455 473.517 275.195 473.985C274.961 474.427 274.844 474.96 274.844 475.584L274.844 482.292C274.844 482.916 274.961 483.462 275.195 483.93C275.455 484.372 275.793 484.749 276.209 485.061C276.625 485.373 277.106 485.607 277.652 485.763C278.198 485.919 278.783 485.997 279.407 485.997ZM304.352 489.468C302.87 489.468 301.531 489.221 300.335 488.727C299.165 488.233 298.164 487.531 297.332 486.621C296.526 485.711 295.902 484.606 295.46 483.306C295.018 482.006 294.797 480.55 294.797 478.938C294.797 477.326 295.018 475.87 295.46 474.57C295.902 473.27 296.526 472.165 297.332 471.255C298.164 470.345 299.165 469.643 300.335 469.149C301.531 468.655 302.87 468.408 304.352 468.408C305.834 468.408 307.16 468.655 308.33 469.149C309.526 469.643 310.527 470.345 311.333 471.255C312.165 472.165 312.802 473.27 313.244 474.57C313.686 475.87 313.907 477.326 313.907 478.938C313.907 480.55 313.686 482.006 313.244 483.306C312.802 484.606 312.165 485.711 311.333 486.621C310.527 487.531 309.526 488.233 308.33 488.727C307.16 489.221 305.834 489.468 304.352 489.468ZM304.352 486.114C305.912 486.114 307.147 485.646 308.057 484.71C308.993 483.748 309.461 482.331 309.461 480.459L309.461 477.417C309.461 475.545 308.993 474.141 308.057 473.205C307.147 472.243 305.912 471.762 304.352 471.762C302.792 471.762 301.544 472.243 300.608 473.205C299.698 474.141 299.243 475.545 299.243 477.417L299.243 480.459C299.243 482.331 299.698 483.748 300.608 484.71C301.544 485.646 302.792 486.114 304.352 486.114ZM321.029 468.876L325.241 468.876L325.241 477.534L324.851 482.994L325.046 482.994L333.938 468.876L337.955 468.876L337.955 489L333.743 489L333.743 480.342L334.133 474.882L333.938 474.882L325.046 489L321.029 489L321.029 468.876ZM343.595 485.568L345.896 485.568C346.65 484.372 347.248 482.929 347.69 481.239C348.132 479.523 348.353 477.495 348.353 475.155L348.353 468.876L362.081 468.876L362.081 485.568L365.318 485.568L365.318 494.46L361.496 494.46L361.496 489L347.417 489L347.417 494.46L343.595 494.46L343.595 485.568ZM357.908 485.568L357.908 472.308L352.331 472.308L352.331 475.311C352.331 477.599 352.149 479.575 351.785 481.239C351.447 482.877 350.94 484.32 350.264 485.568L357.908 485.568ZM369.787 468.876L373.648 468.876L373.648 475.506L376.495 475.506C378.549 475.506 380.2 476.091 381.448 477.261C382.722 478.431 383.359 480.095 383.359 482.253C383.359 484.411 382.722 486.075 381.448 487.245C380.2 488.415 378.549 489 376.495 489L369.787 489L369.787 468.876ZM376.222 485.802C377.21 485.802 377.977 485.581 378.523 485.139C379.095 484.671 379.381 483.943 379.381 482.955L379.381 481.551C379.381 480.563 379.095 479.848 378.523 479.406C377.977 478.938 377.21 478.704 376.222 478.704L373.648 478.704L373.648 485.802L376.222 485.802ZM385.894 468.876L389.755 468.876L389.755 489L385.894 489L385.894 468.876ZM430.792 489.468C429.284 489.468 427.932 489.221 426.736 488.727C425.566 488.233 424.565 487.531 423.733 486.621C422.927 485.711 422.303 484.606 421.861 483.306C421.445 482.006 421.237 480.55 421.237 478.938C421.237 477.326 421.445 475.87 421.861 474.57C422.303 473.27 422.927 472.165 423.733 471.255C424.565 470.345 425.566 469.643 426.736 469.149C427.932 468.655 429.271 468.408 430.753 468.408C432.833 468.408 434.497 468.85 435.745 469.734C437.019 470.618 437.968 471.762 438.592 473.166L435.277 474.96C434.913 474.024 434.354 473.283 433.6 472.737C432.872 472.191 431.923 471.918 430.753 471.918C429.141 471.918 427.893 472.412 427.009 473.4C426.125 474.362 425.683 475.649 425.683 477.261L425.683 480.615C425.683 482.201 426.125 483.488 427.009 484.476C427.893 485.464 429.167 485.958 430.831 485.958C432.079 485.958 433.093 485.672 433.873 485.1C434.679 484.528 435.316 483.748 435.784 482.76L438.904 484.671C438.254 486.075 437.266 487.232 435.94 488.142C434.614 489.026 432.898 489.468 430.792 489.468ZM471.945 468.876L488.715 468.876L488.715 489L484.464 489L484.464 472.308L476.196 472.308L476.196 489L471.945 489L471.945 468.876ZM494.706 485.568L497.319 485.568C497.657 485.126 497.956 484.619 498.216 484.047C498.502 483.449 498.723 482.734 498.879 481.902C499.061 481.07 499.191 480.108 499.269 479.016C499.373 477.924 499.425 476.65 499.425 475.194L499.425 468.876L513.66 468.876L513.66 489L509.409 489L509.409 472.308L503.403 472.308L503.403 475.272C503.403 478.678 503.156 481.343 502.662 483.267C502.168 485.191 501.492 486.595 500.634 487.479C500.036 488.103 499.347 488.519 498.567 488.727C497.787 488.909 496.968 489 496.11 489L494.706 489L494.706 485.568ZM538.098 489C536.876 489 535.953 488.688 535.329 488.064C534.731 487.44 534.367 486.621 534.237 485.607L534.042 485.607C533.652 486.829 532.937 487.778 531.897 488.454C530.883 489.13 529.583 489.468 527.997 489.468C525.943 489.468 524.305 488.935 523.083 487.869C521.861 486.777 521.25 485.282 521.25 483.384C521.25 481.434 521.965 479.952 523.395 478.938C524.851 477.898 527.074 477.378 530.064 477.378L533.925 477.378L533.925 475.818C533.925 473.088 532.482 471.723 529.596 471.723C528.296 471.723 527.243 471.983 526.437 472.503C525.631 472.997 524.955 473.66 524.409 474.492L521.874 472.425C522.446 471.333 523.408 470.397 524.76 469.617C526.112 468.811 527.854 468.408 529.986 468.408C532.534 468.408 534.536 469.019 535.992 470.241C537.448 471.463 538.176 473.231 538.176 475.545L538.176 485.646L540.711 485.646L540.711 489L538.098 489ZM529.206 486.348C530.584 486.348 531.715 486.036 532.599 485.412C533.483 484.788 533.925 483.982 533.925 482.994L533.925 480.069L530.142 480.069C527.074 480.069 525.54 480.992 525.54 482.838L525.54 483.618C525.54 484.528 525.865 485.217 526.515 485.685C527.165 486.127 528.062 486.348 529.206 486.348ZM547.326 468.876L551.577 468.876L551.577 476.988L559.923 476.988L559.923 468.876L564.174 468.876L564.174 489L559.923 489L559.923 480.42L551.577 480.42L551.577 489L547.326 489L547.326 468.876ZM581.318 489.468C579.784 489.468 578.406 489.221 577.184 488.727C575.962 488.233 574.935 487.531 574.103 486.621C573.271 485.711 572.634 484.619 572.192 483.345C571.75 482.045 571.529 480.589 571.529 478.977C571.529 477.365 571.75 475.909 572.192 474.609C572.66 473.309 573.297 472.204 574.103 471.294C574.935 470.358 575.936 469.643 577.106 469.149C578.276 468.655 579.576 468.408 581.006 468.408C582.41 468.408 583.684 468.655 584.828 469.149C585.972 469.617 586.947 470.293 587.753 471.177C588.559 472.061 589.17 473.114 589.586 474.336C590.028 475.558 590.249 476.91 590.249 478.392L590.249 479.991L575.819 479.991L575.819 480.654C575.819 482.24 576.313 483.54 577.301 484.554C578.289 485.542 579.654 486.036 581.396 486.036C582.696 486.036 583.801 485.763 584.711 485.217C585.647 484.645 586.401 483.891 586.973 482.955L589.625 485.295C588.949 486.465 587.909 487.453 586.505 488.259C585.127 489.065 583.398 489.468 581.318 489.468ZM581.006 471.645C580.252 471.645 579.55 471.775 578.9 472.035C578.276 472.295 577.73 472.672 577.262 473.166C576.82 473.634 576.469 474.193 576.209 474.843C575.949 475.493 575.819 476.208 575.819 476.988L575.819 477.261L585.92 477.261L585.92 476.871C585.92 475.285 585.465 474.024 584.555 473.088C583.671 472.126 582.488 471.645 581.006 471.645ZM603.884 472.308L596.825 472.308L596.825 468.876L615.233 468.876L615.233 472.308L608.135 472.308L608.135 489L603.884 489L603.884 472.308ZM621.185 468.876L625.046 468.876L625.046 475.506L627.893 475.506C629.947 475.506 631.598 476.091 632.846 477.261C634.12 478.431 634.757 480.095 634.757 482.253C634.757 484.411 634.12 486.075 632.846 487.245C631.598 488.415 629.947 489 627.893 489L621.185 489L621.185 468.876ZM627.62 485.802C628.608 485.802 629.375 485.581 629.921 485.139C630.493 484.671 630.779 483.943 630.779 482.955L630.779 481.551C630.779 480.563 630.493 479.848 629.921 479.406C629.375 478.938 628.608 478.704 627.62 478.704L625.046 478.704L625.046 485.802L627.62 485.802ZM637.292 468.876L641.153 468.876L641.153 489L637.292 489L637.292 468.876ZM679.265 486.816C676.379 486.582 674.234 485.451 672.83 483.423C671.426 481.369 670.724 478.704 670.724 475.428C670.724 472.152 671.426 469.5 672.83 467.472C674.234 465.418 676.379 464.274 679.265 464.04L679.265 460.647L683.633 460.647L683.633 464.04C685.089 464.17 686.35 464.521 687.416 465.093C688.482 465.665 689.366 466.445 690.068 467.433C690.77 468.421 691.29 469.591 691.628 470.943C691.992 472.295 692.174 473.79 692.174 475.428C692.174 477.066 691.992 478.561 691.628 479.913C691.29 481.265 690.77 482.435 690.068 483.423C689.366 484.411 688.482 485.204 687.416 485.802C686.35 486.374 685.089 486.712 683.633 486.816L683.633 490.209L679.265 490.209L679.265 486.816ZM679.499 467.355C677.861 467.537 676.678 468.161 675.95 469.227C675.222 470.267 674.858 471.658 674.858 473.4L674.858 477.456C674.858 479.198 675.222 480.602 675.95 481.668C676.678 482.708 677.861 483.319 679.499 483.501L679.499 467.355ZM683.399 483.501C685.037 483.319 686.22 482.708 686.948 481.668C687.676 480.602 688.04 479.198 688.04 477.456L688.04 473.4C688.04 471.658 687.676 470.267 686.948 469.227C686.22 468.161 685.037 467.537 683.399 467.355L683.399 483.501ZM707.017 489.468C705.483 489.468 704.105 489.221 702.883 488.727C701.661 488.233 700.634 487.531 699.802 486.621C698.97 485.711 698.333 484.619 697.891 483.345C697.449 482.045 697.228 480.589 697.228 478.977C697.228 477.365 697.449 475.909 697.891 474.609C698.359 473.309 698.996 472.204 699.802 471.294C700.634 470.358 701.635 469.643 702.805 469.149C703.975 468.655 705.275 468.408 706.705 468.408C708.109 468.408 709.383 468.655 710.527 469.149C711.671 469.617 712.646 470.293 713.452 471.177C714.258 472.061 714.869 473.114 715.285 474.336C715.727 475.558 715.948 476.91 715.948 478.392L715.948 479.991L701.518 479.991L701.518 480.654C701.518 482.24 702.012 483.54 703 484.554C703.988 485.542 705.353 486.036 707.095 486.036C708.395 486.036 709.5 485.763 710.41 485.217C711.346 484.645 712.1 483.891 712.672 482.955L715.324 485.295C714.648 486.465 713.608 487.453 712.204 488.259C710.826 489.065 709.097 489.468 707.017 489.468ZM706.705 471.645C705.951 471.645 705.249 471.775 704.599 472.035C703.975 472.295 703.429 472.672 702.961 473.166C702.519 473.634 702.168 474.193 701.908 474.843C701.648 475.493 701.518 476.208 701.518 476.988L701.518 477.261L711.619 477.261L711.619 476.871C711.619 475.285 711.164 474.024 710.254 473.088C709.37 472.126 708.187 471.645 706.705 471.645ZM723.304 468.876L727.555 468.876L727.555 476.988L735.901 476.988L735.901 468.876L740.152 468.876L740.152 489L735.901 489L735.901 480.42L727.555 480.42L727.555 489L723.304 489L723.304 468.876ZM756.868 489.468C755.386 489.468 754.047 489.221 752.851 488.727C751.681 488.233 750.68 487.531 749.848 486.621C749.042 485.711 748.418 484.606 747.976 483.306C747.534 482.006 747.313 480.55 747.313 478.938C747.313 477.326 747.534 475.87 747.976 474.57C748.418 473.27 749.042 472.165 749.848 471.255C750.68 470.345 751.681 469.643 752.851 469.149C754.047 468.655 755.386 468.408 756.868 468.408C758.35 468.408 759.676 468.655 760.846 469.149C762.042 469.643 763.043 470.345 763.849 471.255C764.681 472.165 765.318 473.27 765.76 474.57C766.202 475.87 766.423 477.326 766.423 478.938C766.423 480.55 766.202 482.006 765.76 483.306C765.318 484.606 764.681 485.711 763.849 486.621C763.043 487.531 762.042 488.233 760.846 488.727C759.676 489.221 758.35 489.468 756.868 489.468ZM756.868 486.114C758.428 486.114 759.663 485.646 760.573 484.71C761.509 483.748 761.977 482.331 761.977 480.459L761.977 477.417C761.977 475.545 761.509 474.141 760.573 473.205C759.663 472.243 758.428 471.762 756.868 471.762C755.308 471.762 754.06 472.243 753.124 473.205C752.214 474.141 751.759 475.545 751.759 477.417L751.759 480.459C751.759 482.331 752.214 483.748 753.124 484.71C754.06 485.646 755.308 486.114 756.868 486.114ZM773.584 468.876L777.835 468.876L777.835 476.988L786.181 476.988L786.181 468.876L790.432 468.876L790.432 489L786.181 489L786.181 480.42L777.835 480.42L777.835 489L773.584 489L773.584 468.876ZM823.863 468.876L828.114 468.876L828.114 476.988L836.46 476.988L836.46 468.876L840.711 468.876L840.711 489L836.46 489L836.46 480.42L828.114 480.42L828.114 489L823.863 489L823.863 468.876ZM864.915 489C863.693 489 862.77 488.688 862.146 488.064C861.548 487.44 861.184 486.621 861.054 485.607L860.859 485.607C860.469 486.829 859.754 487.778 858.714 488.454C857.7 489.13 856.4 489.468 854.814 489.468C852.76 489.468 851.122 488.935 849.9 487.869C848.678 486.777 848.067 485.282 848.067 483.384C848.067 481.434 848.782 479.952 850.212 478.938C851.668 477.898 853.891 477.378 856.881 477.378L860.742 477.378L860.742 475.818C860.742 473.088 859.299 471.723 856.413 471.723C855.113 471.723 854.06 471.983 853.254 472.503C852.448 472.997 851.772 473.66 851.226 474.492L848.691 472.425C849.263 471.333 850.225 470.397 851.577 469.617C852.929 468.811 854.671 468.408 856.803 468.408C859.351 468.408 861.353 469.019 862.809 470.241C864.265 471.463 864.993 473.231 864.993 475.545L864.993 485.646L867.528 485.646L867.528 489L864.915 489ZM856.023 486.348C857.401 486.348 858.532 486.036 859.416 485.412C860.3 484.788 860.742 483.982 860.742 482.994L860.742 480.069L856.959 480.069C853.891 480.069 852.357 480.992 852.357 482.838L852.357 483.618C852.357 484.528 852.682 485.217 853.332 485.685C853.982 486.127 854.879 486.348 856.023 486.348ZM899.321 468.876L916.091 468.876L916.091 489L911.84 489L911.84 472.308L903.572 472.308L903.572 489L899.321 489L899.321 468.876ZM940.334 489C939.112 489 938.189 488.688 937.565 488.064C936.967 487.44 936.603 486.621 936.473 485.607L936.278 485.607C935.888 486.829 935.173 487.778 934.133 488.454C933.119 489.13 931.819 489.468 930.233 489.468C928.179 489.468 926.541 488.935 925.319 487.869C924.097 486.777 923.486 485.282 923.486 483.384C923.486 481.434 924.201 479.952 925.631 478.938C927.087 477.898 929.31 477.378 932.3 477.378L936.161 477.378L936.161 475.818C936.161 473.088 934.718 471.723 931.832 471.723C930.532 471.723 929.479 471.983 928.673 472.503C927.867 472.997 927.191 473.66 926.645 474.492L924.11 472.425C924.682 471.333 925.644 470.397 926.996 469.617C928.348 468.811 930.09 468.408 932.222 468.408C934.77 468.408 936.772 469.019 938.228 470.241C939.684 471.463 940.412 473.231 940.412 475.545L940.412 485.646L942.947 485.646L942.947 489L940.334 489ZM931.442 486.348C932.82 486.348 933.951 486.036 934.835 485.412C935.719 484.788 936.161 483.982 936.161 482.994L936.161 480.069L932.378 480.069C929.31 480.069 927.776 480.992 927.776 482.838L927.776 483.618C927.776 484.528 928.101 485.217 928.751 485.685C929.401 486.127 930.298 486.348 931.442 486.348ZM949.367 468.876L953.618 468.876L953.618 472.308L953.852 472.308C954.45 471.086 955.243 470.137 956.231 469.461C957.219 468.759 958.454 468.408 959.936 468.408C962.302 468.408 964.187 469.292 965.591 471.06C966.995 472.828 967.697 475.454 967.697 478.938C967.697 482.422 966.995 485.048 965.591 486.816C964.187 488.584 962.302 489.468 959.936 489.468C958.454 489.468 957.219 489.13 956.231 488.454C955.243 487.752 954.45 486.79 953.852 485.568L953.618 485.568L953.618 496.8L949.367 496.8L949.367 468.876ZM958.181 485.997C959.793 485.997 961.028 485.503 961.886 484.515C962.77 483.527 963.212 482.214 963.212 480.576L963.212 477.3C963.212 475.662 962.77 474.349 961.886 473.361C961.028 472.373 959.793 471.879 958.181 471.879C957.557 471.879 956.972 471.957 956.426 472.113C955.88 472.269 955.399 472.503 954.983 472.815C954.567 473.127 954.229 473.517 953.969 473.985C953.735 474.427 953.618 474.96 953.618 475.584L953.618 482.292C953.618 482.916 953.735 483.462 953.969 483.93C954.229 484.372 954.567 484.749 954.983 485.061C955.399 485.373 955.88 485.607 956.426 485.763C956.972 485.919 957.557 485.997 958.181 485.997ZM989.015 468.876L993.305 468.876L983.555 492.9C983.035 494.2 982.346 495.175 981.488 495.825C980.656 496.475 979.447 496.8 977.861 496.8L974.468 496.8L974.468 493.368L979.226 493.368L981.059 488.727L972.947 468.876L977.393 468.876L980.591 477.3L983.087 484.203L983.321 484.203L985.817 477.3L989.015 468.876ZM1033.41 489.39C1032.16 489.39 1031.27 489.13 1030.75 488.61C1030.26 488.09 1030.01 487.453 1030.01 486.699L1030.01 485.685C1030.01 484.931 1030.26 484.294 1030.75 483.774C1031.27 483.254 1032.16 482.994 1033.41 482.994C1034.65 482.994 1035.52 483.254 1036.02 483.774C1036.54 484.294 1036.8 484.931 1036.8 485.685L1036.8 486.699C1036.8 487.453 1036.54 488.09 1036.02 488.61C1035.52 489.13 1034.65 489.39 1033.41 489.39ZM1058.55 489.39C1057.3 489.39 1056.41 489.13 1055.89 488.61C1055.4 488.09 1055.15 487.453 1055.15 486.699L1055.15 485.685C1055.15 484.931 1055.4 484.294 1055.89 483.774C1056.41 483.254 1057.3 482.994 1058.55 482.994C1059.79 482.994 1060.66 483.254 1061.16 483.774C1061.68 484.294 1061.94 484.931 1061.94 485.685L1061.94 486.699C1061.94 487.453 1061.68 488.09 1061.16 488.61C1060.66 489.13 1059.79 489.39 1058.55 489.39ZM1083.68 489.39C1082.44 489.39 1081.55 489.13 1081.03 488.61C1080.54 488.09 1080.29 487.453 1080.29 486.699L1080.29 485.685C1080.29 484.931 1080.54 484.294 1081.03 483.774C1081.55 483.254 1082.44 482.994 1083.68 482.994C1084.93 482.994 1085.8 483.254 1086.3 483.774C1086.82 484.294 1087.08 484.931 1087.08 485.685L1087.08 486.699C1087.08 487.453 1086.82 488.09 1086.3 488.61C1085.8 489.13 1084.93 489.39 1083.68 489.39ZM1108.82 489.39C1107.58 489.39 1106.69 489.13 1106.17 488.61C1105.68 488.09 1105.43 487.453 1105.43 486.699L1105.43 485.685C1105.43 484.931 1105.68 484.294 1106.17 483.774C1106.69 483.254 1107.58 482.994 1108.82 482.994C1110.07 482.994 1110.94 483.254 1111.44 483.774C1111.96 484.294 1112.22 484.931 1112.22 485.685L1112.22 486.699C1112.22 487.453 1111.96 488.09 1111.44 488.61C1110.94 489.13 1110.07 489.39 1108.82 489.39ZM1133.96 489.39C1132.72 489.39 1131.83 489.13 1131.31 488.61C1130.82 488.09 1130.57 487.453 1130.57 486.699L1130.57 485.685C1130.57 484.931 1130.82 484.294 1131.31 483.774C1131.83 483.254 1132.72 482.994 1133.96 482.994C1135.21 482.994 1136.08 483.254 1136.58 483.774C1137.1 484.294 1137.36 484.931 1137.36 485.685L1137.36 486.699C1137.36 487.453 1137.1 488.09 1136.58 488.61C1136.08 489.13 1135.21 489.39 1133.96 489.39ZM1159.1 489.39C1157.86 489.39 1156.97 489.13 1156.45 488.61C1155.96 488.09 1155.71 487.453 1155.71 486.699L1155.71 485.685C1155.71 484.931 1155.96 484.294 1156.45 483.774C1156.97 483.254 1157.86 482.994 1159.1 482.994C1160.35 482.994 1161.22 483.254 1161.72 483.774C1162.24 484.294 1162.5 484.931 1162.5 485.685L1162.5 486.699C1162.5 487.453 1162.24 488.09 1161.72 488.61C1161.22 489.13 1160.35 489.39 1159.1 489.39ZM1184.24 489.39C1183 489.39 1182.11 489.13 1181.59 488.61C1181.1 488.09 1180.85 487.453 1180.85 486.699L1180.85 485.685C1180.85 484.931 1181.1 484.294 1181.59 483.774C1182.11 483.254 1183 482.994 1184.24 482.994C1185.49 482.994 1186.36 483.254 1186.86 483.774C1187.38 484.294 1187.64 484.931 1187.64 485.685L1187.64 486.699C1187.64 487.453 1187.38 488.09 1186.86 488.61C1186.36 489.13 1185.49 489.39 1184.24 489.39ZM1209.38 489.39C1208.14 489.39 1207.25 489.13 1206.73 488.61C1206.24 488.09 1205.99 487.453 1205.99 486.699L1205.99 485.685C1205.99 484.931 1206.24 484.294 1206.73 483.774C1207.25 483.254 1208.14 482.994 1209.38 482.994C1210.63 482.994 1211.5 483.254 1212 483.774C1212.52 484.294 1212.78 484.931 1212.78 485.685L1212.78 486.699C1212.78 487.453 1212.52 488.09 1212 488.61C1211.5 489.13 1210.63 489.39 1209.38 489.39ZM1234.52 489.39C1233.28 489.39 1232.39 489.13 1231.87 488.61C1231.38 488.09 1231.13 487.453 1231.13 486.699L1231.13 485.685C1231.13 484.931 1231.38 484.294 1231.87 483.774C1232.39 483.254 1233.28 482.994 1234.52 482.994C1235.77 482.994 1236.64 483.254 1237.14 483.774C1237.66 484.294 1237.92 484.931 1237.92 485.685L1237.92 486.699C1237.92 487.453 1237.66 488.09 1237.14 488.61C1236.64 489.13 1235.77 489.39 1234.52 489.39ZM1259.66 489.39C1258.42 489.39 1257.53 489.13 1257.01 488.61C1256.52 488.09 1256.27 487.453 1256.27 486.699L1256.27 485.685C1256.27 484.931 1256.52 484.294 1257.01 483.774C1257.53 483.254 1258.42 482.994 1259.66 482.994C1260.91 482.994 1261.78 483.254 1262.28 483.774C1262.8 484.294 1263.06 484.931 1263.06 485.685L1263.06 486.699C1263.06 487.453 1262.8 488.09 1262.28 488.61C1261.78 489.13 1260.91 489.39 1259.66 489.39ZM1312.36 489L1312.36 483.696L1299.41 483.696L1299.41 479.952L1310.8 461.778L1316.53 461.778L1316.53 480.264L1320.36 480.264L1320.36 483.696L1316.53 483.696L1316.53 489L1312.36 489ZM1303.12 480.264L1312.36 480.264L1312.36 465.795L1312.13 465.795L1303.12 480.264ZM1333.95 473.01C1335.69 473.01 1336.98 472.646 1337.81 471.918C1338.67 471.164 1339.1 470.228 1339.1 469.11L1339.1 468.837C1339.1 467.589 1338.68 466.64 1337.85 465.99C1337.05 465.314 1335.95 464.976 1334.58 464.976C1333.25 464.976 1332.12 465.275 1331.18 465.873C1330.27 466.471 1329.51 467.29 1328.88 468.33L1325.92 465.795C1326.33 465.197 1326.81 464.625 1327.36 464.079C1327.91 463.533 1328.53 463.065 1329.23 462.675C1329.93 462.259 1330.74 461.934 1331.65 461.7C1332.56 461.44 1333.59 461.31 1334.73 461.31C1336.01 461.31 1337.19 461.466 1338.28 461.778C1339.37 462.09 1340.32 462.558 1341.13 463.182C1341.93 463.78 1342.56 464.521 1343 465.405C1343.44 466.263 1343.66 467.238 1343.66 468.33C1343.66 469.188 1343.52 469.968 1343.23 470.67C1342.97 471.372 1342.6 471.996 1342.1 472.542C1341.63 473.062 1341.08 473.491 1340.43 473.829C1339.78 474.167 1339.09 474.414 1338.36 474.57L1338.36 474.765C1339.14 474.921 1339.88 475.181 1340.58 475.545C1341.28 475.883 1341.91 476.338 1342.45 476.91C1343 477.456 1343.43 478.119 1343.74 478.899C1344.05 479.653 1344.21 480.524 1344.21 481.512C1344.21 482.708 1343.97 483.8 1343.51 484.788C1343.04 485.75 1342.36 486.582 1341.48 487.284C1340.62 487.986 1339.58 488.532 1338.36 488.922C1337.14 489.286 1335.77 489.468 1334.26 489.468C1332.99 489.468 1331.86 489.325 1330.87 489.039C1329.91 488.779 1329.05 488.428 1328.3 487.986C1327.54 487.518 1326.88 486.998 1326.31 486.426C1325.76 485.828 1325.28 485.217 1324.86 484.593L1328.1 482.097C1328.78 483.189 1329.57 484.086 1330.48 484.788C1331.42 485.464 1332.69 485.802 1334.3 485.802C1336.02 485.802 1337.33 485.412 1338.24 484.632C1339.15 483.826 1339.61 482.721 1339.61 481.317L1339.61 481.005C1339.61 479.601 1339.13 478.535 1338.16 477.807C1337.23 477.053 1335.86 476.676 1334.07 476.676L1331.14 476.676L1331.14 473.01L1333.95 473.01ZM1369.86 471.918C1369.86 473.894 1369.56 475.753 1368.96 477.495C1368.36 479.237 1367.58 480.836 1366.62 482.292C1365.66 483.748 1364.59 485.048 1363.42 486.192C1362.25 487.336 1361.09 488.272 1359.95 489L1354.1 489C1355.66 487.882 1357.06 486.803 1358.31 485.763C1359.56 484.723 1360.64 483.657 1361.55 482.565C1362.48 481.473 1363.26 480.329 1363.89 479.133C1364.51 477.911 1364.99 476.559 1365.33 475.077L1365.06 474.999C1364.77 475.545 1364.43 476.065 1364.04 476.559C1363.65 477.027 1363.2 477.443 1362.68 477.807C1362.16 478.171 1361.56 478.457 1360.89 478.665C1360.21 478.873 1359.44 478.977 1358.58 478.977C1357.41 478.977 1356.34 478.782 1355.35 478.392C1354.36 478.002 1353.5 477.443 1352.77 476.715C1352.05 475.961 1351.47 475.064 1351.06 474.024C1350.67 472.984 1350.47 471.814 1350.47 470.514C1350.47 469.162 1350.69 467.927 1351.14 466.809C1351.6 465.665 1352.25 464.69 1353.09 463.884C1353.94 463.078 1354.97 462.454 1356.17 462.012C1357.36 461.544 1358.69 461.31 1360.14 461.31C1361.65 461.31 1363 461.557 1364.2 462.051C1365.42 462.545 1366.45 463.26 1367.28 464.196C1368.11 465.106 1368.75 466.211 1369.19 467.511C1369.63 468.811 1369.86 470.28 1369.86 471.918ZM1360.18 475.506C1361.82 475.506 1363.1 475.064 1364.01 474.18C1364.92 473.27 1365.37 471.996 1365.37 470.358L1365.37 469.968C1365.37 468.33 1364.92 467.069 1364.01 466.185C1363.1 465.275 1361.82 464.82 1360.18 464.82C1358.52 464.82 1357.23 465.275 1356.32 466.185C1355.41 467.069 1354.96 468.33 1354.96 469.968L1354.96 470.358C1354.96 471.996 1355.41 473.27 1356.32 474.18C1357.23 475.064 1358.52 475.506 1360.18 475.506ZM1382.44 484.125L1382.44 489L1378.07 489L1378.07 484.125L1375.22 484.125L1375.22 480.771L1378.07 480.771L1378.07 477.846L1375.22 477.846L1375.22 474.492L1378.07 474.492L1378.07 461.778L1387.47 461.778C1390.07 461.778 1392.04 462.506 1393.4 463.962C1394.77 465.392 1395.46 467.355 1395.46 469.851C1395.46 472.373 1394.77 474.336 1393.4 475.74C1392.04 477.144 1390.07 477.846 1387.47 477.846L1382.44 477.846L1382.44 480.771L1390.94 480.771L1390.94 484.125L1382.44 484.125ZM1382.44 474.492L1386.84 474.492C1389.57 474.492 1390.94 473.27 1390.94 470.826L1390.94 468.915C1390.94 466.471 1389.57 465.249 1386.84 465.249L1382.44 465.249L1382.44 474.492ZM106.99 528.778L124.618 528.778L124.618 556L120.25 556L120.25 532.444L111.358 532.444L111.358 556L106.99 556L106.99 528.778ZM140.944 556.468C139.462 556.468 138.123 556.221 136.927 555.727C135.757 555.233 134.756 554.531 133.924 553.621C133.118 552.711 132.494 551.606 132.052 550.306C131.61 549.006 131.389 547.55 131.389 545.938C131.389 544.326 131.61 542.87 132.052 541.57C132.494 540.27 133.118 539.165 133.924 538.255C134.756 537.345 135.757 536.643 136.927 536.149C138.123 535.655 139.462 535.408 140.944 535.408C142.426 535.408 143.752 535.655 144.922 536.149C146.118 536.643 147.119 537.345 147.925 538.255C148.757 539.165 149.394 540.27 149.836 541.57C150.278 542.87 150.499 544.326 150.499 545.938C150.499 547.55 150.278 549.006 149.836 550.306C149.394 551.606 148.757 552.711 147.925 553.621C147.119 554.531 146.118 555.233 144.922 555.727C143.752 556.221 142.426 556.468 140.944 556.468ZM140.944 553.114C142.504 553.114 143.739 552.646 144.649 551.71C145.585 550.748 146.053 549.331 146.053 547.459L146.053 544.417C146.053 542.545 145.585 541.141 144.649 540.205C143.739 539.243 142.504 538.762 140.944 538.762C139.384 538.762 138.136 539.243 137.2 540.205C136.29 541.141 135.835 542.545 135.835 544.417L135.835 547.459C135.835 549.331 136.29 550.748 137.2 551.71C138.136 552.646 139.384 553.114 140.944 553.114ZM155.319 552.568L157.932 552.568C158.27 552.126 158.569 551.619 158.829 551.047C159.115 550.449 159.336 549.734 159.492 548.902C159.674 548.07 159.804 547.108 159.882 546.016C159.986 544.924 160.038 543.65 160.038 542.194L160.038 535.876L174.273 535.876L174.273 556L170.022 556L170.022 539.308L164.016 539.308L164.016 542.272C164.016 545.678 163.769 548.343 163.275 550.267C162.781 552.191 162.105 553.595 161.247 554.479C160.649 555.103 159.96 555.519 159.18 555.727C158.4 555.909 157.581 556 156.723 556L155.319 556L155.319 552.568ZM182.76 535.876L186.972 535.876L186.972 544.534L186.582 549.994L186.777 549.994L195.669 535.876L199.686 535.876L199.686 556L195.474 556L195.474 547.342L195.864 541.882L195.669 541.882L186.777 556L182.76 556L182.76 535.876ZM208.368 535.876L219.171 535.876C220.913 535.876 222.265 536.344 223.227 537.28C224.189 538.19 224.67 539.412 224.67 540.946C224.67 543.442 223.305 544.898 220.575 545.314L220.575 545.509C222.239 545.639 223.461 546.12 224.241 546.952C225.021 547.758 225.411 548.824 225.411 550.15C225.411 550.956 225.268 551.71 224.982 552.412C224.722 553.114 224.332 553.738 223.812 554.284C223.292 554.804 222.642 555.22 221.862 555.532C221.108 555.844 220.25 556 219.288 556L208.368 556L208.368 535.876ZM218.391 552.802C219.223 552.802 219.873 552.607 220.341 552.217C220.809 551.801 221.043 551.216 221.043 550.462L221.043 549.526C221.043 548.772 220.809 548.187 220.341 547.771C219.899 547.355 219.301 547.147 218.547 547.147L212.619 547.147L212.619 552.802L218.391 552.802ZM218.001 544.3C218.703 544.3 219.262 544.105 219.678 543.715C220.094 543.325 220.302 542.792 220.302 542.116L220.302 541.258C220.302 540.582 220.094 540.049 219.678 539.659C219.262 539.269 218.703 539.074 218.001 539.074L212.619 539.074L212.619 544.3L218.001 544.3ZM233.04 535.876L237.252 535.876L237.252 544.534L236.862 549.994L237.057 549.994L245.949 535.876L249.966 535.876L249.966 556L245.754 556L245.754 547.342L246.144 541.882L245.949 541.882L237.057 556L233.04 556L233.04 535.876ZM258.218 535.876L262.469 535.876L262.469 543.988L270.815 543.988L270.815 535.876L275.066 535.876L275.066 556L270.815 556L270.815 547.42L262.469 547.42L262.469 556L258.218 556L258.218 535.876ZM283.319 535.876L287.531 535.876L287.531 544.534L287.141 549.994L287.336 549.994L296.228 535.876L300.245 535.876L300.245 556L296.033 556L296.033 547.342L296.423 541.882L296.228 541.882L287.336 556L283.319 556L283.319 535.876ZM306.158 552.568L308.771 552.568C309.109 552.126 309.408 551.619 309.668 551.047C309.954 550.449 310.175 549.734 310.331 548.902C310.513 548.07 310.643 547.108 310.721 546.016C310.825 544.924 310.877 543.65 310.877 542.194L310.877 535.876L325.112 535.876L325.112 556L320.861 556L320.861 539.308L314.855 539.308L314.855 542.272C314.855 545.678 314.608 548.343 314.114 550.267C313.62 552.191 312.944 553.595 312.086 554.479C311.488 555.103 310.799 555.519 310.019 555.727C309.239 555.909 308.42 556 307.562 556L306.158 556L306.158 552.568ZM338.045 553.153C339.527 553.153 340.268 552.204 340.268 550.306L340.268 541.57C340.268 539.672 339.527 538.723 338.045 538.723C337.213 538.723 336.576 539.087 336.134 539.815C335.718 540.543 335.51 541.921 335.51 543.949L335.51 547.927C335.51 549.955 335.718 551.333 336.134 552.061C336.576 552.789 337.213 553.153 338.045 553.153ZM340.229 553.738L340.034 553.738C339.618 554.752 339.111 555.467 338.513 555.883C337.941 556.273 337.278 556.468 336.524 556.468C335.744 556.468 335.055 556.299 334.457 555.961C333.885 555.623 333.391 555.051 332.975 554.245C332.585 553.413 332.286 552.321 332.078 550.969C331.87 549.617 331.766 547.94 331.766 545.938C331.766 543.936 331.87 542.259 332.078 540.907C332.286 539.555 332.585 538.476 332.975 537.67C333.391 536.838 333.885 536.253 334.457 535.915C335.055 535.577 335.744 535.408 336.524 535.408C337.278 535.408 337.941 535.616 338.513 536.032C339.111 536.422 339.618 537.124 340.034 538.138L340.229 538.138L340.229 528.31L343.895 528.31L343.895 538.138L344.09 538.138C344.506 537.124 345 536.422 345.572 536.032C346.17 535.616 346.846 535.408 347.6 535.408C348.38 535.408 349.056 535.577 349.628 535.915C350.226 536.253 350.72 536.838 351.11 537.67C351.526 538.476 351.838 539.555 352.046 540.907C352.254 542.259 352.358 543.936 352.358 545.938C352.358 547.94 352.254 549.617 352.046 550.969C351.838 552.321 351.526 553.413 351.11 554.245C350.72 555.051 350.226 555.623 349.628 555.961C349.056 556.299 348.38 556.468 347.6 556.468C346.846 556.468 346.17 556.273 345.572 555.883C345 555.467 344.506 554.752 344.09 553.738L343.895 553.738L343.895 563.8L340.229 563.8L340.229 553.738ZM346.079 553.153C346.911 553.153 347.535 552.789 347.951 552.061C348.393 551.333 348.614 549.955 348.614 547.927L348.614 543.949C348.614 541.921 348.393 540.543 347.951 539.815C347.535 539.087 346.911 538.723 346.079 538.723C344.597 538.723 343.856 539.672 343.856 541.57L343.856 550.306C343.856 552.204 344.597 553.153 346.079 553.153ZM356.437 552.568L359.05 552.568C359.388 552.126 359.687 551.619 359.947 551.047C360.233 550.449 360.454 549.734 360.61 548.902C360.792 548.07 360.922 547.108 361 546.016C361.104 544.924 361.156 543.65 361.156 542.194L361.156 535.876L375.391 535.876L375.391 556L371.14 556L371.14 539.308L365.134 539.308L365.134 542.272C365.134 545.678 364.887 548.343 364.393 550.267C363.899 552.191 363.223 553.595 362.365 554.479C361.767 555.103 361.078 555.519 360.298 555.727C359.518 555.909 358.699 556 357.841 556L356.437 556L356.437 552.568ZM395.89 556.468C394.85 556.468 393.927 556.312 393.121 556C392.341 555.714 391.665 555.22 391.093 554.518C390.547 553.79 390.118 552.841 389.806 551.671C389.52 550.501 389.338 549.032 389.26 547.264L386.062 547.264L386.062 556L382.357 556L382.357 535.876L386.062 535.876L386.062 544.144L389.299 544.144C389.377 542.48 389.572 541.089 389.884 539.971C390.222 538.853 390.664 537.956 391.21 537.28C391.756 536.604 392.419 536.123 393.199 535.837C393.979 535.551 394.876 535.408 395.89 535.408C396.982 535.408 397.944 535.577 398.776 535.915C399.608 536.253 400.297 536.825 400.843 537.631C401.415 538.437 401.831 539.516 402.091 540.868C402.377 542.22 402.52 543.91 402.52 545.938C402.52 547.966 402.377 549.656 402.091 551.008C401.805 552.36 401.389 553.439 400.843 554.245C400.297 555.051 399.608 555.623 398.776 555.961C397.944 556.299 396.982 556.468 395.89 556.468ZM395.89 553.231C396.358 553.231 396.761 553.153 397.099 552.997C397.463 552.841 397.749 552.568 397.957 552.178C398.191 551.788 398.36 551.255 398.464 550.579C398.594 549.877 398.659 548.98 398.659 547.888L398.659 543.988C398.659 542.896 398.594 542.012 398.464 541.336C398.36 540.634 398.191 540.088 397.957 539.698C397.749 539.308 397.463 539.035 397.099 538.879C396.761 538.723 396.358 538.645 395.89 538.645C395.422 538.645 395.006 538.723 394.642 538.879C394.304 539.035 394.018 539.308 393.784 539.698C393.576 540.088 393.407 540.634 393.277 541.336C393.173 542.012 393.121 542.896 393.121 543.988L393.121 547.888C393.121 548.98 393.173 549.877 393.277 550.579C393.407 551.255 393.576 551.788 393.784 552.178C394.018 552.568 394.304 552.841 394.642 552.997C395.006 553.153 395.422 553.231 395.89 553.231ZM409.018 535.876L413.23 535.876L413.23 544.534L412.84 549.994L413.035 549.994L421.927 535.876L425.944 535.876L425.944 556L421.732 556L421.732 547.342L422.122 541.882L421.927 541.882L413.035 556L409.018 556L409.018 535.876ZM431.584 552.568L433.885 552.568C434.639 551.372 435.237 549.929 435.679 548.239C436.121 546.523 436.342 544.495 436.342 542.155L436.342 535.876L450.07 535.876L450.07 552.568L453.307 552.568L453.307 561.46L449.485 561.46L449.485 556L435.406 556L435.406 561.46L431.584 561.46L431.584 552.568ZM445.897 552.568L445.897 539.308L440.32 539.308L440.32 542.311C440.32 544.599 440.138 546.575 439.774 548.239C439.436 549.877 438.929 551.32 438.253 552.568L445.897 552.568ZM467.761 556.468C466.279 556.468 464.94 556.221 463.744 555.727C462.574 555.233 461.573 554.531 460.741 553.621C459.935 552.711 459.311 551.606 458.869 550.306C458.427 549.006 458.206 547.55 458.206 545.938C458.206 544.326 458.427 542.87 458.869 541.57C459.311 540.27 459.935 539.165 460.741 538.255C461.573 537.345 462.574 536.643 463.744 536.149C464.94 535.655 466.279 535.408 467.761 535.408C469.243 535.408 470.569 535.655 471.739 536.149C472.935 536.643 473.936 537.345 474.742 538.255C475.574 539.165 476.211 540.27 476.653 541.57C477.095 542.87 477.316 544.326 477.316 545.938C477.316 547.55 477.095 549.006 476.653 550.306C476.211 551.606 475.574 552.711 474.742 553.621C473.936 554.531 472.935 555.233 471.739 555.727C470.569 556.221 469.243 556.468 467.761 556.468ZM467.761 553.114C469.321 553.114 470.556 552.646 471.466 551.71C472.402 550.748 472.87 549.331 472.87 547.459L472.87 544.417C472.87 542.545 472.402 541.141 471.466 540.205C470.556 539.243 469.321 538.762 467.761 538.762C466.201 538.762 464.953 539.243 464.017 540.205C463.107 541.141 462.652 542.545 462.652 544.417L462.652 547.459C462.652 549.331 463.107 550.748 464.017 551.71C464.953 552.646 466.201 553.114 467.761 553.114ZM484.905 535.876L495.708 535.876C497.45 535.876 498.802 536.344 499.764 537.28C500.726 538.19 501.207 539.412 501.207 540.946C501.207 543.442 499.842 544.898 497.112 545.314L497.112 545.509C498.776 545.639 499.998 546.12 500.778 546.952C501.558 547.758 501.948 548.824 501.948 550.15C501.948 550.956 501.805 551.71 501.519 552.412C501.259 553.114 500.869 553.738 500.349 554.284C499.829 554.804 499.179 555.22 498.399 555.532C497.645 555.844 496.787 556 495.825 556L484.905 556L484.905 535.876ZM494.928 552.802C495.76 552.802 496.41 552.607 496.878 552.217C497.346 551.801 497.58 551.216 497.58 550.462L497.58 549.526C497.58 548.772 497.346 548.187 496.878 547.771C496.436 547.355 495.838 547.147 495.084 547.147L489.156 547.147L489.156 552.802L494.928 552.802ZM494.538 544.3C495.24 544.3 495.799 544.105 496.215 543.715C496.631 543.325 496.839 542.792 496.839 542.116L496.839 541.258C496.839 540.582 496.631 540.049 496.215 539.659C495.799 539.269 495.24 539.074 494.538 539.074L489.156 539.074L489.156 544.3L494.538 544.3ZM508.056 535.876L511.917 535.876L511.917 542.506L514.764 542.506C516.818 542.506 518.469 543.091 519.717 544.261C520.991 545.431 521.628 547.095 521.628 549.253C521.628 551.411 520.991 553.075 519.717 554.245C518.469 555.415 516.818 556 514.764 556L508.056 556L508.056 535.876ZM514.491 552.802C515.479 552.802 516.246 552.581 516.792 552.139C517.364 551.671 517.65 550.943 517.65 549.955L517.65 548.551C517.65 547.563 517.364 546.848 516.792 546.406C516.246 545.938 515.479 545.704 514.491 545.704L511.917 545.704L511.917 552.802L514.491 552.802ZM524.163 535.876L528.024 535.876L528.024 556L524.163 556L524.163 535.876ZM543.609 556.468C542.075 556.468 540.697 556.221 539.475 555.727C538.253 555.233 537.226 554.531 536.394 553.621C535.562 552.711 534.925 551.619 534.483 550.345C534.041 549.045 533.82 547.589 533.82 545.977C533.82 544.365 534.041 542.909 534.483 541.609C534.951 540.309 535.588 539.204 536.394 538.294C537.226 537.358 538.227 536.643 539.397 536.149C540.567 535.655 541.867 535.408 543.297 535.408C544.701 535.408 545.975 535.655 547.119 536.149C548.263 536.617 549.238 537.293 550.044 538.177C550.85 539.061 551.461 540.114 551.877 541.336C552.319 542.558 552.54 543.91 552.54 545.392L552.54 546.991L538.11 546.991L538.11 547.654C538.11 549.24 538.604 550.54 539.592 551.554C540.58 552.542 541.945 553.036 543.687 553.036C544.987 553.036 546.092 552.763 547.002 552.217C547.938 551.645 548.692 550.891 549.264 549.955L551.916 552.295C551.24 553.465 550.2 554.453 548.796 555.259C547.418 556.065 545.689 556.468 543.609 556.468ZM543.297 538.645C542.543 538.645 541.841 538.775 541.191 539.035C540.567 539.295 540.021 539.672 539.553 540.166C539.111 540.634 538.76 541.193 538.5 541.843C538.24 542.493 538.11 543.208 538.11 543.988L538.11 544.261L548.211 544.261L548.211 543.871C548.211 542.285 547.756 541.024 546.846 540.088C545.962 539.126 544.779 538.645 543.297 538.645ZM585.464 535.876L596.267 535.876C598.009 535.876 599.361 536.344 600.323 537.28C601.285 538.19 601.766 539.412 601.766 540.946C601.766 543.442 600.401 544.898 597.671 545.314L597.671 545.509C599.335 545.639 600.557 546.12 601.337 546.952C602.117 547.758 602.507 548.824 602.507 550.15C602.507 550.956 602.364 551.71 602.078 552.412C601.818 553.114 601.428 553.738 600.908 554.284C600.388 554.804 599.738 555.22 598.958 555.532C598.204 555.844 597.346 556 596.384 556L585.464 556L585.464 535.876ZM595.487 552.802C596.319 552.802 596.969 552.607 597.437 552.217C597.905 551.801 598.139 551.216 598.139 550.462L598.139 549.526C598.139 548.772 597.905 548.187 597.437 547.771C596.995 547.355 596.397 547.147 595.643 547.147L589.715 547.147L589.715 552.802L595.487 552.802ZM595.097 544.3C595.799 544.3 596.358 544.105 596.774 543.715C597.19 543.325 597.398 542.792 597.398 542.116L597.398 541.258C597.398 540.582 597.19 540.049 596.774 539.659C596.358 539.269 595.799 539.074 595.097 539.074L589.715 539.074L589.715 544.3L595.097 544.3ZM618.599 556.468C617.117 556.468 615.778 556.221 614.582 555.727C613.412 555.233 612.411 554.531 611.579 553.621C610.773 552.711 610.149 551.606 609.707 550.306C609.265 549.006 609.044 547.55 609.044 545.938C609.044 544.326 609.265 542.87 609.707 541.57C610.149 540.27 610.773 539.165 611.579 538.255C612.411 537.345 613.412 536.643 614.582 536.149C615.778 535.655 617.117 535.408 618.599 535.408C620.081 535.408 621.407 535.655 622.577 536.149C623.773 536.643 624.774 537.345 625.58 538.255C626.412 539.165 627.049 540.27 627.491 541.57C627.933 542.87 628.154 544.326 628.154 545.938C628.154 547.55 627.933 549.006 627.491 550.306C627.049 551.606 626.412 552.711 625.58 553.621C624.774 554.531 623.773 555.233 622.577 555.727C621.407 556.221 620.081 556.468 618.599 556.468ZM618.599 553.114C620.159 553.114 621.394 552.646 622.304 551.71C623.24 550.748 623.708 549.331 623.708 547.459L623.708 544.417C623.708 542.545 623.24 541.141 622.304 540.205C621.394 539.243 620.159 538.762 618.599 538.762C617.039 538.762 615.791 539.243 614.855 540.205C613.945 541.141 613.49 542.545 613.49 544.417L613.49 547.459C613.49 549.331 613.945 550.748 614.855 551.71C615.791 552.646 617.039 553.114 618.599 553.114ZM632.975 552.568L635.588 552.568C635.926 552.126 636.225 551.619 636.485 551.047C636.771 550.449 636.992 549.734 637.148 548.902C637.33 548.07 637.46 547.108 637.538 546.016C637.642 544.924 637.694 543.65 637.694 542.194L637.694 535.876L651.929 535.876L651.929 556L647.678 556L647.678 539.308L641.672 539.308L641.672 542.272C641.672 545.678 641.425 548.343 640.931 550.267C640.437 552.191 639.761 553.595 638.903 554.479C638.305 555.103 637.616 555.519 636.836 555.727C636.056 555.909 635.237 556 634.379 556L632.975 556L632.975 552.568ZM668.879 556.468C667.397 556.468 666.058 556.221 664.862 555.727C663.692 555.233 662.691 554.531 661.859 553.621C661.053 552.711 660.429 551.606 659.987 550.306C659.545 549.006 659.324 547.55 659.324 545.938C659.324 544.326 659.545 542.87 659.987 541.57C660.429 540.27 661.053 539.165 661.859 538.255C662.691 537.345 663.692 536.643 664.862 536.149C666.058 535.655 667.397 535.408 668.879 535.408C670.361 535.408 671.687 535.655 672.857 536.149C674.053 536.643 675.054 537.345 675.86 538.255C676.692 539.165 677.329 540.27 677.771 541.57C678.213 542.87 678.434 544.326 678.434 545.938C678.434 547.55 678.213 549.006 677.771 550.306C677.329 551.606 676.692 552.711 675.86 553.621C675.054 554.531 674.053 555.233 672.857 555.727C671.687 556.221 670.361 556.468 668.879 556.468ZM668.879 553.114C670.439 553.114 671.674 552.646 672.584 551.71C673.52 550.748 673.988 549.331 673.988 547.459L673.988 544.417C673.988 542.545 673.52 541.141 672.584 540.205C671.674 539.243 670.439 538.762 668.879 538.762C667.319 538.762 666.071 539.243 665.135 540.205C664.225 541.141 663.77 542.545 663.77 544.417L663.77 547.459C663.77 549.331 664.225 550.748 665.135 551.71C666.071 552.646 667.319 553.114 668.879 553.114ZM685.906 535.876L690.157 535.876L690.157 543.988L693.784 543.988L698.62 535.876L703.183 535.876L698.698 543.208C698.256 543.962 697.827 544.495 697.411 544.807C696.995 545.119 696.514 545.34 695.968 545.47L695.968 545.665C696.592 545.795 697.112 546.029 697.528 546.367C697.944 546.679 698.373 547.225 698.815 548.005L701.35 552.568L703.534 552.568L703.534 556L701.038 556C700.18 556 699.439 555.805 698.815 555.415C698.217 554.999 697.658 554.336 697.138 553.426L693.784 547.42L690.157 547.42L690.157 556L685.906 556L685.906 535.876ZM710.734 535.876L714.985 535.876L714.985 543.988L723.331 543.988L723.331 535.876L727.582 535.876L727.582 556L723.331 556L723.331 547.42L714.985 547.42L714.985 556L710.734 556L710.734 535.876ZM751.786 556C750.564 556 749.641 555.688 749.017 555.064C748.419 554.44 748.055 553.621 747.925 552.607L747.73 552.607C747.34 553.829 746.625 554.778 745.585 555.454C744.571 556.13 743.271 556.468 741.685 556.468C739.631 556.468 737.993 555.935 736.771 554.869C735.549 553.777 734.938 552.282 734.938 550.384C734.938 548.434 735.653 546.952 737.083 545.938C738.539 544.898 740.762 544.378 743.752 544.378L747.613 544.378L747.613 542.818C747.613 540.088 746.17 538.723 743.284 538.723C741.984 538.723 740.931 538.983 740.125 539.503C739.319 539.997 738.643 540.66 738.097 541.492L735.562 539.425C736.134 538.333 737.096 537.397 738.448 536.617C739.8 535.811 741.542 535.408 743.674 535.408C746.222 535.408 748.224 536.019 749.68 537.241C751.136 538.463 751.864 540.231 751.864 542.545L751.864 552.646L754.399 552.646L754.399 556L751.786 556ZM742.894 553.348C744.272 553.348 745.403 553.036 746.287 552.412C747.171 551.788 747.613 550.982 747.613 549.994L747.613 547.069L743.83 547.069C740.762 547.069 739.228 547.992 739.228 549.838L739.228 550.618C739.228 551.528 739.553 552.217 740.203 552.685C740.853 553.127 741.75 553.348 742.894 553.348ZM795.318 556.468C793.81 556.468 792.458 556.221 791.262 555.727C790.092 555.233 789.091 554.531 788.259 553.621C787.453 552.711 786.829 551.606 786.387 550.306C785.971 549.006 785.763 547.55 785.763 545.938C785.763 544.326 785.971 542.87 786.387 541.57C786.829 540.27 787.453 539.165 788.259 538.255C789.091 537.345 790.092 536.643 791.262 536.149C792.458 535.655 793.797 535.408 795.279 535.408C797.359 535.408 799.023 535.85 800.271 536.734C801.545 537.618 802.494 538.762 803.118 540.166L799.803 541.96C799.439 541.024 798.88 540.283 798.126 539.737C797.398 539.191 796.449 538.918 795.279 538.918C793.667 538.918 792.419 539.412 791.535 540.4C790.651 541.362 790.209 542.649 790.209 544.261L790.209 547.615C790.209 549.201 790.651 550.488 791.535 551.476C792.419 552.464 793.693 552.958 795.357 552.958C796.605 552.958 797.619 552.672 798.399 552.1C799.205 551.528 799.842 550.748 800.31 549.76L803.43 551.671C802.78 553.075 801.792 554.232 800.466 555.142C799.14 556.026 797.424 556.468 795.318 556.468ZM836.472 535.876L853.242 535.876L853.242 556L848.991 556L848.991 539.308L840.723 539.308L840.723 556L836.472 556L836.472 535.876ZM869.997 556.468C868.515 556.468 867.176 556.221 865.98 555.727C864.81 555.233 863.809 554.531 862.977 553.621C862.171 552.711 861.547 551.606 861.105 550.306C860.663 549.006 860.442 547.55 860.442 545.938C860.442 544.326 860.663 542.87 861.105 541.57C861.547 540.27 862.171 539.165 862.977 538.255C863.809 537.345 864.81 536.643 865.98 536.149C867.176 535.655 868.515 535.408 869.997 535.408C871.479 535.408 872.805 535.655 873.975 536.149C875.171 536.643 876.172 537.345 876.978 538.255C877.81 539.165 878.447 540.27 878.889 541.57C879.331 542.87 879.552 544.326 879.552 545.938C879.552 547.55 879.331 549.006 878.889 550.306C878.447 551.606 877.81 552.711 876.978 553.621C876.172 554.531 875.171 555.233 873.975 555.727C872.805 556.221 871.479 556.468 869.997 556.468ZM869.997 553.114C871.557 553.114 872.792 552.646 873.702 551.71C874.638 550.748 875.106 549.331 875.106 547.459L875.106 544.417C875.106 542.545 874.638 541.141 873.702 540.205C872.792 539.243 871.557 538.762 869.997 538.762C868.437 538.762 867.189 539.243 866.253 540.205C865.343 541.141 864.888 542.545 864.888 544.417L864.888 547.459C864.888 549.331 865.343 550.748 866.253 551.71C867.189 552.646 868.437 553.114 869.997 553.114ZM884.1 552.568L886.401 552.568C887.155 551.372 887.753 549.929 888.195 548.239C888.637 546.523 888.858 544.495 888.858 542.155L888.858 535.876L902.586 535.876L902.586 552.568L905.823 552.568L905.823 561.46L902.001 561.46L902.001 556L887.922 556L887.922 561.46L884.1 561.46L884.1 552.568ZM898.413 552.568L898.413 539.308L892.836 539.308L892.836 542.311C892.836 544.599 892.654 546.575 892.29 548.239C891.952 549.877 891.445 551.32 890.769 552.568L898.413 552.568ZM909.512 552.568L912.125 552.568C912.463 552.126 912.762 551.619 913.022 551.047C913.308 550.449 913.529 549.734 913.685 548.902C913.867 548.07 913.997 547.108 914.075 546.016C914.179 544.924 914.231 543.65 914.231 542.194L914.231 535.876L928.466 535.876L928.466 556L924.215 556L924.215 539.308L918.209 539.308L918.209 542.272C918.209 545.678 917.962 548.343 917.468 550.267C916.974 552.191 916.298 553.595 915.44 554.479C914.842 555.103 914.153 555.519 913.373 555.727C912.593 555.909 911.774 556 910.916 556L909.512 556L909.512 552.568ZM936.953 535.876L941.165 535.876L941.165 544.534L940.775 549.994L940.97 549.994L949.862 535.876L953.879 535.876L953.879 556L949.667 556L949.667 547.342L950.057 541.882L949.862 541.882L940.97 556L936.953 556L936.953 535.876ZM962.561 535.876L973.364 535.876C975.106 535.876 976.458 536.344 977.42 537.28C978.382 538.19 978.863 539.412 978.863 540.946C978.863 543.442 977.498 544.898 974.768 545.314L974.768 545.509C976.432 545.639 977.654 546.12 978.434 546.952C979.214 547.758 979.604 548.824 979.604 550.15C979.604 550.956 979.461 551.71 979.175 552.412C978.915 553.114 978.525 553.738 978.005 554.284C977.485 554.804 976.835 555.22 976.055 555.532C975.301 555.844 974.443 556 973.481 556L962.561 556L962.561 535.876ZM972.584 552.802C973.416 552.802 974.066 552.607 974.534 552.217C975.002 551.801 975.236 551.216 975.236 550.462L975.236 549.526C975.236 548.772 975.002 548.187 974.534 547.771C974.092 547.355 973.494 547.147 972.74 547.147L966.812 547.147L966.812 552.802L972.584 552.802ZM972.194 544.3C972.896 544.3 973.455 544.105 973.871 543.715C974.287 543.325 974.495 542.792 974.495 542.116L974.495 541.258C974.495 540.582 974.287 540.049 973.871 539.659C973.455 539.269 972.896 539.074 972.194 539.074L966.812 539.074L966.812 544.3L972.194 544.3ZM987.584 535.876L991.835 535.876L991.835 543.988L995.462 543.988L1000.3 535.876L1004.86 535.876L1000.38 543.208C999.934 543.962 999.505 544.495 999.089 544.807C998.673 545.119 998.192 545.34 997.646 545.47L997.646 545.665C998.27 545.795 998.79 546.029 999.206 546.367C999.622 546.679 1000.05 547.225 1000.49 548.005L1003.03 552.568L1005.21 552.568L1005.21 556L1002.72 556C1001.86 556 1001.12 555.805 1000.49 555.415C999.895 554.999 999.336 554.336 998.816 553.426L995.462 547.42L991.835 547.42L991.835 556L987.584 556L987.584 535.876ZM1020.84 556.468C1019.35 556.468 1018.01 556.221 1016.82 555.727C1015.65 555.233 1014.65 554.531 1013.82 553.621C1013.01 552.711 1012.39 551.606 1011.94 550.306C1011.5 549.006 1011.28 547.55 1011.28 545.938C1011.28 544.326 1011.5 542.87 1011.94 541.57C1012.39 540.27 1013.01 539.165 1013.82 538.255C1014.65 537.345 1015.65 536.643 1016.82 536.149C1018.01 535.655 1019.35 535.408 1020.84 535.408C1022.32 535.408 1023.64 535.655 1024.81 536.149C1026.01 536.643 1027.01 537.345 1027.82 538.255C1028.65 539.165 1029.29 540.27 1029.73 541.57C1030.17 542.87 1030.39 544.326 1030.39 545.938C1030.39 547.55 1030.17 549.006 1029.73 550.306C1029.29 551.606 1028.65 552.711 1027.82 553.621C1027.01 554.531 1026.01 555.233 1024.81 555.727C1023.64 556.221 1022.32 556.468 1020.84 556.468ZM1020.84 553.114C1022.4 553.114 1023.63 552.646 1024.54 551.71C1025.48 550.748 1025.94 549.331 1025.94 547.459L1025.94 544.417C1025.94 542.545 1025.48 541.141 1024.54 540.205C1023.63 539.243 1022.4 538.762 1020.84 538.762C1019.28 538.762 1018.03 539.243 1017.09 540.205C1016.18 541.141 1015.73 542.545 1015.73 544.417L1015.73 547.459C1015.73 549.331 1016.18 550.748 1017.09 551.71C1018.03 552.646 1019.28 553.114 1020.84 553.114ZM1037.51 535.876L1041.72 535.876L1041.72 544.534L1041.33 549.994L1041.53 549.994L1050.42 535.876L1054.44 535.876L1054.44 556L1050.23 556L1050.23 547.342L1050.62 541.882L1050.42 541.882L1041.53 556L1037.51 556L1037.51 535.876ZM1045.98 533.224C1044.47 533.224 1043.25 532.899 1042.31 532.249C1041.37 531.573 1040.61 530.572 1040.01 529.246L1039.03 527.062L1042.58 525.814L1043.99 529.948C1044.22 530.052 1044.53 530.13 1044.92 530.182C1045.31 530.208 1045.66 530.221 1045.98 530.221C1046.29 530.221 1046.64 530.208 1047.03 530.182C1047.42 530.13 1047.73 530.052 1047.96 529.948L1049.37 525.814L1052.92 527.062L1051.94 529.246C1051.34 530.572 1050.58 531.573 1049.64 532.249C1048.71 532.899 1047.48 533.224 1045.98 533.224ZM1096.25 556.39C1095.01 556.39 1094.12 556.13 1093.6 555.61C1093.11 555.09 1092.86 554.453 1092.86 553.699L1092.86 552.685C1092.86 551.931 1093.11 551.294 1093.6 550.774C1094.12 550.254 1095.01 549.994 1096.25 549.994C1097.5 549.994 1098.37 550.254 1098.87 550.774C1099.39 551.294 1099.65 551.931 1099.65 552.685L1099.65 553.699C1099.65 554.453 1099.39 555.09 1098.87 555.61C1098.37 556.13 1097.5 556.39 1096.25 556.39ZM1121.39 556.39C1120.15 556.39 1119.26 556.13 1118.74 555.61C1118.25 555.09 1118 554.453 1118 553.699L1118 552.685C1118 551.931 1118.25 551.294 1118.74 550.774C1119.26 550.254 1120.15 549.994 1121.39 549.994C1122.64 549.994 1123.51 550.254 1124.01 550.774C1124.53 551.294 1124.79 551.931 1124.79 552.685L1124.79 553.699C1124.79 554.453 1124.53 555.09 1124.01 555.61C1123.51 556.13 1122.64 556.39 1121.39 556.39ZM1146.53 556.39C1145.29 556.39 1144.4 556.13 1143.88 555.61C1143.39 555.09 1143.14 554.453 1143.14 553.699L1143.14 552.685C1143.14 551.931 1143.39 551.294 1143.88 550.774C1144.4 550.254 1145.29 549.994 1146.53 549.994C1147.78 549.994 1148.65 550.254 1149.15 550.774C1149.67 551.294 1149.93 551.931 1149.93 552.685L1149.93 553.699C1149.93 554.453 1149.67 555.09 1149.15 555.61C1148.65 556.13 1147.78 556.39 1146.53 556.39ZM1171.67 556.39C1170.43 556.39 1169.54 556.13 1169.02 555.61C1168.53 555.09 1168.28 554.453 1168.28 553.699L1168.28 552.685C1168.28 551.931 1168.53 551.294 1169.02 550.774C1169.54 550.254 1170.43 549.994 1171.67 549.994C1172.92 549.994 1173.79 550.254 1174.29 550.774C1174.81 551.294 1175.07 551.931 1175.07 552.685L1175.07 553.699C1175.07 554.453 1174.81 555.09 1174.29 555.61C1173.79 556.13 1172.92 556.39 1171.67 556.39ZM1196.81 556.39C1195.57 556.39 1194.68 556.13 1194.16 555.61C1193.67 555.09 1193.42 554.453 1193.42 553.699L1193.42 552.685C1193.42 551.931 1193.67 551.294 1194.16 550.774C1194.68 550.254 1195.57 549.994 1196.81 549.994C1198.06 549.994 1198.93 550.254 1199.43 550.774C1199.95 551.294 1200.21 551.931 1200.21 552.685L1200.21 553.699C1200.21 554.453 1199.95 555.09 1199.43 555.61C1198.93 556.13 1198.06 556.39 1196.81 556.39ZM1221.95 556.39C1220.71 556.39 1219.82 556.13 1219.3 555.61C1218.81 555.09 1218.56 554.453 1218.56 553.699L1218.56 552.685C1218.56 551.931 1218.81 551.294 1219.3 550.774C1219.82 550.254 1220.71 549.994 1221.95 549.994C1223.2 549.994 1224.07 550.254 1224.57 550.774C1225.09 551.294 1225.35 551.931 1225.35 552.685L1225.35 553.699C1225.35 554.453 1225.09 555.09 1224.57 555.61C1224.07 556.13 1223.2 556.39 1221.95 556.39ZM1247.09 556.39C1245.85 556.39 1244.96 556.13 1244.44 555.61C1243.95 555.09 1243.7 554.453 1243.7 553.699L1243.7 552.685C1243.7 551.931 1243.95 551.294 1244.44 550.774C1244.96 550.254 1245.85 549.994 1247.09 549.994C1248.34 549.994 1249.21 550.254 1249.71 550.774C1250.23 551.294 1250.49 551.931 1250.49 552.685L1250.49 553.699C1250.49 554.453 1250.23 555.09 1249.71 555.61C1249.21 556.13 1248.34 556.39 1247.09 556.39ZM1272.23 556.39C1270.98 556.39 1270.1 556.13 1269.58 555.61C1269.09 555.09 1268.84 554.453 1268.84 553.699L1268.84 552.685C1268.84 551.931 1269.09 551.294 1269.58 550.774C1270.1 550.254 1270.98 549.994 1272.23 549.994C1273.48 549.994 1274.35 550.254 1274.85 550.774C1275.37 551.294 1275.63 551.931 1275.63 552.685L1275.63 553.699C1275.63 554.453 1275.37 555.09 1274.85 555.61C1274.35 556.13 1273.48 556.39 1272.23 556.39ZM1297.37 556.39C1296.12 556.39 1295.24 556.13 1294.72 555.61C1294.23 555.09 1293.98 554.453 1293.98 553.699L1293.98 552.685C1293.98 551.931 1294.23 551.294 1294.72 550.774C1295.24 550.254 1296.12 549.994 1297.37 549.994C1298.62 549.994 1299.49 550.254 1299.99 550.774C1300.51 551.294 1300.77 551.931 1300.77 552.685L1300.77 553.699C1300.77 554.453 1300.51 555.09 1299.99 555.61C1299.49 556.13 1298.62 556.39 1297.37 556.39ZM1322.51 556.39C1321.26 556.39 1320.38 556.13 1319.86 555.61C1319.37 555.09 1319.12 554.453 1319.12 553.699L1319.12 552.685C1319.12 551.931 1319.37 551.294 1319.86 550.774C1320.38 550.254 1321.26 549.994 1322.51 549.994C1323.76 549.994 1324.63 550.254 1325.13 550.774C1325.65 551.294 1325.91 551.931 1325.91 552.685L1325.91 553.699C1325.91 554.453 1325.65 555.09 1325.13 555.61C1324.63 556.13 1323.76 556.39 1322.51 556.39ZM1381.02 532.561L1368.66 532.561L1367.96 542.233L1368.27 542.233C1368.89 541.167 1369.65 540.322 1370.53 539.698C1371.41 539.048 1372.62 538.723 1374.16 538.723C1375.33 538.723 1376.41 538.918 1377.39 539.308C1378.41 539.698 1379.28 540.257 1380.01 540.985C1380.76 541.713 1381.35 542.61 1381.76 543.676C1382.2 544.716 1382.43 545.899 1382.43 547.225C1382.43 548.577 1382.2 549.825 1381.76 550.969C1381.32 552.087 1380.68 553.062 1379.85 553.894C1379.02 554.7 1377.99 555.337 1376.77 555.805C1375.55 556.247 1374.16 556.468 1372.6 556.468C1371.38 556.468 1370.28 556.325 1369.32 556.039C1368.39 555.779 1367.54 555.428 1366.79 554.986C1366.06 554.518 1365.42 553.998 1364.88 553.426C1364.33 552.828 1363.85 552.217 1363.43 551.593L1366.63 549.097C1366.97 549.617 1367.32 550.111 1367.68 550.579C1368.07 551.021 1368.5 551.411 1368.97 551.749C1369.44 552.087 1369.97 552.347 1370.57 552.529C1371.19 552.711 1371.9 552.802 1372.68 552.802C1374.37 552.802 1375.65 552.347 1376.54 551.437C1377.42 550.501 1377.86 549.24 1377.86 547.654L1377.86 547.342C1377.86 545.756 1377.41 544.521 1376.5 543.637C1375.61 542.753 1374.34 542.311 1372.68 542.311C1371.45 542.311 1370.49 542.532 1369.79 542.974C1369.09 543.416 1368.48 543.91 1367.96 544.456L1364.33 543.949L1365.34 528.778L1381.02 528.778L1381.02 532.561ZM1397.93 556.468C1396.32 556.468 1394.9 556.273 1393.68 555.883C1392.46 555.467 1391.43 554.908 1390.6 554.206C1389.77 553.504 1389.13 552.672 1388.69 551.71C1388.27 550.748 1388.06 549.695 1388.06 548.551C1388.06 546.731 1388.57 545.275 1389.59 544.183C1390.6 543.091 1391.93 542.324 1393.56 541.882L1393.56 541.57C1392.16 541.076 1391.03 540.296 1390.17 539.23C1389.31 538.164 1388.88 536.851 1388.88 535.291C1388.88 533.185 1389.66 531.495 1391.22 530.221C1392.81 528.947 1395.05 528.31 1397.93 528.31C1400.82 528.31 1403.04 528.947 1404.6 530.221C1406.19 531.495 1406.98 533.185 1406.98 535.291C1406.98 536.851 1406.55 538.164 1405.69 539.23C1404.83 540.296 1403.7 541.076 1402.3 541.57L1402.3 541.882C1403.94 542.324 1405.26 543.091 1406.28 544.183C1407.29 545.275 1407.8 546.731 1407.8 548.551C1407.8 549.695 1407.58 550.748 1407.14 551.71C1406.72 552.672 1406.1 553.504 1405.26 554.206C1404.43 554.908 1403.4 555.467 1402.18 555.883C1400.96 556.273 1399.54 556.468 1397.93 556.468ZM1397.93 552.997C1399.65 552.997 1400.96 552.62 1401.87 551.866C1402.81 551.112 1403.27 550.046 1403.27 548.668L1403.27 547.849C1403.27 546.471 1402.81 545.405 1401.87 544.651C1400.96 543.897 1399.65 543.52 1397.93 543.52C1396.22 543.52 1394.89 543.897 1393.95 544.651C1393.04 545.405 1392.59 546.471 1392.59 547.849L1392.59 548.668C1392.59 550.046 1393.04 551.112 1393.95 551.866C1394.89 552.62 1396.22 552.997 1397.93 552.997ZM1397.93 540.166C1399.49 540.166 1400.67 539.828 1401.48 539.152C1402.31 538.45 1402.73 537.475 1402.73 536.227L1402.73 535.72C1402.73 534.472 1402.31 533.51 1401.48 532.834C1400.67 532.132 1399.49 531.781 1397.93 531.781C1396.37 531.781 1395.18 532.132 1394.34 532.834C1393.54 533.51 1393.13 534.472 1393.13 535.72L1393.13 536.227C1393.13 537.475 1393.54 538.45 1394.34 539.152C1395.18 539.828 1396.37 540.166 1397.93 540.166ZM1432.7 538.918C1432.7 540.894 1432.41 542.753 1431.81 544.495C1431.21 546.237 1430.43 547.836 1429.47 549.292C1428.51 550.748 1427.44 552.048 1426.27 553.192C1425.1 554.336 1423.94 555.272 1422.8 556L1416.95 556C1418.51 554.882 1419.91 553.803 1421.16 552.763C1422.41 551.723 1423.49 550.657 1424.4 549.565C1425.33 548.473 1426.11 547.329 1426.74 546.133C1427.36 544.911 1427.84 543.559 1428.18 542.077L1427.91 541.999C1427.62 542.545 1427.28 543.065 1426.89 543.559C1426.5 544.027 1426.05 544.443 1425.53 544.807C1425.01 545.171 1424.41 545.457 1423.73 545.665C1423.06 545.873 1422.29 545.977 1421.43 545.977C1420.26 545.977 1419.18 545.782 1418.2 545.392C1417.21 545.002 1416.35 544.443 1415.62 543.715C1414.89 542.961 1414.32 542.064 1413.91 541.024C1413.52 539.984 1413.32 538.814 1413.32 537.514C1413.32 536.162 1413.54 534.927 1413.98 533.809C1414.45 532.665 1415.1 531.69 1415.93 530.884C1416.79 530.078 1417.82 529.454 1419.02 529.012C1420.21 528.544 1421.54 528.31 1422.99 528.31C1424.5 528.31 1425.85 528.557 1427.05 529.051C1428.27 529.545 1429.3 530.26 1430.13 531.196C1430.96 532.106 1431.6 533.211 1432.04 534.511C1432.48 535.811 1432.7 537.28 1432.7 538.918ZM1423.03 542.506C1424.67 542.506 1425.94 542.064 1426.85 541.18C1427.76 540.27 1428.22 538.996 1428.22 537.358L1428.22 536.968C1428.22 535.33 1427.76 534.069 1426.85 533.185C1425.94 532.275 1424.67 531.82 1423.03 531.82C1421.37 531.82 1420.08 532.275 1419.17 533.185C1418.26 534.069 1417.81 535.33 1417.81 536.968L1417.81 537.358C1417.81 538.996 1418.26 540.27 1419.17 541.18C1420.08 542.064 1421.37 542.506 1423.03 542.506ZM1445.29 551.125L1445.29 556L1440.92 556L1440.92 551.125L1438.07 551.125L1438.07 547.771L1440.92 547.771L1440.92 544.846L1438.07 544.846L1438.07 541.492L1440.92 541.492L1440.92 528.778L1450.32 528.778C1452.92 528.778 1454.89 529.506 1456.25 530.962C1457.62 532.392 1458.31 534.355 1458.31 536.851C1458.31 539.373 1457.62 541.336 1456.25 542.74C1454.89 544.144 1452.92 544.846 1450.32 544.846L1445.29 544.846L1445.29 547.771L1453.79 547.771L1453.79 551.125L1445.29 551.125ZM1445.29 541.492L1449.69 541.492C1452.42 541.492 1453.79 540.27 1453.79 537.826L1453.79 535.915C1453.79 533.471 1452.42 532.249 1449.69 532.249L1445.29 532.249L1445.29 541.492Z" fill="white"/>
<path d="M642.405 86V49.978H671.967V53.5464H647.05V85.877L642.405 86ZM676.18 67.3276C676.18 64.7847 676.6 62.4058 677.441 60.1909C678.302 57.9556 679.605 56.0278 681.348 54.4077C683.111 52.7671 685.326 51.4751 687.992 50.5317C690.679 49.5884 693.857 49.1167 697.528 49.1167C701.22 49.1167 704.409 49.5884 707.095 50.5317C709.782 51.4751 711.997 52.7671 713.74 54.4077C715.503 56.0278 716.806 57.9556 717.646 60.1909C718.487 62.4058 718.908 64.7847 718.908 67.3276V68.6504C718.908 71.1934 718.487 73.5723 717.646 75.7871C716.806 78.002 715.503 79.9297 713.74 81.5703C711.997 83.2109 709.782 84.5029 707.095 85.4463C704.409 86.3896 701.22 86.8613 697.528 86.8613C693.857 86.8613 690.679 86.3896 687.992 85.4463C685.326 84.5029 683.111 83.2109 681.348 81.5703C679.605 79.9297 678.302 78.002 677.441 75.7871C676.6 73.5723 676.18 71.1934 676.18 68.6504V67.3276ZM680.886 68.7734C680.886 70.4961 681.173 72.229 681.748 73.9722C682.342 75.7153 683.296 77.2842 684.608 78.6787C685.921 80.0527 687.633 81.1807 689.746 82.0625C691.858 82.9238 694.452 83.3545 697.528 83.3545C700.605 83.3545 703.199 82.9341 705.311 82.0933C707.444 81.2319 709.167 80.1143 710.479 78.7402C711.792 77.3457 712.735 75.7871 713.309 74.0645C713.904 72.3213 714.201 70.5576 714.201 68.7734V67.2046C714.201 66.0767 714.078 64.9385 713.832 63.79C713.586 62.6416 713.196 61.5239 712.663 60.437C712.13 59.3501 711.433 58.335 710.571 57.3916C709.71 56.4482 708.654 55.6279 707.403 54.9307C706.172 54.2334 704.737 53.6797 703.096 53.2695C701.476 52.8594 699.62 52.6543 697.528 52.6543C694.411 52.6543 691.786 53.0952 689.653 53.9771C687.541 54.8384 685.829 55.9663 684.516 57.3608C683.224 58.7554 682.291 60.314 681.717 62.0366C681.163 63.7593 680.886 65.4717 680.886 67.1738V68.7734ZM729.858 97.228V49.978H734.533V57.7607C735.846 55.0127 737.856 52.8901 740.563 51.3931C743.27 49.8755 746.736 49.1167 750.96 49.1167C753.175 49.1167 755.205 49.3525 757.051 49.8242C758.917 50.2959 760.589 50.9521 762.065 51.793C763.562 52.6338 764.865 53.6284 765.972 54.7769C767.079 55.9253 768.002 57.1865 768.74 58.5605C769.479 59.9346 770.032 61.3906 770.402 62.9287C770.771 64.4463 770.955 65.9946 770.955 67.5737V68.835C770.955 71.3164 770.504 73.6543 769.602 75.8486C768.699 78.0225 767.397 79.9297 765.695 81.5703C763.993 83.1904 761.901 84.4824 759.42 85.4463C756.959 86.3896 754.149 86.8613 750.991 86.8613C748.735 86.8613 746.715 86.6562 744.931 86.2461C743.167 85.8359 741.619 85.2617 740.286 84.5234C738.953 83.7646 737.815 82.8623 736.871 81.8164C735.928 80.7705 735.149 79.6221 734.533 78.3711V97.228H729.858ZM766.218 67.2354C766.218 65.5127 765.91 63.7798 765.295 62.0366C764.68 60.2935 763.726 58.7349 762.434 57.3608C761.142 55.9663 759.481 54.8384 757.451 53.9771C755.441 53.0952 753.042 52.6543 750.253 52.6543C748.12 52.6543 746.243 52.8696 744.623 53.3003C743.024 53.7104 741.639 54.2847 740.47 55.0229C739.322 55.7407 738.358 56.5918 737.579 57.5762C736.82 58.54 736.215 59.5859 735.764 60.7139C735.313 61.8418 734.995 63.0107 734.81 64.2207C734.626 65.4307 734.533 66.6304 734.533 67.8198V68.4658C734.533 73.3467 735.866 77.0483 738.532 79.5708C741.219 82.0933 745.115 83.3545 750.222 83.3545C752.929 83.3545 755.277 82.9546 757.266 82.1548C759.276 81.3345 760.937 80.2578 762.25 78.9248C763.583 77.5918 764.577 76.064 765.234 74.3413C765.89 72.6187 766.218 70.8447 766.218 69.0195V67.2354ZM799.07 71.7266C797.532 71.8906 796.127 72.0854 794.856 72.311C793.605 72.5366 792.487 72.8955 791.503 73.3877C790.539 73.8594 789.719 74.4951 789.042 75.2949C788.365 76.0742 787.853 77.0894 787.504 78.3403L786.581 81.7549C786.417 82.2676 786.273 82.7188 786.15 83.1084C786.048 83.4775 785.935 83.8262 785.812 84.1543C785.689 84.4619 785.545 84.7695 785.381 85.0771C785.238 85.3643 785.053 85.6719 784.828 86H779.783C780.377 85.2617 780.829 84.5337 781.136 83.8159C781.464 83.0776 781.741 82.2573 781.967 81.355L782.859 77.7251C783.043 76.9868 783.279 76.2896 783.566 75.6333C783.854 74.9771 784.223 74.3618 784.674 73.7876C785.146 73.2134 785.72 72.7007 786.396 72.2495C787.073 71.7778 787.904 71.3574 788.888 70.9883C786.017 70.332 783.833 69.2246 782.336 67.666C780.859 66.0869 780.121 64.0771 780.121 61.6367V60.6831C780.121 57.1353 781.321 54.4692 783.72 52.6851C786.14 50.8804 789.924 49.978 795.071 49.978H814.667V86H810.052V71.7266H799.07ZM784.828 61.4829C784.828 62.7134 785.063 63.7593 785.535 64.6206C786.027 65.4819 786.735 66.1895 787.658 66.7432C788.581 67.2969 789.719 67.707 791.072 67.9736C792.426 68.2197 793.974 68.3428 795.717 68.3428H810.052V53.3926H795.287C794.179 53.3926 793.01 53.4746 791.78 53.6387C790.549 53.7822 789.411 54.1206 788.365 54.6538C787.34 55.1665 786.489 55.915 785.812 56.8994C785.156 57.8633 784.828 59.1553 784.828 60.7754V61.4829ZM868.068 49.978V86H863.392V67.5737C862.592 69.0093 861.608 70.3218 860.439 71.5112C859.27 72.6802 857.947 73.6851 856.47 74.5259C854.994 75.3462 853.374 75.9819 851.61 76.4331C849.867 76.8843 848.011 77.1099 846.042 77.1099C843.069 77.1099 840.526 76.7817 838.413 76.1255C836.322 75.4487 834.568 74.5771 833.153 73.5107C831.738 72.4238 830.61 71.1934 829.769 69.8193C828.949 68.4248 828.323 67.0098 827.893 65.5742C827.462 64.1387 827.185 62.7339 827.062 61.3599C826.939 59.9653 826.878 58.7349 826.878 57.6685V49.978H831.523V57.6992C831.523 58.8887 831.594 60.1089 831.738 61.3599C831.882 62.6108 832.148 63.8311 832.538 65.0205C832.948 66.1895 833.502 67.2969 834.199 68.3428C834.917 69.3887 835.84 70.3013 836.968 71.0806C838.095 71.8599 839.449 72.4751 841.028 72.9263C842.628 73.3774 844.514 73.603 846.688 73.603C848.739 73.603 850.574 73.3467 852.195 72.834C853.835 72.3213 855.271 71.6343 856.501 70.7729C857.732 69.9116 858.778 68.917 859.639 67.7891C860.521 66.6611 861.239 65.4819 861.792 64.2515C862.346 63.021 862.746 61.77 862.992 60.4985C863.259 59.2271 863.392 58.0273 863.392 56.8994V49.978H868.068ZM883.878 69.2656C883.878 71.0293 884.186 72.7622 884.801 74.4644C885.416 76.1665 886.38 77.6841 887.692 79.0171C889.025 80.3501 890.738 81.4268 892.83 82.2471C894.942 83.0469 897.495 83.4468 900.489 83.4468C902.786 83.4468 904.806 83.1904 906.549 82.6777C908.292 82.165 909.759 81.4985 910.948 80.6782C912.158 79.8374 913.102 78.894 913.778 77.8481C914.476 76.8022 914.937 75.7563 915.163 74.7104L919.654 74.7412C919.305 76.1973 918.7 77.6533 917.839 79.1094C916.998 80.5449 915.819 81.8369 914.301 82.9854C912.804 84.1338 910.928 85.0669 908.672 85.7847C906.416 86.5024 903.699 86.8613 900.52 86.8613C896.808 86.8613 893.609 86.3999 890.922 85.4771C888.236 84.5337 886.021 83.2212 884.278 81.5396C882.535 79.8374 881.243 77.8071 880.402 75.4487C879.561 73.0903 879.141 70.4858 879.141 67.6353V67.1123C879.141 64.5283 879.592 62.1392 880.494 59.9448C881.396 57.7505 882.729 55.8535 884.493 54.2539C886.277 52.6338 888.492 51.3726 891.138 50.4702C893.783 49.5679 896.859 49.1167 900.366 49.1167C903.812 49.1167 906.785 49.5884 909.287 50.5317C911.81 51.4546 913.881 52.7466 915.501 54.4077C917.142 56.0483 918.352 57.9966 919.131 60.2524C919.91 62.4878 920.3 64.9077 920.3 67.5122C920.32 67.8198 920.32 68.1172 920.3 68.4043C920.279 68.6914 920.269 68.9785 920.269 69.2656H883.878ZM883.847 66.1279H915.778V65.8818C915.696 63.8311 915.337 61.9751 914.701 60.314C914.065 58.6528 913.112 57.2378 911.84 56.0688C910.589 54.8794 909 53.9668 907.072 53.3311C905.165 52.6953 902.889 52.3774 900.243 52.3774C898.213 52.3774 896.398 52.5723 894.798 52.9619C893.199 53.3516 891.794 53.8745 890.584 54.5308C889.395 55.187 888.379 55.9561 887.539 56.8379C886.698 57.6992 886.011 58.6221 885.478 59.6064C884.944 60.5703 884.544 61.5547 884.278 62.5596C884.032 63.5645 883.888 64.5283 883.847 65.4512V66.1279ZM932.019 69.2656C932.019 71.0293 932.326 72.7622 932.942 74.4644C933.557 76.1665 934.521 77.6841 935.833 79.0171C937.166 80.3501 938.879 81.4268 940.97 82.2471C943.083 83.0469 945.636 83.4468 948.63 83.4468C950.927 83.4468 952.947 83.1904 954.69 82.6777C956.433 82.165 957.9 81.4985 959.089 80.6782C960.299 79.8374 961.242 78.894 961.919 77.8481C962.616 76.8022 963.078 75.7563 963.303 74.7104L967.795 74.7412C967.446 76.1973 966.841 77.6533 965.98 79.1094C965.139 80.5449 963.96 81.8369 962.442 82.9854C960.945 84.1338 959.069 85.0669 956.813 85.7847C954.557 86.5024 951.84 86.8613 948.661 86.8613C944.949 86.8613 941.75 86.3999 939.063 85.4771C936.377 84.5337 934.162 83.2212 932.419 81.5396C930.676 79.8374 929.384 77.8071 928.543 75.4487C927.702 73.0903 927.281 70.4858 927.281 67.6353V67.1123C927.281 64.5283 927.733 62.1392 928.635 59.9448C929.537 57.7505 930.87 55.8535 932.634 54.2539C934.418 52.6338 936.633 51.3726 939.279 50.4702C941.924 49.5679 945 49.1167 948.507 49.1167C951.952 49.1167 954.926 49.5884 957.428 50.5317C959.95 51.4546 962.022 52.7466 963.642 54.4077C965.282 56.0483 966.492 57.9966 967.272 60.2524C968.051 62.4878 968.441 64.9077 968.441 67.5122C968.461 67.8198 968.461 68.1172 968.441 68.4043C968.42 68.6914 968.41 68.9785 968.41 69.2656H932.019ZM931.988 66.1279H963.919V65.8818C963.837 63.8311 963.478 61.9751 962.842 60.314C962.206 58.6528 961.253 57.2378 959.981 56.0688C958.73 54.8794 957.141 53.9668 955.213 53.3311C953.306 52.6953 951.03 52.3774 948.384 52.3774C946.354 52.3774 944.539 52.5723 942.939 52.9619C941.34 53.3516 939.935 53.8745 938.725 54.5308C937.535 55.187 936.52 55.9561 935.679 56.8379C934.839 57.6992 934.152 58.6221 933.618 59.6064C933.085 60.5703 932.685 61.5547 932.419 62.5596C932.173 63.5645 932.029 64.5283 931.988 65.4512V66.1279Z" fill="white"/>
</svg>
