<svg width="1512" height="681" viewBox="0 0 1512 681" fill="none" xmlns="http://www.w3.org/2000/svg">
<path d="M469.5 2H689H795H1054.5C1091.23 2 1121 31.7731 1121 68.5C1121 105.227 1091.23 135 1054.5 135H893C837.219 135 792 180.219 792 236C792 291.781 837.219 337 893 337H1086C1105.33 337 1121 352.67 1121 372C1121 391.33 1136.67 407 1156 407H1218.5C1238.66 407 1255 423.342 1255 443.5V450.5C1255 466.792 1268.21 480 1284.5 480C1300.79 480 1314 493.208 1314 509.5V529C1314 547.225 1328.77 562 1347 562C1365.23 562 1380 576.775 1380 595V620.5C1380 652.809 1353.81 679 1321.5 679H202.5C170.191 679 144 652.809 144 620.5V597C144 577.67 159.67 562 179 562C198.33 562 214 546.33 214 527V508.5C214 492.76 226.76 480 242.5 480C258.24 480 271 467.24 271 451.5V443.5C271 423.342 287.342 407 307.5 407H368C387.33 407 403 391.33 403 372C403 352.67 418.67 337 438 337H591C646.781 337 692 291.781 692 236C692 180.219 646.781 135 591 135H469.5C432.773 135 403 105.227 403 68.5C403 31.7731 432.773 2 469.5 2Z" fill="#242424" fill-opacity="0.7" stroke="white" stroke-width="3"/>
<path d="M469.084 394.444L469.084 418L464.716 418L464.716 394.444L456.175 394.444L456.175 390.778L477.625 390.778L477.625 394.444L469.084 394.444ZM499.528 418C498.306 418 497.383 417.688 496.759 417.064C496.161 416.44 495.797 415.621 495.667 414.607L495.472 414.607C495.082 415.829 494.367 416.778 493.327 417.454C492.313 418.13 491.013 418.468 489.427 418.468C487.373 418.468 485.735 417.935 484.513 416.869C483.291 415.777 482.68 414.282 482.68 412.384C482.68 410.434 483.395 408.952 484.825 407.938C486.281 406.898 488.504 406.378 491.494 406.378L495.355 406.378L495.355 404.818C495.355 402.088 493.912 400.723 491.026 400.723C489.726 400.723 488.673 400.983 487.867 401.503C487.061 401.997 486.385 402.66 485.839 403.492L483.304 401.425C483.876 400.333 484.838 399.397 486.19 398.617C487.542 397.811 489.284 397.408 491.416 397.408C493.964 397.408 495.966 398.019 497.422 399.241C498.878 400.463 499.606 402.231 499.606 404.545L499.606 414.646L502.141 414.646L502.141 418L499.528 418ZM490.636 415.348C492.014 415.348 493.145 415.036 494.029 414.412C494.913 413.788 495.355 412.982 495.355 411.994L495.355 409.069L491.572 409.069C488.504 409.069 486.97 409.992 486.97 411.838L486.97 412.618C486.97 413.528 487.295 414.217 487.945 414.685C488.595 415.127 489.492 415.348 490.636 415.348ZM508.561 397.876L512.812 397.876L512.812 401.308L513.046 401.308C513.644 400.086 514.437 399.137 515.425 398.461C516.413 397.759 517.648 397.408 519.13 397.408C521.496 397.408 523.381 398.292 524.785 400.06C526.189 401.828 526.891 404.454 526.891 407.938C526.891 411.422 526.189 414.048 524.785 415.816C523.381 417.584 521.496 418.468 519.13 418.468C517.648 418.468 516.413 418.13 515.425 417.454C514.437 416.752 513.644 415.79 513.046 414.568L512.812 414.568L512.812 425.8L508.561 425.8L508.561 397.876ZM517.375 414.997C518.987 414.997 520.222 414.503 521.08 413.515C521.964 412.527 522.406 411.214 522.406 409.576L522.406 406.3C522.406 404.662 521.964 403.349 521.08 402.361C520.222 401.373 518.987 400.879 517.375 400.879C516.751 400.879 516.166 400.957 515.62 401.113C515.074 401.269 514.593 401.503 514.177 401.815C513.761 402.127 513.423 402.517 513.163 402.985C512.929 403.427 512.812 403.96 512.812 404.584L512.812 411.292C512.812 411.916 512.929 412.462 513.163 412.93C513.423 413.372 513.761 413.749 514.177 414.061C514.593 414.373 515.074 414.607 515.62 414.763C516.166 414.919 516.751 414.997 517.375 414.997ZM540.175 401.308L533.116 401.308L533.116 397.876L551.524 397.876L551.524 401.308L544.426 401.308L544.426 418L540.175 418L540.175 401.308ZM574.947 418C573.725 418 572.802 417.688 572.178 417.064C571.58 416.44 571.216 415.621 571.086 414.607L570.891 414.607C570.501 415.829 569.786 416.778 568.746 417.454C567.732 418.13 566.432 418.468 564.846 418.468C562.792 418.468 561.154 417.935 559.932 416.869C558.71 415.777 558.099 414.282 558.099 412.384C558.099 410.434 558.814 408.952 560.244 407.938C561.7 406.898 563.923 406.378 566.913 406.378L570.774 406.378L570.774 404.818C570.774 402.088 569.331 400.723 566.445 400.723C565.145 400.723 564.092 400.983 563.286 401.503C562.48 401.997 561.804 402.66 561.258 403.492L558.723 401.425C559.295 400.333 560.257 399.397 561.609 398.617C562.961 397.811 564.703 397.408 566.835 397.408C569.383 397.408 571.385 398.019 572.841 399.241C574.297 400.463 575.025 402.231 575.025 404.545L575.025 414.646L577.56 414.646L577.56 418L574.947 418ZM566.055 415.348C567.433 415.348 568.564 415.036 569.448 414.412C570.332 413.788 570.774 412.982 570.774 411.994L570.774 409.069L566.991 409.069C563.923 409.069 562.389 409.992 562.389 411.838L562.389 412.618C562.389 413.528 562.714 414.217 563.364 414.685C564.014 415.127 564.911 415.348 566.055 415.348ZM583.98 397.876L588.231 397.876L588.231 401.308L588.465 401.308C589.063 400.086 589.856 399.137 590.844 398.461C591.832 397.759 593.067 397.408 594.549 397.408C596.915 397.408 598.8 398.292 600.204 400.06C601.608 401.828 602.31 404.454 602.31 407.938C602.31 411.422 601.608 414.048 600.204 415.816C598.8 417.584 596.915 418.468 594.549 418.468C593.067 418.468 591.832 418.13 590.844 417.454C589.856 416.752 589.063 415.79 588.465 414.568L588.231 414.568L588.231 425.8L583.98 425.8L583.98 397.876ZM592.794 414.997C594.406 414.997 595.641 414.503 596.499 413.515C597.383 412.527 597.825 411.214 597.825 409.576L597.825 406.3C597.825 404.662 597.383 403.349 596.499 402.361C595.641 401.373 594.406 400.879 592.794 400.879C592.17 400.879 591.585 400.957 591.039 401.113C590.493 401.269 590.012 401.503 589.596 401.815C589.18 402.127 588.842 402.517 588.582 402.985C588.348 403.427 588.231 403.96 588.231 404.584L588.231 411.292C588.231 411.916 588.348 412.462 588.582 412.93C588.842 413.372 589.18 413.749 589.596 414.061C590.012 414.373 590.493 414.607 591.039 414.763C591.585 414.919 592.17 414.997 592.794 414.997ZM625.227 418C624.005 418 623.082 417.688 622.458 417.064C621.86 416.44 621.496 415.621 621.366 414.607L621.171 414.607C620.781 415.829 620.066 416.778 619.026 417.454C618.012 418.13 616.712 418.468 615.126 418.468C613.072 418.468 611.434 417.935 610.212 416.869C608.99 415.777 608.379 414.282 608.379 412.384C608.379 410.434 609.094 408.952 610.524 407.938C611.98 406.898 614.203 406.378 617.193 406.378L621.054 406.378L621.054 404.818C621.054 402.088 619.611 400.723 616.725 400.723C615.425 400.723 614.372 400.983 613.566 401.503C612.76 401.997 612.084 402.66 611.538 403.492L609.003 401.425C609.575 400.333 610.537 399.397 611.889 398.617C613.241 397.811 614.983 397.408 617.115 397.408C619.663 397.408 621.665 398.019 623.121 399.241C624.577 400.463 625.305 402.231 625.305 404.545L625.305 414.646L627.84 414.646L627.84 418L625.227 418ZM616.335 415.348C617.713 415.348 618.844 415.036 619.728 414.412C620.612 413.788 621.054 412.982 621.054 411.994L621.054 409.069L617.271 409.069C614.203 409.069 612.669 409.992 612.669 411.838L612.669 412.618C612.669 413.528 612.994 414.217 613.644 414.685C614.294 415.127 615.191 415.348 616.335 415.348ZM634.26 397.876L638.511 397.876L638.511 401.308L638.745 401.308C639.343 400.086 640.136 399.137 641.124 398.461C642.112 397.759 643.347 397.408 644.829 397.408C647.195 397.408 649.08 398.292 650.484 400.06C651.888 401.828 652.59 404.454 652.59 407.938C652.59 411.422 651.888 414.048 650.484 415.816C649.08 417.584 647.195 418.468 644.829 418.468C643.347 418.468 642.112 418.13 641.124 417.454C640.136 416.752 639.343 415.79 638.745 414.568L638.511 414.568L638.511 425.8L634.26 425.8L634.26 397.876ZM643.074 414.997C644.686 414.997 645.921 414.503 646.779 413.515C647.663 412.527 648.105 411.214 648.105 409.576L648.105 406.3C648.105 404.662 647.663 403.349 646.779 402.361C645.921 401.373 644.686 400.879 643.074 400.879C642.45 400.879 641.865 400.957 641.319 401.113C640.773 401.269 640.292 401.503 639.876 401.815C639.46 402.127 639.122 402.517 638.862 402.985C638.628 403.427 638.511 403.96 638.511 404.584L638.511 411.292C638.511 411.916 638.628 412.462 638.862 412.93C639.122 413.372 639.46 413.749 639.876 414.061C640.292 414.373 640.773 414.607 641.319 414.763C641.865 414.919 642.45 414.997 643.074 414.997ZM693.158 418.39C691.91 418.39 691.026 418.13 690.506 417.61C690.012 417.09 689.765 416.453 689.765 415.699L689.765 414.685C689.765 413.931 690.012 413.294 690.506 412.774C691.026 412.254 691.91 411.994 693.158 411.994C694.406 411.994 695.277 412.254 695.771 412.774C696.291 413.294 696.551 413.931 696.551 414.685L696.551 415.699C696.551 416.453 696.291 417.09 695.771 417.61C695.277 418.13 694.406 418.39 693.158 418.39ZM718.298 418.39C717.05 418.39 716.166 418.13 715.646 417.61C715.152 417.09 714.905 416.453 714.905 415.699L714.905 414.685C714.905 413.931 715.152 413.294 715.646 412.774C716.166 412.254 717.05 411.994 718.298 411.994C719.546 411.994 720.417 412.254 720.911 412.774C721.431 413.294 721.691 413.931 721.691 414.685L721.691 415.699C721.691 416.453 721.431 417.09 720.911 417.61C720.417 418.13 719.546 418.39 718.298 418.39ZM743.438 418.39C742.19 418.39 741.306 418.13 740.786 417.61C740.292 417.09 740.045 416.453 740.045 415.699L740.045 414.685C740.045 413.931 740.292 413.294 740.786 412.774C741.306 412.254 742.19 411.994 743.438 411.994C744.686 411.994 745.557 412.254 746.051 412.774C746.571 413.294 746.831 413.931 746.831 414.685L746.831 415.699C746.831 416.453 746.571 417.09 746.051 417.61C745.557 418.13 744.686 418.39 743.438 418.39ZM768.577 418.39C767.329 418.39 766.445 418.13 765.925 417.61C765.431 417.09 765.184 416.453 765.184 415.699L765.184 414.685C765.184 413.931 765.431 413.294 765.925 412.774C766.445 412.254 767.329 411.994 768.577 411.994C769.825 411.994 770.696 412.254 771.19 412.774C771.71 413.294 771.97 413.931 771.97 414.685L771.97 415.699C771.97 416.453 771.71 417.09 771.19 417.61C770.696 418.13 769.825 418.39 768.577 418.39ZM793.717 418.39C792.469 418.39 791.585 418.13 791.065 417.61C790.571 417.09 790.324 416.453 790.324 415.699L790.324 414.685C790.324 413.931 790.571 413.294 791.065 412.774C791.585 412.254 792.469 411.994 793.717 411.994C794.965 411.994 795.836 412.254 796.33 412.774C796.85 413.294 797.11 413.931 797.11 414.685L797.11 415.699C797.11 416.453 796.85 417.09 796.33 417.61C795.836 418.13 794.965 418.39 793.717 418.39ZM818.857 418.39C817.609 418.39 816.725 418.13 816.205 417.61C815.711 417.09 815.464 416.453 815.464 415.699L815.464 414.685C815.464 413.931 815.711 413.294 816.205 412.774C816.725 412.254 817.609 411.994 818.857 411.994C820.105 411.994 820.976 412.254 821.47 412.774C821.99 413.294 822.25 413.931 822.25 414.685L822.25 415.699C822.25 416.453 821.99 417.09 821.47 417.61C820.976 418.13 820.105 418.39 818.857 418.39ZM843.997 418.39C842.749 418.39 841.865 418.13 841.345 417.61C840.851 417.09 840.604 416.453 840.604 415.699L840.604 414.685C840.604 413.931 840.851 413.294 841.345 412.774C841.865 412.254 842.749 411.994 843.997 411.994C845.245 411.994 846.116 412.254 846.61 412.774C847.13 413.294 847.39 413.931 847.39 414.685L847.39 415.699C847.39 416.453 847.13 417.09 846.61 417.61C846.116 418.13 845.245 418.39 843.997 418.39ZM869.137 418.39C867.889 418.39 867.005 418.13 866.485 417.61C865.991 417.09 865.744 416.453 865.744 415.699L865.744 414.685C865.744 413.931 865.991 413.294 866.485 412.774C867.005 412.254 867.889 411.994 869.137 411.994C870.385 411.994 871.256 412.254 871.75 412.774C872.27 413.294 872.53 413.931 872.53 414.685L872.53 415.699C872.53 416.453 872.27 417.09 871.75 417.61C871.256 418.13 870.385 418.39 869.137 418.39ZM894.276 418.39C893.028 418.39 892.144 418.13 891.624 417.61C891.13 417.09 890.883 416.453 890.883 415.699L890.883 414.685C890.883 413.931 891.13 413.294 891.624 412.774C892.144 412.254 893.028 411.994 894.276 411.994C895.524 411.994 896.395 412.254 896.889 412.774C897.409 413.294 897.669 413.931 897.669 414.685L897.669 415.699C897.669 416.453 897.409 417.09 896.889 417.61C896.395 418.13 895.524 418.39 894.276 418.39ZM919.416 418.39C918.168 418.39 917.284 418.13 916.764 417.61C916.27 417.09 916.023 416.453 916.023 415.699L916.023 414.685C916.023 413.931 916.27 413.294 916.764 412.774C917.284 412.254 918.168 411.994 919.416 411.994C920.664 411.994 921.535 412.254 922.029 412.774C922.549 413.294 922.809 413.931 922.809 414.685L922.809 415.699C922.809 416.453 922.549 417.09 922.029 417.61C921.535 418.13 920.664 418.39 919.416 418.39ZM979.251 418L960.453 418L960.453 413.827L969.345 406.066C970.749 404.818 971.828 403.635 972.582 402.517C973.362 401.399 973.752 400.216 973.752 398.968L973.752 398.539C973.752 397.109 973.362 396.017 972.582 395.263C971.802 394.483 970.671 394.093 969.189 394.093C967.681 394.093 966.511 394.496 965.679 395.302C964.873 396.108 964.288 397.135 963.924 398.383L960.102 396.94C960.362 396.082 960.739 395.263 961.233 394.483C961.727 393.677 962.351 392.962 963.105 392.338C963.885 391.714 964.795 391.22 965.835 390.856C966.901 390.492 968.123 390.31 969.501 390.31C970.905 390.31 972.153 390.518 973.245 390.934C974.363 391.324 975.299 391.87 976.053 392.572C976.807 393.274 977.379 394.119 977.769 395.107C978.159 396.069 978.354 397.135 978.354 398.305C978.354 399.397 978.185 400.411 977.847 401.347C977.535 402.257 977.08 403.141 976.482 403.999C975.91 404.831 975.221 405.637 974.415 406.417C973.609 407.197 972.725 407.977 971.763 408.757L965.172 414.295L979.251 414.295L979.251 418ZM993.704 402.01C995.446 402.01 996.733 401.646 997.565 400.918C998.423 400.164 998.852 399.228 998.852 398.11L998.852 397.837C998.852 396.589 998.436 395.64 997.604 394.99C996.798 394.314 995.706 393.976 994.328 393.976C993.002 393.976 991.871 394.275 990.935 394.873C990.025 395.471 989.258 396.29 988.634 397.33L985.67 394.795C986.086 394.197 986.567 393.625 987.113 393.079C987.659 392.533 988.283 392.065 988.985 391.675C989.687 391.259 990.493 390.934 991.403 390.7C992.313 390.44 993.34 390.31 994.484 390.31C995.758 390.31 996.941 390.466 998.033 390.778C999.125 391.09 1000.07 391.558 1000.88 392.182C1001.69 392.78 1002.31 393.521 1002.75 394.405C1003.19 395.263 1003.42 396.238 1003.42 397.33C1003.42 398.188 1003.27 398.968 1002.99 399.67C1002.73 400.372 1002.35 400.996 1001.86 401.542C1001.39 402.062 1000.83 402.491 1000.18 402.829C999.528 403.167 998.839 403.414 998.111 403.57L998.111 403.765C998.891 403.921 999.632 404.181 1000.33 404.545C1001.04 404.883 1001.66 405.338 1002.21 405.91C1002.75 406.456 1003.18 407.119 1003.49 407.899C1003.81 408.653 1003.96 409.524 1003.96 410.512C1003.96 411.708 1003.73 412.8 1003.26 413.788C1002.79 414.75 1002.12 415.582 1001.23 416.284C1000.37 416.986 999.333 417.532 998.111 417.922C996.889 418.286 995.524 418.468 994.016 418.468C992.742 418.468 991.611 418.325 990.623 418.039C989.661 417.779 988.803 417.428 988.049 416.986C987.295 416.518 986.632 415.998 986.06 415.426C985.514 414.828 985.033 414.217 984.617 413.593L987.854 411.097C988.53 412.189 989.323 413.086 990.233 413.788C991.169 414.464 992.443 414.802 994.055 414.802C995.771 414.802 997.084 414.412 997.994 413.632C998.904 412.826 999.359 411.721 999.359 410.317L999.359 410.005C999.359 408.601 998.878 407.535 997.916 406.807C996.98 406.053 995.615 405.676 993.821 405.676L990.896 405.676L990.896 402.01L993.704 402.01ZM1029.61 400.918C1029.61 402.894 1029.31 404.753 1028.71 406.495C1028.11 408.237 1027.33 409.836 1026.37 411.292C1025.41 412.748 1024.34 414.048 1023.17 415.192C1022 416.336 1020.85 417.272 1019.7 418L1013.85 418C1015.41 416.882 1016.82 415.803 1018.06 414.763C1019.31 413.723 1020.39 412.657 1021.3 411.565C1022.24 410.473 1023.02 409.329 1023.64 408.133C1024.27 406.911 1024.75 405.559 1025.08 404.077L1024.81 403.999C1024.53 404.545 1024.19 405.065 1023.8 405.559C1023.41 406.027 1022.95 406.443 1022.43 406.807C1021.91 407.171 1021.31 407.457 1020.64 407.665C1019.96 407.873 1019.2 407.977 1018.34 407.977C1017.17 407.977 1016.09 407.782 1015.1 407.392C1014.11 407.002 1013.25 406.443 1012.53 405.715C1011.8 404.961 1011.23 404.064 1010.81 403.024C1010.42 401.984 1010.23 400.814 1010.23 399.514C1010.23 398.162 1010.45 396.927 1010.89 395.809C1011.36 394.665 1012.01 393.69 1012.84 392.884C1013.7 392.078 1014.72 391.454 1015.92 391.012C1017.12 390.544 1018.44 390.31 1019.9 390.31C1021.41 390.31 1022.76 390.557 1023.95 391.051C1025.18 391.545 1026.2 392.26 1027.03 393.196C1027.87 394.106 1028.5 395.211 1028.95 396.511C1029.39 397.811 1029.61 399.28 1029.61 400.918ZM1019.94 404.506C1021.57 404.506 1022.85 404.064 1023.76 403.18C1024.67 402.27 1025.12 400.996 1025.12 399.358L1025.12 398.968C1025.12 397.33 1024.67 396.069 1023.76 395.185C1022.85 394.275 1021.57 393.82 1019.94 393.82C1018.27 393.82 1016.99 394.275 1016.08 395.185C1015.17 396.069 1014.71 397.33 1014.71 398.968L1014.71 399.358C1014.71 400.996 1015.17 402.27 1016.08 403.18C1016.99 404.064 1018.27 404.506 1019.94 404.506ZM1042.19 413.125L1042.19 418L1037.82 418L1037.82 413.125L1034.97 413.125L1034.97 409.771L1037.82 409.771L1037.82 406.846L1034.97 406.846L1034.97 403.492L1037.82 403.492L1037.82 390.778L1047.22 390.778C1049.82 390.778 1051.8 391.506 1053.15 392.962C1054.53 394.392 1055.22 396.355 1055.22 398.851C1055.22 401.373 1054.53 403.336 1053.15 404.74C1051.8 406.144 1049.82 406.846 1047.22 406.846L1042.19 406.846L1042.19 409.771L1050.69 409.771L1050.69 413.125L1042.19 413.125ZM1042.19 403.492L1046.6 403.492C1049.33 403.492 1050.69 402.27 1050.69 399.826L1050.69 397.915C1050.69 395.471 1049.33 394.249 1046.6 394.249L1042.19 394.249L1042.19 403.492ZM354.551 485.468C351.093 485.468 348.519 484.246 346.829 481.802C345.165 479.358 344.333 475.887 344.333 471.389C344.333 466.891 345.165 463.42 346.829 460.976C348.519 458.532 351.093 457.31 354.551 457.31C355.877 457.31 357.021 457.492 357.983 457.856C358.971 458.194 359.816 458.675 360.518 459.299C361.22 459.897 361.805 460.612 362.273 461.444C362.767 462.25 363.17 463.121 363.482 464.057L359.543 465.383C359.335 464.759 359.101 464.174 358.841 463.628C358.581 463.082 358.256 462.614 357.866 462.224C357.476 461.834 357.008 461.522 356.462 461.288C355.942 461.054 355.292 460.937 354.512 460.937C352.588 460.937 351.184 461.678 350.3 463.16C349.416 464.616 348.974 466.592 348.974 469.088L348.974 473.69C348.974 476.186 349.416 478.175 350.3 479.657C351.184 481.113 352.588 481.841 354.512 481.841C355.292 481.841 355.942 481.724 356.462 481.49C357.008 481.256 357.476 480.944 357.866 480.554C358.256 480.164 358.581 479.696 358.841 479.15C359.101 478.604 359.335 478.019 359.543 477.395L363.482 478.721C363.17 479.657 362.767 480.541 362.273 481.373C361.805 482.179 361.22 482.894 360.518 483.518C359.816 484.116 358.971 484.597 357.983 484.961C357.021 485.299 355.877 485.468 354.551 485.468ZM378.911 485.468C377.429 485.468 376.09 485.221 374.894 484.727C373.724 484.233 372.723 483.531 371.891 482.621C371.085 481.711 370.461 480.606 370.019 479.306C369.577 478.006 369.356 476.55 369.356 474.938C369.356 473.326 369.577 471.87 370.019 470.57C370.461 469.27 371.085 468.165 371.891 467.255C372.723 466.345 373.724 465.643 374.894 465.149C376.09 464.655 377.429 464.408 378.911 464.408C380.393 464.408 381.719 464.655 382.889 465.149C384.085 465.643 385.086 466.345 385.892 467.255C386.724 468.165 387.361 469.27 387.803 470.57C388.245 471.87 388.466 473.326 388.466 474.938C388.466 476.55 388.245 478.006 387.803 479.306C387.361 480.606 386.724 481.711 385.892 482.621C385.086 483.531 384.085 484.233 382.889 484.727C381.719 485.221 380.393 485.468 378.911 485.468ZM378.911 482.114C380.471 482.114 381.706 481.646 382.616 480.71C383.552 479.748 384.02 478.331 384.02 476.459L384.02 473.417C384.02 471.545 383.552 470.141 382.616 469.205C381.706 468.243 380.471 467.762 378.911 467.762C377.351 467.762 376.103 468.243 375.167 469.205C374.257 470.141 373.802 471.545 373.802 473.417L373.802 476.459C373.802 478.331 374.257 479.748 375.167 480.71C376.103 481.646 377.351 482.114 378.911 482.114ZM393.287 481.568L395.9 481.568C396.238 481.126 396.537 480.619 396.797 480.047C397.083 479.449 397.304 478.734 397.46 477.902C397.642 477.07 397.772 476.108 397.85 475.016C397.954 473.924 398.006 472.65 398.006 471.194L398.006 464.876L412.241 464.876L412.241 485L407.99 485L407.99 468.308L401.984 468.308L401.984 471.272C401.984 474.678 401.737 477.343 401.243 479.267C400.749 481.191 400.073 482.595 399.215 483.479C398.617 484.103 397.928 484.519 397.148 484.727C396.368 484.909 395.549 485 394.691 485L393.287 485L393.287 481.568ZM420.767 464.876L425.018 464.876L425.018 472.988L433.364 472.988L433.364 464.876L437.615 464.876L437.615 485L433.364 485L433.364 476.42L425.018 476.42L425.018 485L420.767 485L420.767 464.876ZM454.759 485.468C453.225 485.468 451.847 485.221 450.625 484.727C449.403 484.233 448.376 483.531 447.544 482.621C446.712 481.711 446.075 480.619 445.633 479.345C445.191 478.045 444.97 476.589 444.97 474.977C444.97 473.365 445.191 471.909 445.633 470.609C446.101 469.309 446.738 468.204 447.544 467.294C448.376 466.358 449.377 465.643 450.547 465.149C451.717 464.655 453.017 464.408 454.447 464.408C455.851 464.408 457.125 464.655 458.269 465.149C459.413 465.617 460.388 466.293 461.194 467.177C462 468.061 462.611 469.114 463.027 470.336C463.469 471.558 463.69 472.91 463.69 474.392L463.69 475.991L449.26 475.991L449.26 476.654C449.26 478.24 449.754 479.54 450.742 480.554C451.73 481.542 453.095 482.036 454.837 482.036C456.137 482.036 457.242 481.763 458.152 481.217C459.088 480.645 459.842 479.891 460.414 478.955L463.066 481.295C462.39 482.465 461.35 483.453 459.946 484.259C458.568 485.065 456.839 485.468 454.759 485.468ZM454.447 467.645C453.693 467.645 452.991 467.775 452.341 468.035C451.717 468.295 451.171 468.672 450.703 469.166C450.261 469.634 449.91 470.193 449.65 470.843C449.39 471.493 449.26 472.208 449.26 472.988L449.26 473.261L459.361 473.261L459.361 472.871C459.361 471.285 458.906 470.024 457.996 469.088C457.112 468.126 455.929 467.645 454.447 467.645ZM483.175 476.108L482.98 476.108C482.304 476.94 481.498 477.577 480.562 478.019C479.652 478.435 478.495 478.643 477.091 478.643C472.697 478.643 470.5 476.42 470.5 471.974L470.5 464.876L474.751 464.876L474.751 471.701C474.751 472.871 475.05 473.729 475.648 474.275C476.272 474.795 477.312 475.055 478.768 475.055C480.094 475.055 481.16 474.86 481.966 474.47C482.772 474.054 483.175 473.456 483.175 472.676L483.175 464.876L487.426 464.876L487.426 485L483.175 485L483.175 476.108ZM496.186 464.876L500.437 464.876L500.437 472.988L508.783 472.988L508.783 464.876L513.034 464.876L513.034 485L508.783 485L508.783 476.42L500.437 476.42L500.437 485L496.186 485L496.186 464.876ZM519.766 464.876L523.627 464.876L523.627 471.506L526.474 471.506C528.528 471.506 530.179 472.091 531.427 473.261C532.701 474.431 533.338 476.095 533.338 478.253C533.338 480.411 532.701 482.075 531.427 483.245C530.179 484.415 528.528 485 526.474 485L519.766 485L519.766 464.876ZM526.201 481.802C527.189 481.802 527.956 481.581 528.502 481.139C529.074 480.671 529.36 479.943 529.36 478.955L529.36 477.551C529.36 476.563 529.074 475.848 528.502 475.406C527.956 474.938 527.189 474.704 526.201 474.704L523.627 474.704L523.627 481.802L526.201 481.802ZM535.873 464.876L539.734 464.876L539.734 485L535.873 485L535.873 464.876ZM555.319 485.468C553.785 485.468 552.407 485.221 551.185 484.727C549.963 484.233 548.936 483.531 548.104 482.621C547.272 481.711 546.635 480.619 546.193 479.345C545.751 478.045 545.53 476.589 545.53 474.977C545.53 473.365 545.751 471.909 546.193 470.609C546.661 469.309 547.298 468.204 548.104 467.294C548.936 466.358 549.937 465.643 551.107 465.149C552.277 464.655 553.577 464.408 555.007 464.408C556.411 464.408 557.685 464.655 558.829 465.149C559.973 465.617 560.948 466.293 561.754 467.177C562.56 468.061 563.171 469.114 563.587 470.336C564.029 471.558 564.25 472.91 564.25 474.392L564.25 475.991L549.82 475.991L549.82 476.654C549.82 478.24 550.314 479.54 551.302 480.554C552.29 481.542 553.655 482.036 555.397 482.036C556.697 482.036 557.802 481.763 558.712 481.217C559.648 480.645 560.402 479.891 560.974 478.955L563.626 481.295C562.95 482.465 561.91 483.453 560.506 484.259C559.128 485.065 557.399 485.468 555.319 485.468ZM555.007 467.645C554.253 467.645 553.551 467.775 552.901 468.035C552.277 468.295 551.731 468.672 551.263 469.166C550.821 469.634 550.47 470.193 550.21 470.843C549.95 471.493 549.82 472.208 549.82 472.988L549.82 473.261L559.921 473.261L559.921 472.871C559.921 471.285 559.466 470.024 558.556 469.088C557.672 468.126 556.489 467.645 555.007 467.645ZM605.208 485.468C603.778 485.468 602.478 485.221 601.308 484.727C600.164 484.233 599.176 483.492 598.344 482.504C597.538 481.516 596.914 480.281 596.472 478.799C596.03 477.291 595.809 475.536 595.809 473.534C595.809 470.492 596.017 467.905 596.433 465.773C596.849 463.615 597.512 461.86 598.422 460.508C599.332 459.13 600.489 458.103 601.893 457.427C603.323 456.751 605.039 456.348 607.041 456.218L613.164 455.867L613.164 459.845L607.119 460.196C605.897 460.274 604.87 460.482 604.038 460.82C603.232 461.132 602.569 461.639 602.049 462.341C601.529 463.043 601.126 463.953 600.84 465.071C600.58 466.163 600.398 467.528 600.294 469.166L600.528 469.166C601.022 467.866 601.737 466.865 602.673 466.163C603.609 465.461 604.818 465.11 606.3 465.11C607.522 465.11 608.64 465.331 609.654 465.773C610.694 466.215 611.578 466.865 612.306 467.723C613.034 468.555 613.593 469.595 613.983 470.843C614.399 472.091 614.607 473.508 614.607 475.094C614.607 476.654 614.386 478.084 613.944 479.384C613.502 480.658 612.865 481.75 612.033 482.66C611.227 483.544 610.239 484.233 609.069 484.727C607.925 485.221 606.638 485.468 605.208 485.468ZM605.169 482.114C606.651 482.114 607.847 481.646 608.757 480.71C609.693 479.748 610.161 478.409 610.161 476.693L610.161 473.963C610.161 472.143 609.719 470.778 608.835 469.868C607.951 468.932 606.729 468.464 605.169 468.464C603.583 468.464 602.361 468.919 601.503 469.829C600.671 470.713 600.255 471.896 600.255 473.378L600.255 476.615C600.255 478.409 600.697 479.774 601.581 480.71C602.491 481.646 603.687 482.114 605.169 482.114ZM637.797 485C636.575 485 635.652 484.688 635.028 484.064C634.43 483.44 634.066 482.621 633.936 481.607L633.741 481.607C633.351 482.829 632.636 483.778 631.596 484.454C630.582 485.13 629.282 485.468 627.696 485.468C625.642 485.468 624.004 484.935 622.782 483.869C621.56 482.777 620.949 481.282 620.949 479.384C620.949 477.434 621.664 475.952 623.094 474.938C624.55 473.898 626.773 473.378 629.763 473.378L633.624 473.378L633.624 471.818C633.624 469.088 632.181 467.723 629.295 467.723C627.995 467.723 626.942 467.983 626.136 468.503C625.33 468.997 624.654 469.66 624.108 470.492L621.573 468.425C622.145 467.333 623.107 466.397 624.459 465.617C625.811 464.811 627.553 464.408 629.685 464.408C632.233 464.408 634.235 465.019 635.691 466.241C637.147 467.463 637.875 469.231 637.875 471.545L637.875 481.646L640.41 481.646L640.41 485L637.797 485ZM628.905 482.348C630.283 482.348 631.414 482.036 632.298 481.412C633.182 480.788 633.624 479.982 633.624 478.994L633.624 476.069L629.841 476.069C626.773 476.069 625.239 476.992 625.239 478.838L625.239 479.618C625.239 480.528 625.564 481.217 626.214 481.685C626.864 482.127 627.761 482.348 628.905 482.348ZM653.304 468.308L646.245 468.308L646.245 464.876L664.653 464.876L664.653 468.308L657.555 468.308L657.555 485L653.304 485L653.304 468.308ZM688.076 485C686.854 485 685.931 484.688 685.307 484.064C684.709 483.44 684.345 482.621 684.215 481.607L684.02 481.607C683.63 482.829 682.915 483.778 681.875 484.454C680.861 485.13 679.561 485.468 677.975 485.468C675.921 485.468 674.283 484.935 673.061 483.869C671.839 482.777 671.228 481.282 671.228 479.384C671.228 477.434 671.943 475.952 673.373 474.938C674.829 473.898 677.052 473.378 680.042 473.378L683.903 473.378L683.903 471.818C683.903 469.088 682.46 467.723 679.574 467.723C678.274 467.723 677.221 467.983 676.415 468.503C675.609 468.997 674.933 469.66 674.387 470.492L671.852 468.425C672.424 467.333 673.386 466.397 674.738 465.617C676.09 464.811 677.832 464.408 679.964 464.408C682.512 464.408 684.514 465.019 685.97 466.241C687.426 467.463 688.154 469.231 688.154 471.545L688.154 481.646L690.689 481.646L690.689 485L688.076 485ZM679.184 482.348C680.562 482.348 681.693 482.036 682.577 481.412C683.461 480.788 683.903 479.982 683.903 478.994L683.903 476.069L680.12 476.069C677.052 476.069 675.518 476.992 675.518 478.838L675.518 479.618C675.518 480.528 675.843 481.217 676.493 481.685C677.143 482.127 678.04 482.348 679.184 482.348ZM697.109 464.876L701.36 464.876L701.36 468.308L701.594 468.308C702.192 467.086 702.985 466.137 703.973 465.461C704.961 464.759 706.196 464.408 707.678 464.408C710.044 464.408 711.929 465.292 713.333 467.06C714.737 468.828 715.439 471.454 715.439 474.938C715.439 478.422 714.737 481.048 713.333 482.816C711.929 484.584 710.044 485.468 707.678 485.468C706.196 485.468 704.961 485.13 703.973 484.454C702.985 483.752 702.192 482.79 701.594 481.568L701.36 481.568L701.36 492.8L697.109 492.8L697.109 464.876ZM705.923 481.997C707.535 481.997 708.77 481.503 709.628 480.515C710.512 479.527 710.954 478.214 710.954 476.576L710.954 473.3C710.954 471.662 710.512 470.349 709.628 469.361C708.77 468.373 707.535 467.879 705.923 467.879C705.299 467.879 704.714 467.957 704.168 468.113C703.622 468.269 703.141 468.503 702.725 468.815C702.309 469.127 701.971 469.517 701.711 469.985C701.477 470.427 701.36 470.96 701.36 471.584L701.36 478.292C701.36 478.916 701.477 479.462 701.711 479.93C701.971 480.372 702.309 480.749 702.725 481.061C703.141 481.373 703.622 481.607 704.168 481.763C704.714 481.919 705.299 481.997 705.923 481.997ZM731.297 485.468C729.763 485.468 728.385 485.221 727.163 484.727C725.941 484.233 724.914 483.531 724.082 482.621C723.25 481.711 722.613 480.619 722.171 479.345C721.729 478.045 721.508 476.589 721.508 474.977C721.508 473.365 721.729 471.909 722.171 470.609C722.639 469.309 723.276 468.204 724.082 467.294C724.914 466.358 725.915 465.643 727.085 465.149C728.255 464.655 729.555 464.408 730.985 464.408C732.389 464.408 733.663 464.655 734.807 465.149C735.951 465.617 736.926 466.293 737.732 467.177C738.538 468.061 739.149 469.114 739.565 470.336C740.007 471.558 740.228 472.91 740.228 474.392L740.228 475.991L725.798 475.991L725.798 476.654C725.798 478.24 726.292 479.54 727.28 480.554C728.268 481.542 729.633 482.036 731.375 482.036C732.675 482.036 733.78 481.763 734.69 481.217C735.626 480.645 736.38 479.891 736.952 478.955L739.604 481.295C738.928 482.465 737.888 483.453 736.484 484.259C735.106 485.065 733.377 485.468 731.297 485.468ZM730.985 467.645C730.231 467.645 729.529 467.775 728.879 468.035C728.255 468.295 727.709 468.672 727.241 469.166C726.799 469.634 726.448 470.193 726.188 470.843C725.928 471.493 725.798 472.208 725.798 472.988L725.798 473.261L735.899 473.261L735.899 472.871C735.899 471.285 735.444 470.024 734.534 469.088C733.65 468.126 732.467 467.645 730.985 467.645ZM747.545 464.876L751.757 464.876L751.757 473.534L751.367 478.994L751.562 478.994L760.454 464.876L764.471 464.876L764.471 485L760.259 485L760.259 476.342L760.649 470.882L760.454 470.882L751.562 485L747.545 485L747.545 464.876ZM806.287 485.39C805.039 485.39 804.155 485.13 803.635 484.61C803.141 484.09 802.894 483.453 802.894 482.699L802.894 481.685C802.894 480.931 803.141 480.294 803.635 479.774C804.155 479.254 805.039 478.994 806.287 478.994C807.535 478.994 808.406 479.254 808.9 479.774C809.42 480.294 809.68 480.931 809.68 481.685L809.68 482.699C809.68 483.453 809.42 484.09 808.9 484.61C808.406 485.13 807.535 485.39 806.287 485.39ZM831.427 485.39C830.179 485.39 829.295 485.13 828.775 484.61C828.281 484.09 828.034 483.453 828.034 482.699L828.034 481.685C828.034 480.931 828.281 480.294 828.775 479.774C829.295 479.254 830.179 478.994 831.427 478.994C832.675 478.994 833.546 479.254 834.04 479.774C834.56 480.294 834.82 480.931 834.82 481.685L834.82 482.699C834.82 483.453 834.56 484.09 834.04 484.61C833.546 485.13 832.675 485.39 831.427 485.39ZM856.567 485.39C855.319 485.39 854.435 485.13 853.915 484.61C853.421 484.09 853.174 483.453 853.174 482.699L853.174 481.685C853.174 480.931 853.421 480.294 853.915 479.774C854.435 479.254 855.319 478.994 856.567 478.994C857.815 478.994 858.686 479.254 859.18 479.774C859.7 480.294 859.96 480.931 859.96 481.685L859.96 482.699C859.96 483.453 859.7 484.09 859.18 484.61C858.686 485.13 857.815 485.39 856.567 485.39ZM881.706 485.39C880.458 485.39 879.574 485.13 879.054 484.61C878.56 484.09 878.313 483.453 878.313 482.699L878.313 481.685C878.313 480.931 878.56 480.294 879.054 479.774C879.574 479.254 880.458 478.994 881.706 478.994C882.954 478.994 883.825 479.254 884.319 479.774C884.839 480.294 885.099 480.931 885.099 481.685L885.099 482.699C885.099 483.453 884.839 484.09 884.319 484.61C883.825 485.13 882.954 485.39 881.706 485.39ZM906.846 485.39C905.598 485.39 904.714 485.13 904.194 484.61C903.7 484.09 903.453 483.453 903.453 482.699L903.453 481.685C903.453 480.931 903.7 480.294 904.194 479.774C904.714 479.254 905.598 478.994 906.846 478.994C908.094 478.994 908.965 479.254 909.459 479.774C909.979 480.294 910.239 480.931 910.239 481.685L910.239 482.699C910.239 483.453 909.979 484.09 909.459 484.61C908.965 485.13 908.094 485.39 906.846 485.39ZM931.986 485.39C930.738 485.39 929.854 485.13 929.334 484.61C928.84 484.09 928.593 483.453 928.593 482.699L928.593 481.685C928.593 480.931 928.84 480.294 929.334 479.774C929.854 479.254 930.738 478.994 931.986 478.994C933.234 478.994 934.105 479.254 934.599 479.774C935.119 480.294 935.379 480.931 935.379 481.685L935.379 482.699C935.379 483.453 935.119 484.09 934.599 484.61C934.105 485.13 933.234 485.39 931.986 485.39ZM957.126 485.39C955.878 485.39 954.994 485.13 954.474 484.61C953.98 484.09 953.733 483.453 953.733 482.699L953.733 481.685C953.733 480.931 953.98 480.294 954.474 479.774C954.994 479.254 955.878 478.994 957.126 478.994C958.374 478.994 959.245 479.254 959.739 479.774C960.259 480.294 960.519 480.931 960.519 481.685L960.519 482.699C960.519 483.453 960.259 484.09 959.739 484.61C959.245 485.13 958.374 485.39 957.126 485.39ZM982.266 485.39C981.018 485.39 980.134 485.13 979.614 484.61C979.12 484.09 978.873 483.453 978.873 482.699L978.873 481.685C978.873 480.931 979.12 480.294 979.614 479.774C980.134 479.254 981.018 478.994 982.266 478.994C983.514 478.994 984.385 479.254 984.879 479.774C985.399 480.294 985.659 480.931 985.659 481.685L985.659 482.699C985.659 483.453 985.399 484.09 984.879 484.61C984.385 485.13 983.514 485.39 982.266 485.39ZM1007.41 485.39C1006.16 485.39 1005.27 485.13 1004.75 484.61C1004.26 484.09 1004.01 483.453 1004.01 482.699L1004.01 481.685C1004.01 480.931 1004.26 480.294 1004.75 479.774C1005.27 479.254 1006.16 478.994 1007.41 478.994C1008.65 478.994 1009.52 479.254 1010.02 479.774C1010.54 480.294 1010.8 480.931 1010.8 481.685L1010.8 482.699C1010.8 483.453 1010.54 484.09 1010.02 484.61C1009.52 485.13 1008.65 485.39 1007.41 485.39ZM1032.55 485.39C1031.3 485.39 1030.41 485.13 1029.89 484.61C1029.4 484.09 1029.15 483.453 1029.15 482.699L1029.15 481.685C1029.15 480.931 1029.4 480.294 1029.89 479.774C1030.41 479.254 1031.3 478.994 1032.55 478.994C1033.79 478.994 1034.66 479.254 1035.16 479.774C1035.68 480.294 1035.94 480.931 1035.94 481.685L1035.94 482.699C1035.94 483.453 1035.68 484.09 1035.16 484.61C1034.66 485.13 1033.79 485.39 1032.55 485.39ZM1081.69 469.01C1083.44 469.01 1084.72 468.646 1085.55 467.918C1086.41 467.164 1086.84 466.228 1086.84 465.11L1086.84 464.837C1086.84 463.589 1086.43 462.64 1085.59 461.99C1084.79 461.314 1083.7 460.976 1082.32 460.976C1080.99 460.976 1079.86 461.275 1078.92 461.873C1078.01 462.471 1077.25 463.29 1076.62 464.33L1073.66 461.795C1074.08 461.197 1074.56 460.625 1075.1 460.079C1075.65 459.533 1076.27 459.065 1076.97 458.675C1077.68 458.259 1078.48 457.934 1079.39 457.7C1080.3 457.44 1081.33 457.31 1082.47 457.31C1083.75 457.31 1084.93 457.466 1086.02 457.778C1087.11 458.09 1088.06 458.558 1088.87 459.182C1089.68 459.78 1090.3 460.521 1090.74 461.405C1091.18 462.263 1091.4 463.238 1091.4 464.33C1091.4 465.188 1091.26 465.968 1090.98 466.67C1090.72 467.372 1090.34 467.996 1089.84 468.542C1089.38 469.062 1088.82 469.491 1088.17 469.829C1087.52 470.167 1086.83 470.414 1086.1 470.57L1086.1 470.765C1086.88 470.921 1087.62 471.181 1088.32 471.545C1089.03 471.883 1089.65 472.338 1090.2 472.91C1090.74 473.456 1091.17 474.119 1091.48 474.899C1091.79 475.653 1091.95 476.524 1091.95 477.512C1091.95 478.708 1091.72 479.8 1091.25 480.788C1090.78 481.75 1090.1 482.582 1089.22 483.284C1088.36 483.986 1087.32 484.532 1086.1 484.922C1084.88 485.286 1083.51 485.468 1082.01 485.468C1080.73 485.468 1079.6 485.325 1078.61 485.039C1077.65 484.779 1076.79 484.428 1076.04 483.986C1075.28 483.518 1074.62 482.998 1074.05 482.426C1073.5 481.828 1073.02 481.217 1072.61 480.593L1075.84 478.097C1076.52 479.189 1077.31 480.086 1078.22 480.788C1079.16 481.464 1080.43 481.802 1082.04 481.802C1083.76 481.802 1085.07 481.412 1085.98 480.632C1086.89 479.826 1087.35 478.721 1087.35 477.317L1087.35 477.005C1087.35 475.601 1086.87 474.535 1085.91 473.807C1084.97 473.053 1083.6 472.676 1081.81 472.676L1078.89 472.676L1078.89 469.01L1081.69 469.01ZM1106.83 469.01C1108.58 469.01 1109.86 468.646 1110.69 467.918C1111.55 467.164 1111.98 466.228 1111.98 465.11L1111.98 464.837C1111.98 463.589 1111.57 462.64 1110.73 461.99C1109.93 461.314 1108.84 460.976 1107.46 460.976C1106.13 460.976 1105 461.275 1104.06 461.873C1103.15 462.471 1102.39 463.29 1101.76 464.33L1098.8 461.795C1099.22 461.197 1099.7 460.625 1100.24 460.079C1100.79 459.533 1101.41 459.065 1102.11 458.675C1102.82 458.259 1103.62 457.934 1104.53 457.7C1105.44 457.44 1106.47 457.31 1107.61 457.31C1108.89 457.31 1110.07 457.466 1111.16 457.778C1112.25 458.09 1113.2 458.558 1114.01 459.182C1114.82 459.78 1115.44 460.521 1115.88 461.405C1116.32 462.263 1116.54 463.238 1116.54 464.33C1116.54 465.188 1116.4 465.968 1116.12 466.67C1115.86 467.372 1115.48 467.996 1114.98 468.542C1114.52 469.062 1113.96 469.491 1113.31 469.829C1112.66 470.167 1111.97 470.414 1111.24 470.57L1111.24 470.765C1112.02 470.921 1112.76 471.181 1113.46 471.545C1114.17 471.883 1114.79 472.338 1115.34 472.91C1115.88 473.456 1116.31 474.119 1116.62 474.899C1116.93 475.653 1117.09 476.524 1117.09 477.512C1117.09 478.708 1116.86 479.8 1116.39 480.788C1115.92 481.75 1115.24 482.582 1114.36 483.284C1113.5 483.986 1112.46 484.532 1111.24 484.922C1110.02 485.286 1108.65 485.468 1107.15 485.468C1105.87 485.468 1104.74 485.325 1103.75 485.039C1102.79 484.779 1101.93 484.428 1101.18 483.986C1100.42 483.518 1099.76 482.998 1099.19 482.426C1098.64 481.828 1098.16 481.217 1097.75 480.593L1100.98 478.097C1101.66 479.189 1102.45 480.086 1103.36 480.788C1104.3 481.464 1105.57 481.802 1107.18 481.802C1108.9 481.802 1110.21 481.412 1111.12 480.632C1112.03 479.826 1112.49 478.721 1112.49 477.317L1112.49 477.005C1112.49 475.601 1112.01 474.535 1111.05 473.807C1110.11 473.053 1108.74 472.676 1106.95 472.676L1104.03 472.676L1104.03 469.01L1106.83 469.01ZM1142.74 467.918C1142.74 469.894 1142.44 471.753 1141.84 473.495C1141.24 475.237 1140.46 476.836 1139.5 478.292C1138.54 479.748 1137.47 481.048 1136.3 482.192C1135.13 483.336 1133.98 484.272 1132.83 485L1126.98 485C1128.54 483.882 1129.95 482.803 1131.19 481.763C1132.44 480.723 1133.52 479.657 1134.43 478.565C1135.37 477.473 1136.15 476.329 1136.77 475.133C1137.39 473.911 1137.88 472.559 1138.21 471.077L1137.94 470.999C1137.65 471.545 1137.32 472.065 1136.93 472.559C1136.54 473.027 1136.08 473.443 1135.56 473.807C1135.04 474.171 1134.44 474.457 1133.77 474.665C1133.09 474.873 1132.32 474.977 1131.47 474.977C1130.3 474.977 1129.22 474.782 1128.23 474.392C1127.24 474.002 1126.38 473.443 1125.66 472.715C1124.93 471.961 1124.36 471.064 1123.94 470.024C1123.55 468.984 1123.35 467.814 1123.35 466.514C1123.35 465.162 1123.58 463.927 1124.02 462.809C1124.49 461.665 1125.14 460.69 1125.97 459.884C1126.83 459.078 1127.85 458.454 1129.05 458.012C1130.24 457.544 1131.57 457.31 1133.03 457.31C1134.53 457.31 1135.89 457.557 1137.08 458.051C1138.3 458.545 1139.33 459.26 1140.16 460.196C1141 461.106 1141.63 462.211 1142.07 463.511C1142.52 464.811 1142.74 466.28 1142.74 467.918ZM1133.07 471.506C1134.7 471.506 1135.98 471.064 1136.89 470.18C1137.8 469.27 1138.25 467.996 1138.25 466.358L1138.25 465.968C1138.25 464.33 1137.8 463.069 1136.89 462.185C1135.98 461.275 1134.7 460.82 1133.07 460.82C1131.4 460.82 1130.11 461.275 1129.2 462.185C1128.29 463.069 1127.84 464.33 1127.84 465.968L1127.84 466.358C1127.84 467.996 1128.29 469.27 1129.2 470.18C1130.11 471.064 1131.4 471.506 1133.07 471.506ZM1155.32 480.125L1155.32 485L1150.95 485L1150.95 480.125L1148.1 480.125L1148.1 476.771L1150.95 476.771L1150.95 473.846L1148.1 473.846L1148.1 470.492L1150.95 470.492L1150.95 457.778L1160.35 457.778C1162.95 457.778 1164.93 458.506 1166.28 459.962C1167.66 461.392 1168.34 463.355 1168.34 465.851C1168.34 468.373 1167.66 470.336 1166.28 471.74C1164.93 473.144 1162.95 473.846 1160.35 473.846L1155.32 473.846L1155.32 476.771L1163.82 476.771L1163.82 480.125L1155.32 480.125ZM1155.32 470.492L1159.73 470.492C1162.46 470.492 1163.82 469.27 1163.82 466.826L1163.82 464.915C1163.82 462.471 1162.46 461.249 1159.73 461.249L1155.32 461.249L1155.32 470.492ZM320.391 541.743L320.196 541.743C319.52 542.029 318.753 542.25 317.895 542.406C317.037 542.562 316.062 542.64 314.97 542.64C313.41 542.64 312.084 542.458 310.992 542.094C309.9 541.704 309.003 541.119 308.301 540.339C307.599 539.533 307.092 538.519 306.78 537.297C306.468 536.075 306.312 534.619 306.312 532.929L306.312 524.778L310.68 524.778L310.68 532.968C310.68 534.112 310.758 535.074 310.914 535.854C311.096 536.608 311.382 537.219 311.772 537.687C312.188 538.155 312.721 538.493 313.371 538.701C314.021 538.883 314.827 538.974 315.789 538.974C317.453 538.974 318.987 538.701 320.391 538.155L320.391 524.778L324.759 524.778L324.759 552L320.391 552L320.391 541.743ZM341.63 552.468C340.096 552.468 338.718 552.221 337.496 551.727C336.274 551.233 335.247 550.531 334.415 549.621C333.583 548.711 332.946 547.619 332.504 546.345C332.062 545.045 331.841 543.589 331.841 541.977C331.841 540.365 332.062 538.909 332.504 537.609C332.972 536.309 333.609 535.204 334.415 534.294C335.247 533.358 336.248 532.643 337.418 532.149C338.588 531.655 339.888 531.408 341.318 531.408C342.722 531.408 343.996 531.655 345.14 532.149C346.284 532.617 347.259 533.293 348.065 534.177C348.871 535.061 349.482 536.114 349.898 537.336C350.34 538.558 350.561 539.91 350.561 541.392L350.561 542.991L336.131 542.991L336.131 543.654C336.131 545.24 336.625 546.54 337.613 547.554C338.601 548.542 339.966 549.036 341.708 549.036C343.008 549.036 344.113 548.763 345.023 548.217C345.959 547.645 346.713 546.891 347.285 545.955L349.937 548.295C349.261 549.465 348.221 550.453 346.817 551.259C345.439 552.065 343.71 552.468 341.63 552.468ZM341.318 534.645C340.564 534.645 339.862 534.775 339.212 535.035C338.588 535.295 338.042 535.672 337.574 536.166C337.132 536.634 336.781 537.193 336.521 537.843C336.261 538.493 336.131 539.208 336.131 539.988L336.131 540.261L346.232 540.261L346.232 539.871C346.232 538.285 345.777 537.024 344.867 536.088C343.983 535.126 342.8 534.645 341.318 534.645ZM355.577 548.568L358.19 548.568C358.528 548.126 358.827 547.619 359.087 547.047C359.373 546.449 359.594 545.734 359.75 544.902C359.932 544.07 360.062 543.108 360.14 542.016C360.244 540.924 360.296 539.65 360.296 538.194L360.296 531.876L374.531 531.876L374.531 552L370.28 552L370.28 535.308L364.274 535.308L364.274 538.272C364.274 541.678 364.027 544.343 363.533 546.267C363.039 548.191 362.363 549.595 361.505 550.479C360.907 551.103 360.218 551.519 359.438 551.727C358.658 551.909 357.839 552 356.981 552L355.577 552L355.577 548.568ZM382.043 548.568L384.344 548.568L385.787 545.916C386.099 545.318 386.463 544.889 386.879 544.629C387.295 544.343 387.802 544.174 388.4 544.122L388.4 543.966C386.736 543.836 385.384 543.303 384.344 542.367C383.304 541.431 382.784 540.053 382.784 538.233C382.784 537.271 382.94 536.4 383.252 535.62C383.564 534.84 384.006 534.177 384.578 533.631C385.176 533.059 385.878 532.63 386.684 532.344C387.516 532.032 388.439 531.876 389.453 531.876L399.437 531.876L399.437 552L395.186 552L395.186 544.512L391.403 544.512L388.79 549.27C388.27 550.258 387.698 550.96 387.074 551.376C386.45 551.792 385.644 552 384.656 552L382.043 552L382.043 548.568ZM395.186 535.191L390.233 535.191C389.245 535.191 388.478 535.425 387.932 535.893C387.412 536.335 387.152 536.959 387.152 537.765L387.152 538.779C387.152 539.585 387.412 540.222 387.932 540.69C388.478 541.132 389.245 541.353 390.233 541.353L395.186 541.353L395.186 535.191ZM416.66 552.468C415.23 552.468 413.93 552.221 412.76 551.727C411.616 551.233 410.628 550.492 409.796 549.504C408.99 548.516 408.366 547.281 407.924 545.799C407.482 544.291 407.261 542.536 407.261 540.534C407.261 537.492 407.469 534.905 407.885 532.773C408.301 530.615 408.964 528.86 409.874 527.508C410.784 526.13 411.941 525.103 413.345 524.427C414.775 523.751 416.491 523.348 418.493 523.218L424.616 522.867L424.616 526.845L418.571 527.196C417.349 527.274 416.322 527.482 415.49 527.82C414.684 528.132 414.021 528.639 413.501 529.341C412.981 530.043 412.578 530.953 412.292 532.071C412.032 533.163 411.85 534.528 411.746 536.166L411.98 536.166C412.474 534.866 413.189 533.865 414.125 533.163C415.061 532.461 416.27 532.11 417.752 532.11C418.974 532.11 420.092 532.331 421.106 532.773C422.146 533.215 423.03 533.865 423.758 534.723C424.486 535.555 425.045 536.595 425.435 537.843C425.851 539.091 426.059 540.508 426.059 542.094C426.059 543.654 425.838 545.084 425.396 546.384C424.954 547.658 424.317 548.75 423.485 549.66C422.679 550.544 421.691 551.233 420.521 551.727C419.377 552.221 418.09 552.468 416.66 552.468ZM416.621 549.114C418.103 549.114 419.299 548.646 420.209 547.71C421.145 546.748 421.613 545.409 421.613 543.693L421.613 540.963C421.613 539.143 421.171 537.778 420.287 536.868C419.403 535.932 418.181 535.464 416.621 535.464C415.035 535.464 413.813 535.919 412.955 536.829C412.123 537.713 411.707 538.896 411.707 540.378L411.707 543.615C411.707 545.409 412.149 546.774 413.033 547.71C413.943 548.646 415.139 549.114 416.621 549.114ZM433.298 531.876L437.51 531.876L437.51 540.534L437.12 545.994L437.315 545.994L446.207 531.876L450.224 531.876L450.224 552L446.012 552L446.012 543.342L446.402 537.882L446.207 537.882L437.315 552L433.298 552L433.298 531.876ZM458.476 531.876L462.727 531.876L462.727 539.988L471.073 539.988L471.073 531.876L475.324 531.876L475.324 552L471.073 552L471.073 543.42L462.727 543.42L462.727 552L458.476 552L458.476 531.876ZM492.781 552.468C491.273 552.468 489.921 552.221 488.725 551.727C487.555 551.233 486.554 550.531 485.722 549.621C484.916 548.711 484.292 547.606 483.85 546.306C483.434 545.006 483.226 543.55 483.226 541.938C483.226 540.326 483.434 538.87 483.85 537.57C484.292 536.27 484.916 535.165 485.722 534.255C486.554 533.345 487.555 532.643 488.725 532.149C489.921 531.655 491.26 531.408 492.742 531.408C494.822 531.408 496.486 531.85 497.734 532.734C499.008 533.618 499.957 534.762 500.581 536.166L497.266 537.96C496.902 537.024 496.343 536.283 495.589 535.737C494.861 535.191 493.912 534.918 492.742 534.918C491.13 534.918 489.882 535.412 488.998 536.4C488.114 537.362 487.672 538.649 487.672 540.261L487.672 543.615C487.672 545.201 488.114 546.488 488.998 547.476C489.882 548.464 491.156 548.958 492.82 548.958C494.068 548.958 495.082 548.672 495.862 548.1C496.668 547.528 497.305 546.748 497.773 545.76L500.893 547.671C500.243 549.075 499.255 550.232 497.929 551.142C496.603 552.026 494.887 552.468 492.781 552.468ZM509.068 531.876L513.319 531.876L513.319 539.988L516.946 539.988L521.782 531.876L526.345 531.876L521.86 539.208C521.418 539.962 520.989 540.495 520.573 540.807C520.157 541.119 519.676 541.34 519.13 541.47L519.13 541.665C519.754 541.795 520.274 542.029 520.69 542.367C521.106 542.679 521.535 543.225 521.977 544.005L524.512 548.568L526.696 548.568L526.696 552L524.2 552C523.342 552 522.601 551.805 521.977 551.415C521.379 550.999 520.82 550.336 520.3 549.426L516.946 543.42L513.319 543.42L513.319 552L509.068 552L509.068 531.876ZM533.857 531.876L538.069 531.876L538.069 540.534L537.679 545.994L537.874 545.994L546.766 531.876L550.783 531.876L550.783 552L546.571 552L546.571 543.342L546.961 537.882L546.766 537.882L537.874 552L533.857 552L533.857 531.876ZM558.996 531.876L563.208 531.876L563.208 540.534L562.818 545.994L563.013 545.994L571.905 531.876L575.922 531.876L575.922 552L571.71 552L571.71 543.342L572.1 537.882L571.905 537.882L563.013 552L558.996 552L558.996 531.876ZM567.459 529.224C565.951 529.224 564.729 528.899 563.793 528.249C562.857 527.573 562.09 526.572 561.492 525.246L560.517 523.062L564.066 521.814L565.47 525.948C565.704 526.052 566.016 526.13 566.406 526.182C566.796 526.208 567.147 526.221 567.459 526.221C567.771 526.221 568.122 526.208 568.512 526.182C568.902 526.13 569.214 526.052 569.448 525.948L570.852 521.814L574.401 523.062L573.426 525.246C572.828 526.572 572.061 527.573 571.125 528.249C570.189 528.899 568.967 529.224 567.459 529.224ZM608.496 531.876L613.449 531.876L617.817 541.353L618.09 541.353L622.458 531.876L626.982 531.876L626.982 552L623.277 552L623.277 540.651L623.433 537.102L623.16 537.102L617.739 548.841L612.318 537.102L612.045 537.102L612.201 540.651L612.201 552L608.496 552L608.496 531.876ZM643.308 552.468C641.774 552.468 640.396 552.221 639.174 551.727C637.952 551.233 636.925 550.531 636.093 549.621C635.261 548.711 634.624 547.619 634.182 546.345C633.74 545.045 633.519 543.589 633.519 541.977C633.519 540.365 633.74 538.909 634.182 537.609C634.65 536.309 635.287 535.204 636.093 534.294C636.925 533.358 637.926 532.643 639.096 532.149C640.266 531.655 641.566 531.408 642.996 531.408C644.4 531.408 645.674 531.655 646.818 532.149C647.962 532.617 648.937 533.293 649.743 534.177C650.549 535.061 651.16 536.114 651.576 537.336C652.018 538.558 652.239 539.91 652.239 541.392L652.239 542.991L637.809 542.991L637.809 543.654C637.809 545.24 638.303 546.54 639.291 547.554C640.279 548.542 641.644 549.036 643.386 549.036C644.686 549.036 645.791 548.763 646.701 548.217C647.637 547.645 648.391 546.891 648.963 545.955L651.615 548.295C650.939 549.465 649.899 550.453 648.495 551.259C647.117 552.065 645.388 552.468 643.308 552.468ZM642.996 534.645C642.242 534.645 641.54 534.775 640.89 535.035C640.266 535.295 639.72 535.672 639.252 536.166C638.81 536.634 638.459 537.193 638.199 537.843C637.939 538.493 637.809 539.208 637.809 539.988L637.809 540.261L647.91 540.261L647.91 539.871C647.91 538.285 647.455 537.024 646.545 536.088C645.661 535.126 644.478 534.645 642.996 534.645ZM665.873 535.308L658.814 535.308L658.814 531.876L677.222 531.876L677.222 535.308L670.124 535.308L670.124 552L665.873 552L665.873 535.308ZM693.587 552.468C692.053 552.468 690.675 552.221 689.453 551.727C688.231 551.233 687.204 550.531 686.372 549.621C685.54 548.711 684.903 547.619 684.461 546.345C684.019 545.045 683.798 543.589 683.798 541.977C683.798 540.365 684.019 538.909 684.461 537.609C684.929 536.309 685.566 535.204 686.372 534.294C687.204 533.358 688.205 532.643 689.375 532.149C690.545 531.655 691.845 531.408 693.275 531.408C694.679 531.408 695.953 531.655 697.097 532.149C698.241 532.617 699.216 533.293 700.022 534.177C700.828 535.061 701.439 536.114 701.855 537.336C702.297 538.558 702.518 539.91 702.518 541.392L702.518 542.991L688.088 542.991L688.088 543.654C688.088 545.24 688.582 546.54 689.57 547.554C690.558 548.542 691.923 549.036 693.665 549.036C694.965 549.036 696.07 548.763 696.98 548.217C697.916 547.645 698.67 546.891 699.242 545.955L701.894 548.295C701.218 549.465 700.178 550.453 698.774 551.259C697.396 552.065 695.667 552.468 693.587 552.468ZM693.275 534.645C692.521 534.645 691.819 534.775 691.169 535.035C690.545 535.295 689.999 535.672 689.531 536.166C689.089 536.634 688.738 537.193 688.478 537.843C688.218 538.493 688.088 539.208 688.088 539.988L688.088 540.261L698.189 540.261L698.189 539.871C698.189 538.285 697.734 537.024 696.824 536.088C695.94 535.126 694.757 534.645 693.275 534.645ZM718.298 552.468C716.816 552.468 715.477 552.221 714.281 551.727C713.111 551.233 712.11 550.531 711.278 549.621C710.472 548.711 709.848 547.606 709.406 546.306C708.964 545.006 708.743 543.55 708.743 541.938C708.743 540.326 708.964 538.87 709.406 537.57C709.848 536.27 710.472 535.165 711.278 534.255C712.11 533.345 713.111 532.643 714.281 532.149C715.477 531.655 716.816 531.408 718.298 531.408C719.78 531.408 721.106 531.655 722.276 532.149C723.472 532.643 724.473 533.345 725.279 534.255C726.111 535.165 726.748 536.27 727.19 537.57C727.632 538.87 727.853 540.326 727.853 541.938C727.853 543.55 727.632 545.006 727.19 546.306C726.748 547.606 726.111 548.711 725.279 549.621C724.473 550.531 723.472 551.233 722.276 551.727C721.106 552.221 719.78 552.468 718.298 552.468ZM718.298 549.114C719.858 549.114 721.093 548.646 722.003 547.71C722.939 546.748 723.407 545.331 723.407 543.459L723.407 540.417C723.407 538.545 722.939 537.141 722.003 536.205C721.093 535.243 719.858 534.762 718.298 534.762C716.738 534.762 715.49 535.243 714.554 536.205C713.644 537.141 713.189 538.545 713.189 540.417L713.189 543.459C713.189 545.331 713.644 546.748 714.554 547.71C715.49 548.646 716.738 549.114 718.298 549.114ZM734.819 531.876L739.07 531.876L739.07 535.308L739.304 535.308C739.902 534.086 740.695 533.137 741.683 532.461C742.671 531.759 743.906 531.408 745.388 531.408C747.754 531.408 749.639 532.292 751.043 534.06C752.447 535.828 753.149 538.454 753.149 541.938C753.149 545.422 752.447 548.048 751.043 549.816C749.639 551.584 747.754 552.468 745.388 552.468C743.906 552.468 742.671 552.13 741.683 551.454C740.695 550.752 739.902 549.79 739.304 548.568L739.07 548.568L739.07 559.8L734.819 559.8L734.819 531.876ZM743.633 548.997C745.245 548.997 746.48 548.503 747.338 547.515C748.222 546.527 748.664 545.214 748.664 543.576L748.664 540.3C748.664 538.662 748.222 537.349 747.338 536.361C746.48 535.373 745.245 534.879 743.633 534.879C743.009 534.879 742.424 534.957 741.878 535.113C741.332 535.269 740.851 535.503 740.435 535.815C740.019 536.127 739.681 536.517 739.421 536.985C739.187 537.427 739.07 537.96 739.07 538.584L739.07 545.292C739.07 545.916 739.187 546.462 739.421 546.93C739.681 547.372 740.019 547.749 740.435 548.061C740.851 548.373 741.332 548.607 741.878 548.763C742.424 548.919 743.009 548.997 743.633 548.997ZM760.114 531.876L764.326 531.876L764.326 540.534L763.936 545.994L764.131 545.994L773.023 531.876L777.04 531.876L777.04 552L772.828 552L772.828 543.342L773.218 537.882L773.023 537.882L764.131 552L760.114 552L760.114 531.876ZM791.572 535.308L784.513 535.308L784.513 531.876L802.921 531.876L802.921 535.308L795.823 535.308L795.823 552L791.572 552L791.572 535.308ZM843.997 552.39C842.749 552.39 841.865 552.13 841.345 551.61C840.851 551.09 840.604 550.453 840.604 549.699L840.604 548.685C840.604 547.931 840.851 547.294 841.345 546.774C841.865 546.254 842.749 545.994 843.997 545.994C845.245 545.994 846.116 546.254 846.61 546.774C847.13 547.294 847.39 547.931 847.39 548.685L847.39 549.699C847.39 550.453 847.13 551.09 846.61 551.61C846.116 552.13 845.245 552.39 843.997 552.39ZM869.137 552.39C867.889 552.39 867.005 552.13 866.485 551.61C865.991 551.09 865.744 550.453 865.744 549.699L865.744 548.685C865.744 547.931 865.991 547.294 866.485 546.774C867.005 546.254 867.889 545.994 869.137 545.994C870.385 545.994 871.256 546.254 871.75 546.774C872.27 547.294 872.53 547.931 872.53 548.685L872.53 549.699C872.53 550.453 872.27 551.09 871.75 551.61C871.256 552.13 870.385 552.39 869.137 552.39ZM894.276 552.39C893.028 552.39 892.144 552.13 891.624 551.61C891.13 551.09 890.883 550.453 890.883 549.699L890.883 548.685C890.883 547.931 891.13 547.294 891.624 546.774C892.144 546.254 893.028 545.994 894.276 545.994C895.524 545.994 896.395 546.254 896.889 546.774C897.409 547.294 897.669 547.931 897.669 548.685L897.669 549.699C897.669 550.453 897.409 551.09 896.889 551.61C896.395 552.13 895.524 552.39 894.276 552.39ZM919.416 552.39C918.168 552.39 917.284 552.13 916.764 551.61C916.27 551.09 916.023 550.453 916.023 549.699L916.023 548.685C916.023 547.931 916.27 547.294 916.764 546.774C917.284 546.254 918.168 545.994 919.416 545.994C920.664 545.994 921.535 546.254 922.029 546.774C922.549 547.294 922.809 547.931 922.809 548.685L922.809 549.699C922.809 550.453 922.549 551.09 922.029 551.61C921.535 552.13 920.664 552.39 919.416 552.39ZM944.556 552.39C943.308 552.39 942.424 552.13 941.904 551.61C941.41 551.09 941.163 550.453 941.163 549.699L941.163 548.685C941.163 547.931 941.41 547.294 941.904 546.774C942.424 546.254 943.308 545.994 944.556 545.994C945.804 545.994 946.675 546.254 947.169 546.774C947.689 547.294 947.949 547.931 947.949 548.685L947.949 549.699C947.949 550.453 947.689 551.09 947.169 551.61C946.675 552.13 945.804 552.39 944.556 552.39ZM969.696 552.39C968.448 552.39 967.564 552.13 967.044 551.61C966.55 551.09 966.303 550.453 966.303 549.699L966.303 548.685C966.303 547.931 966.55 547.294 967.044 546.774C967.564 546.254 968.448 545.994 969.696 545.994C970.944 545.994 971.815 546.254 972.309 546.774C972.829 547.294 973.089 547.931 973.089 548.685L973.089 549.699C973.089 550.453 972.829 551.09 972.309 551.61C971.815 552.13 970.944 552.39 969.696 552.39ZM994.835 552.39C993.587 552.39 992.703 552.13 992.183 551.61C991.689 551.09 991.442 550.453 991.442 549.699L991.442 548.685C991.442 547.931 991.689 547.294 992.183 546.774C992.703 546.254 993.587 545.994 994.835 545.994C996.083 545.994 996.954 546.254 997.448 546.774C997.968 547.294 998.228 547.931 998.228 548.685L998.228 549.699C998.228 550.453 997.968 551.09 997.448 551.61C996.954 552.13 996.083 552.39 994.835 552.39ZM1019.98 552.39C1018.73 552.39 1017.84 552.13 1017.32 551.61C1016.83 551.09 1016.58 550.453 1016.58 549.699L1016.58 548.685C1016.58 547.931 1016.83 547.294 1017.32 546.774C1017.84 546.254 1018.73 545.994 1019.98 545.994C1021.22 545.994 1022.09 546.254 1022.59 546.774C1023.11 547.294 1023.37 547.931 1023.37 548.685L1023.37 549.699C1023.37 550.453 1023.11 551.09 1022.59 551.61C1022.09 552.13 1021.22 552.39 1019.98 552.39ZM1045.11 552.39C1043.87 552.39 1042.98 552.13 1042.46 551.61C1041.97 551.09 1041.72 550.453 1041.72 549.699L1041.72 548.685C1041.72 547.931 1041.97 547.294 1042.46 546.774C1042.98 546.254 1043.87 545.994 1045.11 545.994C1046.36 545.994 1047.23 546.254 1047.73 546.774C1048.25 547.294 1048.51 547.931 1048.51 548.685L1048.51 549.699C1048.51 550.453 1048.25 551.09 1047.73 551.61C1047.23 552.13 1046.36 552.39 1045.11 552.39ZM1070.25 552.39C1069.01 552.39 1068.12 552.13 1067.6 551.61C1067.11 551.09 1066.86 550.453 1066.86 549.699L1066.86 548.685C1066.86 547.931 1067.11 547.294 1067.6 546.774C1068.12 546.254 1069.01 545.994 1070.25 545.994C1071.5 545.994 1072.37 546.254 1072.87 546.774C1073.39 547.294 1073.65 547.931 1073.65 548.685L1073.65 549.699C1073.65 550.453 1073.39 551.09 1072.87 551.61C1072.37 552.13 1071.5 552.39 1070.25 552.39ZM1122.95 552L1122.95 546.696L1110 546.696L1110 542.952L1121.39 524.778L1127.13 524.778L1127.13 543.264L1130.95 543.264L1130.95 546.696L1127.13 546.696L1127.13 552L1122.95 552ZM1113.71 543.264L1122.95 543.264L1122.95 528.795L1122.72 528.795L1113.71 543.264ZM1148.09 552L1148.09 546.696L1135.14 546.696L1135.14 542.952L1146.53 524.778L1152.26 524.778L1152.26 543.264L1156.09 543.264L1156.09 546.696L1152.26 546.696L1152.26 552L1148.09 552ZM1138.85 543.264L1148.09 543.264L1148.09 528.795L1147.86 528.795L1138.85 543.264ZM1180.45 534.918C1180.45 536.894 1180.15 538.753 1179.55 540.495C1178.95 542.237 1178.17 543.836 1177.21 545.292C1176.25 546.748 1175.18 548.048 1174.01 549.192C1172.84 550.336 1171.68 551.272 1170.54 552L1164.69 552C1166.25 550.882 1167.65 549.803 1168.9 548.763C1170.15 547.723 1171.23 546.657 1172.14 545.565C1173.08 544.473 1173.86 543.329 1174.48 542.133C1175.1 540.911 1175.58 539.559 1175.92 538.077L1175.65 537.999C1175.36 538.545 1175.03 539.065 1174.64 539.559C1174.25 540.027 1173.79 540.443 1173.27 540.807C1172.75 541.171 1172.15 541.457 1171.48 541.665C1170.8 541.873 1170.03 541.977 1169.18 541.977C1168.01 541.977 1166.93 541.782 1165.94 541.392C1164.95 541.002 1164.09 540.443 1163.36 539.715C1162.64 538.961 1162.06 538.064 1161.65 537.024C1161.26 535.984 1161.06 534.814 1161.06 533.514C1161.06 532.162 1161.28 530.927 1161.73 529.809C1162.19 528.665 1162.84 527.69 1163.68 526.884C1164.53 526.078 1165.56 525.454 1166.76 525.012C1167.95 524.544 1169.28 524.31 1170.74 524.31C1172.24 524.31 1173.6 524.557 1174.79 525.051C1176.01 525.545 1177.04 526.26 1177.87 527.196C1178.7 528.106 1179.34 529.211 1179.78 530.511C1180.23 531.811 1180.45 533.28 1180.45 534.918ZM1170.77 538.506C1172.41 538.506 1173.69 538.064 1174.6 537.18C1175.51 536.27 1175.96 534.996 1175.96 533.358L1175.96 532.968C1175.96 531.33 1175.51 530.069 1174.6 529.185C1173.69 528.275 1172.41 527.82 1170.77 527.82C1169.11 527.82 1167.82 528.275 1166.91 529.185C1166 530.069 1165.55 531.33 1165.55 532.968L1165.55 533.358C1165.55 534.996 1166 536.27 1166.91 537.18C1167.82 538.064 1169.11 538.506 1170.77 538.506ZM1193.03 547.125L1193.03 552L1188.66 552L1188.66 547.125L1185.81 547.125L1185.81 543.771L1188.66 543.771L1188.66 540.846L1185.81 540.846L1185.81 537.492L1188.66 537.492L1188.66 524.778L1198.06 524.778C1200.66 524.778 1202.64 525.506 1203.99 526.962C1205.37 528.392 1206.05 530.355 1206.05 532.851C1206.05 535.373 1205.37 537.336 1203.99 538.74C1202.64 540.144 1200.66 540.846 1198.06 540.846L1193.03 540.846L1193.03 543.771L1201.53 543.771L1201.53 547.125L1193.03 547.125ZM1193.03 537.492L1197.44 537.492C1200.17 537.492 1201.53 536.27 1201.53 533.826L1201.53 531.915C1201.53 529.471 1200.17 528.249 1197.44 528.249L1193.03 528.249L1193.03 537.492ZM241.422 619.468C237.964 619.468 235.39 618.246 233.7 615.802C232.036 613.358 231.204 609.887 231.204 605.389C231.204 600.891 232.036 597.42 233.7 594.976C235.39 592.532 237.964 591.31 241.422 591.31C242.748 591.31 243.892 591.492 244.854 591.856C245.842 592.194 246.687 592.675 247.389 593.299C248.091 593.897 248.676 594.612 249.144 595.444C249.638 596.25 250.041 597.121 250.353 598.057L246.414 599.383C246.206 598.759 245.972 598.174 245.712 597.628C245.452 597.082 245.127 596.614 244.737 596.224C244.347 595.834 243.879 595.522 243.333 595.288C242.813 595.054 242.163 594.937 241.383 594.937C239.459 594.937 238.055 595.678 237.171 597.16C236.287 598.616 235.845 600.592 235.845 603.088L235.845 607.69C235.845 610.186 236.287 612.175 237.171 613.657C238.055 615.113 239.459 615.841 241.383 615.841C242.163 615.841 242.813 615.724 243.333 615.49C243.879 615.256 244.347 614.944 244.737 614.554C245.127 614.164 245.452 613.696 245.712 613.15C245.972 612.604 246.206 612.019 246.414 611.395L250.353 612.721C250.041 613.657 249.638 614.541 249.144 615.373C248.676 616.179 248.091 616.894 247.389 617.518C246.687 618.116 245.842 618.597 244.854 618.961C243.892 619.299 242.748 619.468 241.422 619.468ZM273.27 619C272.048 619 271.125 618.688 270.501 618.064C269.903 617.44 269.539 616.621 269.409 615.607L269.214 615.607C268.824 616.829 268.109 617.778 267.069 618.454C266.055 619.13 264.755 619.468 263.169 619.468C261.115 619.468 259.477 618.935 258.255 617.869C257.033 616.777 256.422 615.282 256.422 613.384C256.422 611.434 257.137 609.952 258.567 608.938C260.023 607.898 262.246 607.378 265.236 607.378L269.097 607.378L269.097 605.818C269.097 603.088 267.654 601.723 264.768 601.723C263.468 601.723 262.415 601.983 261.609 602.503C260.803 602.997 260.127 603.66 259.581 604.492L257.046 602.425C257.618 601.333 258.58 600.397 259.932 599.617C261.284 598.811 263.026 598.408 265.158 598.408C267.706 598.408 269.708 599.019 271.164 600.241C272.62 601.463 273.348 603.231 273.348 605.545L273.348 615.646L275.883 615.646L275.883 619L273.27 619ZM264.378 616.348C265.756 616.348 266.887 616.036 267.771 615.412C268.655 614.788 269.097 613.982 269.097 612.994L269.097 610.069L265.314 610.069C262.246 610.069 260.712 610.992 260.712 612.838L260.712 613.618C260.712 614.528 261.037 615.217 261.687 615.685C262.337 616.127 263.234 616.348 264.378 616.348ZM280.158 615.568L282.771 615.568C283.109 615.126 283.408 614.619 283.668 614.047C283.954 613.449 284.175 612.734 284.331 611.902C284.513 611.07 284.643 610.108 284.721 609.016C284.825 607.924 284.877 606.65 284.877 605.194L284.877 598.876L299.112 598.876L299.112 619L294.861 619L294.861 602.308L288.855 602.308L288.855 605.272C288.855 608.678 288.608 611.343 288.114 613.267C287.62 615.191 286.944 616.595 286.086 617.479C285.488 618.103 284.799 618.519 284.019 618.727C283.239 618.909 282.42 619 281.562 619L280.158 619L280.158 615.568ZM323.55 619C322.328 619 321.405 618.688 320.781 618.064C320.183 617.44 319.819 616.621 319.689 615.607L319.494 615.607C319.104 616.829 318.389 617.778 317.349 618.454C316.335 619.13 315.035 619.468 313.449 619.468C311.395 619.468 309.757 618.935 308.535 617.869C307.313 616.777 306.702 615.282 306.702 613.384C306.702 611.434 307.417 609.952 308.847 608.938C310.303 607.898 312.526 607.378 315.516 607.378L319.377 607.378L319.377 605.818C319.377 603.088 317.934 601.723 315.048 601.723C313.748 601.723 312.695 601.983 311.889 602.503C311.083 602.997 310.407 603.66 309.861 604.492L307.326 602.425C307.898 601.333 308.86 600.397 310.212 599.617C311.564 598.811 313.306 598.408 315.438 598.408C317.986 598.408 319.988 599.019 321.444 600.241C322.9 601.463 323.628 603.231 323.628 605.545L323.628 615.646L326.163 615.646L326.163 619L323.55 619ZM314.658 616.348C316.036 616.348 317.167 616.036 318.051 615.412C318.935 614.788 319.377 613.982 319.377 612.994L319.377 610.069L315.594 610.069C312.526 610.069 310.992 610.992 310.992 612.838L310.992 613.618C310.992 614.528 311.317 615.217 311.967 615.685C312.617 616.127 313.514 616.348 314.658 616.348ZM339.056 602.308L331.997 602.308L331.997 598.876L350.405 598.876L350.405 602.308L343.307 602.308L343.307 619L339.056 619L339.056 602.308ZM390.389 617.167L382.433 610.459L382.433 606.481L390.389 599.773L391.676 602.62L386.216 608.47L391.676 614.32L390.389 617.167ZM399.593 617.167L391.637 610.459L391.637 606.481L399.593 599.773L400.88 602.62L395.42 608.47L400.88 614.32L399.593 617.167ZM407.807 591.778L425.435 591.778L425.435 619L421.067 619L421.067 595.444L412.175 595.444L412.175 619L407.807 619L407.807 591.778ZM433.142 598.876L437.393 598.876L437.393 602.308L437.627 602.308C438.225 601.086 439.018 600.137 440.006 599.461C440.994 598.759 442.229 598.408 443.711 598.408C446.077 598.408 447.962 599.292 449.366 601.06C450.77 602.828 451.472 605.454 451.472 608.938C451.472 612.422 450.77 615.048 449.366 616.816C447.962 618.584 446.077 619.468 443.711 619.468C442.229 619.468 440.994 619.13 440.006 618.454C439.018 617.752 438.225 616.79 437.627 615.568L437.393 615.568L437.393 626.8L433.142 626.8L433.142 598.876ZM441.956 615.997C443.568 615.997 444.803 615.503 445.661 614.515C446.545 613.527 446.987 612.214 446.987 610.576L446.987 607.3C446.987 605.662 446.545 604.349 445.661 603.361C444.803 602.373 443.568 601.879 441.956 601.879C441.332 601.879 440.747 601.957 440.201 602.113C439.655 602.269 439.174 602.503 438.758 602.815C438.342 603.127 438.004 603.517 437.744 603.985C437.51 604.427 437.393 604.96 437.393 605.584L437.393 612.292C437.393 612.916 437.51 613.462 437.744 613.93C438.004 614.372 438.342 614.749 438.758 615.061C439.174 615.373 439.655 615.607 440.201 615.763C440.747 615.919 441.332 615.997 441.956 615.997ZM466.9 619.468C465.418 619.468 464.079 619.221 462.883 618.727C461.713 618.233 460.712 617.531 459.88 616.621C459.074 615.711 458.45 614.606 458.008 613.306C457.566 612.006 457.345 610.55 457.345 608.938C457.345 607.326 457.566 605.87 458.008 604.57C458.45 603.27 459.074 602.165 459.88 601.255C460.712 600.345 461.713 599.643 462.883 599.149C464.079 598.655 465.418 598.408 466.9 598.408C468.382 598.408 469.708 598.655 470.878 599.149C472.074 599.643 473.075 600.345 473.881 601.255C474.713 602.165 475.35 603.27 475.792 604.57C476.234 605.87 476.455 607.326 476.455 608.938C476.455 610.55 476.234 612.006 475.792 613.306C475.35 614.606 474.713 615.711 473.881 616.621C473.075 617.531 472.074 618.233 470.878 618.727C469.708 619.221 468.382 619.468 466.9 619.468ZM466.9 616.114C468.46 616.114 469.695 615.646 470.605 614.71C471.541 613.748 472.009 612.331 472.009 610.459L472.009 607.417C472.009 605.545 471.541 604.141 470.605 603.205C469.695 602.243 468.46 601.762 466.9 601.762C465.34 601.762 464.092 602.243 463.156 603.205C462.246 604.141 461.791 605.545 461.791 607.417L461.791 610.459C461.791 612.331 462.246 613.748 463.156 614.71C464.092 615.646 465.34 616.114 466.9 616.114ZM492.781 619.468C491.273 619.468 489.921 619.221 488.725 618.727C487.555 618.233 486.554 617.531 485.722 616.621C484.916 615.711 484.292 614.606 483.85 613.306C483.434 612.006 483.226 610.55 483.226 608.938C483.226 607.326 483.434 605.87 483.85 604.57C484.292 603.27 484.916 602.165 485.722 601.255C486.554 600.345 487.555 599.643 488.725 599.149C489.921 598.655 491.26 598.408 492.742 598.408C494.822 598.408 496.486 598.85 497.734 599.734C499.008 600.618 499.957 601.762 500.581 603.166L497.266 604.96C496.902 604.024 496.343 603.283 495.589 602.737C494.861 602.191 493.912 601.918 492.742 601.918C491.13 601.918 489.882 602.412 488.998 603.4C488.114 604.362 487.672 605.649 487.672 607.261L487.672 610.615C487.672 612.201 488.114 613.488 488.998 614.476C489.882 615.464 491.156 615.958 492.82 615.958C494.068 615.958 495.082 615.672 495.862 615.1C496.668 614.528 497.305 613.748 497.773 612.76L500.893 614.671C500.243 616.075 499.255 617.232 497.929 618.142C496.603 619.026 494.887 619.468 492.781 619.468ZM515.035 602.308L507.976 602.308L507.976 598.876L526.384 598.876L526.384 602.308L519.286 602.308L519.286 619L515.035 619L515.035 602.308ZM542.32 619.468C540.838 619.468 539.499 619.221 538.303 618.727C537.133 618.233 536.132 617.531 535.3 616.621C534.494 615.711 533.87 614.606 533.428 613.306C532.986 612.006 532.765 610.55 532.765 608.938C532.765 607.326 532.986 605.87 533.428 604.57C533.87 603.27 534.494 602.165 535.3 601.255C536.132 600.345 537.133 599.643 538.303 599.149C539.499 598.655 540.838 598.408 542.32 598.408C543.802 598.408 545.128 598.655 546.298 599.149C547.494 599.643 548.495 600.345 549.301 601.255C550.133 602.165 550.77 603.27 551.212 604.57C551.654 605.87 551.875 607.326 551.875 608.938C551.875 610.55 551.654 612.006 551.212 613.306C550.77 614.606 550.133 615.711 549.301 616.621C548.495 617.531 547.494 618.233 546.298 618.727C545.128 619.221 543.802 619.468 542.32 619.468ZM542.32 616.114C543.88 616.114 545.115 615.646 546.025 614.71C546.961 613.748 547.429 612.331 547.429 610.459L547.429 607.417C547.429 605.545 546.961 604.141 546.025 603.205C545.115 602.243 543.88 601.762 542.32 601.762C540.76 601.762 539.512 602.243 538.576 603.205C537.666 604.141 537.211 605.545 537.211 607.417L537.211 610.459C537.211 612.331 537.666 613.748 538.576 614.71C539.512 615.646 540.76 616.114 542.32 616.114ZM584.487 598.876L588.738 598.876L588.738 606.988L592.365 606.988L597.201 598.876L601.764 598.876L597.279 606.208C596.837 606.962 596.408 607.495 595.992 607.807C595.576 608.119 595.095 608.34 594.549 608.47L594.549 608.665C595.173 608.795 595.693 609.029 596.109 609.367C596.525 609.679 596.954 610.225 597.396 611.005L599.931 615.568L602.115 615.568L602.115 619L599.619 619C598.761 619 598.02 618.805 597.396 618.415C596.798 617.999 596.239 617.336 595.719 616.426L592.365 610.42L588.738 610.42L588.738 619L584.487 619L584.487 598.876ZM617.739 619.468C616.257 619.468 614.918 619.221 613.722 618.727C612.552 618.233 611.551 617.531 610.719 616.621C609.913 615.711 609.289 614.606 608.847 613.306C608.405 612.006 608.184 610.55 608.184 608.938C608.184 607.326 608.405 605.87 608.847 604.57C609.289 603.27 609.913 602.165 610.719 601.255C611.551 600.345 612.552 599.643 613.722 599.149C614.918 598.655 616.257 598.408 617.739 598.408C619.221 598.408 620.547 598.655 621.717 599.149C622.913 599.643 623.914 600.345 624.72 601.255C625.552 602.165 626.189 603.27 626.631 604.57C627.073 605.87 627.294 607.326 627.294 608.938C627.294 610.55 627.073 612.006 626.631 613.306C626.189 614.606 625.552 615.711 624.72 616.621C623.914 617.531 622.913 618.233 621.717 618.727C620.547 619.221 619.221 619.468 617.739 619.468ZM617.739 616.114C619.299 616.114 620.534 615.646 621.444 614.71C622.38 613.748 622.848 612.331 622.848 610.459L622.848 607.417C622.848 605.545 622.38 604.141 621.444 603.205C620.534 602.243 619.299 601.762 617.739 601.762C616.179 601.762 614.931 602.243 613.995 603.205C613.085 604.141 612.63 605.545 612.63 607.417L612.63 610.459C612.63 612.331 613.085 613.748 613.995 614.71C614.931 615.646 616.179 616.114 617.739 616.114ZM643.62 619.468C642.112 619.468 640.76 619.221 639.564 618.727C638.394 618.233 637.393 617.531 636.561 616.621C635.755 615.711 635.131 614.606 634.689 613.306C634.273 612.006 634.065 610.55 634.065 608.938C634.065 607.326 634.273 605.87 634.689 604.57C635.131 603.27 635.755 602.165 636.561 601.255C637.393 600.345 638.394 599.643 639.564 599.149C640.76 598.655 642.099 598.408 643.581 598.408C645.661 598.408 647.325 598.85 648.573 599.734C649.847 600.618 650.796 601.762 651.42 603.166L648.105 604.96C647.741 604.024 647.182 603.283 646.428 602.737C645.7 602.191 644.751 601.918 643.581 601.918C641.969 601.918 640.721 602.412 639.837 603.4C638.953 604.362 638.511 605.649 638.511 607.261L638.511 610.615C638.511 612.201 638.953 613.488 639.837 614.476C640.721 615.464 641.995 615.958 643.659 615.958C644.907 615.958 645.921 615.672 646.701 615.1C647.507 614.528 648.144 613.748 648.612 612.76L651.732 614.671C651.082 616.075 650.094 617.232 648.768 618.142C647.442 619.026 645.726 619.468 643.62 619.468ZM658.775 598.876L663.728 598.876L668.096 608.353L668.369 608.353L672.737 598.876L677.261 598.876L677.261 619L673.556 619L673.556 607.651L673.712 604.102L673.439 604.102L668.018 615.841L662.597 604.102L662.324 604.102L662.48 607.651L662.48 619L658.775 619L658.775 598.876ZM684.695 598.876L688.907 598.876L688.907 607.534L688.517 612.994L688.712 612.994L697.604 598.876L701.621 598.876L701.621 619L697.409 619L697.409 610.342L697.799 604.882L697.604 604.882L688.712 619L684.695 619L684.695 598.876ZM722.003 610.108L721.808 610.108C721.132 610.94 720.326 611.577 719.39 612.019C718.48 612.435 717.323 612.643 715.919 612.643C711.525 612.643 709.328 610.42 709.328 605.974L709.328 598.876L713.579 598.876L713.579 605.701C713.579 606.871 713.878 607.729 714.476 608.275C715.1 608.795 716.14 609.055 717.596 609.055C718.922 609.055 719.988 608.86 720.794 608.47C721.6 608.054 722.003 607.456 722.003 606.676L722.003 598.876L726.254 598.876L726.254 619L722.003 619L722.003 610.108ZM743.867 619.468C742.333 619.468 740.955 619.221 739.733 618.727C738.511 618.233 737.484 617.531 736.652 616.621C735.82 615.711 735.183 614.619 734.741 613.345C734.299 612.045 734.078 610.589 734.078 608.977C734.078 607.365 734.299 605.909 734.741 604.609C735.209 603.309 735.846 602.204 736.652 601.294C737.484 600.358 738.485 599.643 739.655 599.149C740.825 598.655 742.125 598.408 743.555 598.408C744.959 598.408 746.233 598.655 747.377 599.149C748.521 599.617 749.496 600.293 750.302 601.177C751.108 602.061 751.719 603.114 752.135 604.336C752.577 605.558 752.798 606.91 752.798 608.392L752.798 609.991L738.368 609.991L738.368 610.654C738.368 612.24 738.862 613.54 739.85 614.554C740.838 615.542 742.203 616.036 743.945 616.036C745.245 616.036 746.35 615.763 747.26 615.217C748.196 614.645 748.95 613.891 749.522 612.955L752.174 615.295C751.498 616.465 750.458 617.453 749.054 618.259C747.676 619.065 745.947 619.468 743.867 619.468ZM743.555 601.645C742.801 601.645 742.099 601.775 741.449 602.035C740.825 602.295 740.279 602.672 739.811 603.166C739.369 603.634 739.018 604.193 738.758 604.843C738.498 605.493 738.368 606.208 738.368 606.988L738.368 607.261L748.469 607.261L748.469 606.871C748.469 605.285 748.014 604.024 747.104 603.088C746.22 602.126 745.037 601.645 743.555 601.645ZM769.318 619.468C767.81 619.468 766.458 619.221 765.262 618.727C764.092 618.233 763.091 617.531 762.259 616.621C761.453 615.711 760.829 614.606 760.387 613.306C759.971 612.006 759.763 610.55 759.763 608.938C759.763 607.326 759.971 605.87 760.387 604.57C760.829 603.27 761.453 602.165 762.259 601.255C763.091 600.345 764.092 599.643 765.262 599.149C766.458 598.655 767.797 598.408 769.279 598.408C771.359 598.408 773.023 598.85 774.271 599.734C775.545 600.618 776.494 601.762 777.118 603.166L773.803 604.96C773.439 604.024 772.88 603.283 772.126 602.737C771.398 602.191 770.449 601.918 769.279 601.918C767.667 601.918 766.419 602.412 765.535 603.4C764.651 604.362 764.209 605.649 764.209 607.261L764.209 610.615C764.209 612.201 764.651 613.488 765.535 614.476C766.419 615.464 767.693 615.958 769.357 615.958C770.605 615.958 771.619 615.672 772.399 615.1C773.205 614.528 773.842 613.748 774.31 612.76L777.43 614.671C776.78 616.075 775.792 617.232 774.466 618.142C773.14 619.026 771.424 619.468 769.318 619.468ZM785.605 598.876L789.856 598.876L789.856 606.988L793.483 606.988L798.319 598.876L802.882 598.876L798.397 606.208C797.955 606.962 797.526 607.495 797.11 607.807C796.694 608.119 796.213 608.34 795.667 608.47L795.667 608.665C796.291 608.795 796.811 609.029 797.227 609.367C797.643 609.679 798.072 610.225 798.514 611.005L801.049 615.568L803.233 615.568L803.233 619L800.737 619C799.879 619 799.138 618.805 798.514 618.415C797.916 617.999 797.357 617.336 796.837 616.426L793.483 610.42L789.856 610.42L789.856 619L785.605 619L785.605 598.876ZM810.394 598.876L814.606 598.876L814.606 607.534L814.216 612.994L814.411 612.994L823.303 598.876L827.32 598.876L827.32 619L823.108 619L823.108 610.342L823.498 604.882L823.303 604.882L814.411 619L810.394 619L810.394 598.876ZM835.534 598.876L839.746 598.876L839.746 607.534L839.356 612.994L839.551 612.994L848.443 598.876L852.46 598.876L852.46 619L848.248 619L848.248 610.342L848.638 604.882L848.443 604.882L839.551 619L835.534 619L835.534 598.876ZM843.997 596.224C842.489 596.224 841.267 595.899 840.331 595.249C839.395 594.573 838.628 593.572 838.03 592.246L837.055 590.062L840.604 588.814L842.008 592.948C842.242 593.052 842.554 593.13 842.944 593.182C843.334 593.208 843.685 593.221 843.997 593.221C844.309 593.221 844.66 593.208 845.05 593.182C845.44 593.13 845.752 593.052 845.986 592.948L847.39 588.814L850.939 590.062L849.964 592.246C849.366 593.572 848.599 594.573 847.663 595.249C846.727 595.899 845.505 596.224 843.997 596.224ZM859.777 614.32L865.237 608.47L859.777 602.62L861.064 599.773L869.02 606.481L869.02 610.459L861.064 617.167L859.777 614.32ZM868.981 614.32L874.441 608.47L868.981 602.62L870.268 599.773L878.224 606.481L878.224 610.459L870.268 617.167L868.981 614.32ZM919.416 619.39C918.168 619.39 917.284 619.13 916.764 618.61C916.27 618.09 916.023 617.453 916.023 616.699L916.023 615.685C916.023 614.931 916.27 614.294 916.764 613.774C917.284 613.254 918.168 612.994 919.416 612.994C920.664 612.994 921.535 613.254 922.029 613.774C922.549 614.294 922.809 614.931 922.809 615.685L922.809 616.699C922.809 617.453 922.549 618.09 922.029 618.61C921.535 619.13 920.664 619.39 919.416 619.39ZM944.556 619.39C943.308 619.39 942.424 619.13 941.904 618.61C941.41 618.09 941.163 617.453 941.163 616.699L941.163 615.685C941.163 614.931 941.41 614.294 941.904 613.774C942.424 613.254 943.308 612.994 944.556 612.994C945.804 612.994 946.675 613.254 947.169 613.774C947.689 614.294 947.949 614.931 947.949 615.685L947.949 616.699C947.949 617.453 947.689 618.09 947.169 618.61C946.675 619.13 945.804 619.39 944.556 619.39ZM969.696 619.39C968.448 619.39 967.564 619.13 967.044 618.61C966.55 618.09 966.303 617.453 966.303 616.699L966.303 615.685C966.303 614.931 966.55 614.294 967.044 613.774C967.564 613.254 968.448 612.994 969.696 612.994C970.944 612.994 971.815 613.254 972.309 613.774C972.829 614.294 973.089 614.931 973.089 615.685L973.089 616.699C973.089 617.453 972.829 618.09 972.309 618.61C971.815 619.13 970.944 619.39 969.696 619.39ZM994.835 619.39C993.587 619.39 992.703 619.13 992.183 618.61C991.689 618.09 991.442 617.453 991.442 616.699L991.442 615.685C991.442 614.931 991.689 614.294 992.183 613.774C992.703 613.254 993.587 612.994 994.835 612.994C996.083 612.994 996.954 613.254 997.448 613.774C997.968 614.294 998.228 614.931 998.228 615.685L998.228 616.699C998.228 617.453 997.968 618.09 997.448 618.61C996.954 619.13 996.083 619.39 994.835 619.39ZM1019.98 619.39C1018.73 619.39 1017.84 619.13 1017.32 618.61C1016.83 618.09 1016.58 617.453 1016.58 616.699L1016.58 615.685C1016.58 614.931 1016.83 614.294 1017.32 613.774C1017.84 613.254 1018.73 612.994 1019.98 612.994C1021.22 612.994 1022.09 613.254 1022.59 613.774C1023.11 614.294 1023.37 614.931 1023.37 615.685L1023.37 616.699C1023.37 617.453 1023.11 618.09 1022.59 618.61C1022.09 619.13 1021.22 619.39 1019.98 619.39ZM1045.11 619.39C1043.87 619.39 1042.98 619.13 1042.46 618.61C1041.97 618.09 1041.72 617.453 1041.72 616.699L1041.72 615.685C1041.72 614.931 1041.97 614.294 1042.46 613.774C1042.98 613.254 1043.87 612.994 1045.11 612.994C1046.36 612.994 1047.23 613.254 1047.73 613.774C1048.25 614.294 1048.51 614.931 1048.51 615.685L1048.51 616.699C1048.51 617.453 1048.25 618.09 1047.73 618.61C1047.23 619.13 1046.36 619.39 1045.11 619.39ZM1070.25 619.39C1069.01 619.39 1068.12 619.13 1067.6 618.61C1067.11 618.09 1066.86 617.453 1066.86 616.699L1066.86 615.685C1066.86 614.931 1067.11 614.294 1067.6 613.774C1068.12 613.254 1069.01 612.994 1070.25 612.994C1071.5 612.994 1072.37 613.254 1072.87 613.774C1073.39 614.294 1073.65 614.931 1073.65 615.685L1073.65 616.699C1073.65 617.453 1073.39 618.09 1072.87 618.61C1072.37 619.13 1071.5 619.39 1070.25 619.39ZM1095.39 619.39C1094.15 619.39 1093.26 619.13 1092.74 618.61C1092.25 618.09 1092 617.453 1092 616.699L1092 615.685C1092 614.931 1092.25 614.294 1092.74 613.774C1093.26 613.254 1094.15 612.994 1095.39 612.994C1096.64 612.994 1097.51 613.254 1098.01 613.774C1098.53 614.294 1098.79 614.931 1098.79 615.685L1098.79 616.699C1098.79 617.453 1098.53 618.09 1098.01 618.61C1097.51 619.13 1096.64 619.39 1095.39 619.39ZM1120.53 619.39C1119.29 619.39 1118.4 619.13 1117.88 618.61C1117.39 618.09 1117.14 617.453 1117.14 616.699L1117.14 615.685C1117.14 614.931 1117.39 614.294 1117.88 613.774C1118.4 613.254 1119.29 612.994 1120.53 612.994C1121.78 612.994 1122.65 613.254 1123.15 613.774C1123.67 614.294 1123.93 614.931 1123.93 615.685L1123.93 616.699C1123.93 617.453 1123.67 618.09 1123.15 618.61C1122.65 619.13 1121.78 619.39 1120.53 619.39ZM1145.67 619.39C1144.43 619.39 1143.54 619.13 1143.02 618.61C1142.53 618.09 1142.28 617.453 1142.28 616.699L1142.28 615.685C1142.28 614.931 1142.53 614.294 1143.02 613.774C1143.54 613.254 1144.43 612.994 1145.67 612.994C1146.92 612.994 1147.79 613.254 1148.29 613.774C1148.81 614.294 1149.07 614.931 1149.07 615.685L1149.07 616.699C1149.07 617.453 1148.81 618.09 1148.29 618.61C1147.79 619.13 1146.92 619.39 1145.67 619.39ZM1204.18 595.561L1191.82 595.561L1191.12 605.233L1191.43 605.233C1192.05 604.167 1192.81 603.322 1193.69 602.698C1194.58 602.048 1195.78 601.723 1197.32 601.723C1198.49 601.723 1199.57 601.918 1200.56 602.308C1201.57 602.698 1202.44 603.257 1203.17 603.985C1203.92 604.713 1204.51 605.61 1204.92 606.676C1205.37 607.716 1205.59 608.899 1205.59 610.225C1205.59 611.577 1205.37 612.825 1204.92 613.969C1204.48 615.087 1203.84 616.062 1203.01 616.894C1202.18 617.7 1201.15 618.337 1199.93 618.805C1198.71 619.247 1197.32 619.468 1195.76 619.468C1194.54 619.468 1193.44 619.325 1192.48 619.039C1191.55 618.779 1190.7 618.428 1189.95 617.986C1189.22 617.518 1188.58 616.998 1188.04 616.426C1187.49 615.828 1187.01 615.217 1186.59 614.593L1189.79 612.097C1190.13 612.617 1190.48 613.111 1190.84 613.579C1191.23 614.021 1191.66 614.411 1192.13 614.749C1192.6 615.087 1193.13 615.347 1193.73 615.529C1194.35 615.711 1195.06 615.802 1195.84 615.802C1197.53 615.802 1198.81 615.347 1199.7 614.437C1200.58 613.501 1201.02 612.24 1201.02 610.654L1201.02 610.342C1201.02 608.756 1200.57 607.521 1199.66 606.637C1198.77 605.753 1197.5 605.311 1195.84 605.311C1194.61 605.311 1193.65 605.532 1192.95 605.974C1192.25 606.416 1191.64 606.91 1191.12 607.456L1187.49 606.949L1188.5 591.778L1204.18 591.778L1204.18 595.561ZM1230.73 601.918C1230.73 603.894 1230.43 605.753 1229.83 607.495C1229.23 609.237 1228.45 610.836 1227.49 612.292C1226.53 613.748 1225.46 615.048 1224.29 616.192C1223.12 617.336 1221.96 618.272 1220.82 619L1214.97 619C1216.53 617.882 1217.93 616.803 1219.18 615.763C1220.43 614.723 1221.51 613.657 1222.42 612.565C1223.36 611.473 1224.14 610.329 1224.76 609.133C1225.38 607.911 1225.86 606.559 1226.2 605.077L1225.93 604.999C1225.64 605.545 1225.31 606.065 1224.92 606.559C1224.53 607.027 1224.07 607.443 1223.55 607.807C1223.03 608.171 1222.43 608.457 1221.76 608.665C1221.08 608.873 1220.31 608.977 1219.46 608.977C1218.29 608.977 1217.21 608.782 1216.22 608.392C1215.23 608.002 1214.37 607.443 1213.64 606.715C1212.92 605.961 1212.34 605.064 1211.93 604.024C1211.54 602.984 1211.34 601.814 1211.34 600.514C1211.34 599.162 1211.56 597.927 1212.01 596.809C1212.47 595.665 1213.12 594.69 1213.96 593.884C1214.81 593.078 1215.84 592.454 1217.04 592.012C1218.23 591.544 1219.56 591.31 1221.02 591.31C1222.52 591.31 1223.88 591.557 1225.07 592.051C1226.29 592.545 1227.32 593.26 1228.15 594.196C1228.98 595.106 1229.62 596.211 1230.06 597.511C1230.51 598.811 1230.73 600.28 1230.73 601.918ZM1221.05 605.506C1222.69 605.506 1223.97 605.064 1224.88 604.18C1225.79 603.27 1226.24 601.996 1226.24 600.358L1226.24 599.968C1226.24 598.33 1225.79 597.069 1224.88 596.185C1223.97 595.275 1222.69 594.82 1221.05 594.82C1219.39 594.82 1218.1 595.275 1217.19 596.185C1216.28 597.069 1215.83 598.33 1215.83 599.968L1215.83 600.358C1215.83 601.996 1216.28 603.27 1217.19 604.18C1218.1 605.064 1219.39 605.506 1221.05 605.506ZM1255.87 601.918C1255.87 603.894 1255.57 605.753 1254.97 607.495C1254.37 609.237 1253.59 610.836 1252.63 612.292C1251.67 613.748 1250.6 615.048 1249.43 616.192C1248.26 617.336 1247.1 618.272 1245.96 619L1240.11 619C1241.67 617.882 1243.07 616.803 1244.32 615.763C1245.57 614.723 1246.65 613.657 1247.56 612.565C1248.5 611.473 1249.28 610.329 1249.9 609.133C1250.52 607.911 1251 606.559 1251.34 605.077L1251.07 604.999C1250.78 605.545 1250.45 606.065 1250.06 606.559C1249.67 607.027 1249.21 607.443 1248.69 607.807C1248.17 608.171 1247.57 608.457 1246.9 608.665C1246.22 608.873 1245.45 608.977 1244.6 608.977C1243.43 608.977 1242.35 608.782 1241.36 608.392C1240.37 608.002 1239.51 607.443 1238.78 606.715C1238.06 605.961 1237.48 605.064 1237.07 604.024C1236.68 602.984 1236.48 601.814 1236.48 600.514C1236.48 599.162 1236.7 597.927 1237.15 596.809C1237.61 595.665 1238.26 594.69 1239.1 593.884C1239.95 593.078 1240.98 592.454 1242.18 592.012C1243.37 591.544 1244.7 591.31 1246.16 591.31C1247.66 591.31 1249.02 591.557 1250.21 592.051C1251.43 592.545 1252.46 593.26 1253.29 594.196C1254.12 595.106 1254.76 596.211 1255.2 597.511C1255.65 598.811 1255.87 600.28 1255.87 601.918ZM1246.19 605.506C1247.83 605.506 1249.11 605.064 1250.02 604.18C1250.93 603.27 1251.38 601.996 1251.38 600.358L1251.38 599.968C1251.38 598.33 1250.93 597.069 1250.02 596.185C1249.11 595.275 1247.83 594.82 1246.19 594.82C1244.53 594.82 1243.24 595.275 1242.33 596.185C1241.42 597.069 1240.97 598.33 1240.97 599.968L1240.97 600.358C1240.97 601.996 1241.42 603.27 1242.33 604.18C1243.24 605.064 1244.53 605.506 1246.19 605.506ZM1268.45 614.125L1268.45 619L1264.08 619L1264.08 614.125L1261.23 614.125L1261.23 610.771L1264.08 610.771L1264.08 607.846L1261.23 607.846L1261.23 604.492L1264.08 604.492L1264.08 591.778L1273.48 591.778C1276.08 591.778 1278.05 592.506 1279.41 593.962C1280.78 595.392 1281.47 597.355 1281.47 599.851C1281.47 602.373 1280.78 604.336 1279.41 605.74C1278.05 607.144 1276.08 607.846 1273.48 607.846L1268.45 607.846L1268.45 610.771L1276.95 610.771L1276.95 614.125L1268.45 614.125ZM1268.45 604.492L1272.85 604.492C1275.58 604.492 1276.95 603.27 1276.95 600.826L1276.95 598.915C1276.95 596.471 1275.58 595.249 1272.85 595.249L1268.45 595.249L1268.45 604.492Z" fill="white"/>
<path d="M543.072 49.978H566.912C569.578 49.978 571.752 50.2241 573.434 50.7163C575.136 51.2085 576.469 51.875 577.433 52.7158C578.397 53.5361 579.063 54.5 579.432 55.6074C579.801 56.7148 579.986 57.8838 579.986 59.1143V59.7603C579.986 60.6216 579.853 61.4316 579.586 62.1904C579.319 62.9492 578.899 63.6465 578.325 64.2822C577.771 64.918 577.033 65.4922 576.11 66.0049C575.208 66.5176 574.11 66.9482 572.818 67.2969C575.71 67.9941 577.833 69.0811 579.186 70.5576C580.54 72.0342 581.216 73.8901 581.216 76.1255V76.7407C581.216 77.7046 581.052 78.73 580.724 79.8169C580.396 80.8833 579.74 81.8779 578.755 82.8008C577.792 83.7236 576.418 84.4927 574.633 85.1079C572.849 85.7026 570.501 86 567.589 86H543.072V49.978ZM576.541 76.4639C576.541 75.1309 576.335 73.9927 575.925 73.0493C575.536 72.106 574.89 71.3369 573.987 70.7422C573.106 70.127 571.957 69.6758 570.542 69.3887C569.148 69.1016 567.435 68.958 565.405 68.958H547.686V82.8008H567.251C568.871 82.8008 570.265 82.6572 571.434 82.3701C572.603 82.0625 573.567 81.6421 574.326 81.1089C575.085 80.5552 575.638 79.8887 575.987 79.1094C576.356 78.3301 576.541 77.4482 576.541 76.4639ZM575.279 59.2065C575.279 57.894 575.023 56.8379 574.51 56.0381C573.998 55.2383 573.3 54.623 572.419 54.1924C571.537 53.7617 570.522 53.4746 569.373 53.3311C568.225 53.1875 567.004 53.1157 565.712 53.1157H547.686V65.8203H566.174C566.564 65.8203 567.056 65.7998 567.65 65.7588C568.266 65.6973 568.912 65.5947 569.588 65.4512C570.265 65.2871 570.942 65.0615 571.619 64.7744C572.295 64.4873 572.9 64.1182 573.434 63.667C573.987 63.2158 574.428 62.6724 574.756 62.0366C575.105 61.3804 575.279 60.6113 575.279 59.7295V59.2065ZM594.32 69.2656C594.32 71.0293 594.627 72.7622 595.242 74.4644C595.858 76.1665 596.822 77.6841 598.134 79.0171C599.467 80.3501 601.179 81.4268 603.271 82.2471C605.384 83.0469 607.937 83.4468 610.931 83.4468C613.228 83.4468 615.248 83.1904 616.991 82.6777C618.734 82.165 620.2 81.4985 621.39 80.6782C622.6 79.8374 623.543 78.894 624.22 77.8481C624.917 76.8022 625.379 75.7563 625.604 74.7104L630.095 74.7412C629.747 76.1973 629.142 77.6533 628.281 79.1094C627.44 80.5449 626.261 81.8369 624.743 82.9854C623.246 84.1338 621.369 85.0669 619.114 85.7847C616.858 86.5024 614.14 86.8613 610.962 86.8613C607.25 86.8613 604.051 86.3999 601.364 85.4771C598.678 84.5337 596.463 83.2212 594.72 81.5396C592.976 79.8374 591.684 77.8071 590.844 75.4487C590.003 73.0903 589.582 70.4858 589.582 67.6353V67.1123C589.582 64.5283 590.033 62.1392 590.936 59.9448C591.838 57.7505 593.171 55.8535 594.935 54.2539C596.719 52.6338 598.934 51.3726 601.579 50.4702C604.225 49.5679 607.301 49.1167 610.808 49.1167C614.253 49.1167 617.227 49.5884 619.729 50.5317C622.251 51.4546 624.323 52.7466 625.943 54.4077C627.583 56.0483 628.793 57.9966 629.573 60.2524C630.352 62.4878 630.741 64.9077 630.741 67.5122C630.762 67.8198 630.762 68.1172 630.741 68.4043C630.721 68.6914 630.711 68.9785 630.711 69.2656H594.32ZM594.289 66.1279H626.22V65.8818C626.137 63.8311 625.779 61.9751 625.143 60.314C624.507 58.6528 623.553 57.2378 622.282 56.0688C621.031 54.8794 619.442 53.9668 617.514 53.3311C615.607 52.6953 613.33 52.3774 610.685 52.3774C608.655 52.3774 606.84 52.5723 605.24 52.9619C603.64 53.3516 602.236 53.8745 601.026 54.5308C599.836 55.187 598.821 55.9561 597.98 56.8379C597.139 57.6992 596.452 58.6221 595.919 59.6064C595.386 60.5703 594.986 61.5547 594.72 62.5596C594.473 63.5645 594.33 64.5283 594.289 65.4512V66.1279ZM641.445 86V49.978H671.007V53.5464H646.09V85.877L641.445 86ZM711.335 86V77.6021C710.904 78.8735 710.145 80.0732 709.058 81.2012C707.971 82.3086 706.669 83.2827 705.152 84.1235C703.655 84.9644 701.993 85.6309 700.168 86.123C698.364 86.6152 696.528 86.8613 694.662 86.8613C692.016 86.8613 689.74 86.646 687.833 86.2153C685.946 85.8052 684.346 85.272 683.034 84.6157C681.721 83.939 680.665 83.1699 679.865 82.3086C679.066 81.4473 678.45 80.5757 678.02 79.6938C677.589 78.7915 677.302 77.9302 677.158 77.1099C677.015 76.269 676.943 75.5308 676.943 74.895C676.943 74.2593 677.005 73.5518 677.128 72.7725C677.271 71.9727 677.548 71.1626 677.958 70.3423C678.368 69.5015 678.953 68.6914 679.712 67.9121C680.47 67.1123 681.465 66.4048 682.696 65.7896C683.947 65.1743 685.474 64.6821 687.279 64.313C689.084 63.9233 691.237 63.7285 693.739 63.7285C695.605 63.7285 697.441 63.8721 699.245 64.1592C701.071 64.4258 702.762 64.7539 704.321 65.1436C705.88 65.5127 707.264 65.9126 708.474 66.3433C709.704 66.7534 710.658 67.0918 711.335 67.3584V64.8975C711.335 63.1748 711.13 61.5649 710.719 60.0679C710.309 58.5708 709.571 57.2686 708.505 56.1611C707.438 55.0332 705.982 54.1514 704.136 53.5156C702.311 52.8799 699.973 52.562 697.123 52.562C694.354 52.562 692.057 52.8184 690.232 53.3311C688.428 53.8438 686.971 54.5103 685.864 55.3306C684.777 56.1509 683.967 57.084 683.434 58.1299C682.921 59.1553 682.562 60.1807 682.357 61.2061H677.804C677.948 60.4678 678.153 59.6577 678.42 58.7759C678.707 57.8735 679.117 56.9814 679.65 56.0996C680.204 55.1973 680.922 54.3257 681.803 53.4849C682.706 52.644 683.854 51.9058 685.249 51.27C686.643 50.6138 688.315 50.0908 690.263 49.7012C692.232 49.3115 694.559 49.1167 697.246 49.1167C699.932 49.1167 702.26 49.3628 704.229 49.855C706.198 50.3267 707.879 50.9624 709.274 51.7622C710.668 52.562 711.796 53.4951 712.657 54.5615C713.539 55.6074 714.226 56.7148 714.719 57.8838C715.211 59.0527 715.549 60.2422 715.734 61.4521C715.918 62.6416 716.011 63.7695 716.011 64.8359V86H711.335ZM695.554 83.416C697.564 83.416 699.338 83.2109 700.876 82.8008C702.434 82.3701 703.788 81.8267 704.936 81.1704C706.105 80.4937 707.079 79.7451 707.859 78.9248C708.658 78.1045 709.304 77.2944 709.797 76.4946C710.309 75.6743 710.678 74.9155 710.904 74.2183C711.15 73.5005 711.294 72.916 711.335 72.4648V70.4038C710.678 70.0962 709.735 69.7373 708.505 69.3271C707.274 68.8965 705.88 68.4966 704.321 68.1274C702.762 67.7378 701.112 67.4097 699.368 67.1431C697.625 66.8765 695.923 66.7432 694.262 66.7432C692.355 66.7432 690.714 66.8765 689.34 67.1431C687.987 67.4097 686.838 67.7686 685.895 68.2197C684.972 68.6504 684.223 69.1528 683.649 69.7271C683.095 70.2808 682.665 70.855 682.357 71.4497C682.05 72.0444 681.844 72.6392 681.742 73.2339C681.66 73.8081 681.619 74.3208 681.619 74.772C681.619 75.2642 681.68 75.8179 681.803 76.4331C681.927 77.0483 682.162 77.6738 682.511 78.3096C682.86 78.9453 683.352 79.5708 683.988 80.186C684.644 80.8013 685.485 81.355 686.51 81.8472C687.535 82.3188 688.786 82.6982 690.263 82.9854C691.76 83.2725 693.524 83.416 695.554 83.416ZM730.19 86V49.978H734.866V66.6201H766.766V49.978H771.442V86H766.766V70.373H734.866V86H730.19ZM818.721 62.4673C818.393 61.0933 817.881 59.8115 817.183 58.6221C816.486 57.4121 815.522 56.3662 814.292 55.4844C813.061 54.6025 811.523 53.9155 809.677 53.4233C807.852 52.9106 805.648 52.6543 803.064 52.6543C800.111 52.6543 797.598 53.0952 795.527 53.9771C793.456 54.8384 791.764 55.9663 790.451 57.3608C789.159 58.7349 788.216 60.2729 787.621 61.9751C787.027 63.6772 786.729 65.3691 786.729 67.0508V68.9272C786.729 70.6499 787.037 72.3726 787.652 74.0952C788.267 75.8179 789.231 77.3662 790.544 78.7402C791.877 80.1143 793.569 81.2319 795.619 82.0933C797.691 82.9341 800.172 83.3545 803.064 83.3545C805.648 83.3545 807.842 83.1084 809.647 82.6162C811.472 82.124 813 81.4473 814.23 80.5859C815.461 79.7041 816.425 78.6582 817.122 77.4482C817.84 76.2178 818.383 74.8745 818.752 73.4185H823.182C822.833 75.3052 822.208 77.0688 821.305 78.7095C820.424 80.3296 819.183 81.7446 817.583 82.9546C815.984 84.1646 813.994 85.1182 811.615 85.8154C809.237 86.5127 806.396 86.8613 803.094 86.8613C799.588 86.8613 796.522 86.3999 793.897 85.4771C791.272 84.5337 789.077 83.252 787.314 81.6318C785.55 80.0117 784.227 78.1045 783.345 75.9102C782.464 73.6953 782.023 71.3062 782.023 68.7427V67.2046C782.023 64.6616 782.464 62.293 783.345 60.0986C784.227 57.8838 785.55 55.9663 787.314 54.3462C789.077 52.7056 791.272 51.4238 793.897 50.501C796.542 49.5781 799.608 49.1167 803.094 49.1167C806.355 49.1167 809.165 49.4551 811.523 50.1318C813.882 50.8086 815.861 51.752 817.46 52.9619C819.06 54.1514 820.311 55.5664 821.213 57.207C822.115 58.8271 822.751 60.5806 823.12 62.4673H818.721ZM838.838 49.978V65.8818H851.481L864.924 49.978H870.492L855.081 67.7891L872.799 86H867.016L851.266 69.4502H838.838V86H834.163V49.978H838.838ZM877.874 67.3276C877.874 64.7847 878.294 62.4058 879.135 60.1909C879.996 57.9556 881.299 56.0278 883.042 54.4077C884.805 52.7671 887.02 51.4751 889.686 50.5317C892.373 49.5884 895.552 49.1167 899.222 49.1167C902.914 49.1167 906.103 49.5884 908.789 50.5317C911.476 51.4751 913.691 52.7671 915.434 54.4077C917.198 56.0278 918.5 57.9556 919.341 60.1909C920.181 62.4058 920.602 64.7847 920.602 67.3276V68.6504C920.602 71.1934 920.181 73.5723 919.341 75.7871C918.5 78.002 917.198 79.9297 915.434 81.5703C913.691 83.2109 911.476 84.5029 908.789 85.4463C906.103 86.3896 902.914 86.8613 899.222 86.8613C895.552 86.8613 892.373 86.3896 889.686 85.4463C887.02 84.5029 884.805 83.2109 883.042 81.5703C881.299 79.9297 879.996 78.002 879.135 75.7871C878.294 73.5723 877.874 71.1934 877.874 68.6504V67.3276ZM882.58 68.7734C882.58 70.4961 882.867 72.229 883.442 73.9722C884.036 75.7153 884.99 77.2842 886.302 78.6787C887.615 80.0527 889.327 81.1807 891.44 82.0625C893.552 82.9238 896.146 83.3545 899.222 83.3545C902.299 83.3545 904.893 82.9341 907.005 82.0933C909.138 81.2319 910.861 80.1143 912.173 78.7402C913.486 77.3457 914.429 75.7871 915.003 74.0645C915.598 72.3213 915.895 70.5576 915.895 68.7734V67.2046C915.895 66.0767 915.772 64.9385 915.526 63.79C915.28 62.6416 914.89 61.5239 914.357 60.437C913.824 59.3501 913.127 58.335 912.265 57.3916C911.404 56.4482 910.348 55.6279 909.097 54.9307C907.866 54.2334 906.431 53.6797 904.79 53.2695C903.17 52.8594 901.314 52.6543 899.222 52.6543C896.105 52.6543 893.48 53.0952 891.347 53.9771C889.235 54.8384 887.523 55.9663 886.21 57.3608C884.918 58.7554 883.985 60.314 883.411 62.0366C882.857 63.7593 882.58 65.4717 882.58 67.1738V68.7734ZM932.475 69.2656C932.475 71.0293 932.782 72.7622 933.397 74.4644C934.013 76.1665 934.977 77.6841 936.289 79.0171C937.622 80.3501 939.334 81.4268 941.426 82.2471C943.539 83.0469 946.092 83.4468 949.086 83.4468C951.383 83.4468 953.403 83.1904 955.146 82.6777C956.889 82.165 958.355 81.4985 959.545 80.6782C960.755 79.8374 961.698 78.894 962.375 77.8481C963.072 76.8022 963.534 75.7563 963.759 74.7104L968.25 74.7412C967.902 76.1973 967.297 77.6533 966.435 79.1094C965.595 80.5449 964.415 81.8369 962.898 82.9854C961.401 84.1338 959.524 85.0669 957.268 85.7847C955.013 86.5024 952.295 86.8613 949.117 86.8613C945.405 86.8613 942.206 86.3999 939.519 85.4771C936.832 84.5337 934.618 83.2212 932.874 81.5396C931.131 79.8374 929.839 77.8071 928.998 75.4487C928.158 73.0903 927.737 70.4858 927.737 67.6353V67.1123C927.737 64.5283 928.188 62.1392 929.091 59.9448C929.993 57.7505 931.326 55.8535 933.09 54.2539C934.874 52.6338 937.089 51.3726 939.734 50.4702C942.38 49.5679 945.456 49.1167 948.963 49.1167C952.408 49.1167 955.382 49.5884 957.884 50.5317C960.406 51.4546 962.477 52.7466 964.098 54.4077C965.738 56.0483 966.948 57.9966 967.727 60.2524C968.507 62.4878 968.896 64.9077 968.896 67.5122C968.917 67.8198 968.917 68.1172 968.896 68.4043C968.876 68.6914 968.866 68.9785 968.866 69.2656H932.475ZM932.444 66.1279H964.374V65.8818C964.292 63.8311 963.934 61.9751 963.298 60.314C962.662 58.6528 961.708 57.2378 960.437 56.0688C959.186 54.8794 957.597 53.9668 955.669 53.3311C953.762 52.6953 951.485 52.3774 948.84 52.3774C946.81 52.3774 944.995 52.5723 943.395 52.9619C941.795 53.3516 940.391 53.8745 939.181 54.5308C937.991 55.187 936.976 55.9561 936.135 56.8379C935.294 57.6992 934.607 58.6221 934.074 59.6064C933.541 60.5703 933.141 61.5547 932.874 62.5596C932.628 63.5645 932.485 64.5283 932.444 65.4512V66.1279Z" fill="white"/>
</svg>
