<svg width="1736" height="608" viewBox="0 0 1736 608" fill="none" xmlns="http://www.w3.org/2000/svg">
<path d="M1670 2H66C30.6538 2 2 30.6538 2 66V89C2 111.644 20.3563 130 43 130H44C66.0914 130 84 147.909 84 170C84 192.091 101.909 210 124 210H142C159.121 210 173 223.879 173 241C173 258.121 186.879 272 204 272H726.398C781.627 272 826.398 316.772 826.398 372C826.398 427.228 781.627 472 726.398 472H485C447.997 472 418 501.997 418 539C418 576.003 447.997 606 485 606H1251C1288 606 1318 576.003 1318 539C1318 501.997 1288 472 1251 472H1022C966.772 472 922 427.228 922 372C922 316.772 966.772 272 1022 272H1527C1544.12 272 1558 258.121 1558 241C1558 223.879 1571.88 210 1589 210H1604C1626.09 210 1644 192.091 1644 170C1644 147.909 1661.91 130 1684 130H1689C1713.85 130 1734 109.853 1734 85V66C1734 30.6538 1705.35 2 1670 2Z" fill="#242424" fill-opacity="0.7" stroke="white" stroke-width="3"/>
<path d="M162.202 52.778H166.57V64.4H170.782L175.969 52.778H180.454L175.852 63.074C175.41 64.062 174.968 64.764 174.526 65.18C174.11 65.596 173.616 65.856 173.044 65.96V66.194C173.694 66.324 174.214 66.597 174.604 67.013C175.02 67.429 175.449 68.17 175.891 69.236L178.933 76.334H181.312V80H178.66C177.698 80 176.892 79.753 176.242 79.259C175.592 78.765 175.007 77.933 174.487 76.763L170.743 68.066H166.57V80H162.202V52.778ZM187.81 59.876H192.061V67.988H200.407V59.876H204.658V80H200.407V71.42H192.061V80H187.81V59.876ZM212.911 59.876H217.123V68.534L216.733 73.994H216.928L225.82 59.876H229.837V80H225.625V71.342L226.015 65.882H225.82L216.928 80H212.911V59.876ZM239.844 59.876H254.625V63.308H244.095V80H239.844V59.876ZM279.141 80C277.919 80 276.996 79.688 276.372 79.064C275.774 78.44 275.41 77.621 275.28 76.607H275.085C274.695 77.829 273.98 78.778 272.94 79.454C271.926 80.13 270.626 80.468 269.04 80.468C266.986 80.468 265.348 79.935 264.126 78.869C262.904 77.777 262.293 76.282 262.293 74.384C262.293 72.434 263.008 70.952 264.438 69.938C265.894 68.898 268.117 68.378 271.107 68.378H274.968V66.818C274.968 64.088 273.525 62.723 270.639 62.723C269.339 62.723 268.286 62.983 267.48 63.503C266.674 63.997 265.998 64.66 265.452 65.492L262.917 63.425C263.489 62.333 264.451 61.397 265.803 60.617C267.155 59.811 268.897 59.408 271.029 59.408C273.577 59.408 275.579 60.019 277.035 61.241C278.491 62.463 279.219 64.231 279.219 66.545V76.646H281.754V80H279.141ZM270.249 77.348C271.627 77.348 272.758 77.036 273.642 76.412C274.526 75.788 274.968 74.982 274.968 73.994V71.069H271.185C268.117 71.069 266.583 71.992 266.583 73.838V74.618C266.583 75.528 266.908 76.217 267.558 76.685C268.208 77.127 269.105 77.348 270.249 77.348ZM290.904 70.25V65.999H302.682V70.25H290.904ZM313.548 59.876H330.318V80H326.067V63.308H317.799V80H313.548V59.876ZM352.962 59.876H357.252L347.502 83.9C346.982 85.2 346.293 86.175 345.435 86.825C344.603 87.475 343.394 87.8 341.808 87.8H338.415V84.368H343.173L345.006 79.727L336.894 59.876H341.34L344.538 68.3L347.034 75.203H347.268L349.764 68.3L352.962 59.876ZM370.067 63.308H363.008V59.876H381.416V63.308H374.318V80H370.067V63.308ZM397.781 80.468C396.247 80.468 394.869 80.221 393.647 79.727C392.425 79.233 391.398 78.531 390.566 77.621C389.734 76.711 389.097 75.619 388.655 74.345C388.213 73.045 387.992 71.589 387.992 69.977C387.992 68.365 388.213 66.909 388.655 65.609C389.123 64.309 389.76 63.204 390.566 62.294C391.398 61.358 392.399 60.643 393.569 60.149C394.739 59.655 396.039 59.408 397.469 59.408C398.873 59.408 400.147 59.655 401.291 60.149C402.435 60.617 403.41 61.293 404.216 62.177C405.022 63.061 405.633 64.114 406.049 65.336C406.491 66.558 406.712 67.91 406.712 69.392V70.991H392.282V71.654C392.282 73.24 392.776 74.54 393.764 75.554C394.752 76.542 396.117 77.036 397.859 77.036C399.159 77.036 400.264 76.763 401.174 76.217C402.11 75.645 402.864 74.891 403.436 73.955L406.088 76.295C405.412 77.465 404.372 78.453 402.968 79.259C401.59 80.065 399.861 80.468 397.781 80.468ZM397.469 62.645C396.715 62.645 396.013 62.775 395.363 63.035C394.739 63.295 394.193 63.672 393.725 64.166C393.283 64.634 392.932 65.193 392.672 65.843C392.412 66.493 392.282 67.208 392.282 67.988V68.261H402.383V67.871C402.383 66.285 401.928 65.024 401.018 64.088C400.134 63.126 398.951 62.645 397.469 62.645ZM414.497 59.876H425.3C427.042 59.876 428.394 60.344 429.356 61.28C430.318 62.19 430.799 63.412 430.799 64.946C430.799 67.442 429.434 68.898 426.704 69.314V69.509C428.368 69.639 429.59 70.12 430.37 70.952C431.15 71.758 431.54 72.824 431.54 74.15C431.54 74.956 431.397 75.71 431.111 76.412C430.851 77.114 430.461 77.738 429.941 78.284C429.421 78.804 428.771 79.22 427.991 79.532C427.237 79.844 426.379 80 425.417 80H414.497V59.876ZM424.52 76.802C425.352 76.802 426.002 76.607 426.47 76.217C426.938 75.801 427.172 75.216 427.172 74.462V73.526C427.172 72.772 426.938 72.187 426.47 71.771C426.028 71.355 425.43 71.147 424.676 71.147H418.748V76.802H424.52ZM424.13 68.3C424.832 68.3 425.391 68.105 425.807 67.715C426.223 67.325 426.431 66.792 426.431 66.116V65.258C426.431 64.582 426.223 64.049 425.807 63.659C425.391 63.269 424.832 63.074 424.13 63.074H418.748V68.3H424.13ZM447.632 80.468C446.15 80.468 444.811 80.221 443.615 79.727C442.445 79.233 441.444 78.531 440.612 77.621C439.806 76.711 439.182 75.606 438.74 74.306C438.298 73.006 438.077 71.55 438.077 69.938C438.077 68.326 438.298 66.87 438.74 65.57C439.182 64.27 439.806 63.165 440.612 62.255C441.444 61.345 442.445 60.643 443.615 60.149C444.811 59.655 446.15 59.408 447.632 59.408C449.114 59.408 450.44 59.655 451.61 60.149C452.806 60.643 453.807 61.345 454.613 62.255C455.445 63.165 456.082 64.27 456.524 65.57C456.966 66.87 457.187 68.326 457.187 69.938C457.187 71.55 456.966 73.006 456.524 74.306C456.082 75.606 455.445 76.711 454.613 77.621C453.807 78.531 452.806 79.233 451.61 79.727C450.44 80.221 449.114 80.468 447.632 80.468ZM447.632 77.114C449.192 77.114 450.427 76.646 451.337 75.71C452.273 74.748 452.741 73.331 452.741 71.459V68.417C452.741 66.545 452.273 65.141 451.337 64.205C450.427 63.243 449.192 62.762 447.632 62.762C446.072 62.762 444.824 63.243 443.888 64.205C442.978 65.141 442.523 66.545 442.523 68.417V71.459C442.523 73.331 442.978 74.748 443.888 75.71C444.824 76.646 446.072 77.114 447.632 77.114ZM461.734 76.568H464.035C464.789 75.372 465.387 73.929 465.829 72.239C466.271 70.523 466.492 68.495 466.492 66.155V59.876H480.22V76.568H483.457V85.46H479.635V80H465.556V85.46H461.734V76.568ZM476.047 76.568V63.308H470.47V66.311C470.47 68.599 470.288 70.575 469.924 72.239C469.586 73.877 469.079 75.32 468.403 76.568H476.047ZM489.448 59.876H493.66V68.534L493.27 73.994H493.465L502.357 59.876H506.374V80H502.162V71.342L502.552 65.882H502.357L493.465 80H489.448V59.876ZM520.906 63.308H513.847V59.876H532.255V63.308H525.157V80H520.906V63.308ZM548.62 80.468C547.086 80.468 545.708 80.221 544.486 79.727C543.264 79.233 542.237 78.531 541.405 77.621C540.573 76.711 539.936 75.619 539.494 74.345C539.052 73.045 538.831 71.589 538.831 69.977C538.831 68.365 539.052 66.909 539.494 65.609C539.962 64.309 540.599 63.204 541.405 62.294C542.237 61.358 543.238 60.643 544.408 60.149C545.578 59.655 546.878 59.408 548.308 59.408C549.712 59.408 550.986 59.655 552.13 60.149C553.274 60.617 554.249 61.293 555.055 62.177C555.861 63.061 556.472 64.114 556.888 65.336C557.33 66.558 557.551 67.91 557.551 69.392V70.991H543.121V71.654C543.121 73.24 543.615 74.54 544.603 75.554C545.591 76.542 546.956 77.036 548.698 77.036C549.998 77.036 551.103 76.763 552.013 76.217C552.949 75.645 553.703 74.891 554.275 73.955L556.927 76.295C556.251 77.465 555.211 78.453 553.807 79.259C552.429 80.065 550.7 80.468 548.62 80.468ZM548.308 62.645C547.554 62.645 546.852 62.775 546.202 63.035C545.578 63.295 545.032 63.672 544.564 64.166C544.122 64.634 543.771 65.193 543.511 65.843C543.251 66.493 543.121 67.208 543.121 67.988V68.261H553.222V67.871C553.222 66.285 552.767 65.024 551.857 64.088C550.973 63.126 549.79 62.645 548.308 62.645ZM562.566 76.568H565.179C565.517 76.126 565.816 75.619 566.076 75.047C566.362 74.449 566.583 73.734 566.739 72.902C566.921 72.07 567.051 71.108 567.129 70.016C567.233 68.924 567.285 67.65 567.285 66.194V59.876H581.52V80H577.269V63.308H571.263V66.272C571.263 69.678 571.016 72.343 570.522 74.267C570.028 76.191 569.352 77.595 568.494 78.479C567.896 79.103 567.207 79.519 566.427 79.727C565.647 79.909 564.828 80 563.97 80H562.566V76.568ZM590.67 59.876H594.921V66.506H600.654C602.734 66.506 604.398 67.091 605.646 68.261C606.894 69.431 607.518 71.095 607.518 73.253C607.518 75.411 606.894 77.075 605.646 78.245C604.398 79.415 602.734 80 600.654 80H590.67V59.876ZM599.913 76.685C600.901 76.685 601.681 76.451 602.253 75.983C602.851 75.515 603.15 74.826 603.15 73.916V72.59C603.15 71.68 602.851 70.991 602.253 70.523C601.681 70.055 600.901 69.821 599.913 69.821H594.921V76.685H599.913ZM648.75 80.468C647.268 80.468 645.929 80.221 644.733 79.727C643.563 79.233 642.562 78.531 641.73 77.621C640.924 76.711 640.3 75.606 639.858 74.306C639.416 73.006 639.195 71.55 639.195 69.938C639.195 68.326 639.416 66.87 639.858 65.57C640.3 64.27 640.924 63.165 641.73 62.255C642.562 61.345 643.563 60.643 644.733 60.149C645.929 59.655 647.268 59.408 648.75 59.408C650.232 59.408 651.558 59.655 652.728 60.149C653.924 60.643 654.925 61.345 655.731 62.255C656.563 63.165 657.2 64.27 657.642 65.57C658.084 66.87 658.305 68.326 658.305 69.938C658.305 71.55 658.084 73.006 657.642 74.306C657.2 75.606 656.563 76.711 655.731 77.621C654.925 78.531 653.924 79.233 652.728 79.727C651.558 80.221 650.232 80.468 648.75 80.468ZM648.75 77.114C650.31 77.114 651.545 76.646 652.455 75.71C653.391 74.748 653.859 73.331 653.859 71.459V68.417C653.859 66.545 653.391 65.141 652.455 64.205C651.545 63.243 650.31 62.762 648.75 62.762C647.19 62.762 645.942 63.243 645.006 64.205C644.096 65.141 643.641 66.545 643.641 68.417V71.459C643.641 73.331 644.096 74.748 645.006 75.71C645.942 76.646 647.19 77.114 648.75 77.114ZM690.644 59.876H707.414V80H703.163V63.308H694.895V80H690.644V59.876ZM715.55 59.876H719.801V63.308H720.035C720.633 62.086 721.426 61.137 722.414 60.461C723.402 59.759 724.637 59.408 726.119 59.408C728.485 59.408 730.37 60.292 731.774 62.06C733.178 63.828 733.88 66.454 733.88 69.938C733.88 73.422 733.178 76.048 731.774 77.816C730.37 79.584 728.485 80.468 726.119 80.468C724.637 80.468 723.402 80.13 722.414 79.454C721.426 78.752 720.633 77.79 720.035 76.568H719.801V87.8H715.55V59.876ZM724.364 76.997C725.976 76.997 727.211 76.503 728.069 75.515C728.953 74.527 729.395 73.214 729.395 71.576V68.3C729.395 66.662 728.953 65.349 728.069 64.361C727.211 63.373 725.976 62.879 724.364 62.879C723.74 62.879 723.155 62.957 722.609 63.113C722.063 63.269 721.582 63.503 721.166 63.815C720.75 64.127 720.412 64.517 720.152 64.985C719.918 65.427 719.801 65.96 719.801 66.584V73.292C719.801 73.916 719.918 74.462 720.152 74.93C720.412 75.372 720.75 75.749 721.166 76.061C721.582 76.373 722.063 76.607 722.609 76.763C723.155 76.919 723.74 76.997 724.364 76.997ZM749.309 80.468C747.827 80.468 746.488 80.221 745.292 79.727C744.122 79.233 743.121 78.531 742.289 77.621C741.483 76.711 740.859 75.606 740.417 74.306C739.975 73.006 739.754 71.55 739.754 69.938C739.754 68.326 739.975 66.87 740.417 65.57C740.859 64.27 741.483 63.165 742.289 62.255C743.121 61.345 744.122 60.643 745.292 60.149C746.488 59.655 747.827 59.408 749.309 59.408C750.791 59.408 752.117 59.655 753.287 60.149C754.483 60.643 755.484 61.345 756.29 62.255C757.122 63.165 757.759 64.27 758.201 65.57C758.643 66.87 758.864 68.326 758.864 69.938C758.864 71.55 758.643 73.006 758.201 74.306C757.759 75.606 757.122 76.711 756.29 77.621C755.484 78.531 754.483 79.233 753.287 79.727C752.117 80.221 750.791 80.468 749.309 80.468ZM749.309 77.114C750.869 77.114 752.104 76.646 753.014 75.71C753.95 74.748 754.418 73.331 754.418 71.459V68.417C754.418 66.545 753.95 65.141 753.014 64.205C752.104 63.243 750.869 62.762 749.309 62.762C747.749 62.762 746.501 63.243 745.565 64.205C744.655 65.141 744.2 66.545 744.2 68.417V71.459C744.2 73.331 744.655 74.748 745.565 75.71C746.501 76.646 747.749 77.114 749.309 77.114ZM775.19 80.468C773.682 80.468 772.33 80.221 771.134 79.727C769.964 79.233 768.963 78.531 768.131 77.621C767.325 76.711 766.701 75.606 766.259 74.306C765.843 73.006 765.635 71.55 765.635 69.938C765.635 68.326 765.843 66.87 766.259 65.57C766.701 64.27 767.325 63.165 768.131 62.255C768.963 61.345 769.964 60.643 771.134 60.149C772.33 59.655 773.669 59.408 775.151 59.408C777.231 59.408 778.895 59.85 780.143 60.734C781.417 61.618 782.366 62.762 782.99 64.166L779.675 65.96C779.311 65.024 778.752 64.283 777.998 63.737C777.27 63.191 776.321 62.918 775.151 62.918C773.539 62.918 772.291 63.412 771.407 64.4C770.523 65.362 770.081 66.649 770.081 68.261V71.615C770.081 73.201 770.523 74.488 771.407 75.476C772.291 76.464 773.565 76.958 775.229 76.958C776.477 76.958 777.491 76.672 778.271 76.1C779.077 75.528 779.714 74.748 780.182 73.76L783.302 75.671C782.652 77.075 781.664 78.232 780.338 79.142C779.012 80.026 777.296 80.468 775.19 80.468ZM797.443 63.308H790.384V59.876H808.792V63.308H801.694V80H797.443V63.308ZM816.109 59.876H820.36V63.308H820.594C821.192 62.086 821.985 61.137 822.973 60.461C823.961 59.759 825.196 59.408 826.678 59.408C829.044 59.408 830.929 60.292 832.333 62.06C833.737 63.828 834.439 66.454 834.439 69.938C834.439 73.422 833.737 76.048 832.333 77.816C830.929 79.584 829.044 80.468 826.678 80.468C825.196 80.468 823.961 80.13 822.973 79.454C821.985 78.752 821.192 77.79 820.594 76.568H820.36V87.8H816.109V59.876ZM824.923 76.997C826.535 76.997 827.77 76.503 828.628 75.515C829.512 74.527 829.954 73.214 829.954 71.576V68.3C829.954 66.662 829.512 65.349 828.628 64.361C827.77 63.373 826.535 62.879 824.923 62.879C824.299 62.879 823.714 62.957 823.168 63.113C822.622 63.269 822.141 63.503 821.725 63.815C821.309 64.127 820.971 64.517 820.711 64.985C820.477 65.427 820.36 65.96 820.36 66.584V73.292C820.36 73.916 820.477 74.462 820.711 74.93C820.971 75.372 821.309 75.749 821.725 76.061C822.141 76.373 822.622 76.607 823.168 76.763C823.714 76.919 824.299 76.997 824.923 76.997ZM857.356 80C856.134 80 855.211 79.688 854.587 79.064C853.989 78.44 853.625 77.621 853.495 76.607H853.3C852.91 77.829 852.195 78.778 851.155 79.454C850.141 80.13 848.841 80.468 847.255 80.468C845.201 80.468 843.563 79.935 842.341 78.869C841.119 77.777 840.508 76.282 840.508 74.384C840.508 72.434 841.223 70.952 842.653 69.938C844.109 68.898 846.332 68.378 849.322 68.378H853.183V66.818C853.183 64.088 851.74 62.723 848.854 62.723C847.554 62.723 846.501 62.983 845.695 63.503C844.889 63.997 844.213 64.66 843.667 65.492L841.132 63.425C841.704 62.333 842.666 61.397 844.018 60.617C845.37 59.811 847.112 59.408 849.244 59.408C851.792 59.408 853.794 60.019 855.25 61.241C856.706 62.463 857.434 64.231 857.434 66.545V76.646H859.969V80H857.356ZM848.464 77.348C849.842 77.348 850.973 77.036 851.857 76.412C852.741 75.788 853.183 74.982 853.183 73.994V71.069H849.4C846.332 71.069 844.798 71.992 844.798 73.838V74.618C844.798 75.528 845.123 76.217 845.773 76.685C846.423 77.127 847.32 77.348 848.464 77.348ZM866.584 59.876H870.835V67.988H879.181V59.876H883.432V80H879.181V71.42H870.835V80H866.584V59.876ZM900.888 80.468C899.38 80.468 898.028 80.221 896.832 79.727C895.662 79.233 894.661 78.531 893.829 77.621C893.023 76.711 892.399 75.606 891.957 74.306C891.541 73.006 891.333 71.55 891.333 69.938C891.333 68.326 891.541 66.87 891.957 65.57C892.399 64.27 893.023 63.165 893.829 62.255C894.661 61.345 895.662 60.643 896.832 60.149C898.028 59.655 899.367 59.408 900.849 59.408C902.929 59.408 904.593 59.85 905.841 60.734C907.115 61.618 908.064 62.762 908.688 64.166L905.373 65.96C905.009 65.024 904.45 64.283 903.696 63.737C902.968 63.191 902.019 62.918 900.849 62.918C899.237 62.918 897.989 63.412 897.105 64.4C896.221 65.362 895.779 66.649 895.779 68.261V71.615C895.779 73.201 896.221 74.488 897.105 75.476C897.989 76.464 899.263 76.958 900.927 76.958C902.175 76.958 903.189 76.672 903.969 76.1C904.775 75.528 905.412 74.748 905.88 73.76L909 75.671C908.35 77.075 907.362 78.232 906.036 79.142C904.71 80.026 902.994 80.468 900.888 80.468ZM923.142 63.308H916.083V59.876H934.491V63.308H927.393V80H923.142V63.308ZM942.432 59.876H953.235C954.977 59.876 956.329 60.344 957.291 61.28C958.253 62.19 958.734 63.412 958.734 64.946C958.734 67.442 957.369 68.898 954.639 69.314V69.509C956.303 69.639 957.525 70.12 958.305 70.952C959.085 71.758 959.475 72.824 959.475 74.15C959.475 74.956 959.332 75.71 959.046 76.412C958.786 77.114 958.396 77.738 957.876 78.284C957.356 78.804 956.706 79.22 955.926 79.532C955.172 79.844 954.314 80 953.352 80H942.432V59.876ZM952.455 76.802C953.287 76.802 953.937 76.607 954.405 76.217C954.873 75.801 955.107 75.216 955.107 74.462V73.526C955.107 72.772 954.873 72.187 954.405 71.771C953.963 71.355 953.365 71.147 952.611 71.147H946.683V76.802H952.455ZM952.065 68.3C952.767 68.3 953.326 68.105 953.742 67.715C954.158 67.325 954.366 66.792 954.366 66.116V65.258C954.366 64.582 954.158 64.049 953.742 63.659C953.326 63.269 952.767 63.074 952.065 63.074H946.683V68.3H952.065ZM975.996 80.468C974.462 80.468 973.084 80.221 971.862 79.727C970.64 79.233 969.613 78.531 968.781 77.621C967.949 76.711 967.312 75.619 966.87 74.345C966.428 73.045 966.207 71.589 966.207 69.977C966.207 68.365 966.428 66.909 966.87 65.609C967.338 64.309 967.975 63.204 968.781 62.294C969.613 61.358 970.614 60.643 971.784 60.149C972.954 59.655 974.254 59.408 975.684 59.408C977.088 59.408 978.362 59.655 979.506 60.149C980.65 60.617 981.625 61.293 982.431 62.177C983.237 63.061 983.848 64.114 984.264 65.336C984.706 66.558 984.927 67.91 984.927 69.392V70.991H970.497V71.654C970.497 73.24 970.991 74.54 971.979 75.554C972.967 76.542 974.332 77.036 976.074 77.036C977.374 77.036 978.479 76.763 979.389 76.217C980.325 75.645 981.079 74.891 981.651 73.955L984.303 76.295C983.627 77.465 982.587 78.453 981.183 79.259C979.805 80.065 978.076 80.468 975.996 80.468ZM975.684 62.645C974.93 62.645 974.228 62.775 973.578 63.035C972.954 63.295 972.408 63.672 971.94 64.166C971.498 64.634 971.147 65.193 970.887 65.843C970.627 66.493 970.497 67.208 970.497 67.988V68.261H980.598V67.871C980.598 66.285 980.143 65.024 979.233 64.088C978.349 63.126 977.166 62.645 975.684 62.645ZM1017.46 59.876H1034.23V80H1029.98V63.308H1021.71V80H1017.46V59.876ZM1050.99 80.468C1049.5 80.468 1048.16 80.221 1046.97 79.727C1045.8 79.233 1044.8 78.531 1043.97 77.621C1043.16 76.711 1042.54 75.606 1042.09 74.306C1041.65 73.006 1041.43 71.55 1041.43 69.938C1041.43 68.326 1041.65 66.87 1042.09 65.57C1042.54 64.27 1043.16 63.165 1043.97 62.255C1044.8 61.345 1045.8 60.643 1046.97 60.149C1048.16 59.655 1049.5 59.408 1050.99 59.408C1052.47 59.408 1053.79 59.655 1054.96 60.149C1056.16 60.643 1057.16 61.345 1057.97 62.255C1058.8 63.165 1059.44 64.27 1059.88 65.57C1060.32 66.87 1060.54 68.326 1060.54 69.938C1060.54 71.55 1060.32 73.006 1059.88 74.306C1059.44 75.606 1058.8 76.711 1057.97 77.621C1057.16 78.531 1056.16 79.233 1054.96 79.727C1053.79 80.221 1052.47 80.468 1050.99 80.468ZM1050.99 77.114C1052.55 77.114 1053.78 76.646 1054.69 75.71C1055.63 74.748 1056.09 73.331 1056.09 71.459V68.417C1056.09 66.545 1055.63 65.141 1054.69 64.205C1053.78 63.243 1052.55 62.762 1050.99 62.762C1049.43 62.762 1048.18 63.243 1047.24 64.205C1046.33 65.141 1045.88 66.545 1045.88 68.417V71.459C1045.88 73.331 1046.33 74.748 1047.24 75.71C1048.18 76.646 1049.43 77.114 1050.99 77.114ZM1066.88 59.876H1071.84L1076.2 69.353H1076.48L1080.84 59.876H1085.37V80H1081.66V68.651L1081.82 65.102H1081.55L1076.13 76.841L1070.7 65.102H1070.43L1070.59 68.651V80H1066.88V59.876ZM1101.27 80.468C1099.78 80.468 1098.44 80.221 1097.25 79.727C1096.08 79.233 1095.08 78.531 1094.25 77.621C1093.44 76.711 1092.82 75.606 1092.37 74.306C1091.93 73.006 1091.71 71.55 1091.71 69.938C1091.71 68.326 1091.93 66.87 1092.37 65.57C1092.82 64.27 1093.44 63.165 1094.25 62.255C1095.08 61.345 1096.08 60.643 1097.25 60.149C1098.44 59.655 1099.78 59.408 1101.27 59.408C1102.75 59.408 1104.07 59.655 1105.24 60.149C1106.44 60.643 1107.44 61.345 1108.25 62.255C1109.08 63.165 1109.72 64.27 1110.16 65.57C1110.6 66.87 1110.82 68.326 1110.82 69.938C1110.82 71.55 1110.6 73.006 1110.16 74.306C1109.72 75.606 1109.08 76.711 1108.25 77.621C1107.44 78.531 1106.44 79.233 1105.24 79.727C1104.07 80.221 1102.75 80.468 1101.27 80.468ZM1101.27 77.114C1102.83 77.114 1104.06 76.646 1104.97 75.71C1105.91 74.748 1106.37 73.331 1106.37 71.459V68.417C1106.37 66.545 1105.91 65.141 1104.97 64.205C1104.06 63.243 1102.83 62.762 1101.27 62.762C1099.71 62.762 1098.46 63.243 1097.52 64.205C1096.61 65.141 1096.16 66.545 1096.16 68.417V71.459C1096.16 73.331 1096.61 74.748 1097.52 75.71C1098.46 76.646 1099.71 77.114 1101.27 77.114ZM1119.74 59.876H1134.52V63.308H1123.99V80H1119.74V59.876ZM1159.03 80C1157.81 80 1156.89 79.688 1156.26 79.064C1155.67 78.44 1155.3 77.621 1155.17 76.607H1154.98C1154.59 77.829 1153.87 78.778 1152.83 79.454C1151.82 80.13 1150.52 80.468 1148.93 80.468C1146.88 80.468 1145.24 79.935 1144.02 78.869C1142.8 77.777 1142.19 76.282 1142.19 74.384C1142.19 72.434 1142.9 70.952 1144.33 69.938C1145.79 68.898 1148.01 68.378 1151 68.378H1154.86V66.818C1154.86 64.088 1153.42 62.723 1150.53 62.723C1149.23 62.723 1148.18 62.983 1147.37 63.503C1146.57 63.997 1145.89 64.66 1145.34 65.492L1142.81 63.425C1143.38 62.333 1144.34 61.397 1145.7 60.617C1147.05 59.811 1148.79 59.408 1150.92 59.408C1153.47 59.408 1155.47 60.019 1156.93 61.241C1158.38 62.463 1159.11 64.231 1159.11 66.545V76.646H1161.65V80H1159.03ZM1150.14 77.348C1151.52 77.348 1152.65 77.036 1153.53 76.412C1154.42 75.788 1154.86 74.982 1154.86 73.994V71.069H1151.08C1148.01 71.069 1146.48 71.992 1146.48 73.838V74.618C1146.48 75.528 1146.8 76.217 1147.45 76.685C1148.1 77.127 1149 77.348 1150.14 77.348ZM1177.11 80.468C1175.58 80.468 1174.2 80.221 1172.98 79.727C1171.76 79.233 1170.73 78.531 1169.9 77.621C1169.07 76.711 1168.43 75.619 1167.99 74.345C1167.55 73.045 1167.32 71.589 1167.32 69.977C1167.32 68.365 1167.55 66.909 1167.99 65.609C1168.46 64.309 1169.09 63.204 1169.9 62.294C1170.73 61.358 1171.73 60.643 1172.9 60.149C1174.07 59.655 1175.37 59.408 1176.8 59.408C1178.21 59.408 1179.48 59.655 1180.62 60.149C1181.77 60.617 1182.74 61.293 1183.55 62.177C1184.35 63.061 1184.97 64.114 1185.38 65.336C1185.82 66.558 1186.04 67.91 1186.04 69.392V70.991H1171.61V71.654C1171.61 73.24 1172.11 74.54 1173.1 75.554C1174.08 76.542 1175.45 77.036 1177.19 77.036C1178.49 77.036 1179.6 76.763 1180.51 76.217C1181.44 75.645 1182.2 74.891 1182.77 73.955L1185.42 76.295C1184.74 77.465 1183.7 78.453 1182.3 79.259C1180.92 80.065 1179.19 80.468 1177.11 80.468ZM1176.8 62.645C1176.05 62.645 1175.35 62.775 1174.7 63.035C1174.07 63.295 1173.53 63.672 1173.06 64.166C1172.62 64.634 1172.26 65.193 1172 65.843C1171.74 66.493 1171.61 67.208 1171.61 67.988V68.261H1181.72V67.871C1181.72 66.285 1181.26 65.024 1180.35 64.088C1179.47 63.126 1178.28 62.645 1176.8 62.645ZM1199.68 63.308H1192.62V59.876H1211.03V63.308H1203.93V80H1199.68V63.308ZM1257.99 59.876H1262.28L1252.53 83.9C1252.01 85.2 1251.32 86.175 1250.47 86.825C1249.63 87.475 1248.43 87.8 1246.84 87.8H1243.45V84.368H1248.2L1250.04 79.727L1241.93 59.876H1246.37L1249.57 68.3L1252.07 75.203H1252.3L1254.8 68.3L1257.99 59.876ZM1276.7 80.468C1274.51 80.468 1272.69 80.13 1271.24 79.454C1269.78 78.778 1268.62 77.842 1267.77 76.646L1270.5 74.228C1271.17 75.164 1271.99 75.879 1272.95 76.373C1273.94 76.841 1275.18 77.075 1276.66 77.075C1278.22 77.075 1279.38 76.815 1280.13 76.295C1280.88 75.775 1281.26 75.099 1281.26 74.267V73.877C1281.26 73.045 1281 72.408 1280.48 71.966C1279.96 71.524 1279.17 71.303 1278.1 71.303H1272.99V68.183H1277.67C1278.76 68.183 1279.56 67.975 1280.05 67.559C1280.57 67.117 1280.83 66.506 1280.83 65.726V65.336C1280.83 64.582 1280.51 63.971 1279.86 63.503C1279.21 63.035 1278.13 62.801 1276.62 62.801C1275.22 62.801 1274.06 63.035 1273.15 63.503C1272.24 63.945 1271.45 64.595 1270.77 65.453L1268.16 63.347C1269.12 62.099 1270.28 61.137 1271.63 60.461C1273.01 59.759 1274.79 59.408 1276.97 59.408C1279.67 59.408 1281.73 59.915 1283.13 60.929C1284.54 61.917 1285.24 63.23 1285.24 64.868C1285.24 66.064 1284.89 67.039 1284.19 67.793C1283.51 68.547 1282.56 69.067 1281.34 69.353V69.509C1282.66 69.717 1283.7 70.237 1284.46 71.069C1285.24 71.875 1285.63 72.941 1285.63 74.267C1285.63 76.139 1284.85 77.647 1283.29 78.791C1281.73 79.909 1279.53 80.468 1276.7 80.468ZM1293.96 59.876H1298.21V67.988H1306.56V59.876H1310.81V80H1306.56V71.42H1298.21V80H1293.96V59.876ZM1335.01 80C1333.79 80 1332.87 79.688 1332.24 79.064C1331.64 78.44 1331.28 77.621 1331.15 76.607H1330.96C1330.57 77.829 1329.85 78.778 1328.81 79.454C1327.8 80.13 1326.5 80.468 1324.91 80.468C1322.86 80.468 1321.22 79.935 1320 78.869C1318.77 77.777 1318.16 76.282 1318.16 74.384C1318.16 72.434 1318.88 70.952 1320.31 69.938C1321.76 68.898 1323.99 68.378 1326.98 68.378H1330.84V66.818C1330.84 64.088 1329.4 62.723 1326.51 62.723C1325.21 62.723 1324.16 62.983 1323.35 63.503C1322.54 63.997 1321.87 64.66 1321.32 65.492L1318.79 63.425C1319.36 62.333 1320.32 61.397 1321.67 60.617C1323.03 59.811 1324.77 59.408 1326.9 59.408C1329.45 59.408 1331.45 60.019 1332.91 61.241C1334.36 62.463 1335.09 64.231 1335.09 66.545V76.646H1337.62V80H1335.01ZM1326.12 77.348C1327.5 77.348 1328.63 77.036 1329.51 76.412C1330.4 75.788 1330.84 74.982 1330.84 73.994V71.069H1327.06C1323.99 71.069 1322.45 71.992 1322.45 73.838V74.618C1322.45 75.528 1322.78 76.217 1323.43 76.685C1324.08 77.127 1324.98 77.348 1326.12 77.348ZM1350.52 63.308H1343.46V59.876H1361.87V63.308H1354.77V80H1350.52V63.308ZM1370 59.876H1374.25V66.506H1379.99C1382.07 66.506 1383.73 67.091 1384.98 68.261C1386.23 69.431 1386.85 71.095 1386.85 73.253C1386.85 75.411 1386.23 77.075 1384.98 78.245C1383.73 79.415 1382.07 80 1379.99 80H1370V59.876ZM1379.25 76.685C1380.23 76.685 1381.01 76.451 1381.59 75.983C1382.18 75.515 1382.48 74.826 1382.48 73.916V72.59C1382.48 71.68 1382.18 70.991 1381.59 70.523C1381.01 70.055 1380.23 69.821 1379.25 69.821H1374.25V76.685H1379.25ZM1428.12 80.468C1426.69 80.468 1425.39 80.221 1424.22 79.727C1423.08 79.233 1422.09 78.492 1421.26 77.504C1420.45 76.516 1419.83 75.281 1419.39 73.799C1418.94 72.291 1418.72 70.536 1418.72 68.534C1418.72 65.492 1418.93 62.905 1419.35 60.773C1419.76 58.615 1420.43 56.86 1421.34 55.508C1422.25 54.13 1423.4 53.103 1424.81 52.427C1426.24 51.751 1427.95 51.348 1429.95 51.218L1436.08 50.867V54.845L1430.03 55.196C1428.81 55.274 1427.78 55.482 1426.95 55.82C1426.15 56.132 1425.48 56.639 1424.96 57.341C1424.44 58.043 1424.04 58.953 1423.75 60.071C1423.49 61.163 1423.31 62.528 1423.21 64.166H1423.44C1423.94 62.866 1424.65 61.865 1425.59 61.163C1426.52 60.461 1427.73 60.11 1429.21 60.11C1430.44 60.11 1431.55 60.331 1432.57 60.773C1433.61 61.215 1434.49 61.865 1435.22 62.723C1435.95 63.555 1436.51 64.595 1436.9 65.843C1437.31 67.091 1437.52 68.508 1437.52 70.094C1437.52 71.654 1437.3 73.084 1436.86 74.384C1436.42 75.658 1435.78 76.75 1434.95 77.66C1434.14 78.544 1433.15 79.233 1431.98 79.727C1430.84 80.221 1429.55 80.468 1428.12 80.468ZM1428.08 77.114C1429.56 77.114 1430.76 76.646 1431.67 75.71C1432.61 74.748 1433.07 73.409 1433.07 71.693V68.963C1433.07 67.143 1432.63 65.778 1431.75 64.868C1430.86 63.932 1429.64 63.464 1428.08 63.464C1426.5 63.464 1425.27 63.919 1424.42 64.829C1423.58 65.713 1423.17 66.896 1423.17 68.378V71.615C1423.17 73.409 1423.61 74.774 1424.49 75.71C1425.4 76.646 1426.6 77.114 1428.08 77.114ZM1453.22 80.468C1451.74 80.468 1450.4 80.221 1449.21 79.727C1448.04 79.233 1447.03 78.531 1446.2 77.621C1445.4 76.711 1444.77 75.606 1444.33 74.306C1443.89 73.006 1443.67 71.55 1443.67 69.938C1443.67 68.326 1443.89 66.87 1444.33 65.57C1444.77 64.27 1445.4 63.165 1446.2 62.255C1447.03 61.345 1448.04 60.643 1449.21 60.149C1450.4 59.655 1451.74 59.408 1453.22 59.408C1454.7 59.408 1456.03 59.655 1457.2 60.149C1458.4 60.643 1459.4 61.345 1460.2 62.255C1461.04 63.165 1461.67 64.27 1462.11 65.57C1462.56 66.87 1462.78 68.326 1462.78 69.938C1462.78 71.55 1462.56 73.006 1462.11 74.306C1461.67 75.606 1461.04 76.711 1460.2 77.621C1459.4 78.531 1458.4 79.233 1457.2 79.727C1456.03 80.221 1454.7 80.468 1453.22 80.468ZM1453.22 77.114C1454.78 77.114 1456.02 76.646 1456.93 75.71C1457.86 74.748 1458.33 73.331 1458.33 71.459V68.417C1458.33 66.545 1457.86 65.141 1456.93 64.205C1456.02 63.243 1454.78 62.762 1453.22 62.762C1451.66 62.762 1450.41 63.243 1449.48 64.205C1448.57 65.141 1448.11 66.545 1448.11 68.417V71.459C1448.11 73.331 1448.57 74.748 1449.48 75.71C1450.41 76.646 1451.66 77.114 1453.22 77.114ZM1467.6 76.568H1470.21C1470.55 76.126 1470.85 75.619 1471.11 75.047C1471.39 74.449 1471.61 73.734 1471.77 72.902C1471.95 72.07 1472.08 71.108 1472.16 70.016C1472.26 68.924 1472.32 67.65 1472.32 66.194V59.876H1486.55V80H1482.3V63.308H1476.29V66.272C1476.29 69.678 1476.05 72.343 1475.55 74.267C1475.06 76.191 1474.38 77.595 1473.53 78.479C1472.93 79.103 1472.24 79.519 1471.46 79.727C1470.68 79.909 1469.86 80 1469 80H1467.6V76.568ZM1495.7 59.876H1499.95V66.506H1505.69C1507.77 66.506 1509.43 67.091 1510.68 68.261C1511.93 69.431 1512.55 71.095 1512.55 73.253C1512.55 75.411 1511.93 77.075 1510.68 78.245C1509.43 79.415 1507.77 80 1505.69 80H1495.7V59.876ZM1504.94 76.685C1505.93 76.685 1506.71 76.451 1507.28 75.983C1507.88 75.515 1508.18 74.826 1508.18 73.916V72.59C1508.18 71.68 1507.88 70.991 1507.28 70.523C1506.71 70.055 1505.93 69.821 1504.94 69.821H1499.95V76.685H1504.94ZM1518.66 59.876H1522.28V76.724H1526.81V59.876H1530.44V76.724H1534.96V59.876H1538.59V80H1518.66V59.876ZM1554.21 80.468C1552.68 80.468 1551.3 80.221 1550.08 79.727C1548.85 79.233 1547.83 78.531 1547 77.621C1546.16 76.711 1545.53 75.619 1545.08 74.345C1544.64 73.045 1544.42 71.589 1544.42 69.977C1544.42 68.365 1544.64 66.909 1545.08 65.609C1545.55 64.309 1546.19 63.204 1547 62.294C1547.83 61.358 1548.83 60.643 1550 60.149C1551.17 59.655 1552.47 59.408 1553.9 59.408C1555.3 59.408 1556.58 59.655 1557.72 60.149C1558.86 60.617 1559.84 61.293 1560.65 62.177C1561.45 63.061 1562.06 64.114 1562.48 65.336C1562.92 66.558 1563.14 67.91 1563.14 69.392V70.991H1548.71V71.654C1548.71 73.24 1549.21 74.54 1550.19 75.554C1551.18 76.542 1552.55 77.036 1554.29 77.036C1555.59 77.036 1556.69 76.763 1557.6 76.217C1558.54 75.645 1559.29 74.891 1559.87 73.955L1562.52 76.295C1561.84 77.465 1560.8 78.453 1559.4 79.259C1558.02 80.065 1556.29 80.468 1554.21 80.468ZM1553.9 62.645C1553.14 62.645 1552.44 62.775 1551.79 63.035C1551.17 63.295 1550.62 63.672 1550.15 64.166C1549.71 64.634 1549.36 65.193 1549.1 65.843C1548.84 66.493 1548.71 67.208 1548.71 67.988V68.261H1558.81V67.871C1558.81 66.285 1558.36 65.024 1557.45 64.088C1556.56 63.126 1555.38 62.645 1553.9 62.645ZM186.971 126.876H203.741V147H199.49V130.308H191.222V147H186.971V126.876ZM211.877 126.876H216.128V130.308H216.362C216.96 129.086 217.753 128.137 218.741 127.461C219.729 126.759 220.964 126.408 222.446 126.408C224.812 126.408 226.697 127.292 228.101 129.06C229.505 130.828 230.207 133.454 230.207 136.938C230.207 140.422 229.505 143.048 228.101 144.816C226.697 146.584 224.812 147.468 222.446 147.468C220.964 147.468 219.729 147.13 218.741 146.454C217.753 145.752 216.96 144.79 216.362 143.568H216.128V154.8H211.877V126.876ZM220.691 143.997C222.303 143.997 223.538 143.503 224.396 142.515C225.28 141.527 225.722 140.214 225.722 138.576V135.3C225.722 133.662 225.28 132.349 224.396 131.361C223.538 130.373 222.303 129.879 220.691 129.879C220.067 129.879 219.482 129.957 218.936 130.113C218.39 130.269 217.909 130.503 217.493 130.815C217.077 131.127 216.739 131.517 216.479 131.985C216.245 132.427 216.128 132.96 216.128 133.584V140.292C216.128 140.916 216.245 141.462 216.479 141.93C216.739 142.372 217.077 142.749 217.493 143.061C217.909 143.373 218.39 143.607 218.936 143.763C219.482 143.919 220.067 143.997 220.691 143.997ZM245.636 147.468C244.154 147.468 242.815 147.221 241.619 146.727C240.449 146.233 239.448 145.531 238.616 144.621C237.81 143.711 237.186 142.606 236.744 141.306C236.302 140.006 236.081 138.55 236.081 136.938C236.081 135.326 236.302 133.87 236.744 132.57C237.186 131.27 237.81 130.165 238.616 129.255C239.448 128.345 240.449 127.643 241.619 127.149C242.815 126.655 244.154 126.408 245.636 126.408C247.118 126.408 248.444 126.655 249.614 127.149C250.81 127.643 251.811 128.345 252.617 129.255C253.449 130.165 254.086 131.27 254.528 132.57C254.97 133.87 255.191 135.326 255.191 136.938C255.191 138.55 254.97 140.006 254.528 141.306C254.086 142.606 253.449 143.711 252.617 144.621C251.811 145.531 250.81 146.233 249.614 146.727C248.444 147.221 247.118 147.468 245.636 147.468ZM245.636 144.114C247.196 144.114 248.431 143.646 249.341 142.71C250.277 141.748 250.745 140.331 250.745 138.459V135.417C250.745 133.545 250.277 132.141 249.341 131.205C248.431 130.243 247.196 129.762 245.636 129.762C244.076 129.762 242.828 130.243 241.892 131.205C240.982 132.141 240.527 133.545 240.527 135.417V138.459C240.527 140.331 240.982 141.748 241.892 142.71C242.828 143.646 244.076 144.114 245.636 144.114ZM296.656 147.468C295.148 147.468 293.796 147.221 292.6 146.727C291.43 146.233 290.429 145.531 289.597 144.621C288.791 143.711 288.167 142.606 287.725 141.306C287.309 140.006 287.101 138.55 287.101 136.938C287.101 135.326 287.309 133.87 287.725 132.57C288.167 131.27 288.791 130.165 289.597 129.255C290.429 128.345 291.43 127.643 292.6 127.149C293.796 126.655 295.135 126.408 296.617 126.408C298.697 126.408 300.361 126.85 301.609 127.734C302.883 128.618 303.832 129.762 304.456 131.166L301.141 132.96C300.777 132.024 300.218 131.283 299.464 130.737C298.736 130.191 297.787 129.918 296.617 129.918C295.005 129.918 293.757 130.412 292.873 131.4C291.989 132.362 291.547 133.649 291.547 135.261V138.615C291.547 140.201 291.989 141.488 292.873 142.476C293.757 143.464 295.031 143.958 296.695 143.958C297.943 143.958 298.957 143.672 299.737 143.1C300.543 142.528 301.18 141.748 301.648 140.76L304.768 142.671C304.118 144.075 303.13 145.232 301.804 146.142C300.478 147.026 298.762 147.468 296.656 147.468ZM318.91 130.308H311.851V126.876H330.259V130.308H323.161V147H318.91V130.308ZM337.576 126.876H341.827V130.308H342.061C342.659 129.086 343.452 128.137 344.44 127.461C345.428 126.759 346.663 126.408 348.145 126.408C350.511 126.408 352.396 127.292 353.8 129.06C355.204 130.828 355.906 133.454 355.906 136.938C355.906 140.422 355.204 143.048 353.8 144.816C352.396 146.584 350.511 147.468 348.145 147.468C346.663 147.468 345.428 147.13 344.44 146.454C343.452 145.752 342.659 144.79 342.061 143.568H341.827V154.8H337.576V126.876ZM346.39 143.997C348.002 143.997 349.237 143.503 350.095 142.515C350.979 141.527 351.421 140.214 351.421 138.576V135.3C351.421 133.662 350.979 132.349 350.095 131.361C349.237 130.373 348.002 129.879 346.39 129.879C345.766 129.879 345.181 129.957 344.635 130.113C344.089 130.269 343.608 130.503 343.192 130.815C342.776 131.127 342.438 131.517 342.178 131.985C341.944 132.427 341.827 132.96 341.827 133.584V140.292C341.827 140.916 341.944 141.462 342.178 141.93C342.438 142.372 342.776 142.749 343.192 143.061C343.608 143.373 344.089 143.607 344.635 143.763C345.181 143.919 345.766 143.997 346.39 143.997ZM371.335 147.468C369.853 147.468 368.514 147.221 367.318 146.727C366.148 146.233 365.147 145.531 364.315 144.621C363.509 143.711 362.885 142.606 362.443 141.306C362.001 140.006 361.78 138.55 361.78 136.938C361.78 135.326 362.001 133.87 362.443 132.57C362.885 131.27 363.509 130.165 364.315 129.255C365.147 128.345 366.148 127.643 367.318 127.149C368.514 126.655 369.853 126.408 371.335 126.408C372.817 126.408 374.143 126.655 375.313 127.149C376.509 127.643 377.51 128.345 378.316 129.255C379.148 130.165 379.785 131.27 380.227 132.57C380.669 133.87 380.89 135.326 380.89 136.938C380.89 138.55 380.669 140.006 380.227 141.306C379.785 142.606 379.148 143.711 378.316 144.621C377.51 145.531 376.509 146.233 375.313 146.727C374.143 147.221 372.817 147.468 371.335 147.468ZM371.335 144.114C372.895 144.114 374.13 143.646 375.04 142.71C375.976 141.748 376.444 140.331 376.444 138.459V135.417C376.444 133.545 375.976 132.141 375.04 131.205C374.13 130.243 372.895 129.762 371.335 129.762C369.775 129.762 368.527 130.243 367.591 131.205C366.681 132.141 366.226 133.545 366.226 135.417V138.459C366.226 140.331 366.681 141.748 367.591 142.71C368.527 143.646 369.775 144.114 371.335 144.114ZM396.904 147.468C395.37 147.468 393.992 147.221 392.77 146.727C391.548 146.233 390.521 145.531 389.689 144.621C388.857 143.711 388.22 142.619 387.778 141.345C387.336 140.045 387.115 138.589 387.115 136.977C387.115 135.365 387.336 133.909 387.778 132.609C388.246 131.309 388.883 130.204 389.689 129.294C390.521 128.358 391.522 127.643 392.692 127.149C393.862 126.655 395.162 126.408 396.592 126.408C397.996 126.408 399.27 126.655 400.414 127.149C401.558 127.617 402.533 128.293 403.339 129.177C404.145 130.061 404.756 131.114 405.172 132.336C405.614 133.558 405.835 134.91 405.835 136.392V137.991H391.405V138.654C391.405 140.24 391.899 141.54 392.887 142.554C393.875 143.542 395.24 144.036 396.982 144.036C398.282 144.036 399.387 143.763 400.297 143.217C401.233 142.645 401.987 141.891 402.559 140.955L405.211 143.295C404.535 144.465 403.495 145.453 402.091 146.259C400.713 147.065 398.984 147.468 396.904 147.468ZM396.592 129.645C395.838 129.645 395.136 129.775 394.486 130.035C393.862 130.295 393.316 130.672 392.848 131.166C392.406 131.634 392.055 132.193 391.795 132.843C391.535 133.493 391.405 134.208 391.405 134.988V135.261H401.506V134.871C401.506 133.285 401.051 132.024 400.141 131.088C399.257 130.126 398.074 129.645 396.592 129.645ZM413.19 126.876H417.441V134.988H425.787V126.876H430.038V147H425.787V138.42H417.441V147H413.19V126.876ZM438.291 126.876H442.503V135.534L442.113 140.994H442.308L451.2 126.876H455.217V147H451.005V138.342L451.395 132.882H451.2L442.308 147H438.291V126.876ZM472.323 147.468C470.789 147.468 469.411 147.221 468.189 146.727C466.967 146.233 465.94 145.531 465.108 144.621C464.276 143.711 463.639 142.619 463.197 141.345C462.755 140.045 462.534 138.589 462.534 136.977C462.534 135.365 462.755 133.909 463.197 132.609C463.665 131.309 464.302 130.204 465.108 129.294C465.94 128.358 466.941 127.643 468.111 127.149C469.281 126.655 470.581 126.408 472.011 126.408C473.415 126.408 474.689 126.655 475.833 127.149C476.977 127.617 477.952 128.293 478.758 129.177C479.564 130.061 480.175 131.114 480.591 132.336C481.033 133.558 481.254 134.91 481.254 136.392V137.991H466.824V138.654C466.824 140.24 467.318 141.54 468.306 142.554C469.294 143.542 470.659 144.036 472.401 144.036C473.701 144.036 474.806 143.763 475.716 143.217C476.652 142.645 477.406 141.891 477.978 140.955L480.63 143.295C479.954 144.465 478.914 145.453 477.51 146.259C476.132 147.065 474.403 147.468 472.323 147.468ZM472.011 129.645C471.257 129.645 470.555 129.775 469.905 130.035C469.281 130.295 468.735 130.672 468.267 131.166C467.825 131.634 467.474 132.193 467.214 132.843C466.954 133.493 466.824 134.208 466.824 134.988V135.261H476.925V134.871C476.925 133.285 476.47 132.024 475.56 131.088C474.676 130.126 473.493 129.645 472.011 129.645ZM494.85 141.072H500.895L496.059 152.655H492.744L494.85 141.072ZM538.07 126.876H543.023L547.391 136.353H547.664L552.032 126.876H556.556V147H552.851V135.651L553.007 132.102H552.734L547.313 143.841L541.892 132.102H541.619L541.775 135.651V147H538.07V126.876ZM579.941 147C578.719 147 577.796 146.688 577.172 146.064C576.574 145.44 576.21 144.621 576.08 143.607H575.885C575.495 144.829 574.78 145.778 573.74 146.454C572.726 147.13 571.426 147.468 569.84 147.468C567.786 147.468 566.148 146.935 564.926 145.869C563.704 144.777 563.093 143.282 563.093 141.384C563.093 139.434 563.808 137.952 565.238 136.938C566.694 135.898 568.917 135.378 571.907 135.378H575.768V133.818C575.768 131.088 574.325 129.723 571.439 129.723C570.139 129.723 569.086 129.983 568.28 130.503C567.474 130.997 566.798 131.66 566.252 132.492L563.717 130.425C564.289 129.333 565.251 128.397 566.603 127.617C567.955 126.811 569.697 126.408 571.829 126.408C574.377 126.408 576.379 127.019 577.835 128.241C579.291 129.463 580.019 131.231 580.019 133.545V143.646H582.554V147H579.941ZM571.049 144.348C572.427 144.348 573.558 144.036 574.442 143.412C575.326 142.788 575.768 141.982 575.768 140.994V138.069H571.985C568.917 138.069 567.383 138.992 567.383 140.838V141.618C567.383 142.528 567.708 143.217 568.358 143.685C569.008 144.127 569.905 144.348 571.049 144.348ZM595.448 130.308H588.389V126.876H606.797V130.308H599.699V147H595.448V130.308ZM623.161 147.468C621.627 147.468 620.249 147.221 619.027 146.727C617.805 146.233 616.778 145.531 615.946 144.621C615.114 143.711 614.477 142.619 614.035 141.345C613.593 140.045 613.372 138.589 613.372 136.977C613.372 135.365 613.593 133.909 614.035 132.609C614.503 131.309 615.14 130.204 615.946 129.294C616.778 128.358 617.779 127.643 618.949 127.149C620.119 126.655 621.419 126.408 622.849 126.408C624.253 126.408 625.527 126.655 626.671 127.149C627.815 127.617 628.79 128.293 629.596 129.177C630.402 130.061 631.013 131.114 631.429 132.336C631.871 133.558 632.092 134.91 632.092 136.392V137.991H617.662V138.654C617.662 140.24 618.156 141.54 619.144 142.554C620.132 143.542 621.497 144.036 623.239 144.036C624.539 144.036 625.644 143.763 626.554 143.217C627.49 142.645 628.244 141.891 628.816 140.955L631.468 143.295C630.792 144.465 629.752 145.453 628.348 146.259C626.97 147.065 625.241 147.468 623.161 147.468ZM622.849 129.645C622.095 129.645 621.393 129.775 620.743 130.035C620.119 130.295 619.573 130.672 619.105 131.166C618.663 131.634 618.312 132.193 618.052 132.843C617.792 133.493 617.662 134.208 617.662 134.988V135.261H627.763V134.871C627.763 133.285 627.308 132.024 626.398 131.088C625.514 130.126 624.331 129.645 622.849 129.645ZM639.253 126.876H643.504V130.308H643.738C644.336 129.086 645.129 128.137 646.117 127.461C647.105 126.759 648.34 126.408 649.822 126.408C652.188 126.408 654.073 127.292 655.477 129.06C656.881 130.828 657.583 133.454 657.583 136.938C657.583 140.422 656.881 143.048 655.477 144.816C654.073 146.584 652.188 147.468 649.822 147.468C648.34 147.468 647.105 147.13 646.117 146.454C645.129 145.752 644.336 144.79 643.738 143.568H643.504V154.8H639.253V126.876ZM648.067 143.997C649.679 143.997 650.914 143.503 651.772 142.515C652.656 141.527 653.098 140.214 653.098 138.576V135.3C653.098 133.662 652.656 132.349 651.772 131.361C650.914 130.373 649.679 129.879 648.067 129.879C647.443 129.879 646.858 129.957 646.312 130.113C645.766 130.269 645.285 130.503 644.869 130.815C644.453 131.127 644.115 131.517 643.855 131.985C643.621 132.427 643.504 132.96 643.504 133.584V140.292C643.504 140.916 643.621 141.462 643.855 141.93C644.115 142.372 644.453 142.749 644.869 143.061C645.285 143.373 645.766 143.607 646.312 143.763C646.858 143.919 647.443 143.997 648.067 143.997ZM664.549 126.876H668.761V135.534L668.371 140.994H668.566L677.458 126.876H681.475V147H677.263V138.342L677.653 132.882H677.458L668.566 147H664.549V126.876ZM705.64 147C704.418 147 703.495 146.688 702.871 146.064C702.273 145.44 701.909 144.621 701.779 143.607H701.584C701.194 144.829 700.479 145.778 699.439 146.454C698.425 147.13 697.125 147.468 695.539 147.468C693.485 147.468 691.847 146.935 690.625 145.869C689.403 144.777 688.792 143.282 688.792 141.384C688.792 139.434 689.507 137.952 690.937 136.938C692.393 135.898 694.616 135.378 697.606 135.378H701.467V133.818C701.467 131.088 700.024 129.723 697.138 129.723C695.838 129.723 694.785 129.983 693.979 130.503C693.173 130.997 692.497 131.66 691.951 132.492L689.416 130.425C689.988 129.333 690.95 128.397 692.302 127.617C693.654 126.811 695.396 126.408 697.528 126.408C700.076 126.408 702.078 127.019 703.534 128.241C704.99 129.463 705.718 131.231 705.718 133.545V143.646H708.253V147H705.64ZM696.748 144.348C698.126 144.348 699.257 144.036 700.141 143.412C701.025 142.788 701.467 141.982 701.467 140.994V138.069H697.684C694.616 138.069 693.082 138.992 693.082 140.838V141.618C693.082 142.528 693.407 143.217 694.057 143.685C694.707 144.127 695.604 144.348 696.748 144.348ZM712.527 143.568H715.14C715.478 143.126 715.777 142.619 716.037 142.047C716.323 141.449 716.544 140.734 716.7 139.902C716.882 139.07 717.012 138.108 717.09 137.016C717.194 135.924 717.246 134.65 717.246 133.194V126.876H731.481V147H727.23V130.308H721.224V133.272C721.224 136.678 720.977 139.343 720.483 141.267C719.989 143.191 719.313 144.595 718.455 145.479C717.857 146.103 717.168 146.519 716.388 146.727C715.608 146.909 714.789 147 713.931 147H712.527V143.568ZM738.447 126.876H742.308V133.506H745.155C747.209 133.506 748.86 134.091 750.108 135.261C751.382 136.431 752.019 138.095 752.019 140.253C752.019 142.411 751.382 144.075 750.108 145.245C748.86 146.415 747.209 147 745.155 147H738.447V126.876ZM744.882 143.802C745.87 143.802 746.637 143.581 747.183 143.139C747.755 142.671 748.041 141.943 748.041 140.955V139.551C748.041 138.563 747.755 137.848 747.183 137.406C746.637 136.938 745.87 136.704 744.882 136.704H742.308V143.802H744.882ZM754.554 126.876H758.415V147H754.554V126.876ZM790.248 126.876H794.46V135.534L794.07 140.994H794.265L803.157 126.876H807.174V147H802.962V138.342L803.352 132.882H803.157L794.265 147H790.248V126.876ZM846.845 130.308H839.786V126.876H858.194V130.308H851.096V147H846.845V130.308ZM874.559 147.468C873.025 147.468 871.647 147.221 870.425 146.727C869.203 146.233 868.176 145.531 867.344 144.621C866.512 143.711 865.875 142.619 865.433 141.345C864.991 140.045 864.77 138.589 864.77 136.977C864.77 135.365 864.991 133.909 865.433 132.609C865.901 131.309 866.538 130.204 867.344 129.294C868.176 128.358 869.177 127.643 870.347 127.149C871.517 126.655 872.817 126.408 874.247 126.408C875.651 126.408 876.925 126.655 878.069 127.149C879.213 127.617 880.188 128.293 880.994 129.177C881.8 130.061 882.411 131.114 882.827 132.336C883.269 133.558 883.49 134.91 883.49 136.392V137.991H869.06V138.654C869.06 140.24 869.554 141.54 870.542 142.554C871.53 143.542 872.895 144.036 874.637 144.036C875.937 144.036 877.042 143.763 877.952 143.217C878.888 142.645 879.642 141.891 880.214 140.955L882.866 143.295C882.19 144.465 881.15 145.453 879.746 146.259C878.368 147.065 876.639 147.468 874.559 147.468ZM874.247 129.645C873.493 129.645 872.791 129.775 872.141 130.035C871.517 130.295 870.971 130.672 870.503 131.166C870.061 131.634 869.71 132.193 869.45 132.843C869.19 133.493 869.06 134.208 869.06 134.988V135.261H879.161V134.871C879.161 133.285 878.706 132.024 877.796 131.088C876.912 130.126 875.729 129.645 874.247 129.645ZM889.325 147L896.813 136.782L889.637 126.876H894.59L897.242 130.698L899.348 133.74H899.582L901.649 130.698L904.301 126.876H908.903L901.688 136.626L909.254 147H904.262L901.259 142.671L899.192 139.707H898.958L896.93 142.671L893.966 147H889.325ZM915.986 126.876H920.237V134.988H928.583V126.876H932.834V147H928.583V138.42H920.237V147H915.986V126.876ZM949.549 147.468C948.067 147.468 946.728 147.221 945.532 146.727C944.362 146.233 943.361 145.531 942.529 144.621C941.723 143.711 941.099 142.606 940.657 141.306C940.215 140.006 939.994 138.55 939.994 136.938C939.994 135.326 940.215 133.87 940.657 132.57C941.099 131.27 941.723 130.165 942.529 129.255C943.361 128.345 944.362 127.643 945.532 127.149C946.728 126.655 948.067 126.408 949.549 126.408C951.031 126.408 952.357 126.655 953.527 127.149C954.723 127.643 955.724 128.345 956.53 129.255C957.362 130.165 957.999 131.27 958.441 132.57C958.883 133.87 959.104 135.326 959.104 136.938C959.104 138.55 958.883 140.006 958.441 141.306C957.999 142.606 957.362 143.711 956.53 144.621C955.724 145.531 954.723 146.233 953.527 146.727C952.357 147.221 951.031 147.468 949.549 147.468ZM949.549 144.114C951.109 144.114 952.344 143.646 953.254 142.71C954.19 141.748 954.658 140.331 954.658 138.459V135.417C954.658 133.545 954.19 132.141 953.254 131.205C952.344 130.243 951.109 129.762 949.549 129.762C947.989 129.762 946.741 130.243 945.805 131.205C944.895 132.141 944.44 133.545 944.44 135.417V138.459C944.44 140.331 944.895 141.748 945.805 142.71C946.741 143.646 947.989 144.114 949.549 144.114ZM963.925 143.568H966.538C966.876 143.126 967.175 142.619 967.435 142.047C967.721 141.449 967.942 140.734 968.098 139.902C968.28 139.07 968.41 138.108 968.488 137.016C968.592 135.924 968.644 134.65 968.644 133.194V126.876H982.879V147H978.628V130.308H972.622V133.272C972.622 136.678 972.375 139.343 971.881 141.267C971.387 143.191 970.711 144.595 969.853 145.479C969.255 146.103 968.566 146.519 967.786 146.727C967.006 146.909 966.187 147 965.329 147H963.925V143.568ZM999.829 147.468C998.347 147.468 997.008 147.221 995.812 146.727C994.642 146.233 993.641 145.531 992.809 144.621C992.003 143.711 991.379 142.606 990.937 141.306C990.495 140.006 990.274 138.55 990.274 136.938C990.274 135.326 990.495 133.87 990.937 132.57C991.379 131.27 992.003 130.165 992.809 129.255C993.641 128.345 994.642 127.643 995.812 127.149C997.008 126.655 998.347 126.408 999.829 126.408C1001.31 126.408 1002.64 126.655 1003.81 127.149C1005 127.643 1006 128.345 1006.81 129.255C1007.64 130.165 1008.28 131.27 1008.72 132.57C1009.16 133.87 1009.38 135.326 1009.38 136.938C1009.38 138.55 1009.16 140.006 1008.72 141.306C1008.28 142.606 1007.64 143.711 1006.81 144.621C1006 145.531 1005 146.233 1003.81 146.727C1002.64 147.221 1001.31 147.468 999.829 147.468ZM999.829 144.114C1001.39 144.114 1002.62 143.646 1003.53 142.71C1004.47 141.748 1004.94 140.331 1004.94 138.459V135.417C1004.94 133.545 1004.47 132.141 1003.53 131.205C1002.62 130.243 1001.39 129.762 999.829 129.762C998.269 129.762 997.021 130.243 996.085 131.205C995.175 132.141 994.72 133.545 994.72 135.417V138.459C994.72 140.331 995.175 141.748 996.085 142.71C997.021 143.646 998.269 144.114 999.829 144.114ZM1018.3 126.876H1033.08V130.308H1022.55V147H1018.3V126.876ZM1041.65 126.876H1045.86V135.534L1045.47 140.994H1045.66L1054.55 126.876H1058.57V147H1054.36V138.342L1054.75 132.882H1054.55L1045.66 147H1041.65V126.876ZM1066.79 126.876H1071V135.534L1070.61 140.994H1070.8L1079.69 126.876H1083.71V147H1079.5V138.342L1079.89 132.882H1079.69L1070.8 147H1066.79V126.876ZM1117.1 126.876H1121.35V134.988H1129.7V126.876H1133.95V147H1129.7V138.42H1121.35V147H1117.1V126.876ZM1150.67 147.468C1149.19 147.468 1147.85 147.221 1146.65 146.727C1145.48 146.233 1144.48 145.531 1143.65 144.621C1142.84 143.711 1142.22 142.606 1141.78 141.306C1141.33 140.006 1141.11 138.55 1141.11 136.938C1141.11 135.326 1141.33 133.87 1141.78 132.57C1142.22 131.27 1142.84 130.165 1143.65 129.255C1144.48 128.345 1145.48 127.643 1146.65 127.149C1147.85 126.655 1149.19 126.408 1150.67 126.408C1152.15 126.408 1153.48 126.655 1154.65 127.149C1155.84 127.643 1156.84 128.345 1157.65 129.255C1158.48 130.165 1159.12 131.27 1159.56 132.57C1160 133.87 1160.22 135.326 1160.22 136.938C1160.22 138.55 1160 140.006 1159.56 141.306C1159.12 142.606 1158.48 143.711 1157.65 144.621C1156.84 145.531 1155.84 146.233 1154.65 146.727C1153.48 147.221 1152.15 147.468 1150.67 147.468ZM1150.67 144.114C1152.23 144.114 1153.46 143.646 1154.37 142.71C1155.31 141.748 1155.78 140.331 1155.78 138.459V135.417C1155.78 133.545 1155.31 132.141 1154.37 131.205C1153.46 130.243 1152.23 129.762 1150.67 129.762C1149.11 129.762 1147.86 130.243 1146.92 131.205C1146.01 132.141 1145.56 133.545 1145.56 135.417V138.459C1145.56 140.331 1146.01 141.748 1146.92 142.71C1147.86 143.646 1149.11 144.114 1150.67 144.114ZM1167.81 126.876H1178.62C1180.36 126.876 1181.71 127.344 1182.67 128.28C1183.63 129.19 1184.11 130.412 1184.11 131.946C1184.11 134.442 1182.75 135.898 1180.02 136.314V136.509C1181.68 136.639 1182.91 137.12 1183.69 137.952C1184.47 138.758 1184.86 139.824 1184.86 141.15C1184.86 141.956 1184.71 142.71 1184.43 143.412C1184.17 144.114 1183.78 144.738 1183.26 145.284C1182.74 145.804 1182.09 146.22 1181.31 146.532C1180.55 146.844 1179.69 147 1178.73 147H1167.81V126.876ZM1177.84 143.802C1178.67 143.802 1179.32 143.607 1179.79 143.217C1180.25 142.801 1180.49 142.216 1180.49 141.462V140.526C1180.49 139.772 1180.25 139.187 1179.79 138.771C1179.34 138.355 1178.75 138.147 1177.99 138.147H1172.06V143.802H1177.84ZM1177.45 135.3C1178.15 135.3 1178.71 135.105 1179.12 134.715C1179.54 134.325 1179.75 133.792 1179.75 133.116V132.258C1179.75 131.582 1179.54 131.049 1179.12 130.659C1178.71 130.269 1178.15 130.074 1177.45 130.074H1172.06V135.3H1177.45ZM1201.38 147.468C1199.84 147.468 1198.46 147.221 1197.24 146.727C1196.02 146.233 1194.99 145.531 1194.16 144.621C1193.33 143.711 1192.69 142.619 1192.25 141.345C1191.81 140.045 1191.59 138.589 1191.59 136.977C1191.59 135.365 1191.81 133.909 1192.25 132.609C1192.72 131.309 1193.36 130.204 1194.16 129.294C1194.99 128.358 1195.99 127.643 1197.16 127.149C1198.33 126.655 1199.63 126.408 1201.06 126.408C1202.47 126.408 1203.74 126.655 1204.89 127.149C1206.03 127.617 1207.01 128.293 1207.81 129.177C1208.62 130.061 1209.23 131.114 1209.64 132.336C1210.09 133.558 1210.31 134.91 1210.31 136.392V137.991H1195.88V138.654C1195.88 140.24 1196.37 141.54 1197.36 142.554C1198.35 143.542 1199.71 144.036 1201.45 144.036C1202.75 144.036 1203.86 143.763 1204.77 143.217C1205.71 142.645 1206.46 141.891 1207.03 140.955L1209.68 143.295C1209.01 144.465 1207.97 145.453 1206.56 146.259C1205.19 147.065 1203.46 147.468 1201.38 147.468ZM1201.06 129.645C1200.31 129.645 1199.61 129.775 1198.96 130.035C1198.33 130.295 1197.79 130.672 1197.32 131.166C1196.88 131.634 1196.53 132.193 1196.27 132.843C1196.01 133.493 1195.88 134.208 1195.88 134.988V135.261H1205.98V134.871C1205.98 133.285 1205.52 132.024 1204.61 131.088C1203.73 130.126 1202.55 129.645 1201.06 129.645ZM1217.62 126.876H1221.84V135.534L1221.45 140.994H1221.64L1230.53 126.876H1234.55V147H1230.34V138.342L1230.73 132.882H1230.53L1221.64 147H1217.62V126.876ZM1226.09 124.224C1224.58 124.224 1223.36 123.899 1222.42 123.249C1221.48 122.573 1220.72 121.572 1220.12 120.246L1219.14 118.062L1222.69 116.814L1224.1 120.948C1224.33 121.052 1224.64 121.13 1225.03 121.182C1225.42 121.208 1225.77 121.221 1226.09 121.221C1226.4 121.221 1226.75 121.208 1227.14 121.182C1227.53 121.13 1227.84 121.052 1228.08 120.948L1229.48 116.814L1233.03 118.062L1232.05 120.246C1231.46 121.572 1230.69 122.573 1229.75 123.249C1228.82 123.899 1227.59 124.224 1226.09 124.224ZM1241.24 126.876H1244.87V143.724H1249.39V126.876H1253.02V143.724H1257.54V126.876H1261.17V147H1241.24V126.876ZM1276.8 147.468C1275.26 147.468 1273.88 147.221 1272.66 146.727C1271.44 146.233 1270.41 145.531 1269.58 144.621C1268.75 143.711 1268.11 142.619 1267.67 141.345C1267.23 140.045 1267.01 138.589 1267.01 136.977C1267.01 135.365 1267.23 133.909 1267.67 132.609C1268.14 131.309 1268.77 130.204 1269.58 129.294C1270.41 128.358 1271.41 127.643 1272.58 127.149C1273.75 126.655 1275.05 126.408 1276.48 126.408C1277.89 126.408 1279.16 126.655 1280.31 127.149C1281.45 127.617 1282.42 128.293 1283.23 129.177C1284.04 130.061 1284.65 131.114 1285.06 132.336C1285.51 133.558 1285.73 134.91 1285.73 136.392V137.991H1271.3V138.654C1271.3 140.24 1271.79 141.54 1272.78 142.554C1273.77 143.542 1275.13 144.036 1276.87 144.036C1278.17 144.036 1279.28 143.763 1280.19 143.217C1281.12 142.645 1281.88 141.891 1282.45 140.955L1285.1 143.295C1284.43 144.465 1283.39 145.453 1281.98 146.259C1280.6 147.065 1278.88 147.468 1276.8 147.468ZM1276.48 129.645C1275.73 129.645 1275.03 129.775 1274.38 130.035C1273.75 130.295 1273.21 130.672 1272.74 131.166C1272.3 131.634 1271.95 132.193 1271.69 132.843C1271.43 133.493 1271.3 134.208 1271.3 134.988V135.261H1281.4V134.871C1281.4 133.285 1280.94 132.024 1280.03 131.088C1279.15 130.126 1277.97 129.645 1276.48 129.645ZM1294.84 126.876H1309.62V130.308H1299.09V147H1294.84V126.876ZM1326.65 147.468C1325.16 147.468 1323.82 147.221 1322.63 146.727C1321.46 146.233 1320.46 145.531 1319.63 144.621C1318.82 143.711 1318.2 142.606 1317.75 141.306C1317.31 140.006 1317.09 138.55 1317.09 136.938C1317.09 135.326 1317.31 133.87 1317.75 132.57C1318.2 131.27 1318.82 130.165 1319.63 129.255C1320.46 128.345 1321.46 127.643 1322.63 127.149C1323.82 126.655 1325.16 126.408 1326.65 126.408C1328.13 126.408 1329.45 126.655 1330.62 127.149C1331.82 127.643 1332.82 128.345 1333.63 129.255C1334.46 130.165 1335.1 131.27 1335.54 132.57C1335.98 133.87 1336.2 135.326 1336.2 136.938C1336.2 138.55 1335.98 140.006 1335.54 141.306C1335.1 142.606 1334.46 143.711 1333.63 144.621C1332.82 145.531 1331.82 146.233 1330.62 146.727C1329.45 147.221 1328.13 147.468 1326.65 147.468ZM1326.65 144.114C1328.21 144.114 1329.44 143.646 1330.35 142.71C1331.29 141.748 1331.75 140.331 1331.75 138.459V135.417C1331.75 133.545 1331.29 132.141 1330.35 131.205C1329.44 130.243 1328.21 129.762 1326.65 129.762C1325.09 129.762 1323.84 130.243 1322.9 131.205C1321.99 132.141 1321.54 133.545 1321.54 135.417V138.459C1321.54 140.331 1321.99 141.748 1322.9 142.71C1323.84 143.646 1325.09 144.114 1326.65 144.114ZM1368.93 126.876H1379.73C1381.48 126.876 1382.83 127.344 1383.79 128.28C1384.75 129.19 1385.23 130.412 1385.23 131.946C1385.23 134.442 1383.87 135.898 1381.14 136.314V136.509C1382.8 136.639 1384.02 137.12 1384.8 137.952C1385.58 138.758 1385.97 139.824 1385.97 141.15C1385.97 141.956 1385.83 142.71 1385.54 143.412C1385.28 144.114 1384.89 144.738 1384.37 145.284C1383.85 145.804 1383.2 146.22 1382.42 146.532C1381.67 146.844 1380.81 147 1379.85 147H1368.93V126.876ZM1378.95 143.802C1379.79 143.802 1380.44 143.607 1380.9 143.217C1381.37 142.801 1381.61 142.216 1381.61 141.462V140.526C1381.61 139.772 1381.37 139.187 1380.9 138.771C1380.46 138.355 1379.86 138.147 1379.11 138.147H1373.18V143.802H1378.95ZM1378.56 135.3C1379.27 135.3 1379.82 135.105 1380.24 134.715C1380.66 134.325 1380.86 133.792 1380.86 133.116V132.258C1380.86 131.582 1380.66 131.049 1380.24 130.659C1379.82 130.269 1379.27 130.074 1378.56 130.074H1373.18V135.3H1378.56ZM1393.45 126.876H1397.7V130.308H1397.93C1398.53 129.086 1399.32 128.137 1400.31 127.461C1401.3 126.759 1402.53 126.408 1404.02 126.408C1406.38 126.408 1408.27 127.292 1409.67 129.06C1411.07 130.828 1411.78 133.454 1411.78 136.938C1411.78 140.422 1411.07 143.048 1409.67 144.816C1408.27 146.584 1406.38 147.468 1404.02 147.468C1402.53 147.468 1401.3 147.13 1400.31 146.454C1399.32 145.752 1398.53 144.79 1397.93 143.568H1397.7V154.8H1393.45V126.876ZM1402.26 143.997C1403.87 143.997 1405.11 143.503 1405.97 142.515C1406.85 141.527 1407.29 140.214 1407.29 138.576V135.3C1407.29 133.662 1406.85 132.349 1405.97 131.361C1405.11 130.373 1403.87 129.879 1402.26 129.879C1401.64 129.879 1401.05 129.957 1400.51 130.113C1399.96 130.269 1399.48 130.503 1399.06 130.815C1398.65 131.127 1398.31 131.517 1398.05 131.985C1397.81 132.427 1397.7 132.96 1397.7 133.584V140.292C1397.7 140.916 1397.81 141.462 1398.05 141.93C1398.31 142.372 1398.65 142.749 1399.06 143.061C1399.48 143.373 1399.96 143.607 1400.51 143.763C1401.05 143.919 1401.64 143.997 1402.26 143.997ZM1427.63 147.468C1426.1 147.468 1424.72 147.221 1423.5 146.727C1422.28 146.233 1421.25 145.531 1420.42 144.621C1419.59 143.711 1418.95 142.619 1418.51 141.345C1418.07 140.045 1417.84 138.589 1417.84 136.977C1417.84 135.365 1418.07 133.909 1418.51 132.609C1418.98 131.309 1419.61 130.204 1420.42 129.294C1421.25 128.358 1422.25 127.643 1423.42 127.149C1424.59 126.655 1425.89 126.408 1427.32 126.408C1428.73 126.408 1430 126.655 1431.14 127.149C1432.29 127.617 1433.26 128.293 1434.07 129.177C1434.87 130.061 1435.49 131.114 1435.9 132.336C1436.34 133.558 1436.56 134.91 1436.56 136.392V137.991H1422.13V138.654C1422.13 140.24 1422.63 141.54 1423.62 142.554C1424.6 143.542 1425.97 144.036 1427.71 144.036C1429.01 144.036 1430.12 143.763 1431.03 143.217C1431.96 142.645 1432.72 141.891 1433.29 140.955L1435.94 143.295C1435.26 144.465 1434.22 145.453 1432.82 146.259C1431.44 147.065 1429.71 147.468 1427.63 147.468ZM1427.32 129.645C1426.57 129.645 1425.87 129.775 1425.22 130.035C1424.59 130.295 1424.05 130.672 1423.58 131.166C1423.14 131.634 1422.78 132.193 1422.52 132.843C1422.26 133.493 1422.13 134.208 1422.13 134.988V135.261H1432.24V134.871C1432.24 133.285 1431.78 132.024 1430.87 131.088C1429.99 130.126 1428.8 129.645 1427.32 129.645ZM1443.1 126.876H1448.05L1452.42 136.353H1452.7L1457.06 126.876H1461.59V147H1457.88V135.651L1458.04 132.102H1457.77L1452.34 143.841L1446.92 132.102H1446.65L1446.81 135.651V147H1443.1V126.876ZM1477.91 147.468C1476.38 147.468 1475 147.221 1473.78 146.727C1472.56 146.233 1471.53 145.531 1470.7 144.621C1469.87 143.711 1469.23 142.619 1468.79 141.345C1468.35 140.045 1468.12 138.589 1468.12 136.977C1468.12 135.365 1468.35 133.909 1468.79 132.609C1469.26 131.309 1469.89 130.204 1470.7 129.294C1471.53 128.358 1472.53 127.643 1473.7 127.149C1474.87 126.655 1476.17 126.408 1477.6 126.408C1479.01 126.408 1480.28 126.655 1481.42 127.149C1482.57 127.617 1483.54 128.293 1484.35 129.177C1485.15 130.061 1485.77 131.114 1486.18 132.336C1486.62 133.558 1486.84 134.91 1486.84 136.392V137.991H1472.41V138.654C1472.41 140.24 1472.91 141.54 1473.9 142.554C1474.88 143.542 1476.25 144.036 1477.99 144.036C1479.29 144.036 1480.4 143.763 1481.31 143.217C1482.24 142.645 1483 141.891 1483.57 140.955L1486.22 143.295C1485.54 144.465 1484.5 145.453 1483.1 146.259C1481.72 147.065 1479.99 147.468 1477.91 147.468ZM1477.6 129.645C1476.85 129.645 1476.15 129.775 1475.5 130.035C1474.87 130.295 1474.33 130.672 1473.86 131.166C1473.42 131.634 1473.06 132.193 1472.8 132.843C1472.54 133.493 1472.41 134.208 1472.41 134.988V135.261H1482.52V134.871C1482.52 133.285 1482.06 132.024 1481.15 131.088C1480.27 130.126 1479.08 129.645 1477.6 129.645ZM1494.2 126.876H1498.45V134.988H1506.8V126.876H1511.05V147H1506.8V138.42H1498.45V147H1494.2V126.876ZM1519.3 126.876H1523.51V135.534L1523.12 140.994H1523.32L1532.21 126.876H1536.23V147H1532.01V138.342L1532.4 132.882H1532.21L1523.32 147H1519.3V126.876ZM1550.72 141.072H1556.76L1551.93 152.655H1548.61L1550.72 141.072ZM288.681 193.876H292.932V201.988H296.559L301.395 193.876H305.958L301.473 201.208C301.031 201.962 300.602 202.495 300.186 202.807C299.77 203.119 299.289 203.34 298.743 203.47V203.665C299.367 203.795 299.887 204.029 300.303 204.367C300.719 204.679 301.148 205.225 301.59 206.005L304.125 210.568H306.309V214H303.813C302.955 214 302.214 213.805 301.59 213.415C300.992 212.999 300.433 212.336 299.913 211.426L296.559 205.42H292.932V214H288.681V193.876ZM321.933 214.468C320.451 214.468 319.112 214.221 317.916 213.727C316.746 213.233 315.745 212.531 314.913 211.621C314.107 210.711 313.483 209.606 313.041 208.306C312.599 207.006 312.378 205.55 312.378 203.938C312.378 202.326 312.599 200.87 313.041 199.57C313.483 198.27 314.107 197.165 314.913 196.255C315.745 195.345 316.746 194.643 317.916 194.149C319.112 193.655 320.451 193.408 321.933 193.408C323.415 193.408 324.741 193.655 325.911 194.149C327.107 194.643 328.108 195.345 328.914 196.255C329.746 197.165 330.383 198.27 330.825 199.57C331.267 200.87 331.488 202.326 331.488 203.938C331.488 205.55 331.267 207.006 330.825 208.306C330.383 209.606 329.746 210.711 328.914 211.621C328.108 212.531 327.107 213.233 325.911 213.727C324.741 214.221 323.415 214.468 321.933 214.468ZM321.933 211.114C323.493 211.114 324.728 210.646 325.638 209.71C326.574 208.748 327.042 207.331 327.042 205.459V202.417C327.042 200.545 326.574 199.141 325.638 198.205C324.728 197.243 323.493 196.762 321.933 196.762C320.373 196.762 319.125 197.243 318.189 198.205C317.279 199.141 316.824 200.545 316.824 202.417V205.459C316.824 207.331 317.279 208.748 318.189 209.71C319.125 210.646 320.373 211.114 321.933 211.114ZM344.928 197.308H337.869V193.876H356.277V197.308H349.179V214H344.928V197.308ZM372.212 214.468C370.73 214.468 369.391 214.221 368.195 213.727C367.025 213.233 366.024 212.531 365.192 211.621C364.386 210.711 363.762 209.606 363.32 208.306C362.878 207.006 362.657 205.55 362.657 203.938C362.657 202.326 362.878 200.87 363.32 199.57C363.762 198.27 364.386 197.165 365.192 196.255C366.024 195.345 367.025 194.643 368.195 194.149C369.391 193.655 370.73 193.408 372.212 193.408C373.694 193.408 375.02 193.655 376.19 194.149C377.386 194.643 378.387 195.345 379.193 196.255C380.025 197.165 380.662 198.27 381.104 199.57C381.546 200.87 381.767 202.326 381.767 203.938C381.767 205.55 381.546 207.006 381.104 208.306C380.662 209.606 380.025 210.711 379.193 211.621C378.387 212.531 377.386 213.233 376.19 213.727C375.02 214.221 373.694 214.468 372.212 214.468ZM372.212 211.114C373.772 211.114 375.007 210.646 375.917 209.71C376.853 208.748 377.321 207.331 377.321 205.459V202.417C377.321 200.545 376.853 199.141 375.917 198.205C375.007 197.243 373.772 196.762 372.212 196.762C370.652 196.762 369.404 197.243 368.468 198.205C367.558 199.141 367.103 200.545 367.103 202.417V205.459C367.103 207.331 367.558 208.748 368.468 209.71C369.404 210.646 370.652 211.114 372.212 211.114ZM388.733 193.876H392.984V197.308H393.218C393.816 196.086 394.609 195.137 395.597 194.461C396.585 193.759 397.82 193.408 399.302 193.408C401.668 193.408 403.553 194.292 404.957 196.06C406.361 197.828 407.063 200.454 407.063 203.938C407.063 207.422 406.361 210.048 404.957 211.816C403.553 213.584 401.668 214.468 399.302 214.468C397.82 214.468 396.585 214.13 395.597 213.454C394.609 212.752 393.816 211.79 393.218 210.568H392.984V221.8H388.733V193.876ZM397.547 210.997C399.159 210.997 400.394 210.503 401.252 209.515C402.136 208.527 402.578 207.214 402.578 205.576V202.3C402.578 200.662 402.136 199.349 401.252 198.361C400.394 197.373 399.159 196.879 397.547 196.879C396.923 196.879 396.338 196.957 395.792 197.113C395.246 197.269 394.765 197.503 394.349 197.815C393.933 198.127 393.595 198.517 393.335 198.985C393.101 199.427 392.984 199.96 392.984 200.584V207.292C392.984 207.916 393.101 208.462 393.335 208.93C393.595 209.372 393.933 209.749 394.349 210.061C394.765 210.373 395.246 210.607 395.792 210.763C396.338 210.919 396.923 210.997 397.547 210.997ZM412.508 193.876H416.369V200.506H419.216C421.27 200.506 422.921 201.091 424.169 202.261C425.443 203.431 426.08 205.095 426.08 207.253C426.08 209.411 425.443 211.075 424.169 212.245C422.921 213.415 421.27 214 419.216 214H412.508V193.876ZM418.943 210.802C419.931 210.802 420.698 210.581 421.244 210.139C421.816 209.671 422.102 208.943 422.102 207.955V206.551C422.102 205.563 421.816 204.848 421.244 204.406C420.698 203.938 419.931 203.704 418.943 203.704H416.369V210.802H418.943ZM428.615 193.876H432.476V214H428.615V193.876ZM448.061 214.468C446.527 214.468 445.149 214.221 443.927 213.727C442.705 213.233 441.678 212.531 440.846 211.621C440.014 210.711 439.377 209.619 438.935 208.345C438.493 207.045 438.272 205.589 438.272 203.977C438.272 202.365 438.493 200.909 438.935 199.609C439.403 198.309 440.04 197.204 440.846 196.294C441.678 195.358 442.679 194.643 443.849 194.149C445.019 193.655 446.319 193.408 447.749 193.408C449.153 193.408 450.427 193.655 451.571 194.149C452.715 194.617 453.69 195.293 454.496 196.177C455.302 197.061 455.913 198.114 456.329 199.336C456.771 200.558 456.992 201.91 456.992 203.392V204.991H442.562V205.654C442.562 207.24 443.056 208.54 444.044 209.554C445.032 210.542 446.397 211.036 448.139 211.036C449.439 211.036 450.544 210.763 451.454 210.217C452.39 209.645 453.144 208.891 453.716 207.955L456.368 210.295C455.692 211.465 454.652 212.453 453.248 213.259C451.87 214.065 450.141 214.468 448.061 214.468ZM447.749 196.645C446.995 196.645 446.293 196.775 445.643 197.035C445.019 197.295 444.473 197.672 444.005 198.166C443.563 198.634 443.212 199.193 442.952 199.843C442.692 200.493 442.562 201.208 442.562 201.988V202.261H452.663V201.871C452.663 200.285 452.208 199.024 451.298 198.088C450.414 197.126 449.231 196.645 447.749 196.645ZM489.448 193.876H493.66V202.534L493.27 207.994H493.465L502.357 193.876H506.374V214H502.162V205.342L502.552 199.882H502.357L493.465 214H489.448V193.876ZM523.792 214.468C522.284 214.468 520.932 214.221 519.736 213.727C518.566 213.233 517.565 212.531 516.733 211.621C515.927 210.711 515.303 209.606 514.861 208.306C514.445 207.006 514.237 205.55 514.237 203.938C514.237 202.326 514.445 200.87 514.861 199.57C515.303 198.27 515.927 197.165 516.733 196.255C517.565 195.345 518.566 194.643 519.736 194.149C520.932 193.655 522.271 193.408 523.753 193.408C525.833 193.408 527.497 193.85 528.745 194.734C530.019 195.618 530.968 196.762 531.592 198.166L528.277 199.96C527.913 199.024 527.354 198.283 526.6 197.737C525.872 197.191 524.923 196.918 523.753 196.918C522.141 196.918 520.893 197.412 520.009 198.4C519.125 199.362 518.683 200.649 518.683 202.261V205.615C518.683 207.201 519.125 208.488 520.009 209.476C520.893 210.464 522.167 210.958 523.831 210.958C525.079 210.958 526.093 210.672 526.873 210.1C527.679 209.528 528.316 208.748 528.784 207.76L531.904 209.671C531.254 211.075 530.266 212.232 528.94 213.142C527.614 214.026 525.898 214.468 523.792 214.468ZM539.806 193.876H556.576V214H552.325V197.308H544.057V214H539.806V193.876ZM573.33 214.468C571.848 214.468 570.509 214.221 569.313 213.727C568.143 213.233 567.142 212.531 566.31 211.621C565.504 210.711 564.88 209.606 564.438 208.306C563.996 207.006 563.775 205.55 563.775 203.938C563.775 202.326 563.996 200.87 564.438 199.57C564.88 198.27 565.504 197.165 566.31 196.255C567.142 195.345 568.143 194.643 569.313 194.149C570.509 193.655 571.848 193.408 573.33 193.408C574.812 193.408 576.138 193.655 577.308 194.149C578.504 194.643 579.505 195.345 580.311 196.255C581.143 197.165 581.78 198.27 582.222 199.57C582.664 200.87 582.885 202.326 582.885 203.938C582.885 205.55 582.664 207.006 582.222 208.306C581.78 209.606 581.143 210.711 580.311 211.621C579.505 212.531 578.504 213.233 577.308 213.727C576.138 214.221 574.812 214.468 573.33 214.468ZM573.33 211.114C574.89 211.114 576.125 210.646 577.035 209.71C577.971 208.748 578.439 207.331 578.439 205.459V202.417C578.439 200.545 577.971 199.141 577.035 198.205C576.125 197.243 574.89 196.762 573.33 196.762C571.77 196.762 570.522 197.243 569.586 198.205C568.676 199.141 568.221 200.545 568.221 202.417V205.459C568.221 207.331 568.676 208.748 569.586 209.71C570.522 210.646 571.77 211.114 573.33 211.114ZM587.706 210.568H590.319C590.657 210.126 590.956 209.619 591.216 209.047C591.502 208.449 591.723 207.734 591.879 206.902C592.061 206.07 592.191 205.108 592.269 204.016C592.373 202.924 592.425 201.65 592.425 200.194V193.876H606.66V214H602.409V197.308H596.403V200.272C596.403 203.678 596.156 206.343 595.662 208.267C595.168 210.191 594.492 211.595 593.634 212.479C593.036 213.103 592.347 213.519 591.567 213.727C590.787 213.909 589.968 214 589.11 214H587.706V210.568ZM615.81 193.876H620.061V200.506H625.794C627.874 200.506 629.538 201.091 630.786 202.261C632.034 203.431 632.658 205.095 632.658 207.253C632.658 209.411 632.034 211.075 630.786 212.245C629.538 213.415 627.874 214 625.794 214H615.81V193.876ZM625.053 210.685C626.041 210.685 626.821 210.451 627.393 209.983C627.991 209.515 628.29 208.826 628.29 207.916V206.59C628.29 205.68 627.991 204.991 627.393 204.523C626.821 204.055 626.041 203.821 625.053 203.821H620.061V210.685H625.053ZM648.204 214.468C646.02 214.468 644.2 214.13 642.744 213.454C641.288 212.778 640.131 211.842 639.273 210.646L642.003 208.228C642.679 209.164 643.498 209.879 644.46 210.373C645.448 210.841 646.683 211.075 648.165 211.075C649.725 211.075 650.882 210.815 651.636 210.295C652.39 209.775 652.767 209.099 652.767 208.267V207.877C652.767 207.045 652.507 206.408 651.987 205.966C651.467 205.524 650.674 205.303 649.608 205.303H644.499V202.183H649.179C650.271 202.183 651.064 201.975 651.558 201.559C652.078 201.117 652.338 200.506 652.338 199.726V199.336C652.338 198.582 652.013 197.971 651.363 197.503C650.713 197.035 649.634 196.801 648.126 196.801C646.722 196.801 645.565 197.035 644.655 197.503C643.745 197.945 642.952 198.595 642.276 199.453L639.663 197.347C640.625 196.099 641.782 195.137 643.134 194.461C644.512 193.759 646.293 193.408 648.477 193.408C651.181 193.408 653.235 193.915 654.639 194.929C656.043 195.917 656.745 197.23 656.745 198.868C656.745 200.064 656.394 201.039 655.692 201.793C655.016 202.547 654.067 203.067 652.845 203.353V203.509C654.171 203.717 655.211 204.237 655.965 205.069C656.745 205.875 657.135 206.941 657.135 208.267C657.135 210.139 656.355 211.647 654.795 212.791C653.235 213.909 651.038 214.468 648.204 214.468ZM679.779 193.876H684.069L674.319 217.9C673.799 219.2 673.11 220.175 672.252 220.825C671.42 221.475 670.211 221.8 668.625 221.8H665.232V218.368H669.99L671.823 213.727L663.711 193.876H668.157L671.355 202.3L673.851 209.203H674.085L676.581 202.3L679.779 193.876ZM702.578 214.468C701.538 214.468 700.615 214.312 699.809 214C699.029 213.714 698.353 213.22 697.781 212.518C697.235 211.79 696.806 210.841 696.494 209.671C696.208 208.501 696.026 207.032 695.948 205.264H692.75V214H689.045V193.876H692.75V202.144H695.987C696.065 200.48 696.26 199.089 696.572 197.971C696.91 196.853 697.352 195.956 697.898 195.28C698.444 194.604 699.107 194.123 699.887 193.837C700.667 193.551 701.564 193.408 702.578 193.408C703.67 193.408 704.632 193.577 705.464 193.915C706.296 194.253 706.985 194.825 707.531 195.631C708.103 196.437 708.519 197.516 708.779 198.868C709.065 200.22 709.208 201.91 709.208 203.938C709.208 205.966 709.065 207.656 708.779 209.008C708.493 210.36 708.077 211.439 707.531 212.245C706.985 213.051 706.296 213.623 705.464 213.961C704.632 214.299 703.67 214.468 702.578 214.468ZM702.578 211.231C703.046 211.231 703.449 211.153 703.787 210.997C704.151 210.841 704.437 210.568 704.645 210.178C704.879 209.788 705.048 209.255 705.152 208.579C705.282 207.877 705.347 206.98 705.347 205.888V201.988C705.347 200.896 705.282 200.012 705.152 199.336C705.048 198.634 704.879 198.088 704.645 197.698C704.437 197.308 704.151 197.035 703.787 196.879C703.449 196.723 703.046 196.645 702.578 196.645C702.11 196.645 701.694 196.723 701.33 196.879C700.992 197.035 700.706 197.308 700.472 197.698C700.264 198.088 700.095 198.634 699.965 199.336C699.861 200.012 699.809 200.896 699.809 201.988V205.888C699.809 206.98 699.861 207.877 699.965 208.579C700.095 209.255 700.264 209.788 700.472 210.178C700.706 210.568 700.992 210.841 701.33 210.997C701.694 211.153 702.11 211.231 702.578 211.231ZM722.024 197.308H714.965V193.876H733.373V197.308H726.275V214H722.024V197.308ZM750.05 214.468C748.542 214.468 747.19 214.221 745.994 213.727C744.824 213.233 743.823 212.531 742.991 211.621C742.185 210.711 741.561 209.606 741.119 208.306C740.703 207.006 740.495 205.55 740.495 203.938C740.495 202.326 740.703 200.87 741.119 199.57C741.561 198.27 742.185 197.165 742.991 196.255C743.823 195.345 744.824 194.643 745.994 194.149C747.19 193.655 748.529 193.408 750.011 193.408C752.091 193.408 753.755 193.85 755.003 194.734C756.277 195.618 757.226 196.762 757.85 198.166L754.535 199.96C754.171 199.024 753.612 198.283 752.858 197.737C752.13 197.191 751.181 196.918 750.011 196.918C748.399 196.918 747.151 197.412 746.267 198.4C745.383 199.362 744.941 200.649 744.941 202.261V205.615C744.941 207.201 745.383 208.488 746.267 209.476C747.151 210.464 748.425 210.958 750.089 210.958C751.337 210.958 752.351 210.672 753.131 210.1C753.937 209.528 754.574 208.748 755.042 207.76L758.162 209.671C757.512 211.075 756.524 212.232 755.198 213.142C753.872 214.026 752.156 214.468 750.05 214.468ZM765.011 210.568H767.312L768.755 207.916C769.067 207.318 769.431 206.889 769.847 206.629C770.263 206.343 770.77 206.174 771.368 206.122V205.966C769.704 205.836 768.352 205.303 767.312 204.367C766.272 203.431 765.752 202.053 765.752 200.233C765.752 199.271 765.908 198.4 766.22 197.62C766.532 196.84 766.974 196.177 767.546 195.631C768.144 195.059 768.846 194.63 769.652 194.344C770.484 194.032 771.407 193.876 772.421 193.876H782.405V214H778.154V206.512H774.371L771.758 211.27C771.238 212.258 770.666 212.96 770.042 213.376C769.418 213.792 768.612 214 767.624 214H765.011V210.568ZM778.154 197.191H773.201C772.213 197.191 771.446 197.425 770.9 197.893C770.38 198.335 770.12 198.959 770.12 199.765V200.779C770.12 201.585 770.38 202.222 770.9 202.69C771.446 203.132 772.213 203.353 773.201 203.353H778.154V197.191ZM816.733 193.876H827.536C829.278 193.876 830.63 194.344 831.592 195.28C832.554 196.19 833.035 197.412 833.035 198.946C833.035 201.442 831.67 202.898 828.94 203.314V203.509C830.604 203.639 831.826 204.12 832.606 204.952C833.386 205.758 833.776 206.824 833.776 208.15C833.776 208.956 833.633 209.71 833.347 210.412C833.087 211.114 832.697 211.738 832.177 212.284C831.657 212.804 831.007 213.22 830.227 213.532C829.473 213.844 828.615 214 827.653 214H816.733V193.876ZM826.756 210.802C827.588 210.802 828.238 210.607 828.706 210.217C829.174 209.801 829.408 209.216 829.408 208.462V207.526C829.408 206.772 829.174 206.187 828.706 205.771C828.264 205.355 827.666 205.147 826.912 205.147H820.984V210.802H826.756ZM826.366 202.3C827.068 202.3 827.627 202.105 828.043 201.715C828.459 201.325 828.667 200.792 828.667 200.116V199.258C828.667 198.582 828.459 198.049 828.043 197.659C827.627 197.269 827.068 197.074 826.366 197.074H820.984V202.3H826.366ZM866.623 193.876H883.393V214H879.142V197.308H870.874V214H866.623V193.876ZM900.576 214.468C899.042 214.468 897.664 214.221 896.442 213.727C895.22 213.233 894.193 212.531 893.361 211.621C892.529 210.711 891.892 209.619 891.45 208.345C891.008 207.045 890.787 205.589 890.787 203.977C890.787 202.365 891.008 200.909 891.45 199.609C891.918 198.309 892.555 197.204 893.361 196.294C894.193 195.358 895.194 194.643 896.364 194.149C897.534 193.655 898.834 193.408 900.264 193.408C901.668 193.408 902.942 193.655 904.086 194.149C905.23 194.617 906.205 195.293 907.011 196.177C907.817 197.061 908.428 198.114 908.844 199.336C909.286 200.558 909.507 201.91 909.507 203.392V204.991H895.077V205.654C895.077 207.24 895.571 208.54 896.559 209.554C897.547 210.542 898.912 211.036 900.654 211.036C901.954 211.036 903.059 210.763 903.969 210.217C904.905 209.645 905.659 208.891 906.231 207.955L908.883 210.295C908.207 211.465 907.167 212.453 905.763 213.259C904.385 214.065 902.656 214.468 900.576 214.468ZM900.264 196.645C899.51 196.645 898.808 196.775 898.158 197.035C897.534 197.295 896.988 197.672 896.52 198.166C896.078 198.634 895.727 199.193 895.467 199.843C895.207 200.493 895.077 201.208 895.077 201.988V202.261H905.178V201.871C905.178 200.285 904.723 199.024 903.813 198.088C902.929 197.126 901.746 196.645 900.264 196.645ZM916.668 193.876H920.919V197.308H921.153C921.751 196.086 922.544 195.137 923.532 194.461C924.52 193.759 925.755 193.408 927.237 193.408C929.603 193.408 931.488 194.292 932.892 196.06C934.296 197.828 934.998 200.454 934.998 203.938C934.998 207.422 934.296 210.048 932.892 211.816C931.488 213.584 929.603 214.468 927.237 214.468C925.755 214.468 924.52 214.13 923.532 213.454C922.544 212.752 921.751 211.79 921.153 210.568H920.919V221.8H916.668V193.876ZM925.482 210.997C927.094 210.997 928.329 210.503 929.187 209.515C930.071 208.527 930.513 207.214 930.513 205.576V202.3C930.513 200.662 930.071 199.349 929.187 198.361C928.329 197.373 927.094 196.879 925.482 196.879C924.858 196.879 924.273 196.957 923.727 197.113C923.181 197.269 922.7 197.503 922.284 197.815C921.868 198.127 921.53 198.517 921.27 198.985C921.036 199.427 920.919 199.96 920.919 200.584V207.292C920.919 207.916 921.036 208.462 921.27 208.93C921.53 209.372 921.868 209.749 922.284 210.061C922.7 210.373 923.181 210.607 923.727 210.763C924.273 210.919 924.858 210.997 925.482 210.997ZM950.856 214.468C949.322 214.468 947.944 214.221 946.722 213.727C945.5 213.233 944.473 212.531 943.641 211.621C942.809 210.711 942.172 209.619 941.73 208.345C941.288 207.045 941.067 205.589 941.067 203.977C941.067 202.365 941.288 200.909 941.73 199.609C942.198 198.309 942.835 197.204 943.641 196.294C944.473 195.358 945.474 194.643 946.644 194.149C947.814 193.655 949.114 193.408 950.544 193.408C951.948 193.408 953.222 193.655 954.366 194.149C955.51 194.617 956.485 195.293 957.291 196.177C958.097 197.061 958.708 198.114 959.124 199.336C959.566 200.558 959.787 201.91 959.787 203.392V204.991H945.357V205.654C945.357 207.24 945.851 208.54 946.839 209.554C947.827 210.542 949.192 211.036 950.934 211.036C952.234 211.036 953.339 210.763 954.249 210.217C955.185 209.645 955.939 208.891 956.511 207.955L959.163 210.295C958.487 211.465 957.447 212.453 956.043 213.259C954.665 214.065 952.936 214.468 950.856 214.468ZM950.544 196.645C949.79 196.645 949.088 196.775 948.438 197.035C947.814 197.295 947.268 197.672 946.8 198.166C946.358 198.634 946.007 199.193 945.747 199.843C945.487 200.493 945.357 201.208 945.357 201.988V202.261H955.458V201.871C955.458 200.285 955.003 199.024 954.093 198.088C953.209 197.126 952.026 196.645 950.544 196.645ZM964.53 210.568H966.831C967.585 209.372 968.183 207.929 968.625 206.239C969.067 204.523 969.288 202.495 969.288 200.155V193.876H983.016V210.568H986.253V219.46H982.431V214H968.352V219.46H964.53V210.568ZM978.843 210.568V197.308H973.266V200.311C973.266 202.599 973.084 204.575 972.72 206.239C972.382 207.877 971.875 209.32 971.199 210.568H978.843ZM1000.71 214.468C999.224 214.468 997.885 214.221 996.689 213.727C995.519 213.233 994.518 212.531 993.686 211.621C992.88 210.711 992.256 209.606 991.814 208.306C991.372 207.006 991.151 205.55 991.151 203.938C991.151 202.326 991.372 200.87 991.814 199.57C992.256 198.27 992.88 197.165 993.686 196.255C994.518 195.345 995.519 194.643 996.689 194.149C997.885 193.655 999.224 193.408 1000.71 193.408C1002.19 193.408 1003.51 193.655 1004.68 194.149C1005.88 194.643 1006.88 195.345 1007.69 196.255C1008.52 197.165 1009.16 198.27 1009.6 199.57C1010.04 200.87 1010.26 202.326 1010.26 203.938C1010.26 205.55 1010.04 207.006 1009.6 208.306C1009.16 209.606 1008.52 210.711 1007.69 211.621C1006.88 212.531 1005.88 213.233 1004.68 213.727C1003.51 214.221 1002.19 214.468 1000.71 214.468ZM1000.71 211.114C1002.27 211.114 1003.5 210.646 1004.41 209.71C1005.35 208.748 1005.82 207.331 1005.82 205.459V202.417C1005.82 200.545 1005.35 199.141 1004.41 198.205C1003.5 197.243 1002.27 196.762 1000.71 196.762C999.146 196.762 997.898 197.243 996.962 198.205C996.052 199.141 995.597 200.545 995.597 202.417V205.459C995.597 207.331 996.052 208.748 996.962 209.71C997.898 210.646 999.146 211.114 1000.71 211.114ZM1017.85 193.876H1028.65C1030.4 193.876 1031.75 194.344 1032.71 195.28C1033.67 196.19 1034.15 197.412 1034.15 198.946C1034.15 201.442 1032.79 202.898 1030.06 203.314V203.509C1031.72 203.639 1032.94 204.12 1033.72 204.952C1034.5 205.758 1034.89 206.824 1034.89 208.15C1034.89 208.956 1034.75 209.71 1034.47 210.412C1034.21 211.114 1033.82 211.738 1033.3 212.284C1032.78 212.804 1032.13 213.22 1031.35 213.532C1030.59 213.844 1029.73 214 1028.77 214H1017.85V193.876ZM1027.87 210.802C1028.71 210.802 1029.36 210.607 1029.82 210.217C1030.29 209.801 1030.53 209.216 1030.53 208.462V207.526C1030.53 206.772 1030.29 206.187 1029.82 205.771C1029.38 205.355 1028.78 205.147 1028.03 205.147H1022.1V210.802H1027.87ZM1027.48 202.3C1028.19 202.3 1028.75 202.105 1029.16 201.715C1029.58 201.325 1029.79 200.792 1029.79 200.116V199.258C1029.79 198.582 1029.58 198.049 1029.16 197.659C1028.75 197.269 1028.19 197.074 1027.48 197.074H1022.1V202.3H1027.48ZM1050.99 214.468C1049.5 214.468 1048.17 214.221 1046.97 213.727C1045.8 213.233 1044.8 212.531 1043.97 211.621C1043.16 210.711 1042.54 209.606 1042.09 208.306C1041.65 207.006 1041.43 205.55 1041.43 203.938C1041.43 202.326 1041.65 200.87 1042.09 199.57C1042.54 198.27 1043.16 197.165 1043.97 196.255C1044.8 195.345 1045.8 194.643 1046.97 194.149C1048.17 193.655 1049.5 193.408 1050.99 193.408C1052.47 193.408 1053.79 193.655 1054.96 194.149C1056.16 194.643 1057.16 195.345 1057.97 196.255C1058.8 197.165 1059.44 198.27 1059.88 199.57C1060.32 200.87 1060.54 202.326 1060.54 203.938C1060.54 205.55 1060.32 207.006 1059.88 208.306C1059.44 209.606 1058.8 210.711 1057.97 211.621C1057.16 212.531 1056.16 213.233 1054.96 213.727C1053.79 214.221 1052.47 214.468 1050.99 214.468ZM1050.99 211.114C1052.55 211.114 1053.78 210.646 1054.69 209.71C1055.63 208.748 1056.1 207.331 1056.1 205.459V202.417C1056.1 200.545 1055.63 199.141 1054.69 198.205C1053.78 197.243 1052.55 196.762 1050.99 196.762C1049.43 196.762 1048.18 197.243 1047.24 198.205C1046.33 199.141 1045.88 200.545 1045.88 202.417V205.459C1045.88 207.331 1046.33 208.748 1047.24 209.71C1048.18 210.646 1049.43 211.114 1050.99 211.114ZM1066.88 193.876H1071.84L1076.2 203.353H1076.48L1080.84 193.876H1085.37V214H1081.66V202.651L1081.82 199.102H1081.55L1076.13 210.841L1070.7 199.102H1070.43L1070.59 202.651V214H1066.88V193.876ZM1117.79 193.876H1122.04V197.308H1122.27C1122.87 196.086 1123.66 195.137 1124.65 194.461C1125.64 193.759 1126.87 193.408 1128.36 193.408C1130.72 193.408 1132.61 194.292 1134.01 196.06C1135.41 197.828 1136.12 200.454 1136.12 203.938C1136.12 207.422 1135.41 210.048 1134.01 211.816C1132.61 213.584 1130.72 214.468 1128.36 214.468C1126.87 214.468 1125.64 214.13 1124.65 213.454C1123.66 212.752 1122.87 211.79 1122.27 210.568H1122.04V221.8H1117.79V193.876ZM1126.6 210.997C1128.21 210.997 1129.45 210.503 1130.31 209.515C1131.19 208.527 1131.63 207.214 1131.63 205.576V202.3C1131.63 200.662 1131.19 199.349 1130.31 198.361C1129.45 197.373 1128.21 196.879 1126.6 196.879C1125.98 196.879 1125.39 196.957 1124.85 197.113C1124.3 197.269 1123.82 197.503 1123.4 197.815C1122.99 198.127 1122.65 198.517 1122.39 198.985C1122.15 199.427 1122.04 199.96 1122.04 200.584V207.292C1122.04 207.916 1122.15 208.462 1122.39 208.93C1122.65 209.372 1122.99 209.749 1123.4 210.061C1123.82 210.373 1124.3 210.607 1124.85 210.763C1125.39 210.919 1125.98 210.997 1126.6 210.997ZM1151.97 214.468C1150.44 214.468 1149.06 214.221 1147.84 213.727C1146.62 213.233 1145.59 212.531 1144.76 211.621C1143.93 210.711 1143.29 209.619 1142.85 208.345C1142.41 207.045 1142.19 205.589 1142.19 203.977C1142.19 202.365 1142.41 200.909 1142.85 199.609C1143.32 198.309 1143.95 197.204 1144.76 196.294C1145.59 195.358 1146.59 194.643 1147.76 194.149C1148.93 193.655 1150.23 193.408 1151.66 193.408C1153.07 193.408 1154.34 193.655 1155.48 194.149C1156.63 194.617 1157.6 195.293 1158.41 196.177C1159.22 197.061 1159.83 198.114 1160.24 199.336C1160.68 200.558 1160.91 201.91 1160.91 203.392V204.991H1146.48V205.654C1146.48 207.24 1146.97 208.54 1147.96 209.554C1148.95 210.542 1150.31 211.036 1152.05 211.036C1153.35 211.036 1154.46 210.763 1155.37 210.217C1156.3 209.645 1157.06 208.891 1157.63 207.955L1160.28 210.295C1159.61 211.465 1158.57 212.453 1157.16 213.259C1155.78 214.065 1154.05 214.468 1151.97 214.468ZM1151.66 196.645C1150.91 196.645 1150.21 196.775 1149.56 197.035C1148.93 197.295 1148.39 197.672 1147.92 198.166C1147.48 198.634 1147.13 199.193 1146.87 199.843C1146.61 200.493 1146.48 201.208 1146.48 201.988V202.261H1156.58V201.871C1156.58 200.285 1156.12 199.024 1155.21 198.088C1154.33 197.126 1153.14 196.645 1151.66 196.645ZM1177.43 214.468C1175.92 214.468 1174.57 214.221 1173.37 213.727C1172.2 213.233 1171.2 212.531 1170.37 211.621C1169.56 210.711 1168.94 209.606 1168.49 208.306C1168.08 207.006 1167.87 205.55 1167.87 203.938C1167.87 202.326 1168.08 200.87 1168.49 199.57C1168.94 198.27 1169.56 197.165 1170.37 196.255C1171.2 195.345 1172.2 194.643 1173.37 194.149C1174.57 193.655 1175.9 193.408 1177.39 193.408C1179.47 193.408 1181.13 193.85 1182.38 194.734C1183.65 195.618 1184.6 196.762 1185.23 198.166L1181.91 199.96C1181.55 199.024 1180.99 198.283 1180.23 197.737C1179.51 197.191 1178.56 196.918 1177.39 196.918C1175.77 196.918 1174.53 197.412 1173.64 198.4C1172.76 199.362 1172.32 200.649 1172.32 202.261V205.615C1172.32 207.201 1172.76 208.488 1173.64 209.476C1174.53 210.464 1175.8 210.958 1177.46 210.958C1178.71 210.958 1179.73 210.672 1180.51 210.1C1181.31 209.528 1181.95 208.748 1182.42 207.76L1185.54 209.671C1184.89 211.075 1183.9 212.232 1182.57 213.142C1181.25 214.026 1179.53 214.468 1177.43 214.468ZM1199.68 197.308H1192.62V193.876H1211.03V197.308H1203.93V214H1199.68V197.308ZM1226.96 214.468C1225.48 214.468 1224.14 214.221 1222.95 213.727C1221.78 213.233 1220.78 212.531 1219.94 211.621C1219.14 210.711 1218.51 209.606 1218.07 208.306C1217.63 207.006 1217.41 205.55 1217.41 203.938C1217.41 202.326 1217.63 200.87 1218.07 199.57C1218.51 198.27 1219.14 197.165 1219.94 196.255C1220.78 195.345 1221.78 194.643 1222.95 194.149C1224.14 193.655 1225.48 193.408 1226.96 193.408C1228.45 193.408 1229.77 193.655 1230.94 194.149C1232.14 194.643 1233.14 195.345 1233.95 196.255C1234.78 197.165 1235.41 198.27 1235.86 199.57C1236.3 200.87 1236.52 202.326 1236.52 203.938C1236.52 205.55 1236.3 207.006 1235.86 208.306C1235.41 209.606 1234.78 210.711 1233.95 211.621C1233.14 212.531 1232.14 213.233 1230.94 213.727C1229.77 214.221 1228.45 214.468 1226.96 214.468ZM1226.96 211.114C1228.52 211.114 1229.76 210.646 1230.67 209.71C1231.61 208.748 1232.07 207.331 1232.07 205.459V202.417C1232.07 200.545 1231.61 199.141 1230.67 198.205C1229.76 197.243 1228.52 196.762 1226.96 196.762C1225.4 196.762 1224.16 197.243 1223.22 198.205C1222.31 199.141 1221.86 200.545 1221.86 202.417V205.459C1221.86 207.331 1222.31 208.748 1223.22 209.71C1224.16 210.646 1225.4 211.114 1226.96 211.114ZM1243.49 193.876H1247.74V197.308H1247.97C1248.57 196.086 1249.36 195.137 1250.35 194.461C1251.34 193.759 1252.57 193.408 1254.05 193.408C1256.42 193.408 1258.31 194.292 1259.71 196.06C1261.11 197.828 1261.82 200.454 1261.82 203.938C1261.82 207.422 1261.11 210.048 1259.71 211.816C1258.31 213.584 1256.42 214.468 1254.05 214.468C1252.57 214.468 1251.34 214.13 1250.35 213.454C1249.36 212.752 1248.57 211.79 1247.97 210.568H1247.74V221.8H1243.49V193.876ZM1252.3 210.997C1253.91 210.997 1255.15 210.503 1256 209.515C1256.89 208.527 1257.33 207.214 1257.33 205.576V202.3C1257.33 200.662 1256.89 199.349 1256 198.361C1255.15 197.373 1253.91 196.879 1252.3 196.879C1251.68 196.879 1251.09 196.957 1250.54 197.113C1250 197.269 1249.52 197.503 1249.1 197.815C1248.69 198.127 1248.35 198.517 1248.09 198.985C1247.85 199.427 1247.74 199.96 1247.74 200.584V207.292C1247.74 207.916 1247.85 208.462 1248.09 208.93C1248.35 209.372 1248.69 209.749 1249.1 210.061C1249.52 210.373 1250 210.607 1250.54 210.763C1251.09 210.919 1251.68 210.997 1252.3 210.997ZM1284.73 214C1283.51 214 1282.59 213.688 1281.96 213.064C1281.36 212.44 1281 211.621 1280.87 210.607H1280.68C1280.29 211.829 1279.57 212.778 1278.53 213.454C1277.52 214.13 1276.22 214.468 1274.63 214.468C1272.58 214.468 1270.94 213.935 1269.72 212.869C1268.49 211.777 1267.88 210.282 1267.88 208.384C1267.88 206.434 1268.6 204.952 1270.03 203.938C1271.48 202.898 1273.71 202.378 1276.7 202.378H1280.56V200.818C1280.56 198.088 1279.12 196.723 1276.23 196.723C1274.93 196.723 1273.88 196.983 1273.07 197.503C1272.26 197.997 1271.59 198.66 1271.04 199.492L1268.51 197.425C1269.08 196.333 1270.04 195.397 1271.39 194.617C1272.75 193.811 1274.49 193.408 1276.62 193.408C1279.17 193.408 1281.17 194.019 1282.63 195.241C1284.08 196.463 1284.81 198.231 1284.81 200.545V210.646H1287.34V214H1284.73ZM1275.84 211.348C1277.22 211.348 1278.35 211.036 1279.23 210.412C1280.12 209.788 1280.56 208.982 1280.56 207.994V205.069H1276.78C1273.71 205.069 1272.17 205.992 1272.17 207.838V208.618C1272.17 209.528 1272.5 210.217 1273.15 210.685C1273.8 211.127 1274.7 211.348 1275.84 211.348ZM1293.96 193.876H1298.21V201.988H1306.56V193.876H1310.81V214H1306.56V205.42H1298.21V214H1293.96V193.876ZM1327.95 214.468C1326.42 214.468 1325.04 214.221 1323.82 213.727C1322.6 213.233 1321.57 212.531 1320.74 211.621C1319.91 210.711 1319.27 209.619 1318.83 208.345C1318.38 207.045 1318.16 205.589 1318.16 203.977C1318.16 202.365 1318.38 200.909 1318.83 199.609C1319.29 198.309 1319.93 197.204 1320.74 196.294C1321.57 195.358 1322.57 194.643 1323.74 194.149C1324.91 193.655 1326.21 193.408 1327.64 193.408C1329.04 193.408 1330.32 193.655 1331.46 194.149C1332.61 194.617 1333.58 195.293 1334.39 196.177C1335.19 197.061 1335.8 198.114 1336.22 199.336C1336.66 200.558 1336.88 201.91 1336.88 203.392V204.991H1322.45V205.654C1322.45 207.24 1322.95 208.54 1323.94 209.554C1324.92 210.542 1326.29 211.036 1328.03 211.036C1329.33 211.036 1330.44 210.763 1331.35 210.217C1332.28 209.645 1333.04 208.891 1333.61 207.955L1336.26 210.295C1335.58 211.465 1334.54 212.453 1333.14 213.259C1331.76 214.065 1330.03 214.468 1327.95 214.468ZM1327.64 196.645C1326.89 196.645 1326.18 196.775 1325.53 197.035C1324.91 197.295 1324.36 197.672 1323.9 198.166C1323.45 198.634 1323.1 199.193 1322.84 199.843C1322.58 200.493 1322.45 201.208 1322.45 201.988V202.261H1332.55V201.871C1332.55 200.285 1332.1 199.024 1331.19 198.088C1330.31 197.126 1329.12 196.645 1327.64 196.645ZM1373.08 193.057H1372.73V214H1368.91V186.778H1374.53L1382.52 207.721H1382.87V186.778H1386.69V214H1381.08L1373.08 193.057ZM1402.94 214.468C1401.23 214.468 1399.73 214.156 1398.46 213.532C1397.21 212.882 1396.17 211.959 1395.34 210.763C1394.53 209.567 1393.93 208.098 1393.54 206.356C1393.15 204.614 1392.96 202.625 1392.96 200.389C1392.96 198.179 1393.15 196.203 1393.54 194.461C1393.93 192.693 1394.53 191.211 1395.34 190.015C1396.17 188.819 1397.21 187.909 1398.46 187.285C1399.73 186.635 1401.23 186.31 1402.94 186.31C1404.66 186.31 1406.14 186.635 1407.39 187.285C1408.66 187.909 1409.7 188.819 1410.51 190.015C1411.34 191.211 1411.95 192.693 1412.34 194.461C1412.73 196.203 1412.93 198.179 1412.93 200.389C1412.93 202.625 1412.73 204.614 1412.34 206.356C1411.95 208.098 1411.34 209.567 1410.51 210.763C1409.7 211.959 1408.66 212.882 1407.39 213.532C1406.14 214.156 1404.66 214.468 1402.94 214.468ZM1402.94 210.841C1404.89 210.841 1406.27 210.113 1407.08 208.657C1407.88 207.175 1408.29 205.173 1408.29 202.651V198.088C1408.29 195.592 1407.88 193.616 1407.08 192.16C1406.27 190.678 1404.89 189.937 1402.94 189.937C1400.99 189.937 1399.61 190.678 1398.81 192.16C1398 193.616 1397.6 195.592 1397.6 198.088V202.69C1397.6 205.186 1398 207.175 1398.81 208.657C1399.61 210.113 1400.99 210.841 1402.94 210.841ZM1439.08 214H1434.13L1431.05 208.618L1428.16 203.47H1427.93L1424.96 208.618L1421.76 214H1417.12L1425.47 200.038L1417.63 186.778H1422.58L1425.35 191.653L1428.16 196.684H1428.36L1431.16 191.653L1434.05 186.778H1438.69L1430.81 200.038L1439.08 214ZM1453.22 214.39C1451.97 214.39 1451.09 214.13 1450.57 213.61C1450.08 213.09 1449.83 212.453 1449.83 211.699V210.685C1449.83 209.931 1450.08 209.294 1450.57 208.774C1451.09 208.254 1451.97 207.994 1453.22 207.994C1454.47 207.994 1455.34 208.254 1455.84 208.774C1456.36 209.294 1456.62 209.931 1456.62 210.685V211.699C1456.62 212.453 1456.36 213.09 1455.84 213.61C1455.34 214.13 1454.47 214.39 1453.22 214.39Z" fill="white"/>
</svg>
