<svg width="1337" height="286" viewBox="0 0 1337 286" fill="none" xmlns="http://www.w3.org/2000/svg">
<path d="M1267.5 2H69.5C32.2208 2 2 32.2208 2 69.5V81.3325C2 112.077 26.9232 137 57.6676 137H76.3351C96.7696 137 113.335 153.565 113.335 174C113.335 194.435 129.901 211 150.335 211H178.608C198.766 211 215.108 227.342 215.108 247.5C215.108 267.658 231.449 284 251.608 284H1086.3C1106.46 284 1122.8 267.658 1122.8 247.5C1122.8 227.342 1139.14 211 1159.3 211H1183.62C1204.05 211 1220.62 194.435 1220.62 174C1220.62 153.565 1237.18 137 1257.62 137H1277.81C1309.39 137 1335 111.395 1335 79.8093V69.5C1335 32.2208 1304.78 2 1267.5 2Z" fill="#242424" fill-opacity="0.7" stroke="white" stroke-width="3"/>
<path d="M191.038 61.778L208.666 61.778L208.666 89L204.298 89L204.298 65.444L195.406 65.444L195.406 89L191.038 89L191.038 61.778ZM216.373 68.876L220.624 68.876L220.624 72.308L220.858 72.308C221.456 71.086 222.249 70.137 223.237 69.461C224.225 68.759 225.46 68.408 226.942 68.408C229.308 68.408 231.193 69.292 232.597 71.06C234.001 72.828 234.703 75.454 234.703 78.938C234.703 82.422 234.001 85.048 232.597 86.816C231.193 88.584 229.308 89.468 226.942 89.468C225.46 89.468 224.225 89.13 223.237 88.454C222.249 87.752 221.456 86.79 220.858 85.568L220.624 85.568L220.624 96.8L216.373 96.8L216.373 68.876ZM225.187 85.997C226.799 85.997 228.034 85.503 228.892 84.515C229.776 83.527 230.218 82.214 230.218 80.576L230.218 77.3C230.218 75.662 229.776 74.349 228.892 73.361C228.034 72.373 226.799 71.879 225.187 71.879C224.563 71.879 223.978 71.957 223.432 72.113C222.886 72.269 222.405 72.503 221.989 72.815C221.573 73.127 221.235 73.517 220.975 73.985C220.741 74.427 220.624 74.96 220.624 75.584L220.624 82.292C220.624 82.916 220.741 83.462 220.975 83.93C221.235 84.372 221.573 84.749 221.989 85.061C222.405 85.373 222.886 85.607 223.432 85.763C223.978 85.919 224.563 85.997 225.187 85.997ZM241.669 68.876L245.881 68.876L245.881 77.534L245.491 82.994L245.686 82.994L254.578 68.876L258.595 68.876L258.595 89L254.383 89L254.383 80.342L254.773 74.882L254.578 74.882L245.686 89L241.669 89L241.669 68.876ZM275.271 89.468C273.789 89.468 272.45 89.221 271.254 88.727C270.084 88.233 269.083 87.531 268.251 86.621C267.445 85.711 266.821 84.606 266.379 83.306C265.937 82.006 265.716 80.55 265.716 78.938C265.716 77.326 265.937 75.87 266.379 74.57C266.821 73.27 267.445 72.165 268.251 71.255C269.083 70.345 270.084 69.643 271.254 69.149C272.45 68.655 273.789 68.408 275.271 68.408C276.753 68.408 278.079 68.655 279.249 69.149C280.445 69.643 281.446 70.345 282.252 71.255C283.084 72.165 283.721 73.27 284.163 74.57C284.605 75.87 284.826 77.326 284.826 78.938C284.826 80.55 284.605 82.006 284.163 83.306C283.721 84.606 283.084 85.711 282.252 86.621C281.446 87.531 280.445 88.233 279.249 88.727C278.079 89.221 276.753 89.468 275.271 89.468ZM275.271 86.114C276.831 86.114 278.066 85.646 278.976 84.71C279.912 83.748 280.38 82.331 280.38 80.459L280.38 77.417C280.38 75.545 279.912 74.141 278.976 73.205C278.066 72.243 276.831 71.762 275.271 71.762C273.711 71.762 272.463 72.243 271.527 73.205C270.617 74.141 270.162 75.545 270.162 77.417L270.162 80.459C270.162 82.331 270.617 83.748 271.527 84.71C272.463 85.646 273.711 86.114 275.271 86.114ZM300.45 89.468C299.02 89.468 297.72 89.221 296.55 88.727C295.406 88.233 294.418 87.492 293.586 86.504C292.78 85.516 292.156 84.281 291.714 82.799C291.272 81.291 291.051 79.536 291.051 77.534C291.051 74.492 291.259 71.905 291.675 69.773C292.091 67.615 292.754 65.86 293.664 64.508C294.574 63.13 295.731 62.103 297.135 61.427C298.565 60.751 300.281 60.348 302.283 60.218L308.406 59.867L308.406 63.845L302.361 64.196C301.139 64.274 300.112 64.482 299.28 64.82C298.474 65.132 297.811 65.639 297.291 66.341C296.771 67.043 296.368 67.953 296.082 69.071C295.822 70.163 295.64 71.528 295.536 73.166L295.77 73.166C296.264 71.866 296.979 70.865 297.915 70.163C298.851 69.461 300.06 69.11 301.542 69.11C302.764 69.11 303.882 69.331 304.896 69.773C305.936 70.215 306.82 70.865 307.548 71.723C308.276 72.555 308.835 73.595 309.225 74.843C309.641 76.091 309.849 77.508 309.849 79.094C309.849 80.654 309.628 82.084 309.186 83.384C308.744 84.658 308.107 85.75 307.275 86.66C306.469 87.544 305.481 88.233 304.311 88.727C303.167 89.221 301.88 89.468 300.45 89.468ZM300.411 86.114C301.893 86.114 303.089 85.646 303.999 84.71C304.935 83.748 305.403 82.409 305.403 80.693L305.403 77.963C305.403 76.143 304.961 74.778 304.077 73.868C303.193 72.932 301.971 72.464 300.411 72.464C298.825 72.464 297.603 72.919 296.745 73.829C295.913 74.713 295.497 75.896 295.497 77.378L295.497 80.615C295.497 82.409 295.939 83.774 296.823 84.71C297.733 85.646 298.929 86.114 300.411 86.114ZM316.932 68.876L321.183 68.876L321.183 72.308L321.417 72.308C322.015 71.086 322.808 70.137 323.796 69.461C324.784 68.759 326.019 68.408 327.501 68.408C329.867 68.408 331.752 69.292 333.156 71.06C334.56 72.828 335.262 75.454 335.262 78.938C335.262 82.422 334.56 85.048 333.156 86.816C331.752 88.584 329.867 89.468 327.501 89.468C326.019 89.468 324.784 89.13 323.796 88.454C322.808 87.752 322.015 86.79 321.417 85.568L321.183 85.568L321.183 96.8L316.932 96.8L316.932 68.876ZM325.746 85.997C327.358 85.997 328.593 85.503 329.451 84.515C330.335 83.527 330.777 82.214 330.777 80.576L330.777 77.3C330.777 75.662 330.335 74.349 329.451 73.361C328.593 72.373 327.358 71.879 325.746 71.879C325.122 71.879 324.537 71.957 323.991 72.113C323.445 72.269 322.964 72.503 322.548 72.815C322.132 73.127 321.794 73.517 321.534 73.985C321.3 74.427 321.183 74.96 321.183 75.584L321.183 82.292C321.183 82.916 321.3 83.462 321.534 83.93C321.794 84.372 322.132 84.749 322.548 85.061C322.964 85.373 323.445 85.607 323.991 85.763C324.537 85.919 325.122 85.997 325.746 85.997ZM351.12 89.468C349.586 89.468 348.208 89.221 346.986 88.727C345.764 88.233 344.737 87.531 343.905 86.621C343.073 85.711 342.436 84.619 341.994 83.345C341.552 82.045 341.331 80.589 341.331 78.977C341.331 77.365 341.552 75.909 341.994 74.609C342.462 73.309 343.099 72.204 343.905 71.294C344.737 70.358 345.738 69.643 346.908 69.149C348.078 68.655 349.378 68.408 350.808 68.408C352.212 68.408 353.486 68.655 354.63 69.149C355.774 69.617 356.749 70.293 357.555 71.177C358.361 72.061 358.972 73.114 359.388 74.336C359.83 75.558 360.051 76.91 360.051 78.392L360.051 79.991L345.621 79.991L345.621 80.654C345.621 82.24 346.115 83.54 347.103 84.554C348.091 85.542 349.456 86.036 351.198 86.036C352.498 86.036 353.603 85.763 354.513 85.217C355.449 84.645 356.203 83.891 356.775 82.955L359.427 85.295C358.751 86.465 357.711 87.453 356.307 88.259C354.929 89.065 353.2 89.468 351.12 89.468ZM350.808 71.645C350.054 71.645 349.352 71.775 348.702 72.035C348.078 72.295 347.532 72.672 347.064 73.166C346.622 73.634 346.271 74.193 346.011 74.843C345.751 75.493 345.621 76.208 345.621 76.988L345.621 77.261L355.722 77.261L355.722 76.871C355.722 75.285 355.267 74.024 354.357 73.088C353.473 72.126 352.29 71.645 350.808 71.645ZM373.685 72.308L366.626 72.308L366.626 68.876L385.034 68.876L385.034 72.308L377.936 72.308L377.936 89L373.685 89L373.685 72.308ZM392.507 68.876L396.719 68.876L396.719 77.534L396.329 82.994L396.524 82.994L405.416 68.876L409.433 68.876L409.433 89L405.221 89L405.221 80.342L405.611 74.882L405.416 74.882L396.524 89L392.507 89L392.507 68.876ZM423.965 72.308L416.906 72.308L416.906 68.876L435.314 68.876L435.314 72.308L428.216 72.308L428.216 89L423.965 89L423.965 72.308ZM451.679 89.468C450.145 89.468 448.767 89.221 447.545 88.727C446.323 88.233 445.296 87.531 444.464 86.621C443.632 85.711 442.995 84.619 442.553 83.345C442.111 82.045 441.89 80.589 441.89 78.977C441.89 77.365 442.111 75.909 442.553 74.609C443.021 73.309 443.658 72.204 444.464 71.294C445.296 70.358 446.297 69.643 447.467 69.149C448.637 68.655 449.937 68.408 451.367 68.408C452.771 68.408 454.045 68.655 455.189 69.149C456.333 69.617 457.308 70.293 458.114 71.177C458.92 72.061 459.531 73.114 459.947 74.336C460.389 75.558 460.61 76.91 460.61 78.392L460.61 79.991L446.18 79.991L446.18 80.654C446.18 82.24 446.674 83.54 447.662 84.554C448.65 85.542 450.015 86.036 451.757 86.036C453.057 86.036 454.162 85.763 455.072 85.217C456.008 84.645 456.762 83.891 457.334 82.955L459.986 85.295C459.31 86.465 458.27 87.453 456.866 88.259C455.488 89.065 453.759 89.468 451.679 89.468ZM451.367 71.645C450.613 71.645 449.911 71.775 449.261 72.035C448.637 72.295 448.091 72.672 447.623 73.166C447.181 73.634 446.83 74.193 446.57 74.843C446.31 75.493 446.18 76.208 446.18 76.988L446.18 77.261L456.281 77.261L456.281 76.871C456.281 75.285 455.826 74.024 454.916 73.088C454.032 72.126 452.849 71.645 451.367 71.645ZM490.492 85.568L492.793 85.568C493.547 84.372 494.145 82.929 494.587 81.239C495.029 79.523 495.25 77.495 495.25 75.155L495.25 68.876L508.978 68.876L508.978 85.568L512.215 85.568L512.215 94.46L508.393 94.46L508.393 89L494.314 89L494.314 94.46L490.492 94.46L490.492 85.568ZM504.805 85.568L504.805 72.308L499.228 72.308L499.228 75.311C499.228 77.599 499.046 79.575 498.682 81.239C498.344 82.877 497.837 84.32 497.161 85.568L504.805 85.568ZM518.206 68.876L522.418 68.876L522.418 77.534L522.028 82.994L522.223 82.994L531.115 68.876L535.132 68.876L535.132 89L530.92 89L530.92 80.342L531.31 74.882L531.115 74.882L522.223 89L518.206 89L518.206 68.876ZM551.263 89.468C549.079 89.468 547.259 89.13 545.803 88.454C544.347 87.778 543.19 86.842 542.332 85.646L545.062 83.228C545.738 84.164 546.557 84.879 547.519 85.373C548.507 85.841 549.742 86.075 551.224 86.075C552.784 86.075 553.941 85.815 554.695 85.295C555.449 84.775 555.826 84.099 555.826 83.267L555.826 82.877C555.826 82.045 555.566 81.408 555.046 80.966C554.526 80.524 553.733 80.303 552.667 80.303L547.558 80.303L547.558 77.183L552.238 77.183C553.33 77.183 554.123 76.975 554.617 76.559C555.137 76.117 555.397 75.506 555.397 74.726L555.397 74.336C555.397 73.582 555.072 72.971 554.422 72.503C553.772 72.035 552.693 71.801 551.185 71.801C549.781 71.801 548.624 72.035 547.714 72.503C546.804 72.945 546.011 73.595 545.335 74.453L542.722 72.347C543.684 71.099 544.841 70.137 546.193 69.461C547.571 68.759 549.352 68.408 551.536 68.408C554.24 68.408 556.294 68.915 557.698 69.929C559.102 70.917 559.804 72.23 559.804 73.868C559.804 75.064 559.453 76.039 558.751 76.793C558.075 77.547 557.126 78.067 555.904 78.353L555.904 78.509C557.23 78.717 558.27 79.237 559.024 80.069C559.804 80.875 560.194 81.941 560.194 83.267C560.194 85.139 559.414 86.647 557.854 87.791C556.294 88.909 554.097 89.468 551.263 89.468ZM584.437 89C583.215 89 582.292 88.688 581.668 88.064C581.07 87.44 580.706 86.621 580.576 85.607L580.381 85.607C579.991 86.829 579.276 87.778 578.236 88.454C577.222 89.13 575.922 89.468 574.336 89.468C572.282 89.468 570.644 88.935 569.422 87.869C568.2 86.777 567.589 85.282 567.589 83.384C567.589 81.434 568.304 79.952 569.734 78.938C571.19 77.898 573.413 77.378 576.403 77.378L580.264 77.378L580.264 75.818C580.264 73.088 578.821 71.723 575.935 71.723C574.635 71.723 573.582 71.983 572.776 72.503C571.97 72.997 571.294 73.66 570.748 74.492L568.213 72.425C568.785 71.333 569.747 70.397 571.099 69.617C572.451 68.811 574.193 68.408 576.325 68.408C578.873 68.408 580.875 69.019 582.331 70.241C583.787 71.463 584.515 73.231 584.515 75.545L584.515 85.646L587.05 85.646L587.05 89L584.437 89ZM575.545 86.348C576.923 86.348 578.054 86.036 578.938 85.412C579.822 84.788 580.264 83.982 580.264 82.994L580.264 80.069L576.481 80.069C573.413 80.069 571.879 80.992 571.879 82.838L571.879 83.618C571.879 84.528 572.204 85.217 572.854 85.685C573.504 86.127 574.401 86.348 575.545 86.348ZM593.625 68.876L597.837 68.876L597.837 77.534L597.447 82.994L597.642 82.994L606.534 68.876L610.551 68.876L610.551 89L606.339 89L606.339 80.342L606.729 74.882L606.534 74.882L597.642 89L593.625 89L593.625 68.876ZM602.088 66.224C600.58 66.224 599.358 65.899 598.422 65.249C597.486 64.573 596.719 63.572 596.121 62.246L595.146 60.062L598.695 58.814L600.099 62.948C600.333 63.052 600.645 63.13 601.035 63.182C601.425 63.208 601.776 63.221 602.088 63.221C602.4 63.221 602.751 63.208 603.141 63.182C603.531 63.13 603.843 63.052 604.077 62.948L605.481 58.814L609.03 60.062L608.055 62.246C607.457 63.572 606.69 64.573 605.754 65.249C604.818 65.899 603.596 66.224 602.088 66.224ZM618.804 68.876L623.055 68.876L623.055 76.988L631.401 76.988L631.401 68.876L635.652 68.876L635.652 89L631.401 89L631.401 80.42L623.055 80.42L623.055 89L618.804 89L618.804 68.876ZM652.797 89.468C651.263 89.468 649.885 89.221 648.663 88.727C647.441 88.233 646.414 87.531 645.582 86.621C644.75 85.711 644.113 84.619 643.671 83.345C643.229 82.045 643.008 80.589 643.008 78.977C643.008 77.365 643.229 75.909 643.671 74.609C644.139 73.309 644.776 72.204 645.582 71.294C646.414 70.358 647.415 69.643 648.585 69.149C649.755 68.655 651.055 68.408 652.485 68.408C653.889 68.408 655.163 68.655 656.307 69.149C657.451 69.617 658.426 70.293 659.232 71.177C660.038 72.061 660.649 73.114 661.065 74.336C661.507 75.558 661.728 76.91 661.728 78.392L661.728 79.991L647.298 79.991L647.298 80.654C647.298 82.24 647.792 83.54 648.78 84.554C649.768 85.542 651.133 86.036 652.875 86.036C654.175 86.036 655.28 85.763 656.19 85.217C657.126 84.645 657.88 83.891 658.452 82.955L661.104 85.295C660.428 86.465 659.388 87.453 657.984 88.259C656.606 89.065 654.877 89.468 652.797 89.468ZM652.485 71.645C651.731 71.645 651.029 71.775 650.379 72.035C649.755 72.295 649.209 72.672 648.741 73.166C648.299 73.634 647.948 74.193 647.688 74.843C647.428 75.493 647.298 76.208 647.298 76.988L647.298 77.261L657.399 77.261L657.399 76.871C657.399 75.285 656.944 74.024 656.034 73.088C655.15 72.126 653.967 71.645 652.485 71.645ZM668.889 68.876L673.14 68.876L673.14 72.308L673.374 72.308C673.972 71.086 674.765 70.137 675.753 69.461C676.741 68.759 677.976 68.408 679.458 68.408C681.824 68.408 683.709 69.292 685.113 71.06C686.517 72.828 687.219 75.454 687.219 78.938C687.219 82.422 686.517 85.048 685.113 86.816C683.709 88.584 681.824 89.468 679.458 89.468C677.976 89.468 676.741 89.13 675.753 88.454C674.765 87.752 673.972 86.79 673.374 85.568L673.14 85.568L673.14 96.8L668.889 96.8L668.889 68.876ZM677.703 85.997C679.315 85.997 680.55 85.503 681.408 84.515C682.292 83.527 682.734 82.214 682.734 80.576L682.734 77.3C682.734 75.662 682.292 74.349 681.408 73.361C680.55 72.373 679.315 71.879 677.703 71.879C677.079 71.879 676.494 71.957 675.948 72.113C675.402 72.269 674.921 72.503 674.505 72.815C674.089 73.127 673.751 73.517 673.491 73.985C673.257 74.427 673.14 74.96 673.14 75.584L673.14 82.292C673.14 82.916 673.257 83.462 673.491 83.93C673.751 84.372 674.089 84.749 674.505 85.061C674.921 85.373 675.402 85.607 675.948 85.763C676.494 85.919 677.079 85.997 677.703 85.997ZM703.388 89.468C701.88 89.468 700.528 89.221 699.332 88.727C698.162 88.233 697.161 87.531 696.329 86.621C695.523 85.711 694.899 84.606 694.457 83.306C694.041 82.006 693.833 80.55 693.833 78.938C693.833 77.326 694.041 75.87 694.457 74.57C694.899 73.27 695.523 72.165 696.329 71.255C697.161 70.345 698.162 69.643 699.332 69.149C700.528 68.655 701.867 68.408 703.349 68.408C705.429 68.408 707.093 68.85 708.341 69.734C709.615 70.618 710.564 71.762 711.188 73.166L707.873 74.96C707.509 74.024 706.95 73.283 706.196 72.737C705.468 72.191 704.519 71.918 703.349 71.918C701.737 71.918 700.489 72.412 699.605 73.4C698.721 74.362 698.279 75.649 698.279 77.261L698.279 80.615C698.279 82.201 698.721 83.488 699.605 84.476C700.489 85.464 701.763 85.958 703.427 85.958C704.675 85.958 705.689 85.672 706.469 85.1C707.275 84.528 707.912 83.748 708.38 82.76L711.5 84.671C710.85 86.075 709.862 87.232 708.536 88.142C707.21 89.026 705.494 89.468 703.388 89.468ZM719.675 68.876L723.926 68.876L723.926 76.988L727.553 76.988L732.389 68.876L736.952 68.876L732.467 76.208C732.025 76.962 731.596 77.495 731.18 77.807C730.764 78.119 730.283 78.34 729.737 78.47L729.737 78.665C730.361 78.795 730.881 79.029 731.297 79.367C731.713 79.679 732.142 80.225 732.584 81.005L735.119 85.568L737.303 85.568L737.303 89L734.807 89C733.949 89 733.208 88.805 732.584 88.415C731.986 87.999 731.427 87.336 730.907 86.426L727.553 80.42L723.926 80.42L723.926 89L719.675 89L719.675 68.876ZM758.816 68.876L763.106 68.8761L753.356 92.9001C752.836 94.2001 752.147 95.1751 751.289 95.8251C750.457 96.4751 749.248 96.8001 747.662 96.8001L744.269 96.8L744.269 93.368L749.027 93.3681L750.86 88.7271L742.748 68.876L747.194 68.876L750.392 77.3L752.888 84.2031L753.122 84.2031L755.618 77.3001L758.816 68.876ZM781.616 89.4681C780.576 89.4681 779.653 89.3121 778.847 89.0001C778.067 88.7141 777.391 88.2201 776.819 87.5181C776.273 86.7901 775.844 85.8411 775.532 84.6711C775.246 83.5011 775.064 82.0321 774.986 80.2641L771.788 80.2641L771.788 89.0001L768.083 89.0001L768.083 68.8761L771.788 68.8761L771.788 77.1441L775.025 77.1441C775.103 75.4801 775.298 74.0891 775.61 72.9711C775.948 71.8531 776.39 70.9561 776.936 70.2801C777.482 69.6041 778.145 69.1231 778.925 68.8371C779.705 68.5511 780.602 68.4081 781.616 68.4081C782.708 68.4081 783.67 68.5771 784.502 68.9151C785.334 69.2531 786.023 69.8251 786.569 70.6311C787.141 71.4371 787.557 72.5161 787.817 73.8681C788.103 75.2201 788.246 76.9101 788.246 78.9381C788.246 80.9661 788.103 82.6561 787.817 84.0081C787.531 85.3601 787.115 86.4391 786.569 87.2451C786.023 88.0511 785.334 88.6231 784.502 88.9611C783.67 89.2991 782.708 89.4681 781.616 89.4681ZM781.616 86.2311C782.084 86.2311 782.487 86.1531 782.825 85.9971C783.189 85.8411 783.475 85.5681 783.683 85.1781C783.917 84.7881 784.086 84.2551 784.19 83.5791C784.32 82.8771 784.385 81.9801 784.385 80.8881L784.385 76.9881C784.385 75.8961 784.32 75.0121 784.19 74.3361C784.086 73.6341 783.917 73.0881 783.683 72.6981C783.475 72.3081 783.189 72.0351 782.825 71.8791C782.487 71.7231 782.084 71.6451 781.616 71.6451C781.148 71.6451 780.732 71.7231 780.368 71.8791C780.03 72.0351 779.744 72.3081 779.51 72.6981C779.302 73.0881 779.133 73.6341 779.003 74.3361C778.899 75.0121 778.847 75.8961 778.847 76.9881L778.847 80.8881C778.847 81.9801 778.899 82.8771 779.003 83.5791C779.133 84.2551 779.302 84.7881 779.51 85.1781C779.744 85.5681 780.03 85.8411 780.368 85.9971C780.732 86.1531 781.148 86.2311 781.616 86.2311ZM819.961 68.8761L836.731 68.8761L836.731 89.0001L832.48 89.0001L832.48 72.3081L824.212 72.3081L824.212 89.0001L819.961 89.0001L819.961 68.8761ZM844.867 68.8761L849.118 68.8761L849.118 72.3081L849.352 72.3081C849.95 71.0861 850.743 70.1371 851.731 69.4611C852.719 68.7591 853.954 68.4081 855.436 68.4081C857.802 68.4081 859.687 69.2921 861.091 71.0601C862.495 72.8281 863.197 75.4541 863.197 78.9381C863.197 82.4221 862.495 85.0481 861.091 86.8161C859.687 88.5841 857.802 89.4681 855.436 89.4681C853.954 89.4681 852.719 89.1301 851.731 88.4541C850.743 87.7521 849.95 86.7901 849.352 85.5681L849.118 85.5681L849.118 96.8001L844.867 96.8001L844.867 68.8761ZM853.681 85.9971C855.293 85.9971 856.528 85.5031 857.386 84.5151C858.27 83.5271 858.712 82.2141 858.712 80.5761L858.712 77.3001C858.712 75.6621 858.27 74.3491 857.386 73.3611C856.528 72.3731 855.293 71.8791 853.681 71.8791C853.057 71.8791 852.472 71.9571 851.926 72.1131C851.38 72.2691 850.899 72.5031 850.483 72.8151C850.067 73.1271 849.729 73.5171 849.469 73.9851C849.235 74.4271 849.118 74.9601 849.118 75.5841L849.118 82.2921C849.118 82.9161 849.235 83.4621 849.469 83.9301C849.729 84.3721 850.067 84.7491 850.483 85.0611C850.899 85.3731 851.38 85.6071 851.926 85.7631C852.472 85.9191 853.057 85.9971 853.681 85.9971ZM878.626 89.4681C877.144 89.4681 875.805 89.2211 874.609 88.7271C873.439 88.2331 872.438 87.5311 871.606 86.6211C870.8 85.7111 870.176 84.6061 869.734 83.3061C869.292 82.0061 869.071 80.5501 869.071 78.9381C869.071 77.3261 869.292 75.8701 869.734 74.5701C870.176 73.2701 870.8 72.1651 871.606 71.2551C872.438 70.3451 873.439 69.6431 874.609 69.1491C875.805 68.6551 877.144 68.4081 878.626 68.4081C880.108 68.4081 881.434 68.6551 882.604 69.1491C883.8 69.6431 884.801 70.3451 885.607 71.2551C886.439 72.1651 887.076 73.2701 887.518 74.5701C887.96 75.8701 888.181 77.3261 888.181 78.9381C888.181 80.5501 887.96 82.0061 887.518 83.3061C887.076 84.6061 886.439 85.7111 885.607 86.6211C884.801 87.5311 883.8 88.2331 882.604 88.7271C881.434 89.2211 880.108 89.4681 878.626 89.4681ZM878.626 86.1141C880.186 86.1141 881.421 85.6461 882.331 84.7101C883.267 83.7481 883.735 82.3311 883.735 80.4591L883.735 77.4171C883.735 75.5451 883.267 74.1411 882.331 73.2051C881.421 72.2431 880.186 71.7621 878.626 71.7621C877.066 71.7621 875.818 72.2431 874.882 73.2051C873.972 74.1411 873.517 75.5451 873.517 77.4171L873.517 80.4591C873.517 82.3311 873.972 83.7481 874.882 84.7101C875.818 85.6461 877.066 86.1141 878.626 86.1141ZM892.729 85.5681L895.03 85.5681C895.784 84.3721 896.382 82.9291 896.824 81.2391C897.266 79.5231 897.487 77.4951 897.487 75.1551L897.487 68.8761L911.215 68.8761L911.215 85.5681L914.452 85.5681L914.452 94.4601L910.63 94.4601L910.63 89.0001L896.551 89.0001L896.551 94.4601L892.729 94.4601L892.729 85.5681ZM907.042 85.5681L907.042 72.3081L901.465 72.3081L901.465 75.3111C901.465 77.5991 901.283 79.5751 900.919 81.2391C900.581 82.8771 900.074 84.3201 899.398 85.5681L907.042 85.5681ZM934.794 68.8761L939.084 68.8761L929.334 92.9001C928.814 94.2001 928.125 95.1751 927.267 95.8251C926.435 96.4751 925.226 96.8001 923.64 96.8001L920.247 96.8001L920.247 93.3681L925.005 93.3681L926.838 88.7271L918.726 68.8761L923.172 68.8761L926.37 77.3001L928.866 84.2031L929.1 84.2031L931.596 77.3001L934.794 68.8761ZM945.933 68.8761L950.184 68.8761L950.184 76.9881L953.811 76.9881L958.647 68.8761L963.21 68.8761L958.725 76.2081C958.283 76.9621 957.854 77.4951 957.438 77.8071C957.022 78.1191 956.541 78.3401 955.995 78.4701L955.995 78.6651C956.619 78.7951 957.139 79.0291 957.555 79.3671C957.971 79.6791 958.4 80.2251 958.842 81.0051L961.377 85.5681L963.561 85.5681L963.561 89.0001L961.065 89.0001C960.207 89.0001 959.466 88.8051 958.842 88.4151C958.244 87.9991 957.685 87.3361 957.165 86.4261L953.811 80.4201L950.184 80.4201L950.184 89.0001L945.933 89.0001L945.933 68.8761ZM986.127 89.0001L970.293 89.0001L970.293 68.8761L974.544 68.8761L974.544 85.5681L982.461 85.5681L982.461 68.8761L986.712 68.8761L986.712 85.5681L989.949 85.5681L989.949 94.4601L986.127 94.4601L986.127 89.0001ZM995.862 68.8761L1000.07 68.8761L1000.07 77.5341L999.684 82.9941L999.879 82.9941L1008.77 68.8761L1012.79 68.8761L1012.79 89.0001L1008.58 89.0001L1008.58 80.3421L1008.97 74.8821L1008.77 74.8821L999.879 89.0001L995.862 89.0001L995.862 68.8761ZM1033.01 89.4681C1031.97 89.4681 1031.05 89.3121 1030.24 89.0001C1029.46 88.7141 1028.79 88.2201 1028.22 87.5181C1027.67 86.7901 1027.24 85.8411 1026.93 84.6711C1026.64 83.5011 1026.46 82.0321 1026.38 80.2641L1023.19 80.2641L1023.19 89.0001L1019.48 89.0001L1019.48 68.8761L1023.19 68.8761L1023.19 77.1441L1026.42 77.1441C1026.5 75.4801 1026.7 74.0891 1027.01 72.9711C1027.35 71.8531 1027.79 70.9561 1028.33 70.2801C1028.88 69.6041 1029.54 69.1231 1030.32 68.8371C1031.1 68.5511 1032 68.4081 1033.01 68.4081C1034.11 68.4081 1035.07 68.5771 1035.9 68.9151C1036.73 69.2531 1037.42 69.8251 1037.97 70.6311C1038.54 71.4371 1038.95 72.5161 1039.21 73.8681C1039.5 75.2201 1039.64 76.9101 1039.64 78.9381C1039.64 80.9661 1039.5 82.6561 1039.21 84.0081C1038.93 85.3601 1038.51 86.4391 1037.97 87.2451C1037.42 88.0511 1036.73 88.6231 1035.9 88.9611C1035.07 89.2991 1034.11 89.4681 1033.01 89.4681ZM1033.01 86.2311C1033.48 86.2311 1033.88 86.1531 1034.22 85.9971C1034.59 85.8411 1034.87 85.5681 1035.08 85.1781C1035.31 84.7881 1035.48 84.2551 1035.59 83.5791C1035.72 82.8771 1035.78 81.9801 1035.78 80.8881L1035.78 76.9881C1035.78 75.8961 1035.72 75.0121 1035.59 74.3361C1035.48 73.6341 1035.31 73.0881 1035.08 72.6981C1034.87 72.3081 1034.59 72.0351 1034.22 71.8791C1033.88 71.7231 1033.48 71.6451 1033.01 71.6451C1032.55 71.6451 1032.13 71.7231 1031.77 71.8791C1031.43 72.0351 1031.14 72.3081 1030.91 72.6981C1030.7 73.0881 1030.53 73.6341 1030.4 74.3361C1030.3 75.0121 1030.24 75.8961 1030.24 76.9881L1030.24 80.8881C1030.24 81.9801 1030.3 82.8771 1030.4 83.5791C1030.53 84.2551 1030.7 84.7881 1030.91 85.1781C1031.14 85.5681 1031.43 85.8411 1031.77 85.9971C1032.13 86.1531 1032.55 86.2311 1033.01 86.2311ZM1075.02 68.0571L1074.67 68.0571L1074.67 89.0001L1070.85 89.0001L1070.85 61.7781L1076.47 61.7781L1084.46 82.7211L1084.81 82.7211L1084.81 61.7781L1088.64 61.7781L1088.64 89.0001L1083.02 89.0001L1075.02 68.0571ZM1104.88 89.4681C1103.17 89.4681 1101.67 89.1561 1100.4 88.5321C1099.15 87.8821 1098.11 86.9591 1097.28 85.7631C1096.47 84.5671 1095.87 83.0981 1095.48 81.3561C1095.09 79.6141 1094.9 77.6251 1094.9 75.3891C1094.9 73.1791 1095.09 71.2031 1095.48 69.4611C1095.87 67.6931 1096.47 66.2111 1097.28 65.0151C1098.11 63.8191 1099.15 62.9091 1100.4 62.2851C1101.67 61.6351 1103.17 61.3101 1104.88 61.3101C1106.6 61.3101 1108.08 61.6351 1109.33 62.2851C1110.6 62.9091 1111.64 63.8191 1112.45 65.0151C1113.28 66.2111 1113.89 67.6931 1114.28 69.4611C1114.67 71.2031 1114.87 73.1791 1114.87 75.3891C1114.87 77.6251 1114.67 79.6141 1114.28 81.3561C1113.89 83.0981 1113.28 84.5671 1112.45 85.7631C1111.64 86.9591 1110.6 87.8821 1109.33 88.5321C1108.08 89.1561 1106.6 89.4681 1104.88 89.4681ZM1104.88 85.8411C1106.83 85.8411 1108.21 85.1131 1109.02 83.6571C1109.82 82.1751 1110.23 80.1731 1110.23 77.6511L1110.23 73.0881C1110.23 70.5921 1109.82 68.6161 1109.02 67.1601C1108.21 65.6781 1106.83 64.9371 1104.88 64.9371C1102.93 64.9371 1101.56 65.6781 1100.75 67.1601C1099.94 68.6161 1099.54 70.5921 1099.54 73.0881L1099.54 77.6901C1099.54 80.1861 1099.94 82.1751 1100.75 83.6571C1101.56 85.1131 1102.93 85.8411 1104.88 85.8411ZM1141.02 89.0001L1136.07 89.0001L1132.99 83.6181L1130.1 78.4701L1129.87 78.4701L1126.9 83.6181L1123.71 89.0001L1119.06 89.0001L1127.41 75.0381L1119.57 61.7781L1124.52 61.7781L1127.29 66.6531L1130.1 71.6841L1130.3 71.6841L1133.1 66.6531L1135.99 61.7781L1140.63 61.7781L1132.75 75.0381L1141.02 89.0001ZM241.669 135.876L245.881 135.876L245.881 144.534L245.491 149.994L245.686 149.994L254.578 135.876L258.595 135.876L258.595 156L254.383 156L254.383 147.342L254.773 141.882L254.578 141.882L245.686 156L241.669 156L241.669 135.876ZM292.026 135.876L308.796 135.876L308.796 156L304.545 156L304.545 139.308L296.277 139.308L296.277 156L292.026 156L292.026 135.876ZM316.932 135.876L321.183 135.876L321.183 139.308L321.417 139.308C322.015 138.086 322.808 137.137 323.796 136.461C324.784 135.759 326.019 135.408 327.501 135.408C329.867 135.408 331.752 136.292 333.156 138.06C334.56 139.828 335.262 142.454 335.262 145.938C335.262 149.422 334.56 152.048 333.156 153.816C331.752 155.584 329.867 156.468 327.501 156.468C326.019 156.468 324.784 156.13 323.796 155.454C322.808 154.752 322.015 153.79 321.417 152.568L321.183 152.568L321.183 163.8L316.932 163.8L316.932 135.876ZM325.746 152.997C327.358 152.997 328.593 152.503 329.451 151.515C330.335 150.527 330.777 149.214 330.777 147.576L330.777 144.3C330.777 142.662 330.335 141.349 329.451 140.361C328.593 139.373 327.358 138.879 325.746 138.879C325.122 138.879 324.537 138.957 323.991 139.113C323.445 139.269 322.964 139.503 322.548 139.815C322.132 140.127 321.794 140.517 321.534 140.985C321.3 141.427 321.183 141.96 321.183 142.584L321.183 149.292C321.183 149.916 321.3 150.462 321.534 150.93C321.794 151.372 322.132 151.749 322.548 152.061C322.964 152.373 323.445 152.607 323.991 152.763C324.537 152.919 325.122 152.997 325.746 152.997ZM342.228 135.876L346.44 135.876L346.44 144.534L346.05 149.994L346.245 149.994L355.137 135.876L359.154 135.876L359.154 156L354.942 156L354.942 147.342L355.332 141.882L355.137 141.882L346.245 156L342.228 156L342.228 135.876ZM375.869 156.468C374.439 156.468 373.139 156.221 371.969 155.727C370.825 155.233 369.837 154.492 369.005 153.504C368.199 152.516 367.575 151.281 367.133 149.799C366.691 148.291 366.47 146.536 366.47 144.534C366.47 141.492 366.678 138.905 367.094 136.773C367.51 134.615 368.173 132.86 369.083 131.508C369.993 130.13 371.15 129.103 372.554 128.427C373.984 127.751 375.7 127.348 377.702 127.218L383.825 126.867L383.825 130.845L377.78 131.196C376.558 131.274 375.531 131.482 374.699 131.82C373.893 132.132 373.23 132.639 372.71 133.341C372.19 134.043 371.787 134.953 371.501 136.071C371.241 137.163 371.059 138.528 370.955 140.166L371.189 140.166C371.683 138.866 372.398 137.865 373.334 137.163C374.27 136.461 375.479 136.11 376.961 136.11C378.183 136.11 379.301 136.331 380.315 136.773C381.355 137.215 382.239 137.865 382.967 138.723C383.695 139.555 384.254 140.595 384.644 141.843C385.06 143.091 385.268 144.508 385.268 146.094C385.268 147.654 385.047 149.084 384.605 150.384C384.163 151.658 383.526 152.75 382.694 153.66C381.888 154.544 380.9 155.233 379.73 155.727C378.586 156.221 377.299 156.468 375.869 156.468ZM375.83 153.114C377.312 153.114 378.508 152.646 379.418 151.71C380.354 150.748 380.822 149.409 380.822 147.693L380.822 144.963C380.822 143.143 380.38 141.778 379.496 140.868C378.612 139.932 377.39 139.464 375.83 139.464C374.244 139.464 373.022 139.919 372.164 140.829C371.332 141.713 370.916 142.896 370.916 144.378L370.916 147.615C370.916 149.409 371.358 150.774 372.242 151.71C373.152 152.646 374.348 153.114 375.83 153.114ZM390.206 152.568L392.819 152.568C393.157 152.126 393.456 151.619 393.716 151.047C394.002 150.449 394.223 149.734 394.379 148.902C394.561 148.07 394.691 147.108 394.769 146.016C394.873 144.924 394.925 143.65 394.925 142.194L394.925 135.876L409.16 135.876L409.16 156L404.909 156L404.909 139.308L398.903 139.308L398.903 142.272C398.903 145.678 398.656 148.343 398.162 150.267C397.668 152.191 396.992 153.595 396.134 154.479C395.536 155.103 394.847 155.519 394.067 155.727C393.287 155.909 392.468 156 391.61 156L390.206 156L390.206 152.568ZM417.647 135.876L421.859 135.876L421.859 144.534L421.469 149.994L421.664 149.994L430.556 135.876L434.573 135.876L434.573 156L430.361 156L430.361 147.342L430.751 141.882L430.556 141.882L421.664 156L417.647 156L417.647 135.876ZM450.704 156.468C448.52 156.468 446.7 156.13 445.244 155.454C443.788 154.778 442.631 153.842 441.773 152.646L444.503 150.228C445.179 151.164 445.998 151.879 446.96 152.373C447.948 152.841 449.183 153.075 450.665 153.075C452.225 153.075 453.382 152.815 454.136 152.295C454.89 151.775 455.267 151.099 455.267 150.267L455.267 149.877C455.267 149.045 455.007 148.408 454.487 147.966C453.967 147.524 453.174 147.303 452.108 147.303L446.999 147.303L446.999 144.183L451.679 144.183C452.771 144.183 453.564 143.975 454.058 143.559C454.578 143.117 454.838 142.506 454.838 141.726L454.838 141.336C454.838 140.582 454.513 139.971 453.863 139.503C453.213 139.035 452.134 138.801 450.626 138.801C449.222 138.801 448.065 139.035 447.155 139.503C446.245 139.945 445.452 140.595 444.776 141.453L442.163 139.347C443.125 138.099 444.282 137.137 445.634 136.461C447.012 135.759 448.793 135.408 450.977 135.408C453.681 135.408 455.735 135.915 457.139 136.929C458.543 137.917 459.245 139.23 459.245 140.868C459.245 142.064 458.894 143.039 458.192 143.793C457.516 144.547 456.567 145.067 455.345 145.353L455.345 145.509C456.671 145.717 457.711 146.237 458.465 147.069C459.245 147.875 459.635 148.941 459.635 150.267C459.635 152.139 458.855 153.647 457.295 154.791C455.735 155.909 453.538 156.468 450.704 156.468ZM468.59 135.876L472.841 135.876L472.841 142.506L478.574 142.506C480.654 142.506 482.318 143.091 483.566 144.261C484.814 145.431 485.438 147.095 485.438 149.253C485.438 151.411 484.814 153.075 483.566 154.245C482.318 155.415 480.654 156 478.574 156L468.59 156L468.59 135.876ZM477.833 152.685C478.821 152.685 479.601 152.451 480.173 151.983C480.771 151.515 481.07 150.826 481.07 149.916L481.07 148.59C481.07 147.68 480.771 146.991 480.173 146.523C479.601 146.055 478.821 145.821 477.833 145.821L472.841 145.821L472.841 152.685L477.833 152.685ZM499.384 139.308L492.325 139.308L492.325 135.876L510.733 135.876L510.733 139.308L503.635 139.308L503.635 156L499.384 156L499.384 139.308ZM527.098 156.468C525.564 156.468 524.186 156.221 522.964 155.727C521.742 155.233 520.715 154.531 519.883 153.621C519.051 152.711 518.414 151.619 517.972 150.345C517.53 149.045 517.309 147.589 517.309 145.977C517.309 144.365 517.53 142.909 517.972 141.609C518.44 140.309 519.077 139.204 519.883 138.294C520.715 137.358 521.716 136.643 522.886 136.149C524.056 135.655 525.356 135.408 526.786 135.408C528.19 135.408 529.464 135.655 530.608 136.149C531.752 136.617 532.727 137.293 533.533 138.177C534.339 139.061 534.95 140.114 535.366 141.336C535.808 142.558 536.029 143.91 536.029 145.392L536.029 146.991L521.599 146.991L521.599 147.654C521.599 149.24 522.093 150.54 523.081 151.554C524.069 152.542 525.434 153.036 527.176 153.036C528.476 153.036 529.581 152.763 530.491 152.217C531.427 151.645 532.181 150.891 532.753 149.955L535.405 152.295C534.729 153.465 533.689 154.453 532.285 155.259C530.907 156.065 529.178 156.468 527.098 156.468ZM526.786 138.645C526.032 138.645 525.33 138.775 524.68 139.035C524.056 139.295 523.51 139.672 523.042 140.166C522.6 140.634 522.249 141.193 521.989 141.843C521.729 142.493 521.599 143.208 521.599 143.988L521.599 144.261L531.7 144.261L531.7 143.871C531.7 142.285 531.245 141.024 530.335 140.088C529.451 139.126 528.268 138.645 526.786 138.645ZM568.837 135.876L573.088 135.876L573.088 143.988L576.715 143.988L581.551 135.876L586.114 135.876L581.629 143.208C581.187 143.962 580.758 144.495 580.342 144.807C579.926 145.119 579.445 145.34 578.899 145.47L578.899 145.665C579.523 145.795 580.043 146.029 580.459 146.367C580.875 146.679 581.304 147.225 581.746 148.005L584.281 152.568L586.465 152.568L586.465 156L583.969 156C583.111 156 582.37 155.805 581.746 155.415C581.148 154.999 580.589 154.336 580.069 153.426L576.715 147.42L573.088 147.42L573.088 156L568.837 156L568.837 135.876ZM602.088 156.468C600.606 156.468 599.267 156.221 598.071 155.727C596.901 155.233 595.9 154.531 595.068 153.621C594.262 152.711 593.638 151.606 593.196 150.306C592.754 149.006 592.533 147.55 592.533 145.938C592.533 144.326 592.754 142.87 593.196 141.57C593.638 140.27 594.262 139.165 595.068 138.255C595.9 137.345 596.901 136.643 598.071 136.149C599.267 135.655 600.606 135.408 602.088 135.408C603.57 135.408 604.896 135.655 606.066 136.149C607.262 136.643 608.263 137.345 609.069 138.255C609.901 139.165 610.538 140.27 610.98 141.57C611.422 142.87 611.643 144.326 611.643 145.938C611.643 147.55 611.422 149.006 610.98 150.306C610.538 151.606 609.901 152.711 609.069 153.621C608.263 154.531 607.262 155.233 606.066 155.727C604.896 156.221 603.57 156.468 602.088 156.468ZM602.088 153.114C603.648 153.114 604.883 152.646 605.793 151.71C606.729 150.748 607.197 149.331 607.197 147.459L607.197 144.417C607.197 142.545 606.729 141.141 605.793 140.205C604.883 139.243 603.648 138.762 602.088 138.762C600.528 138.762 599.28 139.243 598.344 140.205C597.434 141.141 596.979 142.545 596.979 144.417L596.979 147.459C596.979 149.331 597.434 150.748 598.344 151.71C599.28 152.646 600.528 153.114 602.088 153.114ZM627.969 156.468C626.461 156.468 625.109 156.221 623.913 155.727C622.743 155.233 621.742 154.531 620.91 153.621C620.104 152.711 619.48 151.606 619.038 150.306C618.622 149.006 618.414 147.55 618.414 145.938C618.414 144.326 618.622 142.87 619.038 141.57C619.48 140.27 620.104 139.165 620.91 138.255C621.742 137.345 622.743 136.643 623.913 136.149C625.109 135.655 626.448 135.408 627.93 135.408C630.01 135.408 631.674 135.85 632.922 136.734C634.196 137.618 635.145 138.762 635.769 140.166L632.454 141.96C632.09 141.024 631.531 140.283 630.777 139.737C630.049 139.191 629.1 138.918 627.93 138.918C626.318 138.918 625.07 139.412 624.186 140.4C623.302 141.362 622.86 142.649 622.86 144.261L622.86 147.615C622.86 149.201 623.302 150.488 624.186 151.476C625.07 152.464 626.344 152.958 628.008 152.958C629.256 152.958 630.27 152.672 631.05 152.1C631.856 151.528 632.493 150.748 632.961 149.76L636.081 151.671C635.431 153.075 634.443 154.232 633.117 155.142C631.791 156.026 630.075 156.468 627.969 156.468ZM643.125 135.876L648.078 135.876L652.446 145.353L652.719 145.353L657.087 135.876L661.611 135.876L661.611 156L657.906 156L657.906 144.651L658.062 141.102L657.789 141.102L652.368 152.841L646.947 141.102L646.674 141.102L646.83 144.651L646.83 156L643.125 156L643.125 135.876ZM677.508 156.468C676.026 156.468 674.687 156.221 673.491 155.727C672.321 155.233 671.32 154.531 670.488 153.621C669.682 152.711 669.058 151.606 668.616 150.306C668.174 149.006 667.953 147.55 667.953 145.938C667.953 144.326 668.174 142.87 668.616 141.57C669.058 140.27 669.682 139.165 670.488 138.255C671.32 137.345 672.321 136.643 673.491 136.149C674.687 135.655 676.026 135.408 677.508 135.408C678.99 135.408 680.316 135.655 681.486 136.149C682.682 136.643 683.683 137.345 684.489 138.255C685.321 139.165 685.958 140.27 686.4 141.57C686.842 142.87 687.063 144.326 687.063 145.938C687.063 147.55 686.842 149.006 686.4 150.306C685.958 151.606 685.321 152.711 684.489 153.621C683.683 154.531 682.682 155.233 681.486 155.727C680.316 156.221 678.99 156.468 677.508 156.468ZM677.508 153.114C679.068 153.114 680.303 152.646 681.213 151.71C682.149 150.748 682.617 149.331 682.617 147.459L682.617 144.417C682.617 142.545 682.149 141.141 681.213 140.205C680.303 139.243 679.068 138.762 677.508 138.762C675.948 138.762 674.7 139.243 673.764 140.205C672.854 141.141 672.399 142.545 672.399 144.417L672.399 147.459C672.399 149.331 672.854 150.748 673.764 151.71C674.7 152.646 675.948 153.114 677.508 153.114ZM703.388 156.468C701.88 156.468 700.528 156.221 699.332 155.727C698.162 155.233 697.161 154.531 696.329 153.621C695.523 152.711 694.899 151.606 694.457 150.306C694.041 149.006 693.833 147.55 693.833 145.938C693.833 144.326 694.041 142.87 694.457 141.57C694.899 140.27 695.523 139.165 696.329 138.255C697.161 137.345 698.162 136.643 699.332 136.149C700.528 135.655 701.867 135.408 703.349 135.408C705.429 135.408 707.093 135.85 708.341 136.734C709.615 137.618 710.564 138.762 711.188 140.166L707.873 141.96C707.509 141.024 706.95 140.283 706.196 139.737C705.468 139.191 704.519 138.918 703.349 138.918C701.737 138.918 700.489 139.412 699.605 140.4C698.721 141.362 698.279 142.649 698.279 144.261L698.279 147.615C698.279 149.201 698.721 150.488 699.605 151.476C700.489 152.464 701.763 152.958 703.427 152.958C704.675 152.958 705.689 152.672 706.469 152.1C707.275 151.528 707.912 150.748 708.38 149.76L711.5 151.671C710.85 153.075 709.862 154.232 708.536 155.142C707.21 156.026 705.494 156.468 703.388 156.468ZM744.815 135.876L749.066 135.876L749.066 143.988L752.693 143.988L757.529 135.876L762.092 135.876L757.607 143.208C757.165 143.962 756.736 144.495 756.32 144.807C755.904 145.119 755.423 145.34 754.877 145.47L754.877 145.665C755.501 145.795 756.021 146.029 756.437 146.367C756.853 146.679 757.282 147.225 757.724 148.005L760.259 152.568L762.443 152.568L762.443 156L759.947 156C759.089 156 758.348 155.805 757.724 155.415C757.126 154.999 756.567 154.336 756.047 153.426L752.693 147.42L749.066 147.42L749.066 156L744.815 156L744.815 135.876ZM794.821 135.876L811.591 135.876L811.591 156L807.34 156L807.34 139.308L799.072 139.308L799.072 156L794.821 156L794.821 135.876ZM819.727 135.876L823.978 135.876L823.978 139.308L824.212 139.308C824.81 138.086 825.603 137.137 826.591 136.461C827.579 135.759 828.814 135.408 830.296 135.408C832.662 135.408 834.547 136.292 835.951 138.06C837.355 139.828 838.057 142.454 838.057 145.938C838.057 149.422 837.355 152.048 835.951 153.816C834.547 155.584 832.662 156.468 830.296 156.468C828.814 156.468 827.579 156.13 826.591 155.454C825.603 154.752 824.81 153.79 824.212 152.568L823.978 152.568L823.978 163.8L819.727 163.8L819.727 135.876ZM828.541 152.997C830.153 152.997 831.388 152.503 832.246 151.515C833.13 150.527 833.572 149.214 833.572 147.576L833.572 144.3C833.572 142.662 833.13 141.349 832.246 140.361C831.388 139.373 830.153 138.879 828.541 138.879C827.917 138.879 827.332 138.957 826.786 139.113C826.24 139.269 825.759 139.503 825.343 139.815C824.927 140.127 824.589 140.517 824.329 140.985C824.095 141.427 823.978 141.96 823.978 142.584L823.978 149.292C823.978 149.916 824.095 150.462 824.329 150.93C824.589 151.372 824.927 151.749 825.343 152.061C825.759 152.373 826.24 152.607 826.786 152.763C827.332 152.919 827.917 152.997 828.541 152.997ZM853.486 156.468C852.004 156.468 850.665 156.221 849.469 155.727C848.299 155.233 847.298 154.531 846.466 153.621C845.66 152.711 845.036 151.606 844.594 150.306C844.152 149.006 843.931 147.55 843.931 145.938C843.931 144.326 844.152 142.87 844.594 141.57C845.036 140.27 845.66 139.165 846.466 138.255C847.298 137.345 848.299 136.643 849.469 136.149C850.665 135.655 852.004 135.408 853.486 135.408C854.968 135.408 856.294 135.655 857.464 136.149C858.66 136.643 859.661 137.345 860.467 138.255C861.299 139.165 861.936 140.27 862.378 141.57C862.82 142.87 863.041 144.326 863.041 145.938C863.041 147.55 862.82 149.006 862.378 150.306C861.936 151.606 861.299 152.711 860.467 153.621C859.661 154.531 858.66 155.233 857.464 155.727C856.294 156.221 854.968 156.468 853.486 156.468ZM853.486 153.114C855.046 153.114 856.281 152.646 857.191 151.71C858.127 150.748 858.595 149.331 858.595 147.459L858.595 144.417C858.595 142.545 858.127 141.141 857.191 140.205C856.281 139.243 855.046 138.762 853.486 138.762C851.926 138.762 850.678 139.243 849.742 140.205C848.832 141.141 848.377 142.545 848.377 144.417L848.377 147.459C848.377 149.331 848.832 150.748 849.742 151.71C850.678 152.646 851.926 153.114 853.486 153.114ZM879.367 156.468C877.859 156.468 876.507 156.221 875.311 155.727C874.141 155.233 873.14 154.531 872.308 153.621C871.502 152.711 870.878 151.606 870.436 150.306C870.02 149.006 869.812 147.55 869.812 145.938C869.812 144.326 870.02 142.87 870.436 141.57C870.878 140.27 871.502 139.165 872.308 138.255C873.14 137.345 874.141 136.643 875.311 136.149C876.507 135.655 877.846 135.408 879.328 135.408C881.408 135.408 883.072 135.85 884.32 136.734C885.594 137.618 886.543 138.762 887.167 140.166L883.852 141.96C883.488 141.024 882.929 140.283 882.175 139.737C881.447 139.191 880.498 138.918 879.328 138.918C877.716 138.918 876.468 139.412 875.584 140.4C874.7 141.362 874.258 142.649 874.258 144.261L874.258 147.615C874.258 149.201 874.7 150.488 875.584 151.476C876.468 152.464 877.742 152.958 879.406 152.958C880.654 152.958 881.668 152.672 882.448 152.1C883.254 151.528 883.891 150.748 884.359 149.76L887.479 151.671C886.829 153.075 885.841 154.232 884.515 155.142C883.189 156.026 881.473 156.468 879.367 156.468ZM901.621 139.308L894.562 139.308L894.562 135.876L912.97 135.876L912.97 139.308L905.872 139.308L905.872 156L901.621 156L901.621 139.308ZM920.286 135.876L924.537 135.876L924.537 139.308L924.771 139.308C925.369 138.086 926.162 137.137 927.15 136.461C928.138 135.759 929.373 135.408 930.855 135.408C933.221 135.408 935.106 136.292 936.51 138.06C937.914 139.828 938.616 142.454 938.616 145.938C938.616 149.422 937.914 152.048 936.51 153.816C935.106 155.584 933.221 156.468 930.855 156.468C929.373 156.468 928.138 156.13 927.15 155.454C926.162 154.752 925.369 153.79 924.771 152.568L924.537 152.568L924.537 163.8L920.286 163.8L920.286 135.876ZM929.1 152.997C930.712 152.997 931.947 152.503 932.805 151.515C933.689 150.527 934.131 149.214 934.131 147.576L934.131 144.3C934.131 142.662 933.689 141.349 932.805 140.361C931.947 139.373 930.712 138.879 929.1 138.879C928.476 138.879 927.891 138.957 927.345 139.113C926.799 139.269 926.318 139.503 925.902 139.815C925.486 140.127 925.148 140.517 924.888 140.985C924.654 141.427 924.537 141.96 924.537 142.584L924.537 149.292C924.537 149.916 924.654 150.462 924.888 150.93C925.148 151.372 925.486 151.749 925.902 152.061C926.318 152.373 926.799 152.607 927.345 152.763C927.891 152.919 928.476 152.997 929.1 152.997ZM961.533 156C960.311 156 959.388 155.688 958.764 155.064C958.166 154.44 957.802 153.621 957.672 152.607L957.477 152.607C957.087 153.829 956.372 154.778 955.332 155.454C954.318 156.13 953.018 156.468 951.432 156.468C949.378 156.468 947.74 155.935 946.518 154.869C945.296 153.777 944.685 152.282 944.685 150.384C944.685 148.434 945.4 146.952 946.83 145.938C948.286 144.898 950.509 144.378 953.499 144.378L957.36 144.378L957.36 142.818C957.36 140.088 955.917 138.723 953.031 138.723C951.731 138.723 950.678 138.983 949.872 139.503C949.066 139.997 948.39 140.66 947.844 141.492L945.309 139.425C945.881 138.333 946.843 137.397 948.195 136.617C949.547 135.811 951.289 135.408 953.421 135.408C955.969 135.408 957.971 136.019 959.427 137.241C960.883 138.463 961.611 140.231 961.611 142.545L961.611 152.646L964.146 152.646L964.146 156L961.533 156ZM952.641 153.348C954.019 153.348 955.15 153.036 956.034 152.412C956.918 151.788 957.36 150.982 957.36 149.994L957.36 147.069L953.577 147.069C950.509 147.069 948.975 147.992 948.975 149.838L948.975 150.618C948.975 151.528 949.3 152.217 949.95 152.685C950.6 153.127 951.497 153.348 952.641 153.348ZM970.761 135.876L975.012 135.876L975.012 143.988L983.358 143.988L983.358 135.876L987.609 135.876L987.609 156L983.358 156L983.358 147.42L975.012 147.42L975.012 156L970.761 156L970.761 135.876ZM1005.07 156.468C1003.56 156.468 1002.21 156.221 1001.01 155.727C999.84 155.233 998.839 154.531 998.007 153.621C997.201 152.711 996.577 151.606 996.135 150.306C995.719 149.006 995.511 147.55 995.511 145.938C995.511 144.326 995.719 142.87 996.135 141.57C996.577 140.27 997.201 139.165 998.007 138.255C998.839 137.345 999.84 136.643 1001.01 136.149C1002.21 135.655 1003.54 135.408 1005.03 135.408C1007.11 135.408 1008.77 135.85 1010.02 136.734C1011.29 137.618 1012.24 138.762 1012.87 140.166L1009.55 141.96C1009.19 141.024 1008.63 140.283 1007.87 139.737C1007.15 139.191 1006.2 138.918 1005.03 138.918C1003.41 138.918 1002.17 139.412 1001.28 140.4C1000.4 141.362 999.957 142.649 999.957 144.261L999.957 147.615C999.957 149.201 1000.4 150.488 1001.28 151.476C1002.17 152.464 1003.44 152.958 1005.1 152.958C1006.35 152.958 1007.37 152.672 1008.15 152.1C1008.95 151.528 1009.59 150.748 1010.06 149.76L1013.18 151.671C1012.53 153.075 1011.54 154.232 1010.21 155.142C1008.89 156.026 1007.17 156.468 1005.07 156.468ZM1027.32 139.308L1020.26 139.308L1020.26 135.876L1038.67 135.876L1038.67 139.308L1031.57 139.308L1031.57 156L1027.32 156L1027.32 139.308ZM1046.61 135.876L1057.41 135.876C1059.15 135.876 1060.51 136.344 1061.47 137.28C1062.43 138.19 1062.91 139.412 1062.91 140.946C1062.91 143.442 1061.55 144.898 1058.82 145.314L1058.82 145.509C1060.48 145.639 1061.7 146.12 1062.48 146.952C1063.26 147.758 1063.65 148.824 1063.65 150.15C1063.65 150.956 1063.51 151.71 1063.22 152.412C1062.96 153.114 1062.57 153.738 1062.05 154.284C1061.53 154.804 1060.88 155.22 1060.1 155.532C1059.35 155.844 1058.49 156 1057.53 156L1046.61 156L1046.61 135.876ZM1056.63 152.802C1057.46 152.802 1058.11 152.607 1058.58 152.217C1059.05 151.801 1059.28 151.216 1059.28 150.462L1059.28 149.526C1059.28 148.772 1059.05 148.187 1058.58 147.771C1058.14 147.355 1057.54 147.147 1056.79 147.147L1050.86 147.147L1050.86 152.802L1056.63 152.802ZM1056.24 144.3C1056.94 144.3 1057.5 144.105 1057.92 143.715C1058.34 143.325 1058.54 142.792 1058.54 142.116L1058.54 141.258C1058.54 140.582 1058.34 140.049 1057.92 139.659C1057.5 139.269 1056.94 139.074 1056.24 139.074L1050.86 139.074L1050.86 144.3L1056.24 144.3ZM1085.63 135.876L1089.92 135.876L1080.17 159.9C1079.65 161.2 1078.96 162.175 1078.11 162.825C1077.27 163.475 1076.06 163.8 1074.48 163.8L1071.09 163.8L1071.09 160.368L1075.84 160.368L1077.68 155.727L1069.56 135.876L1074.01 135.876L1077.21 144.3L1079.7 151.203L1079.94 151.203L1082.43 144.3L1085.63 135.876ZM414.281 223.468C412.773 223.468 411.421 223.221 410.225 222.727C409.055 222.233 408.054 221.531 407.222 220.621C406.416 219.711 405.792 218.606 405.35 217.306C404.934 216.006 404.726 214.55 404.726 212.938C404.726 211.326 404.934 209.87 405.35 208.57C405.792 207.27 406.416 206.165 407.222 205.255C408.054 204.345 409.055 203.643 410.225 203.149C411.421 202.655 412.76 202.408 414.242 202.408C416.322 202.408 417.986 202.85 419.234 203.734C420.508 204.618 421.457 205.762 422.081 207.166L418.766 208.96C418.402 208.024 417.843 207.283 417.089 206.737C416.361 206.191 415.412 205.918 414.242 205.918C412.63 205.918 411.382 206.412 410.498 207.4C409.614 208.362 409.172 209.649 409.172 211.261L409.172 214.615C409.172 216.201 409.614 217.488 410.498 218.476C411.382 219.464 412.656 219.958 414.32 219.958C415.568 219.958 416.582 219.672 417.362 219.1C418.168 218.528 418.805 217.748 419.273 216.76L422.393 218.671C421.743 220.075 420.755 221.232 419.429 222.142C418.103 223.026 416.387 223.468 414.281 223.468ZM430.685 202.876L441.488 202.876C443.23 202.876 444.582 203.344 445.544 204.28C446.506 205.19 446.987 206.412 446.987 207.946C446.987 210.442 445.622 211.898 442.892 212.314L442.892 212.509C444.556 212.639 445.778 213.12 446.558 213.952C447.338 214.758 447.728 215.824 447.728 217.15C447.728 217.956 447.585 218.71 447.299 219.412C447.039 220.114 446.649 220.738 446.129 221.284C445.609 221.804 444.959 222.22 444.179 222.532C443.425 222.844 442.567 223 441.605 223L430.685 223L430.685 202.876ZM440.708 219.802C441.54 219.802 442.19 219.607 442.658 219.217C443.126 218.801 443.36 218.216 443.36 217.462L443.36 216.526C443.36 215.772 443.126 215.187 442.658 214.771C442.216 214.355 441.618 214.147 440.864 214.147L434.936 214.147L434.936 219.802L440.708 219.802ZM440.318 211.3C441.02 211.3 441.579 211.105 441.995 210.715C442.411 210.325 442.619 209.792 442.619 209.116L442.619 208.258C442.619 207.582 442.411 207.049 441.995 206.659C441.579 206.269 441.02 206.074 440.318 206.074L434.936 206.074L434.936 211.3L440.318 211.3ZM463.82 223.468C462.338 223.468 460.999 223.221 459.803 222.727C458.633 222.233 457.632 221.531 456.8 220.621C455.994 219.711 455.37 218.606 454.928 217.306C454.486 216.006 454.265 214.55 454.265 212.938C454.265 211.326 454.486 209.87 454.928 208.57C455.37 207.27 455.994 206.165 456.8 205.255C457.632 204.345 458.633 203.643 459.803 203.149C460.999 202.655 462.338 202.408 463.82 202.408C465.302 202.408 466.628 202.655 467.798 203.149C468.994 203.643 469.995 204.345 470.801 205.255C471.633 206.165 472.27 207.27 472.712 208.57C473.154 209.87 473.375 211.326 473.375 212.938C473.375 214.55 473.154 216.006 472.712 217.306C472.27 218.606 471.633 219.711 470.801 220.621C469.995 221.531 468.994 222.233 467.798 222.727C466.628 223.221 465.302 223.468 463.82 223.468ZM463.82 220.114C465.38 220.114 466.615 219.646 467.525 218.71C468.461 217.748 468.929 216.331 468.929 214.459L468.929 211.417C468.929 209.545 468.461 208.141 467.525 207.205C466.615 206.243 465.38 205.762 463.82 205.762C462.26 205.762 461.012 206.243 460.076 207.205C459.166 208.141 458.711 209.545 458.711 211.417L458.711 214.459C458.711 216.331 459.166 217.748 460.076 218.71C461.012 219.646 462.26 220.114 463.82 220.114ZM489.388 223.468C487.854 223.468 486.476 223.221 485.254 222.727C484.032 222.233 483.005 221.531 482.173 220.621C481.341 219.711 480.704 218.619 480.262 217.345C479.82 216.045 479.599 214.589 479.599 212.977C479.599 211.365 479.82 209.909 480.262 208.609C480.73 207.309 481.367 206.204 482.173 205.294C483.005 204.358 484.006 203.643 485.176 203.149C486.346 202.655 487.646 202.408 489.076 202.408C490.48 202.408 491.754 202.655 492.898 203.149C494.042 203.617 495.017 204.293 495.823 205.177C496.629 206.061 497.24 207.114 497.656 208.336C498.098 209.558 498.319 210.91 498.319 212.392L498.319 213.991L483.889 213.991L483.889 214.654C483.889 216.24 484.383 217.54 485.371 218.554C486.359 219.542 487.724 220.036 489.466 220.036C490.766 220.036 491.871 219.763 492.781 219.217C493.717 218.645 494.471 217.891 495.043 216.955L497.695 219.295C497.019 220.465 495.979 221.453 494.575 222.259C493.197 223.065 491.468 223.468 489.388 223.468ZM489.076 205.645C488.322 205.645 487.62 205.775 486.97 206.035C486.346 206.295 485.8 206.672 485.332 207.166C484.89 207.634 484.539 208.193 484.279 208.843C484.019 209.493 483.889 210.208 483.889 210.988L483.889 211.261L493.99 211.261L493.99 210.871C493.99 209.285 493.535 208.024 492.625 207.088C491.741 206.126 490.558 205.645 489.076 205.645ZM507.43 202.876L522.211 202.876L522.211 206.308L511.681 206.308L511.681 223L507.43 223L507.43 202.876ZM539.239 223.468C537.757 223.468 536.418 223.221 535.222 222.727C534.052 222.233 533.051 221.531 532.219 220.621C531.413 219.711 530.789 218.606 530.347 217.306C529.905 216.006 529.684 214.55 529.684 212.938C529.684 211.326 529.905 209.87 530.347 208.57C530.789 207.27 531.413 206.165 532.219 205.255C533.051 204.345 534.052 203.643 535.222 203.149C536.418 202.655 537.757 202.408 539.239 202.408C540.721 202.408 542.047 202.655 543.217 203.149C544.413 203.643 545.414 204.345 546.22 205.255C547.052 206.165 547.689 207.27 548.131 208.57C548.573 209.87 548.794 211.326 548.794 212.938C548.794 214.55 548.573 216.006 548.131 217.306C547.689 218.606 547.052 219.711 546.22 220.621C545.414 221.531 544.413 222.233 543.217 222.727C542.047 223.221 540.721 223.468 539.239 223.468ZM539.239 220.114C540.799 220.114 542.034 219.646 542.944 218.71C543.88 217.748 544.348 216.331 544.348 214.459L544.348 211.417C544.348 209.545 543.88 208.141 542.944 207.205C542.034 206.243 540.799 205.762 539.239 205.762C537.679 205.762 536.431 206.243 535.495 207.205C534.585 208.141 534.13 209.545 534.13 211.417L534.13 214.459C534.13 216.331 534.585 217.748 535.495 218.71C536.431 219.646 537.679 220.114 539.239 220.114ZM578.481 219.568L580.782 219.568C581.536 218.372 582.134 216.929 582.576 215.239C583.018 213.523 583.239 211.495 583.239 209.155L583.239 202.876L596.967 202.876L596.967 219.568L600.204 219.568L600.204 228.46L596.382 228.46L596.382 223L582.303 223L582.303 228.46L578.481 228.46L578.481 219.568ZM592.794 219.568L592.794 206.308L587.217 206.308L587.217 209.311C587.217 211.599 587.035 213.575 586.671 215.239C586.333 216.877 585.826 218.32 585.15 219.568L592.794 219.568ZM614.658 223.468C613.176 223.468 611.837 223.221 610.641 222.727C609.471 222.233 608.47 221.531 607.638 220.621C606.832 219.711 606.208 218.606 605.766 217.306C605.324 216.006 605.103 214.55 605.103 212.938C605.103 211.326 605.324 209.87 605.766 208.57C606.208 207.27 606.832 206.165 607.638 205.255C608.47 204.345 609.471 203.643 610.641 203.149C611.837 202.655 613.176 202.408 614.658 202.408C616.14 202.408 617.466 202.655 618.636 203.149C619.832 203.643 620.833 204.345 621.639 205.255C622.471 206.165 623.108 207.27 623.55 208.57C623.992 209.87 624.213 211.326 624.213 212.938C624.213 214.55 623.992 216.006 623.55 217.306C623.108 218.606 622.471 219.711 621.639 220.621C620.833 221.531 619.832 222.233 618.636 222.727C617.466 223.221 616.14 223.468 614.658 223.468ZM614.658 220.114C616.218 220.114 617.453 219.646 618.363 218.71C619.299 217.748 619.767 216.331 619.767 214.459L619.767 211.417C619.767 209.545 619.299 208.141 618.363 207.205C617.453 206.243 616.218 205.762 614.658 205.762C613.098 205.762 611.85 206.243 610.914 207.205C610.004 208.141 609.549 209.545 609.549 211.417L609.549 214.459C609.549 216.331 610.004 217.748 610.914 218.71C611.85 219.646 613.098 220.114 614.658 220.114ZM630.555 202.876L635.508 202.876L639.876 212.353L640.149 212.353L644.517 202.876L649.041 202.876L649.041 223L645.336 223L645.336 211.651L645.492 208.102L645.219 208.102L639.798 219.841L634.377 208.102L634.104 208.102L634.26 211.651L634.26 223L630.555 223L630.555 202.876ZM672.426 223C671.204 223 670.281 222.688 669.657 222.064C669.059 221.44 668.695 220.621 668.565 219.607L668.37 219.607C667.98 220.829 667.265 221.778 666.225 222.454C665.211 223.13 663.911 223.468 662.325 223.468C660.271 223.468 658.633 222.935 657.411 221.869C656.189 220.777 655.578 219.282 655.578 217.384C655.578 215.434 656.293 213.952 657.723 212.938C659.179 211.898 661.402 211.378 664.392 211.378L668.253 211.378L668.253 209.818C668.253 207.088 666.81 205.723 663.924 205.723C662.624 205.723 661.571 205.983 660.765 206.503C659.959 206.997 659.283 207.66 658.737 208.492L656.202 206.425C656.774 205.333 657.736 204.397 659.088 203.617C660.44 202.811 662.182 202.408 664.314 202.408C666.862 202.408 668.864 203.019 670.32 204.241C671.776 205.463 672.504 207.231 672.504 209.545L672.504 219.646L675.039 219.646L675.039 223L672.426 223ZM663.534 220.348C664.912 220.348 666.043 220.036 666.927 219.412C667.811 218.788 668.253 217.982 668.253 216.994L668.253 214.069L664.47 214.069C661.402 214.069 659.868 214.992 659.868 216.838L659.868 217.618C659.868 218.528 660.193 219.217 660.843 219.685C661.493 220.127 662.39 220.348 663.534 220.348ZM706.754 202.876L710.966 202.876L710.966 211.534L710.576 216.994L710.771 216.994L719.663 202.876L723.68 202.876L723.68 223L719.468 223L719.468 214.342L719.858 208.882L719.663 208.882L710.771 223L706.754 223L706.754 202.876ZM729.593 219.568L732.206 219.568C732.544 219.126 732.843 218.619 733.103 218.047C733.389 217.449 733.61 216.734 733.766 215.902C733.948 215.07 734.078 214.108 734.156 213.016C734.26 211.924 734.312 210.65 734.312 209.194L734.312 202.876L748.547 202.876L748.547 223L744.296 223L744.296 206.308L738.29 206.308L738.29 209.272C738.29 212.678 738.043 215.343 737.549 217.267C737.055 219.191 736.379 220.595 735.521 221.479C734.923 222.103 734.234 222.519 733.454 222.727C732.674 222.909 731.855 223 730.997 223L729.593 223L729.593 219.568ZM757.034 202.876L761.246 202.876L761.246 211.534L760.856 216.994L761.051 216.994L769.943 202.876L773.96 202.876L773.96 223L769.748 223L769.748 214.342L770.138 208.882L769.943 208.882L761.051 223L757.034 223L757.034 202.876ZM815.776 223.468C814.294 223.468 812.955 223.221 811.759 222.727C810.589 222.233 809.588 221.531 808.756 220.621C807.95 219.711 807.326 218.606 806.884 217.306C806.442 216.006 806.221 214.55 806.221 212.938C806.221 211.326 806.442 209.87 806.884 208.57C807.326 207.27 807.95 206.165 808.756 205.255C809.588 204.345 810.589 203.643 811.759 203.149C812.955 202.655 814.294 202.408 815.776 202.408C817.258 202.408 818.584 202.655 819.754 203.149C820.95 203.643 821.951 204.345 822.757 205.255C823.589 206.165 824.226 207.27 824.668 208.57C825.11 209.87 825.331 211.326 825.331 212.938C825.331 214.55 825.11 216.006 824.668 217.306C824.226 218.606 823.589 219.711 822.757 220.621C821.951 221.531 820.95 222.233 819.754 222.727C818.584 223.221 817.258 223.468 815.776 223.468ZM815.776 220.114C817.336 220.114 818.571 219.646 819.481 218.71C820.417 217.748 820.885 216.331 820.885 214.459L820.885 211.417C820.885 209.545 820.417 208.141 819.481 207.205C818.571 206.243 817.336 205.762 815.776 205.762C814.216 205.762 812.968 206.243 812.032 207.205C811.122 208.141 810.667 209.545 810.667 211.417L810.667 214.459C810.667 216.331 811.122 217.748 812.032 218.71C812.968 219.646 814.216 220.114 815.776 220.114ZM836.899 220.153C838.381 220.153 839.122 219.204 839.122 217.306L839.122 208.57C839.122 206.672 838.381 205.723 836.899 205.723C836.067 205.723 835.43 206.087 834.988 206.815C834.572 207.543 834.364 208.921 834.364 210.949L834.364 214.927C834.364 216.955 834.572 218.333 834.988 219.061C835.43 219.789 836.067 220.153 836.899 220.153ZM839.083 220.738L838.888 220.738C838.472 221.752 837.965 222.467 837.367 222.883C836.795 223.273 836.132 223.468 835.378 223.468C834.598 223.468 833.909 223.299 833.311 222.961C832.739 222.623 832.245 222.051 831.829 221.245C831.439 220.413 831.14 219.321 830.932 217.969C830.724 216.617 830.62 214.94 830.62 212.938C830.62 210.936 830.724 209.259 830.932 207.907C831.14 206.555 831.439 205.476 831.829 204.67C832.245 203.838 832.739 203.253 833.311 202.915C833.909 202.577 834.598 202.408 835.378 202.408C836.132 202.408 836.795 202.616 837.367 203.032C837.965 203.422 838.472 204.124 838.888 205.138L839.083 205.138L839.083 195.31L842.749 195.31L842.749 205.138L842.944 205.138C843.36 204.124 843.854 203.422 844.426 203.032C845.024 202.616 845.7 202.408 846.454 202.408C847.234 202.408 847.91 202.577 848.482 202.915C849.08 203.253 849.574 203.838 849.964 204.67C850.38 205.476 850.692 206.555 850.9 207.907C851.108 209.259 851.212 210.936 851.212 212.938C851.212 214.94 851.108 216.617 850.9 217.969C850.692 219.321 850.38 220.413 849.964 221.245C849.574 222.051 849.08 222.623 848.482 222.961C847.91 223.299 847.234 223.468 846.454 223.468C845.7 223.468 845.024 223.273 844.426 222.883C843.854 222.467 843.36 221.752 842.944 220.738L842.749 220.738L842.749 230.8L839.083 230.8L839.083 220.738ZM844.933 220.153C845.765 220.153 846.389 219.789 846.805 219.061C847.247 218.333 847.468 216.955 847.468 214.927L847.468 210.949C847.468 208.921 847.247 207.543 846.805 206.815C846.389 206.087 845.765 205.723 844.933 205.723C843.451 205.723 842.71 206.672 842.71 208.57L842.71 217.306C842.71 219.204 843.451 220.153 844.933 220.153ZM857.593 202.876L861.805 202.876L861.805 211.534L861.415 216.994L861.61 216.994L870.502 202.876L874.519 202.876L874.519 223L870.307 223L870.307 214.342L870.697 208.882L870.502 208.882L861.61 223L857.593 223L857.593 202.876ZM891.937 223.468C890.429 223.468 889.077 223.221 887.881 222.727C886.711 222.233 885.71 221.531 884.878 220.621C884.072 219.711 883.448 218.606 883.006 217.306C882.59 216.006 882.382 214.55 882.382 212.938C882.382 211.326 882.59 209.87 883.006 208.57C883.448 207.27 884.072 206.165 884.878 205.255C885.71 204.345 886.711 203.643 887.881 203.149C889.077 202.655 890.416 202.408 891.898 202.408C893.978 202.408 895.642 202.85 896.89 203.734C898.164 204.618 899.113 205.762 899.737 207.166L896.422 208.96C896.058 208.024 895.499 207.283 894.745 206.737C894.017 206.191 893.068 205.918 891.898 205.918C890.286 205.918 889.038 206.412 888.154 207.4C887.27 208.362 886.828 209.649 886.828 211.261L886.828 214.615C886.828 216.201 887.27 217.488 888.154 218.476C889.038 219.464 890.312 219.958 891.976 219.958C893.224 219.958 894.238 219.672 895.018 219.1C895.824 218.528 896.461 217.748 896.929 216.76L900.049 218.671C899.399 220.075 898.411 221.232 897.085 222.142C895.759 223.026 894.043 223.468 891.937 223.468ZM923.823 223C922.601 223 921.678 222.688 921.054 222.064C920.456 221.44 920.092 220.621 919.962 219.607L919.767 219.607C919.377 220.829 918.662 221.778 917.622 222.454C916.608 223.13 915.308 223.468 913.722 223.468C911.668 223.468 910.03 222.935 908.808 221.869C907.586 220.777 906.975 219.282 906.975 217.384C906.975 215.434 907.69 213.952 909.12 212.938C910.576 211.898 912.799 211.378 915.789 211.378L919.65 211.378L919.65 209.818C919.65 207.088 918.207 205.723 915.321 205.723C914.021 205.723 912.968 205.983 912.162 206.503C911.356 206.997 910.68 207.66 910.134 208.492L907.599 206.425C908.171 205.333 909.133 204.397 910.485 203.617C911.837 202.811 913.579 202.408 915.711 202.408C918.259 202.408 920.261 203.019 921.717 204.241C923.173 205.463 923.901 207.231 923.901 209.545L923.901 219.646L926.436 219.646L926.436 223L923.823 223ZM914.931 220.348C916.309 220.348 917.44 220.036 918.324 219.412C919.208 218.788 919.65 217.982 919.65 216.994L919.65 214.069L915.867 214.069C912.799 214.069 911.265 214.992 911.265 216.838L911.265 217.618C911.265 218.528 911.59 219.217 912.24 219.685C912.89 220.127 913.787 220.348 914.931 220.348ZM941.475 223.39C940.227 223.39 939.343 223.13 938.823 222.61C938.329 222.09 938.082 221.453 938.082 220.699L938.082 219.685C938.082 218.931 938.329 218.294 938.823 217.774C939.343 217.254 940.227 216.994 941.475 216.994C942.723 216.994 943.594 217.254 944.088 217.774C944.608 218.294 944.868 218.931 944.868 219.685L944.868 220.699C944.868 221.453 944.608 222.09 944.088 222.61C943.594 223.13 942.723 223.39 941.475 223.39Z" fill="white"/>
</svg>
