<svg width="1292" height="707" viewBox="0 0 1292 707" fill="none" xmlns="http://www.w3.org/2000/svg">
<path d="M56.5006 642.003L134.501 642.003C151.897 642.003 166 656.105 166 673.502C166 690.898 180.102 705 197.499 705L1089.5 705.005C1106.9 705.005 1121 690.901 1121 673.504C1121 656.106 1135.1 642.003 1152.5 642.003L1235.5 642.002C1265.6 642.001 1290 617.6 1290 587.501L1290 570.5C1290 549.789 1273.21 533 1252.5 533C1231.79 533 1215 516.21 1215 495.499L1215 486.728C1215 461.173 1194.28 440.456 1168.73 440.456L793.601 440.457C738.372 440.457 693.601 395.686 693.601 340.457C693.601 285.229 738.372 240.458 793.6 240.458L984.272 240.458C1021.12 240.458 1051 210.582 1051 173.729L1051 148.502C1051 125.582 1032.42 107.001 1009.5 107.001C986.58 107.001 968 88.4211 968 65.5013L968 54.5007C968 25.5053 944.494 1.99997 915.499 1.99997L391.501 1.99986C362.505 1.99986 339 25.5053 339 54.5006L339 63.0013C339 87.3019 319.301 107.001 295 107.001C270.699 107.001 251 126.701 251 151.001L251 173.729C251 210.582 280.875 240.457 317.728 240.457L497.999 240.457C553.228 240.457 597.999 285.229 597.999 340.458C597.999 395.686 553.228 440.458 497.999 440.458L123.272 440.458C97.7167 440.458 77 461.174 77 486.73L77 495.501C77 516.212 60.2107 533.002 39.5 533.002C18.7893 533.002 2.00001 549.791 2.00001 570.502L2.00001 587.502C2.00001 617.602 26.4008 642.003 56.5006 642.003Z" fill="#242424" fill-opacity="0.7" stroke="white" stroke-width="3"/>
<path d="M442.378 89V52.978H482.122V89H477.446V56.731H447.054V89H442.378ZM499.194 72.2656C499.194 74.0293 499.501 75.7622 500.117 77.4644C500.732 79.1665 501.696 80.6841 503.008 82.0171C504.341 83.3501 506.054 84.4268 508.145 85.2471C510.258 86.0469 512.811 86.4468 515.805 86.4468C518.102 86.4468 520.122 86.1904 521.865 85.6777C523.608 85.165 525.075 84.4985 526.264 83.6782C527.474 82.8374 528.417 81.894 529.094 80.8481C529.791 79.8022 530.253 78.7563 530.478 77.7104L534.97 77.7412C534.621 79.1973 534.016 80.6533 533.155 82.1094C532.314 83.5449 531.135 84.8369 529.617 85.9854C528.12 87.1338 526.243 88.0669 523.988 88.7847C521.732 89.5024 519.014 89.8613 515.836 89.8613C512.124 89.8613 508.925 89.3999 506.238 88.4771C503.552 87.5337 501.337 86.2212 499.594 84.5396C497.85 82.8374 496.558 80.8071 495.718 78.4487C494.877 76.0903 494.456 73.4858 494.456 70.6353V70.1123C494.456 67.5283 494.908 65.1392 495.81 62.9448C496.712 60.7505 498.045 58.8535 499.809 57.2539C501.593 55.6338 503.808 54.3726 506.453 53.4702C509.099 52.5679 512.175 52.1167 515.682 52.1167C519.127 52.1167 522.101 52.5884 524.603 53.5317C527.125 54.4546 529.197 55.7466 530.817 57.4077C532.457 59.0483 533.667 60.9966 534.447 63.2524C535.226 65.4878 535.616 67.9077 535.616 70.5122C535.636 70.8198 535.636 71.1172 535.616 71.4043C535.595 71.6914 535.585 71.9785 535.585 72.2656H499.194ZM499.163 69.1279H531.094V68.8818C531.012 66.8311 530.653 64.9751 530.017 63.314C529.381 61.6528 528.428 60.2378 527.156 59.0688C525.905 57.8794 524.316 56.9668 522.388 56.3311C520.481 55.6953 518.204 55.3774 515.559 55.3774C513.529 55.3774 511.714 55.5723 510.114 55.9619C508.514 56.3516 507.11 56.8745 505.9 57.5308C504.71 58.187 503.695 58.9561 502.854 59.8379C502.013 60.6992 501.326 61.6221 500.793 62.6064C500.26 63.5703 499.86 64.5547 499.594 65.5596C499.347 66.5645 499.204 67.5283 499.163 68.4512V69.1279ZM586.125 52.978V89H581.449V70.5737C580.649 72.0093 579.665 73.3218 578.496 74.5112C577.327 75.6802 576.004 76.6851 574.528 77.5259C573.051 78.3462 571.431 78.9819 569.668 79.4331C567.924 79.8843 566.068 80.1099 564.1 80.1099C561.126 80.1099 558.583 79.7817 556.471 79.1255C554.379 78.4487 552.626 77.5771 551.21 76.5107C549.795 75.4238 548.668 74.1934 547.827 72.8193C547.006 71.4248 546.381 70.0098 545.95 68.5742C545.52 67.1387 545.243 65.7339 545.12 64.3599C544.997 62.9653 544.935 61.7349 544.935 60.6685V52.978H549.58V60.6992C549.58 61.8887 549.652 63.1089 549.795 64.3599C549.939 65.6108 550.206 66.8311 550.595 68.0205C551.005 69.1895 551.559 70.2969 552.256 71.3428C552.974 72.3887 553.897 73.3013 555.025 74.0806C556.153 74.8599 557.506 75.4751 559.085 75.9263C560.685 76.3774 562.572 76.603 564.746 76.603C566.796 76.603 568.632 76.3467 570.252 75.834C571.893 75.3213 573.328 74.6343 574.559 73.7729C575.789 72.9116 576.835 71.917 577.696 70.7891C578.578 69.6611 579.296 68.4819 579.85 67.2515C580.403 66.021 580.803 64.77 581.049 63.4985C581.316 62.2271 581.449 61.0273 581.449 59.8994V52.978H586.125ZM633.312 89V80.6021C632.882 81.8735 632.123 83.0732 631.036 84.2012C629.949 85.3086 628.647 86.2827 627.129 87.1235C625.632 87.9644 623.971 88.6309 622.146 89.123C620.341 89.6152 618.506 89.8613 616.639 89.8613C613.994 89.8613 611.718 89.646 609.81 89.2153C607.924 88.8052 606.324 88.272 605.012 87.6157C603.699 86.939 602.643 86.1699 601.843 85.3086C601.043 84.4473 600.428 83.5757 599.997 82.6938C599.567 81.7915 599.28 80.9302 599.136 80.1099C598.992 79.269 598.921 78.5308 598.921 77.895C598.921 77.2593 598.982 76.5518 599.105 75.7725C599.249 74.9727 599.526 74.1626 599.936 73.3423C600.346 72.5015 600.93 71.6914 601.689 70.9121C602.448 70.1123 603.443 69.4048 604.673 68.7896C605.924 68.1743 607.452 67.6821 609.257 67.313C611.061 66.9233 613.215 66.7285 615.717 66.7285C617.583 66.7285 619.418 66.8721 621.223 67.1592C623.048 67.4258 624.74 67.7539 626.299 68.1436C627.857 68.5127 629.241 68.9126 630.451 69.3433C631.682 69.7534 632.636 70.0918 633.312 70.3584V67.8975C633.312 66.1748 633.107 64.5649 632.697 63.0679C632.287 61.5708 631.549 60.2686 630.482 59.1611C629.416 58.0332 627.96 57.1514 626.114 56.5156C624.289 55.8799 621.951 55.562 619.1 55.562C616.332 55.562 614.035 55.8184 612.21 56.3311C610.405 56.8438 608.949 57.5103 607.842 58.3306C606.755 59.1509 605.945 60.084 605.411 61.1299C604.899 62.1553 604.54 63.1807 604.335 64.2061H599.782C599.926 63.4678 600.131 62.6577 600.397 61.7759C600.684 60.8735 601.095 59.9814 601.628 59.0996C602.181 58.1973 602.899 57.3257 603.781 56.4849C604.683 55.644 605.832 54.9058 607.226 54.27C608.621 53.6138 610.292 53.0908 612.241 52.7012C614.209 52.3115 616.537 52.1167 619.223 52.1167C621.91 52.1167 624.238 52.3628 626.206 52.855C628.175 53.3267 629.857 53.9624 631.251 54.7622C632.646 55.562 633.774 56.4951 634.635 57.5615C635.517 58.6074 636.204 59.7148 636.696 60.8838C637.188 62.0527 637.527 63.2422 637.711 64.4521C637.896 65.6416 637.988 66.7695 637.988 67.8359V89H633.312ZM617.532 86.416C619.541 86.416 621.315 86.2109 622.853 85.8008C624.412 85.3701 625.765 84.8267 626.914 84.1704C628.083 83.4937 629.057 82.7451 629.836 81.9248C630.636 81.1045 631.282 80.2944 631.774 79.4946C632.287 78.6743 632.656 77.9155 632.882 77.2183C633.128 76.5005 633.271 75.916 633.312 75.4648V73.4038C632.656 73.0962 631.713 72.7373 630.482 72.3271C629.252 71.8965 627.857 71.4966 626.299 71.1274C624.74 70.7378 623.089 70.4097 621.346 70.1431C619.603 69.8765 617.901 69.7432 616.24 69.7432C614.332 69.7432 612.692 69.8765 611.318 70.1431C609.964 70.4097 608.816 70.7686 607.872 71.2197C606.949 71.6504 606.201 72.1528 605.627 72.7271C605.073 73.2808 604.642 73.855 604.335 74.4497C604.027 75.0444 603.822 75.6392 603.72 76.2339C603.637 76.8081 603.596 77.3208 603.596 77.772C603.596 78.2642 603.658 78.8179 603.781 79.4331C603.904 80.0483 604.14 80.6738 604.489 81.3096C604.837 81.9453 605.329 82.5708 605.965 83.186C606.621 83.8013 607.462 84.355 608.488 84.8472C609.513 85.3188 610.764 85.6982 612.241 85.9854C613.738 86.2725 615.501 86.416 617.532 86.416ZM664.196 56.4233V89H659.612V56.4233H643.862V52.978H679.884V56.4233H664.196ZM687.635 89V52.978H692.311V69.6201H724.211V52.978H728.886V89H724.211V73.373H692.311V89H687.635ZM775.582 89V80.6021C775.151 81.8735 774.392 83.0732 773.305 84.2012C772.218 85.3086 770.916 86.2827 769.398 87.1235C767.901 87.9644 766.24 88.6309 764.415 89.123C762.61 89.6152 760.775 89.8613 758.909 89.8613C756.263 89.8613 753.987 89.646 752.08 89.2153C750.193 88.8052 748.593 88.272 747.281 87.6157C745.968 86.939 744.912 86.1699 744.112 85.3086C743.312 84.4473 742.697 83.5757 742.267 82.6938C741.836 81.7915 741.549 80.9302 741.405 80.1099C741.262 79.269 741.19 78.5308 741.19 77.895C741.19 77.2593 741.251 76.5518 741.375 75.7725C741.518 74.9727 741.795 74.1626 742.205 73.3423C742.615 72.5015 743.2 71.6914 743.958 70.9121C744.717 70.1123 745.712 69.4048 746.942 68.7896C748.193 68.1743 749.721 67.6821 751.526 67.313C753.331 66.9233 755.484 66.7285 757.986 66.7285C759.852 66.7285 761.688 66.8721 763.492 67.1592C765.317 67.4258 767.009 67.7539 768.568 68.1436C770.126 68.5127 771.511 68.9126 772.721 69.3433C773.951 69.7534 774.905 70.0918 775.582 70.3584V67.8975C775.582 66.1748 775.376 64.5649 774.966 63.0679C774.556 61.5708 773.818 60.2686 772.751 59.1611C771.685 58.0332 770.229 57.1514 768.383 56.5156C766.558 55.8799 764.22 55.562 761.37 55.562C758.601 55.562 756.304 55.8184 754.479 56.3311C752.674 56.8438 751.218 57.5103 750.111 58.3306C749.024 59.1509 748.214 60.084 747.681 61.1299C747.168 62.1553 746.809 63.1807 746.604 64.2061H742.051C742.195 63.4678 742.4 62.6577 742.667 61.7759C742.954 60.8735 743.364 59.9814 743.897 59.0996C744.451 58.1973 745.168 57.3257 746.05 56.4849C746.953 55.644 748.101 54.9058 749.496 54.27C750.89 53.6138 752.562 53.0908 754.51 52.7012C756.479 52.3115 758.806 52.1167 761.493 52.1167C764.179 52.1167 766.507 52.3628 768.476 52.855C770.444 53.3267 772.126 53.9624 773.521 54.7622C774.915 55.562 776.043 56.4951 776.904 57.5615C777.786 58.6074 778.473 59.7148 778.965 60.8838C779.458 62.0527 779.796 63.2422 779.98 64.4521C780.165 65.6416 780.257 66.7695 780.257 67.8359V89H775.582ZM759.801 86.416C761.811 86.416 763.584 86.2109 765.123 85.8008C766.681 85.3701 768.035 84.8267 769.183 84.1704C770.352 83.4937 771.326 82.7451 772.105 81.9248C772.905 81.1045 773.551 80.2944 774.043 79.4946C774.556 78.6743 774.925 77.9155 775.151 77.2183C775.397 76.5005 775.541 75.916 775.582 75.4648V73.4038C774.925 73.0962 773.982 72.7373 772.751 72.3271C771.521 71.8965 770.126 71.4966 768.568 71.1274C767.009 70.7378 765.358 70.4097 763.615 70.1431C761.872 69.8765 760.17 69.7432 758.509 69.7432C756.602 69.7432 754.961 69.8765 753.587 70.1431C752.233 70.4097 751.085 70.7686 750.142 71.2197C749.219 71.6504 748.47 72.1528 747.896 72.7271C747.342 73.2808 746.912 73.855 746.604 74.4497C746.296 75.0444 746.091 75.6392 745.989 76.2339C745.907 76.8081 745.866 77.3208 745.866 77.772C745.866 78.2642 745.927 78.8179 746.05 79.4331C746.173 80.0483 746.409 80.6738 746.758 81.3096C747.106 81.9453 747.599 82.5708 748.234 83.186C748.891 83.8013 749.731 84.355 750.757 84.8472C751.782 85.3188 753.033 85.6982 754.51 85.9854C756.007 86.2725 757.771 86.416 759.801 86.416ZM811.633 74.7266C810.095 74.8906 808.69 75.0854 807.419 75.311C806.168 75.5366 805.05 75.8955 804.066 76.3877C803.102 76.8594 802.281 77.4951 801.605 78.2949C800.928 79.0742 800.415 80.0894 800.067 81.3403L799.144 84.7549C798.98 85.2676 798.836 85.7188 798.713 86.1084C798.611 86.4775 798.498 86.8262 798.375 87.1543C798.252 87.4619 798.108 87.7695 797.944 88.0771C797.801 88.3643 797.616 88.6719 797.39 89H792.345C792.94 88.2617 793.391 87.5337 793.699 86.8159C794.027 86.0776 794.304 85.2573 794.53 84.355L795.422 80.7251C795.606 79.9868 795.842 79.2896 796.129 78.6333C796.416 77.9771 796.785 77.3618 797.237 76.7876C797.708 76.2134 798.282 75.7007 798.959 75.2495C799.636 74.7778 800.467 74.3574 801.451 73.9883C798.58 73.332 796.396 72.2246 794.899 70.666C793.422 69.0869 792.684 67.0771 792.684 64.6367V63.6831C792.684 60.1353 793.884 57.4692 796.283 55.6851C798.703 53.8804 802.487 52.978 807.634 52.978H827.229V89H822.615V74.7266H811.633ZM797.39 64.4829C797.39 65.7134 797.626 66.7593 798.098 67.6206C798.59 68.4819 799.298 69.1895 800.22 69.7432C801.143 70.2969 802.281 70.707 803.635 70.9736C804.989 71.2197 806.537 71.3428 808.28 71.3428H822.615V56.3926H807.849C806.742 56.3926 805.573 56.4746 804.343 56.6387C803.112 56.7822 801.974 57.1206 800.928 57.6538C799.903 58.1665 799.052 58.915 798.375 59.8994C797.719 60.8633 797.39 62.1553 797.39 63.7754V64.4829ZM424.106 175V138.978H463.85V175H459.174V142.731H428.781V175H424.106ZM479.998 186.228V138.978H484.674V146.761C485.987 144.013 487.996 141.89 490.703 140.393C493.41 138.875 496.876 138.117 501.101 138.117C503.316 138.117 505.346 138.353 507.192 138.824C509.058 139.296 510.729 139.952 512.206 140.793C513.703 141.634 515.005 142.628 516.113 143.777C517.22 144.925 518.143 146.187 518.881 147.561C519.619 148.935 520.173 150.391 520.542 151.929C520.911 153.446 521.096 154.995 521.096 156.574V157.835C521.096 160.316 520.645 162.654 519.742 164.849C518.84 167.022 517.538 168.93 515.836 170.57C514.134 172.19 512.042 173.482 509.56 174.446C507.099 175.39 504.29 175.861 501.132 175.861C498.876 175.861 496.856 175.656 495.072 175.246C493.308 174.836 491.76 174.262 490.427 173.523C489.094 172.765 487.955 171.862 487.012 170.816C486.069 169.771 485.289 168.622 484.674 167.371V186.228H479.998ZM516.359 156.235C516.359 154.513 516.051 152.78 515.436 151.037C514.821 149.293 513.867 147.735 512.575 146.361C511.283 144.966 509.622 143.838 507.592 142.977C505.582 142.095 503.182 141.654 500.393 141.654C498.261 141.654 496.384 141.87 494.764 142.3C493.164 142.71 491.78 143.285 490.611 144.023C489.463 144.741 488.499 145.592 487.72 146.576C486.961 147.54 486.356 148.586 485.905 149.714C485.453 150.842 485.136 152.011 484.951 153.221C484.766 154.431 484.674 155.63 484.674 156.82V157.466C484.674 162.347 486.007 166.048 488.673 168.571C491.36 171.093 495.256 172.354 500.363 172.354C503.07 172.354 505.418 171.955 507.407 171.155C509.417 170.334 511.078 169.258 512.39 167.925C513.723 166.592 514.718 165.064 515.374 163.341C516.031 161.619 516.359 159.845 516.359 158.02V156.235ZM528.201 156.328C528.201 153.785 528.621 151.406 529.462 149.191C530.323 146.956 531.626 145.028 533.369 143.408C535.132 141.767 537.347 140.475 540.013 139.532C542.7 138.588 545.878 138.117 549.549 138.117C553.241 138.117 556.43 138.588 559.116 139.532C561.803 140.475 564.018 141.767 565.761 143.408C567.524 145.028 568.827 146.956 569.668 149.191C570.508 151.406 570.929 153.785 570.929 156.328V157.65C570.929 160.193 570.508 162.572 569.668 164.787C568.827 167.002 567.524 168.93 565.761 170.57C564.018 172.211 561.803 173.503 559.116 174.446C556.43 175.39 553.241 175.861 549.549 175.861C545.878 175.861 542.7 175.39 540.013 174.446C537.347 173.503 535.132 172.211 533.369 170.57C531.626 168.93 530.323 167.002 529.462 164.787C528.621 162.572 528.201 160.193 528.201 157.65V156.328ZM532.907 157.773C532.907 159.496 533.194 161.229 533.769 162.972C534.363 164.715 535.317 166.284 536.629 167.679C537.942 169.053 539.654 170.181 541.767 171.062C543.879 171.924 546.473 172.354 549.549 172.354C552.626 172.354 555.22 171.934 557.332 171.093C559.465 170.232 561.188 169.114 562.5 167.74C563.813 166.346 564.756 164.787 565.33 163.064C565.925 161.321 566.222 159.558 566.222 157.773V156.205C566.222 155.077 566.099 153.938 565.853 152.79C565.607 151.642 565.217 150.524 564.684 149.437C564.151 148.35 563.454 147.335 562.592 146.392C561.731 145.448 560.675 144.628 559.424 143.931C558.193 143.233 556.758 142.68 555.117 142.27C553.497 141.859 551.641 141.654 549.549 141.654C546.432 141.654 543.807 142.095 541.674 142.977C539.562 143.838 537.85 144.966 536.537 146.361C535.245 147.755 534.312 149.314 533.738 151.037C533.184 152.759 532.907 154.472 532.907 156.174V157.773ZM615.409 138.886L618.485 138.824V171.493H624.484V180.476H619.593V175H580.987V180.476H576.342V171.493H577.88C579.992 171.493 581.786 170.909 583.263 169.74C584.76 168.55 585.98 166.869 586.924 164.695C587.887 162.5 588.585 159.865 589.015 156.789C589.467 153.692 589.692 150.237 589.692 146.422V138.824H615.409V138.886ZM594.337 147.191C594.337 149.591 594.235 152 594.03 154.42C593.824 156.82 593.435 159.096 592.861 161.25C592.307 163.403 591.517 165.372 590.492 167.156C589.467 168.919 588.144 170.365 586.524 171.493H613.871V142.362H594.337V147.191ZM628.451 138.978H633.465L648.969 171.555H649.307L664.934 138.978H669.979L650.045 179.522C649.43 180.793 648.702 181.911 647.861 182.875C647.021 183.839 646.159 184.659 645.277 185.336C644.416 186.033 643.565 186.587 642.724 186.997C641.904 187.407 641.196 187.705 640.602 187.889L638.94 185.182C639.576 184.895 640.222 184.546 640.878 184.136C641.555 183.726 642.211 183.234 642.847 182.66C643.483 182.106 644.088 181.45 644.662 180.691C645.236 179.953 645.759 179.112 646.231 178.168L647.677 175H646.323L628.451 138.978ZM683.759 138.978V154.882H696.402L709.845 138.978H715.413L700.001 156.789L717.72 175H711.937L696.187 158.45H683.759V175H679.083V138.978H683.759ZM731.808 138.978V171.247H760.416V138.978H765.061V171.247H770.906V181.306H766.384L766.445 175H727.163V138.978H731.808ZM823.538 175H818.893V143.715L788.162 175H782.256V138.978H786.901V170.693L817.939 138.978H823.538V175ZM855.344 160.727C853.806 160.891 852.401 161.085 851.13 161.311C849.879 161.537 848.761 161.896 847.777 162.388C846.813 162.859 845.993 163.495 845.316 164.295C844.639 165.074 844.126 166.089 843.778 167.34L842.855 170.755C842.691 171.268 842.547 171.719 842.424 172.108C842.322 172.478 842.209 172.826 842.086 173.154C841.963 173.462 841.819 173.77 841.655 174.077C841.512 174.364 841.327 174.672 841.102 175H836.057C836.651 174.262 837.103 173.534 837.41 172.816C837.738 172.078 838.015 171.257 838.241 170.355L839.133 166.725C839.317 165.987 839.553 165.29 839.84 164.633C840.127 163.977 840.497 163.362 840.948 162.788C841.419 162.213 841.994 161.701 842.67 161.25C843.347 160.778 844.178 160.357 845.162 159.988C842.291 159.332 840.107 158.225 838.61 156.666C837.133 155.087 836.395 153.077 836.395 150.637V149.683C836.395 146.135 837.595 143.469 839.994 141.685C842.414 139.88 846.198 138.978 851.345 138.978H870.94V175H866.326V160.727H855.344ZM841.102 150.483C841.102 151.713 841.337 152.759 841.809 153.621C842.301 154.482 843.009 155.189 843.932 155.743C844.854 156.297 845.993 156.707 847.346 156.974C848.7 157.22 850.248 157.343 851.991 157.343H866.326V142.393H851.561C850.453 142.393 849.284 142.475 848.054 142.639C846.823 142.782 845.685 143.121 844.639 143.654C843.614 144.167 842.763 144.915 842.086 145.899C841.43 146.863 841.102 148.155 841.102 149.775V150.483Z" fill="white"/>
<path d="M147.968 489.779L165.596 489.779L165.596 517.001L161.228 517.001L161.228 493.445L152.336 493.445L152.336 517.001L147.968 517.001L147.968 489.779ZM173.303 496.877L177.554 496.877L177.554 500.309L177.788 500.309C178.386 499.087 179.179 498.138 180.167 497.462C181.155 496.76 182.39 496.409 183.872 496.409C186.238 496.409 188.123 497.293 189.527 499.061C190.931 500.829 191.633 503.455 191.633 506.939C191.633 510.423 190.931 513.049 189.527 514.817C188.123 516.585 186.238 517.469 183.872 517.469C182.39 517.469 181.155 517.131 180.167 516.455C179.179 515.753 178.386 514.791 177.788 513.569L177.554 513.569L177.554 524.801L173.303 524.801L173.303 496.877ZM182.117 513.998C183.729 513.998 184.964 513.504 185.822 512.516C186.706 511.528 187.148 510.215 187.148 508.577L187.148 505.301C187.148 503.663 186.706 502.35 185.822 501.362C184.964 500.374 183.729 499.88 182.117 499.88C181.493 499.88 180.908 499.958 180.362 500.114C179.816 500.27 179.335 500.504 178.919 500.816C178.503 501.128 178.165 501.518 177.905 501.986C177.671 502.428 177.554 502.961 177.554 503.585L177.554 510.293C177.554 510.917 177.671 511.463 177.905 511.931C178.165 512.373 178.503 512.75 178.919 513.062C179.335 513.374 179.816 513.608 180.362 513.764C180.908 513.92 181.493 513.998 182.117 513.998ZM198.599 496.877L202.811 496.877L202.811 505.535L202.421 510.995L202.616 510.995L211.508 496.877L215.525 496.877L215.525 517.001L211.313 517.001L211.313 508.343L211.703 502.883L211.508 502.883L202.616 517.001L198.599 517.001L198.599 496.877ZM225.532 496.877L240.313 496.877L240.313 500.309L229.783 500.309L229.783 517.001L225.532 517.001L225.532 496.877ZM257.341 517.469C255.859 517.469 254.52 517.222 253.324 516.728C252.154 516.234 251.153 515.532 250.321 514.622C249.515 513.712 248.891 512.607 248.449 511.307C248.007 510.007 247.786 508.551 247.786 506.939C247.786 505.327 248.007 503.871 248.449 502.571C248.891 501.271 249.515 500.166 250.321 499.256C251.153 498.346 252.154 497.644 253.324 497.15C254.52 496.656 255.859 496.409 257.341 496.409C258.823 496.409 260.149 496.656 261.319 497.15C262.515 497.644 263.516 498.346 264.322 499.256C265.154 500.166 265.791 501.271 266.233 502.571C266.675 503.871 266.896 505.327 266.896 506.939C266.896 508.551 266.675 510.007 266.233 511.307C265.791 512.607 265.154 513.712 264.322 514.622C263.516 515.532 262.515 516.234 261.319 516.728C260.149 517.222 258.823 517.469 257.341 517.469ZM257.341 514.115C258.901 514.115 260.136 513.647 261.046 512.711C261.982 511.749 262.45 510.332 262.45 508.46L262.45 505.418C262.45 503.546 261.982 502.142 261.046 501.206C260.136 500.244 258.901 499.763 257.341 499.763C255.781 499.763 254.533 500.244 253.597 501.206C252.687 502.142 252.232 503.546 252.232 505.418L252.232 508.46C252.232 510.332 252.687 511.749 253.597 512.711C254.533 513.647 255.781 514.115 257.341 514.115ZM280.336 500.309L273.277 500.309L273.277 496.877L291.685 496.877L291.685 500.309L284.587 500.309L284.587 517.001L280.336 517.001L280.336 500.309ZM307.621 517.469C306.139 517.469 304.8 517.222 303.604 516.728C302.434 516.234 301.433 515.532 300.601 514.622C299.795 513.712 299.171 512.607 298.729 511.307C298.287 510.007 298.066 508.551 298.066 506.939C298.066 505.327 298.287 503.871 298.729 502.571C299.171 501.271 299.795 500.166 300.601 499.256C301.433 498.346 302.434 497.644 303.604 497.15C304.8 496.656 306.139 496.409 307.621 496.409C309.103 496.409 310.429 496.656 311.599 497.15C312.795 497.644 313.796 498.346 314.602 499.256C315.434 500.166 316.071 501.271 316.513 502.571C316.955 503.871 317.176 505.327 317.176 506.939C317.176 508.551 316.955 510.007 316.513 511.307C316.071 512.607 315.434 513.712 314.602 514.622C313.796 515.532 312.795 516.234 311.599 516.728C310.429 517.222 309.103 517.469 307.621 517.469ZM307.621 514.115C309.181 514.115 310.416 513.647 311.326 512.711C312.262 511.749 312.73 510.332 312.73 508.46L312.73 505.418C312.73 503.546 312.262 502.142 311.326 501.206C310.416 500.244 309.181 499.763 307.621 499.763C306.061 499.763 304.813 500.244 303.877 501.206C302.967 502.142 302.512 503.546 302.512 505.418L302.512 508.46C302.512 510.332 302.967 511.749 303.877 512.711C304.813 513.647 306.061 514.115 307.621 514.115ZM324.766 496.877L335.569 496.877C337.311 496.877 338.663 497.345 339.625 498.281C340.587 499.191 341.068 500.413 341.068 501.947C341.068 504.443 339.703 505.899 336.973 506.315L336.973 506.51C338.637 506.64 339.859 507.121 340.639 507.953C341.419 508.759 341.809 509.825 341.809 511.151C341.809 511.957 341.666 512.711 341.38 513.413C341.12 514.115 340.73 514.739 340.21 515.285C339.69 515.805 339.04 516.221 338.26 516.533C337.506 516.845 336.648 517.001 335.686 517.001L324.766 517.001L324.766 496.877ZM334.789 513.803C335.621 513.803 336.271 513.608 336.739 513.218C337.207 512.802 337.441 512.217 337.441 511.463L337.441 510.527C337.441 509.773 337.207 509.188 336.739 508.772C336.297 508.356 335.699 508.148 334.945 508.148L329.017 508.148L329.017 513.803L334.789 513.803ZM334.399 505.301C335.101 505.301 335.66 505.106 336.076 504.716C336.492 504.326 336.7 503.793 336.7 503.117L336.7 502.259C336.7 501.583 336.492 501.05 336.076 500.66C335.66 500.27 335.101 500.075 334.399 500.075L329.017 500.075L329.017 505.301L334.399 505.301ZM350.1 496.877L354.351 496.877L354.351 503.507L360.084 503.507C362.164 503.507 363.828 504.092 365.076 505.262C366.324 506.432 366.948 508.096 366.948 510.254C366.948 512.412 366.324 514.076 365.076 515.246C363.828 516.416 362.164 517.001 360.084 517.001L350.1 517.001L350.1 496.877ZM359.343 513.686C360.331 513.686 361.111 513.452 361.683 512.984C362.281 512.516 362.58 511.827 362.58 510.917L362.58 509.591C362.58 508.681 362.281 507.992 361.683 507.524C361.111 507.056 360.331 506.822 359.343 506.822L354.351 506.822L354.351 513.686L359.343 513.686ZM380.895 500.309L373.836 500.309L373.836 496.877L392.244 496.877L392.244 500.309L385.146 500.309L385.146 517.001L380.895 517.001L380.895 500.309ZM408.609 517.469C407.075 517.469 405.697 517.222 404.475 516.728C403.253 516.234 402.226 515.532 401.394 514.622C400.562 513.712 399.925 512.62 399.483 511.346C399.041 510.046 398.82 508.59 398.82 506.978C398.82 505.366 399.041 503.91 399.483 502.61C399.951 501.31 400.588 500.205 401.394 499.295C402.226 498.359 403.227 497.644 404.397 497.15C405.567 496.656 406.867 496.409 408.297 496.409C409.701 496.409 410.975 496.656 412.119 497.15C413.263 497.618 414.238 498.294 415.044 499.178C415.85 500.062 416.461 501.115 416.877 502.337C417.319 503.559 417.54 504.911 417.54 506.393L417.54 507.992L403.11 507.992L403.11 508.655C403.11 510.241 403.604 511.541 404.592 512.555C405.58 513.543 406.945 514.037 408.687 514.037C409.987 514.037 411.092 513.764 412.002 513.218C412.938 512.646 413.692 511.892 414.264 510.956L416.916 513.296C416.24 514.466 415.2 515.454 413.796 516.26C412.418 517.066 410.689 517.469 408.609 517.469ZM408.297 499.646C407.543 499.646 406.841 499.776 406.191 500.036C405.567 500.296 405.021 500.673 404.553 501.167C404.111 501.635 403.76 502.194 403.5 502.844C403.24 503.494 403.11 504.209 403.11 504.989L403.11 505.262L413.211 505.262L413.211 504.872C413.211 503.286 412.756 502.025 411.846 501.089C410.962 500.127 409.779 499.646 408.297 499.646ZM465.947 517.001C464.725 517.001 463.802 516.689 463.178 516.065C462.58 515.441 462.216 514.622 462.086 513.608L461.891 513.608C461.501 514.83 460.786 515.779 459.746 516.455C458.732 517.131 457.432 517.469 455.846 517.469C453.792 517.469 452.154 516.936 450.932 515.87C449.71 514.778 449.099 513.283 449.099 511.385C449.099 509.435 449.814 507.953 451.244 506.939C452.7 505.899 454.923 505.379 457.913 505.379L461.774 505.379L461.774 503.819C461.774 501.089 460.331 499.724 457.445 499.724C456.145 499.724 455.092 499.984 454.286 500.504C453.48 500.998 452.804 501.661 452.258 502.493L449.723 500.426C450.295 499.334 451.257 498.398 452.609 497.618C453.961 496.812 455.703 496.409 457.835 496.409C460.383 496.409 462.385 497.02 463.841 498.242C465.297 499.464 466.025 501.232 466.025 503.546L466.025 513.647L468.56 513.647L468.56 517.001L465.947 517.001ZM457.055 514.349C458.433 514.349 459.564 514.037 460.448 513.413C461.332 512.789 461.774 511.983 461.774 510.995L461.774 508.07L457.991 508.07C454.923 508.07 453.389 508.993 453.389 510.839L453.389 511.619C453.389 512.529 453.714 513.218 454.364 513.686C455.014 514.128 455.911 514.349 457.055 514.349ZM475.604 496.877L486.407 496.877C488.149 496.877 489.501 497.345 490.463 498.281C491.425 499.191 491.906 500.413 491.906 501.947C491.906 504.443 490.541 505.899 487.811 506.315L487.811 506.51C489.475 506.64 490.697 507.121 491.477 507.953C492.257 508.759 492.647 509.825 492.647 511.151C492.647 511.957 492.504 512.711 492.218 513.413C491.958 514.115 491.568 514.739 491.048 515.285C490.528 515.805 489.878 516.221 489.098 516.533C488.344 516.845 487.486 517.001 486.524 517.001L475.604 517.001L475.604 496.877ZM485.627 513.803C486.459 513.803 487.109 513.608 487.577 513.218C488.045 512.802 488.279 512.217 488.279 511.463L488.279 510.527C488.279 509.773 488.045 509.188 487.577 508.772C487.135 508.356 486.537 508.148 485.783 508.148L479.855 508.148L479.855 513.803L485.627 513.803ZM485.237 505.301C485.939 505.301 486.498 505.106 486.914 504.716C487.33 504.326 487.538 503.793 487.538 503.117L487.538 502.259C487.538 501.583 487.33 501.05 486.914 500.66C486.498 500.27 485.939 500.075 485.237 500.075L479.855 500.075L479.855 505.301L485.237 505.301ZM506.594 500.309L499.535 500.309L499.535 496.877L517.943 496.877L517.943 500.309L510.845 500.309L510.845 517.001L506.594 517.001L506.594 500.309ZM533.879 517.469C532.397 517.469 531.058 517.222 529.862 516.728C528.692 516.234 527.691 515.532 526.859 514.622C526.053 513.712 525.429 512.607 524.987 511.307C524.545 510.007 524.324 508.551 524.324 506.939C524.324 505.327 524.545 503.871 524.987 502.571C525.429 501.271 526.053 500.166 526.859 499.256C527.691 498.346 528.692 497.644 529.862 497.15C531.058 496.656 532.397 496.409 533.879 496.409C535.361 496.409 536.687 496.656 537.857 497.15C539.053 497.644 540.054 498.346 540.86 499.256C541.692 500.166 542.329 501.271 542.771 502.571C543.213 503.871 543.434 505.327 543.434 506.939C543.434 508.551 543.213 510.007 542.771 511.307C542.329 512.607 541.692 513.712 540.86 514.622C540.054 515.532 539.053 516.234 537.857 516.728C536.687 517.222 535.361 517.469 533.879 517.469ZM533.879 514.115C535.439 514.115 536.674 513.647 537.584 512.711C538.52 511.749 538.988 510.332 538.988 508.46L538.988 505.418C538.988 503.546 538.52 502.142 537.584 501.206C536.674 500.244 535.439 499.763 533.879 499.763C532.319 499.763 531.071 500.244 530.135 501.206C529.225 502.142 528.77 503.546 528.77 505.418L528.77 508.46C528.77 510.332 529.225 511.749 530.135 512.711C531.071 513.647 532.319 514.115 533.879 514.115ZM550.399 496.877L554.65 496.877L554.65 500.309L554.884 500.309C555.482 499.087 556.275 498.138 557.263 497.462C558.251 496.76 559.486 496.409 560.968 496.409C563.334 496.409 565.219 497.293 566.623 499.061C568.027 500.829 568.729 503.455 568.729 506.939C568.729 510.423 568.027 513.049 566.623 514.817C565.219 516.585 563.334 517.469 560.968 517.469C559.486 517.469 558.251 517.131 557.263 516.455C556.275 515.753 555.482 514.791 554.884 513.569L554.65 513.569L554.65 524.801L550.399 524.801L550.399 496.877ZM559.213 513.998C560.825 513.998 562.06 513.504 562.918 512.516C563.802 511.528 564.244 510.215 564.244 508.577L564.244 505.301C564.244 503.663 563.802 502.35 562.918 501.362C562.06 500.374 560.825 499.88 559.213 499.88C558.589 499.88 558.004 499.958 557.458 500.114C556.912 500.27 556.431 500.504 556.015 500.816C555.599 501.128 555.261 501.518 555.001 501.986C554.767 502.428 554.65 502.961 554.65 503.585L554.65 510.293C554.65 510.917 554.767 511.463 555.001 511.931C555.261 512.373 555.599 512.75 556.015 513.062C556.431 513.374 556.912 513.608 557.458 513.764C558.004 513.92 558.589 513.998 559.213 513.998ZM584.899 517.469C583.391 517.469 582.039 517.222 580.843 516.728C579.673 516.234 578.672 515.532 577.84 514.622C577.034 513.712 576.41 512.607 575.968 511.307C575.552 510.007 575.344 508.551 575.344 506.939C575.344 505.327 575.552 503.871 575.968 502.571C576.41 501.271 577.034 500.166 577.84 499.256C578.672 498.346 579.673 497.644 580.843 497.15C582.039 496.656 583.378 496.409 584.86 496.409C586.94 496.409 588.604 496.851 589.852 497.735C591.126 498.619 592.075 499.763 592.699 501.167L589.384 502.961C589.02 502.025 588.461 501.284 587.707 500.738C586.979 500.192 586.03 499.919 584.86 499.919C583.248 499.919 582 500.413 581.116 501.401C580.232 502.363 579.79 503.65 579.79 505.262L579.79 508.616C579.79 510.202 580.232 511.489 581.116 512.477C582 513.465 583.274 513.959 584.938 513.959C586.186 513.959 587.2 513.673 587.98 513.101C588.786 512.529 589.423 511.749 589.891 510.761L593.011 512.672C592.361 514.076 591.373 515.233 590.047 516.143C588.721 517.027 587.005 517.469 584.899 517.469ZM601.186 496.877L605.437 496.877L605.437 504.989L609.064 504.989L613.9 496.877L618.463 496.877L613.978 504.209C613.536 504.963 613.107 505.496 612.691 505.808C612.275 506.12 611.794 506.341 611.248 506.471L611.248 506.666C611.872 506.796 612.392 507.03 612.808 507.368C613.224 507.68 613.653 508.226 614.095 509.006L616.63 513.569L618.814 513.569L618.814 517.001L616.318 517.001C615.46 517.001 614.719 516.806 614.095 516.416C613.497 516 612.938 515.337 612.418 514.427L609.064 508.421L605.437 508.421L605.437 517.001L601.186 517.001L601.186 496.877ZM625.975 496.877L630.187 496.877L630.187 505.535L629.797 510.995L629.992 510.995L638.884 496.877L642.901 496.877L642.901 517.001L638.689 517.001L638.689 508.343L639.079 502.883L638.884 502.883L629.992 517.001L625.975 517.001L625.975 496.877ZM660.006 517.469C658.472 517.469 657.094 517.222 655.872 516.728C654.65 516.234 653.623 515.532 652.791 514.622C651.959 513.712 651.322 512.62 650.88 511.346C650.438 510.046 650.217 508.59 650.217 506.978C650.217 505.366 650.438 503.91 650.88 502.61C651.348 501.31 651.985 500.205 652.791 499.295C653.624 498.359 654.625 497.644 655.795 497.15C656.965 496.656 658.265 496.409 659.695 496.409C661.099 496.409 662.373 496.656 663.517 497.15C664.661 497.618 665.636 498.294 666.442 499.178C667.248 500.062 667.859 501.115 668.274 502.337C668.717 503.559 668.938 504.911 668.938 506.393L668.937 507.992L654.507 507.992L654.507 508.655C654.507 510.241 655.001 511.541 655.989 512.555C656.977 513.543 658.342 514.037 660.084 514.037C661.384 514.037 662.489 513.764 663.399 513.218C664.335 512.646 665.089 511.892 665.661 510.956L668.314 513.296C667.637 514.466 666.597 515.454 665.193 516.26C663.815 517.066 662.086 517.469 660.006 517.469ZM659.694 499.646C658.941 499.646 658.239 499.776 657.589 500.036C656.965 500.296 656.419 500.673 655.951 501.167C655.509 501.635 655.157 502.194 654.897 502.844C654.637 503.494 654.507 504.209 654.507 504.989L654.507 505.262L664.609 505.262L664.609 504.872C664.609 503.286 664.154 502.025 663.244 501.089C662.36 500.127 661.177 499.646 659.694 499.646ZM709.896 517.469C708.466 517.469 707.166 517.222 705.996 516.728C704.852 516.234 703.864 515.493 703.032 514.505C702.226 513.517 701.602 512.282 701.16 510.8C700.718 509.292 700.497 507.537 700.497 505.535C700.497 502.493 700.705 499.906 701.121 497.774C701.537 495.616 702.2 493.861 703.11 492.509C704.02 491.131 705.177 490.104 706.581 489.428C708.011 488.752 709.727 488.349 711.729 488.219L717.852 487.868L717.852 491.846L711.807 492.197C710.585 492.275 709.558 492.483 708.726 492.821C707.92 493.133 707.257 493.64 706.737 494.342C706.217 495.044 705.814 495.954 705.528 497.072C705.268 498.164 705.086 499.529 704.982 501.167L705.216 501.167C705.71 499.867 706.425 498.866 707.361 498.164C708.297 497.462 709.506 497.111 710.988 497.111C712.21 497.111 713.328 497.332 714.342 497.774C715.382 498.216 716.266 498.866 716.994 499.724C717.722 500.556 718.281 501.596 718.671 502.844C719.087 504.092 719.295 505.509 719.295 507.095C719.295 508.655 719.074 510.085 718.632 511.385C718.19 512.659 717.553 513.751 716.721 514.661C715.915 515.545 714.927 516.234 713.757 516.728C712.613 517.222 711.326 517.469 709.896 517.469ZM709.857 514.115C711.339 514.115 712.535 513.647 713.445 512.711C714.381 511.749 714.849 510.41 714.849 508.694L714.849 505.964C714.849 504.144 714.407 502.779 713.523 501.869C712.639 500.933 711.417 500.465 709.857 500.465C708.271 500.465 707.049 500.92 706.191 501.83C705.359 502.714 704.943 503.897 704.943 505.379L704.943 508.616C704.943 510.41 705.385 511.775 706.269 512.711C707.179 513.647 708.375 514.115 709.857 514.115ZM724.233 513.569L726.846 513.569C727.184 513.127 727.483 512.62 727.743 512.048C728.029 511.45 728.25 510.735 728.406 509.903C728.588 509.071 728.718 508.109 728.796 507.017C728.9 505.925 728.952 504.651 728.952 503.195L728.952 496.877L743.187 496.877L743.187 517.001L738.936 517.001L738.936 500.309L732.93 500.309L732.93 503.273C732.93 506.679 732.683 509.344 732.189 511.268C731.695 513.192 731.019 514.596 730.161 515.48C729.563 516.104 728.874 516.52 728.094 516.728C727.314 516.91 726.495 517.001 725.637 517.001L724.233 517.001L724.233 513.569ZM763.686 517.469C762.646 517.469 761.723 517.313 760.917 517.001C760.137 516.715 759.461 516.221 758.889 515.519C758.343 514.791 757.914 513.842 757.602 512.672C757.316 511.502 757.134 510.033 757.056 508.265L753.858 508.265L753.858 517.001L750.153 517.001L750.153 496.877L753.858 496.877L753.858 505.145L757.095 505.145C757.173 503.481 757.368 502.09 757.68 500.972C758.018 499.854 758.46 498.957 759.006 498.281C759.552 497.605 760.215 497.124 760.995 496.838C761.775 496.552 762.672 496.409 763.686 496.409C764.778 496.409 765.74 496.578 766.572 496.916C767.404 497.254 768.093 497.826 768.639 498.632C769.211 499.438 769.627 500.517 769.887 501.869C770.173 503.221 770.316 504.911 770.316 506.939C770.316 508.967 770.173 510.657 769.887 512.009C769.601 513.361 769.185 514.44 768.639 515.246C768.093 516.052 767.404 516.624 766.572 516.962C765.74 517.3 764.778 517.469 763.686 517.469ZM763.686 514.232C764.154 514.232 764.557 514.154 764.895 513.998C765.259 513.842 765.545 513.569 765.753 513.179C765.987 512.789 766.156 512.256 766.26 511.58C766.39 510.878 766.455 509.981 766.455 508.889L766.455 504.989C766.455 503.897 766.39 503.013 766.26 502.337C766.156 501.635 765.987 501.089 765.753 500.699C765.545 500.309 765.259 500.036 764.895 499.88C764.557 499.724 764.154 499.646 763.686 499.646C763.218 499.646 762.802 499.724 762.438 499.88C762.1 500.036 761.814 500.309 761.58 500.699C761.372 501.089 761.203 501.635 761.073 502.337C760.969 503.013 760.917 503.897 760.917 504.989L760.917 508.889C760.917 509.981 760.969 510.878 761.073 511.58C761.203 512.256 761.372 512.789 761.58 513.179C761.814 513.569 762.1 513.842 762.438 513.998C762.802 514.154 763.218 514.232 763.686 514.232ZM774.239 513.569L776.54 513.569C777.294 512.373 777.892 510.93 778.334 509.24C778.776 507.524 778.997 505.496 778.997 503.156L778.997 496.877L792.725 496.877L792.725 513.569L795.962 513.569L795.962 522.461L792.14 522.461L792.14 517.001L778.061 517.001L778.061 522.461L774.239 522.461L774.239 513.569ZM788.552 513.569L788.552 500.309L782.975 500.309L782.975 503.312C782.975 505.6 782.793 507.576 782.429 509.24C782.091 510.878 781.584 512.321 780.908 513.569L788.552 513.569ZM817.904 517.001C816.682 517.001 815.759 516.689 815.135 516.065C814.537 515.441 814.173 514.622 814.043 513.608L813.848 513.608C813.458 514.83 812.743 515.779 811.703 516.455C810.689 517.131 809.389 517.469 807.803 517.469C805.749 517.469 804.111 516.936 802.889 515.87C801.667 514.778 801.056 513.283 801.056 511.385C801.056 509.435 801.771 507.953 803.201 506.939C804.657 505.899 806.88 505.379 809.87 505.379L813.731 505.379L813.731 503.819C813.731 501.089 812.288 499.724 809.402 499.724C808.102 499.724 807.049 499.984 806.243 500.504C805.437 500.998 804.761 501.661 804.215 502.493L801.68 500.426C802.252 499.334 803.214 498.398 804.566 497.618C805.918 496.812 807.66 496.409 809.792 496.409C812.34 496.409 814.342 497.02 815.798 498.242C817.254 499.464 817.982 501.232 817.982 503.546L817.982 513.647L820.517 513.647L820.517 517.001L817.904 517.001ZM809.012 514.349C810.39 514.349 811.521 514.037 812.405 513.413C813.289 512.789 813.731 511.983 813.731 510.995L813.731 508.07L809.948 508.07C806.88 508.07 805.346 508.993 805.346 510.839L805.346 511.619C805.346 512.529 805.671 513.218 806.321 513.686C806.971 514.128 807.868 514.349 809.012 514.349ZM850.712 496.877L854.339 496.877L854.339 513.725L858.863 513.725L858.863 496.877L862.49 496.877L862.49 513.725L867.014 513.725L867.014 496.877L870.641 496.877L870.641 517.001L850.712 517.001L850.712 496.877ZM886.264 517.469C884.73 517.469 883.352 517.222 882.13 516.728C880.908 516.234 879.881 515.532 879.049 514.622C878.217 513.712 877.58 512.62 877.138 511.346C876.696 510.046 876.475 508.59 876.475 506.978C876.475 505.366 876.696 503.91 877.138 502.61C877.606 501.31 878.243 500.205 879.049 499.295C879.881 498.359 880.882 497.644 882.052 497.15C883.222 496.656 884.522 496.409 885.952 496.409C887.356 496.409 888.63 496.656 889.774 497.15C890.918 497.618 891.893 498.294 892.699 499.178C893.505 500.062 894.116 501.115 894.532 502.337C894.974 503.559 895.195 504.911 895.195 506.393L895.195 507.992L880.765 507.992L880.765 508.655C880.765 510.241 881.259 511.541 882.247 512.555C883.235 513.543 884.6 514.037 886.342 514.037C887.642 514.037 888.747 513.764 889.657 513.218C890.593 512.646 891.347 511.892 891.919 510.956L894.571 513.296C893.895 514.466 892.855 515.454 891.451 516.26C890.073 517.066 888.344 517.469 886.264 517.469ZM885.952 499.646C885.198 499.646 884.496 499.776 883.846 500.036C883.222 500.296 882.676 500.673 882.208 501.167C881.766 501.635 881.415 502.194 881.155 502.844C880.895 503.494 880.765 504.209 880.765 504.989L880.765 505.262L890.866 505.262L890.866 504.872C890.866 503.286 890.411 502.025 889.501 501.089C888.617 500.127 887.434 499.646 885.952 499.646ZM906.958 514.154C908.44 514.154 909.181 513.205 909.181 511.307L909.181 502.571C909.181 500.673 908.44 499.724 906.958 499.724C906.126 499.724 905.489 500.088 905.047 500.816C904.631 501.544 904.423 502.922 904.423 504.95L904.423 508.928C904.423 510.956 904.631 512.334 905.047 513.062C905.489 513.79 906.126 514.154 906.958 514.154ZM909.142 514.739L908.947 514.739C908.531 515.753 908.024 516.468 907.426 516.884C906.854 517.274 906.191 517.469 905.437 517.469C904.657 517.469 903.968 517.3 903.37 516.962C902.798 516.624 902.304 516.052 901.888 515.246C901.498 514.414 901.199 513.322 900.991 511.97C900.783 510.618 900.679 508.941 900.679 506.939C900.679 504.937 900.783 503.26 900.991 501.908C901.199 500.556 901.498 499.477 901.888 498.671C902.304 497.839 902.798 497.254 903.37 496.916C903.968 496.578 904.657 496.409 905.437 496.409C906.191 496.409 906.854 496.617 907.426 497.033C908.024 497.423 908.531 498.125 908.947 499.139L909.142 499.139L909.142 489.311L912.808 489.311L912.808 499.139L913.003 499.139C913.419 498.125 913.913 497.423 914.485 497.033C915.083 496.617 915.759 496.409 916.513 496.409C917.293 496.409 917.969 496.578 918.541 496.916C919.139 497.254 919.633 497.839 920.023 498.671C920.439 499.477 920.751 500.556 920.959 501.908C921.167 503.26 921.271 504.937 921.271 506.939C921.271 508.941 921.167 510.618 920.959 511.97C920.751 513.322 920.439 514.414 920.023 515.246C919.633 516.052 919.139 516.624 918.541 516.962C917.969 517.3 917.293 517.469 916.513 517.469C915.759 517.469 915.083 517.274 914.485 516.884C913.913 516.468 913.419 515.753 913.003 514.739L912.808 514.739L912.808 524.801L909.142 524.801L909.142 514.739ZM914.992 514.154C915.824 514.154 916.448 513.79 916.864 513.062C917.306 512.334 917.527 510.956 917.527 508.928L917.527 504.95C917.527 502.922 917.306 501.544 916.864 500.816C916.448 500.088 915.824 499.724 914.992 499.724C913.51 499.724 912.769 500.673 912.769 502.571L912.769 511.307C912.769 513.205 913.51 514.154 914.992 514.154ZM930.226 507.251L930.226 503L942.004 503L942.004 507.251L930.226 507.251ZM952.87 496.877L969.64 496.877L969.64 517.001L965.389 517.001L965.389 500.309L957.121 500.309L957.121 517.001L952.87 517.001L952.87 496.877ZM986.394 517.469C984.912 517.469 983.573 517.222 982.377 516.728C981.207 516.234 980.206 515.532 979.374 514.622C978.568 513.712 977.944 512.607 977.502 511.307C977.06 510.007 976.839 508.551 976.839 506.939C976.839 505.327 977.06 503.871 977.502 502.571C977.944 501.271 978.568 500.166 979.374 499.256C980.206 498.346 981.207 497.644 982.377 497.15C983.573 496.656 984.912 496.409 986.394 496.409C987.876 496.409 989.202 496.656 990.372 497.15C991.568 497.644 992.569 498.346 993.375 499.256C994.207 500.166 994.844 501.271 995.286 502.571C995.728 503.871 995.949 505.327 995.949 506.939C995.949 508.551 995.728 510.007 995.286 511.307C994.844 512.607 994.207 513.712 993.375 514.622C992.569 515.532 991.568 516.234 990.372 516.728C989.202 517.222 987.876 517.469 986.394 517.469ZM986.394 514.115C987.954 514.115 989.189 513.647 990.099 512.711C991.035 511.749 991.503 510.332 991.503 508.46L991.503 505.418C991.503 503.546 991.035 502.142 990.099 501.206C989.189 500.244 987.954 499.763 986.394 499.763C984.834 499.763 983.586 500.244 982.65 501.206C981.74 502.142 981.285 503.546 981.285 505.418L981.285 508.46C981.285 510.332 981.74 511.749 982.65 512.711C983.586 513.647 984.834 514.115 986.394 514.115ZM1003.54 496.877L1014.34 496.877C1016.08 496.877 1017.44 497.345 1018.4 498.281C1019.36 499.191 1019.84 500.413 1019.84 501.947C1019.84 504.443 1018.48 505.899 1015.75 506.315L1015.75 506.51C1017.41 506.64 1018.63 507.121 1019.41 507.953C1020.19 508.759 1020.58 509.825 1020.58 511.151C1020.58 511.957 1020.44 512.711 1020.15 513.413C1019.89 514.115 1019.5 514.739 1018.98 515.285C1018.46 515.805 1017.81 516.221 1017.03 516.533C1016.28 516.845 1015.42 517.001 1014.46 517.001L1003.54 517.001L1003.54 496.877ZM1013.56 513.803C1014.39 513.803 1015.04 513.608 1015.51 513.218C1015.98 512.802 1016.21 512.217 1016.21 511.463L1016.21 510.527C1016.21 509.773 1015.98 509.188 1015.51 508.772C1015.07 508.356 1014.47 508.148 1013.72 508.148L1007.79 508.148L1007.79 513.803L1013.56 513.803ZM1013.17 505.301C1013.87 505.301 1014.43 505.106 1014.85 504.716C1015.27 504.326 1015.47 503.793 1015.47 503.117L1015.47 502.259C1015.47 501.583 1015.27 501.05 1014.85 500.66C1014.43 500.27 1013.87 500.075 1013.17 500.075L1007.79 500.075L1007.79 505.301L1013.17 505.301ZM1044.16 517.001C1042.94 517.001 1042.02 516.689 1041.39 516.065C1040.79 515.441 1040.43 514.622 1040.3 513.608L1040.11 513.608C1039.72 514.83 1039 515.779 1037.96 516.455C1036.95 517.131 1035.65 517.469 1034.06 517.469C1032.01 517.469 1030.37 516.936 1029.15 515.87C1027.92 514.778 1027.31 513.283 1027.31 511.385C1027.31 509.435 1028.03 507.953 1029.46 506.939C1030.91 505.899 1033.14 505.379 1036.13 505.379L1039.99 505.379L1039.99 503.819C1039.99 501.089 1038.55 499.724 1035.66 499.724C1034.36 499.724 1033.31 499.984 1032.5 500.504C1031.69 500.998 1031.02 501.661 1030.47 502.493L1027.94 500.426C1028.51 499.334 1029.47 498.398 1030.82 497.618C1032.18 496.812 1033.92 496.409 1036.05 496.409C1038.6 496.409 1040.6 497.02 1042.06 498.242C1043.51 499.464 1044.24 501.232 1044.24 503.546L1044.24 513.647L1046.77 513.647L1046.77 517.001L1044.16 517.001ZM1035.27 514.349C1036.65 514.349 1037.78 514.037 1038.66 513.413C1039.55 512.789 1039.99 511.983 1039.99 510.995L1039.99 508.07L1036.21 508.07C1033.14 508.07 1031.6 508.993 1031.6 510.839L1031.6 511.619C1031.6 512.529 1031.93 513.218 1032.58 513.686C1033.23 514.128 1034.13 514.349 1035.27 514.349ZM1053.19 496.877L1057.45 496.877L1057.45 500.309L1057.68 500.309C1058.28 499.087 1059.07 498.138 1060.06 497.462C1061.05 496.76 1062.28 496.409 1063.76 496.409C1066.13 496.409 1068.01 497.293 1069.42 499.061C1070.82 500.829 1071.52 503.455 1071.52 506.939C1071.52 510.423 1070.82 513.049 1069.42 514.817C1068.01 516.585 1066.13 517.469 1063.76 517.469C1062.28 517.469 1061.05 517.131 1060.06 516.455C1059.07 515.753 1058.28 514.791 1057.68 513.569L1057.45 513.569L1057.45 524.801L1053.19 524.801L1053.19 496.877ZM1062.01 513.998C1063.62 513.998 1064.86 513.504 1065.71 512.516C1066.6 511.528 1067.04 510.215 1067.04 508.577L1067.04 505.301C1067.04 503.663 1066.6 502.35 1065.71 501.362C1064.86 500.374 1063.62 499.88 1062.01 499.88C1061.38 499.88 1060.8 499.958 1060.25 500.114C1059.71 500.27 1059.23 500.504 1058.81 500.816C1058.39 501.128 1058.06 501.518 1057.8 501.986C1057.56 502.428 1057.45 502.961 1057.45 503.585L1057.45 510.293C1057.45 510.917 1057.56 511.463 1057.8 511.931C1058.06 512.373 1058.39 512.75 1058.81 513.062C1059.23 513.374 1059.71 513.608 1060.25 513.764C1060.8 513.92 1061.38 513.998 1062.01 513.998ZM1086.95 517.469C1085.47 517.469 1084.13 517.222 1082.94 516.728C1081.77 516.234 1080.77 515.532 1079.93 514.622C1079.13 513.712 1078.5 512.607 1078.06 511.307C1077.62 510.007 1077.4 508.551 1077.4 506.939C1077.4 505.327 1077.62 503.871 1078.06 502.571C1078.5 501.271 1079.13 500.166 1079.93 499.256C1080.77 498.346 1081.77 497.644 1082.94 497.15C1084.13 496.656 1085.47 496.409 1086.95 496.409C1088.44 496.409 1089.76 496.656 1090.93 497.15C1092.13 497.644 1093.13 498.346 1093.93 499.256C1094.77 500.166 1095.4 501.271 1095.85 502.571C1096.29 503.871 1096.51 505.327 1096.51 506.939C1096.51 508.551 1096.29 510.007 1095.85 511.307C1095.4 512.607 1094.77 513.712 1093.93 514.622C1093.13 515.532 1092.13 516.234 1090.93 516.728C1089.76 517.222 1088.44 517.469 1086.95 517.469ZM1086.95 514.115C1088.51 514.115 1089.75 513.647 1090.66 512.711C1091.59 511.749 1092.06 510.332 1092.06 508.46L1092.06 505.418C1092.06 503.546 1091.59 502.142 1090.66 501.206C1089.75 500.244 1088.51 499.763 1086.95 499.763C1085.39 499.763 1084.15 500.244 1083.21 501.206C1082.3 502.142 1081.84 503.546 1081.84 505.418L1081.84 508.46C1081.84 510.332 1082.3 511.749 1083.21 512.711C1084.15 513.647 1085.39 514.115 1086.95 514.115ZM1104.1 496.877L1114.9 496.877C1116.64 496.877 1118 497.345 1118.96 498.281C1119.92 499.191 1120.4 500.413 1120.4 501.947C1120.4 504.443 1119.04 505.899 1116.31 506.315L1116.31 506.51C1117.97 506.64 1119.19 507.121 1119.97 507.953C1120.75 508.759 1121.14 509.825 1121.14 511.151C1121.14 511.957 1121 512.711 1120.71 513.413C1120.45 514.115 1120.06 514.739 1119.54 515.285C1119.02 515.805 1118.37 516.221 1117.59 516.533C1116.84 516.845 1115.98 517.001 1115.02 517.001L1104.1 517.001L1104.1 496.877ZM1114.12 513.803C1114.95 513.803 1115.6 513.608 1116.07 513.218C1116.54 512.802 1116.77 512.217 1116.77 511.463L1116.77 510.527C1116.77 509.773 1116.54 509.188 1116.07 508.772C1115.63 508.356 1115.03 508.148 1114.28 508.148L1108.35 508.148L1108.35 513.803L1114.12 513.803ZM1113.73 505.301C1114.43 505.301 1114.99 505.106 1115.41 504.716C1115.82 504.326 1116.03 503.793 1116.03 503.117L1116.03 502.259C1116.03 501.583 1115.82 501.05 1115.41 500.66C1114.99 500.27 1114.43 500.075 1113.73 500.075L1108.35 500.075L1108.35 505.301L1113.73 505.301ZM150.101 563.877L154.391 563.877L144.641 587.901C144.121 589.201 143.432 590.176 142.574 590.826C141.742 591.476 140.533 591.801 138.947 591.801L135.554 591.801L135.554 588.369L140.312 588.369L142.145 583.728L134.033 563.877L138.479 563.877L141.677 572.301L144.173 579.204L144.407 579.204L146.903 572.301L150.101 563.877ZM195.233 584.469C193.725 584.469 192.373 584.222 191.177 583.728C190.007 583.234 189.006 582.532 188.174 581.622C187.368 580.712 186.744 579.607 186.302 578.307C185.886 577.007 185.678 575.551 185.678 573.939C185.678 572.327 185.886 570.871 186.302 569.571C186.744 568.271 187.368 567.166 188.174 566.256C189.006 565.346 190.007 564.644 191.177 564.15C192.373 563.656 193.712 563.409 195.194 563.409C197.274 563.409 198.938 563.851 200.186 564.735C201.46 565.619 202.409 566.763 203.033 568.167L199.718 569.961C199.354 569.025 198.795 568.284 198.041 567.738C197.313 567.192 196.364 566.919 195.194 566.919C193.582 566.919 192.334 567.413 191.45 568.401C190.566 569.363 190.124 570.65 190.124 572.262L190.124 575.616C190.124 577.202 190.566 578.489 191.45 579.477C192.334 580.465 193.608 580.959 195.272 580.959C196.52 580.959 197.534 580.673 198.314 580.101C199.12 579.529 199.757 578.749 200.225 577.761L203.345 579.672C202.695 581.076 201.707 582.233 200.381 583.143C199.055 584.027 197.339 584.469 195.233 584.469ZM220.061 584.469C218.527 584.469 217.149 584.222 215.927 583.728C214.705 583.234 213.678 582.532 212.846 581.622C212.014 580.712 211.377 579.62 210.935 578.346C210.493 577.046 210.272 575.59 210.272 573.978C210.272 572.366 210.493 570.91 210.935 569.61C211.403 568.31 212.04 567.205 212.846 566.295C213.678 565.359 214.679 564.644 215.849 564.15C217.019 563.656 218.319 563.409 219.749 563.409C221.153 563.409 222.427 563.656 223.571 564.15C224.715 564.618 225.69 565.294 226.496 566.178C227.302 567.062 227.913 568.115 228.329 569.337C228.771 570.559 228.992 571.911 228.992 573.393L228.992 574.992L214.562 574.992L214.562 575.655C214.562 577.241 215.056 578.541 216.044 579.555C217.032 580.543 218.397 581.037 220.139 581.037C221.439 581.037 222.544 580.764 223.454 580.218C224.39 579.646 225.144 578.892 225.716 577.956L228.368 580.296C227.692 581.466 226.652 582.454 225.248 583.26C223.87 584.066 222.141 584.469 220.061 584.469ZM219.749 566.646C218.995 566.646 218.293 566.776 217.643 567.036C217.019 567.296 216.473 567.673 216.005 568.167C215.563 568.635 215.212 569.194 214.952 569.844C214.692 570.494 214.562 571.209 214.562 571.989L214.562 572.262L224.663 572.262L224.663 571.872C224.663 570.286 224.208 569.025 223.298 568.089C222.414 567.127 221.231 566.646 219.749 566.646ZM244.81 584.469C243.38 584.469 242.08 584.222 240.91 583.728C239.766 583.234 238.778 582.493 237.946 581.505C237.14 580.517 236.516 579.282 236.074 577.8C235.632 576.292 235.411 574.537 235.411 572.535C235.411 569.493 235.619 566.906 236.035 564.774C236.451 562.616 237.114 560.861 238.024 559.509C238.934 558.131 240.091 557.104 241.495 556.428C242.925 555.752 244.641 555.349 246.643 555.219L252.766 554.868L252.766 558.846L246.721 559.197C245.499 559.275 244.472 559.483 243.64 559.821C242.834 560.133 242.171 560.64 241.651 561.342C241.131 562.044 240.728 562.954 240.442 564.072C240.182 565.164 240 566.529 239.896 568.167L240.13 568.167C240.624 566.867 241.339 565.866 242.275 565.164C243.211 564.462 244.42 564.111 245.902 564.111C247.124 564.111 248.242 564.332 249.256 564.774C250.296 565.216 251.18 565.866 251.908 566.724C252.636 567.556 253.195 568.596 253.585 569.844C254.001 571.092 254.209 572.509 254.209 574.095C254.209 575.655 253.988 577.085 253.546 578.385C253.104 579.659 252.467 580.751 251.635 581.661C250.829 582.545 249.841 583.234 248.671 583.728C247.527 584.222 246.24 584.469 244.81 584.469ZM244.771 581.115C246.253 581.115 247.449 580.647 248.359 579.711C249.295 578.749 249.763 577.41 249.763 575.694L249.763 572.964C249.763 571.144 249.321 569.779 248.437 568.869C247.553 567.933 246.331 567.465 244.771 567.465C243.185 567.465 241.963 567.92 241.105 568.83C240.273 569.714 239.857 570.897 239.857 572.379L239.857 575.616C239.857 577.41 240.299 578.775 241.183 579.711C242.093 580.647 243.289 581.115 244.771 581.115ZM260.473 580.569L262.774 580.569L264.217 577.917C264.529 577.319 264.893 576.89 265.309 576.63C265.725 576.344 266.232 576.175 266.83 576.123L266.83 575.967C265.166 575.837 263.814 575.304 262.774 574.368C261.734 573.432 261.214 572.054 261.214 570.234C261.214 569.272 261.37 568.401 261.682 567.621C261.994 566.841 262.436 566.178 263.008 565.632C263.606 565.06 264.308 564.631 265.114 564.345C265.946 564.033 266.869 563.877 267.883 563.877L277.867 563.877L277.867 584.001L273.616 584.001L273.616 576.513L269.833 576.513L267.22 581.271C266.7 582.259 266.128 582.961 265.504 583.377C264.88 583.793 264.074 584.001 263.086 584.001L260.473 584.001L260.473 580.569ZM273.616 567.192L268.663 567.192C267.675 567.192 266.908 567.426 266.362 567.894C265.842 568.336 265.582 568.96 265.582 569.766L265.582 570.78C265.582 571.586 265.842 572.223 266.362 572.691C266.908 573.133 267.675 573.354 268.663 573.354L273.616 573.354L273.616 567.192ZM309.154 580.569L311.455 580.569C312.209 579.373 312.807 577.93 313.249 576.24C313.691 574.524 313.912 572.496 313.912 570.156L313.912 563.877L327.64 563.877L327.64 580.569L330.877 580.569L330.877 589.461L327.055 589.461L327.055 584.001L312.976 584.001L312.976 589.461L309.154 589.461L309.154 580.569ZM323.467 580.569L323.467 567.309L317.89 567.309L317.89 570.312C317.89 572.6 317.708 574.576 317.344 576.24C317.006 577.878 316.499 579.321 315.823 580.569L323.467 580.569ZM345.33 584.469C343.848 584.469 342.509 584.222 341.313 583.728C340.143 583.234 339.142 582.532 338.31 581.622C337.504 580.712 336.88 579.607 336.438 578.307C335.996 577.007 335.775 575.551 335.775 573.939C335.775 572.327 335.996 570.871 336.438 569.571C336.88 568.271 337.504 567.166 338.31 566.256C339.142 565.346 340.143 564.644 341.313 564.15C342.509 563.656 343.848 563.409 345.33 563.409C346.812 563.409 348.138 563.656 349.308 564.15C350.504 564.644 351.505 565.346 352.311 566.256C353.143 567.166 353.78 568.271 354.222 569.571C354.664 570.871 354.885 572.327 354.885 573.939C354.885 575.551 354.664 577.007 354.222 578.307C353.78 579.607 353.143 580.712 352.311 581.622C351.505 582.532 350.504 583.234 349.308 583.728C348.138 584.222 346.812 584.469 345.33 584.469ZM345.33 581.115C346.89 581.115 348.125 580.647 349.035 579.711C349.971 578.749 350.439 577.332 350.439 575.46L350.439 572.418C350.439 570.546 349.971 569.142 349.035 568.206C348.125 567.244 346.89 566.763 345.33 566.763C343.77 566.763 342.522 567.244 341.586 568.206C340.676 569.142 340.221 570.546 340.221 572.418L340.221 575.46C340.221 577.332 340.676 578.749 341.586 579.711C342.522 580.647 343.77 581.115 345.33 581.115ZM361.227 563.877L366.18 563.877L370.548 573.354L370.821 573.354L375.189 563.877L379.713 563.877L379.713 584.001L376.008 584.001L376.008 572.652L376.164 569.103L375.891 569.103L370.47 580.842L365.049 569.103L364.776 569.103L364.932 572.652L364.932 584.001L361.227 584.001L361.227 563.877ZM403.098 584.001C401.876 584.001 400.953 583.689 400.329 583.065C399.731 582.441 399.367 581.622 399.237 580.608L399.042 580.608C398.652 581.83 397.937 582.779 396.897 583.455C395.883 584.131 394.583 584.469 392.997 584.469C390.943 584.469 389.305 583.936 388.083 582.87C386.861 581.778 386.25 580.283 386.25 578.385C386.25 576.435 386.965 574.953 388.395 573.939C389.851 572.899 392.074 572.379 395.064 572.379L398.925 572.379L398.925 570.819C398.925 568.089 397.482 566.724 394.596 566.724C393.296 566.724 392.243 566.984 391.437 567.504C390.631 567.998 389.955 568.661 389.409 569.493L386.874 567.426C387.446 566.334 388.408 565.398 389.76 564.618C391.112 563.812 392.854 563.409 394.986 563.409C397.534 563.409 399.536 564.02 400.992 565.242C402.448 566.464 403.176 568.232 403.176 570.546L403.176 580.647L405.711 580.647L405.711 584.001L403.098 584.001ZM394.206 581.349C395.584 581.349 396.715 581.037 397.599 580.413C398.483 579.789 398.925 578.983 398.925 577.995L398.925 575.07L395.142 575.07C392.074 575.07 390.54 575.993 390.54 577.839L390.54 578.619C390.54 579.529 390.865 580.218 391.515 580.686C392.165 581.128 393.062 581.349 394.206 581.349ZM445.929 584.469C444.499 584.469 443.199 584.222 442.029 583.728C440.885 583.234 439.897 582.493 439.065 581.505C438.259 580.517 437.635 579.282 437.193 577.8C436.751 576.292 436.53 574.537 436.53 572.535C436.53 569.493 436.738 566.906 437.154 564.774C437.57 562.616 438.233 560.861 439.143 559.509C440.053 558.131 441.21 557.104 442.614 556.428C444.044 555.752 445.76 555.349 447.762 555.219L453.885 554.868L453.885 558.846L447.84 559.197C446.618 559.275 445.591 559.483 444.759 559.821C443.953 560.133 443.29 560.64 442.77 561.342C442.25 562.044 441.847 562.954 441.561 564.072C441.301 565.164 441.119 566.529 441.015 568.167L441.249 568.167C441.743 566.867 442.458 565.866 443.394 565.164C444.33 564.462 445.539 564.111 447.021 564.111C448.243 564.111 449.361 564.332 450.375 564.774C451.415 565.216 452.299 565.866 453.027 566.724C453.755 567.556 454.314 568.596 454.704 569.844C455.12 571.092 455.328 572.509 455.328 574.095C455.328 575.655 455.107 577.085 454.665 578.385C454.223 579.659 453.586 580.751 452.754 581.661C451.948 582.545 450.96 583.234 449.79 583.728C448.646 584.222 447.359 584.469 445.929 584.469ZM445.89 581.115C447.372 581.115 448.568 580.647 449.478 579.711C450.414 578.749 450.882 577.41 450.882 575.694L450.882 572.964C450.882 571.144 450.44 569.779 449.556 568.869C448.672 567.933 447.45 567.465 445.89 567.465C444.304 567.465 443.082 567.92 442.224 568.83C441.392 569.714 440.976 570.897 440.976 572.379L440.976 575.616C440.976 577.41 441.418 578.775 442.302 579.711C443.212 580.647 444.408 581.115 445.89 581.115ZM460.265 580.569L462.878 580.569C463.216 580.127 463.515 579.62 463.775 579.048C464.061 578.45 464.282 577.735 464.438 576.903C464.62 576.071 464.75 575.109 464.828 574.017C464.932 572.925 464.984 571.651 464.984 570.195L464.984 563.877L479.219 563.877L479.219 584.001L474.968 584.001L474.968 567.309L468.962 567.309L468.962 570.273C468.962 573.679 468.715 576.344 468.221 578.268C467.727 580.192 467.051 581.596 466.193 582.48C465.595 583.104 464.906 583.52 464.126 583.728C463.346 583.91 462.527 584.001 461.669 584.001L460.265 584.001L460.265 580.569ZM503.657 584.001C502.435 584.001 501.512 583.689 500.888 583.065C500.29 582.441 499.926 581.622 499.796 580.608L499.601 580.608C499.211 581.83 498.496 582.779 497.456 583.455C496.442 584.131 495.142 584.469 493.556 584.469C491.502 584.469 489.864 583.936 488.642 582.87C487.42 581.778 486.809 580.283 486.809 578.385C486.809 576.435 487.524 574.953 488.954 573.939C490.41 572.899 492.633 572.379 495.623 572.379L499.484 572.379L499.484 570.819C499.484 568.089 498.041 566.724 495.155 566.724C493.855 566.724 492.802 566.984 491.996 567.504C491.19 567.998 490.514 568.661 489.968 569.493L487.433 567.426C488.005 566.334 488.967 565.398 490.319 564.618C491.671 563.812 493.413 563.409 495.545 563.409C498.093 563.409 500.095 564.02 501.551 565.242C503.007 566.464 503.735 568.232 503.735 570.546L503.735 580.647L506.27 580.647L506.27 584.001L503.657 584.001ZM494.765 581.349C496.143 581.349 497.274 581.037 498.158 580.413C499.042 579.789 499.484 578.983 499.484 577.995L499.484 575.07L495.701 575.07C492.633 575.07 491.099 575.993 491.099 577.839L491.099 578.619C491.099 579.529 491.424 580.218 492.074 580.686C492.724 581.128 493.621 581.349 494.765 581.349ZM514.64 563.877L529.421 563.877L529.421 567.309L518.891 567.309L518.891 584.001L514.64 584.001L514.64 563.877ZM546.449 584.469C544.967 584.469 543.628 584.222 542.432 583.728C541.262 583.234 540.261 582.532 539.429 581.622C538.623 580.712 537.999 579.607 537.557 578.307C537.115 577.007 536.894 575.551 536.894 573.939C536.894 572.327 537.115 570.871 537.557 569.571C537.999 568.271 538.623 567.166 539.429 566.256C540.261 565.346 541.262 564.644 542.432 564.15C543.628 563.656 544.967 563.409 546.449 563.409C547.931 563.409 549.257 563.656 550.427 564.15C551.623 564.644 552.624 565.346 553.43 566.256C554.262 567.166 554.899 568.271 555.341 569.571C555.783 570.871 556.004 572.327 556.004 573.939C556.004 575.551 555.783 577.007 555.341 578.307C554.899 579.607 554.262 580.712 553.43 581.622C552.624 582.532 551.623 583.234 550.427 583.728C549.257 584.222 547.931 584.469 546.449 584.469ZM546.449 581.115C548.009 581.115 549.244 580.647 550.154 579.711C551.09 578.749 551.558 577.332 551.558 575.46L551.558 572.418C551.558 570.546 551.09 569.142 550.154 568.206C549.244 567.244 548.009 566.763 546.449 566.763C544.889 566.763 543.641 567.244 542.705 568.206C541.795 569.142 541.34 570.546 541.34 572.418L541.34 575.46C541.34 577.332 541.795 578.749 542.705 579.711C543.641 580.647 544.889 581.115 546.449 581.115ZM560.551 580.569L562.852 580.569C563.606 579.373 564.204 577.93 564.646 576.24C565.088 574.524 565.309 572.496 565.309 570.156L565.309 563.877L579.037 563.877L579.037 580.569L582.274 580.569L582.274 589.461L578.452 589.461L578.452 584.001L564.373 584.001L564.373 589.461L560.551 589.461L560.551 580.569ZM574.864 580.569L574.864 567.309L569.287 567.309L569.287 570.312C569.287 572.6 569.105 574.576 568.741 576.24C568.403 577.878 567.896 579.321 567.22 580.569L574.864 580.569ZM604.216 584.001C602.994 584.001 602.071 583.689 601.447 583.065C600.849 582.441 600.485 581.622 600.355 580.608L600.16 580.608C599.77 581.83 599.055 582.779 598.015 583.455C597.001 584.131 595.701 584.469 594.115 584.469C592.061 584.469 590.423 583.936 589.201 582.87C587.979 581.778 587.368 580.283 587.368 578.385C587.368 576.435 588.083 574.953 589.513 573.939C590.969 572.899 593.192 572.379 596.182 572.379L600.043 572.379L600.043 570.819C600.043 568.089 598.6 566.724 595.714 566.724C594.414 566.724 593.361 566.984 592.555 567.504C591.749 567.998 591.073 568.661 590.527 569.493L587.992 567.426C588.564 566.334 589.526 565.398 590.878 564.618C592.23 563.812 593.972 563.409 596.104 563.409C598.652 563.409 600.654 564.02 602.11 565.242C603.566 566.464 604.294 568.232 604.294 570.546L604.294 580.647L606.829 580.647L606.829 584.001L604.216 584.001ZM595.324 581.349C596.702 581.349 597.833 581.037 598.717 580.413C599.601 579.789 600.043 578.983 600.043 577.995L600.043 575.07L596.26 575.07C593.192 575.07 591.658 575.993 591.658 577.839L591.658 578.619C591.658 579.529 591.983 580.218 592.633 580.686C593.283 581.128 594.18 581.349 595.324 581.349ZM613.249 563.877L617.5 563.877L617.5 567.309L617.734 567.309C618.332 566.087 619.125 565.138 620.113 564.462C621.101 563.76 622.336 563.409 623.818 563.409C626.184 563.409 628.069 564.293 629.473 566.061C630.877 567.829 631.579 570.455 631.579 573.939C631.579 577.423 630.877 580.049 629.473 581.817C628.069 583.585 626.184 584.469 623.818 584.469C622.336 584.469 621.101 584.131 620.113 583.455C619.125 582.753 618.332 581.791 617.734 580.569L617.5 580.569L617.5 591.801L613.249 591.801L613.249 563.877ZM622.063 580.998C623.675 580.998 624.91 580.504 625.768 579.516C626.652 578.528 627.094 577.215 627.094 575.577L627.094 572.301C627.094 570.663 626.652 569.35 625.768 568.362C624.91 567.374 623.675 566.88 622.063 566.88C621.439 566.88 620.854 566.958 620.308 567.114C619.762 567.27 619.281 567.504 618.865 567.816C618.449 568.128 618.111 568.518 617.851 568.986C617.617 569.428 617.5 569.961 617.5 570.585L617.5 577.293C617.5 577.917 617.617 578.463 617.851 578.931C618.111 579.373 618.449 579.75 618.865 580.062C619.281 580.374 619.762 580.608 620.308 580.764C620.854 580.92 621.439 580.998 622.063 580.998ZM637.57 580.569L639.871 580.569L641.314 577.917C641.626 577.319 641.99 576.89 642.406 576.63C642.822 576.344 643.329 576.175 643.927 576.123L643.927 575.967C642.263 575.837 640.911 575.304 639.871 574.368C638.831 573.432 638.311 572.054 638.311 570.234C638.311 569.272 638.467 568.401 638.779 567.621C639.091 566.841 639.533 566.178 640.105 565.632C640.703 565.06 641.405 564.631 642.211 564.345C643.043 564.033 643.966 563.877 644.98 563.877L654.964 563.877L654.964 584.001L650.713 584.001L650.713 576.513L646.93 576.513L644.317 581.271C643.797 582.259 643.225 582.961 642.601 583.377C641.977 583.793 641.171 584.001 640.183 584.001L637.57 584.001L637.57 580.569ZM650.713 567.192L645.76 567.192C644.772 567.192 644.005 567.426 643.459 567.894C642.939 568.336 642.679 568.96 642.679 569.766L642.679 570.78C642.679 571.586 642.939 572.223 643.459 572.691C644.005 573.133 644.772 573.354 645.76 573.354L650.713 573.354L650.713 567.192ZM689.175 563.877L693.426 563.877L693.426 571.989L697.053 571.989L701.889 563.877L706.452 563.877L701.967 571.209C701.525 571.963 701.096 572.496 700.68 572.808C700.264 573.12 699.783 573.341 699.237 573.471L699.237 573.666C699.861 573.796 700.381 574.03 700.797 574.368C701.213 574.68 701.642 575.226 702.084 576.006L704.619 580.569L706.803 580.569L706.803 584.001L704.307 584.001C703.449 584.001 702.708 583.806 702.084 583.416C701.486 583 700.927 582.337 700.407 581.427L697.053 575.421L693.426 575.421L693.426 584.001L689.175 584.001L689.175 563.877ZM714.003 563.877L718.254 563.877L718.254 571.989L726.6 571.989L726.6 563.877L730.851 563.877L730.851 584.001L726.6 584.001L726.6 575.421L718.254 575.421L718.254 584.001L714.003 584.001L714.003 563.877ZM739.104 563.877L743.316 563.877L743.316 572.535L742.926 577.995L743.121 577.995L752.013 563.877L756.03 563.877L756.03 584.001L751.818 584.001L751.818 575.343L752.208 569.883L752.013 569.883L743.121 584.001L739.104 584.001L739.104 563.877ZM766.037 563.877L780.818 563.877L780.818 567.309L770.288 567.309L770.288 584.001L766.037 584.001L766.037 563.877ZM805.334 584.001C804.112 584.001 803.189 583.689 802.565 583.065C801.967 582.441 801.603 581.622 801.473 580.608L801.278 580.608C800.888 581.83 800.173 582.779 799.133 583.455C798.119 584.131 796.819 584.469 795.233 584.469C793.179 584.469 791.541 583.936 790.319 582.87C789.097 581.778 788.486 580.283 788.486 578.385C788.486 576.435 789.201 574.953 790.631 573.939C792.087 572.899 794.31 572.379 797.3 572.379L801.161 572.379L801.161 570.819C801.161 568.089 799.718 566.724 796.832 566.724C795.532 566.724 794.479 566.984 793.673 567.504C792.867 567.998 792.191 568.661 791.645 569.493L789.11 567.426C789.682 566.334 790.644 565.398 791.996 564.618C793.348 563.812 795.09 563.409 797.222 563.409C799.77 563.409 801.772 564.02 803.228 565.242C804.684 566.464 805.412 568.232 805.412 570.546L805.412 580.647L807.947 580.647L807.947 584.001L805.334 584.001ZM796.442 581.349C797.82 581.349 798.951 581.037 799.835 580.413C800.719 579.789 801.161 578.983 801.161 577.995L801.161 575.07L797.378 575.07C794.31 575.07 792.776 575.993 792.776 577.839L792.776 578.619C792.776 579.529 793.101 580.218 793.751 580.686C794.401 581.128 795.298 581.349 796.442 581.349ZM813.743 563.877L818.696 563.877L823.064 573.354L823.337 573.354L827.705 563.877L832.229 563.877L832.229 584.001L828.524 584.001L828.524 572.652L828.68 569.103L828.407 569.103L822.986 580.842L817.565 569.103L817.292 569.103L817.448 572.652L817.448 584.001L813.743 584.001L813.743 563.877ZM864.803 563.877L869.015 563.877L869.015 572.535L868.625 577.995L868.82 577.995L877.712 563.877L881.729 563.877L881.729 584.001L877.517 584.001L877.517 575.343L877.907 569.883L877.712 569.883L868.82 584.001L864.803 584.001L864.803 563.877ZM889.981 563.877L894.232 563.877L894.232 571.989L902.578 571.989L902.578 563.877L906.829 563.877L906.829 584.001L902.578 584.001L902.578 575.421L894.232 575.421L894.232 584.001L889.981 584.001L889.981 563.877ZM923.545 584.469C922.063 584.469 920.724 584.222 919.528 583.728C918.358 583.234 917.357 582.532 916.525 581.622C915.719 580.712 915.095 579.607 914.653 578.307C914.211 577.007 913.99 575.551 913.99 573.939C913.99 572.327 914.211 570.871 914.653 569.571C915.095 568.271 915.719 567.166 916.525 566.256C917.357 565.346 918.358 564.644 919.528 564.15C920.724 563.656 922.063 563.409 923.545 563.409C925.027 563.409 926.353 563.656 927.523 564.15C928.719 564.644 929.72 565.346 930.526 566.256C931.358 567.166 931.995 568.271 932.437 569.571C932.879 570.871 933.1 572.327 933.1 573.939C933.1 575.551 932.879 577.007 932.437 578.307C931.995 579.607 931.358 580.712 930.526 581.622C929.72 582.532 928.719 583.234 927.523 583.728C926.353 584.222 925.027 584.469 923.545 584.469ZM923.545 581.115C925.105 581.115 926.34 580.647 927.25 579.711C928.186 578.749 928.654 577.332 928.654 575.46L928.654 572.418C928.654 570.546 928.186 569.142 927.25 568.206C926.34 567.244 925.105 566.763 923.545 566.763C921.985 566.763 920.737 567.244 919.801 568.206C918.891 569.142 918.436 570.546 918.436 572.418L918.436 575.46C918.436 577.332 918.891 578.749 919.801 579.711C920.737 580.647 921.985 581.115 923.545 581.115ZM940.3 563.877L957.07 563.877L957.07 584.001L952.819 584.001L952.819 567.309L944.551 567.309L944.551 584.001L940.3 584.001L940.3 563.877ZM963.061 580.569L965.674 580.569C966.012 580.127 966.311 579.62 966.571 579.048C966.857 578.45 967.078 577.735 967.234 576.903C967.416 576.071 967.546 575.109 967.624 574.017C967.728 572.925 967.78 571.651 967.78 570.195L967.78 563.877L982.015 563.877L982.015 584.001L977.764 584.001L977.764 567.309L971.758 567.309L971.758 570.273C971.758 573.679 971.511 576.344 971.017 578.268C970.523 580.192 969.847 581.596 968.989 582.48C968.391 583.104 967.702 583.52 966.922 583.728C966.142 583.91 965.323 584.001 964.465 584.001L963.061 584.001L963.061 580.569ZM1006.45 584.001C1005.23 584.001 1004.31 583.689 1003.68 583.065C1003.09 582.441 1002.72 581.622 1002.59 580.608L1002.4 580.608C1002.01 581.83 1001.29 582.779 1000.25 583.455C999.237 584.131 997.937 584.469 996.351 584.469C994.297 584.469 992.659 583.936 991.437 582.87C990.215 581.778 989.604 580.283 989.604 578.385C989.604 576.435 990.319 574.953 991.749 573.939C993.205 572.899 995.428 572.379 998.418 572.379L1002.28 572.379L1002.28 570.819C1002.28 568.089 1000.84 566.724 997.95 566.724C996.65 566.724 995.597 566.984 994.791 567.504C993.985 567.998 993.309 568.661 992.763 569.493L990.228 567.426C990.8 566.334 991.762 565.398 993.114 564.618C994.466 563.812 996.208 563.409 998.34 563.409C1000.89 563.409 1002.89 564.02 1004.35 565.242C1005.8 566.464 1006.53 568.232 1006.53 570.546L1006.53 580.647L1009.07 580.647L1009.07 584.001L1006.45 584.001ZM997.56 581.349C998.938 581.349 1000.07 581.037 1000.95 580.413C1001.84 579.789 1002.28 578.983 1002.28 577.995L1002.28 575.07L998.496 575.07C995.428 575.07 993.894 575.993 993.894 577.839L993.894 578.619C993.894 579.529 994.219 580.218 994.869 580.686C995.519 581.128 996.416 581.349 997.56 581.349ZM1015.68 563.877L1019.93 563.877L1019.93 571.989L1028.28 571.989L1028.28 563.877L1032.53 563.877L1032.53 584.001L1028.28 584.001L1028.28 575.421L1019.93 575.421L1019.93 584.001L1015.68 584.001L1015.68 563.877ZM1049.67 584.469C1048.14 584.469 1046.76 584.222 1045.54 583.728C1044.32 583.234 1043.29 582.532 1042.46 581.622C1041.63 580.712 1040.99 579.62 1040.55 578.346C1040.1 577.046 1039.88 575.59 1039.88 573.978C1039.88 572.366 1040.1 570.91 1040.55 569.61C1041.01 568.31 1041.65 567.205 1042.46 566.295C1043.29 565.359 1044.29 564.644 1045.46 564.15C1046.63 563.656 1047.93 563.409 1049.36 563.409C1050.76 563.409 1052.04 563.656 1053.18 564.15C1054.33 564.618 1055.3 565.294 1056.11 566.178C1056.91 567.062 1057.52 568.115 1057.94 569.337C1058.38 570.559 1058.6 571.911 1058.6 573.393L1058.6 574.992L1044.17 574.992L1044.17 575.655C1044.17 577.241 1044.67 578.541 1045.66 579.555C1046.64 580.543 1048.01 581.037 1049.75 581.037C1051.05 581.037 1052.16 580.764 1053.07 580.218C1054 579.646 1054.76 578.892 1055.33 577.956L1057.98 580.296C1057.3 581.466 1056.26 582.454 1054.86 583.26C1053.48 584.066 1051.75 584.469 1049.67 584.469ZM1049.36 566.646C1048.61 566.646 1047.9 566.776 1047.25 567.036C1046.63 567.296 1046.08 567.673 1045.62 568.167C1045.17 568.635 1044.82 569.194 1044.56 569.844C1044.3 570.494 1044.17 571.209 1044.17 571.989L1044.17 572.262L1054.27 572.262L1054.27 571.872C1054.27 570.286 1053.82 569.025 1052.91 568.089C1052.03 567.127 1050.84 566.646 1049.36 566.646ZM1072.24 567.309L1065.18 567.309L1065.18 563.877L1083.59 563.877L1083.59 567.309L1076.49 567.309L1076.49 584.001L1072.24 584.001L1072.24 567.309ZM1091.1 563.877L1095.35 563.877L1095.35 571.989L1103.7 571.989L1103.7 563.877L1107.95 563.877L1107.95 584.001L1103.7 584.001L1103.7 575.421L1095.35 575.421L1095.35 584.001L1091.1 584.001L1091.1 563.877ZM1114.68 563.877L1118.54 563.877L1118.54 570.507L1121.39 570.507C1123.44 570.507 1125.09 571.092 1126.34 572.262C1127.61 573.432 1128.25 575.096 1128.25 577.254C1128.25 579.412 1127.61 581.076 1126.34 582.246C1125.09 583.416 1123.44 584.001 1121.39 584.001L1114.68 584.001L1114.68 563.877ZM1121.11 580.803C1122.1 580.803 1122.87 580.582 1123.42 580.14C1123.99 579.672 1124.27 578.944 1124.27 577.956L1124.27 576.552C1124.27 575.564 1123.99 574.849 1123.42 574.407C1122.87 573.939 1122.1 573.705 1121.11 573.705L1118.54 573.705L1118.54 580.803L1121.11 580.803ZM1130.79 563.877L1134.65 563.877L1134.65 584.001L1130.79 584.001L1130.79 563.877ZM1139.86 584.001L1147.35 573.783L1140.17 563.877L1145.12 563.877L1147.78 567.699L1149.88 570.741L1150.12 570.741L1152.18 567.699L1154.83 563.877L1159.44 563.877L1152.22 573.627L1159.79 584.001L1154.8 584.001L1151.79 579.672L1149.73 576.708L1149.49 576.708L1147.46 579.672L1144.5 584.001L1139.86 584.001ZM248.722 630.877L252.973 630.877L252.973 634.309L253.207 634.309C253.805 633.087 254.598 632.138 255.586 631.462C256.574 630.76 257.809 630.409 259.291 630.409C261.657 630.409 263.542 631.293 264.946 633.061C266.35 634.829 267.052 637.455 267.052 640.939C267.052 644.423 266.35 647.049 264.946 648.817C263.542 650.585 261.657 651.469 259.291 651.469C257.809 651.469 256.574 651.131 255.586 650.455C254.598 649.753 253.805 648.791 253.207 647.569L252.973 647.569L252.973 658.801L248.722 658.801L248.722 630.877ZM257.536 647.998C259.148 647.998 260.383 647.504 261.241 646.516C262.125 645.528 262.567 644.215 262.567 642.577L262.567 639.301C262.567 637.663 262.125 636.35 261.241 635.362C260.383 634.374 259.148 633.88 257.536 633.88C256.912 633.88 256.327 633.958 255.781 634.114C255.235 634.27 254.754 634.504 254.338 634.816C253.922 635.128 253.584 635.518 253.324 635.986C253.09 636.428 252.973 636.961 252.973 637.585L252.973 644.293C252.973 644.917 253.09 645.463 253.324 645.931C253.584 646.373 253.922 646.75 254.338 647.062C254.754 647.374 255.235 647.608 255.781 647.764C256.327 647.92 256.912 647.998 257.536 647.998ZM282.91 651.469C281.376 651.469 279.998 651.222 278.776 650.728C277.554 650.234 276.527 649.532 275.695 648.622C274.863 647.712 274.226 646.62 273.784 645.346C273.342 644.046 273.121 642.59 273.121 640.978C273.121 639.366 273.342 637.91 273.784 636.61C274.252 635.31 274.889 634.205 275.695 633.295C276.527 632.359 277.528 631.644 278.698 631.15C279.868 630.656 281.168 630.409 282.598 630.409C284.002 630.409 285.276 630.656 286.42 631.15C287.564 631.618 288.539 632.294 289.345 633.178C290.151 634.062 290.762 635.115 291.178 636.337C291.62 637.559 291.841 638.911 291.841 640.393L291.841 641.992L277.411 641.992L277.411 642.655C277.411 644.241 277.905 645.541 278.893 646.555C279.881 647.543 281.246 648.037 282.988 648.037C284.288 648.037 285.393 647.764 286.303 647.218C287.239 646.646 287.993 645.892 288.565 644.956L291.217 647.296C290.541 648.466 289.501 649.454 288.097 650.26C286.719 651.066 284.99 651.469 282.91 651.469ZM282.598 633.646C281.844 633.646 281.142 633.776 280.492 634.036C279.868 634.296 279.322 634.673 278.854 635.167C278.412 635.635 278.061 636.194 277.801 636.844C277.541 637.494 277.411 638.209 277.411 638.989L277.411 639.262L287.512 639.262L287.512 638.872C287.512 637.286 287.057 636.025 286.147 635.089C285.263 634.127 284.08 633.646 282.598 633.646ZM314.563 651.001L298.729 651.001L298.729 630.877L302.98 630.877L302.98 647.569L310.897 647.569L310.897 630.877L315.148 630.877L315.148 647.569L318.385 647.569L318.385 656.461L314.563 656.461L314.563 651.001ZM333.19 651.469C331.656 651.469 330.278 651.222 329.056 650.728C327.834 650.234 326.807 649.532 325.975 648.622C325.143 647.712 324.506 646.62 324.064 645.346C323.622 644.046 323.401 642.59 323.401 640.978C323.401 639.366 323.622 637.91 324.064 636.61C324.532 635.31 325.169 634.205 325.975 633.295C326.807 632.359 327.808 631.644 328.978 631.15C330.148 630.656 331.448 630.409 332.878 630.409C334.282 630.409 335.556 630.656 336.7 631.15C337.844 631.618 338.819 632.294 339.625 633.178C340.431 634.062 341.042 635.115 341.458 636.337C341.9 637.559 342.121 638.911 342.121 640.393L342.121 641.992L327.691 641.992L327.691 642.655C327.691 644.241 328.185 645.541 329.173 646.555C330.161 647.543 331.526 648.037 333.268 648.037C334.568 648.037 335.673 647.764 336.583 647.218C337.519 646.646 338.273 645.892 338.845 644.956L341.497 647.296C340.821 648.466 339.781 649.454 338.377 650.26C336.999 651.066 335.27 651.469 333.19 651.469ZM332.878 633.646C332.124 633.646 331.422 633.776 330.772 634.036C330.148 634.296 329.602 634.673 329.134 635.167C328.692 635.635 328.341 636.194 328.081 636.844C327.821 637.494 327.691 638.209 327.691 638.989L327.691 639.262L337.792 639.262L337.792 638.872C337.792 637.286 337.337 636.025 336.427 635.089C335.543 634.127 334.36 633.646 332.878 633.646ZM349.515 630.877L366.285 630.877L366.285 651.001L362.034 651.001L362.034 634.309L353.766 634.309L353.766 651.001L349.515 651.001L349.515 630.877ZM380.895 634.309L373.836 634.309L373.836 630.877L392.244 630.877L392.244 634.309L385.146 634.309L385.146 651.001L380.895 651.001L380.895 634.309ZM408.18 651.469C406.698 651.469 405.359 651.222 404.163 650.728C402.993 650.234 401.992 649.532 401.16 648.622C400.354 647.712 399.73 646.607 399.288 645.307C398.846 644.007 398.625 642.551 398.625 640.939C398.625 639.327 398.846 637.871 399.288 636.571C399.73 635.271 400.354 634.166 401.16 633.256C401.992 632.346 402.993 631.644 404.163 631.15C405.359 630.656 406.698 630.409 408.18 630.409C409.662 630.409 410.988 630.656 412.158 631.15C413.354 631.644 414.355 632.346 415.161 633.256C415.993 634.166 416.63 635.271 417.072 636.571C417.514 637.871 417.735 639.327 417.735 640.939C417.735 642.551 417.514 644.007 417.072 645.307C416.63 646.607 415.993 647.712 415.161 648.622C414.355 649.532 413.354 650.234 412.158 650.728C410.988 651.222 409.662 651.469 408.18 651.469ZM408.18 648.115C409.74 648.115 410.975 647.647 411.885 646.711C412.821 645.749 413.289 644.332 413.289 642.46L413.289 639.418C413.289 637.546 412.821 636.142 411.885 635.206C410.975 634.244 409.74 633.763 408.18 633.763C406.62 633.763 405.372 634.244 404.436 635.206C403.526 636.142 403.071 637.546 403.071 639.418L403.071 642.46C403.071 644.332 403.526 645.749 404.436 646.711C405.372 647.647 406.62 648.115 408.18 648.115ZM425.325 630.877L436.128 630.877C437.87 630.877 439.222 631.345 440.184 632.281C441.146 633.191 441.627 634.413 441.627 635.947C441.627 638.443 440.262 639.899 437.532 640.315L437.532 640.51C439.196 640.64 440.418 641.121 441.198 641.953C441.978 642.759 442.368 643.825 442.368 645.151C442.368 645.957 442.225 646.711 441.939 647.413C441.679 648.115 441.289 648.739 440.769 649.285C440.249 649.805 439.599 650.221 438.819 650.533C438.065 650.845 437.207 651.001 436.245 651.001L425.325 651.001L425.325 630.877ZM435.348 647.803C436.18 647.803 436.83 647.608 437.298 647.218C437.766 646.802 438 646.217 438 645.463L438 644.527C438 643.773 437.766 643.188 437.298 642.772C436.856 642.356 436.258 642.148 435.504 642.148L429.576 642.148L429.576 647.803L435.348 647.803ZM434.958 639.301C435.66 639.301 436.219 639.106 436.635 638.716C437.051 638.326 437.259 637.793 437.259 637.117L437.259 636.259C437.259 635.583 437.051 635.05 436.635 634.66C436.219 634.27 435.66 634.075 434.958 634.075L429.576 634.075L429.576 639.301L434.958 639.301ZM478.88 630.058L478.529 630.058L478.529 651.001L474.707 651.001L474.707 623.779L480.323 623.779L488.318 644.722L488.669 644.722L488.669 623.779L492.491 623.779L492.491 651.001L486.875 651.001L478.88 630.058ZM508.739 651.469C507.023 651.469 505.528 651.157 504.254 650.533C503.006 649.883 501.966 648.96 501.134 647.764C500.328 646.568 499.73 645.099 499.34 643.357C498.95 641.615 498.755 639.626 498.755 637.39C498.755 635.18 498.95 633.204 499.34 631.462C499.73 629.694 500.328 628.212 501.134 627.016C501.966 625.82 503.006 624.91 504.254 624.286C505.528 623.636 507.023 623.311 508.739 623.311C510.455 623.311 511.937 623.636 513.185 624.286C514.459 624.91 515.499 625.82 516.305 627.016C517.137 628.212 517.748 629.694 518.138 631.462C518.528 633.204 518.723 635.18 518.723 637.39C518.723 639.626 518.528 641.615 518.138 643.357C517.748 645.099 517.137 646.568 516.305 647.764C515.499 648.96 514.459 649.883 513.185 650.533C511.937 651.157 510.455 651.469 508.739 651.469ZM508.739 647.842C510.689 647.842 512.067 647.114 512.873 645.658C513.679 644.176 514.082 642.174 514.082 639.652L514.082 635.089C514.082 632.593 513.679 630.617 512.873 629.161C512.067 627.679 510.689 626.938 508.739 626.938C506.789 626.938 505.411 627.679 504.605 629.161C503.799 630.617 503.396 632.593 503.396 635.089L503.396 639.691C503.396 642.187 503.799 644.176 504.605 645.658C505.411 647.114 506.789 647.842 508.739 647.842ZM544.877 651.001L539.924 651.001L536.843 645.619L533.957 640.471L533.723 640.471L530.759 645.619L527.561 651.001L522.92 651.001L531.266 637.039L523.427 623.779L528.38 623.779L531.149 628.654L533.957 633.685L534.152 633.685L536.96 628.654L539.846 623.779L544.487 623.779L536.609 637.039L544.877 651.001ZM580.063 651.001L575.734 651.001L575.734 623.779L585.913 623.779C588.513 623.779 590.489 624.507 591.841 625.963C593.219 627.419 593.908 629.421 593.908 631.969C593.908 634.049 593.401 635.765 592.387 637.117C591.373 638.469 589.917 639.301 588.019 639.613L594.298 651.001L589.462 651.001L583.69 640.003L580.063 640.003L580.063 651.001ZM585.289 636.493C587.993 636.493 589.345 635.258 589.345 632.788L589.345 631.111C589.345 628.641 587.993 627.406 585.289 627.406L580.063 627.406L580.063 636.493L585.289 636.493ZM609.727 651.469C608.193 651.469 606.815 651.222 605.593 650.728C604.371 650.234 603.344 649.532 602.512 648.622C601.68 647.712 601.043 646.62 600.601 645.346C600.159 644.046 599.938 642.59 599.938 640.978C599.938 639.366 600.159 637.91 600.601 636.61C601.069 635.31 601.706 634.205 602.512 633.295C603.344 632.359 604.345 631.644 605.515 631.15C606.685 630.656 607.985 630.409 609.415 630.409C610.819 630.409 612.093 630.656 613.237 631.15C614.381 631.618 615.356 632.294 616.162 633.178C616.968 634.062 617.579 635.115 617.995 636.337C618.437 637.559 618.658 638.911 618.658 640.393L618.658 641.992L604.228 641.992L604.228 642.655C604.228 644.241 604.722 645.541 605.71 646.555C606.698 647.543 608.063 648.037 609.805 648.037C611.105 648.037 612.21 647.764 613.12 647.218C614.056 646.646 614.81 645.892 615.382 644.956L618.034 647.296C617.358 648.466 616.318 649.454 614.914 650.26C613.536 651.066 611.807 651.469 609.727 651.469ZM609.415 633.646C608.661 633.646 607.959 633.776 607.309 634.036C606.685 634.296 606.139 634.673 605.671 635.167C605.229 635.635 604.878 636.194 604.618 636.844C604.358 637.494 604.228 638.209 604.228 638.989L604.228 639.262L614.329 639.262L614.329 638.872C614.329 637.286 613.874 636.025 612.964 635.089C612.08 634.127 610.897 633.646 609.415 633.646ZM634.477 651.469C632.293 651.469 630.408 651.118 628.822 650.416C627.262 649.714 626.001 648.778 625.039 647.608L627.652 645.268C628.536 646.23 629.524 646.971 630.616 647.491C631.734 647.985 633.047 648.232 634.555 648.232C635.933 648.232 637.038 647.998 637.87 647.53C638.728 647.062 639.157 646.334 639.157 645.346C639.157 644.93 639.079 644.579 638.923 644.293C638.767 644.007 638.546 643.773 638.26 643.591C637.974 643.409 637.636 643.266 637.246 643.162C636.882 643.058 636.492 642.98 636.076 642.928L632.878 642.421C632.098 642.317 631.305 642.148 630.499 641.914C629.693 641.68 628.965 641.355 628.315 640.939C627.691 640.497 627.171 639.938 626.755 639.262C626.365 638.586 626.17 637.728 626.17 636.688C626.17 634.634 626.95 633.074 628.51 632.008C630.096 630.942 632.176 630.409 634.75 630.409C636.622 630.409 638.234 630.695 639.586 631.267C640.964 631.813 642.108 632.58 643.018 633.568L640.639 636.064C640.119 635.466 639.378 634.92 638.416 634.426C637.454 633.906 636.18 633.646 634.594 633.646C631.76 633.646 630.343 634.543 630.343 636.337C630.343 637.195 630.642 637.793 631.24 638.131C631.864 638.443 632.592 638.651 633.424 638.755L636.622 639.262C637.428 639.392 638.221 639.561 639.001 639.769C639.807 639.977 640.522 640.302 641.146 640.744C641.796 641.16 642.316 641.706 642.706 642.382C643.122 643.058 643.33 643.916 643.33 644.956C643.33 646.984 642.537 648.583 640.951 649.753C639.391 650.897 637.233 651.469 634.477 651.469ZM660.786 651.001C659.018 651.001 657.718 650.533 656.886 649.597C656.054 648.635 655.638 647.4 655.638 645.892L655.638 634.309L649.437 634.309L649.437 630.877L653.844 630.877C654.598 630.877 655.131 630.734 655.443 630.448C655.755 630.136 655.911 629.59 655.911 628.81L655.911 623.779L659.889 623.779L659.889 630.877L668.469 630.877L668.469 634.309L659.889 634.309L659.889 647.569L668.469 647.569L668.469 651.001L660.786 651.001ZM692.205 651.001C690.983 651.001 690.06 650.689 689.436 650.065C688.838 649.441 688.474 648.622 688.344 647.608L688.149 647.608C687.759 648.83 687.044 649.779 686.004 650.455C684.99 651.131 683.69 651.469 682.104 651.469C680.05 651.469 678.412 650.936 677.19 649.87C675.968 648.778 675.357 647.283 675.357 645.385C675.357 643.435 676.072 641.953 677.502 640.939C678.958 639.899 681.181 639.379 684.171 639.379L688.032 639.379L688.032 637.819C688.032 635.089 686.589 633.724 683.703 633.724C682.403 633.724 681.35 633.984 680.544 634.504C679.738 634.998 679.062 635.661 678.516 636.493L675.981 634.426C676.553 633.334 677.515 632.398 678.867 631.618C680.219 630.812 681.961 630.409 684.093 630.409C686.641 630.409 688.643 631.02 690.099 632.242C691.555 633.464 692.283 635.232 692.283 637.546L692.283 647.647L694.818 647.647L694.818 651.001L692.205 651.001ZM683.313 648.349C684.691 648.349 685.822 648.037 686.706 647.413C687.59 646.789 688.032 645.983 688.032 644.995L688.032 642.07L684.249 642.07C681.181 642.07 679.647 642.993 679.647 644.839L679.647 645.619C679.647 646.529 679.972 647.218 680.622 647.686C681.272 648.128 682.169 648.349 683.313 648.349ZM701.121 647.569L706.464 647.569L706.464 634.309L701.121 634.309L701.121 630.877L710.715 630.877L710.715 636.22L710.949 636.22C711.131 635.518 711.391 634.842 711.729 634.192C712.067 633.542 712.496 632.983 713.016 632.515C713.536 632.021 714.173 631.631 714.927 631.345C715.681 631.033 716.565 630.877 717.579 630.877L719.997 630.877L719.997 634.933L716.019 634.933C714.459 634.933 713.185 635.401 712.197 636.337C711.209 637.247 710.715 638.482 710.715 640.042L710.715 647.569L718.008 647.569L718.008 651.001L701.121 651.001L701.121 647.569ZM742.485 651.001C741.263 651.001 740.34 650.689 739.716 650.065C739.118 649.441 738.754 648.622 738.624 647.608L738.429 647.608C738.039 648.83 737.324 649.779 736.284 650.455C735.27 651.131 733.97 651.469 732.384 651.469C730.33 651.469 728.692 650.936 727.47 649.87C726.248 648.778 725.637 647.283 725.637 645.385C725.637 643.435 726.352 641.953 727.782 640.939C729.238 639.899 731.461 639.379 734.451 639.379L738.312 639.379L738.312 637.819C738.312 635.089 736.869 633.724 733.983 633.724C732.683 633.724 731.63 633.984 730.824 634.504C730.018 634.998 729.342 635.661 728.796 636.493L726.261 634.426C726.833 633.334 727.795 632.398 729.147 631.618C730.499 630.812 732.241 630.409 734.373 630.409C736.921 630.409 738.923 631.02 740.379 632.242C741.835 633.464 742.563 635.232 742.563 637.546L742.563 647.647L745.098 647.647L745.098 651.001L742.485 651.001ZM733.593 648.349C734.971 648.349 736.102 648.037 736.986 647.413C737.87 646.789 738.312 645.983 738.312 644.995L738.312 642.07L734.529 642.07C731.461 642.07 729.927 642.993 729.927 644.839L729.927 645.619C729.927 646.529 730.252 647.218 730.902 647.686C731.552 648.128 732.449 648.349 733.593 648.349ZM764.31 647.569L764.115 647.569C763.907 648.089 763.634 648.596 763.296 649.09C762.984 649.558 762.594 649.974 762.126 650.338C761.658 650.676 761.112 650.949 760.488 651.157C759.864 651.365 759.136 651.469 758.304 651.469C756.276 651.469 754.638 650.806 753.39 649.48C752.142 648.154 751.518 646.269 751.518 643.825L751.518 630.877L755.769 630.877L755.769 643.201C755.769 646.399 757.16 647.998 759.942 647.998C760.488 647.998 761.021 647.933 761.541 647.803C762.061 647.647 762.529 647.426 762.945 647.14C763.361 646.854 763.686 646.503 763.92 646.087C764.18 645.645 764.31 645.125 764.31 644.527L764.31 630.877L768.561 630.877L768.561 651.001L764.31 651.001L764.31 647.569ZM776.852 651.001L776.852 630.877L781.103 630.877L781.103 634.309L781.298 634.309C781.506 633.789 781.766 633.295 782.078 632.827C782.416 632.333 782.819 631.917 783.287 631.579C783.755 631.215 784.301 630.929 784.925 630.721C785.549 630.513 786.277 630.409 787.109 630.409C789.137 630.409 790.775 631.072 792.023 632.398C793.271 633.724 793.895 635.609 793.895 638.053L793.895 651.001L789.644 651.001L789.644 638.677C789.644 635.479 788.253 633.88 785.471 633.88C784.925 633.88 784.392 633.958 783.872 634.114C783.352 634.244 782.884 634.452 782.468 634.738C782.052 635.024 781.714 635.388 781.454 635.83C781.22 636.272 781.103 636.779 781.103 637.351L781.103 651.001L776.852 651.001ZM811.625 651.001C809.857 651.001 808.557 650.533 807.725 649.597C806.893 648.635 806.477 647.4 806.477 645.892L806.477 634.309L800.276 634.309L800.276 630.877L804.683 630.877C805.437 630.877 805.97 630.734 806.282 630.448C806.594 630.136 806.75 629.59 806.75 628.81L806.75 623.779L810.728 623.779L810.728 630.877L819.308 630.877L819.308 634.309L810.728 634.309L810.728 647.569L819.308 647.569L819.308 651.001L811.625 651.001ZM860.462 651.469C858.096 651.469 856.107 651.053 854.495 650.221C852.883 649.389 851.557 648.284 850.517 646.906L853.325 644.215C854.365 645.463 855.47 646.386 856.64 646.984C857.81 647.556 859.136 647.842 860.618 647.842C862.334 647.842 863.647 647.452 864.557 646.672C865.493 645.892 865.961 644.774 865.961 643.318C865.961 642.148 865.623 641.251 864.947 640.627C864.271 639.977 863.114 639.509 861.476 639.223L858.512 638.755C857.212 638.547 856.12 638.209 855.236 637.741C854.352 637.247 853.637 636.675 853.091 636.025C852.545 635.349 852.142 634.608 851.882 633.802C851.648 632.97 851.531 632.099 851.531 631.189C851.531 628.615 852.363 626.665 854.027 625.339C855.691 623.987 857.979 623.311 860.891 623.311C863.049 623.311 864.882 623.662 866.39 624.364C867.924 625.04 869.159 626.002 870.095 627.25L867.365 629.98C866.611 629.07 865.714 628.342 864.674 627.796C863.66 627.224 862.399 626.938 860.891 626.938C859.279 626.938 858.044 627.289 857.186 627.991C856.354 628.667 855.938 629.668 855.938 630.994C855.938 632.112 856.263 632.996 856.913 633.646C857.589 634.27 858.772 634.725 860.462 635.011L863.348 635.518C865.792 635.96 867.573 636.857 868.691 638.209C869.809 639.535 870.368 641.16 870.368 643.084C870.368 644.332 870.147 645.476 869.705 646.516C869.289 647.556 868.652 648.44 867.794 649.168C866.962 649.896 865.922 650.468 864.674 650.884C863.452 651.274 862.048 651.469 860.462 651.469ZM877.216 630.877L881.467 630.877L881.467 634.309L881.701 634.309C882.299 633.087 883.092 632.138 884.08 631.462C885.068 630.76 886.303 630.409 887.785 630.409C890.151 630.409 892.036 631.293 893.44 633.061C894.844 634.829 895.546 637.455 895.546 640.939C895.546 644.423 894.844 647.049 893.44 648.817C892.036 650.585 890.151 651.469 887.785 651.469C886.303 651.469 885.068 651.131 884.08 650.455C883.092 649.753 882.299 648.791 881.701 647.569L881.467 647.569L881.467 658.801L877.216 658.801L877.216 630.877ZM886.03 647.998C887.642 647.998 888.877 647.504 889.735 646.516C890.619 645.528 891.061 644.215 891.061 642.577L891.061 639.301C891.061 637.663 890.619 636.35 889.735 635.362C888.877 634.374 887.642 633.88 886.03 633.88C885.406 633.88 884.821 633.958 884.275 634.114C883.729 634.27 883.248 634.504 882.832 634.816C882.416 635.128 882.078 635.518 881.818 635.986C881.584 636.428 881.467 636.961 881.467 637.585L881.467 644.293C881.467 644.917 881.584 645.463 881.818 645.931C882.078 646.373 882.416 646.75 882.832 647.062C883.248 647.374 883.729 647.608 884.275 647.764C884.821 647.92 885.406 647.998 886.03 647.998ZM911.404 651.469C909.87 651.469 908.492 651.222 907.27 650.728C906.048 650.234 905.021 649.532 904.189 648.622C903.357 647.712 902.72 646.62 902.278 645.346C901.836 644.046 901.615 642.59 901.615 640.978C901.615 639.366 901.836 637.91 902.278 636.61C902.746 635.31 903.383 634.205 904.189 633.295C905.021 632.359 906.022 631.644 907.192 631.15C908.362 630.656 909.662 630.409 911.092 630.409C912.496 630.409 913.77 630.656 914.914 631.15C916.058 631.618 917.033 632.294 917.839 633.178C918.645 634.062 919.256 635.115 919.672 636.337C920.114 637.559 920.335 638.911 920.335 640.393L920.335 641.992L905.905 641.992L905.905 642.655C905.905 644.241 906.399 645.541 907.387 646.555C908.375 647.543 909.74 648.037 911.482 648.037C912.782 648.037 913.887 647.764 914.797 647.218C915.733 646.646 916.487 645.892 917.059 644.956L919.711 647.296C919.035 648.466 917.995 649.454 916.591 650.26C915.213 651.066 913.484 651.469 911.404 651.469ZM911.092 633.646C910.338 633.646 909.636 633.776 908.986 634.036C908.362 634.296 907.816 634.673 907.348 635.167C906.906 635.635 906.555 636.194 906.295 636.844C906.035 637.494 905.905 638.209 905.905 638.989L905.905 639.262L916.006 639.262L916.006 638.872C916.006 637.286 915.551 636.025 914.641 635.089C913.757 634.127 912.574 633.646 911.092 633.646ZM936.856 651.469C935.348 651.469 933.996 651.222 932.8 650.728C931.63 650.234 930.629 649.532 929.797 648.622C928.991 647.712 928.367 646.607 927.925 645.307C927.509 644.007 927.301 642.551 927.301 640.939C927.301 639.327 927.509 637.871 927.925 636.571C928.367 635.271 928.991 634.166 929.797 633.256C930.629 632.346 931.63 631.644 932.8 631.15C933.996 630.656 935.335 630.409 936.817 630.409C938.897 630.409 940.561 630.851 941.809 631.735C943.083 632.619 944.032 633.763 944.656 635.167L941.341 636.961C940.977 636.025 940.418 635.284 939.664 634.738C938.936 634.192 937.987 633.919 936.817 633.919C935.205 633.919 933.957 634.413 933.073 635.401C932.189 636.363 931.747 637.65 931.747 639.262L931.747 642.616C931.747 644.202 932.189 645.489 933.073 646.477C933.957 647.465 935.231 647.959 936.895 647.959C938.143 647.959 939.157 647.673 939.937 647.101C940.743 646.529 941.38 645.749 941.848 644.761L944.968 646.672C944.318 648.076 943.33 649.233 942.004 650.143C940.678 651.027 938.962 651.469 936.856 651.469ZM962.503 627.211C961.411 627.211 960.644 626.99 960.202 626.548C959.786 626.106 959.578 625.56 959.578 624.91L959.578 624.091C959.578 623.441 959.786 622.895 960.202 622.453C960.644 622.011 961.398 621.79 962.464 621.79C963.556 621.79 964.31 622.011 964.726 622.453C965.168 622.895 965.389 623.441 965.389 624.091L965.389 624.91C965.389 625.56 965.168 626.106 964.726 626.548C964.31 626.99 963.569 627.211 962.503 627.211ZM953.494 647.569L960.358 647.569L960.358 634.309L953.494 634.309L953.494 630.877L964.609 630.877L964.609 647.569L971.044 647.569L971.044 651.001L953.494 651.001L953.494 647.569ZM993.882 651.001C992.66 651.001 991.737 650.689 991.113 650.065C990.515 649.441 990.151 648.622 990.021 647.608L989.826 647.608C989.436 648.83 988.721 649.779 987.681 650.455C986.667 651.131 985.367 651.469 983.781 651.469C981.727 651.469 980.089 650.936 978.867 649.87C977.645 648.778 977.034 647.283 977.034 645.385C977.034 643.435 977.749 641.953 979.179 640.939C980.635 639.899 982.858 639.379 985.848 639.379L989.709 639.379L989.709 637.819C989.709 635.089 988.266 633.724 985.38 633.724C984.08 633.724 983.027 633.984 982.221 634.504C981.415 634.998 980.739 635.661 980.193 636.493L977.658 634.426C978.23 633.334 979.192 632.398 980.544 631.618C981.896 630.812 983.638 630.409 985.77 630.409C988.318 630.409 990.32 631.02 991.776 632.242C993.232 633.464 993.96 635.232 993.96 637.546L993.96 647.647L996.495 647.647L996.495 651.001L993.882 651.001ZM984.99 648.349C986.368 648.349 987.499 648.037 988.383 647.413C989.267 646.789 989.709 645.983 989.709 644.995L989.709 642.07L985.926 642.07C982.858 642.07 981.324 642.993 981.324 644.839L981.324 645.619C981.324 646.529 981.649 647.218 982.299 647.686C982.949 648.128 983.846 648.349 984.99 648.349ZM1002.76 647.569L1009.43 647.569L1009.43 625.573L1002.76 625.573L1002.76 622.141L1013.68 622.141L1013.68 647.569L1020.35 647.569L1020.35 651.001L1002.76 651.001L1002.76 647.569ZM1036.67 651.391C1035.43 651.391 1034.54 651.131 1034.02 650.611C1033.53 650.091 1033.28 649.454 1033.28 648.7L1033.28 647.686C1033.28 646.932 1033.53 646.295 1034.02 645.775C1034.54 645.255 1035.43 644.995 1036.67 644.995C1037.92 644.995 1038.79 645.255 1039.29 645.775C1039.81 646.295 1040.07 646.932 1040.07 647.686L1040.07 648.7C1040.07 649.454 1039.81 650.091 1039.29 650.611C1038.79 651.131 1037.92 651.391 1036.67 651.391Z" fill="white"/>
</svg>
