<svg width="174" height="106" viewBox="0 0 174 106" fill="none" xmlns="http://www.w3.org/2000/svg">
<path d="M117.094 5.56986L114.602 10.3456C114.218 11.082 113.546 11.6262 112.745 11.8485L99.0225 15.6604C95.9852 16.5041 96.1378 20.8614 99.2266 21.4906L112.668 24.2287C113.515 24.4011 114.246 24.93 114.674 25.6799L117.153 30.0185C118.355 32.1216 121.425 32.0069 122.467 29.8199L124.354 25.8571C124.76 25.003 125.546 24.3907 126.474 24.2052L140.039 21.4923C143.143 20.8714 143.294 16.4892 140.24 15.6563L126.388 11.8786C125.511 11.6392 124.789 11.0147 124.426 10.1805L122.505 5.76138C121.499 3.44802 118.261 3.3334 117.094 5.56986Z" fill="white"/>
<path d="M74.708 43.82L77.3144 39.476C78.5053 37.4912 81.4001 37.5456 82.5155 39.5737L84.8602 43.8368C85.2677 44.5776 85.9688 45.1121 86.7912 45.3088L107.795 50.3313C108.258 50.4422 108.742 50.441 109.205 50.3278L129.719 45.3131C130.535 45.1136 131.231 44.5809 131.635 43.8447L133.745 40.0094C134.91 37.8905 137.975 37.9505 139.057 40.1135L140.821 43.6422C141.248 44.4958 142.056 45.0955 142.996 45.2572L158.931 47.9959C162.153 48.5498 162.29 53.1272 159.107 53.8734L142.904 57.6709C142.017 57.8789 141.272 58.4791 140.88 59.302L139.081 63.0804C138.018 65.3128 134.862 65.3729 133.715 63.1826L131.665 59.2688C131.244 58.4663 130.484 57.8968 129.595 57.7191L109.082 53.6164C108.698 53.5395 108.302 53.5387 107.918 53.614L86.9133 57.7235C86.0199 57.8983 85.2542 58.4693 84.8318 59.2757L82.5431 63.6451C81.4431 65.7449 78.4569 65.7997 77.2808 63.7415L74.6482 59.1343C74.2348 58.4109 73.5392 57.892 72.728 57.7019L56.3931 53.8734C53.2095 53.1272 53.3469 48.5498 56.5694 47.9959L72.6437 45.2331C73.5048 45.0851 74.2585 44.5691 74.708 43.82Z" fill="white"/>
<path d="M117.094 5.56986L114.602 10.3456C114.218 11.082 113.546 11.6262 112.745 11.8485L99.0225 15.6604C95.9852 16.5041 96.1378 20.8614 99.2266 21.4906L112.668 24.2287C113.515 24.4011 114.246 24.93 114.674 25.6799L117.153 30.0185C118.355 32.1216 121.425 32.0069 122.467 29.8199L124.354 25.8571C124.76 25.003 125.546 24.3907 126.474 24.2052L140.039 21.4923C143.143 20.8714 143.294 16.4892 140.24 15.6563L126.388 11.8786C125.511 11.6392 124.789 11.0147 124.426 10.1805L122.505 5.76138C121.499 3.44802 118.261 3.3334 117.094 5.56986Z" stroke="black"/>
<path d="M74.708 43.82L77.3144 39.476C78.5053 37.4912 81.4001 37.5456 82.5155 39.5737L84.8602 43.8368C85.2677 44.5776 85.9688 45.1121 86.7912 45.3088L107.795 50.3313C108.258 50.4422 108.742 50.441 109.205 50.3278L129.719 45.3131C130.535 45.1136 131.231 44.5809 131.635 43.8447L133.745 40.0094C134.91 37.8905 137.975 37.9505 139.057 40.1135L140.821 43.6422C141.248 44.4958 142.056 45.0955 142.996 45.2572L158.931 47.9959C162.153 48.5498 162.29 53.1272 159.107 53.8734L142.904 57.6709C142.017 57.8789 141.272 58.4791 140.88 59.302L139.081 63.0804C138.018 65.3128 134.862 65.3729 133.715 63.1826L131.665 59.2688C131.244 58.4663 130.484 57.8968 129.595 57.7191L109.082 53.6164C108.698 53.5395 108.302 53.5387 107.918 53.614L86.9133 57.7235C86.0199 57.8983 85.2542 58.4693 84.8318 59.2757L82.5431 63.6451C81.4431 65.7449 78.4569 65.7997 77.2808 63.7415L74.6482 59.1343C74.2348 58.4109 73.5392 57.892 72.728 57.7019L56.3931 53.8734C53.2095 53.1272 53.3469 48.5498 56.5694 47.9959L72.6437 45.2331C73.5048 45.0851 74.2585 44.5691 74.708 43.82Z" stroke="black"/>
<path d="M32.708 80.82L35.3144 76.476C36.5053 74.4912 39.4001 74.5456 40.5155 76.5737L42.8602 80.8368C43.2677 81.5776 43.9688 82.1121 44.7912 82.3088L65.7945 87.3313C66.2582 87.4422 66.7415 87.441 67.2046 87.3278L87.7192 82.3131C88.5354 82.1136 89.2305 81.5809 89.6354 80.8447L91.7448 77.0094C92.9102 74.8905 95.9753 74.9505 97.0568 77.1135L98.8211 80.6422C99.2479 81.4958 100.056 82.0955 100.996 82.2572L116.931 84.9959C120.153 85.5498 120.29 90.1272 117.107 90.8734L100.904 94.6709C100.017 94.8789 99.2719 95.4791 98.88 96.302L97.0808 100.08C96.0177 102.313 92.862 102.373 91.7147 100.183L89.6646 96.2688C89.2443 95.4663 88.4838 94.8968 87.5955 94.7191L67.0819 90.6164C66.6977 90.5395 66.3021 90.5387 65.9176 90.614L44.9133 94.7235C44.0199 94.8983 43.2542 95.4693 42.8318 96.2757L40.5431 100.645C39.4431 102.745 36.4569 102.8 35.2808 100.741L32.6482 96.1343C32.2348 95.4109 31.5392 94.892 30.728 94.7019L14.3931 90.8734C11.2095 90.1272 11.3469 85.5498 14.5694 84.9959L30.6437 82.2331C31.5048 82.0851 32.2585 81.5691 32.708 80.82Z" fill="white" stroke="black"/>
</svg>
