<svg width="326" height="471" viewBox="0 0 326 471" fill="none" xmlns="http://www.w3.org/2000/svg">
<path d="M12.169 412.468C10.635 412.468 9.25703 412.221 8.03502 411.727C6.83902 411.233 5.81202 410.531 4.95402 409.621C4.12202 408.711 3.47202 407.606 3.00402 406.306C2.56202 405.006 2.34102 403.55 2.34102 401.938C2.34102 400.326 2.56202 398.87 3.00402 397.57C3.47202 396.27 4.12202 395.165 4.95402 394.255C5.81202 393.345 6.83902 392.643 8.03502 392.149C9.25703 391.655 10.635 391.408 12.169 391.408C13.677 391.408 15.042 391.655 16.264 392.149C17.486 392.643 18.513 393.345 19.345 394.255C20.203 395.165 20.853 396.27 21.295 397.57C21.763 398.87 21.997 400.326 21.997 401.938C21.997 403.55 21.763 405.006 21.295 406.306C20.853 407.606 20.203 408.711 19.345 409.621C18.513 410.531 17.486 411.233 16.264 411.727C15.042 412.221 13.677 412.468 12.169 412.468ZM12.169 408.646C13.599 408.646 14.73 408.217 15.562 407.359C16.394 406.475 16.81 405.188 16.81 403.498V400.378C16.81 398.688 16.394 397.414 15.562 396.556C14.73 395.672 13.599 395.23 12.169 395.23C10.739 395.23 9.60802 395.672 8.77603 396.556C7.94403 397.414 7.52803 398.688 7.52803 400.378V403.498C7.52803 405.188 7.94403 406.475 8.77603 407.359C9.60802 408.217 10.739 408.646 12.169 408.646ZM37.3478 412.468C35.8658 412.468 34.5268 412.221 33.3308 411.727C32.1608 411.233 31.1598 410.505 30.3278 409.543C29.4958 408.555 28.8458 407.333 28.3778 405.877C27.9358 404.421 27.7148 402.731 27.7148 400.807C27.7148 397.817 27.9228 395.23 28.3388 393.046C28.7548 390.862 29.4308 389.068 30.3668 387.664C31.3028 386.234 32.5118 385.155 33.9938 384.427C35.5018 383.699 37.3348 383.283 39.4928 383.179L45.5768 382.867V387.469L39.8438 387.742C38.5698 387.794 37.5038 387.989 36.6458 388.327C35.8138 388.665 35.1378 389.172 34.6178 389.848C34.0978 390.524 33.7078 391.395 33.4478 392.461C33.2138 393.501 33.0578 394.775 32.9798 396.283H33.2138C33.6818 394.983 34.3708 393.995 35.2808 393.319C36.2168 392.617 37.3998 392.266 38.8298 392.266C40.0258 392.266 41.1178 392.487 42.1058 392.929C43.1198 393.345 43.9778 393.969 44.6798 394.801C45.4078 395.607 45.9668 396.621 46.3568 397.843C46.7468 399.039 46.9418 400.43 46.9418 402.016C46.9418 403.628 46.7208 405.084 46.2788 406.384C45.8368 407.658 45.1998 408.75 44.3678 409.66C43.5358 410.544 42.5218 411.233 41.3258 411.727C40.1558 412.221 38.8298 412.468 37.3478 412.468ZM37.3478 408.646C38.6738 408.646 39.7398 408.217 40.5458 407.359C41.3518 406.475 41.7548 405.266 41.7548 403.732V400.846C41.7548 399.26 41.3648 398.077 40.5848 397.297C39.8048 396.491 38.7388 396.088 37.3868 396.088C35.9568 396.088 34.8518 396.517 34.0718 397.375C33.3178 398.207 32.9408 399.364 32.9408 400.846V403.537C32.9408 405.201 33.3308 406.475 34.1108 407.359C34.9168 408.217 35.9958 408.646 37.3478 408.646ZM62.9166 412.468C61.3046 412.468 59.8746 412.221 58.6266 411.727C57.3786 411.233 56.3256 410.531 55.4676 409.621C54.6356 408.711 53.9986 407.619 53.5566 406.345C53.1146 405.045 52.8936 403.589 52.8936 401.977C52.8936 400.339 53.1146 398.87 53.5566 397.57C54.0246 396.27 54.6746 395.165 55.5066 394.255C56.3386 393.345 57.3396 392.643 58.5096 392.149C59.7056 391.655 61.0446 391.408 62.5266 391.408C63.9826 391.408 65.2956 391.655 66.4656 392.149C67.6356 392.617 68.6236 393.293 69.4296 394.177C70.2616 395.061 70.8986 396.127 71.3406 397.375C71.7826 398.623 72.0036 400.001 72.0036 401.509V403.147H57.8856V403.654C57.8856 405.11 58.3406 406.293 59.2506 407.203C60.1606 408.087 61.4346 408.529 63.0726 408.529C64.3206 408.529 65.3866 408.282 66.2706 407.788C67.1806 407.268 67.9346 406.592 68.5326 405.76L71.3796 408.607C70.6516 409.673 69.5856 410.583 68.1816 411.337C66.8036 412.091 65.0486 412.468 62.9166 412.468ZM62.5656 395.074C61.1616 395.074 60.0306 395.516 59.1726 396.4C58.3146 397.284 57.8856 398.454 57.8856 399.91V400.183H67.0116V399.832C67.0116 398.376 66.6086 397.219 65.8026 396.361C65.0226 395.503 63.9436 395.074 62.5656 395.074ZM76.4343 408.061H78.7353C79.4373 406.943 79.9963 405.565 80.4123 403.927C80.8543 402.289 81.0753 400.352 81.0753 398.116V391.876H95.2713V408.061H98.4303V417.46H93.9063V412H80.9583V417.46H76.4343V408.061ZM90.3963 408.061V395.815H85.6383V398.272C85.6383 400.43 85.4693 402.315 85.1313 403.927C84.8193 405.539 84.3643 406.917 83.7663 408.061H90.3963ZM113.196 412.468C111.584 412.468 110.154 412.221 108.906 411.727C107.658 411.233 106.605 410.531 105.747 409.621C104.915 408.711 104.278 407.619 103.836 406.345C103.394 405.045 103.173 403.589 103.173 401.977C103.173 400.339 103.394 398.87 103.836 397.57C104.304 396.27 104.954 395.165 105.786 394.255C106.618 393.345 107.619 392.643 108.789 392.149C109.985 391.655 111.324 391.408 112.806 391.408C114.262 391.408 115.575 391.655 116.745 392.149C117.915 392.617 118.903 393.293 119.709 394.177C120.541 395.061 121.178 396.127 121.62 397.375C122.062 398.623 122.283 400.001 122.283 401.509V403.147H108.165V403.654C108.165 405.11 108.62 406.293 109.53 407.203C110.44 408.087 111.714 408.529 113.352 408.529C114.6 408.529 115.666 408.282 116.55 407.788C117.46 407.268 118.214 406.592 118.812 405.76L121.659 408.607C120.931 409.673 119.865 410.583 118.461 411.337C117.083 412.091 115.328 412.468 113.196 412.468ZM112.845 395.074C111.441 395.074 110.31 395.516 109.452 396.4C108.594 397.284 108.165 398.454 108.165 399.91V400.183H117.291V399.832C117.291 398.376 116.888 397.219 116.082 396.361C115.302 395.503 114.223 395.074 112.845 395.074ZM129.132 391.876H134.124V399.793H141.612V391.876H146.604V412H141.612V403.732H134.124V412H129.132V391.876ZM154.272 391.876H159.264V399.793H166.752V391.876H171.744V412H166.752V403.732H159.264V412H154.272V391.876ZM177.89 391.876H182.219V398.038H184.715C185.755 398.038 186.704 398.194 187.562 398.506C188.42 398.818 189.161 399.273 189.785 399.871C190.409 400.443 190.89 401.171 191.228 402.055C191.566 402.913 191.735 403.901 191.735 405.019C191.735 406.137 191.566 407.138 191.228 408.022C190.89 408.88 190.409 409.608 189.785 410.206C189.161 410.778 188.42 411.22 187.562 411.532C186.704 411.844 185.755 412 184.715 412H177.89V391.876ZM184.559 408.451C185.417 408.451 186.093 408.23 186.587 407.788C187.081 407.32 187.328 406.592 187.328 405.604V404.434C187.328 403.446 187.081 402.731 186.587 402.289C186.093 401.821 185.417 401.587 184.559 401.587H182.219V408.451H184.559ZM194.036 391.876H198.365V412H194.036V391.876ZM204.551 391.876H209.426V399.481L208.997 405.175H209.231L217.343 391.876H222.023V412H217.148V404.395L217.577 398.701H217.343L209.231 412H204.551V391.876ZM213.287 389.497C210.219 389.497 208.113 388.093 206.969 385.285L206.072 383.101L210.089 381.658L211.415 385.831C211.623 385.909 211.896 385.974 212.234 386.026C212.598 386.078 212.949 386.104 213.287 386.104C213.625 386.104 213.963 386.078 214.301 386.026C214.665 385.974 214.951 385.909 215.159 385.831L216.485 381.658L220.502 383.101L219.605 385.285C218.461 388.093 216.355 389.497 213.287 389.497ZM263.177 412.468C261.045 412.468 259.199 412.156 257.639 411.532C256.105 410.882 254.883 409.933 253.973 408.685L256.976 405.955C257.73 406.865 258.575 407.541 259.511 407.983C260.473 408.425 261.643 408.646 263.021 408.646C264.503 408.646 265.582 408.412 266.258 407.944C266.934 407.476 267.272 406.852 267.272 406.072V405.76C267.272 404.304 266.388 403.576 264.62 403.576H259.667V400.105H264.113C265.075 400.105 265.777 399.91 266.219 399.52C266.661 399.13 266.882 398.584 266.882 397.882V397.609C266.882 396.933 266.57 396.374 265.946 395.932C265.322 395.464 264.321 395.23 262.943 395.23C261.669 395.23 260.59 395.438 259.706 395.854C258.822 396.27 258.042 396.894 257.366 397.726L254.441 395.191C255.455 393.995 256.664 393.072 258.068 392.422C259.472 391.746 261.253 391.408 263.411 391.408C266.167 391.408 268.273 391.915 269.729 392.929C271.211 393.943 271.952 395.282 271.952 396.946C271.952 398.142 271.588 399.117 270.86 399.871C270.132 400.625 269.157 401.119 267.935 401.353V401.548C269.261 401.756 270.327 402.276 271.133 403.108C271.939 403.914 272.342 404.98 272.342 406.306C272.342 408.178 271.536 409.673 269.924 410.791C268.338 411.909 266.089 412.468 263.177 412.468ZM296.116 412C294.894 412 293.945 411.701 293.269 411.103C292.619 410.479 292.229 409.621 292.099 408.529H291.904C291.54 409.777 290.825 410.752 289.759 411.454C288.693 412.13 287.38 412.468 285.82 412.468C283.792 412.468 282.18 411.935 280.984 410.869C279.788 409.803 279.19 408.321 279.19 406.423C279.19 402.367 282.167 400.339 288.121 400.339H291.67V399.013C291.67 397.739 291.358 396.777 290.734 396.127C290.11 395.477 289.096 395.152 287.692 395.152C286.418 395.152 285.391 395.399 284.611 395.893C283.831 396.387 283.168 397.024 282.622 397.804L279.775 395.386C280.399 394.268 281.4 393.332 282.778 392.578C284.182 391.798 285.989 391.408 288.199 391.408C290.851 391.408 292.918 392.032 294.4 393.28C295.908 394.502 296.662 396.335 296.662 398.779V408.256H299.041V412H296.116ZM287.497 409.036C288.693 409.036 289.681 408.763 290.461 408.217C291.267 407.645 291.67 406.878 291.67 405.916V403.225H288.238C285.508 403.225 284.143 404.083 284.143 405.799V406.579C284.143 407.385 284.442 407.996 285.04 408.412C285.638 408.828 286.457 409.036 287.497 409.036ZM303.043 408.061H305.695C306.007 407.671 306.28 407.203 306.514 406.657C306.774 406.111 306.982 405.461 307.138 404.707C307.32 403.953 307.45 403.069 307.528 402.055C307.632 401.041 307.684 399.871 307.684 398.545V391.876H322.465V412H317.473V395.815H312.247V398.662C312.247 400.456 312.169 402.003 312.013 403.303C311.883 404.603 311.688 405.721 311.428 406.657C311.194 407.567 310.908 408.321 310.57 408.919C310.258 409.491 309.92 409.972 309.556 410.362C308.906 411.038 308.165 411.506 307.333 411.766C306.501 412.026 305.565 412.156 304.525 412.156H303.043V408.061Z" fill="white"/>
<path fill-rule="evenodd" clip-rule="evenodd" d="M257.375 23.6457C250.809 -5.30883 210.268 -5.22944 204.454 23.9713L204.453 23.978L178.075 139.718C177.914 140.424 177.977 141.163 178.253 141.833L204.254 204.711C204.379 205.014 204.443 205.338 204.443 205.666V322.603C204.443 331.396 207.75 338.091 212.735 342.6C217.712 347.102 224.335 349.402 230.946 349.469C237.556 349.535 244.183 347.369 249.165 342.897C254.154 338.417 257.458 331.654 257.458 322.603V24.3964C257.458 24.1473 257.43 23.8913 257.375 23.6457ZM205.434 24.173C211.021 -3.92232 250.06 -4.09025 256.399 23.8668C256.438 24.0371 256.458 24.2188 256.458 24.3964V322.603C256.458 331.391 253.259 337.877 248.496 342.153C243.725 346.437 237.349 348.533 230.956 348.469C224.562 348.404 218.182 346.179 213.406 341.859C208.639 337.547 205.443 331.125 205.443 322.603V205.666C205.443 205.207 205.353 204.753 205.178 204.329L179.178 141.451C178.98 140.972 178.935 140.445 179.05 139.94L205.431 24.1866L205.431 24.1867L205.434 24.173ZM70 5.68499C70 5.40884 69.7761 5.18499 69.5 5.18499C69.2239 5.18499 69 5.40884 69 5.68499V101.378C69 102.027 69.1807 102.664 69.5219 103.217L95.8399 145.842C96.0836 146.237 96.2127 146.692 96.2127 147.156V322.603C96.2127 331.396 99.5192 338.091 104.505 342.6C109.481 347.102 116.105 349.402 122.715 349.469C129.325 349.535 135.953 347.369 140.934 342.897C145.924 338.417 149.227 331.654 149.227 322.603V194.666C149.227 194.39 149.003 194.166 148.727 194.166C148.451 194.166 148.227 194.39 148.227 194.666V322.603C148.227 331.391 145.029 337.877 140.266 342.153C135.494 346.437 129.118 348.533 122.725 348.469C116.331 348.404 109.951 346.179 105.175 341.859C100.408 337.547 97.2127 331.125 97.2127 322.603V147.156C97.2127 146.506 97.032 145.869 96.6908 145.317L70.3728 102.691C70.1291 102.297 70 101.842 70 101.378V5.68499ZM115.042 5.68499C115.042 5.40884 114.818 5.18499 114.542 5.18499C114.266 5.18499 114.042 5.40884 114.042 5.68499V102.229C114.042 102.506 114.266 102.729 114.542 102.729C114.818 102.729 115.042 102.506 115.042 102.229V5.68499ZM149.618 5.68499C149.618 5.40884 149.394 5.18499 149.118 5.18499C148.842 5.18499 148.618 5.40884 148.618 5.68499V102.229C148.618 102.506 148.842 102.729 149.118 102.729C149.394 102.729 149.618 102.506 149.618 102.229V5.68499ZM146.992 172.219C147.544 172.219 147.992 171.771 147.992 171.219C147.992 170.666 147.544 170.219 146.992 170.219C146.44 170.219 145.992 170.666 145.992 171.219C145.992 171.771 146.44 172.219 146.992 172.219Z" fill="white"/>
<path d="M204.454 23.9713L206.416 24.362L206.416 24.3618L204.454 23.9713ZM257.375 23.6457L259.325 23.2034L259.325 23.2034L257.375 23.6457ZM204.453 23.978L206.403 24.4224L206.409 24.3956L206.414 24.3687L204.453 23.978ZM178.075 139.718L180.025 140.162L178.075 139.718ZM178.253 141.833L176.405 142.597L176.405 142.597L178.253 141.833ZM204.254 204.711L202.405 205.475L204.254 204.711ZM212.735 342.6L211.394 344.084L212.735 342.6ZM230.946 349.469L230.925 351.469L230.946 349.469ZM249.165 342.897L250.501 344.385H250.501L249.165 342.897ZM256.399 23.8668L254.449 24.309L254.449 24.3092L256.399 23.8668ZM205.434 24.173L203.472 23.7829L203.472 23.784L205.434 24.173ZM248.496 342.153L249.833 343.641H249.833L248.496 342.153ZM230.956 348.469L230.976 346.469H230.976L230.956 348.469ZM213.406 341.859L214.748 340.376L213.406 341.859ZM205.178 204.329L203.33 205.093L203.33 205.093L205.178 204.329ZM179.178 141.451L181.026 140.687L179.178 141.451ZM179.05 139.94L177.1 139.496L177.1 139.496L179.05 139.94ZM205.431 24.1866L205.845 22.2299L203.918 21.8224L203.481 23.7422L205.431 24.1866ZM205.431 24.1867L205.017 26.1434L206.999 26.5626L207.393 24.5757L205.431 24.1867ZM69.5219 103.217L71.2237 102.166H71.2237L69.5219 103.217ZM95.8399 145.842L97.5417 144.791H97.5417L95.8399 145.842ZM104.505 342.6L103.163 344.084H103.163L104.505 342.6ZM122.715 349.469L122.695 351.469H122.695L122.715 349.469ZM140.934 342.897L139.598 341.409L140.934 342.897ZM140.266 342.153L141.602 343.641L140.266 342.153ZM122.725 348.469L122.745 346.469H122.745L122.725 348.469ZM105.175 341.859L106.517 340.376L105.175 341.859ZM96.6908 145.317L94.989 146.368L94.989 146.368L96.6908 145.317ZM70.3728 102.691L68.671 103.742H68.671L70.3728 102.691ZM206.416 24.3618C211.786 -2.61011 249.311 -2.87246 255.424 24.0879L259.325 23.2034C252.308 -7.74519 208.75 -7.84876 202.493 23.5807L206.416 24.3618ZM206.414 24.3687L206.416 24.362L202.493 23.5805L202.492 23.5873L206.414 24.3687ZM180.025 140.162L206.403 24.4224L202.503 23.5336L176.125 139.273L180.025 140.162ZM180.102 141.069C179.983 140.782 179.956 140.465 180.025 140.162L176.125 139.273C175.872 140.384 175.97 141.545 176.405 142.597L180.102 141.069ZM206.102 203.946L180.102 141.069L176.405 142.597L202.405 205.475L206.102 203.946ZM206.443 205.666C206.443 205.076 206.327 204.492 206.102 203.946L202.405 205.475C202.43 205.535 202.443 205.6 202.443 205.666H206.443ZM206.443 322.603V205.666H202.443V322.603H206.443ZM214.077 341.117C209.528 337.002 206.443 330.854 206.443 322.603H202.443C202.443 331.938 205.972 339.18 211.394 344.084L214.077 341.117ZM230.966 347.469C224.789 347.407 218.652 345.255 214.077 341.117L211.394 344.084C216.772 348.949 223.882 351.398 230.925 351.469L230.966 347.469ZM247.828 341.409C243.266 345.505 237.142 347.531 230.966 347.469L230.925 351.469C237.969 351.54 245.101 349.233 250.501 344.385L247.828 341.409ZM255.458 322.603C255.458 331.129 252.364 337.336 247.828 341.409L250.501 344.385C255.944 339.498 259.458 332.178 259.458 322.603H255.458ZM255.458 24.3964V322.603H259.458V24.3964H255.458ZM255.424 24.0879C255.446 24.1829 255.458 24.2904 255.458 24.3964H259.458C259.458 24.0043 259.415 23.5997 259.325 23.2034L255.424 24.0879ZM258.35 23.4245C251.556 -6.53721 209.501 -6.53116 203.472 23.7829L207.395 24.5632C212.542 -1.31348 248.564 -1.64329 254.449 24.309L258.35 23.4245ZM258.458 24.3964C258.458 24.0759 258.423 23.7455 258.35 23.4244L254.449 24.3092C254.453 24.3287 254.458 24.3618 254.458 24.3964H258.458ZM258.458 322.603V24.3964H254.458V322.603H258.458ZM249.833 343.641C255.049 338.957 258.458 331.916 258.458 322.603H254.458C254.458 330.867 251.469 336.796 247.16 340.665L249.833 343.641ZM230.935 350.469C237.763 350.538 244.642 348.301 249.833 343.641L247.16 340.665C242.807 344.573 236.935 346.529 230.976 346.469L230.935 350.469ZM212.064 343.342C217.242 348.025 224.109 350.4 230.935 350.469L230.976 346.469C225.016 346.409 219.122 344.332 214.748 340.376L212.064 343.342ZM203.443 322.603C203.443 331.667 206.861 338.636 212.064 343.342L214.748 340.376C210.416 336.458 207.443 330.582 207.443 322.603H203.443ZM203.443 205.666V322.603H207.443V205.666H203.443ZM203.33 205.093C203.405 205.275 203.443 205.469 203.443 205.666H207.443C207.443 204.945 207.302 204.231 207.026 203.564L203.33 205.093ZM177.329 142.215L203.33 205.093L207.026 203.564L181.026 140.687L177.329 142.215ZM177.1 139.496C176.893 140.404 176.973 141.354 177.329 142.215L181.026 140.687C180.986 140.591 180.977 140.485 181 140.384L177.1 139.496ZM203.481 23.7422L177.1 139.496L181 140.384L207.381 24.631L203.481 23.7422ZM205.845 22.23L205.845 22.2299L205.017 26.1433L205.017 26.1434L205.845 22.23ZM203.472 23.784L203.469 23.7976L207.393 24.5757L207.396 24.5621L203.472 23.784ZM69.5 7.18499C68.6716 7.18499 68 6.51341 68 5.68499H72C72 4.30427 70.8807 3.18499 69.5 3.18499V7.18499ZM71 5.68499C71 6.51341 70.3284 7.18499 69.5 7.18499V3.18499C68.1193 3.18499 67 4.30427 67 5.68499H71ZM71 101.378V5.68499H67V101.378H71ZM71.2237 102.166C71.0774 101.929 71 101.656 71 101.378H67C67 102.399 67.284 103.399 67.8201 104.267L71.2237 102.166ZM97.5417 144.791L71.2237 102.166L67.8201 104.267L94.1381 146.893L97.5417 144.791ZM98.2127 147.156C98.2127 146.321 97.9803 145.502 97.5417 144.791L94.1381 146.893C94.1869 146.972 94.2127 147.063 94.2127 147.156H98.2127ZM98.2127 322.603V147.156H94.2127V322.603H98.2127ZM105.846 341.117C101.297 337.002 98.2127 330.854 98.2127 322.603H94.2127C94.2127 331.938 97.7415 339.18 103.163 344.084L105.846 341.117ZM122.735 347.469C116.558 347.407 110.421 345.255 105.846 341.117L103.163 344.084C108.541 348.949 115.651 351.398 122.695 351.469L122.735 347.469ZM139.598 341.409C135.036 345.505 128.912 347.531 122.735 347.469L122.695 351.469C129.739 351.54 136.87 349.233 142.27 344.385L139.598 341.409ZM147.227 322.603C147.227 331.129 144.134 337.336 139.598 341.409L142.27 344.385C147.714 339.498 151.227 332.178 151.227 322.603H147.227ZM147.227 194.666V322.603H151.227V194.666H147.227ZM148.727 196.166C147.899 196.166 147.227 195.494 147.227 194.666H151.227C151.227 193.285 150.108 192.166 148.727 192.166V196.166ZM150.227 194.666C150.227 195.494 149.555 196.166 148.727 196.166V192.166C147.346 192.166 146.227 193.285 146.227 194.666H150.227ZM150.227 322.603V194.666H146.227V322.603H150.227ZM141.602 343.641C146.819 338.957 150.227 331.916 150.227 322.603H146.227C146.227 330.867 143.239 336.796 138.93 340.665L141.602 343.641ZM122.705 350.469C129.532 350.538 136.411 348.301 141.602 343.641L138.93 340.665C134.577 344.573 128.705 346.529 122.745 346.469L122.705 350.469ZM103.834 343.342C109.011 348.025 115.878 350.4 122.705 350.469L122.745 346.469C116.785 346.409 110.891 344.332 106.517 340.376L103.834 343.342ZM95.2127 322.603C95.2127 331.667 98.6304 338.636 103.834 343.342L106.517 340.376C102.186 336.458 99.2127 330.582 99.2127 322.603H95.2127ZM95.2127 147.156V322.603H99.2127V147.156H95.2127ZM94.989 146.368C95.1352 146.604 95.2127 146.877 95.2127 147.156H99.2127C99.2127 146.135 98.9287 145.135 98.3925 144.266L94.989 146.368ZM68.671 103.742L94.989 146.368L98.3925 144.266L72.0746 101.641L68.671 103.742ZM68 101.378C68 102.213 68.2323 103.032 68.671 103.742L72.0746 101.641C72.0258 101.562 72 101.471 72 101.378H68ZM68 5.68499V101.378H72V5.68499H68ZM114.542 7.18499C113.713 7.18499 113.042 6.51341 113.042 5.68499H117.042C117.042 4.30427 115.922 3.18499 114.542 3.18499V7.18499ZM116.042 5.68499C116.042 6.51341 115.37 7.18499 114.542 7.18499V3.18499C113.161 3.18499 112.042 4.30427 112.042 5.68499H116.042ZM116.042 102.229V5.68499H112.042V102.229H116.042ZM114.542 100.729C115.37 100.729 116.042 101.401 116.042 102.229H112.042C112.042 103.61 113.161 104.729 114.542 104.729V100.729ZM113.042 102.229C113.042 101.401 113.713 100.729 114.542 100.729V104.729C115.922 104.729 117.042 103.61 117.042 102.229H113.042ZM113.042 5.68499V102.229H117.042V5.68499H113.042ZM149.118 7.18499C148.29 7.18499 147.618 6.51342 147.618 5.68499H151.618C151.618 4.30426 150.499 3.18499 149.118 3.18499V7.18499ZM150.618 5.68499C150.618 6.5134 149.947 7.18499 149.118 7.18499V3.18499C147.738 3.18499 146.618 4.30428 146.618 5.68499H150.618ZM150.618 102.229V5.68499H146.618V102.229H150.618ZM149.118 100.729C149.947 100.729 150.618 101.401 150.618 102.229H146.618C146.618 103.61 147.738 104.729 149.118 104.729V100.729ZM147.618 102.229C147.618 101.401 148.29 100.729 149.118 100.729V104.729C150.499 104.729 151.618 103.61 151.618 102.229H147.618ZM147.618 5.68499V102.229H151.618V5.68499H147.618ZM145.992 171.219C145.992 170.666 146.44 170.219 146.992 170.219V174.219C148.649 174.219 149.992 172.876 149.992 171.219H145.992ZM146.992 172.219C146.44 172.219 145.992 171.771 145.992 171.219H149.992C149.992 169.562 148.649 168.219 146.992 168.219V172.219ZM147.992 171.219C147.992 171.771 147.544 172.219 146.992 172.219V168.219C145.335 168.219 143.992 169.562 143.992 171.219H147.992ZM146.992 170.219C147.544 170.219 147.992 170.666 147.992 171.219H143.992C143.992 172.876 145.335 174.219 146.992 174.219V170.219Z" fill="white"/>
</svg>
