<svg width="257" height="471" viewBox="0 0 257 471" fill="none" xmlns="http://www.w3.org/2000/svg">
<path d="M42.0094 391.876H47.0014V395.425H47.2744C47.8204 394.203 48.5614 393.228 49.4974 392.5C50.4594 391.772 51.7204 391.408 53.2804 391.408C54.4244 391.408 55.4644 391.629 56.4004 392.071C57.3624 392.487 58.1814 393.137 58.8574 394.021C59.5334 394.879 60.0534 395.971 60.4174 397.297C60.7814 398.623 60.9634 400.17 60.9634 401.938C60.9634 403.706 60.7814 405.253 60.4174 406.579C60.0534 407.905 59.5334 409.01 58.8574 409.894C58.1814 410.752 57.3624 411.402 56.4004 411.844C55.4644 412.26 54.4244 412.468 53.2804 412.468C51.7204 412.468 50.4594 412.104 49.4974 411.376C48.5614 410.648 47.8204 409.673 47.2744 408.451H47.0014V419.8H42.0094V391.876ZM51.1744 408.49C52.6304 408.49 53.7484 408.048 54.5284 407.164C55.3344 406.28 55.7374 405.071 55.7374 403.537V400.339C55.7374 398.805 55.3344 397.596 54.5284 396.712C53.7484 395.828 52.6304 395.386 51.1744 395.386C50.0304 395.386 49.0424 395.672 48.2104 396.244C47.4044 396.79 47.0014 397.635 47.0014 398.779V405.097C47.0014 406.241 47.4044 407.099 48.2104 407.671C49.0424 408.217 50.0304 408.49 51.1744 408.49ZM76.6262 412.468C75.0142 412.468 73.5842 412.221 72.3362 411.727C71.0882 411.233 70.0352 410.531 69.1772 409.621C68.3452 408.711 67.7082 407.619 67.2662 406.345C66.8242 405.045 66.6032 403.589 66.6032 401.977C66.6032 400.339 66.8242 398.87 67.2662 397.57C67.7342 396.27 68.3842 395.165 69.2162 394.255C70.0482 393.345 71.0492 392.643 72.2192 392.149C73.4152 391.655 74.7542 391.408 76.2362 391.408C77.6922 391.408 79.0052 391.655 80.1752 392.149C81.3452 392.617 82.3332 393.293 83.1392 394.177C83.9712 395.061 84.6082 396.127 85.0502 397.375C85.4922 398.623 85.7132 400.001 85.7132 401.509V403.147H71.5952V403.654C71.5952 405.11 72.0502 406.293 72.9602 407.203C73.8702 408.087 75.1442 408.529 76.7822 408.529C78.0302 408.529 79.0962 408.282 79.9802 407.788C80.8902 407.268 81.6442 406.592 82.2422 405.76L85.0892 408.607C84.3612 409.673 83.2952 410.583 81.8912 411.337C80.5132 412.091 78.7582 412.468 76.6262 412.468ZM76.2752 395.074C74.8712 395.074 73.7402 395.516 72.8822 396.4C72.0242 397.284 71.5952 398.454 71.5952 399.91V400.183H80.7212V399.832C80.7212 398.376 80.3182 397.219 79.5122 396.361C78.7322 395.503 77.6532 395.074 76.2752 395.074ZM102.078 412.468C100.544 412.468 99.166 412.221 97.944 411.727C96.722 411.233 95.682 410.531 94.824 409.621C93.992 408.711 93.342 407.606 92.874 406.306C92.432 405.006 92.211 403.55 92.211 401.938C92.211 400.326 92.432 398.87 92.874 397.57C93.342 396.27 93.992 395.165 94.824 394.255C95.682 393.345 96.709 392.643 97.905 392.149C99.127 391.655 100.505 391.408 102.039 391.408C104.171 391.408 105.887 391.85 107.187 392.734C108.487 393.618 109.475 394.788 110.151 396.244L106.29 398.35C105.926 397.492 105.406 396.803 104.73 396.283C104.08 395.737 103.183 395.464 102.039 395.464C100.557 395.464 99.413 395.893 98.607 396.751C97.827 397.609 97.437 398.779 97.437 400.261V403.615C97.437 405.071 97.827 406.241 98.607 407.125C99.413 407.983 100.583 408.412 102.117 408.412C103.313 408.412 104.262 408.139 104.964 407.593C105.692 407.047 106.277 406.319 106.719 405.409L110.463 407.632C109.787 409.062 108.76 410.232 107.382 411.142C106.03 412.026 104.262 412.468 102.078 412.468ZM126.906 412.468C125.294 412.468 123.864 412.221 122.616 411.727C121.368 411.233 120.315 410.531 119.457 409.621C118.625 408.711 117.988 407.619 117.546 406.345C117.104 405.045 116.883 403.589 116.883 401.977C116.883 400.339 117.104 398.87 117.546 397.57C118.014 396.27 118.664 395.165 119.496 394.255C120.328 393.345 121.329 392.643 122.499 392.149C123.695 391.655 125.034 391.408 126.516 391.408C127.972 391.408 129.285 391.655 130.455 392.149C131.625 392.617 132.613 393.293 133.419 394.177C134.251 395.061 134.888 396.127 135.33 397.375C135.772 398.623 135.993 400.001 135.993 401.509V403.147H121.875V403.654C121.875 405.11 122.33 406.293 123.24 407.203C124.15 408.087 125.424 408.529 127.062 408.529C128.31 408.529 129.376 408.282 130.26 407.788C131.17 407.268 131.924 406.592 132.522 405.76L135.369 408.607C134.641 409.673 133.575 410.583 132.171 411.337C130.793 412.091 129.038 412.468 126.906 412.468ZM126.555 395.074C125.151 395.074 124.02 395.516 123.162 396.4C122.304 397.284 121.875 398.454 121.875 399.91V400.183H131.001V399.832C131.001 398.376 130.598 397.219 129.792 396.361C129.012 395.503 127.933 395.074 126.555 395.074ZM142.841 391.876H160.313V412H155.321V395.815H147.833V412H142.841V391.876ZM166.46 391.876H170.594V408.256H174.65V391.876H178.784V408.256H182.84V391.876H186.974V412H166.46V391.876ZM202.325 412.468C200.713 412.468 199.283 412.221 198.035 411.727C196.787 411.233 195.734 410.531 194.876 409.621C194.044 408.711 193.407 407.619 192.965 406.345C192.523 405.045 192.302 403.589 192.302 401.977C192.302 400.339 192.523 398.87 192.965 397.57C193.433 396.27 194.083 395.165 194.915 394.255C195.747 393.345 196.748 392.643 197.918 392.149C199.114 391.655 200.453 391.408 201.935 391.408C203.391 391.408 204.704 391.655 205.874 392.149C207.044 392.617 208.032 393.293 208.838 394.177C209.67 395.061 210.307 396.127 210.749 397.375C211.191 398.623 211.412 400.001 211.412 401.509V403.147H197.294V403.654C197.294 405.11 197.749 406.293 198.659 407.203C199.569 408.087 200.843 408.529 202.481 408.529C203.729 408.529 204.795 408.282 205.679 407.788C206.589 407.268 207.343 406.592 207.941 405.76L210.788 408.607C210.06 409.673 208.994 410.583 207.59 411.337C206.212 412.091 204.457 412.468 202.325 412.468ZM201.974 395.074C200.57 395.074 199.439 395.516 198.581 396.4C197.723 397.284 197.294 398.454 197.294 399.91V400.183H206.42V399.832C206.42 398.376 206.017 397.219 205.211 396.361C204.431 395.503 203.352 395.074 201.974 395.074ZM218.261 391.876H223.253V399.793H230.741V391.876H235.733V412H230.741V403.732H223.253V412H218.261V391.876Z" fill="white"/>
<path fill-rule="evenodd" clip-rule="evenodd" d="M55.1828 5.5C55.1828 4.11929 56.3021 3 57.6828 3H221.277C222.658 3 223.777 4.11929 223.777 5.5V334.938C223.777 336.318 222.658 337.438 221.277 337.438H57.6828C56.3021 337.438 55.1828 336.318 55.1828 334.938V284.573C55.1828 284.297 54.959 284.073 54.6828 284.073C54.4067 284.073 54.1828 284.297 54.1828 284.573V334.938C54.1828 336.871 55.7498 338.438 57.6828 338.438H221.277C223.21 338.438 224.777 336.871 224.777 334.938V5.5C224.777 3.567 223.21 2 221.277 2H57.6828C55.7498 2 54.1828 3.567 54.1828 5.5V55.8651C54.1828 56.1412 54.4067 56.3651 54.6828 56.3651C54.959 56.3651 55.1828 56.1412 55.1828 55.8651V5.5ZM55.022 128.684C54.8191 128.497 54.5027 128.509 54.3154 128.712C54.1281 128.915 54.1408 129.232 54.3437 129.419L101.673 173.107H2.5C2.22386 173.107 2 173.331 2 173.607C2 173.883 2.22386 174.107 2.5 174.107H101.636L54.3508 216.095C54.1444 216.278 54.1256 216.594 54.309 216.801C54.4923 217.007 54.8083 217.026 55.0148 216.843L103.284 173.981L103.697 173.614L103.291 173.24L55.022 128.684ZM55.4062 81.1016C55.9585 81.1016 56.4062 80.6538 56.4062 80.1016C56.4062 79.5493 55.9585 79.1016 55.4062 79.1016C54.854 79.1016 54.4062 79.5493 54.4062 80.1016C54.4062 80.6538 54.854 81.1016 55.4062 81.1016Z" fill="white"/>
<path d="M54.3154 128.712L52.8458 127.356L52.8458 127.356L54.3154 128.712ZM55.022 128.684L56.3785 127.215L56.3785 127.214L55.022 128.684ZM54.3437 129.419L52.9871 130.889L52.9871 130.889L54.3437 129.419ZM101.673 173.107V175.107H106.788L103.03 171.638L101.673 173.107ZM101.636 174.107L102.964 175.603L106.9 172.107H101.636V174.107ZM54.3508 216.095L55.6788 217.59L55.6788 217.59L54.3508 216.095ZM55.0148 216.843L56.3428 218.338L56.3428 218.338L55.0148 216.843ZM103.284 173.981L104.612 175.477L104.612 175.477L103.284 173.981ZM103.697 173.614L105.025 175.11L106.677 173.643L105.053 172.145L103.697 173.614ZM103.291 173.24L104.648 171.77L103.291 173.24ZM57.6828 1C55.1976 1 53.1828 3.01471 53.1828 5.5H57.1828C57.1828 5.22386 57.4067 5 57.6828 5V1ZM221.277 1H57.6828V5H221.277V1ZM225.777 5.5C225.777 3.01472 223.762 1 221.277 1V5C221.553 5 221.777 5.22386 221.777 5.5H225.777ZM225.777 334.938V5.5H221.777V334.938H225.777ZM221.277 339.438C223.762 339.438 225.777 337.423 225.777 334.938H221.777C221.777 335.214 221.553 335.438 221.277 335.438V339.438ZM57.6828 339.438H221.277V335.438H57.6828V339.438ZM53.1828 334.938C53.1828 337.423 55.1976 339.438 57.6828 339.438V335.438C57.4067 335.438 57.1828 335.214 57.1828 334.938H53.1828ZM53.1828 284.573V334.938H57.1828V284.573H53.1828ZM54.6828 286.073C53.8544 286.073 53.1828 285.401 53.1828 284.573H57.1828C57.1828 283.192 56.0635 282.073 54.6828 282.073V286.073ZM56.1828 284.573C56.1828 285.401 55.5112 286.073 54.6828 286.073V282.073C53.3022 282.073 52.1828 283.192 52.1828 284.573H56.1828ZM56.1828 334.938V284.573H52.1828V334.938H56.1828ZM57.6828 336.438C56.8544 336.438 56.1828 335.766 56.1828 334.938H52.1828C52.1828 337.975 54.6453 340.438 57.6828 340.438V336.438ZM221.277 336.438H57.6828V340.438H221.277V336.438ZM222.777 334.938C222.777 335.766 222.105 336.438 221.277 336.438V340.438C224.315 340.438 226.777 337.975 226.777 334.938H222.777ZM222.777 5.5V334.938H226.777V5.5H222.777ZM221.277 4C222.105 4 222.777 4.67157 222.777 5.5H226.777C226.777 2.46243 224.315 0 221.277 0V4ZM57.6828 4H221.277V0H57.6828V4ZM56.1828 5.5C56.1828 4.67157 56.8544 4 57.6828 4V0C54.6453 0 52.1828 2.46243 52.1828 5.5H56.1828ZM56.1828 55.8651V5.5H52.1828V55.8651H56.1828ZM54.6828 54.3651C55.5113 54.3651 56.1828 55.0367 56.1828 55.8651H52.1828C52.1828 57.2458 53.3021 58.3651 54.6828 58.3651V54.3651ZM53.1828 55.8651C53.1828 55.0367 53.8544 54.3651 54.6828 54.3651V58.3651C56.0635 58.3651 57.1828 57.2458 57.1828 55.8651H53.1828ZM53.1828 5.5V55.8651H57.1828V5.5H53.1828ZM55.785 130.069C55.2231 130.678 54.2742 130.716 53.6654 130.154L56.3785 127.214C55.364 126.278 53.7823 126.341 52.8458 127.356L55.785 130.069ZM55.7003 127.949C56.309 128.511 56.3469 129.46 55.7851 130.069L52.8458 127.356C51.9093 128.37 51.9726 129.952 52.9871 130.889L55.7003 127.949ZM103.03 171.638L55.7002 127.949L52.9871 130.889L100.317 174.577L103.03 171.638ZM2.5 175.107H101.673V171.107H2.5V175.107ZM4 173.607C4 174.436 3.32844 175.107 2.5 175.107V171.107C1.11928 171.107 0 172.226 0 173.607H4ZM2.5 172.107C3.3284 172.107 4 172.779 4 173.607H0C0 174.988 1.11932 176.107 2.5 176.107V172.107ZM101.636 172.107H2.5V176.107H101.636V172.107ZM55.6788 217.59L102.964 175.603L100.308 172.612L53.0229 214.599L55.6788 217.59ZM55.8044 215.473C56.3545 216.092 56.2983 217.04 55.6788 217.59L53.0229 214.599C51.9905 215.516 51.8967 217.096 52.8135 218.129L55.8044 215.473ZM53.6869 215.347C54.3063 214.797 55.2544 214.853 55.8044 215.473L52.8135 218.129C53.7302 219.161 55.3103 219.255 56.3428 218.338L53.6869 215.347ZM101.956 172.486L53.6869 215.347L56.3428 218.338L104.612 175.477L101.956 172.486ZM102.369 172.119L101.956 172.486L104.612 175.477L105.025 175.11L102.369 172.119ZM101.935 174.709L102.34 175.084L105.053 172.145L104.648 171.77L101.935 174.709ZM53.6654 130.154L101.935 174.709L104.648 171.77L56.3785 127.215L53.6654 130.154ZM54.4062 80.1016C54.4062 79.5493 54.854 79.1016 55.4062 79.1016V83.1016C57.0631 83.1016 58.4062 81.7584 58.4062 80.1016H54.4062ZM55.4062 81.1016C54.854 81.1016 54.4062 80.6538 54.4062 80.1016H58.4062C58.4062 78.4447 57.0631 77.1016 55.4062 77.1016V81.1016ZM56.4062 80.1016C56.4062 80.6538 55.9585 81.1016 55.4062 81.1016V77.1016C53.7494 77.1016 52.4062 78.4447 52.4062 80.1016H56.4062ZM55.4062 79.1016C55.9585 79.1016 56.4062 79.5493 56.4062 80.1016H52.4062C52.4062 81.7584 53.7494 83.1016 55.4062 83.1016V79.1016Z" fill="white"/>
</svg>
