<svg width="337" height="471" viewBox="0 0 337 471" fill="none" xmlns="http://www.w3.org/2000/svg">
<path d="M119.493 408.061H122.145C122.457 407.671 122.73 407.203 122.964 406.657C123.224 406.111 123.432 405.461 123.588 404.707C123.77 403.953 123.9 403.069 123.978 402.055C124.082 401.041 124.134 399.871 124.134 398.545V391.876H138.915V412H133.923V395.815H128.697V398.662C128.697 400.456 128.619 402.003 128.463 403.303C128.333 404.603 128.138 405.721 127.878 406.657C127.644 407.567 127.358 408.321 127.02 408.919C126.708 409.491 126.37 409.972 126.006 410.362C125.356 411.038 124.615 411.506 123.783 411.766C122.951 412.026 122.015 412.156 120.975 412.156H119.493V408.061ZM146.7 391.876H151.575V399.481L151.146 405.175H151.38L159.492 391.876H164.172V412H159.297V404.395L159.726 398.701H159.492L151.38 412H146.7V391.876ZM184.554 408.685C185.282 408.685 185.841 408.36 186.231 407.71C186.621 407.06 186.816 405.864 186.816 404.122V399.754C186.816 398.012 186.621 396.816 186.231 396.166C185.841 395.516 185.282 395.191 184.554 395.191C183.878 395.191 183.384 395.412 183.072 395.854C182.76 396.27 182.604 396.972 182.604 397.96V405.916C182.604 406.904 182.76 407.619 183.072 408.061C183.384 408.477 183.878 408.685 184.554 408.685ZM182.643 419.8H178.509V409.621H178.275C177.859 410.713 177.365 411.467 176.793 411.883C176.221 412.273 175.545 412.468 174.765 412.468C173.985 412.468 173.296 412.299 172.698 411.961C172.126 411.597 171.645 411.012 171.255 410.206C170.865 409.374 170.566 408.282 170.358 406.93C170.176 405.578 170.085 403.914 170.085 401.938C170.085 399.962 170.176 398.298 170.358 396.946C170.566 395.594 170.865 394.515 171.255 393.709C171.645 392.877 172.126 392.292 172.698 391.954C173.296 391.59 173.985 391.408 174.765 391.408C175.545 391.408 176.221 391.616 176.793 392.032C177.365 392.422 177.859 393.163 178.275 394.255H178.509V384.31H182.643V394.255H182.877C183.293 393.163 183.787 392.422 184.359 392.032C184.931 391.616 185.607 391.408 186.387 391.408C187.167 391.408 187.843 391.59 188.415 391.954C189.013 392.292 189.507 392.877 189.897 393.709C190.287 394.515 190.573 395.594 190.755 396.946C190.963 398.298 191.067 399.962 191.067 401.938C191.067 403.914 190.963 405.578 190.755 406.93C190.573 408.282 190.287 409.374 189.897 410.206C189.507 411.012 189.013 411.597 188.415 411.961C187.843 412.299 187.167 412.468 186.387 412.468C185.607 412.468 184.931 412.273 184.359 411.883C183.787 411.467 183.293 410.713 182.877 409.621H182.643V419.8ZM176.598 408.685C177.274 408.685 177.768 408.477 178.08 408.061C178.392 407.619 178.548 406.904 178.548 405.916V397.96C178.548 396.972 178.392 396.27 178.08 395.854C177.768 395.412 177.274 395.191 176.598 395.191C175.87 395.191 175.311 395.516 174.921 396.166C174.531 396.816 174.336 398.012 174.336 399.754V404.122C174.336 405.864 174.531 407.06 174.921 407.71C175.311 408.36 175.87 408.685 176.598 408.685ZM203.219 395.815H196.394V391.876H215.036V395.815H208.211V412H203.219V395.815Z" fill="white"/>
<path fill-rule="evenodd" clip-rule="evenodd" d="M256.794 88.3805C254.45 -25.434 85.6003 -25.4652 83.1949 88.317C83.1605 89.9444 82.0347 91.4306 80.4167 91.7953C62.7392 95.7791 45.1005 101.757 31.1248 108.903C24.1368 112.475 18.0774 116.334 13.3892 120.371C8.6967 124.411 5.40776 128.606 3.91145 132.844C2.42308 137.06 2.69633 141.349 5.18446 145.648C7.68483 149.969 12.4395 154.329 19.9682 158.604C35.0274 167.156 61.0148 175.277 101.611 182.12C103.598 182.455 105.048 184.432 104.552 186.44L65.9279 342.654C65.5382 344.231 66.7311 345.754 68.3549 345.754H272.926C274.542 345.754 275.733 344.245 275.358 342.674L257.054 265.976C256.99 265.708 257.156 265.438 257.424 265.374C257.693 265.31 257.962 265.476 258.027 265.744L276.331 342.442C276.856 344.642 275.188 346.754 272.926 346.754H68.3549C66.0816 346.754 64.4115 344.621 64.9572 342.414L103.581 186.2C103.925 184.807 102.911 183.353 101.444 183.106C60.8197 176.258 34.6904 168.115 19.4744 159.474C11.8656 155.153 6.9431 150.684 4.31892 146.149C1.68251 141.593 1.38389 137 2.96849 132.511C4.54518 128.045 7.9741 123.714 12.7366 119.613C17.5034 115.508 23.6361 111.608 30.6696 108.012C44.7368 100.82 62.4585 94.8173 80.1968 90.8198C81.3367 90.5629 82.1698 89.4949 82.1951 88.2959C84.6282 -26.792 255.423 -26.7599 257.794 88.3599C257.818 89.5334 258.622 90.5887 259.733 90.87C277.408 95.3444 294.53 101.918 307.884 109.617C314.56 113.466 320.307 117.603 324.711 121.91C329.112 126.213 332.196 130.71 333.505 135.28C334.819 139.868 334.332 144.5 331.646 149.02C328.971 153.523 324.128 157.887 316.777 162.009C302.08 170.251 277.201 177.608 238.984 183.126C237.383 183.358 236.328 185.004 236.851 186.471L241.378 199.159C241.471 199.419 241.335 199.705 241.075 199.798C240.815 199.891 240.529 199.755 240.436 199.495L235.91 186.807C235.154 184.69 236.675 182.45 238.841 182.137C277.024 176.623 301.754 169.287 316.288 161.137C323.553 157.063 328.233 152.806 330.787 148.509C333.331 144.228 333.782 139.881 332.543 135.555C331.299 131.211 328.341 126.859 324.012 122.625C319.685 118.394 314.013 114.304 307.384 110.483C294.127 102.84 277.095 96.2966 259.488 91.8394C257.914 91.441 256.827 89.9762 256.794 88.3805ZM213.554 91.9961C213.741 92.199 213.728 92.5153 213.525 92.7026C213.322 92.8899 213.006 92.8773 212.819 92.6744L169.131 45.345V149.602V150.062V306.991L212.819 259.662C213.006 259.459 213.322 259.446 213.525 259.633C213.728 259.821 213.741 260.137 213.554 260.34L168.998 308.609L168.623 309.015L168.257 308.602L125.395 260.333C125.212 260.126 125.231 259.81 125.437 259.627C125.644 259.444 125.96 259.462 126.143 259.669L168.131 306.954V150.062V149.602V45.3822L126.143 92.6672C125.96 92.8737 125.644 92.8925 125.437 92.7091C125.231 92.5258 125.212 92.2097 125.395 92.0032L168.257 43.7341L168.623 43.3212L168.998 43.727L213.554 91.9961ZM247.21 219.727C247.21 220.279 247.657 220.727 248.21 220.727C248.762 220.727 249.21 220.279 249.21 219.727C249.21 219.174 248.762 218.727 248.21 218.727C247.657 218.727 247.21 219.174 247.21 219.727Z" fill="white"/>
<path d="M83.1949 88.317L85.1945 88.3593L83.1949 88.317ZM256.794 88.3805L258.793 88.3394V88.3394L256.794 88.3805ZM80.4167 91.7953L79.977 89.8442H79.977L80.4167 91.7953ZM31.1248 108.903L32.0353 110.683L31.1248 108.903ZM13.3892 120.371L14.6942 121.886H14.6942L13.3892 120.371ZM3.91145 132.844L2.02554 132.178H2.02554L3.91145 132.844ZM5.18446 145.648L6.91552 144.647H6.91552L5.18446 145.648ZM19.9682 158.604L18.9806 160.343H18.9806L19.9682 158.604ZM101.611 182.12L101.278 184.092L101.278 184.092L101.611 182.12ZM104.552 186.44L102.61 185.96L104.552 186.44ZM65.9279 342.654L67.8695 343.134L65.9279 342.654ZM275.358 342.674L273.413 343.138V343.138L275.358 342.674ZM257.054 265.976L255.108 266.44L255.108 266.441L257.054 265.976ZM257.424 265.374L256.96 263.428L256.96 263.429L257.424 265.374ZM258.027 265.744L256.081 266.208L256.081 266.208L258.027 265.744ZM276.331 342.442L274.385 342.906L276.331 342.442ZM64.9572 342.414L63.0156 341.934H63.0156L64.9572 342.414ZM103.581 186.2L105.523 186.68V186.68L103.581 186.2ZM101.444 183.106L101.777 181.134V181.134L101.444 183.106ZM19.4744 159.474L20.4621 157.735L19.4744 159.474ZM4.31892 146.149L2.58787 147.151H2.58787L4.31892 146.149ZM2.96849 132.511L1.08258 131.845L1.08257 131.845L2.96849 132.511ZM12.7366 119.613L14.0417 121.129H14.0417L12.7366 119.613ZM30.6696 108.012L29.7591 106.232L30.6696 108.012ZM80.1968 90.8198L79.7571 88.8687H79.7571L80.1968 90.8198ZM82.1951 88.2959L80.1956 88.2536V88.2536L82.1951 88.2959ZM257.794 88.3599L255.794 88.4011V88.4011L257.794 88.3599ZM259.733 90.87L259.242 92.8088L259.733 90.87ZM307.884 109.617L306.885 111.349L307.884 109.617ZM324.711 121.91L323.312 123.34L324.711 121.91ZM333.505 135.28L331.582 135.83L331.582 135.83L333.505 135.28ZM331.646 149.02L329.927 147.998L331.646 149.02ZM316.777 162.009L317.756 163.753L316.777 162.009ZM238.984 183.126L239.27 185.106L238.984 183.126ZM236.851 186.471L238.735 185.799L236.851 186.471ZM241.378 199.159L243.262 198.487L243.262 198.487L241.378 199.159ZM241.075 199.798L241.747 201.682L241.747 201.682L241.075 199.798ZM240.436 199.495L238.552 200.167L240.436 199.495ZM235.91 186.807L237.793 186.135L235.91 186.807ZM238.841 182.137L239.127 184.116L238.841 182.137ZM316.288 161.137L317.267 162.881L316.288 161.137ZM330.787 148.509L329.068 147.487L330.787 148.509ZM332.543 135.555L330.621 136.106L330.621 136.106L332.543 135.555ZM324.012 122.625L325.41 121.195V121.195L324.012 122.625ZM307.384 110.483L308.383 108.75H308.383L307.384 110.483ZM259.488 91.8394L259.978 89.9005L259.488 91.8394ZM213.554 91.9961L212.084 93.3527H212.084L213.554 91.9961ZM212.819 92.6744L211.349 94.0309H211.349L212.819 92.6744ZM169.131 45.345L170.6 43.9884C170.042 43.3833 169.169 43.1824 168.402 43.4823C167.635 43.7821 167.131 44.5215 167.131 45.345H169.131ZM169.131 306.991H167.131C167.131 307.815 167.635 308.554 168.402 308.854C169.169 309.154 170.042 308.953 170.6 308.348L169.131 306.991ZM212.819 259.662L211.349 258.305H211.349L212.819 259.662ZM213.525 259.633L214.882 258.164L214.882 258.164L213.525 259.633ZM213.554 260.34L212.084 258.983H212.084L213.554 260.34ZM168.998 308.609L167.528 307.253L167.528 307.253L168.998 308.609ZM168.623 309.015L167.128 310.343C167.503 310.765 168.039 311.009 168.604 311.015C169.169 311.02 169.71 310.787 170.093 310.371L168.623 309.015ZM168.257 308.602L169.752 307.274L169.752 307.274L168.257 308.602ZM125.395 260.333L126.891 259.005L125.395 260.333ZM125.437 259.627L124.109 258.132H124.109L125.437 259.627ZM126.143 259.669L127.638 258.341L127.638 258.341L126.143 259.669ZM168.131 306.954L166.635 308.282C167.187 308.903 168.064 309.118 168.841 308.824C169.617 308.529 170.131 307.784 170.131 306.954H168.131ZM168.131 45.3822H170.131C170.131 44.5517 169.617 43.8076 168.841 43.5126C168.064 43.2176 167.187 43.4332 166.635 44.0543L168.131 45.3822ZM126.143 92.6672L127.638 93.9952L127.638 93.9952L126.143 92.6672ZM125.437 92.7091L126.765 91.2136H126.765L125.437 92.7091ZM125.395 92.0032L123.9 90.6753L123.9 90.6753L125.395 92.0032ZM168.257 43.7341L169.752 45.0621L169.752 45.0621L168.257 43.7341ZM168.623 43.3212L170.093 41.9646C169.71 41.5495 169.169 41.3158 168.604 41.3213C168.039 41.3267 167.503 41.5708 167.128 41.9932L168.623 43.3212ZM168.998 43.727L170.468 42.3704L168.998 43.727ZM85.1945 88.3593C87.5447 -22.8115 252.504 -22.7821 254.794 88.4217L258.793 88.3394C256.396 -28.0859 83.656 -28.1188 81.1954 88.2747L85.1945 88.3593ZM80.8563 93.7464C83.4325 93.1658 85.142 90.8416 85.1945 88.3593L81.1954 88.2747C81.179 89.0472 80.637 89.6955 79.977 89.8442L80.8563 93.7464ZM32.0353 110.683C45.8281 103.632 63.3007 97.7027 80.8563 93.7464L79.977 89.8442C62.1778 93.8555 44.373 99.883 30.2143 107.122L32.0353 110.683ZM14.6942 121.886C19.2254 117.984 25.1383 114.21 32.0353 110.683L30.2143 107.122C23.1353 110.741 16.9294 114.683 12.0841 118.855L14.6942 121.886ZM5.79737 133.51C7.13295 129.727 10.1419 125.806 14.6942 121.886L12.0841 118.855C7.25151 123.017 3.68257 127.485 2.02554 132.178L5.79737 133.51ZM6.91552 144.647C4.72395 140.859 4.50145 137.181 5.79737 133.51L2.02554 132.178C0.34471 136.939 0.668716 141.838 3.45341 146.65L6.91552 144.647ZM20.9559 156.865C13.5871 152.681 9.16831 148.54 6.91552 144.647L3.45341 146.65C6.20135 151.399 11.2918 155.977 18.9806 160.343L20.9559 156.865ZM101.943 180.148C61.4049 173.314 35.7013 165.239 20.9559 156.865L18.9806 160.343C34.3535 169.073 60.6247 177.239 101.278 184.092L101.943 180.148ZM106.493 186.92C107.295 183.676 104.968 180.658 101.943 180.148L101.278 184.092C102.229 184.252 102.801 185.188 102.61 185.96L106.493 186.92ZM67.8695 343.134L106.493 186.92L102.61 185.96L63.9864 342.174L67.8695 343.134ZM68.3549 343.754C68.0301 343.754 67.7915 343.45 67.8695 343.134L63.9864 342.174C63.2849 345.012 65.4321 347.754 68.3549 347.754V343.754ZM272.926 343.754H68.3549V347.754H272.926V343.754ZM273.413 343.138C273.488 343.453 273.249 343.754 272.926 343.754V347.754C275.834 347.754 277.978 345.038 277.303 342.21L273.413 343.138ZM255.108 266.441L273.413 343.138L277.303 342.21L258.999 265.512L255.108 266.441ZM256.96 263.429C255.617 263.749 254.788 265.098 255.108 266.44L258.999 265.512C259.191 266.318 258.694 267.127 257.889 267.319L256.96 263.429ZM259.972 265.28C259.651 263.937 258.303 263.108 256.96 263.428L257.888 267.319C257.083 267.512 256.273 267.014 256.081 266.208L259.972 265.28ZM278.276 341.978L259.972 265.28L256.081 266.208L274.385 342.906L278.276 341.978ZM272.926 348.754C276.48 348.754 279.101 345.435 278.276 341.978L274.385 342.906C274.61 343.849 273.895 344.754 272.926 344.754V348.754ZM68.3549 348.754H272.926V344.754H68.3549V348.754ZM63.0156 341.934C62.1582 345.402 64.7826 348.754 68.3549 348.754V344.754C67.3806 344.754 66.6649 343.84 66.8987 342.894L63.0156 341.934ZM101.64 185.72L63.0156 341.934L66.8987 342.894L105.523 186.68L101.64 185.72ZM101.112 185.078C101.281 185.107 101.442 185.209 101.548 185.362C101.653 185.514 101.658 185.643 101.64 185.72L105.523 186.68C106.17 184.063 104.293 181.558 101.777 181.134L101.112 185.078ZM18.4868 161.213C34.0166 170.032 60.4296 178.22 101.112 185.078L101.777 181.134C61.2099 174.295 35.3643 166.197 20.4621 157.735L18.4868 161.213ZM2.58787 147.151C5.45963 152.114 10.718 156.801 18.4868 161.213L20.4621 157.735C13.0133 153.505 8.42657 149.254 6.04998 145.147L2.58787 147.151ZM1.08257 131.845C-0.694461 136.879 -0.345127 142.082 2.58787 147.151L6.04998 145.147C3.71015 141.104 3.46225 137.12 4.85441 133.177L1.08257 131.845ZM11.4316 118.097C6.52893 122.319 2.82 126.924 1.08258 131.845L4.8544 133.177C6.27036 129.166 9.41928 125.109 14.0417 121.129L11.4316 118.097ZM29.7591 106.232C22.6346 109.874 16.3554 113.857 11.4316 118.097L14.0417 121.129C18.6514 117.159 24.6376 113.343 31.58 109.793L29.7591 106.232ZM79.7571 88.8687C61.897 92.8936 44.0092 98.9458 29.7591 106.232L31.58 109.793C45.4643 102.694 63.0199 96.7409 80.6365 92.7708L79.7571 88.8687ZM80.1956 88.2536C80.1884 88.5936 79.9427 88.8269 79.7571 88.8687L80.6365 92.7708C82.7306 92.2989 84.1512 90.3962 84.1947 88.3382L80.1956 88.2536ZM259.793 88.3188C257.369 -29.4116 82.6838 -29.4459 80.1956 88.2536L84.1947 88.3382C86.5725 -24.1382 253.477 -24.1082 255.794 88.4011L259.793 88.3188ZM260.224 88.9311C260.036 88.8837 259.8 88.646 259.793 88.3188L255.794 88.4011C255.836 90.4209 257.207 92.2937 259.242 92.8088L260.224 88.9311ZM308.883 107.884C295.336 100.074 278.035 93.4398 260.224 88.9311L259.242 92.8088C276.782 97.2489 293.725 103.762 306.885 111.349L308.883 107.884ZM326.109 120.48C321.551 116.022 315.656 111.789 308.883 107.884L306.885 111.349C313.465 115.143 319.063 119.184 323.312 123.34L326.109 120.48ZM335.427 134.729C333.99 129.708 330.653 124.923 326.109 120.48L323.312 123.34C327.571 127.504 330.403 131.712 331.582 135.83L335.427 134.729ZM333.366 150.042C336.336 145.044 336.892 139.842 335.427 134.729L331.582 135.83C332.746 139.894 332.329 143.956 329.927 147.998L333.366 150.042ZM317.756 163.753C325.278 159.535 330.446 154.956 333.366 150.042L329.927 147.998C327.496 152.09 322.978 156.239 315.799 160.264L317.756 163.753ZM239.27 185.106C277.555 179.577 302.73 172.179 317.756 163.753L315.799 160.264C301.429 168.322 276.848 175.638 238.698 181.147L239.27 185.106ZM238.735 185.799C238.705 185.715 238.701 185.578 238.807 185.412C238.914 185.245 239.084 185.133 239.27 185.106L238.698 181.147C235.957 181.543 233.983 184.384 234.968 187.143L238.735 185.799ZM243.262 198.487L238.735 185.799L234.968 187.143L239.494 199.831L243.262 198.487ZM241.747 201.682C243.047 201.218 243.725 199.788 243.262 198.487L239.494 199.831C239.216 199.051 239.623 198.193 240.403 197.914L241.747 201.682ZM238.552 200.167C239.016 201.468 240.447 202.146 241.747 201.682L240.403 197.914C241.183 197.636 242.041 198.043 242.32 198.823L238.552 200.167ZM234.026 187.479L238.552 200.167L242.32 198.823L237.793 186.135L234.026 187.479ZM238.555 180.157C235.265 180.632 232.804 184.054 234.026 187.479L237.793 186.135C237.504 185.325 238.085 184.267 239.127 184.116L238.555 180.157ZM315.31 159.392C301.104 167.358 276.671 174.653 238.555 180.157L239.127 184.116C277.378 178.593 302.405 171.215 317.267 162.881L315.31 159.392ZM329.068 147.487C326.758 151.373 322.403 155.415 315.31 159.392L317.267 162.881C324.703 158.711 329.708 154.239 332.506 149.531L329.068 147.487ZM330.621 136.106C331.709 139.906 331.327 143.685 329.068 147.487L332.506 149.531C335.334 144.772 335.855 139.855 334.466 135.004L330.621 136.106ZM322.613 124.055C326.8 128.149 329.506 132.213 330.621 136.106L334.466 135.004C333.093 130.209 329.882 125.568 325.41 121.195L322.613 124.055ZM306.385 112.216C312.917 115.981 318.441 119.975 322.613 124.055L325.41 121.195C320.929 116.813 315.108 112.627 308.383 108.75L306.385 112.216ZM258.997 93.7782C276.469 98.2011 293.322 104.684 306.385 112.216L308.383 108.75C294.933 100.996 277.722 94.3921 259.978 89.9005L258.997 93.7782ZM254.794 88.4217C254.844 90.8601 256.496 93.1452 258.997 93.7782L259.978 89.9005C259.331 89.7368 258.809 89.0922 258.793 88.3394L254.794 88.4217ZM214.882 94.1723C215.896 93.2357 215.96 91.6541 215.023 90.6395L212.084 93.3527C211.522 92.7439 211.56 91.795 212.169 91.233L214.882 94.1723ZM211.349 94.0309C212.286 95.0455 213.867 95.1088 214.882 94.1723L212.169 91.233C212.777 90.6711 213.726 90.7091 214.288 91.3178L211.349 94.0309ZM167.661 46.7015L211.349 94.0309L214.288 91.3178L170.6 43.9884L167.661 46.7015ZM171.131 149.602V45.345H167.131V149.602H171.131ZM171.131 150.062V149.602H167.131V150.062H171.131ZM171.131 306.991V150.062H167.131V306.991H171.131ZM211.349 258.305L167.661 305.635L170.6 308.348L214.288 261.018L211.349 258.305ZM214.882 258.164C213.867 257.227 212.286 257.291 211.349 258.305L214.288 261.018C213.727 261.627 212.778 261.665 212.169 261.103L214.882 258.164ZM215.023 261.697C215.96 260.682 215.896 259.1 214.882 258.164L212.169 261.103C211.56 260.541 211.522 259.592 212.084 258.983L215.023 261.697ZM170.468 309.966L215.023 261.697L212.084 258.983L167.528 307.253L170.468 309.966ZM170.093 310.371L170.468 309.966L167.528 307.253L167.154 307.658L170.093 310.371ZM166.761 309.93L167.128 310.343L170.119 307.687L169.752 307.274L166.761 309.93ZM123.9 261.661L166.761 309.93L169.752 307.274L126.891 259.005L123.9 261.661ZM124.109 258.132C123.077 259.048 122.983 260.628 123.9 261.661L126.891 259.005C127.441 259.624 127.384 260.572 126.765 261.123L124.109 258.132ZM127.638 258.341C126.722 257.308 125.141 257.215 124.109 258.132L126.765 261.123C126.146 261.672 125.198 261.616 124.647 260.997L127.638 258.341ZM169.626 305.626L127.638 258.341L124.647 260.997L166.635 308.282L169.626 305.626ZM166.131 150.062V306.954H170.131V150.062H166.131ZM166.131 149.602V150.062H170.131V149.602H166.131ZM166.131 45.3822V149.602H170.131V45.3822H166.131ZM127.638 93.9952L169.626 46.7102L166.635 44.0543L124.647 91.3393L127.638 93.9952ZM124.109 94.2046C125.142 95.1214 126.722 95.0276 127.638 93.9952L124.647 91.3392C125.198 90.7198 126.146 90.6636 126.765 91.2136L124.109 94.2046ZM123.9 90.6753C122.983 91.7077 123.077 93.2878 124.109 94.2046L126.765 91.2136C127.384 91.7637 127.441 92.7117 126.891 93.3312L123.9 90.6753ZM166.761 42.4062L123.9 90.6753L126.891 93.3312L169.752 45.0621L166.761 42.4062ZM167.128 41.9932L166.761 42.4062L169.752 45.0621L170.119 44.6491L167.128 41.9932ZM170.468 42.3704L170.093 41.9646L167.154 44.6777L167.528 45.0835L170.468 42.3704ZM215.023 90.6395L170.468 42.3704L167.528 45.0835L212.084 93.3527L215.023 90.6395ZM248.21 218.727C248.762 218.727 249.21 219.174 249.21 219.727H245.21C245.21 221.383 246.553 222.727 248.21 222.727V218.727ZM247.21 219.727C247.21 219.174 247.657 218.727 248.21 218.727V222.727C249.866 222.727 251.21 221.383 251.21 219.727H247.21ZM248.21 220.727C247.657 220.727 247.21 220.279 247.21 219.727H251.21C251.21 218.07 249.866 216.727 248.21 216.727V220.727ZM249.21 219.727C249.21 220.279 248.762 220.727 248.21 220.727V216.727C246.553 216.727 245.21 218.07 245.21 219.727H249.21Z" fill="white"/>
</svg>
