<svg width="403" height="352" viewBox="0 0 403 352" fill="none" xmlns="http://www.w3.org/2000/svg">
<path d="M64.5077 289.061H67.1597C67.4717 288.671 67.7447 288.203 67.9787 287.657C68.2387 287.111 68.4467 286.461 68.6027 285.707C68.7847 284.953 68.9147 284.069 68.9927 283.055C69.0967 282.041 69.1487 280.871 69.1487 279.545V272.876H83.9297V293H78.9377V276.815H73.7117V279.662C73.7117 281.456 73.6337 283.003 73.4777 284.303C73.3477 285.603 73.1527 286.721 72.8927 287.657C72.6587 288.567 72.3727 289.321 72.0347 289.919C71.7227 290.491 71.3847 290.972 71.0207 291.362C70.3707 292.038 69.6297 292.506 68.7977 292.766C67.9657 293.026 67.0297 293.156 65.9897 293.156H64.5077V289.061ZM107.861 293C106.639 293 105.69 292.701 105.014 292.103C104.364 291.479 103.974 290.621 103.844 289.529H103.649C103.285 290.777 102.57 291.752 101.504 292.454C100.438 293.13 99.1245 293.468 97.5645 293.468C95.5365 293.468 93.9245 292.935 92.7285 291.869C91.5325 290.803 90.9345 289.321 90.9345 287.423C90.9345 283.367 93.9115 281.339 99.8655 281.339H103.415V280.013C103.415 278.739 103.103 277.777 102.479 277.127C101.855 276.477 100.841 276.152 99.4365 276.152C98.1625 276.152 97.1355 276.399 96.3555 276.893C95.5755 277.387 94.9125 278.024 94.3665 278.804L91.5195 276.386C92.1435 275.268 93.1445 274.332 94.5225 273.578C95.9265 272.798 97.7335 272.408 99.9435 272.408C102.596 272.408 104.663 273.032 106.145 274.28C107.653 275.502 108.407 277.335 108.407 279.779V289.256H110.786V293H107.861ZM99.2415 290.036C100.438 290.036 101.426 289.763 102.206 289.217C103.012 288.645 103.415 287.878 103.415 286.916V284.225H99.9825C97.2525 284.225 95.8875 285.083 95.8875 286.799V287.579C95.8875 288.385 96.1865 288.996 96.7845 289.412C97.3825 289.828 98.2015 290.036 99.2415 290.036ZM131.089 272.876H136.159L126.526 296.588C125.98 297.966 125.252 299.006 124.342 299.708C123.432 300.436 122.145 300.8 120.481 300.8H116.815V296.861H121.612L123.133 292.805L115.021 272.876H120.325L123.406 281.3L125.551 287.696H125.824L127.969 281.3L131.089 272.876ZM141.994 272.876H146.986V280.793H154.474V272.876H159.466V293H154.474V284.732H146.986V293H141.994V272.876ZM164.716 289.061H167.017C167.719 287.943 168.278 286.565 168.694 284.927C169.136 283.289 169.357 281.352 169.357 279.116V272.876H183.553V289.061H186.712V298.46H182.188V293H169.24V298.46H164.716V289.061ZM178.678 289.061V276.815H173.92V279.272C173.92 281.43 173.751 283.315 173.413 284.927C173.101 286.539 172.646 287.917 172.048 289.061H178.678ZM198.943 284.537H196.603L194.458 293H190.051L191.845 285.98C192.079 285.044 192.404 284.329 192.82 283.835C193.262 283.315 193.899 282.951 194.731 282.743V282.509C194.055 282.301 193.496 281.976 193.054 281.534C192.638 281.092 192.326 280.455 192.118 279.623L190.324 272.876H194.575L196.72 280.949H198.943V272.876H203.077V280.949H205.3L207.445 272.876H211.696L209.902 279.623C209.694 280.455 209.369 281.092 208.927 281.534C208.511 281.976 207.965 282.301 207.289 282.509V282.743C208.121 282.951 208.745 283.315 209.161 283.835C209.603 284.329 209.941 285.044 210.175 285.98L211.969 293H207.562L205.417 284.537H203.077V293H198.943V284.537ZM220.104 283.562V278.687H232.194V283.562H220.104ZM250.899 293.468C248.767 293.468 246.921 293.156 245.361 292.532C243.827 291.882 242.605 290.933 241.695 289.685L244.698 286.955C245.452 287.865 246.297 288.541 247.233 288.983C248.195 289.425 249.365 289.646 250.743 289.646C252.225 289.646 253.304 289.412 253.98 288.944C254.656 288.476 254.994 287.852 254.994 287.072V286.76C254.994 285.304 254.11 284.576 252.342 284.576H247.389V281.105H251.835C252.797 281.105 253.499 280.91 253.941 280.52C254.383 280.13 254.604 279.584 254.604 278.882V278.609C254.604 277.933 254.292 277.374 253.668 276.932C253.044 276.464 252.043 276.23 250.665 276.23C249.391 276.23 248.312 276.438 247.428 276.854C246.544 277.27 245.764 277.894 245.088 278.726L242.163 276.191C243.177 274.995 244.386 274.072 245.79 273.422C247.194 272.746 248.975 272.408 251.133 272.408C253.889 272.408 255.995 272.915 257.451 273.929C258.933 274.943 259.674 276.282 259.674 277.946C259.674 279.142 259.31 280.117 258.582 280.871C257.854 281.625 256.879 282.119 255.657 282.353V282.548C256.983 282.756 258.049 283.276 258.855 284.108C259.661 284.914 260.064 285.98 260.064 287.306C260.064 289.178 259.258 290.673 257.646 291.791C256.06 292.909 253.811 293.468 250.899 293.468ZM276.429 293.468C274.895 293.468 273.517 293.221 272.295 292.727C271.099 292.233 270.072 291.531 269.214 290.621C268.382 289.711 267.732 288.606 267.264 287.306C266.822 286.006 266.601 284.55 266.601 282.938C266.601 281.326 266.822 279.87 267.264 278.57C267.732 277.27 268.382 276.165 269.214 275.255C270.072 274.345 271.099 273.643 272.295 273.149C273.517 272.655 274.895 272.408 276.429 272.408C277.937 272.408 279.302 272.655 280.524 273.149C281.746 273.643 282.773 274.345 283.605 275.255C284.463 276.165 285.113 277.27 285.555 278.57C286.023 279.87 286.257 281.326 286.257 282.938C286.257 284.55 286.023 286.006 285.555 287.306C285.113 288.606 284.463 289.711 283.605 290.621C282.773 291.531 281.746 292.233 280.524 292.727C279.302 293.221 277.937 293.468 276.429 293.468ZM276.429 289.646C277.859 289.646 278.99 289.217 279.822 288.359C280.654 287.475 281.07 286.188 281.07 284.498V281.378C281.07 279.688 280.654 278.414 279.822 277.556C278.99 276.672 277.859 276.23 276.429 276.23C274.999 276.23 273.868 276.672 273.036 277.556C272.204 278.414 271.788 279.688 271.788 281.378V284.498C271.788 286.188 272.204 287.475 273.036 288.359C273.868 289.217 274.999 289.646 276.429 289.646ZM292.833 272.876H297.825V280.793H305.313V272.876H310.305V293H305.313V284.732H297.825V293H292.833V272.876ZM334.118 293C332.896 293 331.947 292.701 331.271 292.103C330.621 291.479 330.231 290.621 330.101 289.529H329.906C329.542 290.777 328.827 291.752 327.761 292.454C326.695 293.13 325.382 293.468 323.822 293.468C321.794 293.468 320.182 292.935 318.986 291.869C317.79 290.803 317.192 289.321 317.192 287.423C317.192 283.367 320.169 281.339 326.123 281.339H329.672V280.013C329.672 278.739 329.36 277.777 328.736 277.127C328.112 276.477 327.098 276.152 325.694 276.152C324.42 276.152 323.393 276.399 322.613 276.893C321.833 277.387 321.17 278.024 320.624 278.804L317.777 276.386C318.401 275.268 319.402 274.332 320.78 273.578C322.184 272.798 323.991 272.408 326.201 272.408C328.853 272.408 330.92 273.032 332.402 274.28C333.91 275.502 334.664 277.335 334.664 279.779V289.256H337.043V293H334.118ZM325.499 290.036C326.695 290.036 327.683 289.763 328.463 289.217C329.269 288.645 329.672 287.878 329.672 286.916V284.225H326.24C323.51 284.225 322.145 285.083 322.145 286.799V287.579C322.145 288.385 322.444 288.996 323.042 289.412C323.64 289.828 324.459 290.036 325.499 290.036Z" fill="white"/>
<path fill-rule="evenodd" clip-rule="evenodd" d="M205.702 3.00055C120.605 3.16911 34.2486 41.8339 3.38982 118.409C2.75794 119.977 2.89597 121.745 3.79069 123.167C35.054 172.859 101.524 216.055 176.338 225.216C251.117 234.373 334.227 209.526 398.822 123.134C399.862 121.744 400.192 119.863 399.653 118.224C374.35 41.159 290.802 2.83198 205.702 3.00055ZM205.7 2.00055C291.019 1.83155 375.109 40.2634 400.603 117.912C401.247 119.871 400.852 122.09 399.623 123.732C334.804 210.424 251.337 235.407 176.217 226.209C101.133 217.015 34.3827 173.67 2.94427 123.699C1.87321 121.997 1.71438 119.892 2.4623 118.036C33.5311 40.9388 120.377 2.16956 205.7 2.00055ZM113.892 142.367C113.892 142.919 113.444 143.367 112.892 143.367C112.34 143.367 111.892 142.919 111.892 142.367C111.892 141.815 112.34 141.367 112.892 141.367C113.444 141.367 113.892 141.815 113.892 142.367ZM129.111 158.606C128.923 158.403 128.61 158.394 128.412 158.586C128.214 158.778 128.205 159.098 128.392 159.301C167.928 202.03 233.674 204.088 275.238 163.886C316.803 123.685 318.44 56.4554 278.903 13.7257C278.716 13.523 278.403 13.5143 278.204 13.7063C278.006 13.8983 277.997 14.2182 278.185 14.4209C317.35 56.75 315.723 123.339 274.559 163.152C233.396 202.966 168.277 200.935 129.111 158.606ZM207.973 22.9687C208.249 22.9687 208.473 23.1926 208.473 23.4687C208.473 41.7947 208.474 55.4985 209.568 65.7674C210.663 76.0419 212.844 82.7682 217.115 87.2225C221.382 91.6725 227.821 93.9436 237.665 95.0843C245.429 95.9839 255.241 96.1744 267.665 96.2148C270.984 96.204 274.486 96.204 278.18 96.204H278.217C278.493 96.204 278.717 96.4279 278.717 96.704C278.717 96.7077 278.717 96.7113 278.717 96.7148C278.717 96.7184 278.717 96.722 278.717 96.7256C278.717 97.0018 278.493 97.2256 278.217 97.2256H278.18C274.486 97.2256 270.984 97.2256 267.665 97.2149C255.241 97.2552 245.429 97.4457 237.665 98.3454C227.821 99.4861 221.382 101.757 217.115 106.207C212.844 110.661 210.663 117.388 209.568 127.662C208.474 137.931 208.473 151.635 208.473 169.961C208.473 170.237 208.249 170.461 207.973 170.461C207.697 170.461 207.473 170.237 207.473 169.961C207.473 151.635 207.473 137.931 206.414 127.661C205.355 117.384 203.245 110.655 199.114 106.201C194.99 101.755 188.769 99.4854 179.251 98.3451C171.744 97.4457 162.255 97.2552 150.239 97.2149C147.029 97.2256 143.643 97.2256 140.071 97.2256H140.033C139.757 97.2256 139.533 97.0018 139.533 96.7256C139.533 96.722 139.533 96.7184 139.533 96.7148C139.533 96.7113 139.533 96.7077 139.533 96.704C139.533 96.4279 139.757 96.204 140.033 96.204H140.071C143.643 96.204 147.029 96.204 150.239 96.2148C162.255 96.1744 171.744 95.984 179.251 95.0845C188.769 93.9443 194.99 91.675 199.114 87.2285C203.245 82.7743 205.355 76.046 206.414 65.7691C207.473 55.4991 207.473 41.7943 207.473 23.4687C207.473 23.1926 207.697 22.9687 207.973 22.9687ZM172.02 96.7148C174.657 96.8732 177.103 97.0806 179.37 97.3522C188.961 98.5013 195.479 100.81 199.847 105.521C204.209 110.224 206.345 117.231 207.409 127.558C207.651 129.902 207.837 132.422 207.982 135.131C208.131 132.421 208.324 129.9 208.574 127.556C209.674 117.227 211.884 110.218 216.393 105.515C220.906 100.808 227.638 98.5006 237.55 97.352C239.893 97.0804 242.421 96.8731 245.146 96.7148C242.421 96.5566 239.893 96.3492 237.55 96.0777C227.638 94.9291 220.906 92.6217 216.393 87.9146C211.884 83.2118 209.674 76.2024 208.574 65.8734C208.324 63.5292 208.131 61.0085 207.982 58.2983C207.837 61.0079 207.651 63.5281 207.409 65.8716C206.345 76.1983 204.209 83.2056 199.847 87.9085C195.479 92.6192 188.961 94.9284 179.37 96.0775C177.103 96.3491 174.657 96.5565 172.02 96.7148Z" fill="white"/>
<path d="M3.38982 118.409L5.24486 119.157H5.24486L3.38982 118.409ZM205.702 3.00055L205.698 1.00056L205.702 3.00055ZM3.79069 123.167L2.09786 124.232H2.09786L3.79069 123.167ZM176.338 225.216L176.582 223.231L176.338 225.216ZM398.822 123.134L397.221 121.936L398.822 123.134ZM399.653 118.224L397.753 118.848V118.848L399.653 118.224ZM400.603 117.912L398.703 118.536V118.536L400.603 117.912ZM205.7 2.00055L205.696 0.000558853L205.7 2.00055ZM399.623 123.732L398.022 122.535L399.623 123.732ZM176.217 226.209L176.46 224.224L176.217 226.209ZM2.94427 123.699L4.63711 122.634H4.63711L2.94427 123.699ZM2.4623 118.036L4.31734 118.783H4.31734L2.4623 118.036ZM128.412 158.586L127.022 157.148L127.022 157.149L128.412 158.586ZM129.111 158.606L130.579 157.247L130.579 157.247L129.111 158.606ZM128.392 159.301L129.86 157.942L129.86 157.942L128.392 159.301ZM275.238 163.886L273.848 162.449L275.238 163.886ZM278.903 13.7257L280.371 12.3674L280.371 12.3673L278.903 13.7257ZM278.204 13.7063L279.595 15.1439V15.1439L278.204 13.7063ZM278.185 14.4209L276.717 15.7792L276.717 15.7792L278.185 14.4209ZM274.559 163.152L273.169 161.715L274.559 163.152ZM209.568 65.7674L207.579 65.9793V65.9793L209.568 65.7674ZM217.115 87.2225L218.558 85.8383L217.115 87.2225ZM237.665 95.0843L237.435 97.071L237.665 95.0843ZM267.665 96.2148L267.658 98.2148L267.671 98.2148L267.665 96.2148ZM278.717 96.7148L276.717 96.6808C276.717 96.7035 276.717 96.7262 276.717 96.7489L278.717 96.7148ZM267.665 97.2149L267.671 95.2149L267.659 95.2149L267.665 97.2149ZM237.665 98.3454L237.435 96.3587L237.665 98.3454ZM217.115 106.207L218.558 107.591V107.591L217.115 106.207ZM209.568 127.662L207.579 127.45L209.568 127.662ZM206.414 127.661L204.425 127.866L206.414 127.661ZM199.114 106.201L200.581 104.841H200.581L199.114 106.201ZM179.251 98.3451L179.489 96.3593L179.251 98.3451ZM150.239 97.2149L150.246 95.2149L150.232 95.2149L150.239 97.2149ZM139.533 96.7148L141.532 96.7574C141.533 96.729 141.533 96.7007 141.532 96.6723L139.533 96.7148ZM150.239 96.2148L150.232 98.2148L150.246 98.2148L150.239 96.2148ZM179.251 95.0845L179.014 93.0987L179.251 95.0845ZM199.114 87.2285L197.648 85.8685L199.114 87.2285ZM206.414 65.7691L204.425 65.5641L206.414 65.7691ZM179.37 97.3522L179.608 95.3664L179.37 97.3522ZM172.02 96.7148L171.9 94.7184C170.844 94.7818 170.02 95.6568 170.02 96.7148C170.02 97.7729 170.844 98.6478 171.9 98.7113L172.02 96.7148ZM199.847 105.521L198.381 106.881H198.381L199.847 105.521ZM207.409 127.558L209.399 127.353V127.353L207.409 127.558ZM207.982 135.131L205.985 135.238C206.041 136.299 206.917 137.13 207.98 137.131C209.042 137.132 209.92 136.302 209.979 135.241L207.982 135.131ZM208.574 127.556L210.562 127.768V127.768L208.574 127.556ZM216.393 105.515L217.837 106.899V106.899L216.393 105.515ZM237.55 97.352L237.78 99.3387L237.55 97.352ZM245.146 96.7148L245.262 98.7115C246.32 98.65 247.146 97.7744 247.146 96.7148C247.146 95.6553 246.32 94.7796 245.262 94.7182L245.146 96.7148ZM237.55 96.0777L237.78 94.091L237.55 96.0777ZM216.393 87.9146L217.837 86.5304V86.5304L216.393 87.9146ZM208.574 65.8734L210.562 65.6615V65.6615L208.574 65.8734ZM207.982 58.2983L209.979 58.1883C209.92 57.1274 209.042 56.2973 207.98 56.2983C206.917 56.2992 206.041 57.1309 205.985 58.1919L207.982 58.2983ZM207.409 65.8716L209.399 66.0767V66.0766L207.409 65.8716ZM199.847 87.9085L198.381 86.5485H198.381L199.847 87.9085ZM179.37 96.0775L179.608 98.0633L179.37 96.0775ZM5.24486 119.157C35.6834 43.624 121.062 5.16821 205.706 5.00055L205.698 1.00056C120.148 1.17002 32.8137 40.0438 1.53478 117.662L5.24486 119.157ZM5.48353 122.102C4.94138 121.24 4.84514 120.149 5.24486 119.157L1.53478 117.662C0.67075 119.806 0.850547 122.249 2.09786 124.232L5.48353 122.102ZM176.582 223.231C102.306 214.136 36.3965 171.237 5.48353 122.102L2.09786 124.232C33.7115 174.481 100.742 217.974 176.095 227.201L176.582 223.231ZM397.221 121.936C333.072 207.73 250.679 232.304 176.582 223.231L176.095 227.201C251.556 236.442 335.381 211.322 400.424 124.331L397.221 121.936ZM397.753 118.848C398.082 119.848 397.882 121.051 397.221 121.936L400.424 124.331C401.842 122.436 402.302 119.878 401.554 117.6L397.753 118.848ZM205.706 5.00055C290.369 4.83285 372.833 42.9501 397.753 118.848L401.554 117.6C375.867 39.3679 291.236 0.831122 205.698 1.00056L205.706 5.00055ZM402.504 117.288C376.626 38.4721 291.452 -0.169308 205.696 0.000558853L205.704 4.00055C290.586 3.83241 373.592 42.0547 398.703 118.536L402.504 117.288ZM401.225 124.93C402.831 122.782 403.357 119.886 402.504 117.288L398.703 118.536C399.136 119.855 398.872 121.397 398.022 122.535L401.225 124.93ZM175.974 228.194C251.775 237.476 335.959 212.22 401.225 124.93L398.022 122.535C333.65 208.628 250.898 233.339 176.46 224.224L175.974 228.194ZM1.25144 124.765C33.0402 175.291 100.351 218.934 175.974 228.194L176.46 224.224C101.915 215.096 35.7252 172.048 4.63711 122.634L1.25144 124.765ZM0.60726 117.288C-0.372688 119.72 -0.172383 122.501 1.25144 124.765L4.63711 122.634C3.9188 121.493 3.80145 120.063 4.31734 118.783L0.60726 117.288ZM205.696 0.000558853C119.92 0.170465 32.0963 39.1485 0.607259 117.288L4.31734 118.783C34.9659 42.7291 120.833 4.16866 205.704 4.00055L205.696 0.000558853ZM112.892 145.367C114.549 145.367 115.892 144.024 115.892 142.367H111.892C111.892 141.815 112.34 141.367 112.892 141.367V145.367ZM109.892 142.367C109.892 144.024 111.235 145.367 112.892 145.367V141.367C113.444 141.367 113.892 141.815 113.892 142.367H109.892ZM112.892 139.367C111.235 139.367 109.892 140.71 109.892 142.367H113.892C113.892 142.919 113.444 143.367 112.892 143.367V139.367ZM115.892 142.367C115.892 140.71 114.549 139.367 112.892 139.367V143.367C112.34 143.367 111.892 142.919 111.892 142.367H115.892ZM129.802 160.024C129.194 160.612 128.217 160.585 127.643 159.964L130.579 157.247C129.629 156.221 128.026 156.177 127.022 157.148L129.802 160.024ZM129.86 157.942C130.411 158.538 130.385 159.46 129.802 160.024L127.022 157.149C126.042 158.096 125.998 159.658 126.924 160.659L129.86 157.942ZM273.848 162.449C233.099 201.861 168.644 199.858 129.86 157.942L126.924 160.659C167.213 204.202 234.248 206.315 276.629 165.324L273.848 162.449ZM277.435 15.084C316.242 57.0248 314.622 123.012 273.848 162.449L276.629 165.324C318.984 124.358 320.638 55.886 280.371 12.3674L277.435 15.084ZM279.595 15.1439C278.987 15.7319 278.01 15.7047 277.435 15.0841L280.371 12.3673C279.422 11.3413 277.819 11.2967 276.814 12.2687L279.595 15.1439ZM279.653 13.0627C280.204 13.6581 280.178 14.58 279.595 15.1439L276.814 12.2687C275.834 13.2166 275.791 14.7784 276.717 15.7792L279.653 13.0627ZM275.95 164.59C317.904 124.012 319.548 56.1806 279.653 13.0626L276.717 15.7792C315.152 57.3193 313.542 122.666 273.169 161.715L275.95 164.59ZM127.643 159.964C167.561 203.107 233.971 205.192 275.95 164.59L273.169 161.715C232.822 200.739 168.992 198.763 130.579 157.247L127.643 159.964ZM210.473 23.4687C210.473 22.088 209.354 20.9687 207.973 20.9687V24.9687C207.145 24.9687 206.473 24.2972 206.473 23.4687H210.473ZM211.557 65.5555C210.477 55.4179 210.473 41.8416 210.473 23.4687H206.473C206.473 41.7478 206.471 55.5791 207.579 65.9793L211.557 65.5555ZM218.558 85.8383C214.764 81.881 212.64 75.7209 211.557 65.5555L207.579 65.9793C208.686 76.3629 210.923 83.6553 215.671 88.6067L218.558 85.8383ZM237.895 93.0976C228.187 91.9727 222.332 89.774 218.558 85.8383L215.671 88.6067C220.431 93.5709 227.455 95.9146 237.435 97.071L237.895 93.0976ZM267.671 94.2148C255.237 94.1744 245.531 93.9825 237.895 93.0976L237.435 97.071C245.326 97.9854 255.246 98.1745 267.658 98.2148L267.671 94.2148ZM278.18 94.204C274.486 94.204 270.981 94.204 267.659 94.2148L267.671 98.2148C270.987 98.204 274.485 98.204 278.18 98.204V94.204ZM278.217 94.204H278.18V98.204H278.217V94.204ZM280.717 96.704C280.717 95.3233 279.598 94.204 278.217 94.204V98.204C277.389 98.204 276.717 97.5325 276.717 96.704H280.717ZM280.717 96.7489C280.717 96.7479 280.717 96.7274 280.717 96.704H276.717C276.717 96.6948 276.717 96.6877 276.717 96.684C276.717 96.6808 276.717 96.6784 276.717 96.6808L280.717 96.7489ZM280.717 96.7256C280.717 96.7022 280.717 96.6817 280.717 96.6808L276.717 96.7489C276.717 96.7514 276.717 96.7489 276.717 96.7457C276.717 96.742 276.717 96.7349 276.717 96.7256H280.717ZM278.217 99.2256C279.598 99.2256 280.717 98.1064 280.717 96.7256H276.717C276.717 95.8971 277.389 95.2256 278.217 95.2256V99.2256ZM278.18 99.2256H278.217V95.2256H278.18V99.2256ZM267.659 99.2149C270.981 99.2256 274.486 99.2256 278.18 99.2256V95.2256C274.485 95.2256 270.987 95.2256 267.671 95.2149L267.659 99.2149ZM237.895 100.332C245.531 99.4472 255.237 99.2553 267.672 99.2149L267.659 95.2149C255.246 95.2552 245.326 95.4443 237.435 96.3587L237.895 100.332ZM218.558 107.591C222.332 103.656 228.187 101.457 237.895 100.332L237.435 96.3587C227.455 97.5151 220.431 99.8588 215.671 104.823L218.558 107.591ZM211.557 127.874C212.64 117.709 214.764 111.549 218.558 107.591L215.671 104.823C210.923 109.774 208.686 117.067 207.579 127.45L211.557 127.874ZM210.473 169.961C210.473 151.588 210.477 138.012 211.557 127.874L207.579 127.45C206.471 137.851 206.473 151.682 206.473 169.961H210.473ZM207.973 172.461C209.354 172.461 210.473 171.342 210.473 169.961H206.473C206.473 169.132 207.145 168.461 207.973 168.461V172.461ZM205.473 169.961C205.473 171.342 206.593 172.461 207.973 172.461V168.461C208.802 168.461 209.473 169.133 209.473 169.961H205.473ZM204.425 127.866C205.47 138.008 205.473 151.59 205.473 169.961H209.473C209.473 151.681 209.475 137.853 208.404 127.456L204.425 127.866ZM197.648 107.561C201.317 111.518 203.376 117.688 204.425 127.866L208.404 127.456C207.335 117.079 205.173 109.793 200.581 104.841L197.648 107.561ZM179.014 100.331C188.383 101.453 194.014 103.643 197.648 107.561L200.581 104.841C195.967 99.8662 189.154 97.5172 179.489 96.3593L179.014 100.331ZM150.232 99.2149C162.26 99.2553 171.638 99.4473 179.014 100.331L179.489 96.3593C171.85 95.4442 162.25 95.2552 150.246 95.2149L150.232 99.2149ZM140.071 99.2256C143.642 99.2256 147.032 99.2256 150.246 99.2149L150.232 95.2149C147.027 95.2256 143.644 95.2256 140.071 95.2256V99.2256ZM140.033 99.2256H140.071V95.2256H140.033V99.2256ZM137.533 96.7256C137.533 98.1064 138.652 99.2256 140.033 99.2256V95.2256C140.861 95.2256 141.533 95.8972 141.533 96.7256H137.533ZM137.533 96.6723C137.533 96.6928 137.533 96.7109 137.533 96.7256H141.533C141.533 96.7332 141.533 96.744 141.532 96.7574L137.533 96.6723ZM137.533 96.704C137.533 96.7188 137.533 96.7368 137.533 96.7574L141.532 96.6723C141.533 96.6857 141.533 96.6966 141.533 96.704H137.533ZM140.033 94.204C138.652 94.204 137.533 95.3233 137.533 96.704H141.533C141.533 97.5325 140.861 98.204 140.033 98.204V94.204ZM140.071 94.204H140.033V98.204H140.071V94.204ZM150.246 94.2148C147.032 94.204 143.642 94.204 140.071 94.204V98.204C143.644 98.204 147.027 98.204 150.232 98.2148L150.246 94.2148ZM179.014 93.0987C171.638 93.9824 162.26 94.1744 150.232 94.2148L150.246 98.2148C162.25 98.1745 171.85 97.9855 179.489 97.0704L179.014 93.0987ZM197.648 85.8685C194.014 89.7864 188.383 91.9762 179.014 93.0987L179.489 97.0704C189.154 95.9124 195.967 93.5635 200.581 88.5885L197.648 85.8685ZM204.425 65.5641C203.376 75.7414 201.317 81.9117 197.648 85.8685L200.581 88.5885C205.173 83.6369 207.335 76.3506 208.404 65.9741L204.425 65.5641ZM205.473 23.4687C205.473 41.8397 205.47 55.4212 204.425 65.5641L208.404 65.9741C209.475 55.5771 209.473 41.7489 209.473 23.4687H205.473ZM207.973 20.9687C206.593 20.9687 205.473 22.0881 205.473 23.4687H209.473C209.473 24.2971 208.802 24.9687 207.973 24.9687V20.9687ZM179.608 95.3664C177.293 95.089 174.806 94.8785 172.14 94.7184L171.9 98.7113C174.508 98.8678 176.913 99.0721 179.132 99.338L179.608 95.3664ZM201.314 104.161C196.455 98.9219 189.347 96.5332 179.608 95.3664L179.132 99.338C188.576 100.469 194.502 102.699 198.381 106.881L201.314 104.161ZM209.399 127.353C208.324 116.927 206.137 109.361 201.314 104.161L198.381 106.881C202.281 111.087 204.366 117.536 205.42 127.763L209.399 127.353ZM209.979 135.025C209.833 132.291 209.644 129.737 209.399 127.353L205.42 127.763C205.657 130.067 205.841 132.553 205.985 135.238L209.979 135.025ZM206.585 127.344C206.331 129.73 206.135 132.286 205.985 135.021L209.979 135.241C210.126 132.557 210.317 130.071 210.562 127.768L206.585 127.344ZM214.949 104.131C209.963 109.331 207.697 116.906 206.585 127.344L210.562 127.768C211.651 117.548 213.804 111.105 217.837 106.899L214.949 104.131ZM237.32 95.3653C227.272 96.5296 219.956 98.9096 214.949 104.131L217.837 106.899C221.857 102.706 228.004 100.472 237.78 99.3387L237.32 95.3653ZM245.03 94.7182C242.277 94.8781 239.71 95.0883 237.32 95.3653L237.78 99.3387C240.077 99.0725 242.565 98.8681 245.262 98.7115L245.03 94.7182ZM237.32 98.0644C239.71 98.3413 242.277 98.5516 245.03 98.7115L245.262 94.7182C242.565 94.5616 240.077 94.3571 237.78 94.091L237.32 98.0644ZM214.949 89.2988C219.956 94.5201 227.272 96.9 237.32 98.0644L237.78 94.091C228.004 92.9581 221.857 90.7233 217.837 86.5304L214.949 89.2988ZM206.585 66.0852C207.697 76.5235 209.963 84.0989 214.949 89.2988L217.837 86.5304C213.804 82.3246 211.651 75.8813 210.562 65.6615L206.585 66.0852ZM205.985 58.4082C206.135 61.1441 206.331 63.6998 206.585 66.0853L210.562 65.6615C210.317 63.3587 210.126 60.8729 209.979 58.1883L205.985 58.4082ZM209.399 66.0766C209.644 63.6931 209.833 61.1391 209.979 58.4047L205.985 58.1919C205.841 60.8767 205.657 63.363 205.42 65.6666L209.399 66.0766ZM201.314 89.2685C206.137 84.0683 208.324 76.5031 209.399 66.0767L205.42 65.6666C204.366 75.8936 202.281 82.3429 198.381 86.5485L201.314 89.2685ZM179.608 98.0633C189.347 96.8965 196.455 94.5078 201.314 89.2685L198.381 86.5485C194.502 90.7307 188.576 92.9603 179.132 94.0917L179.608 98.0633ZM172.14 98.7113C174.806 98.5512 177.293 98.3407 179.608 98.0633L179.132 94.0917C176.913 94.3576 174.508 94.5619 171.9 94.7184L172.14 98.7113Z" fill="white"/>
</svg>
