<svg width="327" height="481" viewBox="0 0 327 481" fill="none" xmlns="http://www.w3.org/2000/svg">
<path d="M16.7369 401.876H21.7289V409.832H24.8879L29.3729 401.876H34.7939L30.6599 409.091C30.2179 409.871 29.7499 410.43 29.2559 410.768C28.7879 411.08 28.2549 411.301 27.6569 411.431V411.665C28.3329 411.795 28.8919 412.042 29.3339 412.406C29.8019 412.77 30.2699 413.394 30.7379 414.278L32.7659 418.061H34.9499V422H32.2199C31.2579 422 30.4389 421.792 29.7629 421.376C29.0869 420.934 28.4759 420.219 27.9299 419.231L24.9269 413.693H21.7289V422H16.7369V401.876ZM50.3787 422.468C48.8447 422.468 47.4667 422.221 46.2447 421.727C45.0487 421.233 44.0217 420.531 43.1637 419.621C42.3317 418.711 41.6817 417.606 41.2137 416.306C40.7717 415.006 40.5507 413.55 40.5507 411.938C40.5507 410.326 40.7717 408.87 41.2137 407.57C41.6817 406.27 42.3317 405.165 43.1637 404.255C44.0217 403.345 45.0487 402.643 46.2447 402.149C47.4667 401.655 48.8447 401.408 50.3787 401.408C51.8867 401.408 53.2517 401.655 54.4737 402.149C55.6957 402.643 56.7227 403.345 57.5547 404.255C58.4127 405.165 59.0627 406.27 59.5047 407.57C59.9727 408.87 60.2067 410.326 60.2067 411.938C60.2067 413.55 59.9727 415.006 59.5047 416.306C59.0627 417.606 58.4127 418.711 57.5547 419.621C56.7227 420.531 55.6957 421.233 54.4737 421.727C53.2517 422.221 51.8867 422.468 50.3787 422.468ZM50.3787 418.646C51.8087 418.646 52.9397 418.217 53.7717 417.359C54.6037 416.475 55.0197 415.188 55.0197 413.498V410.378C55.0197 408.688 54.6037 407.414 53.7717 406.556C52.9397 405.672 51.8087 405.23 50.3787 405.23C48.9487 405.23 47.8177 405.672 46.9857 406.556C46.1537 407.414 45.7377 408.688 45.7377 410.378V413.498C45.7377 415.188 46.1537 416.475 46.9857 417.359C47.8177 418.217 48.9487 418.646 50.3787 418.646ZM67.0164 401.876H72.0084V409.832H75.1674L79.6524 401.876H85.0734L80.9394 409.091C80.4974 409.871 80.0294 410.43 79.5354 410.768C79.0674 411.08 78.5344 411.301 77.9364 411.431V411.665C78.6124 411.795 79.1714 412.042 79.6134 412.406C80.0814 412.77 80.5494 413.394 81.0174 414.278L83.0454 418.061H85.2294V422H82.4994C81.5374 422 80.7184 421.792 80.0424 421.376C79.3664 420.934 78.7554 420.219 78.2094 419.231L75.2064 413.693H72.0084V422H67.0164V401.876ZM98.1622 405.815H91.3372V401.876H109.979V405.815H103.154V422H98.1622V405.815ZM126.266 422.468C124.654 422.468 123.224 422.221 121.976 421.727C120.728 421.233 119.675 420.531 118.817 419.621C117.985 418.711 117.348 417.619 116.906 416.345C116.464 415.045 116.243 413.589 116.243 411.977C116.243 410.339 116.464 408.87 116.906 407.57C117.374 406.27 118.024 405.165 118.856 404.255C119.688 403.345 120.689 402.643 121.859 402.149C123.055 401.655 124.394 401.408 125.876 401.408C127.332 401.408 128.645 401.655 129.815 402.149C130.985 402.617 131.973 403.293 132.779 404.177C133.611 405.061 134.248 406.127 134.69 407.375C135.132 408.623 135.353 410.001 135.353 411.509V413.147H121.235V413.654C121.235 415.11 121.69 416.293 122.6 417.203C123.51 418.087 124.784 418.529 126.422 418.529C127.67 418.529 128.736 418.282 129.62 417.788C130.53 417.268 131.284 416.592 131.882 415.76L134.729 418.607C134.001 419.673 132.935 420.583 131.531 421.337C130.153 422.091 128.398 422.468 126.266 422.468ZM125.915 405.074C124.511 405.074 123.38 405.516 122.522 406.4C121.664 407.284 121.235 408.454 121.235 409.91V410.183H130.361V409.832C130.361 408.376 129.958 407.219 129.152 406.361C128.372 405.503 127.293 405.074 125.915 405.074ZM142.202 401.876H147.077V409.481L146.648 415.175H146.882L154.994 401.876H159.674V422H154.799V414.395L155.228 408.701H154.994L146.882 422H142.202V401.876ZM150.938 399.497C147.87 399.497 145.764 398.093 144.62 395.285L143.723 393.101L147.74 391.658L149.066 395.831C149.274 395.909 149.547 395.974 149.885 396.026C150.249 396.078 150.6 396.104 150.938 396.104C151.276 396.104 151.614 396.078 151.952 396.026C152.316 395.974 152.602 395.909 152.81 395.831L154.136 391.658L158.153 393.101L157.256 395.285C156.112 398.093 154.006 399.497 150.938 399.497ZM165.275 418.061H167.927C168.239 417.671 168.512 417.203 168.746 416.657C169.006 416.111 169.214 415.461 169.37 414.707C169.552 413.953 169.682 413.069 169.76 412.055C169.864 411.041 169.916 409.871 169.916 408.545V401.876H184.697V422H179.705V405.815H174.479V408.662C174.479 410.456 174.401 412.003 174.245 413.303C174.115 414.603 173.92 415.721 173.66 416.657C173.426 417.567 173.14 418.321 172.802 418.919C172.49 419.491 172.152 419.972 171.788 420.362C171.138 421.038 170.397 421.506 169.565 421.766C168.733 422.026 167.797 422.156 166.757 422.156H165.275V418.061ZM193.144 401.876H198.136V408.038H203.518C204.558 408.038 205.507 408.194 206.365 408.506C207.223 408.818 207.964 409.273 208.588 409.871C209.212 410.443 209.693 411.171 210.031 412.055C210.369 412.913 210.538 413.901 210.538 415.019C210.538 416.137 210.369 417.138 210.031 418.022C209.693 418.88 209.212 419.608 208.588 420.206C207.964 420.778 207.223 421.22 206.365 421.532C205.507 421.844 204.558 422 203.518 422H193.144V401.876ZM202.621 418.256C203.505 418.256 204.194 418.022 204.688 417.554C205.208 417.086 205.468 416.436 205.468 415.604V414.434C205.468 413.602 205.208 412.952 204.688 412.484C204.194 412.016 203.505 411.782 202.621 411.782H198.136V418.256H202.621ZM220.312 412.562V407.687H232.402V412.562H220.312ZM251.536 422.468C250.054 422.468 248.715 422.221 247.519 421.727C246.349 421.233 245.348 420.505 244.516 419.543C243.684 418.555 243.034 417.333 242.566 415.877C242.124 414.421 241.903 412.731 241.903 410.807C241.903 407.817 242.111 405.23 242.527 403.046C242.943 400.862 243.619 399.068 244.555 397.664C245.491 396.234 246.7 395.155 248.182 394.427C249.69 393.699 251.523 393.283 253.681 393.179L259.765 392.867V397.469L254.032 397.742C252.758 397.794 251.692 397.989 250.834 398.327C250.002 398.665 249.326 399.172 248.806 399.848C248.286 400.524 247.896 401.395 247.636 402.461C247.402 403.501 247.246 404.775 247.168 406.283H247.402C247.87 404.983 248.559 403.995 249.469 403.319C250.405 402.617 251.588 402.266 253.018 402.266C254.214 402.266 255.306 402.487 256.294 402.929C257.308 403.345 258.166 403.969 258.868 404.801C259.596 405.607 260.155 406.621 260.545 407.843C260.935 409.039 261.13 410.43 261.13 412.016C261.13 413.628 260.909 415.084 260.467 416.384C260.025 417.658 259.388 418.75 258.556 419.66C257.724 420.544 256.71 421.233 255.514 421.727C254.344 422.221 253.018 422.468 251.536 422.468ZM251.536 418.646C252.862 418.646 253.928 418.217 254.734 417.359C255.54 416.475 255.943 415.266 255.943 413.732V410.846C255.943 409.26 255.553 408.077 254.773 407.297C253.993 406.491 252.927 406.088 251.575 406.088C250.145 406.088 249.04 406.517 248.26 407.375C247.506 408.207 247.129 409.364 247.129 410.846V413.537C247.129 415.201 247.519 416.475 248.299 417.359C249.105 418.217 250.184 418.646 251.536 418.646ZM284.047 422C282.825 422 281.876 421.701 281.2 421.103C280.55 420.479 280.16 419.621 280.03 418.529H279.835C279.471 419.777 278.756 420.752 277.69 421.454C276.624 422.13 275.311 422.468 273.751 422.468C271.723 422.468 270.111 421.935 268.915 420.869C267.719 419.803 267.121 418.321 267.121 416.423C267.121 412.367 270.098 410.339 276.052 410.339H279.601V409.013C279.601 407.739 279.289 406.777 278.665 406.127C278.041 405.477 277.027 405.152 275.623 405.152C274.349 405.152 273.322 405.399 272.542 405.893C271.762 406.387 271.099 407.024 270.553 407.804L267.706 405.386C268.33 404.268 269.331 403.332 270.709 402.578C272.113 401.798 273.92 401.408 276.13 401.408C278.782 401.408 280.849 402.032 282.331 403.28C283.839 404.502 284.593 406.335 284.593 408.779V418.256H286.972V422H284.047ZM275.428 419.036C276.624 419.036 277.612 418.763 278.392 418.217C279.198 417.645 279.601 416.878 279.601 415.916V413.225H276.169C273.439 413.225 272.074 414.083 272.074 415.799V416.579C272.074 417.385 272.373 417.996 272.971 418.412C273.569 418.828 274.388 419.036 275.428 419.036ZM292.767 401.876H297.759V405.425H298.032C298.578 404.203 299.319 403.228 300.255 402.5C301.217 401.772 302.478 401.408 304.038 401.408C305.182 401.408 306.222 401.629 307.158 402.071C308.12 402.487 308.939 403.137 309.615 404.021C310.291 404.879 310.811 405.971 311.175 407.297C311.539 408.623 311.721 410.17 311.721 411.938C311.721 413.706 311.539 415.253 311.175 416.579C310.811 417.905 310.291 419.01 309.615 419.894C308.939 420.752 308.12 421.402 307.158 421.844C306.222 422.26 305.182 422.468 304.038 422.468C302.478 422.468 301.217 422.104 300.255 421.376C299.319 420.648 298.578 419.673 298.032 418.451H297.759V429.8H292.767V401.876ZM301.932 418.49C303.388 418.49 304.506 418.048 305.286 417.164C306.092 416.28 306.495 415.071 306.495 413.537V410.339C306.495 408.805 306.092 407.596 305.286 406.712C304.506 405.828 303.388 405.386 301.932 405.386C300.788 405.386 299.8 405.672 298.968 406.244C298.162 406.79 297.759 407.635 297.759 408.779V415.097C297.759 416.241 298.162 417.099 298.968 417.671C299.8 418.217 300.788 418.49 301.932 418.49Z" fill="white"/>
<path d="M255.615 159.304H173.343C171.687 159.304 170.343 160.647 170.343 162.304V222.299C170.344 240.911 170.343 268.113 212.979 268.113M255.615 222.299C255.615 240.911 258.458 268.113 212.979 268.113M212.979 268.113V354.015M212.979 354.015H170.343M212.979 354.015H255.615M144.762 354.015H74C72.3431 354.015 71 352.672 71 351.015V188.12C71 157.244 119.18 129.522 119.18 102.401V5C119.18 3.34315 120.524 2 122.18 2H144.762H167.343C169 2 170.343 3.34315 170.343 5V102.401" stroke="white" stroke-width="4" stroke-linecap="round"/>
<circle cx="170.512" cy="126.234" r="1" fill="white" stroke="white" stroke-width="4"/>
<circle cx="253.773" cy="197.75" r="1" fill="white" stroke="white" stroke-width="4"/>
</svg>
