<svg width="169" height="90" viewBox="0 0 169 90" fill="none" xmlns="http://www.w3.org/2000/svg">
<path d="M66.8786 32.784L16.8681 41.545C13.5583 42.1248 13.5583 46.8752 16.8681 47.455L66.8581 56.2124C67.8792 56.3912 68.7356 57.0846 69.123 58.046L79.1648 82.9645C80.1813 85.4869 83.7603 85.4638 84.7442 82.9285L94.3787 58.1011C94.7636 57.1092 95.6451 56.3954 96.6953 56.2251L150.739 47.4613C154.098 46.9165 154.098 42.0835 150.739 41.5387L96.675 32.7716C95.6357 32.6031 94.7608 31.9021 94.3698 30.9245L84.733 6.83253C83.7344 4.33592 80.2086 4.31266 79.1771 6.79588L69.1314 30.9799C68.7381 31.9267 67.8885 32.6071 66.8786 32.784Z" fill="white" stroke="black"/>
</svg>
