<svg width="973" height="1138" viewBox="0 0 973 1138" fill="none" xmlns="http://www.w3.org/2000/svg">
<path d="M332.4 136.979L285.735 136.98C252.744 136.98 226 110.235 226 77.2442V69.4918C226 32.2178 256.218 2.00183 293.492 2.00409L391.044 2.00999H565.044L673.511 2.01051C710.784 2.01069 741 32.2267 741 69.5V76.1218C741 109.738 713.749 136.989 680.132 136.989H632.335C625.117 136.989 619.265 142.841 619.265 150.06C619.265 157.279 625.118 163.131 632.337 163.13L755.785 163.112C792.353 163.107 822 192.749 822 229.317C822 265.879 792.363 295.519 755.802 295.522L632.266 295.535C625.086 295.536 619.265 301.357 619.265 308.538C619.265 315.719 625.086 321.541 632.268 321.541H836.51C872.679 321.541 902 350.862 902 387.031C902 423.2 872.679 452.521 836.51 452.521H632.999C625.414 452.521 619.265 458.67 619.265 466.255C619.265 473.841 625.415 479.991 633.002 479.989L758.234 479.964C793.449 479.958 822 508.503 822 543.717C822 578.922 793.465 607.463 758.26 607.47L632.035 607.495C624.982 607.497 619.265 613.215 619.265 620.268C619.265 627.323 624.984 633.041 632.038 633.041L680.132 633.037C713.748 633.034 741 660.284 741 693.899V696.041C741 730.837 712.792 759.045 677.996 759.045H616.268C562.427 759.045 518.779 802.692 518.779 856.534C518.779 910.374 562.425 954.021 616.266 954.023L841.515 954.028C863.874 954.029 882 972.155 882 994.514C882 1016.87 900.126 1035 922.486 1035H926.5C951.077 1035 971 1054.92 971 1079.5V1085.5C971 1113.39 948.39 1136 920.5 1136H562.485H388.485L52.4967 1135.99C24.608 1135.99 2 1113.38 2 1085.49V1078.99C2 1054.69 21.7002 1034.99 46 1035L49.5117 1035C71.8721 1035 90 1016.87 90 994.512C90 972.154 108.125 954.029 130.483 954.028L337.029 954.023C390.869 954.021 434.515 910.374 434.515 856.534C434.515 802.692 390.867 759.045 337.026 759.045H289.004C254.208 759.045 226 730.837 226 696.041V692.777C226 659.785 252.744 633.04 285.735 633.037L332.699 633.033C339.753 633.032 345.471 627.314 345.471 620.26C345.471 613.206 339.752 607.488 332.698 607.488H215.753C180.543 607.488 152 578.945 152 543.735C152 508.525 180.543 479.982 215.753 479.982H331.735C339.321 479.982 345.471 473.832 345.471 466.247C345.471 458.661 339.321 452.511 331.735 452.511L135.492 452.519C99.3223 452.52 70 423.199 70 387.029C70 350.86 99.3194 321.54 135.488 321.539L332.468 321.531C339.649 321.531 345.471 315.71 345.471 308.529C345.471 301.348 339.649 295.526 332.468 295.526L218.198 295.519C181.637 295.517 152 265.878 152 229.318C152 192.754 181.642 163.114 218.205 163.116L332.399 163.122C339.618 163.122 345.471 157.27 345.471 150.051C345.471 142.832 339.618 136.979 332.4 136.979Z" fill="#242424" fill-opacity="0.7" stroke="white" stroke-width="3"/>
</svg>
