<svg width="509" height="475" viewBox="0 0 509 475" fill="none" xmlns="http://www.w3.org/2000/svg">
<path d="M133.716 133.093L147.298 140.18C148.035 140.564 148.579 141.236 148.801 142.036L158.536 177.082C159.368 180.079 163.65 179.984 164.35 176.953L172.388 142.111C172.583 141.266 173.133 140.548 173.897 140.139L187.111 133.078C189.313 131.902 189.199 128.707 186.918 127.692L174.068 121.97C173.204 121.585 172.571 120.815 172.362 119.892L164.352 84.5279C163.662 81.4805 159.354 81.3868 158.532 84.4013L148.831 119.97C148.592 120.848 147.967 121.57 147.133 121.932L133.908 127.682C131.595 128.688 131.48 131.927 133.716 133.093Z" fill="white" stroke="black"/>
<path d="M296.647 347.318L310.229 354.404C310.965 354.788 311.509 355.461 311.732 356.261L321.467 391.306C322.299 394.304 326.581 394.209 327.28 391.178L335.319 356.335C335.513 355.491 336.064 354.772 336.828 354.364L350.042 347.303C352.244 346.127 352.129 342.932 349.848 341.917L336.999 336.195C336.134 335.81 335.502 335.04 335.293 334.117L327.283 298.753C326.592 295.705 322.285 295.611 321.463 298.626L311.762 334.195C311.522 335.073 310.898 335.794 310.064 336.157L296.839 341.907C294.525 342.913 294.411 346.151 296.647 347.318Z" fill="white" stroke="black"/>
<path d="M237.495 141.682L215.771 201.988C215.281 203.348 214.227 204.429 212.881 204.953L135.552 235.059C131.088 236.797 131.387 243.211 135.994 244.526L212.52 266.375C214.076 266.819 215.321 267.989 215.861 269.515L237.485 330.611C239.075 335.105 245.455 335.035 246.947 330.507L267.005 269.631C267.529 268.04 268.816 266.817 270.432 266.374L350.078 244.538C354.756 243.255 355.051 236.731 350.507 235.032L270.077 204.962C268.665 204.434 267.566 203.298 267.087 201.869L246.939 141.787C245.432 137.293 239.101 137.223 237.495 141.682Z" fill="white" stroke="black"/>
<path d="M472.647 237.56C472.647 190.971 458.846 145.428 432.988 106.69C407.131 67.9524 370.378 37.7601 327.378 19.9311C284.378 2.10206 237.063 -2.56281 191.414 6.52633C145.766 15.6155 103.835 38.0504 70.9248 70.9941C38.0142 103.938 15.6018 145.911 6.52178 191.605C-2.55823 237.299 2.10196 284.662 19.9131 327.705C37.7241 370.748 67.8862 407.538 106.585 433.421C145.284 459.305 190.781 473.121 237.324 473.121M472.647 237.56L506.588 191.605M472.647 237.56L432.988 191.605" stroke="white" stroke-width="3" stroke-linecap="round" stroke-linejoin="round"/>
</svg>
