<svg width="64" height="109" viewBox="0 0 64 109" fill="none" xmlns="http://www.w3.org/2000/svg">
<path d="M60.9301 64.094L56.1544 61.6023C55.418 61.2181 54.8738 60.5458 54.6515 59.7455L50.8396 46.0225C49.9959 42.9852 45.6386 43.1378 45.0094 46.2266L42.2713 59.6683C42.0989 60.5147 41.57 61.2457 40.82 61.6743L36.4815 64.1534C34.3784 65.3552 34.4931 68.4253 36.6801 69.4667L40.6428 71.3537C41.497 71.7605 42.1093 72.5463 42.2948 73.474L45.0077 87.0386C45.6286 90.1428 50.0108 90.2937 50.8437 87.2396L54.6214 73.3882C54.8607 72.5106 55.4853 71.789 56.3195 71.4263L60.7386 69.505C63.052 68.4991 63.1666 65.2608 60.9301 64.094Z" fill="white"/>
<path d="M22.68 21.708L27.024 24.3144C29.0088 25.5053 28.9544 28.4001 26.9263 29.5155L22.6632 31.8602C21.9224 32.2677 21.3879 32.9688 21.1912 33.7912L16.1687 54.7945C16.0578 55.2582 16.059 55.7415 16.1722 56.2046L21.1869 76.7192C21.3864 77.5354 21.9191 78.2305 22.6553 78.6354L26.4906 80.7448C28.6095 81.9102 28.5495 84.9753 26.3865 86.0568L22.8578 87.8211C22.0042 88.2479 21.4045 89.0555 21.2428 89.9962L18.5041 105.931C17.9502 109.153 13.3728 109.29 12.6266 106.107L8.82906 89.904C8.62107 89.0166 8.02093 88.2719 7.19801 87.88L3.41962 86.0808C1.18717 85.0177 1.12706 81.862 3.31739 80.7147L7.23118 78.6646C8.03367 78.2443 8.60324 77.4838 8.7809 76.5955L12.8836 56.0819C12.9605 55.6977 12.9613 55.3021 12.886 54.9176L8.77651 33.9133C8.60171 33.0199 8.03074 32.2542 7.22435 31.8318L2.85493 29.5431C0.755049 28.4431 0.700346 25.4569 2.75854 24.2808L7.36569 21.6482C8.08909 21.2348 8.608 20.5392 8.79812 19.728L12.6266 3.39305C13.3728 0.209522 17.9502 0.346896 18.5041 3.56944L21.2669 19.6437C21.4149 20.5048 21.9309 21.2585 22.68 21.708Z" fill="white"/>
<path d="M60.9301 64.094L56.1544 61.6023C55.418 61.2181 54.8738 60.5458 54.6515 59.7455L50.8396 46.0225C49.9959 42.9852 45.6386 43.1378 45.0094 46.2266L42.2713 59.6683C42.0989 60.5147 41.57 61.2457 40.82 61.6743L36.4815 64.1534C34.3784 65.3552 34.4931 68.4253 36.6801 69.4667L40.6428 71.3537C41.497 71.7605 42.1093 72.5463 42.2948 73.474L45.0077 87.0386C45.6286 90.1428 50.0108 90.2937 50.8437 87.2396L54.6214 73.3882C54.8607 72.5106 55.4853 71.789 56.3195 71.4263L60.7386 69.505C63.052 68.4991 63.1666 65.2608 60.9301 64.094Z" stroke="black"/>
<path d="M22.68 21.708L27.024 24.3144C29.0088 25.5053 28.9544 28.4001 26.9263 29.5155L22.6632 31.8602C21.9224 32.2677 21.3879 32.9688 21.1912 33.7912L16.1687 54.7945C16.0578 55.2582 16.059 55.7415 16.1722 56.2046L21.1869 76.7192C21.3864 77.5354 21.9191 78.2305 22.6553 78.6354L26.4906 80.7448C28.6095 81.9102 28.5495 84.9753 26.3865 86.0568L22.8578 87.8211C22.0042 88.2479 21.4045 89.0555 21.2428 89.9962L18.5041 105.931C17.9502 109.153 13.3728 109.29 12.6266 106.107L8.82906 89.904C8.62107 89.0166 8.02093 88.2719 7.19801 87.88L3.41962 86.0808C1.18717 85.0177 1.12706 81.862 3.31739 80.7147L7.23118 78.6646C8.03367 78.2443 8.60324 77.4838 8.7809 76.5955L12.8836 56.0819C12.9605 55.6977 12.9613 55.3021 12.886 54.9176L8.77651 33.9133C8.60171 33.0199 8.03074 32.2542 7.22435 31.8318L2.85493 29.5431C0.755049 28.4431 0.700346 25.4569 2.75854 24.2808L7.36569 21.6482C8.08909 21.2348 8.608 20.5392 8.79812 19.728L12.6266 3.39305C13.3728 0.209522 17.9502 0.346896 18.5041 3.56944L21.2669 19.6437C21.4149 20.5048 21.9309 21.2585 22.68 21.708Z" stroke="black"/>
</svg>
